<svg xmlns:xlink="http://www.w3.org/1999/xlink" version="1.1" style="font-family:'lucida grande', 'lucida sans unicode', arial, helvetica, sans-serif;font-size:12px;" xmlns="http://www.w3.org/2000/svg" width="600" height="400"><desc>Created with Highcharts 4.0.4</desc><defs><clipPath id="highcharts-17"><rect x="0" y="0" width="522" height="224"></rect></clipPath></defs><rect x="0" y="0" width="600" height="400" strokeWidth="0" fill="#FFFFFF" class=" highcharts-background"></rect><g class="highcharts-grid" ></g><g class="highcharts-grid" ><path fill="none" d="M 68 71.5 L 590 71.5" stroke="#C0C0C0" stroke-width="1"  opacity="1"></path><path fill="none" d="M 68 128.5 L 590 128.5" stroke="#C0C0C0" stroke-width="1"  opacity="1"></path><path fill="none" d="M 68 184.5 L 590 184.5" stroke="#C0C0C0" stroke-width="1"  opacity="1"></path><path fill="none" d="M 68 240.5 L 590 240.5" stroke="#C0C0C0" stroke-width="1"  opacity="1"></path><path fill="none" d="M 68 296.5 L 590 296.5" stroke="#C0C0C0" stroke-width="1"  opacity="1"></path></g><g class="highcharts-axis" ><path fill="none" d="M 227.5 296 L 227.5 306" stroke="#C0D0E0" stroke-width="1" opacity="1"></path><path fill="none" d="M 306.5 296 L 306.5 306" stroke="#C0D0E0" stroke-width="1" opacity="1"></path><path fill="none" d="M 386.5 296 L 386.5 306" stroke="#C0D0E0" stroke-width="1" opacity="1"></path><path fill="none" d="M 466.5 296 L 466.5 306" stroke="#C0D0E0" stroke-width="1" opacity="1"></path><path fill="none" d="M 546.5 296 L 546.5 306" stroke="#C0D0E0" stroke-width="1" opacity="1"></path><path fill="none" d="M 147.5 296 L 147.5 306" stroke="#C0D0E0" stroke-width="1" opacity="1"></path><text x="329"  text-anchor="middle" transform="translate(0,0)" class=" highcharts-xaxis-title" style="color:#707070;fill:#707070;" visibility="visible" y="337.796875">Time</text><path fill="none" d="M 68 296.5 L 590 296.5" stroke="#C0D0E0" stroke-width="1"  visibility="visible"></path></g><g class="highcharts-axis" ><text x="28.859375"  text-anchor="middle" transform="translate(0,0) rotate(270 28.859375 184)" class=" highcharts-yaxis-title" style="color:#707070;fill:#707070;" visibility="visible" y="184"><tspan>Questions Correct</tspan></text></g><g class="highcharts-series-group" ><g class="highcharts-series" visibility="visible"  transform="translate(68,72) scale(1 1)" clip-path="url(#highcharts-17)"><path fill="none" d="M 5.11764705882353 218.4 C 5.11764705882353 218.4 5.237321812494269 215.488 5.317104981608095 212.8 C 5.3702937610173125 211.008 5.396888150721921 207.2084634760705 5.4500769301311385 207.2 C 33.551482051334304 202.72846347607052 47.60218461193589 202.35620873269434 75.70358973313905 201.6 C 214.0830641627862 197.87620873269435 283.2728013776098 200.47684527238974 421.65227580725696 196 C 421.7497885695072 195.99684527238972 421.7985449506323 192.9936842105253 421.8960577128825 190.4 C 421.9669760854282 188.5136842105253 422.00243527170096 184.90860606060608 422.0733536442466 184.8 C 424.92781813920794 180.42860606060606 426.3550503866885 181.54181818181823 429.2095148816499 179.2 C 431.81576507270154 177.0618181818182 433.1188901682273 174.93042424242424 435.725140359279 173.6 C 441.8950387707482 170.45042424242425 444.9799879764829 168.89728920863308 451.14988638795205 168 C 475.7851560509879 164.41728920863306 488.1027908825058 166.87034829443448 512.7380605455417 162.4 C 512.7912493249509 162.3903482944345 512.8178437146555 159.04000000000002 512.8710324940647 156.8 C 512.9242212734739 154.56 512.9508156631786 153.44 513.0040044425878 151.2 C 513.057193221997 148.95999999999998 513.0837876117016 145.60000000000002 513.1369763911108 145.60000000000002 C 513.1813003739519 145.60000000000002 513.2034623653724 145.60000000000002 513.2477863482134 145.60000000000002 C 513.2832455344862 145.60000000000002 513.3009751276226 141.62909090908948 513.3364343138953 140 C 513.3984878898727 137.14909090908947 513.4295146778614 136.4906666666664 513.4915682538389 134.4 C 513.5624866263845 132.01066666666642 513.5979458126574 131.04000000000002 513.668864185203 128.8 C 513.7397825577486 126.56 513.7752417440214 125.5893333333336 513.846160116567 123.2 C 513.9082136925445 121.1093333333336 513.9392404805332 119.84000000000002 514.0012940565106 117.60000000000001 C 514.063347632488 115.36 514.0943744204767 114.61333333333414 514.1564279964541 112 C 514.2007519792951 110.13333333333412 514.2229139707157 108.63999999999713 514.2672379535567 106.4 C 514.3115619363978 104.15999999999713 514.3337239278183 102.66666666666588 514.3780479106592 100.80000000000001 C 514.4401014866366 98.18666666666589 514.4711282746254 97.44000000000001 514.5331818506028 95.20000000000002 C 514.5952354265802 92.96000000000001 514.6262622145689 90.90666666666709 514.6883157905463 89.60000000000002 C 514.8390173322057 86.42666666666709 514.9143681030355 87.46181818181842 515.0650696446949 84 C 515.1093936275358 82.98181818181841 515.1315556189563 80.26666666666867 515.1758796017974 78.4 C 515.2379331777748 75.78666666666867 515.2689599657635 74.89066666666642 515.331013541741 72.80000000000001 C 515.4019319142866 70.41066666666643 515.4373911005594 69.44000000000182 515.5083094731051 67.20000000000002 C 515.5792278456507 64.96000000000181 515.6146870319235 64.16000000000062 515.6856054044691 61.60000000000002 C 515.7387941838783 59.68000000000061 515.765388573583 57.920000000001174 515.8185773529922 56 C 515.8894957255377 53.44000000000117 515.9249549118106 52.789333333333595 515.9958732843562 50.400000000000006 C 516.0579268603336 48.3093333333336 516.0889536483223 46.05439999999964 516.1510072242997 44.80000000000001 C 516.3105735625275 41.57439999999965 516.3903567316413 42.42559999999973 516.5499230698689 39.20000000000002 C 516.6119766458463 37.94559999999974 516.643003433835 35.69066666666644 516.7050570098124 33.60000000000002 C 516.7759753823581 31.210666666666434 516.8823529411765 28 516.8823529411765 28" stroke="#9ab2d6" stroke-width="2"  stroke-linejoin="round" stroke-linecap="round"></path></g><g class="highcharts-markers" visibility="visible"  transform="translate(68,72) scale(1 1)" clip-path="none"><path fill="rgb(8, 243, 53)" d="M 516 24 C 521.328 24 521.328 32 516 32 C 510.672 32 510.672 24 516 24 Z"></path><path fill="rgb(8, 243, 53)" d="M 516 29.600000000000023 C 521.328 29.600000000000023 521.328 37.60000000000002 516 37.60000000000002 C 510.672 37.60000000000002 510.672 29.600000000000023 516 29.600000000000023 Z"></path><path fill="rgb(8, 243, 53)" d="M 516 35.20000000000002 C 521.328 35.20000000000002 521.328 43.20000000000002 516 43.20000000000002 C 510.672 43.20000000000002 510.672 35.20000000000002 516 35.20000000000002 Z"></path><path fill="rgb(8, 243, 53)" d="M 516 40.80000000000001 C 521.328 40.80000000000001 521.328 48.80000000000001 516 48.80000000000001 C 510.672 48.80000000000001 510.672 40.80000000000001 516 40.80000000000001 Z"></path><path fill="rgb(8, 243, 53)" d="M 515 46.400000000000006 C 520.328 46.400000000000006 520.328 54.400000000000006 515 54.400000000000006 C 509.672 54.400000000000006 509.672 46.400000000000006 515 46.400000000000006 Z"></path><path fill="rgb(8, 243, 53)" d="M 515 52 C 520.328 52 520.328 60 515 60 C 509.672 60 509.672 52 515 52 Z"></path><path fill="rgb(8, 243, 53)" d="M 515 57.60000000000002 C 520.328 57.60000000000002 520.328 65.60000000000002 515 65.60000000000002 C 509.672 65.60000000000002 509.672 57.60000000000002 515 57.60000000000002 Z"></path><path fill="rgb(8, 243, 53)" d="M 515 63.20000000000002 C 520.328 63.20000000000002 520.328 71.20000000000002 515 71.20000000000002 C 509.672 71.20000000000002 509.672 63.20000000000002 515 63.20000000000002 Z"></path><path fill="rgb(8, 243, 53)" d="M 515 68.80000000000001 C 520.328 68.80000000000001 520.328 76.80000000000001 515 76.80000000000001 C 509.672 76.80000000000001 509.672 68.80000000000001 515 68.80000000000001 Z"></path><path fill="rgb(8, 243, 53)" d="M 515 74.4 C 520.328 74.4 520.328 82.4 515 82.4 C 509.672 82.4 509.672 74.4 515 74.4 Z"></path><path fill="rgb(8, 243, 53)" d="M 515 80 C 520.328 80 520.328 88 515 88 C 509.672 88 509.672 80 515 80 Z"></path><path fill="rgb(8, 243, 53)" d="M 514 85.60000000000002 C 519.328 85.60000000000002 519.328 93.60000000000002 514 93.60000000000002 C 508.672 93.60000000000002 508.672 85.60000000000002 514 85.60000000000002 Z"></path><path fill="rgb(8, 243, 53)" d="M 514 91.20000000000002 C 519.328 91.20000000000002 519.328 99.20000000000002 514 99.20000000000002 C 508.672 99.20000000000002 508.672 91.20000000000002 514 91.20000000000002 Z"></path><path fill="rgb(8, 243, 53)" d="M 514 96.80000000000001 C 519.328 96.80000000000001 519.328 104.80000000000001 514 104.80000000000001 C 508.672 104.80000000000001 508.672 96.80000000000001 514 96.80000000000001 Z"></path><path fill="rgb(8, 243, 53)" d="M 514 102.4 C 519.328 102.4 519.328 110.4 514 110.4 C 508.672 110.4 508.672 102.4 514 102.4 Z"></path><path fill="rgb(8, 243, 53)" d="M 514 108 C 519.328 108 519.328 116 514 116 C 508.672 116 508.672 108 514 108 Z"></path><path fill="rgb(8, 243, 53)" d="M 514 113.60000000000001 C 519.328 113.60000000000001 519.328 121.60000000000001 514 121.60000000000001 C 508.672 121.60000000000001 508.672 113.60000000000001 514 113.60000000000001 Z"></path><path fill="rgb(8, 243, 53)" d="M 513 119.2 C 518.328 119.2 518.328 127.2 513 127.2 C 507.672 127.2 507.672 119.2 513 119.2 Z"></path><path fill="rgb(8, 243, 53)" d="M 513 124.80000000000001 C 518.328 124.80000000000001 518.328 132.8 513 132.8 C 507.672 132.8 507.672 124.80000000000001 513 124.80000000000001 Z"></path><path fill="rgb(8, 243, 53)" d="M 513 130.4 C 518.328 130.4 518.328 138.4 513 138.4 C 507.672 138.4 507.672 130.4 513 130.4 Z"></path><path fill="rgb(8, 243, 53)" d="M 513 136 C 518.328 136 518.328 144 513 144 C 507.672 144 507.672 136 513 136 Z"></path><path fill="rgb(245, 64, 50)" d="M 513 141.60000000000002 C 518.328 141.60000000000002 518.328 149.60000000000002 513 149.60000000000002 C 507.672 149.60000000000002 507.672 141.60000000000002 513 141.60000000000002 Z"></path><path fill="rgb(8, 243, 53)" d="M 513 141.60000000000002 C 518.328 141.60000000000002 518.328 149.60000000000002 513 149.60000000000002 C 507.672 149.60000000000002 507.672 141.60000000000002 513 141.60000000000002 Z"></path><path fill="rgb(8, 243, 53)" d="M 513 147.2 C 518.328 147.2 518.328 155.2 513 155.2 C 507.672 155.2 507.672 147.2 513 147.2 Z"></path><path fill="rgb(8, 243, 53)" d="M 512 152.8 C 517.328 152.8 517.328 160.8 512 160.8 C 506.672 160.8 506.672 152.8 512 152.8 Z"></path><path fill="rgb(8, 243, 53)" d="M 512 158.4 C 517.328 158.4 517.328 166.4 512 166.4 C 506.672 166.4 506.672 158.4 512 158.4 Z"></path><path fill="rgb(8, 243, 53)" d="M 451 164 C 456.328 164 456.328 172 451 172 C 445.672 172 445.672 164 451 164 Z"></path><path fill="rgb(8, 243, 53)" d="M 435 169.6 C 440.328 169.6 440.328 177.6 435 177.6 C 429.672 177.6 429.672 169.6 435 169.6 Z"></path><path fill="rgb(8, 243, 53)" d="M 429 175.2 C 434.328 175.2 434.328 183.2 429 183.2 C 423.672 183.2 423.672 175.2 429 175.2 Z"></path><path fill="rgb(8, 243, 53)" d="M 422 180.8 C 427.328 180.8 427.328 188.8 422 188.8 C 416.672 188.8 416.672 180.8 422 180.8 Z"></path><path fill="rgb(8, 243, 53)" d="M 421 186.4 C 426.328 186.4 426.328 194.4 421 194.4 C 415.672 194.4 415.672 186.4 421 186.4 Z"></path><path fill="rgb(8, 243, 53)" d="M 421 192 C 426.328 192 426.328 200 421 200 C 415.672 200 415.672 192 421 192 Z"></path><path fill="rgb(8, 243, 53)" d="M 75 197.6 C 80.328 197.6 80.328 205.6 75 205.6 C 69.672 205.6 69.672 197.6 75 197.6 Z"></path><path fill="rgb(8, 243, 53)" d="M 5 203.2 C 10.328 203.2 10.328 211.2 5 211.2 C -0.32800000000000007 211.2 -0.32800000000000007 203.2 5 203.2 Z"></path><path fill="rgb(8, 243, 53)" d="M 5 208.8 C 10.328 208.8 10.328 216.8 5 216.8 C -0.32800000000000007 216.8 -0.32800000000000007 208.8 5 208.8 Z"></path><path fill="rgb(8, 243, 53)" d="M 5 214.4 C 10.328 214.4 10.328 222.4 5 222.4 C -0.32800000000000007 222.4 -0.32800000000000007 214.4 5 214.4 Z"></path></g></g><text x="300" text-anchor="middle" class="highcharts-title"  style="color:#333333;font-size:18px;fill:#333333;width:536px;" y="25"><tspan>Questions Correct Over Time</tspan></text><text x="300" text-anchor="middle" class="highcharts-subtitle"  style="color:#555555;fill:#555555;width:536px;" y="53"><tspan>Click and drag in the plot area to zoom in</tspan></text><g class="highcharts-legend"  transform="translate(255,364)"><g ><g><g class="highcharts-legend-item"  transform="translate(8,3)"><path fill="none" d="M 0 11 L 16 11" stroke="#9ab2d6" stroke-width="2"></path><path fill="#9ab2d6" d="M 8 7 C 13.328 7 13.328 15 8 15 C 2.6719999999999997 15 2.6719999999999997 7 8 7 Z"></path><text x="21" style="color:#333333;font-size:12px;font-weight:bold;cursor:pointer;fill:#333333;" text-anchor="start"  y="15">Questions</text></g></g></g></g><g class="highcharts-axis-labels highcharts-xaxis-labels" ><text x="147.73707217167137" text-anchor="middle" style="color:#606060;cursor:default;font-size:11px;fill:#606060;" y="316" opacity="1"><tspan>06:00 PM</tspan></text><text x="227.5202412854974" text-anchor="middle" style="color:#606060;cursor:default;font-size:11px;fill:#606060;" y="316" opacity="1"><tspan>07:00 PM</tspan></text><text x="307.3034103993234" text-anchor="middle" style="color:#606060;cursor:default;font-size:11px;fill:#606060;" y="316" opacity="1"><tspan>08:00 PM</tspan></text><text x="387.08657951314945" text-anchor="middle" style="color:#606060;cursor:default;font-size:11px;fill:#606060;" y="316" opacity="1"><tspan>09:00 PM</tspan></text><text x="466.8697486269755" text-anchor="middle" style="color:#606060;cursor:default;font-size:11px;fill:#606060;" y="316" opacity="1"><tspan>10:00 PM</tspan></text><text x="546.6529177408015" text-anchor="middle" style="color:#606060;cursor:default;font-size:11px;fill:#606060;" y="316" opacity="1"><tspan>11:00 PM</tspan></text></g><g class="highcharts-axis-labels highcharts-yaxis-labels" ><text x="53" text-anchor="end" style="width:178px;color:#606060;cursor:default;font-size:11px;fill:#606060;" y="299.6015625" opacity="1">0</text><text x="53" text-anchor="end" style="width:178px;color:#606060;cursor:default;font-size:11px;fill:#606060;" y="243.6015625" opacity="1">10</text><text x="53" text-anchor="end" style="width:178px;color:#606060;cursor:default;font-size:11px;fill:#606060;" y="187.6015625" opacity="1">20</text><text x="53" text-anchor="end" style="width:178px;color:#606060;cursor:default;font-size:11px;fill:#606060;" y="131.6015625" opacity="1">30</text><text x="53" text-anchor="end" style="width:178px;color:#606060;cursor:default;font-size:11px;fill:#606060;" y="75.6015625" opacity="1">40</text></g><g class="highcharts-tooltip"  style="cursor:default;padding:0;white-space:nowrap;" transform="translate(0,-9999)"><path fill="none" d="M 3 0 L 13 0 C 16 0 16 0 16 3 L 16 13 C 16 16 16 16 13 16 L 3 16 C 0 16 0 16 0 13 L 0 3 C 0 0 0 0 3 0"  stroke="black" stroke-opacity="0.049999999999999996" stroke-width="5" transform="translate(1, 1)"></path><path fill="none" d="M 3 0 L 13 0 C 16 0 16 0 16 3 L 16 13 C 16 16 16 16 13 16 L 3 16 C 0 16 0 16 0 13 L 0 3 C 0 0 0 0 3 0"  stroke="black" stroke-opacity="0.09999999999999999" stroke-width="3" transform="translate(1, 1)"></path><path fill="none" d="M 3 0 L 13 0 C 16 0 16 0 16 3 L 16 13 C 16 16 16 16 13 16 L 3 16 C 0 16 0 16 0 13 L 0 3 C 0 0 0 0 3 0"  stroke="black" stroke-opacity="0.15" stroke-width="1" transform="translate(1, 1)"></path><path fill="rgb(249, 249, 249)" fill-opacity=" .85" d="M 3 0 L 13 0 C 16 0 16 0 16 3 L 16 13 C 16 16 16 16 13 16 L 3 16 C 0 16 0 16 0 13 L 0 3 C 0 0 0 0 3 0"></path><text x="8"  style="font-size:12px;color:#333333;fill:#333333;" y="21"></text></g><text x="590" text-anchor="end"  style="cursor:pointer;color:#909090;font-size:9px;fill:#909090;" y="395">Highcharts.com</text></svg>