<svg xmlns:xlink="http://www.w3.org/1999/xlink" version="1.1" style="font-family:'lucida grande', 'lucida sans unicode', arial, helvetica, sans-serif;font-size:12px;" xmlns="http://www.w3.org/2000/svg" width="600" height="400"><desc>Created with Highcharts 4.0.4</desc><defs><clipPath id="highcharts-113"><rect x="0" y="0" width="513" height="225"></rect></clipPath></defs><rect x="0" y="0" width="600" height="400" strokeWidth="0" fill="#FFFFFF" class=" highcharts-background"></rect><g class="highcharts-grid" ></g><g class="highcharts-grid" ><path fill="none" d="M 77 70.5 L 590 70.5" stroke="#C0C0C0" stroke-width="1"  opacity="1"></path><path fill="none" d="M 77 116.5 L 590 116.5" stroke="#C0C0C0" stroke-width="1"  opacity="1"></path><path fill="none" d="M 77 161.5 L 590 161.5" stroke="#C0C0C0" stroke-width="1"  opacity="1"></path><path fill="none" d="M 77 206.5 L 590 206.5" stroke="#C0C0C0" stroke-width="1"  opacity="1"></path><path fill="none" d="M 77 251.5 L 590 251.5" stroke="#C0C0C0" stroke-width="1"  opacity="1"></path><path fill="none" d="M 77 296.5 L 590 296.5" stroke="#C0C0C0" stroke-width="1"  opacity="1"></path></g><g class="highcharts-axis" ><path fill="none" d="M 180.5 296 L 180.5 306" stroke="#C0D0E0" stroke-width="1" opacity="1"></path><path fill="none" d="M 273.5 296 L 273.5 306" stroke="#C0D0E0" stroke-width="1" opacity="1"></path><path fill="none" d="M 366.5 296 L 366.5 306" stroke="#C0D0E0" stroke-width="1" opacity="1"></path><path fill="none" d="M 459.5 296 L 459.5 306" stroke="#C0D0E0" stroke-width="1" opacity="1"></path><path fill="none" d="M 551.5 296 L 551.5 306" stroke="#C0D0E0" stroke-width="1" opacity="1"></path><path fill="none" d="M 87.5 296 L 87.5 306" stroke="#C0D0E0" stroke-width="1" opacity="1"></path><text x="333.5"  text-anchor="middle" transform="translate(0,0)" class=" highcharts-xaxis-title" style="color:#707070;fill:#707070;" visibility="visible" y="338">Time</text><path fill="none" d="M 77 296.5 L 590 296.5" stroke="#C0D0E0" stroke-width="1"  visibility="visible"></path></g><g class="highcharts-axis" ><text x="27.66666603088379"  text-anchor="middle" transform="translate(0,0) rotate(270 27.66666603088379 183.5)" class=" highcharts-yaxis-title" style="color:#707070;fill:#707070;" visibility="visible" y="183.5"><tspan>Questions Correct</tspan></text></g><g class="highcharts-series-group" ><g class="highcharts-series" visibility="visible"  transform="translate(77,71) scale(1 1)" clip-path="url(#highcharts-113)"><path fill="none" d="M 5.029411764705882 225 C 5.029411764705882 225 30.099095022624432 225 46.81221719457013 225 C 57.33529411764705 225 62.596832579185524 216.06666666666663 73.11990950226244 207 C 79.30995475113123 201.66666666666666 82.40497737556561 193.79999999999998 88.59502262443438 189 C 100.97511312217193 179.4 107.1651583710407 171 119.54524886877827 171 C 138.1153846153846 171 147.4004524886878 171 165.97058823529412 171 C 180.2076923076923 171 187.3262443438914 161.49230769230766 201.56334841628959 153 C 211.46742081447965 147.09230769230768 216.41945701357469 135 226.3235294117647 135 C 229.41855203619906 135 230.96606334841627 135 234.06108597285066 135 C 256.34524886877824 135 267.4873303167421 135 289.77149321266967 135 C 302.15158371040724 135 308.341628959276 126.6 320.72171945701353 117 C 326.9117647058823 112.19999999999999 330.00678733031674 99 336.1968325791855 99 C 344.2438914027149 99 348.2674208144796 99 356.314479638009 99 C 366.83755656108593 99 372.09909502262445 81 382.6221719457013 81 C 401.19230769230774 81 410.47737556561077 81 429.0475113122172 81 C 437.71357466063347 81 442.0466063348416 71.76521739130438 450.7126696832579 63 C 456.28371040723977 57.36521739130437 459.0692307692308 51.171428571428535 464.64027149321265 45 C 472.0683257918552 36.77142857142853 475.7823529411765 27 483.210407239819 27 C 493.114479638009 27 507.9705882352941 27 507.9705882352941 27" stroke="#9ab2d6" stroke-width="2"  stroke-linejoin="round" stroke-linecap="round"></path></g><g class="highcharts-markers" visibility="visible"  transform="translate(77,71) scale(1 1)" clip-path="none"><path fill="rgb(245, 64, 50)" d="M 507 23 C 512.328 23 512.328 31 507 31 C 501.672 31 501.672 23 507 23 Z"></path><path fill="rgb(8, 243, 53)" d="M 483 23 C 488.328 23 488.328 31 483 31 C 477.672 31 477.672 23 483 23 Z"></path><path fill="rgb(8, 243, 53)" d="M 464 41 C 469.328 41 469.328 49 464 49 C 458.672 49 458.672 41 464 41 Z"></path><path fill="rgb(8, 243, 53)" d="M 450 59 C 455.328 59 455.328 67 450 67 C 444.672 67 444.672 59 450 59 Z"></path><path fill="rgb(245, 64, 50)" d="M 429 77 C 434.328 77 434.328 85 429 85 C 423.672 85 423.672 77 429 77 Z"></path><path fill="rgb(8, 243, 53)" d="M 382 77 C 387.328 77 387.328 85 382 85 C 376.672 85 376.672 77 382 77 Z"></path><path fill="rgb(245, 64, 50)" d="M 356 95 C 361.328 95 361.328 103 356 103 C 350.672 103 350.672 95 356 95 Z"></path><path fill="rgb(8, 243, 53)" d="M 336 95 C 341.328 95 341.328 103 336 103 C 330.672 103 330.672 95 336 95 Z"></path><path fill="rgb(8, 243, 53)" d="M 320 113 C 325.328 113 325.328 121 320 121 C 314.672 121 314.672 113 320 113 Z"></path><path fill="rgb(245, 64, 50)" d="M 289 131 C 294.328 131 294.328 139 289 139 C 283.672 139 283.672 131 289 131 Z"></path><path fill="rgb(245, 64, 50)" d="M 234 131 C 239.328 131 239.328 139 234 139 C 228.672 139 228.672 131 234 131 Z"></path><path fill="rgb(8, 243, 53)" d="M 226 131 C 231.328 131 231.328 139 226 139 C 220.672 139 220.672 131 226 131 Z"></path><path fill="rgb(8, 243, 53)" d="M 201 149 C 206.328 149 206.328 157 201 157 C 195.672 157 195.672 149 201 149 Z"></path><path fill="rgb(245, 64, 50)" d="M 165 167 C 170.328 167 170.328 175 165 175 C 159.672 175 159.672 167 165 167 Z"></path><path fill="rgb(8, 243, 53)" d="M 119 167 C 124.328 167 124.328 175 119 175 C 113.672 175 113.672 167 119 167 Z"></path><path fill="rgb(8, 243, 53)" d="M 88 185 C 93.328 185 93.328 193 88 193 C 82.672 193 82.672 185 88 185 Z"></path><path fill="rgb(8, 243, 53)" d="M 73 203 C 78.328 203 78.328 211 73 211 C 67.672 211 67.672 203 73 203 Z"></path><path fill="rgb(245, 64, 50)" d="M 46 221 C 51.328 221 51.328 229 46 229 C 40.672 229 40.672 221 46 221 Z"></path><path fill="rgb(245, 64, 50)" d="M 5 221 C 10.328 221 10.328 229 5 229 C -0.32800000000000007 229 -0.32800000000000007 221 5 221 Z"></path></g></g><text x="300" text-anchor="middle" class="highcharts-title"  style="color:#333333;font-size:18px;fill:#333333;width:536px;" y="25"><tspan>Questions Correct Over Time</tspan></text><text x="300" text-anchor="middle" class="highcharts-subtitle"  style="color:#555555;fill:#555555;width:536px;" y="53"><tspan>Click and drag in the plot area to zoom in</tspan></text><g class="highcharts-legend"  transform="translate(255,364)"><g ><g><g class="highcharts-legend-item"  transform="translate(8,3)"><path fill="none" d="M 0 11 L 16 11" stroke="#9ab2d6" stroke-width="2"></path><path fill="#9ab2d6" d="M 8 7 C 13.328 7 13.328 15 8 15 C 2.6719999999999997 15 2.6719999999999997 7 8 7 Z"></path><text x="21" style="color:#333333;font-size:12px;font-weight:bold;cursor:pointer;fill:#333333;" text-anchor="start"  y="15">Questions</text></g></g></g></g><g class="highcharts-axis-labels highcharts-xaxis-labels" ><text x="88.21945701357465" text-anchor="middle" style="color:#606060;cursor:default;font-size:11px;fill:#606060;" y="316" opacity="1"><tspan>01:36 PM</tspan></text><text x="181.07013574660633" text-anchor="middle" style="color:#606060;cursor:default;font-size:11px;fill:#606060;" y="316" opacity="1"><tspan>01:37 PM</tspan></text><text x="273.920814479638" text-anchor="middle" style="color:#606060;cursor:default;font-size:11px;fill:#606060;" y="316" opacity="1"><tspan>01:38 PM</tspan></text><text x="366.77149321266967" text-anchor="middle" style="color:#606060;cursor:default;font-size:11px;fill:#606060;" y="316" opacity="1"><tspan>01:39 PM</tspan></text><text x="459.6221719457013" text-anchor="middle" style="color:#606060;cursor:default;font-size:11px;fill:#606060;" y="316" opacity="1"><tspan>01:40 PM</tspan></text><text x="552.472850678733" text-anchor="middle" style="color:#606060;cursor:default;font-size:11px;fill:#606060;" y="316" opacity="1"><tspan>01:41 PM</tspan></text></g><g class="highcharts-axis-labels highcharts-yaxis-labels" ><text x="62" text-anchor="end" style="width:178px;color:#606060;cursor:default;font-size:11px;fill:#606060;" y="299.5" opacity="1">0</text><text x="62" text-anchor="end" style="width:178px;color:#606060;cursor:default;font-size:11px;fill:#606060;" y="119.5" opacity="1">10</text><text x="62" text-anchor="end" style="width:178px;color:#606060;cursor:default;font-size:11px;fill:#606060;" y="254.5" opacity="1">2.5</text><text x="62" text-anchor="end" style="width:178px;color:#606060;cursor:default;font-size:11px;fill:#606060;" y="209.5" opacity="1">5</text><text x="62" text-anchor="end" style="width:178px;color:#606060;cursor:default;font-size:11px;fill:#606060;" y="164.5" opacity="1">7.5</text><text x="62" text-anchor="end" style="width:178px;color:#606060;cursor:default;font-size:11px;fill:#606060;" y="74.5" opacity="1">12.5</text></g><g class="highcharts-tooltip"  style="cursor:default;padding:0;white-space:nowrap;" transform="translate(0,-9999)"><path fill="none" d="M 3 0 L 13 0 C 16 0 16 0 16 3 L 16 13 C 16 16 16 16 13 16 L 3 16 C 0 16 0 16 0 13 L 0 3 C 0 0 0 0 3 0"  stroke="black" stroke-opacity="0.049999999999999996" stroke-width="5" transform="translate(1, 1)"></path><path fill="none" d="M 3 0 L 13 0 C 16 0 16 0 16 3 L 16 13 C 16 16 16 16 13 16 L 3 16 C 0 16 0 16 0 13 L 0 3 C 0 0 0 0 3 0"  stroke="black" stroke-opacity="0.09999999999999999" stroke-width="3" transform="translate(1, 1)"></path><path fill="none" d="M 3 0 L 13 0 C 16 0 16 0 16 3 L 16 13 C 16 16 16 16 13 16 L 3 16 C 0 16 0 16 0 13 L 0 3 C 0 0 0 0 3 0"  stroke="black" stroke-opacity="0.15" stroke-width="1" transform="translate(1, 1)"></path><path fill="rgb(249, 249, 249)" fill-opacity=" .85" d="M 3 0 L 13 0 C 16 0 16 0 16 3 L 16 13 C 16 16 16 16 13 16 L 3 16 C 0 16 0 16 0 13 L 0 3 C 0 0 0 0 3 0"></path><text x="8"  style="font-size:12px;color:#333333;fill:#333333;" y="21"></text></g><text x="590" text-anchor="end"  style="cursor:pointer;color:#909090;font-size:9px;fill:#909090;" y="395">Highcharts.com</text></svg>