<svg xmlns:xlink="http://www.w3.org/1999/xlink" version="1.1" style="font-family:'lucida grande', 'lucida sans unicode', arial, helvetica, sans-serif;font-size:12px;" xmlns="http://www.w3.org/2000/svg" width="600" height="400"><desc>Created with Highcharts 4.0.4</desc><defs><clipPath id="highcharts-527"><rect x="0" y="0" width="523" height="249"></rect></clipPath></defs><rect x="0" y="0" width="600" height="400" strokeWidth="0" fill="#FFFFFF" class=" highcharts-background"></rect><g class="highcharts-grid" ></g><g class="highcharts-grid" ><path fill="none" d="M 67 60.5 L 590 60.5" stroke="#C0C0C0" stroke-width="1"  opacity="1"></path><path fill="none" d="M 67 122.5 L 590 122.5" stroke="#C0C0C0" stroke-width="1"  opacity="1"></path><path fill="none" d="M 67 185.5 L 590 185.5" stroke="#C0C0C0" stroke-width="1"  opacity="1"></path><path fill="none" d="M 67 247.5 L 590 247.5" stroke="#C0C0C0" stroke-width="1"  opacity="1"></path><path fill="none" d="M 67 309.5 L 590 309.5" stroke="#C0C0C0" stroke-width="1"  opacity="1"></path></g><g class="highcharts-axis" ><path fill="none" d="M 141.5 309 L 141.5 319" stroke="#C0D0E0" stroke-width="1" opacity="1"></path><path fill="none" d="M 199.5 309 L 199.5 319" stroke="#C0D0E0" stroke-width="1" opacity="1"></path><path fill="none" d="M 258.5 309 L 258.5 319" stroke="#C0D0E0" stroke-width="1" opacity="1"></path><path fill="none" d="M 316.5 309 L 316.5 319" stroke="#C0D0E0" stroke-width="1" opacity="1"></path><path fill="none" d="M 375.5 309 L 375.5 319" stroke="#C0D0E0" stroke-width="1" opacity="1"></path><path fill="none" d="M 433.5 309 L 433.5 319" stroke="#C0D0E0" stroke-width="1" opacity="1"></path><path fill="none" d="M 492.5 309 L 492.5 319" stroke="#C0D0E0" stroke-width="1" opacity="1"></path><path fill="none" d="M 550.5 309 L 550.5 319" stroke="#C0D0E0" stroke-width="1" opacity="1"></path><path fill="none" d="M 82.5 309 L 82.5 319" stroke="#C0D0E0" stroke-width="1" opacity="1"></path><text x="328.5"  text-anchor="middle" transform="translate(0,0)" class=" highcharts-xaxis-title" style="color:#707070;fill:#707070;" visibility="visible" y="346.5">Time</text><path fill="none" d="M 67 309.5 L 590 309.5" stroke="#C0D0E0" stroke-width="1"  visibility="visible"></path></g><g class="highcharts-axis" ><text x="23.640625"  text-anchor="middle" transform="translate(0,0) rotate(270 23.640625 184.5)" class=" highcharts-yaxis-title" style="color:#707070;fill:#707070;" visibility="visible" y="184.5"><tspan>Questions Correct</tspan></text></g><g class="highcharts-series-group" ><g class="highcharts-series" visibility="visible"  transform="translate(67,60) scale(1 1)" clip-path="url(#highcharts-527)"><path fill="none" d="M 5.127450980392156 246.51 C 5.127450980392156 246.51 14.485536419891151 245.53771428571426 20.72426004622381 244.02 C 22.673861179452768 243.5457142857143 23.648661746067248 242.57842105263157 25.598262879296204 241.53 C 27.352903899202268 240.58642105263158 28.230224409155294 240.036 29.984865429061358 239.04 C 31.739506448967415 238.044 32.61682695892045 237.54600000000002 34.37146797882651 236.55 C 36.12610899873257 235.55400000000003 37.0034295086856 235.00357894736842 38.75807052859167 234.06 C 40.70767166182062 233.0115789473684 41.682472228435095 232.61842105263156 43.632073361664055 231.57 C 45.386714381570116 230.62642105263157 46.264034891523146 230.076 48.01867591142921 229.07999999999998 C 49.77331693133527 228.08399999999997 50.6506374412883 227.58599999999998 52.405278461194364 226.59 C 54.15991948110043 225.59400000000002 55.037239991053454 225.2952 56.791881010959514 224.1 C 57.96164169089688 223.30319999999998 58.546522030865574 222.357 59.71628271080295 221.61 C 61.66588384403191 220.36500000000004 62.64068441064639 220.02545454545455 64.59028554387534 219.12 C 66.92980690375009 218.03345454545453 68.09956758368746 217.40109677419355 70.43908894356221 216.63 C 74.14333109669724 215.40909677419353 75.99545217326474 215.44510344827583 79.69969432639977 214.14 C 81.64929545962872 213.45310344827587 82.6240960262432 212.2358823529412 84.57369715947215 211.65 C 89.25273987922165 210.24388235294117 91.59226123909639 210.7536 96.27130395884589 209.16 C 97.44106463878327 208.7616 98.02594497875195 207.37305882352942 99.19570565868933 206.67 C 101.34026690524118 205.3810588235294 102.41254752851712 205.39733333333334 104.55710877506897 204.18 C 105.92182956832923 203.40533333333335 106.60418996495937 201.69 107.96891075821964 201.69 C 109.7235517781257 201.69 110.60087228807875 201.69 112.3555133079848 201.69 C 114.30511444121376 201.69 115.27991500782824 201.69 117.22951614105719 201.69 C 118.39927682099456 201.69 118.98415716096324 199.94699999999997 120.15391784090062 199.2 C 122.10351897412959 197.95499999999998 123.07831954074405 197.88176470588232 125.02792067397301 196.70999999999998 C 126.39264146723329 195.88976470588236 127.07500186386342 194.22 128.4397226571237 194.22 C 130.58428390367553 194.22 131.65656452695148 194.22 133.80112577350332 194.22 C 134.9708864534407 194.22 135.5557667934094 194.22 136.72552747334674 194.22 C 137.70032803996122 194.22 138.18772832326846 192.44142857142856 139.16252888988294 191.73 C 140.917169909789 190.44942857142857 141.79449041974203 189.95712000000003 143.5491314396481 189.24 C 146.66849325281441 187.96512 148.22817415939758 186.75 151.34753597256392 186.75 C 154.27193767240735 186.75 155.73413852232906 186.75 158.65854022217252 186.75 C 161.38798180869307 186.75 162.75270260195333 186.75 165.48214418847388 186.75 C 166.65190486841124 186.75 167.23678520837993 185.11371428571428 168.4065458883173 184.26 C 169.96622679490048 183.12171428571426 170.74606724819205 182.70741176470588 172.30574815477522 181.76999999999998 C 174.06038917468126 180.71541176470586 174.9377096846343 179.79222857142858 176.69235070454036 179.28 C 181.76131365093565 177.8002285714286 184.2957951241333 178.02314285714283 189.36475807052858 176.79 C 192.48411988369494 176.03114285714284 194.04380079027808 175.57487999999998 197.16316260344442 174.3 C 198.9178036233505 173.58288000000002 199.7951241333035 172.86458823529412 201.54976515320956 171.81 C 203.10944605979273 170.87258823529413 203.88928651308433 169.32 205.4489674196675 169.32 C 207.20360843957354 169.32 208.0809289495266 169.32 209.83556996943264 169.32 C 211.00533064937 169.32 211.59021098933871 167.30807999999996 212.75997166927607 166.82999999999998 C 216.4642138224111 165.31607999999997 218.3163348989786 165.79569230769226 222.02057705211362 164.33999999999997 C 223.3852978453739 163.8036923076923 224.06765824200403 162.67023529411762 225.4323790352643 161.85 C 227.38198016849327 160.67823529411763 228.35678073510772 160.40842105263158 230.3063818683367 159.35999999999999 C 232.06102288824277 158.41642105263156 232.93834339819577 157.81357894736843 234.69298441810184 156.87 C 236.64258555133082 155.82157894736844 237.61738611794527 155.28545454545454 239.56698725117423 154.38 C 241.906508611049 153.29345454545452 243.07626929098632 152.77533333333335 245.4157906508611 151.89 C 248.34019235070454 150.78333333333333 249.80239320062623 150.59519999999998 252.72679490046968 149.39999999999998 C 254.6763960336986 148.6032 255.65119660031314 147.67615384615385 257.6007977335421 146.91 C 260.72015954670843 145.68415384615383 262.27984045329157 145.80573913043474 265.3992022664579 144.42 C 266.7639230597182 143.81373913043475 267.4462834563483 142.75023529411766 268.8110042496086 141.93 C 270.7606053828375 140.7582352941177 271.735405949452 140.26999999999998 273.68500708268095 139.44 C 276.41444866920153 138.278 277.77916946246177 137.56973333333332 280.50861104898235 136.95 C 286.5523745619921 135.57773333333333 289.574256318497 136.04338461538458 295.61801983150673 134.45999999999998 C 297.17770073808987 134.0513846153846 297.95754119138144 132.90741176470584 299.51722209796463 131.96999999999997 C 301.27186311787074 130.91541176470585 302.14918362782373 130.6752 303.90382464772983 129.48 C 305.0735853276672 128.6832 305.6584656676359 127.737 306.82822634757326 126.99 C 308.7778274808022 125.74499999999999 309.7526280474167 125.36608695652173 311.70222918064565 124.49999999999999 C 314.23671065384326 123.37408695652174 315.5039513904421 122.00999999999999 318.03843286363974 122.00999999999999 C 322.32755535674346 122.00999999999999 324.4721166032953 122.00999999999999 328.76123909639904 122.00999999999999 C 329.93099977633636 122.00999999999999 330.5158801163051 120.01799999999999 331.68564079624247 119.51999999999998 C 335.1949228360546 118.02599999999997 336.9495638559606 118.18664516129031 340.45884589577275 117.03 C 342.9933273689704 116.19464516129034 344.2605681055692 115.46485714285713 346.79504957876685 114.53999999999999 C 349.71945127861034 113.47285714285712 351.181652128532 113.11714285714285 354.1060538283755 112.04999999999998 C 356.6405353015731 111.12514285714285 357.90777603817196 110.8548 360.4422575113696 109.56 C 361.80697830462987 108.8628 362.48933870125995 107.651 363.85405949452024 107.07 C 367.1683814210095 105.65899999999999 368.8255423842541 105.93455999999998 372.1398643107433 104.57999999999998 C 373.6995452173265 103.94255999999997 374.47938567061806 102.75399999999996 376.0390665772012 102.08999999999997 C 379.1584283903676 100.76199999999997 380.71810929695073 100.82584615384614 383.83747111011706 99.6 C 385.787072243346 98.83384615384615 386.76187280996044 97.97608695652174 388.71147394318945 97.10999999999999 C 391.2459554163871 95.98408695652174 392.51319615298587 95.48319999999998 395.04767762618354 94.61999999999998 C 398.3619995526727 93.49119999999999 400.01916051591735 93.48455999999999 403.3334824424066 92.13 C 404.8931633489898 91.49255999999998 405.67300380228136 90.47873684210526 407.23268470886455 89.63999999999999 C 409.3772459554164 88.48673684210524 410.44952657869237 88.24559999999995 412.5940878252442 87.14999999999998 C 414.3487288451503 86.25359999999995 415.22604935510327 85.15799999999999 416.9806903750093 84.66 C 422.2446134347275 83.16599999999998 424.8765749645866 83.2905 430.1404980243048 82.16999999999999 C 434.23466040408556 81.29849999999999 436.28174159397605 81.12248275862065 440.3759039737568 79.67999999999998 C 441.93558488033995 79.13048275862067 442.7154253336315 78.07533333333335 444.2751062402147 77.19 C 446.22470737344366 76.08333333333334 447.1995079400582 75.11499999999998 449.1491090732871 74.69999999999999 C 456.55759337955715 73.12299999999996 460.2618355326921 73.63822641509434 467.6703198389622 72.20999999999998 C 470.59472153880563 71.64622641509432 472.05692238872734 70.59882352941173 474.9813240885708 69.71999999999997 C 478.68556624170577 68.60682352941173 480.5376873182733 68.45090322580643 484.24192947140835 67.22999999999999 C 486.5814508312831 66.45890322580645 487.7512115112205 65.99810526315788 490.0907328710952 64.73999999999998 C 491.45545366435545 64.00610526315788 492.1378140609856 63.411999999999985 493.5025348542459 62.24999999999997 C 494.47733542086036 61.41999999999998 494.96473570416754 60.47142857142859 495.93953627078207 59.75999999999999 C 497.6941772906881 58.47942857142859 498.57149780064117 58.16639999999998 500.3261388205472 57.26999999999998 C 502.4707000670991 56.17439999999998 503.542980690375 55.622769230769215 505.68754193692683 54.77999999999997 C 508.6119436367702 53.63076923076922 510.07414448669203 53.48519999999999 512.9985461865355 52.28999999999999 C 514.9481473197644 51.49319999999999 517.8725490196078 49.79999999999998 517.8725490196078 49.79999999999998" stroke="#9ab2d6" stroke-width="2"  stroke-linejoin="round" stroke-linecap="round"></path></g><g class="highcharts-markers" visibility="visible"  transform="translate(67,60) scale(1 1)" clip-path="none"></g></g><text x="300" text-anchor="middle" class="highcharts-title"  style="color:#333333;font-size:18px;fill:#333333;width:536px;" y="25"><tspan>Questions Correct Over Time</tspan></text><text x="300" text-anchor="middle" class="highcharts-subtitle"  style="color:#555555;fill:#555555;width:536px;" y="46"><tspan>Pinch the chart to zoom in</tspan></text><g class="highcharts-legend"  transform="translate(256,368)"><g ><g><g class="highcharts-legend-item"  transform="translate(8,3)"><path fill="none" d="M 0 11 L 16 11" stroke="#9ab2d6" stroke-width="2"></path><path fill="#9ab2d6" d="M 8 7 C 13.328 7 13.328 15 8 15 C 2.6719999999999997 15 2.6719999999999997 7 8 7 Z"></path><text x="21" style="color:#333333;font-size:12px;font-weight:bold;cursor:pointer;fill:#333333;" text-anchor="start"  y="15">Questions</text></g></g></g></g><g class="highcharts-axis-labels highcharts-xaxis-labels" ><text x="83.33765749645866" text-anchor="middle" style="color:#606060;cursor:default;font-size:11px;fill:#606060;" y="329" opacity="1"><tspan>04:14 PM</tspan></text><text x="141.82569149332738" text-anchor="middle" style="color:#606060;cursor:default;font-size:11px;fill:#606060;" y="329" opacity="1"><tspan>04:16 PM</tspan></text><text x="200.31372549019608" text-anchor="middle" style="color:#606060;cursor:default;font-size:11px;fill:#606060;" y="329" opacity="1"><tspan>04:18 PM</tspan></text><text x="258.8017594870648" text-anchor="middle" style="color:#606060;cursor:default;font-size:11px;fill:#606060;" y="329" opacity="1"><tspan>04:20 PM</tspan></text><text x="317.2897934839335" text-anchor="middle" style="color:#606060;cursor:default;font-size:11px;fill:#606060;" y="329" opacity="1"><tspan>04:22 PM</tspan></text><text x="375.7778274808022" text-anchor="middle" style="color:#606060;cursor:default;font-size:11px;fill:#606060;" y="329" opacity="1"><tspan>04:24 PM</tspan></text><text x="434.2658614776709" text-anchor="middle" style="color:#606060;cursor:default;font-size:11px;fill:#606060;" y="329" opacity="1"><tspan>04:26 PM</tspan></text><text x="492.7538954745396" text-anchor="middle" style="color:#606060;cursor:default;font-size:11px;fill:#606060;" y="329" opacity="1"><tspan>04:28 PM</tspan></text><text x="551.2419294714084" text-anchor="middle" style="color:#606060;cursor:default;font-size:11px;fill:#606060;" y="329" opacity="1"><tspan>04:30 PM</tspan></text></g><g class="highcharts-axis-labels highcharts-yaxis-labels" ><text x="52" text-anchor="end" style="width:178px;color:#606060;cursor:default;font-size:11px;fill:#606060;" y="314.75" opacity="1">0</text><text x="52" text-anchor="end" style="width:178px;color:#606060;cursor:default;font-size:11px;fill:#606060;" y="65.74999999999997" opacity="1">100</text><text x="52" text-anchor="end" style="width:178px;color:#606060;cursor:default;font-size:11px;fill:#606060;" y="252.5" opacity="1">25</text><text x="52" text-anchor="end" style="width:178px;color:#606060;cursor:default;font-size:11px;fill:#606060;" y="190.25" opacity="1">50</text><text x="52" text-anchor="end" style="width:178px;color:#606060;cursor:default;font-size:11px;fill:#606060;" y="127.99999999999997" opacity="1">75</text></g><g class="highcharts-tooltip"  style="cursor:default;padding:0;white-space:nowrap;" transform="translate(0,-9999)"><path fill="none" d="M 3 0 L 13 0 C 16 0 16 0 16 3 L 16 13 C 16 16 16 16 13 16 L 3 16 C 0 16 0 16 0 13 L 0 3 C 0 0 0 0 3 0"  stroke="black" stroke-opacity="0.049999999999999996" stroke-width="5" transform="translate(1, 1)"></path><path fill="none" d="M 3 0 L 13 0 C 16 0 16 0 16 3 L 16 13 C 16 16 16 16 13 16 L 3 16 C 0 16 0 16 0 13 L 0 3 C 0 0 0 0 3 0"  stroke="black" stroke-opacity="0.09999999999999999" stroke-width="3" transform="translate(1, 1)"></path><path fill="none" d="M 3 0 L 13 0 C 16 0 16 0 16 3 L 16 13 C 16 16 16 16 13 16 L 3 16 C 0 16 0 16 0 13 L 0 3 C 0 0 0 0 3 0"  stroke="black" stroke-opacity="0.15" stroke-width="1" transform="translate(1, 1)"></path><path fill="rgb(249, 249, 249)" fill-opacity=" .85" d="M 3 0 L 13 0 C 16 0 16 0 16 3 L 16 13 C 16 16 16 16 13 16 L 3 16 C 0 16 0 16 0 13 L 0 3 C 0 0 0 0 3 0"></path><text x="8"  style="font-size:12px;color:#333333;fill:#333333;" y="21"></text></g><text x="590" text-anchor="end"  style="cursor:pointer;color:#909090;font-size:9px;fill:#909090;" y="395">Highcharts.com</text></svg>