<svg xmlns:xlink="http://www.w3.org/1999/xlink" version="1.1" style="font-family:'lucida grande', 'lucida sans unicode', arial, helvetica, sans-serif;font-size:12px;" xmlns="http://www.w3.org/2000/svg" width="600" height="400"><desc>Created with Highcharts 4.0.4</desc><defs><clipPath id="highcharts-17"><rect x="0" y="0" width="530" height="225"></rect></clipPath></defs><rect x="0" y="0" width="600" height="400" strokeWidth="0" fill="#FFFFFF" class=" highcharts-background"></rect><g class="highcharts-grid" ></g><g class="highcharts-grid" ><path fill="none" d="M 60 70.5 L 590 70.5" stroke="#C0C0C0" stroke-width="1"  opacity="1"></path><path fill="none" d="M 60 146.5 L 590 146.5" stroke="#C0C0C0" stroke-width="1"  opacity="1"></path><path fill="none" d="M 60 221.5 L 590 221.5" stroke="#C0C0C0" stroke-width="1"  opacity="1"></path><path fill="none" d="M 60 296.5 L 590 296.5" stroke="#C0C0C0" stroke-width="1"  opacity="1"></path></g><g class="highcharts-axis" ><path fill="none" d="M 210.5 296 L 210.5 306" stroke="#C0D0E0" stroke-width="1" opacity="1"></path><path fill="none" d="M 299.5 296 L 299.5 306" stroke="#C0D0E0" stroke-width="1" opacity="1"></path><path fill="none" d="M 388.5 296 L 388.5 306" stroke="#C0D0E0" stroke-width="1" opacity="1"></path><path fill="none" d="M 478.5 296 L 478.5 306" stroke="#C0D0E0" stroke-width="1" opacity="1"></path><path fill="none" d="M 567.5 296 L 567.5 306" stroke="#C0D0E0" stroke-width="1" opacity="1"></path><path fill="none" d="M 120.5 296 L 120.5 306" stroke="#C0D0E0" stroke-width="1" opacity="1"></path><text x="325"  text-anchor="middle" transform="translate(0,0)" class=" highcharts-xaxis-title" style="color:#707070;fill:#707070;" visibility="visible" y="338">Time</text><path fill="none" d="M 60 296.5 L 590 296.5" stroke="#C0D0E0" stroke-width="1"  visibility="visible"></path></g><g class="highcharts-axis" ><text x="28"  text-anchor="middle" transform="translate(0,0) rotate(270 28 183.5)" class=" highcharts-yaxis-title" style="color:#707070;fill:#707070;" visibility="visible" y="183.5"><tspan>Questions Correct</tspan></text></g><g class="highcharts-series-group" ><g class="highcharts-series" visibility="visible"  transform="translate(60,71) scale(1 1)" clip-path="url(#highcharts-17)"><path fill="none" d="M 5.196078431372549 225 C 5.196078431372549 225 5.940857948530582 209.5588235294118 6.437377626635938 187.5 C 6.616124710753866 179.5588235294118 6.705498252812831 150 6.884245336930759 150 C 7.12257478242133 150 7.241739505166615 150 7.480068950657186 150 C 154.86697019945103 150 228.56042082384792 150 375.9473220726418 150 C 376.1856515181324 150 376.3048162408776 112.5 376.5431456863682 112.5 C 432.7094516736461 112.5 460.792604667285 112.5 516.9589106545628 112.5 C 517.0780753773081 112.5 517.1376577386807 76.13924050632998 517.256822461426 75 C 520.2756621043067 46.13924050632998 524.8039215686275 37.5 524.8039215686275 37.5" stroke="#9ab2d6" stroke-width="2"  stroke-linejoin="round" stroke-linecap="round"></path></g><g class="highcharts-markers" visibility="visible"  transform="translate(60,71) scale(1 1)" clip-path="none"><path fill="rgb(8, 243, 53)" d="M 524 33.5 C 529.328 33.5 529.328 41.5 524 41.5 C 518.672 41.5 518.672 33.5 524 33.5 Z"></path><path fill="rgb(8, 243, 53)" d="M 517 71 C 522.328 71 522.328 79 517 79 C 511.672 79 511.672 71 517 71 Z"></path><path fill="rgb(245, 64, 50)" d="M 516 108.5 C 521.328 108.5 521.328 116.5 516 116.5 C 510.672 116.5 510.672 108.5 516 108.5 Z"></path><path fill="rgb(8, 243, 53)" d="M 376 108.5 C 381.328 108.5 381.328 116.5 376 116.5 C 370.672 116.5 370.672 108.5 376 108.5 Z"></path><path fill="rgb(245, 64, 50)" d="M 375 146 C 380.328 146 380.328 154 375 154 C 369.672 154 369.672 146 375 146 Z"></path><path fill="rgb(245, 64, 50)" d="M 7 146 C 12.328 146 12.328 154 7 154 C 1.672 154 1.672 146 7 146 Z"></path><path fill="rgb(8, 243, 53)" d="M 6 146 C 11.328 146 11.328 154 6 154 C 0.6719999999999999 154 0.6719999999999999 146 6 146 Z"></path><path fill="rgb(8, 243, 53)" d="M 6 183.5 C 11.328 183.5 11.328 191.5 6 191.5 C 0.6719999999999999 191.5 0.6719999999999999 183.5 6 183.5 Z"></path><path fill="rgb(245, 64, 50)" d="M 5 221 C 10.328 221 10.328 229 5 229 C -0.32800000000000007 229 -0.32800000000000007 221 5 221 Z"></path></g></g><text x="300" text-anchor="middle" class="highcharts-title"  style="color:#333333;font-size:18px;fill:#333333;width:536px;" y="25"><tspan>Questions Correct Over Time</tspan></text><text x="300" text-anchor="middle" class="highcharts-subtitle"  style="color:#555555;fill:#555555;width:536px;" y="53"><tspan>Click and drag in the plot area to zoom in</tspan></text><g class="highcharts-legend"  transform="translate(255,364)"><g ><g><g class="highcharts-legend-item"  transform="translate(8,3)"><path fill="none" d="M 0 11 L 16 11" stroke="#9ab2d6" stroke-width="2"></path><path fill="#9ab2d6" d="M 8 7 C 13.328 7 13.328 15 8 15 C 2.6719999999999997 15 2.6719999999999997 7 8 7 Z"></path><text x="21" style="color:#333333;font-size:12px;font-weight:bold;cursor:pointer;fill:#333333;" text-anchor="start"  y="15">Questions</text></g></g></g></g><g class="highcharts-axis-labels highcharts-xaxis-labels" ><text x="121.35245402508829" text-anchor="middle" style="color:#606060;cursor:default;font-size:11px;fill:#606060;" y="316" opacity="1"><tspan>12:30 PM</tspan></text><text x="210.72599608405235" text-anchor="middle" style="color:#606060;cursor:default;font-size:11px;fill:#606060;" y="316" opacity="1"><tspan>01:00 PM</tspan></text><text x="300.0995381430164" text-anchor="middle" style="color:#606060;cursor:default;font-size:11px;fill:#606060;" y="316" opacity="1"><tspan>01:30 PM</tspan></text><text x="389.47308020198045" text-anchor="middle" style="color:#606060;cursor:default;font-size:11px;fill:#606060;" y="316" opacity="1"><tspan>02:00 PM</tspan></text><text x="478.8466222609445" text-anchor="middle" style="color:#606060;cursor:default;font-size:11px;fill:#606060;" y="316" opacity="1"><tspan>02:30 PM</tspan></text><text x="568.2201643199086" text-anchor="middle" style="color:#606060;cursor:default;font-size:11px;fill:#606060;" y="316" opacity="1"><tspan>03:00 PM</tspan></text></g><g class="highcharts-axis-labels highcharts-yaxis-labels" ><text x="45" text-anchor="end" style="width:178px;color:#606060;cursor:default;font-size:11px;fill:#606060;" y="299.5" opacity="1">0</text><text x="45" text-anchor="end" style="width:178px;color:#606060;cursor:default;font-size:11px;fill:#606060;" y="224.5" opacity="1">2</text><text x="45" text-anchor="end" style="width:178px;color:#606060;cursor:default;font-size:11px;fill:#606060;" y="149.5" opacity="1">4</text><text x="45" text-anchor="end" style="width:178px;color:#606060;cursor:default;font-size:11px;fill:#606060;" y="74.5" opacity="1">6</text></g><g class="highcharts-tooltip"  style="cursor:default;padding:0;white-space:nowrap;" transform="translate(0,-9999)"><path fill="none" d="M 3 0 L 13 0 C 16 0 16 0 16 3 L 16 13 C 16 16 16 16 13 16 L 3 16 C 0 16 0 16 0 13 L 0 3 C 0 0 0 0 3 0"  stroke="black" stroke-opacity="0.049999999999999996" stroke-width="5" transform="translate(1, 1)"></path><path fill="none" d="M 3 0 L 13 0 C 16 0 16 0 16 3 L 16 13 C 16 16 16 16 13 16 L 3 16 C 0 16 0 16 0 13 L 0 3 C 0 0 0 0 3 0"  stroke="black" stroke-opacity="0.09999999999999999" stroke-width="3" transform="translate(1, 1)"></path><path fill="none" d="M 3 0 L 13 0 C 16 0 16 0 16 3 L 16 13 C 16 16 16 16 13 16 L 3 16 C 0 16 0 16 0 13 L 0 3 C 0 0 0 0 3 0"  stroke="black" stroke-opacity="0.15" stroke-width="1" transform="translate(1, 1)"></path><path fill="rgb(249, 249, 249)" fill-opacity=" .85" d="M 3 0 L 13 0 C 16 0 16 0 16 3 L 16 13 C 16 16 16 16 13 16 L 3 16 C 0 16 0 16 0 13 L 0 3 C 0 0 0 0 3 0"></path><text x="8"  style="font-size:12px;color:#333333;fill:#333333;" y="21"></text></g><text x="590" text-anchor="end"  style="cursor:pointer;color:#909090;font-size:9px;fill:#909090;" y="395">Highcharts.com</text></svg>