<svg xmlns:xlink="http://www.w3.org/1999/xlink" xmlns="http://www.w3.org/2000/svg" style="font-family: 'lucida grande', 'lucida sans unicode', arial, helvetica, sans-serif; font-size: 12px;" width="600" height="400" version="1.1"><desc>Created with Highcharts 4.0.4</desc><defs><clipPath id="highcharts-149"><rect x="0" y="0" width="523" height="227" /></clipPath></defs><rect class=" highcharts-background" fill="#ffffff" x="0" y="0" width="600" height="400" strokeWidth="0" /><g class="highcharts-grid"  /><g class="highcharts-grid" ><path opacity="1" fill="none" stroke="#c0c0c0" stroke-width="1" d="M 67 71.5 L 590 71.5"  /><path opacity="1" fill="none" stroke="#c0c0c0" stroke-width="1" d="M 67 129.5 L 590 129.5"  /><path opacity="1" fill="none" stroke="#c0c0c0" stroke-width="1" d="M 67 186.5 L 590 186.5"  /><path opacity="1" fill="none" stroke="#c0c0c0" stroke-width="1" d="M 67 242.5 L 590 242.5"  /><path opacity="1" fill="none" stroke="#c0c0c0" stroke-width="1" d="M 67 299.5 L 590 299.5"  /></g><g class="highcharts-axis" ><path opacity="1" fill="none" stroke="#c0d0e0" stroke-width="1" d="M 226.5 299 L 226.5 309" /><path opacity="1" fill="none" stroke="#c0d0e0" stroke-width="1" d="M 324.5 299 L 324.5 309" /><path opacity="1" fill="none" stroke="#c0d0e0" stroke-width="1" d="M 423.5 299 L 423.5 309" /><path opacity="1" fill="none" stroke="#c0d0e0" stroke-width="1" d="M 522.5 299 L 522.5 309" /><path opacity="1" fill="none" stroke="#c0d0e0" stroke-width="1" d="M 127.5 299 L 127.5 309" /><text class=" highcharts-xaxis-title" visibility="visible" style="color: rgb(112, 112, 112); fill: #707070;" text-anchor="middle" transform="translate(0)" x="328.5" y="338" >Time</text><path visibility="visible" fill="none" stroke="#c0d0e0" stroke-width="1" d="M 67 299.5 L 590 299.5"  /></g><g class="highcharts-axis" ><text class=" highcharts-yaxis-title" visibility="visible" style="color: rgb(112, 112, 112); fill: #707070;" text-anchor="middle" transform="translate(0) rotate(270 28.08 185.5)" x="28.08" y="185.5" ><tspan>Questions Correct</tspan></text></g><g class="highcharts-series-group" ><g class="highcharts-series" visibility="visible" clip-path="url(#highcharts-149)" transform="translate(67 72) scale(1)" ><path fill="none" stroke="#9ab2d6" stroke-linecap="round" stroke-linejoin="round" stroke-width="2" d="M 5.12745 215.65 C 5.12745 215.65 10.721 215.65 14.4501 215.65 C 14.6256 215.65 14.7133 205.846 14.8888 204.3 C 15.7443 196.766 16.172 195.409 17.0275 192.95 C 19.3308 186.329 20.4824 181.6 22.7856 181.6 C 140.163 181.6 198.852 181.6 316.229 181.6 C 316.427 181.6 316.526 181.6 316.723 181.6 C 316.986 181.6 317.118 181.6 317.381 181.6 C 319.838 181.6 321.066 181.6 323.523 181.6 C 323.611 181.6 323.655 181.6 323.742 181.6 C 349.144 181.6 361.844 177.073 387.246 170.25 C 395.647 167.993 399.848 158.9 408.249 158.9 C 408.578 158.9 408.743 158.9 409.072 158.9 C 409.291 158.9 409.401 147.55 409.62 147.55 C 435.153 147.55 447.92 147.55 473.453 147.55 C 473.957 147.55 474.21 147.55 474.714 147.55 C 475.109 147.55 475.306 147.55 475.701 147.55 C 475.855 147.55 475.932 136.2 476.085 136.2 C 476.414 136.2 476.579 136.2 476.908 136.2 C 477.061 136.2 477.138 129.739 477.292 124.85 C 477.423 120.659 477.489 113.5 477.621 113.5 C 479.003 113.5 479.694 113.5 481.076 113.5 C 482.94 113.5 483.872 113.5 485.737 113.5 C 486.154 113.5 486.362 113.5 486.779 113.5 C 487.13 113.5 487.305 113.5 487.656 113.5 C 487.832 113.5 487.919 106.186 488.095 102.15 C 488.314 97.1056 488.424 95.34 488.643 90.8 C 488.863 86.26 488.972 79.45 489.192 79.45 C 490.069 79.45 490.508 79.45 491.385 79.45 C 491.736 79.45 491.912 79.45 492.263 79.45 C 492.57 79.45 492.723 68.1 493.03 68.1 C 493.425 68.1 493.623 68.1 494.018 68.1 C 494.215 68.1 494.314 60.6414 494.511 56.75 C 494.774 51.5614 494.906 49.2914 495.169 45.4 C 495.52 40.2114 495.696 34.05 496.047 34.05 C 498.789 34.05 500.16 34.05 502.901 34.05 C 504.481 34.05 505.271 34.05 506.85 34.05 C 511.105 34.05 513.233 31.4638 517.489 22.7 C 517.642 22.3838 517.873 11.35 517.873 11.35"  /></g><g class="highcharts-markers" visibility="visible" clip-path="none" transform="translate(67 72) scale(1)" ><path fill="rgb(8, 243, 53)" d="M 517 7.35 C 522.328 7.35 522.328 15.35 517 15.35 C 511.672 15.35 511.672 7.35 517 7.35 Z" /><path fill="rgb(8, 243, 53)" d="M 517 18.7 C 522.328 18.7 522.328 26.7 517 26.7 C 511.672 26.7 511.672 18.7 517 18.7 Z" /><path fill="rgb(245, 64, 50)" d="M 506 30.05 C 511.328 30.05 511.328 38.05 506 38.05 C 500.672 38.05 500.672 30.05 506 30.05 Z" /><path fill="rgb(245, 64, 50)" d="M 502 30.05 C 507.328 30.05 507.328 38.05 502 38.05 C 496.672 38.05 496.672 30.05 502 30.05 Z" /><path fill="rgb(8, 243, 53)" d="M 496 30.05 C 501.328 30.05 501.328 38.05 496 38.05 C 490.672 38.05 490.672 30.05 496 30.05 Z" /><path fill="rgb(8, 243, 53)" d="M 495 41.4 C 500.328 41.4 500.328 49.4 495 49.4 C 489.672 49.4 489.672 41.4 495 41.4 Z" /><path fill="rgb(8, 243, 53)" d="M 494 52.75 C 499.328 52.75 499.328 60.75 494 60.75 C 488.672 60.75 488.672 52.75 494 52.75 Z" /><path fill="rgb(245, 64, 50)" d="M 494 64.1 C 499.328 64.1 499.328 72.1 494 72.1 C 488.672 72.1 488.672 64.1 494 64.1 Z" /><path fill="rgb(8, 243, 53)" d="M 493 64.1 C 498.328 64.1 498.328 72.1 493 72.1 C 487.672 72.1 487.672 64.1 493 64.1 Z" /><path fill="rgb(245, 64, 50)" d="M 492 75.45 C 497.328 75.45 497.328 83.45 492 83.45 C 486.672 83.45 486.672 75.45 492 75.45 Z" /><path fill="rgb(245, 64, 50)" d="M 491 75.45 C 496.328 75.45 496.328 83.45 491 83.45 C 485.672 83.45 485.672 75.45 491 75.45 Z" /><path fill="rgb(8, 243, 53)" d="M 489 75.45 C 494.328 75.45 494.328 83.45 489 83.45 C 483.672 83.45 483.672 75.45 489 75.45 Z" /><path fill="rgb(8, 243, 53)" d="M 488 86.8 C 493.328 86.8 493.328 94.8 488 94.8 C 482.672 94.8 482.672 86.8 488 86.8 Z" /><path fill="rgb(8, 243, 53)" d="M 488 98.15 C 493.328 98.15 493.328 106.15 488 106.15 C 482.672 106.15 482.672 98.15 488 98.15 Z" /><path fill="rgb(245, 64, 50)" d="M 487 109.5 C 492.328 109.5 492.328 117.5 487 117.5 C 481.672 117.5 481.672 109.5 487 109.5 Z" /><path fill="rgb(245, 64, 50)" d="M 486 109.5 C 491.328 109.5 491.328 117.5 486 117.5 C 480.672 117.5 480.672 109.5 486 109.5 Z" /><path fill="rgb(245, 64, 50)" d="M 485 109.5 C 490.328 109.5 490.328 117.5 485 117.5 C 479.672 117.5 479.672 109.5 485 109.5 Z" /><path fill="rgb(245, 64, 50)" d="M 481 109.5 C 486.328 109.5 486.328 117.5 481 117.5 C 475.672 117.5 475.672 109.5 481 109.5 Z" /><path fill="rgb(8, 243, 53)" d="M 477 109.5 C 482.328 109.5 482.328 117.5 477 117.5 C 471.672 117.5 471.672 109.5 477 109.5 Z" /><path fill="rgb(8, 243, 53)" d="M 477 120.85 C 482.328 120.85 482.328 128.85 477 128.85 C 471.672 128.85 471.672 120.85 477 120.85 Z" /><path fill="rgb(245, 64, 50)" d="M 476 132.2 C 481.328 132.2 481.328 140.2 476 140.2 C 470.672 140.2 470.672 132.2 476 132.2 Z" /><path fill="rgb(8, 243, 53)" d="M 476 132.2 C 481.328 132.2 481.328 140.2 476 140.2 C 470.672 140.2 470.672 132.2 476 132.2 Z" /><path fill="rgb(245, 64, 50)" d="M 475 143.55 C 480.328 143.55 480.328 151.55 475 151.55 C 469.672 151.55 469.672 143.55 475 143.55 Z" /><path fill="rgb(245, 64, 50)" d="M 474 143.55 C 479.328 143.55 479.328 151.55 474 151.55 C 468.672 151.55 468.672 143.55 474 143.55 Z" /><path fill="rgb(245, 64, 50)" d="M 473 143.55 C 478.328 143.55 478.328 151.55 473 151.55 C 467.672 151.55 467.672 143.55 473 143.55 Z" /><path fill="rgb(8, 243, 53)" d="M 409 143.55 C 414.328 143.55 414.328 151.55 409 151.55 C 403.672 151.55 403.672 143.55 409 143.55 Z" /><path fill="rgb(245, 64, 50)" d="M 409 154.9 C 414.328 154.9 414.328 162.9 409 162.9 C 403.672 162.9 403.672 154.9 409 154.9 Z" /><path fill="rgb(8, 243, 53)" d="M 408 154.9 C 413.328 154.9 413.328 162.9 408 162.9 C 402.672 162.9 402.672 154.9 408 154.9 Z" /><path fill="rgb(8, 243, 53)" d="M 387 166.25 C 392.328 166.25 392.328 174.25 387 174.25 C 381.672 174.25 381.672 166.25 387 166.25 Z" /><path fill="rgb(245, 64, 50)" d="M 323 177.6 C 328.328 177.6 328.328 185.6 323 185.6 C 317.672 185.6 317.672 177.6 323 177.6 Z" /><path fill="rgb(245, 64, 50)" d="M 323 177.6 C 328.328 177.6 328.328 185.6 323 185.6 C 317.672 185.6 317.672 177.6 323 177.6 Z" /><path fill="rgb(245, 64, 50)" d="M 317 177.6 C 322.328 177.6 322.328 185.6 317 185.6 C 311.672 185.6 311.672 177.6 317 177.6 Z" /><path fill="rgb(245, 64, 50)" d="M 316 177.6 C 321.328 177.6 321.328 185.6 316 185.6 C 310.672 185.6 310.672 177.6 316 177.6 Z" /><path fill="rgb(245, 64, 50)" d="M 316 177.6 C 321.328 177.6 321.328 185.6 316 185.6 C 310.672 185.6 310.672 177.6 316 177.6 Z" /><path fill="rgb(8, 243, 53)" d="M 22 177.6 C 27.328 177.6 27.328 185.6 22 185.6 C 16.672 185.6 16.672 177.6 22 177.6 Z" /><path fill="rgb(8, 243, 53)" d="M 17 188.95 C 22.328 188.95 22.328 196.95 17 196.95 C 11.672 196.95 11.672 188.95 17 188.95 Z" /><path fill="rgb(8, 243, 53)" d="M 14 200.3 C 19.328 200.3 19.328 208.3 14 208.3 C 8.672 208.3 8.672 200.3 14 200.3 Z" /><path fill="rgb(245, 64, 50)" d="M 14 211.65 C 19.328 211.65 19.328 219.65 14 219.65 C 8.672 219.65 8.672 211.65 14 211.65 Z" /><path fill="rgb(8, 243, 53)" d="M 5 211.65 C 10.328 211.65 10.328 219.65 5 219.65 C -0.328 219.65 -0.328 211.65 5 211.65 Z" /></g></g><text class="highcharts-title" style="width: 536px; color: rgb(51, 51, 51); font-size: 18px; fill: #333333;" text-anchor="middle" x="300" y="25" ><tspan>Questions Correct Over Time</tspan></text><text class="highcharts-subtitle" style="width: 536px; color: rgb(85, 85, 85); fill: #555555;" text-anchor="middle" x="300" y="53" ><tspan>Click and drag in the plot area to zoom in</tspan></text><g class="highcharts-legend" transform="translate(255 364)" ><g ><g><g class="highcharts-legend-item" transform="translate(8 3)" ><path fill="none" stroke="#9ab2d6" stroke-width="2" d="M 0 11 L 16 11" /><path fill="#9ab2d6" d="M 8 7 C 13.328 7 13.328 15 8 15 C 2.672 15 2.672 7 8 7 Z" /><text style="color: rgb(51, 51, 51); font-size: 12px; font-weight: bold; cursor: pointer; fill: #333333;" text-anchor="start" x="21" y="15" >Questions</text></g></g></g></g><g class="highcharts-axis-labels highcharts-xaxis-labels" ><text style="color: rgb(96, 96, 96); font-size: 11px; cursor: default; fill: #606060;" opacity="1" text-anchor="middle" x="127.8988" y="319"><tspan>11:00 AM</tspan></text><text style="color: rgb(96, 96, 96); font-size: 11px; cursor: default; fill: #606060;" opacity="1" text-anchor="middle" x="226.6091" y="319"><tspan>11:30 AM</tspan></text><text style="color: rgb(96, 96, 96); font-size: 11px; cursor: default; fill: #606060;" opacity="1" text-anchor="middle" x="325.3193" y="319"><tspan>12:00 PM</tspan></text><text style="color: rgb(96, 96, 96); font-size: 11px; cursor: default; fill: #606060;" opacity="1" text-anchor="middle" x="424.0297" y="319"><tspan>12:30 PM</tspan></text><text style="color: rgb(96, 96, 96); font-size: 11px; cursor: default; fill: #606060;" opacity="1" text-anchor="middle" x="522.74" y="319"><tspan>01:00 PM</tspan></text></g><g class="highcharts-axis-labels highcharts-yaxis-labels" ><text style="width: 178px; color: rgb(96, 96, 96); font-size: 11px; cursor: default; fill: #606060;" opacity="1" text-anchor="end" x="52" y="304">0</text><text style="width: 178px; color: rgb(96, 96, 96); font-size: 11px; cursor: default; fill: #606060;" opacity="1" text-anchor="end" x="52" y="247.25">5</text><text style="width: 178px; color: rgb(96, 96, 96); font-size: 11px; cursor: default; fill: #606060;" opacity="1" text-anchor="end" x="52" y="190.5">10</text><text style="width: 178px; color: rgb(96, 96, 96); font-size: 11px; cursor: default; fill: #606060;" opacity="1" text-anchor="end" x="52" y="133.75">15</text><text style="width: 178px; color: rgb(96, 96, 96); font-size: 11px; cursor: default; fill: #606060;" opacity="1" text-anchor="end" x="52" y="77">20</text></g><g class="highcharts-tooltip" style="padding: 0px; white-space: nowrap; cursor: default;" transform="translate(0 -9999)" ><path fill="none" stroke="black" stroke-opacity="0.05" stroke-width="5" transform="translate(1 1)" d="M 3 0 L 13 0 C 16 0 16 0 16 3 L 16 13 C 16 16 16 16 13 16 L 3 16 C 0 16 0 16 0 13 L 0 3 C 0 0 0 0 3 0"  /><path fill="none" stroke="black" stroke-opacity="0.1" stroke-width="3" transform="translate(1 1)" d="M 3 0 L 13 0 C 16 0 16 0 16 3 L 16 13 C 16 16 16 16 13 16 L 3 16 C 0 16 0 16 0 13 L 0 3 C 0 0 0 0 3 0"  /><path fill="none" stroke="black" stroke-opacity="0.15" stroke-width="1" transform="translate(1 1)" d="M 3 0 L 13 0 C 16 0 16 0 16 3 L 16 13 C 16 16 16 16 13 16 L 3 16 C 0 16 0 16 0 13 L 0 3 C 0 0 0 0 3 0"  /><path fill="rgb(249, 249, 249)" fill-opacity=" 0.85" d="M 3 0 L 13 0 C 16 0 16 0 16 3 L 16 13 C 16 16 16 16 13 16 L 3 16 C 0 16 0 16 0 13 L 0 3 C 0 0 0 0 3 0" /><text style="color: rgb(51, 51, 51); font-size: 12px; fill: #333333;" x="8" y="21" ></text></g><text style="color: rgb(144, 144, 144); font-size: 9px; cursor: pointer; fill: #909090;" text-anchor="end" x="590" y="395" >Highcharts.com</text></svg>