<svg xmlns:xlink="http://www.w3.org/1999/xlink" version="1.1" style="font-family:'lucida grande', 'lucida sans unicode', arial, helvetica, sans-serif;font-size:12px;" xmlns="http://www.w3.org/2000/svg" width="600" height="400"><desc>Created with Highcharts 4.0.4</desc><defs><clipPath id="highcharts-5"><rect x="0" y="0" width="520" height="225"></rect></clipPath></defs><rect x="0" y="0" width="600" height="400" strokeWidth="0" fill="#FFFFFF" class=" highcharts-background"></rect><g class="highcharts-grid" ></g><g class="highcharts-grid" ><path fill="none" d="M 70 70.5 L 590 70.5" stroke="#C0C0C0" stroke-width="1"  opacity="1"></path><path fill="none" d="M 70 127.5 L 590 127.5" stroke="#C0C0C0" stroke-width="1"  opacity="1"></path><path fill="none" d="M 70 184.5 L 590 184.5" stroke="#C0C0C0" stroke-width="1"  opacity="1"></path><path fill="none" d="M 70 240.5 L 590 240.5" stroke="#C0C0C0" stroke-width="1"  opacity="1"></path><path fill="none" d="M 70 296.5 L 590 296.5" stroke="#C0C0C0" stroke-width="1"  opacity="1"></path></g><g class="highcharts-axis" ><path fill="none" d="M 194.5 296 L 194.5 306" stroke="#C0D0E0" stroke-width="1" opacity="1"></path><path fill="none" d="M 294.5 296 L 294.5 306" stroke="#C0D0E0" stroke-width="1" opacity="1"></path><path fill="none" d="M 394.5 296 L 394.5 306" stroke="#C0D0E0" stroke-width="1" opacity="1"></path><path fill="none" d="M 494.5 296 L 494.5 306" stroke="#C0D0E0" stroke-width="1" opacity="1"></path><path fill="none" d="M 94.5 296 L 94.5 306" stroke="#C0D0E0" stroke-width="1" opacity="1"></path><text x="330"  text-anchor="middle" transform="translate(0,0)" class=" highcharts-xaxis-title" style="color:#707070;fill:#707070;" visibility="visible" y="338">Time</text><path fill="none" d="M 70 296.5 L 590 296.5" stroke="#C0D0E0" stroke-width="1"  visibility="visible"></path></g><g class="highcharts-axis" ><text x="27.609375"  text-anchor="middle" transform="translate(0,0) rotate(270 27.609375 183.5)" class=" highcharts-yaxis-title" style="color:#707070;fill:#707070;" visibility="visible" y="183.5"><tspan>Questions Correct</tspan></text></g><g class="highcharts-series-group" ><g class="highcharts-series" visibility="visible"  transform="translate(70,71) scale(1 1)" clip-path="url(#highcharts-5)"><path fill="none" d="M 5.098039215686275 202.5 C 5.098039215686275 202.5 65.07497116493656 202.5 105.05959246443676 202.5 C 133.0488273740869 202.5 147.04344482891196 190.5 175.0326797385621 180 C 195.0249903883122 172.5 205.02114571318725 166.5 225.01345636293735 157.5 C 245.00576701268741 148.5 255.00192233756246 143.1818181818182 274.99423298731256 135 C 298.9850057670127 125.18181818181817 310.9803921568627 122.31818181818183 334.97116493656284 112.5 C 354.96347558631294 104.31818181818183 364.959630911188 99 384.9519415609381 90 C 404.9442522106882 81 414.9404075355633 78.75 434.9327181853134 67.5 C 446.92810457516345 60.74999999999999 452.9257977700884 45 464.9211841599385 45 C 484.9134948096886 45 514.9019607843137 45 514.9019607843137 45" stroke="#9ab2d6" stroke-width="2"  stroke-linejoin="round" stroke-linecap="round"></path></g><g class="highcharts-markers" visibility="visible"  transform="translate(70,71) scale(1 1)" clip-path="none"><path fill="rgb(245, 64, 50)" d="M 514 41 C 519.328 41 519.328 49 514 49 C 508.672 49 508.672 41 514 41 Z"></path><path fill="rgb(8, 243, 53)" d="M 464 41 C 469.328 41 469.328 49 464 49 C 458.672 49 458.672 41 464 41 Z"></path><path fill="rgb(8, 243, 53)" d="M 434 63.5 C 439.328 63.5 439.328 71.5 434 71.5 C 428.672 71.5 428.672 63.5 434 63.5 Z"></path><path fill="rgb(8, 243, 53)" d="M 384 86 C 389.328 86 389.328 94 384 94 C 378.672 94 378.672 86 384 86 Z"></path><path fill="rgb(8, 243, 53)" d="M 334 108.5 C 339.328 108.5 339.328 116.5 334 116.5 C 328.672 116.5 328.672 108.5 334 108.5 Z"></path><path fill="rgb(8, 243, 53)" d="M 274 131 C 279.328 131 279.328 139 274 139 C 268.672 139 268.672 131 274 131 Z"></path><path fill="rgb(8, 243, 53)" d="M 225 153.5 C 230.328 153.5 230.328 161.5 225 161.5 C 219.672 161.5 219.672 153.5 225 153.5 Z"></path><path fill="rgb(8, 243, 53)" d="M 175 176 C 180.328 176 180.328 184 175 184 C 169.672 184 169.672 176 175 176 Z"></path><path fill="rgb(245, 64, 50)" d="M 105 198.5 C 110.328 198.5 110.328 206.5 105 206.5 C 99.672 206.5 99.672 198.5 105 198.5 Z"></path><path fill="rgb(8, 243, 53)" d="M 5 198.5 C 10.328 198.5 10.328 206.5 5 206.5 C -0.32800000000000007 206.5 -0.32800000000000007 198.5 5 198.5 Z"></path></g></g><text x="300" text-anchor="middle" class="highcharts-title"  style="color:#333333;font-size:18px;fill:#333333;width:536px;" y="25"><tspan>Questions Correct Over Time</tspan></text><text x="300" text-anchor="middle" class="highcharts-subtitle"  style="color:#555555;fill:#555555;width:536px;" y="53"><tspan>Click and drag in the plot area to zoom in</tspan></text><g class="highcharts-legend"  transform="translate(255,364)"><g ><g><g class="highcharts-legend-item"  transform="translate(8,3)"><path fill="none" d="M 0 11 L 16 11" stroke="#9ab2d6" stroke-width="2"></path><path fill="#9ab2d6" d="M 8 7 C 13.328 7 13.328 15 8 15 C 2.6719999999999997 15 2.6719999999999997 7 8 7 Z"></path><text x="21" style="color:#333333;font-size:12px;font-weight:bold;cursor:pointer;fill:#333333;" text-anchor="start"  y="15">Questions</text></g></g></g></g><g class="highcharts-axis-labels highcharts-xaxis-labels" ><text x="95.09034986543637" text-anchor="middle" style="color:#606060;cursor:default;font-size:11px;fill:#606060;" y="316" opacity="1"><tspan>12:10 AM</tspan></text><text x="195.05190311418687" text-anchor="middle" style="color:#606060;cursor:default;font-size:11px;fill:#606060;" y="316" opacity="1"><tspan>12:11 AM</tspan></text><text x="295.01345636293735" text-anchor="middle" style="color:#606060;cursor:default;font-size:11px;fill:#606060;" y="316" opacity="1"><tspan>12:11 AM</tspan></text><text x="394.9750096116878" text-anchor="middle" style="color:#606060;cursor:default;font-size:11px;fill:#606060;" y="316" opacity="1"><tspan>12:11 AM</tspan></text><text x="494.9365628604383" text-anchor="middle" style="color:#606060;cursor:default;font-size:11px;fill:#606060;" y="316" opacity="1"><tspan>12:11 AM</tspan></text></g><g class="highcharts-axis-labels highcharts-yaxis-labels" ><text x="55" text-anchor="end" style="width:178px;color:#606060;cursor:default;font-size:11px;fill:#606060;" y="299.5" opacity="1">0</text><text x="55" text-anchor="end" style="width:178px;color:#606060;cursor:default;font-size:11px;fill:#606060;" y="74.5" opacity="1">10</text><text x="55" text-anchor="end" style="width:178px;color:#606060;cursor:default;font-size:11px;fill:#606060;" y="243.25" opacity="1">2.5</text><text x="55" text-anchor="end" style="width:178px;color:#606060;cursor:default;font-size:11px;fill:#606060;" y="187" opacity="1">5</text><text x="55" text-anchor="end" style="width:178px;color:#606060;cursor:default;font-size:11px;fill:#606060;" y="130.75" opacity="1">7.5</text></g><g class="highcharts-tooltip"  style="cursor:default;padding:0;white-space:nowrap;" transform="translate(0,-9999)"><path fill="none" d="M 3 0 L 13 0 C 16 0 16 0 16 3 L 16 13 C 16 16 16 16 13 16 L 3 16 C 0 16 0 16 0 13 L 0 3 C 0 0 0 0 3 0"  stroke="black" stroke-opacity="0.049999999999999996" stroke-width="5" transform="translate(1, 1)"></path><path fill="none" d="M 3 0 L 13 0 C 16 0 16 0 16 3 L 16 13 C 16 16 16 16 13 16 L 3 16 C 0 16 0 16 0 13 L 0 3 C 0 0 0 0 3 0"  stroke="black" stroke-opacity="0.09999999999999999" stroke-width="3" transform="translate(1, 1)"></path><path fill="none" d="M 3 0 L 13 0 C 16 0 16 0 16 3 L 16 13 C 16 16 16 16 13 16 L 3 16 C 0 16 0 16 0 13 L 0 3 C 0 0 0 0 3 0"  stroke="black" stroke-opacity="0.15" stroke-width="1" transform="translate(1, 1)"></path><path fill="rgb(249, 249, 249)" fill-opacity=" .85" d="M 3 0 L 13 0 C 16 0 16 0 16 3 L 16 13 C 16 16 16 16 13 16 L 3 16 C 0 16 0 16 0 13 L 0 3 C 0 0 0 0 3 0"></path><text x="8"  style="font-size:12px;color:#333333;fill:#333333;" y="21"></text></g><text x="590" text-anchor="end"  style="cursor:pointer;color:#909090;font-size:9px;fill:#909090;" y="395">Highcharts.com</text></svg>