<svg xmlns:xlink="http://www.w3.org/1999/xlink" xmlns="http://www.w3.org/2000/svg" style="font-family: 'lucida grande', 'lucida sans unicode', arial, helvetica, sans-serif; font-size: 12px;" width="600" height="400" version="1.1"><desc>Created with Highcharts 4.0.4</desc><defs><clipPath id="highcharts-77"><rect x="0" y="0" width="523" height="227" /></clipPath></defs><rect class=" highcharts-background" fill="#ffffff" x="0" y="0" width="600" height="400" strokeWidth="0" /><g class="highcharts-grid"  /><g class="highcharts-grid" ><path opacity="1" fill="none" stroke="#c0c0c0" stroke-width="1" d="M 67 71.5 L 590 71.5"  /><path opacity="1" fill="none" stroke="#c0c0c0" stroke-width="1" d="M 67 148.5 L 590 148.5"  /><path opacity="1" fill="none" stroke="#c0c0c0" stroke-width="1" d="M 67 223.5 L 590 223.5"  /><path opacity="1" fill="none" stroke="#c0c0c0" stroke-width="1" d="M 67 299.5 L 590 299.5"  /></g><g class="highcharts-axis" ><path opacity="1" fill="none" stroke="#c0d0e0" stroke-width="1" d="M 166.5 299 L 166.5 309" /><path opacity="1" fill="none" stroke="#c0d0e0" stroke-width="1" d="M 262.5 299 L 262.5 309" /><path opacity="1" fill="none" stroke="#c0d0e0" stroke-width="1" d="M 357.5 299 L 357.5 309" /><path opacity="1" fill="none" stroke="#c0d0e0" stroke-width="1" d="M 453.5 299 L 453.5 309" /><path opacity="1" fill="none" stroke="#c0d0e0" stroke-width="1" d="M 549.5 299 L 549.5 309" /><path opacity="1" fill="none" stroke="#c0d0e0" stroke-width="1" d="M 70.5 299 L 70.5 309" /><text class=" highcharts-xaxis-title" visibility="visible" style="color: rgb(112, 112, 112); fill: #707070;" text-anchor="middle" transform="translate(0)" x="328.5" y="338" >Time</text><path visibility="visible" fill="none" stroke="#c0d0e0" stroke-width="1" d="M 67 299.5 L 590 299.5"  /></g><g class="highcharts-axis" ><text class=" highcharts-yaxis-title" visibility="visible" style="color: rgb(112, 112, 112); fill: #707070;" text-anchor="middle" transform="translate(0) rotate(270 28.08 185.5)" x="28.08" y="185.5" ><tspan>Questions Correct</tspan></text></g><g class="highcharts-series-group" ><g class="highcharts-series" visibility="visible" clip-path="url(#highcharts-77)" transform="translate(67 72) scale(1)" ><path fill="none" stroke="#9ab2d6" stroke-linecap="round" stroke-linejoin="round" stroke-width="2" d="M 5.12745 211.867 C 5.12745 211.867 6.5673 201.922 7.52719 196.733 C 8.80706 189.815 9.44699 187.653 10.7269 181.6 C 12.0067 175.547 12.6466 174.538 13.9265 166.467 C 14.5664 162.431 14.8864 151.46 15.5263 151.333 C 75.9999 139.353 106.237 148.18 166.71 136.2 C 167.35 136.073 167.67 125.909 168.31 121.067 C 169.27 113.803 169.75 106.019 170.71 105.933 C 306.055 93.9119 373.728 102.85 509.073 90.8 C 509.713 90.743 510.033 81.72 510.673 75.6667 C 511.313 69.6133 511.633 65.376 512.273 60.5333 C 513.233 53.2693 513.713 50.5886 514.673 45.4 C 515.953 38.4819 517.873 30.2667 517.873 30.2667"  /></g><g class="highcharts-markers" visibility="visible" clip-path="none" transform="translate(67 72) scale(1)" ><path fill="rgb(8, 243, 53)" d="M 517 26.2667 C 522.328 26.2667 522.328 34.2667 517 34.2667 C 511.672 34.2667 511.672 26.2667 517 26.2667 Z" /><path fill="rgb(8, 243, 53)" d="M 514 41.4 C 519.328 41.4 519.328 49.4 514 49.4 C 508.672 49.4 508.672 41.4 514 41.4 Z" /><path fill="rgb(8, 243, 53)" d="M 512 56.5333 C 517.328 56.5333 517.328 64.5333 512 64.5333 C 506.672 64.5333 506.672 56.5333 512 56.5333 Z" /><path fill="rgb(8, 243, 53)" d="M 510 71.6667 C 515.328 71.6667 515.328 79.6667 510 79.6667 C 504.672 79.6667 504.672 71.6667 510 71.6667 Z" /><path fill="rgb(8, 243, 53)" d="M 509 86.8 C 514.328 86.8 514.328 94.8 509 94.8 C 503.672 94.8 503.672 86.8 509 86.8 Z" /><path fill="rgb(8, 243, 53)" d="M 170 101.933 C 175.328 101.933 175.328 109.933 170 109.933 C 164.672 109.933 164.672 101.933 170 101.933 Z" /><path fill="rgb(8, 243, 53)" d="M 168 117.067 C 173.328 117.067 173.328 125.067 168 125.067 C 162.672 125.067 162.672 117.067 168 117.067 Z" /><path fill="rgb(8, 243, 53)" d="M 166 132.2 C 171.328 132.2 171.328 140.2 166 140.2 C 160.672 140.2 160.672 132.2 166 132.2 Z" /><path fill="rgb(8, 243, 53)" d="M 15 147.333 C 20.328 147.333 20.328 155.333 15 155.333 C 9.672 155.333 9.672 147.333 15 147.333 Z" /><path fill="rgb(8, 243, 53)" d="M 13 162.467 C 18.328 162.467 18.328 170.467 13 170.467 C 7.672 170.467 7.672 162.467 13 162.467 Z" /><path fill="rgb(8, 243, 53)" d="M 10 177.6 C 15.328 177.6 15.328 185.6 10 185.6 C 4.672 185.6 4.672 177.6 10 177.6 Z" /><path fill="rgb(8, 243, 53)" d="M 7 192.733 C 12.328 192.733 12.328 200.733 7 200.733 C 1.672 200.733 1.672 192.733 7 192.733 Z" /><path fill="rgb(8, 243, 53)" d="M 5 207.867 C 10.328 207.867 10.328 215.867 5 215.867 C -0.328 215.867 -0.328 207.867 5 207.867 Z" /></g></g><text class="highcharts-title" style="width: 536px; color: rgb(51, 51, 51); font-size: 18px; fill: #333333;" text-anchor="middle" x="300" y="25" ><tspan>Questions Correct Over Time</tspan></text><text class="highcharts-subtitle" style="width: 536px; color: rgb(85, 85, 85); fill: #555555;" text-anchor="middle" x="300" y="53" ><tspan>Click and drag in the plot area to zoom in</tspan></text><g class="highcharts-legend" transform="translate(255 364)" ><g ><g><g class="highcharts-legend-item" transform="translate(8 3)" ><path fill="none" stroke="#9ab2d6" stroke-width="2" d="M 0 11 L 16 11" /><path fill="#9ab2d6" d="M 8 7 C 13.328 7 13.328 15 8 15 C 2.672 15 2.672 7 8 7 Z" /><text style="color: rgb(51, 51, 51); font-size: 12px; font-weight: bold; cursor: pointer; fill: #333333;" text-anchor="start" x="21" y="15" >Questions</text></g></g></g></g><g class="highcharts-axis-labels highcharts-xaxis-labels" ><text style="color: rgb(96, 96, 96); font-size: 11px; cursor: default; fill: #606060;" opacity="1" text-anchor="middle" x="70.5276" y="319"><tspan>12:42 PM</tspan></text><text style="color: rgb(96, 96, 96); font-size: 11px; cursor: default; fill: #606060;" opacity="1" text-anchor="middle" x="166.5174" y="319"><tspan>12:44 PM</tspan></text><text style="color: rgb(96, 96, 96); font-size: 11px; cursor: default; fill: #606060;" opacity="1" text-anchor="middle" x="262.5071" y="319"><tspan>12:46 PM</tspan></text><text style="color: rgb(96, 96, 96); font-size: 11px; cursor: default; fill: #606060;" opacity="1" text-anchor="middle" x="358.4968" y="319"><tspan>12:48 PM</tspan></text><text style="color: rgb(96, 96, 96); font-size: 11px; cursor: default; fill: #606060;" opacity="1" text-anchor="middle" x="454.4865" y="319"><tspan>12:50 PM</tspan></text><text style="color: rgb(96, 96, 96); font-size: 11px; cursor: default; fill: #606060;" opacity="1" text-anchor="middle" x="550.4763" y="319"><tspan>12:52 PM</tspan></text></g><g class="highcharts-axis-labels highcharts-yaxis-labels" ><text style="width: 178px; color: rgb(96, 96, 96); font-size: 11px; cursor: default; fill: #606060;" opacity="1" text-anchor="end" x="52" y="304">0</text><text style="width: 178px; color: rgb(96, 96, 96); font-size: 11px; cursor: default; fill: #606060;" opacity="1" text-anchor="end" x="52" y="228.3333">5</text><text style="width: 178px; color: rgb(96, 96, 96); font-size: 11px; cursor: default; fill: #606060;" opacity="1" text-anchor="end" x="52" y="152.6667">10</text><text style="width: 178px; color: rgb(96, 96, 96); font-size: 11px; cursor: default; fill: #606060;" opacity="1" text-anchor="end" x="52" y="77">15</text></g><g class="highcharts-tooltip" style="padding: 0px; white-space: nowrap; cursor: default;" transform="translate(0 -9999)" ><path fill="none" stroke="black" stroke-opacity="0.05" stroke-width="5" transform="translate(1 1)" d="M 3 0 L 13 0 C 16 0 16 0 16 3 L 16 13 C 16 16 16 16 13 16 L 3 16 C 0 16 0 16 0 13 L 0 3 C 0 0 0 0 3 0"  /><path fill="none" stroke="black" stroke-opacity="0.1" stroke-width="3" transform="translate(1 1)" d="M 3 0 L 13 0 C 16 0 16 0 16 3 L 16 13 C 16 16 16 16 13 16 L 3 16 C 0 16 0 16 0 13 L 0 3 C 0 0 0 0 3 0"  /><path fill="none" stroke="black" stroke-opacity="0.15" stroke-width="1" transform="translate(1 1)" d="M 3 0 L 13 0 C 16 0 16 0 16 3 L 16 13 C 16 16 16 16 13 16 L 3 16 C 0 16 0 16 0 13 L 0 3 C 0 0 0 0 3 0"  /><path fill="rgb(249, 249, 249)" fill-opacity=" 0.85" d="M 3 0 L 13 0 C 16 0 16 0 16 3 L 16 13 C 16 16 16 16 13 16 L 3 16 C 0 16 0 16 0 13 L 0 3 C 0 0 0 0 3 0" /><text style="color: rgb(51, 51, 51); font-size: 12px; fill: #333333;" x="8" y="21" ></text></g><text style="color: rgb(144, 144, 144); font-size: 9px; cursor: pointer; fill: #909090;" text-anchor="end" x="590" y="395" >Highcharts.com</text></svg>