<svg xmlns:xlink="http://www.w3.org/1999/xlink" version="1.1" style="font-family:'lucida grande', 'lucida sans unicode', arial, helvetica, sans-serif;font-size:12px;" xmlns="http://www.w3.org/2000/svg" width="600" height="400"><desc>Created with Highcharts 4.0.4</desc><defs><clipPath id="highcharts-11"><rect x="0" y="0" width="535" height="249"></rect></clipPath></defs><rect x="0" y="0" width="600" height="400" strokeWidth="0" fill="#FFFFFF" class=" highcharts-background"></rect><g class="highcharts-grid" ></g><g class="highcharts-grid" ><path fill="none" d="M 55 59.5 L 590 59.5" stroke="#C0C0C0" stroke-width="1"  opacity="1"></path><path fill="none" d="M 55 143.5 L 590 143.5" stroke="#C0C0C0" stroke-width="1"  opacity="1"></path><path fill="none" d="M 55 226.5 L 590 226.5" stroke="#C0C0C0" stroke-width="1"  opacity="1"></path><path fill="none" d="M 55 309.5 L 590 309.5" stroke="#C0C0C0" stroke-width="1"  opacity="1"></path></g><g class="highcharts-axis" ><path fill="none" d="M 175.5 309 L 175.5 319" stroke="#C0D0E0" stroke-width="1" opacity="1"></path><path fill="none" d="M 289.5 309 L 289.5 319" stroke="#C0D0E0" stroke-width="1" opacity="1"></path><path fill="none" d="M 404.5 309 L 404.5 319" stroke="#C0D0E0" stroke-width="1" opacity="1"></path><path fill="none" d="M 518.5 309 L 518.5 319" stroke="#C0D0E0" stroke-width="1" opacity="1"></path><path fill="none" d="M 60.5 309 L 60.5 319" stroke="#C0D0E0" stroke-width="1" opacity="1"></path><text x="322.5"  text-anchor="middle" transform="translate(0,0)" class=" highcharts-xaxis-title" style="color:#707070;fill:#707070;" visibility="visible" y="346.34375">Time</text><path fill="none" d="M 55 309.5 L 590 309.5" stroke="#C0D0E0" stroke-width="1"  visibility="visible"></path></g><g class="highcharts-axis" ><text x="23.875"  text-anchor="middle" transform="translate(0,0) rotate(270 23.875 184.5)" class=" highcharts-yaxis-title" style="color:#707070;fill:#707070;" visibility="visible" y="184.5"><tspan>Questions Correct</tspan></text></g><g class="highcharts-series-group" ><g class="highcharts-series" visibility="visible"  transform="translate(55,60) scale(1 1)" clip-path="url(#highcharts-11)"><path fill="none" d="M 5.245098039215686 207.5 C 5.245098039215686 207.5 9.82263814616756 168.02748091603053 12.87433155080214 166 C 59.794117647058826 134.82748091603054 83.25401069518718 132.27828571428572 130.17379679144386 124.5 C 283.52139037433153 99.07828571428573 360.1951871657754 114.85298329355606 513.5427807486631 83 C 520.0276292335116 81.65298329355608 529.7549019607843 41.5 529.7549019607843 41.5" stroke="#9ab2d6" stroke-width="2"  stroke-linejoin="round" stroke-linecap="round"></path></g><g class="highcharts-markers" visibility="visible"  transform="translate(55,60) scale(1 1)" clip-path="none"><path fill="rgb(8, 243, 53)" d="M 529 37.5 C 534.328 37.5 534.328 45.5 529 45.5 C 523.672 45.5 523.672 37.5 529 37.5 Z"></path><path fill="rgb(8, 243, 53)" d="M 513 79 C 518.328 79 518.328 87 513 87 C 507.672 87 507.672 79 513 79 Z"></path><path fill="rgb(8, 243, 53)" d="M 130 120.5 C 135.328 120.5 135.328 128.5 130 128.5 C 124.672 128.5 124.672 120.5 130 120.5 Z"></path><path fill="rgb(8, 243, 53)" d="M 12 162 C 17.328 162 17.328 170 12 170 C 6.672 170 6.672 162 12 162 Z"></path><path fill="rgb(8, 243, 53)" d="M 5 203.5 C 10.328 203.5 10.328 211.5 5 211.5 C -0.32800000000000007 211.5 -0.32800000000000007 203.5 5 203.5 Z"></path></g></g><text x="300" text-anchor="middle" class="highcharts-title"  style="color:#333333;font-size:18px;fill:#333333;width:536px;" y="25"><tspan>Questions Correct Over Time</tspan></text><text x="300" text-anchor="middle" class="highcharts-subtitle"  style="color:#555555;fill:#555555;width:536px;" y="45"><tspan>Pinch the chart to zoom in</tspan></text><g class="highcharts-legend"  transform="translate(256,368)"><g ><g><g class="highcharts-legend-item"  transform="translate(8,3)"><path fill="none" d="M 0 11 L 16 11" stroke="#9ab2d6" stroke-width="2"></path><path fill="#9ab2d6" d="M 8 7 C 13.328 7 13.328 15 8 15 C 2.6719999999999997 15 2.6719999999999997 7 8 7 Z"></path><text x="21" style="color:#333333;font-size:12px;font-weight:bold;cursor:pointer;fill:#333333;" text-anchor="start"  y="15">Questions</text></g></g></g></g><g class="highcharts-axis-labels highcharts-xaxis-labels" ><text x="61.198752228164" text-anchor="middle" style="color:#606060;cursor:default;font-size:11px;fill:#606060;" y="329" opacity="1"><tspan>05:12 PM</tspan></text><text x="175.63725490196077" text-anchor="middle" style="color:#606060;cursor:default;font-size:11px;fill:#606060;" y="329" opacity="1"><tspan>05:14 PM</tspan></text><text x="290.0757575757576" text-anchor="middle" style="color:#606060;cursor:default;font-size:11px;fill:#606060;" y="329" opacity="1"><tspan>05:16 PM</tspan></text><text x="404.51426024955435" text-anchor="middle" style="color:#606060;cursor:default;font-size:11px;fill:#606060;" y="329" opacity="1"><tspan>05:18 PM</tspan></text><text x="518.9527629233512" text-anchor="middle" style="color:#606060;cursor:default;font-size:11px;fill:#606060;" y="329" opacity="1"><tspan>05:20 PM</tspan></text></g><g class="highcharts-axis-labels highcharts-yaxis-labels" ><text x="40" text-anchor="end" style="width:178px;color:#606060;cursor:default;font-size:11px;fill:#606060;" y="314.828125" opacity="1">0</text><text x="40" text-anchor="end" style="width:178px;color:#606060;cursor:default;font-size:11px;fill:#606060;" y="231.828125" opacity="1">2</text><text x="40" text-anchor="end" style="width:178px;color:#606060;cursor:default;font-size:11px;fill:#606060;" y="148.828125" opacity="1">4</text><text x="40" text-anchor="end" style="width:178px;color:#606060;cursor:default;font-size:11px;fill:#606060;" y="65.828125" opacity="1">6</text></g><g class="highcharts-tooltip"  style="cursor:default;padding:0;white-space:nowrap;" transform="translate(0,-9999)"><path fill="none" d="M 3 0 L 13 0 C 16 0 16 0 16 3 L 16 13 C 16 16 16 16 13 16 L 3 16 C 0 16 0 16 0 13 L 0 3 C 0 0 0 0 3 0"  stroke="black" stroke-opacity="0.049999999999999996" stroke-width="5" transform="translate(1, 1)"></path><path fill="none" d="M 3 0 L 13 0 C 16 0 16 0 16 3 L 16 13 C 16 16 16 16 13 16 L 3 16 C 0 16 0 16 0 13 L 0 3 C 0 0 0 0 3 0"  stroke="black" stroke-opacity="0.09999999999999999" stroke-width="3" transform="translate(1, 1)"></path><path fill="none" d="M 3 0 L 13 0 C 16 0 16 0 16 3 L 16 13 C 16 16 16 16 13 16 L 3 16 C 0 16 0 16 0 13 L 0 3 C 0 0 0 0 3 0"  stroke="black" stroke-opacity="0.15" stroke-width="1" transform="translate(1, 1)"></path><path fill="rgb(249, 249, 249)" fill-opacity=" .85" d="M 3 0 L 13 0 C 16 0 16 0 16 3 L 16 13 C 16 16 16 16 13 16 L 3 16 C 0 16 0 16 0 13 L 0 3 C 0 0 0 0 3 0"></path><text x="8"  style="font-size:12px;color:#333333;fill:#333333;" y="21"></text></g><text x="590" text-anchor="end"  style="cursor:pointer;color:#909090;font-size:9px;fill:#909090;" y="395">Highcharts.com</text></svg>