<svg xmlns:xlink="http://www.w3.org/1999/xlink" version="1.1" style="font-family:'lucida grande', 'lucida sans unicode', arial, helvetica, sans-serif;font-size:12px;" xmlns="http://www.w3.org/2000/svg" width="600" height="400"><desc>Created with Highcharts 4.0.4</desc><defs><clipPath id="highcharts-245"><rect x="0" y="0" width="516" height="225"></rect></clipPath></defs><rect x="0" y="0" width="600" height="400" strokeWidth="0" fill="#FFFFFF" class=" highcharts-background"></rect><g class="highcharts-grid" ></g><g class="highcharts-grid" ><path fill="none" d="M 74 70.5 L 590 70.5" stroke="#C0C0C0" stroke-width="1"  opacity="1"></path><path fill="none" d="M 74 146.5 L 590 146.5" stroke="#C0C0C0" stroke-width="1"  opacity="1"></path><path fill="none" d="M 74 221.5 L 590 221.5" stroke="#C0C0C0" stroke-width="1"  opacity="1"></path><path fill="none" d="M 74 296.5 L 590 296.5" stroke="#C0C0C0" stroke-width="1"  opacity="1"></path></g><g class="highcharts-axis" ><path fill="none" d="M 184.5 296 L 184.5 306" stroke="#C0D0E0" stroke-width="1" opacity="1"></path><path fill="none" d="M 251.5 296 L 251.5 306" stroke="#C0D0E0" stroke-width="1" opacity="1"></path><path fill="none" d="M 318.5 296 L 318.5 306" stroke="#C0D0E0" stroke-width="1" opacity="1"></path><path fill="none" d="M 385.5 296 L 385.5 306" stroke="#C0D0E0" stroke-width="1" opacity="1"></path><path fill="none" d="M 452.5 296 L 452.5 306" stroke="#C0D0E0" stroke-width="1" opacity="1"></path><path fill="none" d="M 519.5 296 L 519.5 306" stroke="#C0D0E0" stroke-width="1" opacity="1"></path><path fill="none" d="M 586.5 296 L 586.5 306" stroke="#C0D0E0" stroke-width="1" opacity="1"></path><path fill="none" d="M 117.5 296 L 117.5 306" stroke="#C0D0E0" stroke-width="1" opacity="1"></path><text x="332"  text-anchor="middle" transform="translate(0,0)" class=" highcharts-xaxis-title" style="color:#707070;fill:#707070;" visibility="visible" y="338">Time</text><path fill="none" d="M 74 296.5 L 590 296.5" stroke="#C0D0E0" stroke-width="1"  visibility="visible"></path></g><g class="highcharts-axis" ><text x="28.09375"  text-anchor="middle" transform="translate(0,0) rotate(270 28.09375 183.5)" class=" highcharts-yaxis-title" style="color:#707070;fill:#707070;" visibility="visible" y="183.5"><tspan>Questions Correct</tspan></text></g><g class="highcharts-series-group" ><g class="highcharts-series" visibility="visible"  transform="translate(74,71) scale(1 1)" clip-path="url(#highcharts-245)"><path fill="none" d="M 5.058823529411765 224.25 C 5.058823529411765 224.25 6.264013840830451 224.00625000000002 7.067474048442907 223.5 C 7.216262975778548 223.40625 7.290657439446368 223.02272727272728 7.439446366782008 222.75 C 7.6179930795847755 222.42272727272726 7.707266435986159 222.0857142857143 7.885813148788928 222 C 8.957093425605537 221.48571428571427 9.492733564013841 221.76428571428573 10.56401384083045 221.25 C 10.742560553633218 221.1642857142857 10.8318339100346 220.8 11.01038062283737 220.5 C 11.18892733564014 220.2 11.278200692041523 220.05 11.456747404844291 219.75 C 11.63529411764706 219.45 11.724567474048445 219.32727272727274 11.903114186851212 219 C 12.051903114186853 218.72727272727272 12.126297577854672 218.52272727272728 12.275086505190313 218.25 C 12.453633217993081 217.92272727272726 12.542906574394465 217.8 12.721453287197233 217.5 C 12.9 217.2 12.989273356401384 217.02692307692308 13.167820069204152 216.75 C 13.376124567474047 216.42692307692306 13.480276816608997 216.35000000000002 13.688581314878894 216 C 13.837370242214533 215.75 13.911764705882353 215.5 14.060553633217994 215.25 C 14.268858131487889 214.89999999999998 14.373010380622839 214.82307692307694 14.581314878892734 214.5 C 14.759861591695502 214.22307692307692 14.849134948096886 214.05 15.027681660899654 213.75 C 15.206228373702425 213.45 15.295501730103805 213.22500000000002 15.474048442906575 213 C 15.771626297577853 212.625 15.920415224913494 212.6029411764706 16.217993079584776 212.25 C 16.426297577854672 212.00294117647059 16.53044982698962 211.6076923076923 16.738754325259517 211.5 C 17.691003460207614 211.00769230769228 18.167128027681663 211.26891891891893 19.11937716262976 210.75 C 19.268166089965398 210.6689189189189 19.34256055363322 210.0810810810811 19.49134948096886 210 C 20.443598615916954 209.48108108108107 20.919723183391007 209.57000000000002 21.8719723183391 209.25 C 22.705190311418686 208.97 23.12179930795848 208.6263157894737 23.955017301038065 208.5 C 27.079584775086506 208.02631578947367 28.641868512110726 208.2794117647059 31.76643598615917 207.75 C 32.183044982698966 207.6794117647059 32.391349480968856 207.40000000000003 32.807958477508656 207 C 33.016262975778545 206.8 33.12041522491349 206.57307692307694 33.32871972318339 206.25 C 33.50726643598616 205.97307692307692 33.596539792387546 205.82727272727274 33.775086505190316 205.5 C 33.92387543252595 205.22727272727272 33.998269896193776 204.75 34.14705882352941 204.75 C 34.266089965397924 204.75 34.32560553633218 204.75 34.444636678200695 204.75 C 34.71245674740485 204.75 34.84636678200692 204.41538461538462 35.11418685121107 204 C 35.233217993079585 203.8153846153846 35.292733564013844 203.49 35.411764705882355 203.25 C 35.59031141868512 202.89 35.679584775086504 202.75714285714287 35.858131487889274 202.5 C 36.096193771626304 202.15714285714284 36.21522491349481 202.1192307692308 36.45328719723184 201.75 C 36.602076124567475 201.51923076923077 36.67647058823529 201.25 36.825259515570934 201 C 37.03356401384083 200.64999999999998 37.13771626297578 200.55 37.346020761245676 200.25 C 37.55432525951557 199.95 37.65847750865052 199.82307692307694 37.86678200692042 199.5 C 38.04532871972318 199.22307692307692 38.134602076124565 199.02692307692308 38.313148788927336 198.75 C 38.52145328719723 198.42692307692306 38.62560553633218 198.32307692307694 38.83391003460208 198 C 39.01245674740485 197.72307692307692 39.10173010380623 197.55 39.280276816608996 197.25 C 39.45882352941177 196.95 39.54809688581315 196.8 39.72664359861592 196.5 C 39.905190311418686 196.2 39.99446366782007 195.8558823529412 40.17301038062284 195.75 C 41.00622837370243 195.25588235294117 41.42283737024222 195.52500000000003 42.2560553633218 195 C 42.37508650519031 194.925 42.43460207612456 194.49 42.55363321799308 194.25 C 42.73217993079585 193.89 42.82145328719723 193.75714285714287 43 193.5 C 43.23806228373702 193.15714285714284 43.357093425605534 192.77142857142857 43.59515570934256 192.75 C 50.022837370242215 192.17142857142855 53.23667820069204 192.58378378378382 59.6643598615917 192 C 59.84290657439446 191.9837837837838 59.93217993079585 191.57727272727274 60.11072664359862 191.25 C 60.25951557093426 190.97727272727272 60.333910034602084 190.8 60.48269896193772 190.5 C 60.63148788927335 190.2 60.70588235294118 190.08333333333334 60.85467128027682 189.75 C 60.97370242214534 189.48333333333332 61.03321799307959 189.26666666666668 61.1522491349481 189 C 61.30103806228374 188.66666666666666 61.37543252595157 188.52272727272728 61.524221453287204 188.25 C 61.70276816608997 187.92272727272726 61.79204152249135 187.77692307692308 61.97058823529412 187.5 C 62.17889273356402 187.17692307692306 62.28304498269897 187.07307692307694 62.491349480968864 186.75 C 62.669896193771635 186.47307692307692 62.75916955017301 186.15652173913045 62.93771626297578 186 C 63.44359861591696 185.55652173913043 63.69653979238755 185.71363636363637 64.20242214532873 185.25 C 64.35121107266437 185.11363636363635 64.42560553633218 184.52608695652174 64.57439446366783 184.5 C 67.8477508650519 183.92608695652171 69.48442906574395 184.3141025641026 72.75778546712803 183.75 C 72.96608996539793 183.71410256410257 73.07024221453288 183.35000000000002 73.27854671280278 183 C 73.42733564013841 182.75 73.50173010380624 182.5 73.65051903114187 182.25 C 73.85882352941177 181.89999999999998 73.96297577854672 181.82307692307694 74.17128027681662 181.5 C 74.34982698961939 181.22307692307692 74.43910034602077 181.05 74.61764705882354 180.75 C 74.7961937716263 180.45 74.88546712802768 180.32727272727274 75.06401384083046 180 C 75.2128027681661 179.72727272727272 75.28719723183391 179.5 75.43598615916956 179.25 C 75.64429065743946 178.89999999999998 75.74844290657441 178.5336 75.9567474048443 178.5 C 79.4681660899654 177.93359999999998 81.22387543252594 178.14775280898877 84.73529411764706 177.75 C 86.52076124567473 177.54775280898875 87.41349480968859 177.40909090909093 89.19896193771626 177 C 90.03217993079585 176.8090909090909 90.44878892733564 176.73000000000002 91.28200692041523 176.25 C 91.49031141868512 176.13 91.59446366782007 175.80000000000004 91.80276816608998 175.5 C 92.01107266435986 175.20000000000002 92.11522491349481 175.10000000000002 92.32352941176471 174.75 C 92.47231833910035 174.5 92.54671280276816 174.2727272727273 92.69550173010381 174 C 92.87404844290657 173.6727272727273 92.96332179930798 173.5772727272727 93.14186851211073 173.25 C 93.29065743944639 172.9772727272727 93.36505190311419 172.8 93.51384083044984 172.5 C 93.66262975778548 172.2 93.7370242214533 172.02272727272728 93.88581314878893 171.75 C 94.0643598615917 171.42272727272726 94.15363321799309 171.18 94.33217993079586 171 C 94.74878892733565 170.57999999999998 94.95709342560554 170.25 95.37370242214533 170.25 C 96.65328719723183 170.25 97.29307958477509 170.25 98.57266435986159 170.25 C 98.9 170.25 99.0636678200692 170.25 99.39100346020761 170.25 C 115.96608996539794 170.25 124.2536332179931 170.25 140.8287197231834 170.25 C 141.12629757785467 170.25 141.2750865051903 170.25 141.5726643598616 170.25 C 141.78096885813147 170.25 141.88512110726643 169.82307692307694 142.09342560553634 169.5 C 142.27197231833912 169.22307692307692 142.36124567474047 168.75 142.53979238754326 168.75 C 142.74809688581317 168.75 142.85224913494812 168.75 143.060553633218 168.75 C 143.32837370242217 168.75 143.46228373702425 168 143.73010380622839 168 C 143.8491349480969 168 143.90865051903114 168 144.02768166089967 168 C 182.89134948096887 168 202.32318339100348 167.83961625282168 241.18685121107268 167.25 C 241.8712802768166 167.23961625282166 242.2134948096886 166.97586206896554 242.89792387543255 166.5 C 243.0764705882353 166.37586206896552 243.1657439446367 166.07727272727277 243.34429065743947 165.75 C 243.4930795847751 165.47727272727275 243.5674740484429 165.30000000000004 243.71626297577856 165 C 243.8650519031142 164.70000000000002 243.93944636678202 164.5 244.08823529411765 164.25 C 244.29653979238756 163.89999999999998 244.40069204152252 163.78 244.6089965397924 163.5 C 244.8470588235294 163.17999999999998 244.96608996539794 162.93461538461537 245.20415224913495 162.75 C 245.73979238754328 162.33461538461535 246.00761245674738 162.2511627906977 246.54325259515574 162 C 247.28719723183394 161.65116279069767 247.65916955017306 161.75000000000003 248.40311418685124 161.25 C 248.55190311418687 161.15 248.6262975778547 160.73076923076923 248.77508650519033 160.5 C 249.01314878892737 160.1307692307692 249.13217993079584 160.09285714285718 249.37024221453288 159.75 C 249.54878892733564 159.49285714285716 249.63806228373704 159.27692307692305 249.8166089965398 159 C 250.0249134948097 158.67692307692303 250.12906574394464 158.55 250.33737024221455 158.25 C 250.54567474048446 157.95 250.64982698961938 157.85000000000002 250.8581314878893 157.5 C 251.00692041522493 157.25 251.08131487889278 157.02272727272725 251.23010380622839 156.75 C 251.40865051903114 156.42272727272723 251.49792387543252 156.2571428571429 251.6764705882353 156 C 251.9145328719723 155.65714285714287 252.03356401384085 155.5166666666667 252.27162629757788 155.25 C 252.56920415224914 154.91666666666669 252.7179930795848 154.89999999999998 253.01557093425606 154.5 C 253.16435986159172 154.29999999999995 253.23875432525955 154.02272727272728 253.38754325259518 153.75 C 253.56608996539794 153.42272727272726 253.6553633217993 153.2571428571429 253.8339100346021 153 C 254.0719723183391 152.65714285714287 254.19100346020764 152.59285714285716 254.42906574394465 152.25 C 254.6076124567474 151.99285714285713 254.6968858131488 151.77692307692305 254.87543252595157 151.5 C 255.0837370242215 151.17692307692303 255.18788927335646 150.825 255.39619377162632 150.75 C 256.8543252595156 150.22499999999997 257.5833910034602 150.5547169811321 259.0415224913495 150 C 259.160553633218 149.95471698113207 259.22006920415225 149.51666666666665 259.33910034602076 149.25 C 259.4878892733564 148.91666666666663 259.56228373702425 148.80000000000007 259.7110726643599 148.5 C 259.8598615916955 148.20000000000005 259.93425605536333 148.00000000000003 260.083044982699 147.75 C 260.2913494809689 147.4 260.39550173010383 147.28000000000003 260.60380622837374 147 C 260.84186851211075 146.68 260.96089965397925 146.59285714285716 261.19896193771626 146.25 C 261.377508650519 145.99285714285713 261.4667820069204 145.73999999999998 261.6453287197232 145.5 C 261.91314878892734 145.13999999999996 262.0470588235295 145.13571428571427 262.3148788927336 144.75 C 262.46366782006925 144.53571428571425 262.5380622837371 144.27272727272725 262.6868512110727 144 C 262.86539792387543 143.67272727272723 262.95467128027684 143.46176470588236 263.1332179930796 143.25 C 263.460553633218 142.86176470588234 263.6242214532872 142.88823529411766 263.9515570934256 142.5 C 264.13010380622836 142.28823529411764 264.2193771626297 142.07727272727277 264.3979238754325 141.75 C 264.5467128027682 141.47727272727275 264.62110726643596 141.23076923076925 264.7698961937716 141 C 265.0079584775086 140.63076923076923 265.1269896193772 140.57 265.3650519031142 140.25 C 265.5733564013841 139.96999999999997 265.67750865051903 139.85 265.88581314878894 139.5 C 266.0346020761246 139.24999999999997 266.10899653979243 139.04999999999995 266.25778546712803 138.75 C 266.4065743944637 138.44999999999993 266.48096885813146 138.01234567901236 266.6297577854671 138 C 273.71211072664363 137.41234567901233 277.2532871972318 137.55382978723406 284.33564013840834 137.25 C 291.2394463667821 136.95382978723404 294.6913494809689 137.08487394957984 301.5951557093426 136.5 C 301.77370242214533 136.48487394957982 301.86297577854674 135.8357142857143 302.0415224913495 135.75 C 303.1128027681661 135.23571428571427 303.64844290657436 135.54 304.719723183391 135 C 304.8387543252596 134.93999999999997 304.89826989619377 134.5166666666667 305.0173010380623 134.25 C 305.166089965398 133.91666666666669 305.24048442906576 133.8 305.3892733564014 133.5 C 305.5380622837371 133.2 305.61245674740485 132.75 305.7612456747405 132.75 C 306.2373702422145 132.75 306.47543252595153 132.75 306.9515570934256 132.75 C 307.60622837370244 132.75 307.93356401384085 132.50769230769234 308.5882352941177 132 C 308.7072664359862 131.90769230769232 308.76678200692044 131.3205882352941 308.88581314878894 131.25 C 309.7785467128028 130.7205882352941 310.2249134948097 130.96153846153848 311.11764705882354 130.5 C 311.3854671280277 130.36153846153846 311.5193771626298 129.8648936170213 311.78719723183394 129.75 C 312.9179930795848 129.26489361702127 313.48339100346027 129 314.6141868512111 129 C 314.79273356401393 129 314.8820069204153 129 315.06055363321803 129 C 315.7747404844291 129 316.1318339100347 128.538 316.8460207612457 128.25 C 317.61972318339105 127.93799999999999 318.00657439446366 127.78888888888889 318.780276816609 127.5 C 319.6134948096886 127.1888888888889 320.03010380622834 127.19210526315791 320.863321799308 126.75 C 321.16089965397924 126.59210526315792 321.3096885813149 126.375 321.60726643598616 126 C 321.7858131487889 125.775 321.8750865051903 125.55 322.0536332179931 125.25 C 322.23217993079584 124.95 322.32145328719724 124.8272727272727 322.5 124.5 C 322.64878892733566 124.2272727272727 322.7231833910035 123.80660377358491 322.87197231833915 123.75 C 324.3003460207613 123.20660377358492 325.0145328719724 123.20719424460431 326.4429065743945 123 C 329.1508650519031 122.60719424460432 330.50484429065745 122.80714285714285 333.2128027681661 122.25 C 333.421107266436 122.20714285714286 333.525259515571 121.85000000000001 333.73356401384086 121.5 C 333.88235294117646 121.25000000000001 333.9567474048443 121 334.10553633217995 120.75 C 334.31384083044986 120.4 334.4179930795848 120.3818181818182 334.6262975778547 120 C 334.7453287197232 119.78181818181821 334.80484429065746 119.49 334.92387543252596 119.25 C 335.1024221453287 118.89 335.1916955017301 118.8272727272727 335.3702422145329 118.5 C 335.51903114186854 118.2272727272727 335.5934256055363 117.98076923076923 335.74221453287197 117.75 C 335.98027681660903 117.38076923076923 336.0993079584775 117.34285714285717 336.33737024221455 117 C 336.5159169550173 116.74285714285718 336.6051903114187 116.55 336.78373702422147 116.25 C 336.9622837370242 115.95 337.05155709342563 115.7769230769231 337.2301038062284 115.5 C 337.43840830449824 115.1769230769231 337.5425605536332 115.1 337.75086505190313 114.75 C 337.8996539792388 114.5 337.97404844290656 114.18750000000003 338.1228373702422 114 C 338.4501730103806 113.58750000000003 338.6138408304498 113.63823529411765 338.94117647058823 113.25 C 339.119723183391 113.03823529411765 339.2089965397924 112.67999999999998 339.38754325259515 112.5 C 339.804152249135 112.07999999999998 340.0124567474048 112.00454545454546 340.42906574394465 111.75 C 340.99446366782007 111.40454545454547 341.2771626297578 111.32571428571427 341.84256055363323 111 C 342.3186851211073 110.72571428571428 342.55674740484426 110.3763157894737 343.03287197231833 110.25 C 344.818339100346 109.7763157894737 345.7110726643599 110.05384615384614 347.4965397923876 109.5 C 347.64532871972324 109.45384615384614 347.719723183391 109.05 347.86851211072667 108.75 C 348.0173010380623 108.45 348.0916955017301 108.01045296167247 348.24048442906576 108 C 356.6321799307958 107.41045296167248 360.8280276816609 107.80475409836065 369.219723183391 107.25 C 369.90415224913494 107.20475409836065 370.24636678200693 106.99285714285713 370.9307958477509 106.5 C 371.0795847750866 106.39285714285714 371.15397923875435 106.0227272727273 371.30276816609 105.75 C 371.48131487889276 105.4227272727273 371.57058823529417 105.09473684210526 371.7491349480969 105 C 372.701384083045 104.49473684210527 373.17750865051914 104.7423076923077 374.1297577854672 104.25 C 374.33806228373703 104.14230769230771 374.442214532872 103.54941176470587 374.65051903114187 103.5 C 376.97162629757787 102.94941176470587 378.13217993079587 102.75 380.4532871972319 102.75 C 380.8996539792388 102.75 381.1228373702423 102.75 381.56920415224914 102.75 C 381.77750865051905 102.75 381.881660899654 102.35 382.0899653979239 102 C 382.23875432525955 101.75 382.3131487889274 101.28797468354429 382.461937716263 101.25 C 384.6640138408305 100.6879746835443 385.76505190311417 101.04814814814814 387.96712802768167 100.5 C 388.1754325259516 100.44814814814815 388.27958477508656 100.0730769230769 388.4878892733564 99.75 C 388.6664359861592 99.4730769230769 388.7557093425606 99.27692307692305 388.93425605536333 99 C 389.14256055363325 98.67692307692306 389.24671280276823 98.59999999999995 389.4550173010381 98.25 C 389.60380622837374 97.99999999999996 389.6782006920415 97.73076923076925 389.8269896193772 97.5 C 390.0650519031142 97.13076923076926 390.1840830449827 96.99000000000004 390.42214532871975 96.75 C 390.77923875432526 96.39000000000004 390.9577854671281 96.37894736842102 391.3148788927336 96 C 391.5231833910035 95.77894736842103 391.6273356401384 95.28111111111112 391.83564013840834 95.25 C 395.64463667820075 94.68111111111112 397.5491349480969 95.06470588235292 401.3581314878893 94.5 C 401.59619377162636 94.46470588235293 401.7152249134948 93.77790697674419 401.9532871972319 93.75 C 406.8335640138408 93.1779069767442 409.2737024221454 93.35912408759124 414.15397923875435 93 C 417.42733564013844 92.75912408759125 419.06401384083046 92.8 422.33737024221455 92.25 C 422.6349480968858 92.2 422.7837370242215 91.6578947368421 423.0813148788928 91.5 C 423.91453287197237 91.0578947368421 424.3311418685122 91.25909090909089 425.1643598615917 90.75 C 425.3131487889274 90.65909090909089 425.38754325259515 90.33333333333343 425.5363321799308 90 C 425.65536332179926 89.73333333333343 425.71487889273357 89.4681818181819 425.8339100346021 89.25 C 426.042214532872 88.86818181818191 426.14636678200696 88.85000000000001 426.3546712802768 88.5 C 426.5034602076124 88.25000000000001 426.5778546712803 88.05 426.72664359861596 87.75 C 426.8754325259516 87.45 426.9498269896194 87.30000000000005 427.09861591695505 87 C 427.24740484429066 86.70000000000006 427.3217993079585 86.5227272727273 427.47058823529414 86.25 C 427.6491349480969 85.9227272727273 427.73840830449825 85.7769230769231 427.91695501730106 85.5 C 428.125259515571 85.1769230769231 428.22941176470596 85.0730769230769 428.4377162629758 84.75 C 428.61626297577857 84.4730769230769 428.70553633218 84.25714285714285 428.88408304498273 84 C 429.12214532871974 83.65714285714286 429.2411764705883 83.59285714285714 429.4792387543253 83.25 C 429.65778546712806 82.99285714285715 429.74705882352947 82.8272727272727 429.9256055363322 82.5 C 430.0743944636679 82.2272727272727 430.14878892733566 81.99999999999997 430.2975778546713 81.75 C 430.5058823529413 81.39999999999998 430.6100346020761 81.32307692307694 430.81833910034607 81 C 430.9968858131489 80.72307692307695 431.0861591695502 80.5772727272727 431.264705882353 80.25 C 431.41349480968864 79.9772727272727 431.4878892733565 79.8333333333333 431.6366782006921 79.5 C 431.7557093425606 79.2333333333333 431.8152249134949 78.92142857142849 431.93425605536333 78.75 C 432.23183391003465 78.3214285714285 432.38062283737025 78.39999999999999 432.67820069204157 78 C 432.82698961937723 77.8 432.901384083045 77.58333333333329 433.05017301038066 77.25 C 433.1692041522492 76.98333333333329 433.2287197231834 76.73999999999995 433.3477508650519 76.5 C 433.52629757785473 76.13999999999996 433.6155709342561 76.0772727272727 433.79411764705884 75.75 C 433.9429065743945 75.4772727272727 434.0173010380623 75.3333333333333 434.16608996539793 75 C 434.28512110726643 74.7333333333333 434.34463667820074 74.40999999999998 434.46366782006925 74.25 C 434.79100346020766 73.80999999999999 434.95467128027684 73.75384615384617 435.28200692041526 73.5 C 435.7283737024221 73.15384615384617 435.9515570934256 73.19999999999997 436.3979238754325 72.75 C 436.5467128027682 72.59999999999998 436.62110726643607 72.21428571428567 436.7698961937717 72 C 437.03771626297583 71.61428571428567 437.17162629757786 71.40882352941178 437.439446366782 71.25 C 438.1833910034602 70.80882352941178 438.5553633217993 70.99999999999999 439.2993079584775 70.5 C 439.4480968858132 70.39999999999999 439.52249134948096 70.0227272727273 439.6712802768166 69.75 C 439.8498269896194 69.4227272727273 439.9391003460208 69.29999999999995 440.11764705882354 69 C 440.29619377162635 68.69999999999996 440.38546712802764 68.55000000000004 440.56401384083046 68.25 C 440.7425605536332 67.95000000000005 440.83183391003456 67.82727272727274 441.0103806228374 67.5 C 441.15916955017303 67.22727272727275 441.2335640138408 67.02272727272731 441.3823529411765 66.75 C 441.56089965397933 66.42272727272731 441.6501730103807 66.14999999999999 441.82871972318344 66 C 442.36435986159177 65.55 442.63217993079587 65.6357142857143 443.1678200692042 65.25 C 443.46539792387546 65.0357142857143 443.61418685121106 64.5483870967742 443.9117647058824 64.5 C 447.304152249135 63.948387096774205 449.0003460207613 63.85604651162791 452.3927335640139 63.75 C 468.1941176470588 63.256046511627915 476.09480968858134 63.59440298507462 491.8961937716263 63 C 492.0449826989619 62.99440298507463 492.11937716262975 62.550000000000054 492.2681660899654 62.25 C 492.416955017301 61.95000000000006 492.4913494809689 61.7727272727273 492.64013840830455 61.5 C 492.8186851211073 61.17272727272731 492.9079584775087 61.11 493.08650519031147 60.75 C 493.20553633218 60.510000000000005 493.2650519031143 60 493.38408304498273 60 C 493.5328719723184 60 493.60726643598616 60 493.7560553633218 60 C 493.9643598615918 60 494.0685121107266 59.60000000000003 494.27681660899657 59.25 C 494.4256055363322 59.000000000000036 494.5 58.7727272727273 494.64878892733566 58.5 C 494.8273356401384 58.17272727272731 494.9166089965398 58.05000000000005 495.0951557093426 57.75 C 495.2737024221453 57.45000000000005 495.36297577854674 57.32727272727275 495.5415224913495 57 C 495.6903114186851 56.727272727272755 495.764705882353 56.4807692307692 495.9134948096886 56.25 C 496.1515570934256 55.880769230769204 496.27058823529416 55.869230769230796 496.50865051903116 55.5 C 496.65743944636677 55.2692307692308 496.7318339100346 55.04999999999994 496.88062283737025 54.75 C 497.02941176470597 54.449999999999946 497.10380622837374 54.2727272727273 497.2525951557094 54 C 497.43114186851216 53.67272727272731 497.52041522491356 53.57727272727269 497.6989619377163 53.25 C 497.847750865052 52.9772727272727 497.92214532871975 52.7727272727273 498.0709342560554 52.5 C 498.24948096885817 52.17272727272731 498.3387543252596 52.02692307692301 498.5173010380623 51.75 C 498.7256055363323 51.42692307692302 498.82975778546717 51.30000000000004 499.0380622837371 51 C 499.24636678200693 50.700000000000045 499.3505190311419 50.63181818181809 499.55882352941177 50.25 C 499.67785467128033 50.031818181818096 499.7373702422145 49.76666666666671 499.8564013840831 49.5 C 500.00519031141874 49.166666666666714 500.0795847750866 48.99999999999999 500.2283737024222 48.75 C 500.43667820069203 48.4 500.540830449827 48.34999999999999 500.7491349480969 48 C 500.8979238754326 47.74999999999999 500.97231833910035 47.5227272727273 501.121107266436 47.25 C 501.29965397923877 46.92272727272731 501.3889273356402 46.79999999999995 501.56747404844293 46.5 C 501.74602076124575 46.19999999999995 501.83529411764704 46.05000000000005 502.01384083044985 45.75 C 502.1923875432526 45.45000000000005 502.28166089965396 45.3 502.46020761245677 45 C 502.6387543252596 44.7 502.72802768166093 44.526923076923055 502.9065743944637 44.25 C 503.1148788927336 43.92692307692306 503.2190311418685 43.82307692307689 503.42733564013844 43.5 C 503.60588235294125 43.223076923076896 503.69515570934254 43.0772727272728 503.87370242214536 42.75 C 504.02249134948096 42.477272727272805 504.0968858131488 42.3 504.24567474048445 42 C 504.3944636678201 41.7 504.46885813148793 41.49999999999991 504.61764705882354 41.25 C 504.8259515570935 40.89999999999991 504.9301038062284 40.82307692307689 505.1384083044983 40.5 C 505.3169550173011 40.223076923076896 505.40622837370245 40.07727272727275 505.5847750865052 39.75 C 505.7335640138408 39.477272727272755 505.8079584775087 39.230769230769255 505.95674740484435 39 C 506.19480968858136 38.63076923076926 506.31384083044986 38.61923076923074 506.55190311418687 38.25 C 506.70069204152253 38.019230769230745 506.7750865051903 37.7727272727273 506.92387543252596 37.5 C 507.1024221453287 37.17272727272731 507.1916955017301 37.05000000000005 507.3702422145329 36.75 C 507.5487889273356 36.45000000000005 507.63806228373704 36.094736842105256 507.8166089965398 36 C 508.76885813148795 35.49473684210526 509.24498269896196 35.768918918918935 510.19723183391005 35.25 C 510.34602076124565 35.16891891891894 510.42041522491354 34.79999999999994 510.56920415224914 34.5 C 510.7179930795848 34.199999999999946 510.9411764705883 33.75 510.9411764705883 33.75" stroke="#9ab2d6" stroke-width="2"  stroke-linejoin="round" stroke-linecap="round"></path></g><g class="highcharts-markers" visibility="visible"  transform="translate(74,71) scale(1 1)" clip-path="none"></g></g><text x="300" text-anchor="middle" class="highcharts-title"  style="color:#333333;font-size:18px;fill:#333333;width:536px;" y="25"><tspan>Questions Correct Over Time</tspan></text><text x="300" text-anchor="middle" class="highcharts-subtitle"  style="color:#555555;fill:#555555;width:536px;" y="53"><tspan>Click and drag in the plot area to zoom in</tspan></text><g class="highcharts-legend"  transform="translate(255,364)"><g ><g><g class="highcharts-legend-item"  transform="translate(8,3)"><path fill="none" d="M 0 11 L 16 11" stroke="#9ab2d6" stroke-width="2"></path><path fill="#9ab2d6" d="M 8 7 C 13.328 7 13.328 15 8 15 C 2.6719999999999997 15 2.6719999999999997 7 8 7 Z"></path><text x="21" style="color:#333333;font-size:12px;font-weight:bold;cursor:pointer;fill:#333333;" text-anchor="start"  y="15">Questions</text></g></g></g></g><g class="highcharts-axis-labels highcharts-xaxis-labels" ><text x="118.1159169550173" text-anchor="middle" style="color:#606060;cursor:default;font-size:11px;fill:#606060;" y="316" opacity="1"><tspan>12:15 PM</tspan></text><text x="185.07093425605535" text-anchor="middle" style="color:#606060;cursor:default;font-size:11px;fill:#606060;" y="316" opacity="1"><tspan>12:30 PM</tspan></text><text x="252.02595155709344" text-anchor="middle" style="color:#606060;cursor:default;font-size:11px;fill:#606060;" y="316" opacity="1"><tspan>12:45 PM</tspan></text><text x="318.9809688581315" text-anchor="middle" style="color:#606060;cursor:default;font-size:11px;fill:#606060;" y="316" opacity="1"><tspan>01:00 PM</tspan></text><text x="385.93598615916954" text-anchor="middle" style="color:#606060;cursor:default;font-size:11px;fill:#606060;" y="316" opacity="1"><tspan>01:15 PM</tspan></text><text x="452.8910034602076" text-anchor="middle" style="color:#606060;cursor:default;font-size:11px;fill:#606060;" y="316" opacity="1"><tspan>01:30 PM</tspan></text><text x="519.8460207612457" text-anchor="middle" style="color:#606060;cursor:default;font-size:11px;fill:#606060;" y="316" opacity="1"><tspan>01:45 PM</tspan></text><text x="574.8359375" text-anchor="middle" style="color:#606060;cursor:default;font-size:11px;fill:#606060;" y="316" opacity="1"><tspan>02:00 PM</tspan></text></g><g class="highcharts-axis-labels highcharts-yaxis-labels" ><text x="59" text-anchor="end" style="width:178px;color:#606060;cursor:default;font-size:11px;fill:#606060;" y="299.5" opacity="1">0</text><text x="59" text-anchor="end" style="width:178px;color:#606060;cursor:default;font-size:11px;fill:#606060;" y="224.5" opacity="1">100</text><text x="59" text-anchor="end" style="width:178px;color:#606060;cursor:default;font-size:11px;fill:#606060;" y="149.5" opacity="1">200</text><text x="59" text-anchor="end" style="width:178px;color:#606060;cursor:default;font-size:11px;fill:#606060;" y="74.5" opacity="1">300</text></g><g class="highcharts-tooltip"  style="cursor:default;padding:0;white-space:nowrap;" transform="translate(0,-9999)"><path fill="none" d="M 3 0 L 13 0 C 16 0 16 0 16 3 L 16 13 C 16 16 16 16 13 16 L 3 16 C 0 16 0 16 0 13 L 0 3 C 0 0 0 0 3 0"  stroke="black" stroke-opacity="0.049999999999999996" stroke-width="5" transform="translate(1, 1)"></path><path fill="none" d="M 3 0 L 13 0 C 16 0 16 0 16 3 L 16 13 C 16 16 16 16 13 16 L 3 16 C 0 16 0 16 0 13 L 0 3 C 0 0 0 0 3 0"  stroke="black" stroke-opacity="0.09999999999999999" stroke-width="3" transform="translate(1, 1)"></path><path fill="none" d="M 3 0 L 13 0 C 16 0 16 0 16 3 L 16 13 C 16 16 16 16 13 16 L 3 16 C 0 16 0 16 0 13 L 0 3 C 0 0 0 0 3 0"  stroke="black" stroke-opacity="0.15" stroke-width="1" transform="translate(1, 1)"></path><path fill="rgb(249, 249, 249)" fill-opacity=" .85" d="M 3 0 L 13 0 C 16 0 16 0 16 3 L 16 13 C 16 16 16 16 13 16 L 3 16 C 0 16 0 16 0 13 L 0 3 C 0 0 0 0 3 0"></path><text x="8"  style="font-size:12px;color:#333333;fill:#333333;" y="21"></text></g><text x="590" text-anchor="end"  style="cursor:pointer;color:#909090;font-size:9px;fill:#909090;" y="395">Highcharts.com</text></svg>