<svg xmlns:xlink="http://www.w3.org/1999/xlink" version="1.1" style="font-family:'lucida grande', 'lucida sans unicode', arial, helvetica, sans-serif;font-size:12px;" xmlns="http://www.w3.org/2000/svg" width="600" height="400"><desc>Created with Highcharts 4.0.4</desc><defs><clipPath id="highcharts-467"><rect x="0" y="0" width="523" height="249"></rect></clipPath></defs><rect x="0" y="0" width="600" height="400" strokeWidth="0" fill="#FFFFFF" class=" highcharts-background"></rect><g class="highcharts-grid" ></g><g class="highcharts-grid" ><path fill="none" d="M 67 60.5 L 590 60.5" stroke="#C0C0C0" stroke-width="1"  opacity="1"></path><path fill="none" d="M 67 122.5 L 590 122.5" stroke="#C0C0C0" stroke-width="1"  opacity="1"></path><path fill="none" d="M 67 185.5 L 590 185.5" stroke="#C0C0C0" stroke-width="1"  opacity="1"></path><path fill="none" d="M 67 247.5 L 590 247.5" stroke="#C0C0C0" stroke-width="1"  opacity="1"></path><path fill="none" d="M 67 309.5 L 590 309.5" stroke="#C0C0C0" stroke-width="1"  opacity="1"></path></g><g class="highcharts-axis" ><path fill="none" d="M 238.5 309 L 238.5 319" stroke="#C0D0E0" stroke-width="1" opacity="1"></path><path fill="none" d="M 371.5 309 L 371.5 319" stroke="#C0D0E0" stroke-width="1" opacity="1"></path><path fill="none" d="M 504.5 309 L 504.5 319" stroke="#C0D0E0" stroke-width="1" opacity="1"></path><path fill="none" d="M 105.5 309 L 105.5 319" stroke="#C0D0E0" stroke-width="1" opacity="1"></path><text x="328.5"  text-anchor="middle" transform="translate(0,0)" class=" highcharts-xaxis-title" style="color:#707070;fill:#707070;" visibility="visible" y="346.5">Time</text><path fill="none" d="M 67 309.5 L 590 309.5" stroke="#C0D0E0" stroke-width="1"  visibility="visible"></path></g><g class="highcharts-axis" ><text x="23.640625"  text-anchor="middle" transform="translate(0,0) rotate(270 23.640625 184.5)" class=" highcharts-yaxis-title" style="color:#707070;fill:#707070;" visibility="visible" y="184.5"><tspan>Questions Correct</tspan></text></g><g class="highcharts-series-group" ><g class="highcharts-series" visibility="visible"  transform="translate(67,60) scale(1 1)" clip-path="url(#highcharts-467)"><path fill="none" d="M 5.127450980392157 246.51 C 5.127450980392157 246.51 10.440871685461751 245.22727272727272 13.983152155508145 244.02 C 16.285634461038303 243.23527272727276 17.43687561380338 242.45485714285715 19.739357919333536 241.53 C 22.396068271868334 240.46285714285716 23.72442344813573 240.2352 26.38113380067053 239.04 C 28.15227403569373 238.2432 29.03784415320532 237.23689655172416 30.80898438822852 236.55 C 34.17415083477259 235.24489655172417 35.85673405804464 235.11133333333333 39.22190050458871 234.06 C 42.232838904128144 233.11933333333332 43.738308103897864 232.8242222222222 46.7492465034373 231.57 C 48.5203867384605 230.8322222222222 49.4059568559721 229.8768 51.1770970909953 229.07999999999998 C 53.8338074435301 227.88479999999998 55.16216261979749 227.58599999999998 57.81887297233229 226.59 C 60.47558332486708 225.59400000000002 61.803938501134475 225.39913043478262 64.46064885366927 224.1 C 65.87756104168783 223.4071304347826 66.58601713569712 222.33436363636363 68.00292932371568 221.61 C 70.48252565274815 220.34236363636367 71.72232381726438 219.8538947368421 74.20192014629686 219.12 C 78.45265671035254 217.8618947368421 80.57802499238036 217.3228695652174 84.82876155643605 216.63 C 92.79889261404044 215.33086956521737 96.78395814284264 215.76981818181815 104.75408920044703 214.14 C 106.52522943547021 213.7778181818182 107.41079955298183 212.0830434782609 109.18193978800501 211.65 C 115.55804463408852 210.09104347826087 118.74609705713029 210.488 125.12220190321379 209.16 C 128.31025432625555 208.49599999999998 129.9042805377764 208.10424 133.09233296081817 206.67 C 134.3321311253344 206.11223999999999 134.95203020759254 205.176 136.19182837210877 204.18 C 137.43162653662503 203.184 138.05152561888312 201.8145 139.29132378339938 201.69 C 157.88829625114295 199.82250000000002 167.18678248501473 201.05097345132742 185.7837549527583 199.2 C 187.20066714077686 199.05897345132743 187.90912323478614 197.77239999999995 189.3260354228047 196.70999999999998 C 190.56583358732092 195.7804 191.18573266957907 195.29261538461537 192.4255308340953 194.22 C 193.4882149751092 193.30061538461538 194.01955704561618 192.4330588235294 195.08224118663009 191.73 C 197.03049544515562 190.4410588235294 198.00462257441836 190.23600000000002 199.9528768329439 189.24 C 201.9011310914694 188.244 202.87525822073218 187.70269565217393 204.8235124792577 186.75 C 206.9488807612855 185.7106956521739 208.01156490229943 185.39828571428572 210.13693318432726 184.26 C 211.73095939584815 183.4062857142857 212.52797250160862 182.8245882352941 214.12199871312947 181.76999999999998 C 215.53891090114803 180.83258823529408 216.24736699515734 180.1653333333333 217.66427918317586 179.28 C 219.43541941819907 178.17333333333332 220.32098953571068 177.23266666666666 222.09212977073386 176.79 C 228.29112059331504 175.24066666666667 231.39061600460565 175.88454545454542 237.58960682718683 174.3 C 239.18363303870774 173.89254545454546 239.98064614446815 172.62490909090909 241.57467235598904 171.81 C 243.87715466151923 170.6329090909091 245.02839581428424 170.21296551724137 247.33087811981443 169.32 C 250.16470249585154 168.22096551724138 251.5816146838701 167.76741176470586 254.41543905990721 166.82999999999998 C 257.603491482949 165.77541176470586 259.19751769446987 165.39458823529407 262.3855701175116 164.33999999999997 C 265.2193944935487 163.4025882352941 266.6363066815673 162.60885714285712 269.4701310576044 161.85 C 274.07509566866474 160.61685714285713 276.3775779741949 160.9785 280.9825425852552 159.35999999999999 C 282.0452267262691 158.98649999999998 282.5765687967761 157.78938461538462 283.63925293779 156.87 C 284.8790511023062 155.79738461538463 285.49895018456436 155.376 286.7387483490806 154.38 C 287.9785465135968 153.384 288.5984455958549 152.81959999999998 289.83824376037114 151.89 C 291.2551559483897 150.82759999999996 291.963612042399 150.33741176470585 293.38052423041756 149.39999999999998 C 294.97455044193845 148.34541176470586 295.77156354769886 147.96458823529412 297.36558975921974 146.91 C 298.7825019472383 145.9725882352941 299.4909580412476 145.11286956521738 300.90787022926617 144.42 C 303.56458058180095 143.1208695652174 304.89293575806835 143.22913043478258 307.54964611060313 141.93 C 308.9665582986217 141.2371304347826 309.67501439263094 140.03022222222225 311.09192658064956 139.44 C 314.4570930271936 138.03822222222226 316.13967625046564 138.46392 319.50484269700974 136.95 C 320.56752683802364 136.47192 321.09886890853056 135.31371428571427 322.1615530495445 134.45999999999998 C 323.5784652375631 133.32171428571428 324.28692133157233 133.03239999999997 325.7038335195909 131.96999999999997 C 326.9436316841071 131.04039999999998 327.56353076636526 130.47599999999997 328.8033289308815 129.48 C 330.0431270953977 128.48399999999998 330.66302617765587 128.06261538461538 331.9028243421721 126.99 C 332.965508483186 126.07061538461538 333.496850553693 124.83199999999998 334.5595346947069 124.49999999999999 C 339.8729553997765 122.83999999999999 342.5296657523113 123.30913043478262 347.8430864573809 122.00999999999999 C 350.676910833418 121.3171304347826 352.09382302143655 120.90573913043478 354.92764739747366 119.51999999999998 C 356.1674455619899 118.91373913043476 356.78734464424804 117.95959999999997 358.02714280876427 117.03 C 359.4440549967829 115.96759999999999 360.1525110907921 115.53600000000002 361.5694232788107 114.53999999999999 C 362.98633546682925 113.54400000000001 363.69479156083855 112.9353333333333 365.11170374885705 112.04999999999998 C 366.8828439838802 110.9433333333333 367.76841410139184 110.60842105263158 369.53955433641505 109.56 C 371.13358054793594 108.61642105263158 371.93059365369635 107.39014285714285 373.52461986521723 107.07 C 381.8489789698263 105.39814285714284 386.0111585221308 106.28225454545453 394.33551762673983 104.57999999999998 C 395.7524298147584 104.29025454545453 396.46088590876764 102.88679999999997 397.8777980967862 102.08999999999997 C 400.00316637881406 100.89479999999998 401.0658505198279 100.68654545454545 403.1912188018558 99.6 C 404.96235903687904 98.69454545454546 405.8479291543906 97.87615384615383 407.6190693894138 97.10999999999999 C 410.452893765451 95.88415384615382 411.8698059534695 96.00573913043475 414.7036303295066 94.61999999999998 C 415.94342849402284 94.01373913043476 416.563327576281 93.05959999999999 417.8031257407972 92.13 C 419.22003792881577 91.06759999999998 419.928494022825 90.3328695652174 421.3454062108436 89.63999999999999 C 424.0021165633783 88.34086956521737 425.33047173964576 87.57084507042251 427.98718209218055 87.14999999999998 C 437.90556740831045 85.5788450704225 442.8647600663754 86.37618461538462 452.7831453825053 84.66 C 454.3771715940262 84.38418461538461 455.1741846997867 82.66799999999999 456.76821091130756 82.16999999999999 C 461.55028954587016 80.67599999999999 463.94132886315145 81.26188235294113 468.7234074977141 79.67999999999998 C 469.9632056622304 79.26988235294115 470.5831047444884 78.06150000000002 471.8229029090047 77.19 C 473.4169291205256 76.06950000000002 474.21394222628606 75.89519999999999 475.8079684378069 74.69999999999999 C 476.8706525788208 73.90319999999997 477.4019946493278 73.1293846153846 478.4646787903417 72.20999999999998 C 479.7044769548579 71.13738461538458 480.32437603711605 70.27775999999997 481.5641742016323 69.71999999999997 C 484.75222662467405 68.28575999999997 486.346252836195 68.66423999999995 489.5343052592367 67.22999999999999 C 490.774103423753 66.67223999999997 491.394002506011 65.56023529411766 492.6338006705273 64.73999999999998 C 494.40494090555046 63.568235294117656 495.2905110230621 62.89258064516127 497.0616512580853 62.24999999999997 C 500.781045751634 60.90058064516126 502.6407429984083 60.92199999999998 506.36013749195706 59.75999999999999 C 509.0168478444919 58.929999999999986 510.34520302075924 58.41923076923077 513.0019133732941 57.26999999999998 C 514.9501676318196 56.42723076923077 517.8725490196078 54.77999999999997 517.8725490196078 54.77999999999997" stroke="#9ab2d6" stroke-width="2"  stroke-linejoin="round" stroke-linecap="round"></path></g><g class="highcharts-markers" visibility="visible"  transform="translate(67,60) scale(1 1)" clip-path="none"></g></g><text x="300" text-anchor="middle" class="highcharts-title"  style="color:#333333;font-size:18px;fill:#333333;width:536px;" y="25"><tspan>Questions Correct Over Time</tspan></text><text x="300" text-anchor="middle" class="highcharts-subtitle"  style="color:#555555;fill:#555555;width:536px;" y="46"><tspan>Pinch the chart to zoom in</tspan></text><g class="highcharts-legend"  transform="translate(256,368)"><g ><g><g class="highcharts-legend-item"  transform="translate(8,3)"><path fill="none" d="M 0 11 L 16 11" stroke="#9ab2d6" stroke-width="2"></path><path fill="#9ab2d6" d="M 8 7 C 13.328 7 13.328 15 8 15 C 2.6719999999999997 15 2.6719999999999997 7 8 7 Z"></path><text x="21" style="color:#333333;font-size:12px;font-weight:bold;cursor:pointer;fill:#333333;" text-anchor="start"  y="15">Questions</text></g></g></g></g><g class="highcharts-axis-labels highcharts-xaxis-labels" ><text x="239.05741813132852" text-anchor="middle" style="color:#606060;cursor:default;font-size:11px;fill:#606060;" y="329" opacity="1"><tspan>04:20 PM</tspan></text><text x="504.7284533848082" text-anchor="middle" style="color:#606060;cursor:default;font-size:11px;fill:#606060;" y="329" opacity="1"><tspan>04:30 PM</tspan></text><text x="106.22190050458872" text-anchor="middle" style="color:#606060;cursor:default;font-size:11px;fill:#606060;" y="329" opacity="1"><tspan>04:15 PM</tspan></text><text x="371.89293575806835" text-anchor="middle" style="color:#606060;cursor:default;font-size:11px;fill:#606060;" y="329" opacity="1"><tspan>04:25 PM</tspan></text></g><g class="highcharts-axis-labels highcharts-yaxis-labels" ><text x="52" text-anchor="end" style="width:178px;color:#606060;cursor:default;font-size:11px;fill:#606060;" y="314.75" opacity="1">0</text><text x="52" text-anchor="end" style="width:178px;color:#606060;cursor:default;font-size:11px;fill:#606060;" y="65.74999999999997" opacity="1">100</text><text x="52" text-anchor="end" style="width:178px;color:#606060;cursor:default;font-size:11px;fill:#606060;" y="252.5" opacity="1">25</text><text x="52" text-anchor="end" style="width:178px;color:#606060;cursor:default;font-size:11px;fill:#606060;" y="190.25" opacity="1">50</text><text x="52" text-anchor="end" style="width:178px;color:#606060;cursor:default;font-size:11px;fill:#606060;" y="127.99999999999997" opacity="1">75</text></g><g class="highcharts-tooltip"  style="cursor:default;padding:0;white-space:nowrap;" transform="translate(0,-9999)"><path fill="none" d="M 3 0 L 13 0 C 16 0 16 0 16 3 L 16 13 C 16 16 16 16 13 16 L 3 16 C 0 16 0 16 0 13 L 0 3 C 0 0 0 0 3 0"  stroke="black" stroke-opacity="0.049999999999999996" stroke-width="5" transform="translate(1, 1)"></path><path fill="none" d="M 3 0 L 13 0 C 16 0 16 0 16 3 L 16 13 C 16 16 16 16 13 16 L 3 16 C 0 16 0 16 0 13 L 0 3 C 0 0 0 0 3 0"  stroke="black" stroke-opacity="0.09999999999999999" stroke-width="3" transform="translate(1, 1)"></path><path fill="none" d="M 3 0 L 13 0 C 16 0 16 0 16 3 L 16 13 C 16 16 16 16 13 16 L 3 16 C 0 16 0 16 0 13 L 0 3 C 0 0 0 0 3 0"  stroke="black" stroke-opacity="0.15" stroke-width="1" transform="translate(1, 1)"></path><path fill="rgb(249, 249, 249)" fill-opacity=" .85" d="M 3 0 L 13 0 C 16 0 16 0 16 3 L 16 13 C 16 16 16 16 13 16 L 3 16 C 0 16 0 16 0 13 L 0 3 C 0 0 0 0 3 0"></path><text x="8"  style="font-size:12px;color:#333333;fill:#333333;" y="21"></text></g><text x="590" text-anchor="end"  style="cursor:pointer;color:#909090;font-size:9px;fill:#909090;" y="395">Highcharts.com</text></svg>