<svg xmlns:xlink="http://www.w3.org/1999/xlink" version="1.1" style="font-family:'lucida grande', 'lucida sans unicode', arial, helvetica, sans-serif;font-size:12px;" xmlns="http://www.w3.org/2000/svg" width="600" height="400"><desc>Created with Highcharts 4.0.4</desc><defs><clipPath id="highcharts-563"><rect x="0" y="0" width="523" height="249"></rect></clipPath></defs><rect x="0" y="0" width="600" height="400" strokeWidth="0" fill="#FFFFFF" class=" highcharts-background"></rect><g class="highcharts-grid" ></g><g class="highcharts-grid" ><path fill="none" d="M 67 60.5 L 590 60.5" stroke="#C0C0C0" stroke-width="1"  opacity="1"></path><path fill="none" d="M 67 122.5 L 590 122.5" stroke="#C0C0C0" stroke-width="1"  opacity="1"></path><path fill="none" d="M 67 185.5 L 590 185.5" stroke="#C0C0C0" stroke-width="1"  opacity="1"></path><path fill="none" d="M 67 247.5 L 590 247.5" stroke="#C0C0C0" stroke-width="1"  opacity="1"></path><path fill="none" d="M 67 309.5 L 590 309.5" stroke="#C0C0C0" stroke-width="1"  opacity="1"></path></g><g class="highcharts-axis" ><path fill="none" d="M 154.5 309 L 154.5 319" stroke="#C0D0E0" stroke-width="1" opacity="1"></path><path fill="none" d="M 214.5 309 L 214.5 319" stroke="#C0D0E0" stroke-width="1" opacity="1"></path><path fill="none" d="M 274.5 309 L 274.5 319" stroke="#C0D0E0" stroke-width="1" opacity="1"></path><path fill="none" d="M 334.5 309 L 334.5 319" stroke="#C0D0E0" stroke-width="1" opacity="1"></path><path fill="none" d="M 394.5 309 L 394.5 319" stroke="#C0D0E0" stroke-width="1" opacity="1"></path><path fill="none" d="M 453.5 309 L 453.5 319" stroke="#C0D0E0" stroke-width="1" opacity="1"></path><path fill="none" d="M 513.5 309 L 513.5 319" stroke="#C0D0E0" stroke-width="1" opacity="1"></path><path fill="none" d="M 573.5 309 L 573.5 319" stroke="#C0D0E0" stroke-width="1" opacity="1"></path><path fill="none" d="M 95.5 309 L 95.5 319" stroke="#C0D0E0" stroke-width="1" opacity="1"></path><text x="328.5"  text-anchor="middle" transform="translate(0,0)" class=" highcharts-xaxis-title" style="color:#707070;fill:#707070;" visibility="visible" y="346.34375">Time</text><path fill="none" d="M 67 309.5 L 590 309.5" stroke="#C0D0E0" stroke-width="1"  visibility="visible"></path></g><g class="highcharts-axis" ><text x="23.640625"  text-anchor="middle" transform="translate(0,0) rotate(270 23.640625 184.5)" class=" highcharts-yaxis-title" style="color:#707070;fill:#707070;" visibility="visible" y="184.5"><tspan>Questions Correct</tspan></text></g><g class="highcharts-series-group" ><g class="highcharts-series" visibility="visible"  transform="translate(67,60) scale(1 1)" clip-path="url(#highcharts-563)"><path fill="none" d="M 5.127450980392157 246.51 C 5.127450980392157 246.51 13.498799519807923 244.02 19.0796985460851 244.02 C 23.265372815792986 244.02 25.358209950646927 244.02 29.543884220354812 244.02 C 32.13501591112636 244.02 33.43058175651213 244.02 36.02171344728368 244.02 C 38.21420949332114 244.02 39.31045751633987 244.02 41.502953562377336 244.02 C 42.89817831894663 244.02 43.59579069723128 242.35023529411765 44.99101545380057 241.53 C 46.98419367747099 240.35823529411766 47.980782789306204 240.14666666666665 49.97396101297662 239.04 C 51.568503591912965 238.15466666666666 52.36577488138113 237.3468 53.96031746031746 236.55 C 56.35213132872197 235.3548 57.548038262924216 235.01616 59.93985213132873 234.06 C 62.53098382210028 233.02416 63.82654966748605 232.86479999999997 66.4176813582576 231.57 C 67.81290611482689 230.87279999999998 68.51051849311153 229.90023529411764 69.90574324968082 229.07999999999998 C 71.89892147335124 227.90823529411762 72.89551058518646 227.63842105263157 74.88868880885688 226.59 C 76.68254921016026 225.6464210526316 77.57947941081196 225.2205 79.37333981211533 224.1 C 80.76856456868464 223.22849999999997 81.46617694696927 222.3072 82.86140170353856 221.61 C 85.45253339431011 220.31520000000003 86.74809923969588 220.199 89.33923093046744 219.12 C 91.53172697650488 218.207 92.62797499952363 217.23866666666666 94.82047104556109 216.63 C 99.80341660473714 215.24666666666664 102.29488938432516 215.4859459459459 107.27783494350122 214.14 C 109.66964881190572 213.49394594594594 110.86555574610797 212.56938461538462 113.25736961451248 211.65 C 116.04781912765107 210.5773846153846 117.44304388422036 210.48800000000003 120.23349339735896 209.16 C 121.62871815392823 208.496 122.32633053221289 207.49023529411764 123.72155528878218 206.67 C 125.71473351245261 205.49823529411762 126.71132262428782 205.08545454545455 128.70450084795823 204.18 C 131.09631471636274 203.09345454545456 132.29222165056498 202.64616 134.6840355189695 201.69 C 137.27516720974103 200.65416000000002 138.57073305512682 200.32591304347824 141.16186474589836 199.2 C 143.1550429695688 198.33391304347825 144.151632081404 197.88176470588232 146.14481030507443 196.70999999999998 C 147.54003506164372 195.88976470588236 148.23764743992837 195.0915 149.63287219649766 194.22 C 151.42673259780105 193.0995 152.32366279845274 192.54490909090907 154.1175231997561 191.73 C 156.70865489052767 190.55290909090908 158.00422073591344 190.19911111111114 160.59535242668497 189.24 C 163.38580193982358 188.20711111111112 164.78102669639287 186.75 167.57147620953145 186.75 C 170.36192572267004 186.75 171.75715047923933 186.75 174.5475999923779 186.75 C 175.74350692658018 186.75 176.3414603936813 186.75 177.53736732788354 186.75 C 178.93259208445284 186.75 179.63020446273748 185.33261538461537 181.02542921930677 184.26 C 182.22133615350904 183.34061538461535 182.81928962061016 181.76999999999998 184.0151965548124 181.76999999999998 C 186.40701042321692 181.76999999999998 187.60291735741916 181.76999999999998 189.99473122582367 181.76999999999998 C 191.1906381600259 181.76999999999998 191.78859162712706 179.66554838709678 192.9844985613293 179.28 C 197.96744412050538 177.6735483870968 200.45891690009336 178.21285714285713 205.44186245926943 176.79 C 207.4350406829398 176.22085714285714 208.43162979477506 175.296 210.42480801844547 174.3 C 212.41798624211592 173.30400000000003 213.4145753539511 172.474 215.40775357762155 171.81 C 219.3941100249624 170.482 221.38728824863279 170.69379310344826 225.37364469597364 169.32 C 227.167505097277 168.70179310344827 228.06443529792872 167.95049999999998 229.8582956992321 166.82999999999998 C 231.25352045580138 165.9585 231.951132834086 165.21149999999997 233.34635759065532 164.33999999999997 C 235.1402179919587 163.2195 236.0371481926104 162.9045882352941 237.83100859391377 161.85 C 239.4255511728501 160.91258823529412 240.2228224623183 160.356 241.81736504125462 159.35999999999999 C 243.41190762019096 158.36399999999998 244.2091789096591 157.80741176470588 245.80372148859544 156.87 C 247.5975818898988 155.81541176470589 248.4945120905505 155.5005 250.2883724918539 154.38 C 251.6835972484232 153.50849999999997 252.38120962670786 152.5872 253.77643438327715 151.89 C 256.3675660740487 150.59519999999998 257.6631319194345 150.57709090909088 260.254263610206 149.39999999999998 C 262.0481240115094 148.5850909090909 262.9450542121611 147.72490909090908 264.73891461346443 146.91 C 267.33004630423596 145.73290909090906 268.62561214962176 145.71479999999997 271.2167438403933 144.42 C 272.6119685969626 143.72279999999998 273.3095809752473 142.29694736842106 274.7048057318166 141.93 C 280.8836582251949 140.3049473684211 283.973084471884 140.91028571428572 290.15193696526234 139.44 C 292.34443301129977 138.91828571428573 293.4406810343185 137.86299999999997 295.63317708035595 136.95 C 298.22430877112754 135.87099999999998 299.5198746165133 135.32319999999999 302.11100630728487 134.45999999999998 C 305.4994092875246 133.3312 307.19361077764444 133.44234782608692 310.5820137578841 131.96999999999997 C 311.77792069208635 131.45034782608693 312.3758741591875 130.3993846153846 313.57178109338975 129.48 C 314.96700584995904 128.40738461538461 315.6646182282437 127.98599999999998 317.059842984813 126.99 C 318.4550677413823 125.99399999999997 319.1526801196669 125.37150000000001 320.54790487623626 124.49999999999999 C 322.3417652775396 123.37950000000002 323.2386954781913 123.006 325.0325558794947 122.00999999999999 C 326.82641628079807 121.01399999999998 327.72334648144977 120.51599999999998 329.5172068827531 119.51999999999998 C 331.3110672840565 118.52399999999996 332.2079974847082 118.1505 334.0018578860116 117.03 C 335.39708264258087 116.15850000000002 336.0946950208655 115.36023529411763 337.4899197774348 114.53999999999999 C 339.48309800110525 113.36823529411762 340.47968711294044 112.58837837837837 342.4728653366109 112.04999999999998 C 347.854446540521 110.59637837837836 350.5452371424761 110.93907692307693 355.9268183463862 109.56 C 358.3186322147907 108.94707692307692 359.5145391489929 108.32810526315792 361.90635301739746 107.07 C 363.3015777739667 106.33610526315792 363.9991901522514 105.13775999999999 365.3944149088207 104.57999999999998 C 368.9821357114275 103.14575999999998 370.7759961127308 103.52423999999998 374.3637169153376 102.08999999999997 C 375.7589416719069 101.53223999999999 376.4565540501915 100.59599999999999 377.8517788067608 99.6 C 379.2470035633301 98.604 379.94461594161476 97.93023529411764 381.33984069818405 97.10999999999999 C 383.33301892185443 95.93823529411763 384.3296080336897 95.66842105263157 386.3227862573601 94.61999999999998 C 388.11664665866346 93.67642105263158 389.01357685931515 92.90947826086956 390.80743726061854 92.13 C 393.5978867737571 90.91747826086956 394.9931115303265 90.67288888888888 397.78356104346506 89.63999999999999 C 400.37469273423665 88.68088888888886 401.6702585796224 88.14599999999997 404.2613902703939 87.14999999999998 C 406.8525219611655 86.15399999999997 408.14808780655125 85.95479999999999 410.7392194973228 84.66 C 412.13444425389207 83.96279999999999 412.83205663217666 82.16999999999999 414.227281388746 82.16999999999999 C 417.4163665466187 82.16999999999999 419.01090912555503 82.16999999999999 422.1999942834277 82.16999999999999 C 423.39590121762996 82.16999999999999 423.993854684731 80.67599999999997 425.1897616189333 79.67999999999998 C 426.3856685531356 78.684 426.98362202023674 78.10938461538457 428.1795289544389 77.19 C 429.57475371100827 76.11738461538457 430.27236608929286 75.69600000000001 431.6675908458622 74.69999999999999 C 433.0628156024315 73.704 433.76042798071614 73.28261538461538 435.15565273728544 72.20999999999998 C 436.3515596714877 71.29061538461536 436.9495131385888 70.63938461538459 438.14542007279107 69.71999999999997 C 439.54064482936036 68.64738461538458 440.238257207645 68.22599999999998 441.6334819642143 67.22999999999999 C 443.0287067207836 66.23400000000001 443.72631909906823 65.32099999999997 445.1215438556375 64.73999999999998 C 448.50994683587726 63.32899999999997 450.2041483259971 63.78927272727271 453.5925513062368 62.24999999999997 C 454.589140418072 61.797272727272706 455.0874349739896 60.2842105263158 456.08402408582486 59.75999999999999 C 458.8744735989634 58.292210526315806 460.26969835553274 58.16961290322579 463.0601478686713 57.26999999999998 C 466.44855084891105 56.177612903225786 468.1427523390309 54.77999999999997 471.5311553192706 54.77999999999997 C 473.325015720574 54.77999999999997 474.2219459212257 54.77999999999997 476.01580632252904 54.77999999999997 C 477.2117132567313 54.77999999999997 477.8096667238324 52.954000000000015 479.0055736580347 52.28999999999999 C 481.39738752643916 50.96200000000001 482.59329446064146 49.79999999999998 484.98510832904594 49.79999999999998 C 486.5796509079822 49.79999999999998 487.3769221974504 49.79999999999998 488.97146477638677 49.79999999999998 C 490.167371710589 49.79999999999998 490.7653251776901 48.22938461538463 491.9612321118924 47.309999999999974 C 493.35645686846163 46.237384615384634 494.05406924674634 45.23011764705881 495.44929400331563 44.81999999999999 C 500.83087520722586 43.238117647058814 503.52166580918083 43.70907692307691 508.903247013091 42.329999999999984 C 511.29506088149554 41.7170769230769 512.4909678156978 41.16799999999999 514.8827816841023 39.839999999999975 C 516.0786886183045 39.175999999999995 517.8725490196078 37.349999999999994 517.8725490196078 37.349999999999994" stroke="#9ab2d6" stroke-width="2"  stroke-linejoin="round" stroke-linecap="round"></path></g><g class="highcharts-markers" visibility="visible"  transform="translate(67,60) scale(1 1)" clip-path="none"></g></g><text x="300" text-anchor="middle" class="highcharts-title"  style="color:#333333;font-size:18px;fill:#333333;width:536px;" y="25"><tspan>Questions Correct Over Time</tspan></text><text x="300" text-anchor="middle" class="highcharts-subtitle"  style="color:#555555;fill:#555555;width:536px;" y="45"><tspan>Pinch the chart to zoom in</tspan></text><g class="highcharts-legend"  transform="translate(256,368)"><g ><g><g class="highcharts-legend-item"  transform="translate(8,3)"><path fill="none" d="M 0 11 L 16 11" stroke="#9ab2d6" stroke-width="2"></path><path fill="#9ab2d6" d="M 8 7 C 13.328 7 13.328 15 8 15 C 2.6719999999999997 15 2.6719999999999997 7 8 7 Z"></path><text x="21" style="color:#333333;font-size:12px;font-weight:bold;cursor:pointer;fill:#333333;" text-anchor="start"  y="15">Questions</text></g></g></g></g><g class="highcharts-axis-labels highcharts-xaxis-labels" ><text x="95.54729510851959" text-anchor="middle" style="color:#606060;cursor:default;font-size:11px;fill:#606060;" y="329" opacity="1"><tspan>04:14 PM</tspan></text><text x="155.34264181863222" text-anchor="middle" style="color:#606060;cursor:default;font-size:11px;fill:#606060;" y="329" opacity="1"><tspan>04:16 PM</tspan></text><text x="215.13798852874484" text-anchor="middle" style="color:#606060;cursor:default;font-size:11px;fill:#606060;" y="329" opacity="1"><tspan>04:18 PM</tspan></text><text x="274.93333523885747" text-anchor="middle" style="color:#606060;cursor:default;font-size:11px;fill:#606060;" y="329" opacity="1"><tspan>04:20 PM</tspan></text><text x="334.72868194897006" text-anchor="middle" style="color:#606060;cursor:default;font-size:11px;fill:#606060;" y="329" opacity="1"><tspan>04:22 PM</tspan></text><text x="394.5240286590827" text-anchor="middle" style="color:#606060;cursor:default;font-size:11px;fill:#606060;" y="329" opacity="1"><tspan>04:24 PM</tspan></text><text x="454.3193753691953" text-anchor="middle" style="color:#606060;cursor:default;font-size:11px;fill:#606060;" y="329" opacity="1"><tspan>04:26 PM</tspan></text><text x="514.114722079308" text-anchor="middle" style="color:#606060;cursor:default;font-size:11px;fill:#606060;" y="329" opacity="1"><tspan>04:28 PM</tspan></text><text x="573.9100687894206" text-anchor="middle" style="color:#606060;cursor:default;font-size:11px;fill:#606060;" y="329" opacity="1"><tspan>04:30 PM</tspan></text></g><g class="highcharts-axis-labels highcharts-yaxis-labels" ><text x="52" text-anchor="end" style="width:178px;color:#606060;cursor:default;font-size:11px;fill:#606060;" y="314.828125" opacity="1">0</text><text x="52" text-anchor="end" style="width:178px;color:#606060;cursor:default;font-size:11px;fill:#606060;" y="65.82812499999997" opacity="1">100</text><text x="52" text-anchor="end" style="width:178px;color:#606060;cursor:default;font-size:11px;fill:#606060;" y="252.578125" opacity="1">25</text><text x="52" text-anchor="end" style="width:178px;color:#606060;cursor:default;font-size:11px;fill:#606060;" y="190.328125" opacity="1">50</text><text x="52" text-anchor="end" style="width:178px;color:#606060;cursor:default;font-size:11px;fill:#606060;" y="128.07812499999997" opacity="1">75</text></g><g class="highcharts-tooltip"  style="cursor:default;padding:0;white-space:nowrap;" transform="translate(0,-9999)"><path fill="none" d="M 3 0 L 13 0 C 16 0 16 0 16 3 L 16 13 C 16 16 16 16 13 16 L 3 16 C 0 16 0 16 0 13 L 0 3 C 0 0 0 0 3 0"  stroke="black" stroke-opacity="0.049999999999999996" stroke-width="5" transform="translate(1, 1)"></path><path fill="none" d="M 3 0 L 13 0 C 16 0 16 0 16 3 L 16 13 C 16 16 16 16 13 16 L 3 16 C 0 16 0 16 0 13 L 0 3 C 0 0 0 0 3 0"  stroke="black" stroke-opacity="0.09999999999999999" stroke-width="3" transform="translate(1, 1)"></path><path fill="none" d="M 3 0 L 13 0 C 16 0 16 0 16 3 L 16 13 C 16 16 16 16 13 16 L 3 16 C 0 16 0 16 0 13 L 0 3 C 0 0 0 0 3 0"  stroke="black" stroke-opacity="0.15" stroke-width="1" transform="translate(1, 1)"></path><path fill="rgb(249, 249, 249)" fill-opacity=" .85" d="M 3 0 L 13 0 C 16 0 16 0 16 3 L 16 13 C 16 16 16 16 13 16 L 3 16 C 0 16 0 16 0 13 L 0 3 C 0 0 0 0 3 0"></path><text x="8"  style="font-size:12px;color:#333333;fill:#333333;" y="21"></text></g><text x="590" text-anchor="end"  style="cursor:pointer;color:#909090;font-size:9px;fill:#909090;" y="395">Highcharts.com</text></svg>