<svg xmlns:xlink="http://www.w3.org/1999/xlink" version="1.1" style="font-family:'lucida grande', 'lucida sans unicode', arial, helvetica, sans-serif;font-size:12px;" xmlns="http://www.w3.org/2000/svg" width="600" height="400"><desc>Created with Highcharts 4.0.4</desc><defs><clipPath id="highcharts-41"><rect x="0" y="0" width="530" height="225"></rect></clipPath></defs><rect x="0" y="0" width="600" height="400" strokeWidth="0" fill="#FFFFFF" class=" highcharts-background"></rect><g class="highcharts-grid" ></g><g class="highcharts-grid" ><path fill="none" d="M 60 70.5 L 590 70.5" stroke="#C0C0C0" stroke-width="1"  opacity="1"></path><path fill="none" d="M 60 127.5 L 590 127.5" stroke="#C0C0C0" stroke-width="1"  opacity="1"></path><path fill="none" d="M 60 184.5 L 590 184.5" stroke="#C0C0C0" stroke-width="1"  opacity="1"></path><path fill="none" d="M 60 240.5 L 590 240.5" stroke="#C0C0C0" stroke-width="1"  opacity="1"></path><path fill="none" d="M 60 296.5 L 590 296.5" stroke="#C0C0C0" stroke-width="1"  opacity="1"></path></g><g class="highcharts-axis" ><path fill="none" d="M 171.5 296 L 171.5 306" stroke="#C0D0E0" stroke-width="1" opacity="1"></path><path fill="none" d="M 240.5 296 L 240.5 306" stroke="#C0D0E0" stroke-width="1" opacity="1"></path><path fill="none" d="M 310.5 296 L 310.5 306" stroke="#C0D0E0" stroke-width="1" opacity="1"></path><path fill="none" d="M 380.5 296 L 380.5 306" stroke="#C0D0E0" stroke-width="1" opacity="1"></path><path fill="none" d="M 449.5 296 L 449.5 306" stroke="#C0D0E0" stroke-width="1" opacity="1"></path><path fill="none" d="M 519.5 296 L 519.5 306" stroke="#C0D0E0" stroke-width="1" opacity="1"></path><path fill="none" d="M 588.5 296 L 588.5 306" stroke="#C0D0E0" stroke-width="1" opacity="1"></path><path fill="none" d="M 101.5 296 L 101.5 306" stroke="#C0D0E0" stroke-width="1" opacity="1"></path><text x="325"  text-anchor="middle" transform="translate(0,0)" class=" highcharts-xaxis-title" style="color:#707070;fill:#707070;" visibility="visible" y="338">Time</text><path fill="none" d="M 60 296.5 L 590 296.5" stroke="#C0D0E0" stroke-width="1"  visibility="visible"></path></g><g class="highcharts-axis" ><text x="27.984375"  text-anchor="middle" transform="translate(0,0) rotate(270 27.984375 183.5)" class=" highcharts-yaxis-title" style="color:#707070;fill:#707070;" visibility="visible" y="183.5"><tspan>Questions Correct</tspan></text></g><g class="highcharts-series-group" ><g class="highcharts-series" visibility="visible"  transform="translate(60,71) scale(1 1)" clip-path="url(#highcharts-41)"><path fill="none" d="M 5.196078431372549 225 C 5.196078431372549 225 38.59943977591037 225 60.86834733893557 225 C 112.82913165266106 225 138.8095238095238 193.45588235294116 190.7703081232493 168.75 C 233.45238095238096 148.45588235294116 254.79341736694678 112.5 297.47549019607845 112.5 C 345.7247899159664 112.5 369.84943977591035 112.5 418.0987394957983 112.5 C 431.0889355742297 112.5 437.58403361344534 112.5 450.5742296918767 112.5 C 480.266106442577 112.5 524.8039215686274 56.25 524.8039215686274 56.25" stroke="#9ab2d6" stroke-width="2"  stroke-linejoin="round" stroke-linecap="round"></path></g><g class="highcharts-markers" visibility="visible"  transform="translate(60,71) scale(1 1)" clip-path="none"><path fill="rgb(8, 243, 53)" d="M 524 52.25 C 529.328 52.25 529.328 60.25 524 60.25 C 518.672 60.25 518.672 52.25 524 52.25 Z"></path><path fill="rgb(245, 64, 50)" d="M 450 108.5 C 455.328 108.5 455.328 116.5 450 116.5 C 444.672 116.5 444.672 108.5 450 108.5 Z"></path><path fill="rgb(245, 64, 50)" d="M 418 108.5 C 423.328 108.5 423.328 116.5 418 116.5 C 412.672 116.5 412.672 108.5 418 108.5 Z"></path><path fill="rgb(8, 243, 53)" d="M 297 108.5 C 302.328 108.5 302.328 116.5 297 116.5 C 291.672 116.5 291.672 108.5 297 108.5 Z"></path><path fill="rgb(8, 243, 53)" d="M 190 164.75 C 195.328 164.75 195.328 172.75 190 172.75 C 184.672 172.75 184.672 164.75 190 164.75 Z"></path><path fill="rgb(245, 64, 50)" d="M 60 221 C 65.328 221 65.328 229 60 229 C 54.672 229 54.672 221 60 221 Z"></path><path fill="rgb(245, 64, 50)" d="M 5 221 C 10.328 221 10.328 229 5 229 C -0.32800000000000007 229 -0.32800000000000007 221 5 221 Z"></path></g></g><text x="300" text-anchor="middle" class="highcharts-title"  style="color:#333333;font-size:18px;fill:#333333;width:536px;" y="25"><tspan>Questions Correct Over Time</tspan></text><text x="300" text-anchor="middle" class="highcharts-subtitle"  style="color:#555555;fill:#555555;width:536px;" y="53"><tspan>Click and drag in the plot area to zoom in</tspan></text><g class="highcharts-legend"  transform="translate(255,364)"><g ><g><g class="highcharts-legend-item"  transform="translate(8,3)"><path fill="none" d="M 0 11 L 16 11" stroke="#9ab2d6" stroke-width="2"></path><path fill="#9ab2d6" d="M 8 7 C 13.328 7 13.328 15 8 15 C 2.6719999999999997 15 2.6719999999999997 7 8 7 Z"></path><text x="21" style="color:#333333;font-size:12px;font-weight:bold;cursor:pointer;fill:#333333;" text-anchor="start"  y="15">Questions</text></g></g></g></g><g class="highcharts-axis-labels highcharts-xaxis-labels" ><text x="102.31092436974791" text-anchor="middle" style="color:#606060;cursor:default;font-size:11px;fill:#606060;" y="316" opacity="1"><tspan>01:16 PM</tspan></text><text x="171.90126050420167" text-anchor="middle" style="color:#606060;cursor:default;font-size:11px;fill:#606060;" y="316" opacity="1"><tspan>01:17 PM</tspan></text><text x="241.49159663865547" text-anchor="middle" style="color:#606060;cursor:default;font-size:11px;fill:#606060;" y="316" opacity="1"><tspan>01:17 PM</tspan></text><text x="311.0819327731092" text-anchor="middle" style="color:#606060;cursor:default;font-size:11px;fill:#606060;" y="316" opacity="1"><tspan>01:17 PM</tspan></text><text x="380.672268907563" text-anchor="middle" style="color:#606060;cursor:default;font-size:11px;fill:#606060;" y="316" opacity="1"><tspan>01:17 PM</tspan></text><text x="450.2626050420168" text-anchor="middle" style="color:#606060;cursor:default;font-size:11px;fill:#606060;" y="316" opacity="1"><tspan>01:18 PM</tspan></text><text x="519.8529411764706" text-anchor="middle" style="color:#606060;cursor:default;font-size:11px;fill:#606060;" y="316" opacity="1"><tspan>01:18 PM</tspan></text><text x="574.828125" text-anchor="middle" style="color:#606060;cursor:default;font-size:11px;fill:#606060;" y="316" opacity="1"><tspan>01:18 PM</tspan></text></g><g class="highcharts-axis-labels highcharts-yaxis-labels" ><text x="45" text-anchor="end" style="width:178px;color:#606060;cursor:default;font-size:11px;fill:#606060;" y="299.5" opacity="1">0</text><text x="45" text-anchor="end" style="width:178px;color:#606060;cursor:default;font-size:11px;fill:#606060;" y="243.25" opacity="1">1</text><text x="45" text-anchor="end" style="width:178px;color:#606060;cursor:default;font-size:11px;fill:#606060;" y="187" opacity="1">2</text><text x="45" text-anchor="end" style="width:178px;color:#606060;cursor:default;font-size:11px;fill:#606060;" y="130.75" opacity="1">3</text><text x="45" text-anchor="end" style="width:178px;color:#606060;cursor:default;font-size:11px;fill:#606060;" y="74.5" opacity="1">4</text></g><g class="highcharts-tooltip"  style="cursor:default;padding:0;white-space:nowrap;" transform="translate(0,-9999)"><path fill="none" d="M 3 0 L 13 0 C 16 0 16 0 16 3 L 16 13 C 16 16 16 16 13 16 L 3 16 C 0 16 0 16 0 13 L 0 3 C 0 0 0 0 3 0"  stroke="black" stroke-opacity="0.049999999999999996" stroke-width="5" transform="translate(1, 1)"></path><path fill="none" d="M 3 0 L 13 0 C 16 0 16 0 16 3 L 16 13 C 16 16 16 16 13 16 L 3 16 C 0 16 0 16 0 13 L 0 3 C 0 0 0 0 3 0"  stroke="black" stroke-opacity="0.09999999999999999" stroke-width="3" transform="translate(1, 1)"></path><path fill="none" d="M 3 0 L 13 0 C 16 0 16 0 16 3 L 16 13 C 16 16 16 16 13 16 L 3 16 C 0 16 0 16 0 13 L 0 3 C 0 0 0 0 3 0"  stroke="black" stroke-opacity="0.15" stroke-width="1" transform="translate(1, 1)"></path><path fill="rgb(249, 249, 249)" fill-opacity=" .85" d="M 3 0 L 13 0 C 16 0 16 0 16 3 L 16 13 C 16 16 16 16 13 16 L 3 16 C 0 16 0 16 0 13 L 0 3 C 0 0 0 0 3 0"></path><text x="8"  style="font-size:12px;color:#333333;fill:#333333;" y="21"></text></g><text x="590" text-anchor="end"  style="cursor:pointer;color:#909090;font-size:9px;fill:#909090;" y="395">Highcharts.com</text></svg>