<svg xmlns:xlink="http://www.w3.org/1999/xlink" version="1.1" style="font-family:'lucida grande', 'lucida sans unicode', arial, helvetica, sans-serif;font-size:12px;" xmlns="http://www.w3.org/2000/svg" width="600" height="400"><desc>Created with Highcharts 4.0.4</desc><defs><clipPath id="highcharts-335"><rect x="0" y="0" width="529" height="249"></rect></clipPath></defs><rect x="0" y="0" width="600" height="400" strokeWidth="0" fill="#FFFFFF" class=" highcharts-background"></rect><g class="highcharts-grid" ></g><g class="highcharts-grid" ><path fill="none" d="M 61 60.5 L 590 60.5" stroke="#C0C0C0" stroke-width="1"  opacity="1"></path><path fill="none" d="M 61 143.5 L 590 143.5" stroke="#C0C0C0" stroke-width="1"  opacity="1"></path><path fill="none" d="M 61 226.5 L 590 226.5" stroke="#C0C0C0" stroke-width="1"  opacity="1"></path><path fill="none" d="M 61 309.5 L 590 309.5" stroke="#C0C0C0" stroke-width="1"  opacity="1"></path></g><g class="highcharts-axis" ><path fill="none" d="M 170.5 309 L 170.5 319" stroke="#C0D0E0" stroke-width="1" opacity="1"></path><path fill="none" d="M 237.5 309 L 237.5 319" stroke="#C0D0E0" stroke-width="1" opacity="1"></path><path fill="none" d="M 303.5 309 L 303.5 319" stroke="#C0D0E0" stroke-width="1" opacity="1"></path><path fill="none" d="M 370.5 309 L 370.5 319" stroke="#C0D0E0" stroke-width="1" opacity="1"></path><path fill="none" d="M 437.5 309 L 437.5 319" stroke="#C0D0E0" stroke-width="1" opacity="1"></path><path fill="none" d="M 503.5 309 L 503.5 319" stroke="#C0D0E0" stroke-width="1" opacity="1"></path><path fill="none" d="M 570.5 309 L 570.5 319" stroke="#C0D0E0" stroke-width="1" opacity="1"></path><path fill="none" d="M 103.5 309 L 103.5 319" stroke="#C0D0E0" stroke-width="1" opacity="1"></path><text x="325.5"  text-anchor="middle" transform="translate(0,0)" class=" highcharts-xaxis-title" style="color:#707070;fill:#707070;" visibility="visible" y="346.34375">Time</text><path fill="none" d="M 61 309.5 L 590 309.5" stroke="#C0D0E0" stroke-width="1"  visibility="visible"></path></g><g class="highcharts-axis" ><text x="23.75"  text-anchor="middle" transform="translate(0,0) rotate(270 23.75 184.5)" class=" highcharts-yaxis-title" style="color:#707070;fill:#707070;" visibility="visible" y="184.5"><tspan>Questions Correct</tspan></text></g><g class="highcharts-series-group" ><g class="highcharts-series" visibility="visible"  transform="translate(61,60) scale(1 1)" clip-path="url(#highcharts-335)"><path fill="none" d="M 5.186274509803922 244.85 C 5.186274509803922 244.85 5.9865569030869965 241.30363636363634 6.520078498609045 240.7 C 8.920925678458268 237.98363636363632 10.121349268382879 239.26636363636368 12.522196448232101 236.55 C 13.05571804375415 235.94636363636366 13.322478841515174 233.93230769230772 13.856000437037224 232.4 C 14.478442298479616 230.6123076923077 14.789663229200812 230.18666666666667 15.412105090643202 228.25 C 15.85670642024491 226.86666666666667 16.079007085045767 225.37692307692308 16.523608414647473 224.1 C 17.234970542010206 222.05692307692306 17.59065160569157 221.99307692307693 18.302013733054302 219.95 C 18.746615062656012 218.6730769230769 18.968915727456867 217.30909090909094 19.413517057058574 215.8 C 19.947038652580623 213.98909090909092 20.213799450341646 213.18230769230772 20.747321045863696 211.65 C 21.369762907306086 209.8623076923077 21.68098383802728 209.2876923076923 22.303425699469674 207.5 C 22.836947294991724 205.96769230769232 23.103708092752747 205.1609090909091 23.637229688274797 203.35 C 24.081831017876503 201.8409090909091 24.304131682677358 200.7090909090909 24.748733012279068 199.2 C 25.282254607801114 197.3890909090909 25.54901540556214 196.71 26.08253700108419 195.05 C 26.61605859660624 193.39000000000001 26.882819394367267 192.43230769230766 27.416340989889314 190.89999999999998 C 28.038782851331707 189.11230769230764 28.350003782052898 188.5376923076923 28.97244564349529 186.75 C 29.505967239017345 185.21769230769232 29.772728036778364 184.4109090909091 30.306249632300414 182.6 C 30.75085096190212 181.0909090909091 30.973151626702975 179.9590909090909 31.417752956304685 178.45 C 31.951274551826735 176.6390909090909 32.21803534958776 175.96 32.751556945109805 174.3 C 33.28507854063186 172.64000000000001 33.55183933839288 171.96090909090907 34.085360933914934 170.14999999999998 C 34.529962263516644 168.64090909090905 34.7522629283175 167.5090909090909 35.1968642579192 166 C 35.73038585344125 164.1890909090909 35.99714665120227 163.6609090909091 36.530668246724325 161.85 C 36.97526957632603 160.3409090909091 37.19757024112688 159.2090909090909 37.64217157072859 157.7 C 38.17569316625064 155.88909090909092 38.44245396401167 155.20999999999998 38.975975559533715 153.55 C 39.50949715505577 151.89000000000001 39.776257952816785 149.39999999999998 40.30977954833884 149.39999999999998 C 41.2879024734626 149.39999999999998 41.77696393602447 149.39999999999998 42.755086861148236 149.39999999999998 C 43.28860845667028 149.39999999999998 43.55536925443131 147.24200000000002 44.08889084995336 145.25 C 44.44457191363472 143.92200000000003 44.622412445475405 142.428 44.97809350915677 141.1 C 45.511615104678825 139.108 45.77837590243985 138.60999999999999 46.311897497961894 136.95 C 46.84541909348394 135.29 47.11217989124496 134.45999999999998 47.64570148676702 132.79999999999998 C 48.17922308228907 131.14 48.44598388005009 130.31 48.97950547557215 128.64999999999998 C 49.51302707109419 126.98999999999998 49.77978786885522 126.15999999999998 50.31330946437727 124.49999999999999 C 50.846831059899316 122.83999999999997 51.113591857660346 121.88230769230768 51.64711345318239 120.35 C 52.26955531462479 118.56230769230767 52.58077624534597 118.13666666666666 53.20321810678837 116.19999999999999 C 53.64781943639008 114.81666666666666 53.87012010119092 113.71000000000001 54.31472143079264 112.04999999999998 C 54.75932276039434 110.39 54.981623425195195 108.41874999999997 55.426224754796905 107.89999999999998 C 57.82707193464612 105.09874999999997 59.02749552457074 106.38647058823528 61.42834270441996 103.75 C 62.05078456586235 103.06647058823529 62.36200549658355 101.53666666666668 62.98444735802594 99.6 C 63.42904868762764 98.21666666666667 63.6513493524285 97.10999999999999 64.0959506820302 95.44999999999999 C 64.54055201163192 93.78999999999999 64.76285267643277 92.96 65.20745400603448 91.29999999999998 C 65.65205533563619 89.63999999999999 65.87435600043703 88.33571428571427 66.31895733003874 87.14999999999998 C 67.11923972332181 85.01571428571428 67.51938091996335 84.75764705882354 68.31966331324644 83 C 69.03102544060917 81.43764705882354 69.38670650429053 80.74714285714283 70.09806863165326 78.85 C 70.63159022717532 77.42714285714283 70.89835102493635 76.23230769230769 71.43187262045839 74.69999999999999 C 72.05431448190078 72.91230769230769 72.36553541262198 71.65666666666664 72.98797727406436 70.54999999999998 C 74.23286099694914 68.33666666666663 74.85530285839154 68.72399999999998 76.10018658127632 66.39999999999998 C 76.63370817679836 65.40399999999998 76.9004689745594 63.57799999999996 77.43399057008145 62.24999999999997 C 78.23427296336452 60.25799999999998 78.63441416000606 60.234285714285704 79.43469655328913 58.099999999999994 C 79.87929788289084 56.9142857142857 80.1015985476917 55.61000000000002 80.5461998772934 53.94999999999999 C 80.9908012068951 52.29000000000001 81.21310187169595 51.45999999999999 81.65770320129766 49.79999999999998 C 82.10230453089937 48.13999999999997 82.32460519570023 47.1590909090909 82.76920652530194 45.64999999999998 C 83.30272812082399 43.83909090909089 83.56948891858501 43.15999999999999 84.10301051410707 41.49999999999997 C 84.63653210962912 39.839999999999996 84.90329290739014 38.88230769230767 85.43681450291218 37.349999999999994 C 86.05925636435458 35.56230769230768 86.37047729507579 35.31272727272727 86.99291915651817 33.19999999999999 C 87.34860022019953 31.99272727272726 87.5264407520402 30.156666666666666 87.88212181572158 29.049999999999983 C 88.59348394308431 26.83666666666666 88.94916500676568 24.91354411014786 89.66052713412842 24.899999999999977 C 263.3218064765555 21.593544110147853 523.8137254901961 20.74999999999997 523.8137254901961 20.74999999999997" stroke="#9ab2d6" stroke-width="2"  stroke-linejoin="round" stroke-linecap="round"></path></g><g class="highcharts-markers" visibility="visible"  transform="translate(61,60) scale(1 1)" clip-path="none"><path fill="rgb(8, 243, 53)" d="M 523 16.74999999999997 C 528.328 16.74999999999997 528.328 24.74999999999997 523 24.74999999999997 C 517.672 24.74999999999997 517.672 16.74999999999997 523 16.74999999999997 Z"></path><path fill="rgb(8, 243, 53)" d="M 89 20.899999999999977 C 94.328 20.899999999999977 94.328 28.899999999999977 89 28.899999999999977 C 83.672 28.899999999999977 83.672 20.899999999999977 89 20.899999999999977 Z"></path><path fill="rgb(8, 243, 53)" d="M 87 25.049999999999983 C 92.328 25.049999999999983 92.328 33.04999999999998 87 33.04999999999998 C 81.672 33.04999999999998 81.672 25.049999999999983 87 25.049999999999983 Z"></path><path fill="rgb(8, 243, 53)" d="M 86 29.19999999999999 C 91.328 29.19999999999999 91.328 37.19999999999999 86 37.19999999999999 C 80.672 37.19999999999999 80.672 29.19999999999999 86 29.19999999999999 Z"></path><path fill="rgb(8, 243, 53)" d="M 85 33.349999999999994 C 90.328 33.349999999999994 90.328 41.349999999999994 85 41.349999999999994 C 79.672 41.349999999999994 79.672 33.349999999999994 85 33.349999999999994 Z"></path><path fill="rgb(8, 243, 53)" d="M 84 37.49999999999997 C 89.328 37.49999999999997 89.328 45.49999999999997 84 45.49999999999997 C 78.672 45.49999999999997 78.672 37.49999999999997 84 37.49999999999997 Z"></path><path fill="rgb(8, 243, 53)" d="M 82 41.64999999999998 C 87.328 41.64999999999998 87.328 49.64999999999998 82 49.64999999999998 C 76.672 49.64999999999998 76.672 41.64999999999998 82 41.64999999999998 Z"></path><path fill="rgb(8, 243, 53)" d="M 81 45.79999999999998 C 86.328 45.79999999999998 86.328 53.79999999999998 81 53.79999999999998 C 75.672 53.79999999999998 75.672 45.79999999999998 81 45.79999999999998 Z"></path><path fill="rgb(8, 243, 53)" d="M 80 49.94999999999999 C 85.328 49.94999999999999 85.328 57.94999999999999 80 57.94999999999999 C 74.672 57.94999999999999 74.672 49.94999999999999 80 49.94999999999999 Z"></path><path fill="rgb(8, 243, 53)" d="M 79 54.099999999999994 C 84.328 54.099999999999994 84.328 62.099999999999994 79 62.099999999999994 C 73.672 62.099999999999994 73.672 54.099999999999994 79 54.099999999999994 Z"></path><path fill="rgb(8, 243, 53)" d="M 77 58.24999999999997 C 82.328 58.24999999999997 82.328 66.24999999999997 77 66.24999999999997 C 71.672 66.24999999999997 71.672 58.24999999999997 77 58.24999999999997 Z"></path><path fill="rgb(8, 243, 53)" d="M 76 62.39999999999998 C 81.328 62.39999999999998 81.328 70.39999999999998 76 70.39999999999998 C 70.672 70.39999999999998 70.672 62.39999999999998 76 62.39999999999998 Z"></path><path fill="rgb(8, 243, 53)" d="M 72 66.54999999999998 C 77.328 66.54999999999998 77.328 74.54999999999998 72 74.54999999999998 C 66.672 74.54999999999998 66.672 66.54999999999998 72 66.54999999999998 Z"></path><path fill="rgb(8, 243, 53)" d="M 71 70.69999999999999 C 76.328 70.69999999999999 76.328 78.69999999999999 71 78.69999999999999 C 65.672 78.69999999999999 65.672 70.69999999999999 71 70.69999999999999 Z"></path><path fill="rgb(8, 243, 53)" d="M 70 74.85 C 75.328 74.85 75.328 82.85 70 82.85 C 64.672 82.85 64.672 74.85 70 74.85 Z"></path><path fill="rgb(8, 243, 53)" d="M 68 79 C 73.328 79 73.328 87 68 87 C 62.672 87 62.672 79 68 79 Z"></path><path fill="rgb(8, 243, 53)" d="M 66 83.14999999999998 C 71.328 83.14999999999998 71.328 91.14999999999998 66 91.14999999999998 C 60.672 91.14999999999998 60.672 83.14999999999998 66 83.14999999999998 Z"></path><path fill="rgb(8, 243, 53)" d="M 65 87.29999999999998 C 70.328 87.29999999999998 70.328 95.29999999999998 65 95.29999999999998 C 59.672 95.29999999999998 59.672 87.29999999999998 65 87.29999999999998 Z"></path><path fill="rgb(8, 243, 53)" d="M 64 91.44999999999999 C 69.328 91.44999999999999 69.328 99.44999999999999 64 99.44999999999999 C 58.672 99.44999999999999 58.672 91.44999999999999 64 91.44999999999999 Z"></path><path fill="rgb(8, 243, 53)" d="M 62 95.6 C 67.328 95.6 67.328 103.6 62 103.6 C 56.672 103.6 56.672 95.6 62 95.6 Z"></path><path fill="rgb(8, 243, 53)" d="M 61 99.75 C 66.328 99.75 66.328 107.75 61 107.75 C 55.672 107.75 55.672 99.75 61 99.75 Z"></path><path fill="rgb(8, 243, 53)" d="M 55 103.89999999999998 C 60.328 103.89999999999998 60.328 111.89999999999998 55 111.89999999999998 C 49.672 111.89999999999998 49.672 103.89999999999998 55 103.89999999999998 Z"></path><path fill="rgb(8, 243, 53)" d="M 54 108.04999999999998 C 59.328 108.04999999999998 59.328 116.04999999999998 54 116.04999999999998 C 48.672 116.04999999999998 48.672 108.04999999999998 54 108.04999999999998 Z"></path><path fill="rgb(8, 243, 53)" d="M 53 112.19999999999999 C 58.328 112.19999999999999 58.328 120.19999999999999 53 120.19999999999999 C 47.672 120.19999999999999 47.672 112.19999999999999 53 112.19999999999999 Z"></path><path fill="rgb(8, 243, 53)" d="M 51 116.35 C 56.328 116.35 56.328 124.35 51 124.35 C 45.672 124.35 45.672 116.35 51 116.35 Z"></path><path fill="rgb(8, 243, 53)" d="M 50 120.49999999999999 C 55.328 120.49999999999999 55.328 128.5 50 128.5 C 44.672 128.5 44.672 120.49999999999999 50 120.49999999999999 Z"></path><path fill="rgb(8, 243, 53)" d="M 48 124.64999999999998 C 53.328 124.64999999999998 53.328 132.64999999999998 48 132.64999999999998 C 42.672 132.64999999999998 42.672 124.64999999999998 48 124.64999999999998 Z"></path><path fill="rgb(8, 243, 53)" d="M 47 128.79999999999998 C 52.328 128.79999999999998 52.328 136.79999999999998 47 136.79999999999998 C 41.672 136.79999999999998 41.672 128.79999999999998 47 128.79999999999998 Z"></path><path fill="rgb(8, 243, 53)" d="M 46 132.95 C 51.328 132.95 51.328 140.95 46 140.95 C 40.672 140.95 40.672 132.95 46 132.95 Z"></path><path fill="rgb(8, 243, 53)" d="M 44 137.1 C 49.328 137.1 49.328 145.1 44 145.1 C 38.672 145.1 38.672 137.1 44 137.1 Z"></path><path fill="rgb(8, 243, 53)" d="M 44 141.25 C 49.328 141.25 49.328 149.25 44 149.25 C 38.672 149.25 38.672 141.25 44 141.25 Z"></path><path fill="rgb(245, 64, 50)" d="M 42 145.39999999999998 C 47.328 145.39999999999998 47.328 153.39999999999998 42 153.39999999999998 C 36.672 153.39999999999998 36.672 145.39999999999998 42 145.39999999999998 Z"></path><path fill="rgb(8, 243, 53)" d="M 40 145.39999999999998 C 45.328 145.39999999999998 45.328 153.39999999999998 40 153.39999999999998 C 34.672 153.39999999999998 34.672 145.39999999999998 40 145.39999999999998 Z"></path><path fill="rgb(8, 243, 53)" d="M 38 149.55 C 43.328 149.55 43.328 157.55 38 157.55 C 32.672 157.55 32.672 149.55 38 149.55 Z"></path><path fill="rgb(8, 243, 53)" d="M 37 153.7 C 42.328 153.7 42.328 161.7 37 161.7 C 31.672 161.7 31.672 153.7 37 153.7 Z"></path><path fill="rgb(8, 243, 53)" d="M 36 157.85 C 41.328 157.85 41.328 165.85 36 165.85 C 30.672 165.85 30.672 157.85 36 157.85 Z"></path><path fill="rgb(8, 243, 53)" d="M 35 162 C 40.328 162 40.328 170 35 170 C 29.672 170 29.672 162 35 162 Z"></path><path fill="rgb(8, 243, 53)" d="M 34 166.14999999999998 C 39.328 166.14999999999998 39.328 174.14999999999998 34 174.14999999999998 C 28.672 174.14999999999998 28.672 166.14999999999998 34 166.14999999999998 Z"></path><path fill="rgb(8, 243, 53)" d="M 32 170.3 C 37.328 170.3 37.328 178.3 32 178.3 C 26.672 178.3 26.672 170.3 32 170.3 Z"></path><path fill="rgb(8, 243, 53)" d="M 31 174.45 C 36.328 174.45 36.328 182.45 31 182.45 C 25.672 182.45 25.672 174.45 31 174.45 Z"></path><path fill="rgb(8, 243, 53)" d="M 30 178.6 C 35.328 178.6 35.328 186.6 30 186.6 C 24.672 186.6 24.672 178.6 30 178.6 Z"></path><path fill="rgb(8, 243, 53)" d="M 28 182.75 C 33.328 182.75 33.328 190.75 28 190.75 C 22.672 190.75 22.672 182.75 28 182.75 Z"></path><path fill="rgb(8, 243, 53)" d="M 27 186.89999999999998 C 32.328 186.89999999999998 32.328 194.89999999999998 27 194.89999999999998 C 21.672 194.89999999999998 21.672 186.89999999999998 27 186.89999999999998 Z"></path><path fill="rgb(8, 243, 53)" d="M 26 191.05 C 31.328 191.05 31.328 199.05 26 199.05 C 20.672 199.05 20.672 191.05 26 191.05 Z"></path><path fill="rgb(8, 243, 53)" d="M 24 195.2 C 29.328 195.2 29.328 203.2 24 203.2 C 18.672 203.2 18.672 195.2 24 195.2 Z"></path><path fill="rgb(8, 243, 53)" d="M 23 199.35 C 28.328 199.35 28.328 207.35 23 207.35 C 17.672 207.35 17.672 199.35 23 199.35 Z"></path><path fill="rgb(8, 243, 53)" d="M 22 203.5 C 27.328 203.5 27.328 211.5 22 211.5 C 16.672 211.5 16.672 203.5 22 203.5 Z"></path><path fill="rgb(8, 243, 53)" d="M 20 207.65 C 25.328 207.65 25.328 215.65 20 215.65 C 14.672 215.65 14.672 207.65 20 207.65 Z"></path><path fill="rgb(8, 243, 53)" d="M 19 211.8 C 24.328 211.8 24.328 219.8 19 219.8 C 13.672 219.8 13.672 211.8 19 211.8 Z"></path><path fill="rgb(8, 243, 53)" d="M 18 215.95 C 23.328 215.95 23.328 223.95 18 223.95 C 12.672 223.95 12.672 215.95 18 215.95 Z"></path><path fill="rgb(8, 243, 53)" d="M 16 220.1 C 21.328 220.1 21.328 228.1 16 228.1 C 10.672 228.1 10.672 220.1 16 220.1 Z"></path><path fill="rgb(8, 243, 53)" d="M 15 224.25 C 20.328 224.25 20.328 232.25 15 232.25 C 9.672 232.25 9.672 224.25 15 224.25 Z"></path><path fill="rgb(8, 243, 53)" d="M 13 228.4 C 18.328 228.4 18.328 236.4 13 236.4 C 7.672 236.4 7.672 228.4 13 228.4 Z"></path><path fill="rgb(8, 243, 53)" d="M 12 232.55 C 17.328 232.55 17.328 240.55 12 240.55 C 6.672 240.55 6.672 232.55 12 232.55 Z"></path><path fill="rgb(8, 243, 53)" d="M 6 236.7 C 11.328 236.7 11.328 244.7 6 244.7 C 0.6719999999999999 244.7 0.6719999999999999 236.7 6 236.7 Z"></path><path fill="rgb(8, 243, 53)" d="M 5 240.85 C 10.328 240.85 10.328 248.85 5 248.85 C -0.32800000000000007 248.85 -0.32800000000000007 240.85 5 240.85 Z"></path></g></g><text x="300" text-anchor="middle" class="highcharts-title"  style="color:#333333;font-size:18px;fill:#333333;width:536px;" y="25"><tspan>Questions Correct Over Time</tspan></text><text x="300" text-anchor="middle" class="highcharts-subtitle"  style="color:#555555;fill:#555555;width:536px;" y="45"><tspan>Pinch the chart to zoom in</tspan></text><g class="highcharts-legend"  transform="translate(256,368)"><g ><g><g class="highcharts-legend-item"  transform="translate(8,3)"><path fill="none" d="M 0 11 L 16 11" stroke="#9ab2d6" stroke-width="2"></path><path fill="#9ab2d6" d="M 8 7 C 13.328 7 13.328 15 8 15 C 2.6719999999999997 15 2.6719999999999997 7 8 7 Z"></path><text x="21" style="color:#333333;font-size:12px;font-weight:bold;cursor:pointer;fill:#333333;" text-anchor="start"  y="15">Questions</text></g></g></g></g><g class="highcharts-axis-labels highcharts-xaxis-labels" ><text x="104.19968819074994" text-anchor="middle" style="color:#606060;cursor:default;font-size:11px;fill:#606060;" y="329" opacity="1"><tspan>12:30 AM</tspan></text><text x="170.8898876310061" text-anchor="middle" style="color:#606060;cursor:default;font-size:11px;fill:#606060;" y="329" opacity="1"><tspan>12:35 AM</tspan></text><text x="237.58008707126228" text-anchor="middle" style="color:#606060;cursor:default;font-size:11px;fill:#606060;" y="329" opacity="1"><tspan>12:40 AM</tspan></text><text x="304.27028651151846" text-anchor="middle" style="color:#606060;cursor:default;font-size:11px;fill:#606060;" y="329" opacity="1"><tspan>12:45 AM</tspan></text><text x="370.9604859517746" text-anchor="middle" style="color:#606060;cursor:default;font-size:11px;fill:#606060;" y="329" opacity="1"><tspan>12:50 AM</tspan></text><text x="437.6506853920308" text-anchor="middle" style="color:#606060;cursor:default;font-size:11px;fill:#606060;" y="329" opacity="1"><tspan>12:55 AM</tspan></text><text x="504.340884832287" text-anchor="middle" style="color:#606060;cursor:default;font-size:11px;fill:#606060;" y="329" opacity="1"><tspan>01:00 AM</tspan></text><text x="571.0310842725432" text-anchor="middle" style="color:#606060;cursor:default;font-size:11px;fill:#606060;" y="329" opacity="1"><tspan>01:05 AM</tspan></text></g><g class="highcharts-axis-labels highcharts-yaxis-labels" ><text x="46" text-anchor="end" style="width:178px;color:#606060;cursor:default;font-size:11px;fill:#606060;" y="314.828125" opacity="1">0</text><text x="46" text-anchor="end" style="width:178px;color:#606060;cursor:default;font-size:11px;fill:#606060;" y="231.828125" opacity="1">20</text><text x="46" text-anchor="end" style="width:178px;color:#606060;cursor:default;font-size:11px;fill:#606060;" y="148.828125" opacity="1">40</text><text x="46" text-anchor="end" style="width:178px;color:#606060;cursor:default;font-size:11px;fill:#606060;" y="65.82812499999997" opacity="1">60</text></g><g class="highcharts-tooltip"  style="cursor:default;padding:0;white-space:nowrap;" transform="translate(0,-9999)"><path fill="none" d="M 3 0 L 13 0 C 16 0 16 0 16 3 L 16 13 C 16 16 16 16 13 16 L 3 16 C 0 16 0 16 0 13 L 0 3 C 0 0 0 0 3 0"  stroke="black" stroke-opacity="0.049999999999999996" stroke-width="5" transform="translate(1, 1)"></path><path fill="none" d="M 3 0 L 13 0 C 16 0 16 0 16 3 L 16 13 C 16 16 16 16 13 16 L 3 16 C 0 16 0 16 0 13 L 0 3 C 0 0 0 0 3 0"  stroke="black" stroke-opacity="0.09999999999999999" stroke-width="3" transform="translate(1, 1)"></path><path fill="none" d="M 3 0 L 13 0 C 16 0 16 0 16 3 L 16 13 C 16 16 16 16 13 16 L 3 16 C 0 16 0 16 0 13 L 0 3 C 0 0 0 0 3 0"  stroke="black" stroke-opacity="0.15" stroke-width="1" transform="translate(1, 1)"></path><path fill="rgb(249, 249, 249)" fill-opacity=" .85" d="M 3 0 L 13 0 C 16 0 16 0 16 3 L 16 13 C 16 16 16 16 13 16 L 3 16 C 0 16 0 16 0 13 L 0 3 C 0 0 0 0 3 0"></path><text x="8"  style="font-size:12px;color:#333333;fill:#333333;" y="21"></text></g><text x="590" text-anchor="end"  style="cursor:pointer;color:#909090;font-size:9px;fill:#909090;" y="395">Highcharts.com</text></svg>