<svg xmlns:xlink="http://www.w3.org/1999/xlink" version="1.1" style="font-family:'lucida grande', 'lucida sans unicode', arial, helvetica, sans-serif;font-size:12px;" xmlns="http://www.w3.org/2000/svg" width="600" height="400"><desc>Created with Highcharts 4.0.4</desc><defs><clipPath id="highcharts-5"><rect x="0" y="0" width="516" height="225"></rect></clipPath></defs><rect x="0" y="0" width="600" height="400" strokeWidth="0" fill="#FFFFFF" class=" highcharts-background"></rect><g class="highcharts-grid" ></g><g class="highcharts-grid" ><path fill="none" d="M 74 70.5 L 590 70.5" stroke="#C0C0C0" stroke-width="1"  opacity="1"></path><path fill="none" d="M 74 127.5 L 590 127.5" stroke="#C0C0C0" stroke-width="1"  opacity="1"></path><path fill="none" d="M 74 184.5 L 590 184.5" stroke="#C0C0C0" stroke-width="1"  opacity="1"></path><path fill="none" d="M 74 240.5 L 590 240.5" stroke="#C0C0C0" stroke-width="1"  opacity="1"></path><path fill="none" d="M 74 296.5 L 590 296.5" stroke="#C0C0C0" stroke-width="1"  opacity="1"></path></g><g class="highcharts-axis" ><path fill="none" d="M 186.5 296 L 186.5 306" stroke="#C0D0E0" stroke-width="1" opacity="1"></path><path fill="none" d="M 296.5 296 L 296.5 306" stroke="#C0D0E0" stroke-width="1" opacity="1"></path><path fill="none" d="M 406.5 296 L 406.5 306" stroke="#C0D0E0" stroke-width="1" opacity="1"></path><path fill="none" d="M 515.5 296 L 515.5 306" stroke="#C0D0E0" stroke-width="1" opacity="1"></path><path fill="none" d="M 76.5 296 L 76.5 306" stroke="#C0D0E0" stroke-width="1" opacity="1"></path><text x="332"  text-anchor="middle" transform="translate(0,0)" class=" highcharts-xaxis-title" style="color:#707070;fill:#707070;" visibility="visible" y="338">Time</text><path fill="none" d="M 74 296.5 L 590 296.5" stroke="#C0D0E0" stroke-width="1"  visibility="visible"></path></g><g class="highcharts-axis" ><text x="28.09375"  text-anchor="middle" transform="translate(0,0) rotate(270 28.09375 183.5)" class=" highcharts-yaxis-title" style="color:#707070;fill:#707070;" visibility="visible" y="183.5"><tspan>Questions Correct</tspan></text></g><g class="highcharts-series-group" ><g class="highcharts-series" visibility="visible"  transform="translate(74,71) scale(1 1)" clip-path="url(#highcharts-5)"><path fill="none" d="M 5.058823529411765 222.75 C 5.058823529411765 222.75 6.190882912522362 222.2503937007874 6.945589167929426 220.5 C 6.9669776043174805 220.4503937007874 6.977671822511508 219.15 6.999060258899562 218.25 C 7.020448695287617 217.35 7.031142913481643 216.96923076923073 7.052531349869698 216 C 7.070864295345174 215.16923076923072 7.080030768082912 214.38529411764705 7.098363713558387 213.75 C 7.131974113596757 212.58529411764704 7.148779313615944 211.896 7.182389713654314 211.5 C 7.301553859244903 210.09599999999998 7.361135932040197 210.81 7.480300077630787 209.25 C 7.498633023106263 209.01 7.507799495844 207.9818181818182 7.526132441319475 207 C 7.54140989588237 206.1818181818182 7.549048623163818 205.56818181818187 7.564326077726715 204.75 C 7.58265902320219 203.76818181818186 7.591825495939927 203.4 7.610158441415403 202.5 C 7.628491386890879 201.6 7.637657859628616 201.0214285714286 7.655990805104092 200.25 C 7.680434732404725 199.2214285714286 7.6926566960550415 199.02857142857147 7.717100623355676 198 C 7.735433568831151 197.22857142857146 7.744600041568889 196.58076923076922 7.762932987044364 195.75 C 7.784321423432418 194.7807692307692 7.7950156416264464 194.4 7.8164040780145 193.5 C 7.837792514402554 192.6 7.848486732596582 192.15 7.8698751689846365 191.25 C 7.891263605372691 190.35 7.901957823566718 189.96923076923073 7.923346259954772 189 C 7.941679205430248 188.16923076923072 7.950845678167985 187.7318181818182 7.969178623643461 186.75 C 7.984456078206357 185.9318181818182 7.992094805487805 185.31818181818184 8.007372260050701 184.5 C 8.025705205526176 183.51818181818183 8.034871678263913 183.15 8.053204623739388 182.25 C 8.071537569214863 181.35 8.0807040419526 180.83076923076928 8.099036987428077 180 C 8.120425423816132 179.03076923076927 8.131119642010159 178.65 8.152508078398213 177.75 C 8.173896514786268 176.85 8.184590732980295 176.4692307692308 8.20597916936835 175.5 C 8.224312114843825 174.66923076923078 8.233478587581562 174.08076923076922 8.251811533057037 173.25 C 8.273199969445091 172.2807692307692 8.283894187639119 171.84000000000003 8.305282624027173 171 C 8.329726551327806 170.04000000000002 8.341948514978123 169.65000000000003 8.366392442278757 168.75 C 8.39083636957939 167.85000000000002 8.403058333229708 167.5285714285714 8.427502260530341 166.5 C 8.445835206005816 165.7285714285714 8.455001678743553 165.15000000000006 8.47333462421903 164.25 C 8.491667569694505 163.35000000000005 8.500834042432242 162.8307692307693 8.519166987907719 162 C 8.540555424295771 161.0307692307693 8.551249642489799 160.05731707317074 8.572638078877853 159.75 C 8.676524769905546 158.25731707317073 8.728468115419393 159.03 8.832354806447086 157.5 C 8.85068775192256 157.23 8.8598542246603 156.08076923076922 8.878187170135774 155.25 C 8.899575606523829 154.2807692307692 8.910269824717856 153.96923076923073 8.93165826110591 153 C 8.949991206581387 152.16923076923072 8.959157679319125 151.58076923076922 8.9774906247946 150.75 C 8.998879061182654 149.7807692307692 9.009573279376681 149.54999999999995 9.030961715764734 148.5 C 9.046239170327631 147.74999999999994 9.053877897609079 146.89285714285714 9.069155352171975 146.25 C 9.09665477038519 145.09285714285713 9.110404479491795 145.15714285714284 9.137903897705007 144 C 9.153181352267904 143.35714285714283 9.160820079549351 142.39285714285717 9.176097534112248 141.75 C 9.20359695232546 140.59285714285716 9.217346661432067 140.5125 9.24484607964528 139.5 C 9.266234516033334 138.71249999999998 9.276928734227361 138.15 9.298317170615416 137.25 C 9.31970560700347 136.35 9.330399825197498 135.9 9.351788261585552 135 C 9.373176697973607 134.1 9.383870916167634 133.65 9.405259352555689 132.75 C 9.426647788943743 131.85 9.437342007137769 131.54999999999998 9.458730443525823 130.5 C 9.47400789808872 129.74999999999997 9.481646625370168 129.06818181818187 9.496924079933065 128.25 C 9.51525702540854 127.26818181818184 9.524423498146277 126.98181818181816 9.542756443621752 126 C 9.558033898184648 125.18181818181814 9.565672625466096 124.75000000000001 9.580950080028993 123.75 C 9.59317204367931 122.95 9.599283025504468 122.15454545454547 9.611504989154785 121.5 C 9.63289342554284 120.35454545454546 9.643587643736867 120.03750000000002 9.664976080124921 119.25 C 9.692475498338133 118.23750000000001 9.70622520744474 118.15714285714289 9.733724625657953 117 C 9.749002080220848 116.35714285714288 9.756640807502297 115.49999999999997 9.771918262065192 114.75 C 9.793306698453247 113.69999999999996 9.804000916647274 112.8 9.825389353035328 112.5 C 9.932331534975601 110.99999999999999 9.985802625945738 111.71511627906978 10.09274480788601 110.25 C 10.117188735186645 109.91511627906976 10.12941069883696 109.02857142857145 10.153854626137594 108 C 10.172187571613069 107.22857142857144 10.181354044350806 106.64999999999996 10.199686989826281 105.75 C 10.218019935301758 104.84999999999995 10.227186408039495 104.33076923076922 10.24551935351497 103.5 C 10.266907789903025 102.53076923076921 10.277602008097052 102.15 10.298990444485106 101.25 C 10.320378880873161 100.35 10.331073099067188 99.96923076923079 10.352461535455243 99 C 10.370794480930718 98.16923076923078 10.379960953668455 97.52142857142856 10.39829389914393 96.75 C 10.422737826444564 95.72142857142855 10.43495979009488 95.46000000000002 10.459403717395514 94.5 C 10.480792153783568 93.66000000000001 10.491486371977595 93.29999999999998 10.51287480836565 92.25 C 10.528152262928547 91.49999999999997 10.535790990209994 90.81818181818186 10.551068444772891 90 C 10.569401390248366 89.01818181818184 10.578567862986104 88.58076923076922 10.596900808461578 87.75 C 10.618289244849633 86.78076923076921 10.62898346304366 86.55000000000004 10.650371899431715 85.5 C 10.66564935399461 84.75000000000003 10.673288081276059 84.06818181818181 10.688565535838954 83.25 C 10.706898481314429 82.2681818181818 10.716064954052168 81.9 10.734397899527643 81 C 10.752730845003118 80.1 10.761897317740857 79.65 10.780230263216332 78.75 C 10.798563208691807 77.85 10.807729681429544 77.21999999999997 10.826062626905019 76.5 C 10.853562045118233 75.41999999999996 10.867311754224838 75.26250000000002 10.894811172438052 74.25 C 10.916199608826107 73.4625 10.926893827020134 72.96923076923079 10.948282263408188 72 C 10.966615208883663 71.16923076923078 10.9757816816214 70.19999999999999 10.994114627096875 69.75 C 11.049113463523302 68.39999999999998 11.076612881736514 68.65714285714287 11.13161171816294 67.5 C 11.162166627288732 66.85714285714286 11.177444081851629 66.45000000000003 11.207998990977421 65.25 C 11.223276445540316 64.65000000000002 11.230915172821764 63.818181818181806 11.24619262738466 63 C 11.264525572860137 62.01818181818181 11.273692045597874 61.65 11.29202499107335 60.75 C 11.310357936548824 59.85 11.319524409286561 59.33076923076922 11.337857354762036 58.5 C 11.35924579115009 57.530769230769224 11.369940009344118 56.913157894736834 11.391328445732173 56.25 C 11.427994336683124 55.11315789473684 11.446327282158597 55.08 11.482993173109548 54 C 11.507437100410183 53.28 11.5196590640605 52.778571428571375 11.544102991361132 51.75 C 11.562435936836609 50.97857142857138 11.571602409574346 49.50016519571103 11.589935355049821 49.5 C 211.3304318012652 47.70016519571103 510.9411764705883 47.25 510.9411764705883 47.25" stroke="#9ab2d6" stroke-width="2"  stroke-linejoin="round" stroke-linecap="round"></path></g><g class="highcharts-markers" visibility="visible"  transform="translate(74,71) scale(1 1)" clip-path="none"></g></g><text x="300" text-anchor="middle" class="highcharts-title"  style="color:#333333;font-size:18px;fill:#333333;width:536px;" y="25"><tspan>Questions Correct Over Time</tspan></text><text x="300" text-anchor="middle" class="highcharts-subtitle"  style="color:#555555;fill:#555555;width:536px;" y="53"><tspan>Click and drag in the plot area to zoom in</tspan></text><g class="highcharts-legend"  transform="translate(255,364)"><g ><g><g class="highcharts-legend-item"  transform="translate(8,3)"><path fill="none" d="M 0 11 L 16 11" stroke="#9ab2d6" stroke-width="2"></path><path fill="#9ab2d6" d="M 8 7 C 13.328 7 13.328 15 8 15 C 2.6719999999999997 15 2.6719999999999997 7 8 7 Z"></path><text x="21" style="color:#333333;font-size:12px;font-weight:bold;cursor:pointer;fill:#333333;" text-anchor="start"  y="15">Questions</text></g></g></g></g><g class="highcharts-axis-labels highcharts-xaxis-labels" ><text x="76.50748861740813" text-anchor="middle" style="color:#606060;cursor:default;font-size:11px;fill:#606060;" y="316" opacity="1"><tspan>12:00 AM</tspan></text><text x="406.5005071759625" text-anchor="middle" style="color:#606060;cursor:default;font-size:11px;fill:#606060;" y="316" opacity="1"><tspan>12:00 PM</tspan></text><text x="186.5051614702596" text-anchor="middle" style="color:#606060;cursor:default;font-size:11px;fill:#606060;" y="316" opacity="1"><tspan>04:00 AM</tspan></text><text x="296.5028343231111" text-anchor="middle" style="color:#606060;cursor:default;font-size:11px;fill:#606060;" y="316" opacity="1"><tspan>08:00 AM</tspan></text><text x="516.498180028814" text-anchor="middle" style="color:#606060;cursor:default;font-size:11px;fill:#606060;" y="316" opacity="1"><tspan>04:00 PM</tspan></text></g><g class="highcharts-axis-labels highcharts-yaxis-labels" ><text x="59" text-anchor="end" style="width:178px;color:#606060;cursor:default;font-size:11px;fill:#606060;" y="299.5" opacity="1">0</text><text x="59" text-anchor="end" style="width:178px;color:#606060;cursor:default;font-size:11px;fill:#606060;" y="74.5" opacity="1">100</text><text x="59" text-anchor="end" style="width:178px;color:#606060;cursor:default;font-size:11px;fill:#606060;" y="243.25" opacity="1">25</text><text x="59" text-anchor="end" style="width:178px;color:#606060;cursor:default;font-size:11px;fill:#606060;" y="187" opacity="1">50</text><text x="59" text-anchor="end" style="width:178px;color:#606060;cursor:default;font-size:11px;fill:#606060;" y="130.75" opacity="1">75</text></g><g class="highcharts-tooltip"  style="cursor:default;padding:0;white-space:nowrap;" transform="translate(0,-9999)"><path fill="none" d="M 3 0 L 13 0 C 16 0 16 0 16 3 L 16 13 C 16 16 16 16 13 16 L 3 16 C 0 16 0 16 0 13 L 0 3 C 0 0 0 0 3 0"  stroke="black" stroke-opacity="0.049999999999999996" stroke-width="5" transform="translate(1, 1)"></path><path fill="none" d="M 3 0 L 13 0 C 16 0 16 0 16 3 L 16 13 C 16 16 16 16 13 16 L 3 16 C 0 16 0 16 0 13 L 0 3 C 0 0 0 0 3 0"  stroke="black" stroke-opacity="0.09999999999999999" stroke-width="3" transform="translate(1, 1)"></path><path fill="none" d="M 3 0 L 13 0 C 16 0 16 0 16 3 L 16 13 C 16 16 16 16 13 16 L 3 16 C 0 16 0 16 0 13 L 0 3 C 0 0 0 0 3 0"  stroke="black" stroke-opacity="0.15" stroke-width="1" transform="translate(1, 1)"></path><path fill="rgb(249, 249, 249)" fill-opacity=" .85" d="M 3 0 L 13 0 C 16 0 16 0 16 3 L 16 13 C 16 16 16 16 13 16 L 3 16 C 0 16 0 16 0 13 L 0 3 C 0 0 0 0 3 0"></path><text x="8"  style="font-size:12px;color:#333333;fill:#333333;" y="21"></text></g><text x="590" text-anchor="end"  style="cursor:pointer;color:#909090;font-size:9px;fill:#909090;" y="395">Highcharts.com</text></svg>