<svg xmlns:xlink="http://www.w3.org/1999/xlink" xmlns="http://www.w3.org/2000/svg" style="font-family: 'lucida grande', 'lucida sans unicode', arial, helvetica, sans-serif; font-size: 12px;" width="600" height="400" version="1.1"><desc>Created with Highcharts 4.0.4</desc><defs><clipPath id="highcharts-17"><rect x="0" y="0" width="519" height="227" /></clipPath></defs><rect class=" highcharts-background" fill="#ffffff" x="0" y="0" width="600" height="400" strokeWidth="0" /><g class="highcharts-grid"  /><g class="highcharts-grid" ><path opacity="1" fill="none" stroke="#c0c0c0" stroke-width="1" d="M 71 71.5 L 590 71.5"  /><path opacity="1" fill="none" stroke="#c0c0c0" stroke-width="1" d="M 71 148.5 L 590 148.5"  /><path opacity="1" fill="none" stroke="#c0c0c0" stroke-width="1" d="M 71 223.5 L 590 223.5"  /><path opacity="1" fill="none" stroke="#c0c0c0" stroke-width="1" d="M 71 299.5 L 590 299.5"  /></g><g class="highcharts-axis" ><path opacity="1" fill="none" stroke="#c0d0e0" stroke-width="1" d="M 154.5 299 L 154.5 309" /><path opacity="1" fill="none" stroke="#c0d0e0" stroke-width="1" d="M 221.5 299 L 221.5 309" /><path opacity="1" fill="none" stroke="#c0d0e0" stroke-width="1" d="M 289.5 299 L 289.5 309" /><path opacity="1" fill="none" stroke="#c0d0e0" stroke-width="1" d="M 357.5 299 L 357.5 309" /><path opacity="1" fill="none" stroke="#c0d0e0" stroke-width="1" d="M 424.5 299 L 424.5 309" /><path opacity="1" fill="none" stroke="#c0d0e0" stroke-width="1" d="M 492.5 299 L 492.5 309" /><path opacity="1" fill="none" stroke="#c0d0e0" stroke-width="1" d="M 559.5 299 L 559.5 309" /><path opacity="1" fill="none" stroke="#c0d0e0" stroke-width="1" d="M 86.5 299 L 86.5 309" /><text class=" highcharts-xaxis-title" visibility="visible" style="color: rgb(112, 112, 112); fill: #707070;" text-anchor="middle" transform="translate(0)" x="330.5" y="338" >Time</text><path visibility="visible" fill="none" stroke="#c0d0e0" stroke-width="1" d="M 71 299.5 L 590 299.5"  /></g><g class="highcharts-axis" ><text class=" highcharts-yaxis-title" visibility="visible" style="color: rgb(112, 112, 112); fill: #707070;" text-anchor="middle" transform="translate(0) rotate(270 28.6 185.5)" x="28.6" y="185.5" ><tspan>Questions Correct</tspan></text></g><g class="highcharts-series-group" ><g class="highcharts-series" visibility="visible" clip-path="url(#highcharts-17)" transform="translate(71 72) scale(1)" ><path fill="none" stroke="#9ab2d6" stroke-linecap="round" stroke-linejoin="round" stroke-width="2" d="M 5.08824 196.733 C 5.08824 196.733 19.9477 186.955 29.854 166.467 C 31.6551 162.742 32.5557 146.961 34.3568 136.2 C 36.6083 122.748 37.734 106.584 39.9854 105.933 C 121.487 82.3709 162.238 86.2783 243.74 75.6667 C 348.206 62.065 400.44 68.8062 504.906 45.4 C 508.508 44.5929 513.912 15.1333 513.912 15.1333"  /></g><g class="highcharts-markers" visibility="visible" clip-path="none" transform="translate(71 72) scale(1)" ><path fill="rgb(8, 243, 53)" d="M 513 11.1333 C 518.328 11.1333 518.328 19.1333 513 19.1333 C 507.672 19.1333 507.672 11.1333 513 11.1333 Z" /><path fill="rgb(8, 243, 53)" d="M 504 41.4 C 509.328 41.4 509.328 49.4 504 49.4 C 498.672 49.4 498.672 41.4 504 41.4 Z" /><path fill="rgb(8, 243, 53)" d="M 243 71.6667 C 248.328 71.6667 248.328 79.6667 243 79.6667 C 237.672 79.6667 237.672 71.6667 243 71.6667 Z" /><path fill="rgb(8, 243, 53)" d="M 39 101.933 C 44.328 101.933 44.328 109.933 39 109.933 C 33.672 109.933 33.672 101.933 39 101.933 Z" /><path fill="rgb(8, 243, 53)" d="M 34 132.2 C 39.328 132.2 39.328 140.2 34 140.2 C 28.672 140.2 28.672 132.2 34 132.2 Z" /><path fill="rgb(8, 243, 53)" d="M 29 162.467 C 34.328 162.467 34.328 170.467 29 170.467 C 23.672 170.467 23.672 162.467 29 162.467 Z" /><path fill="rgb(8, 243, 53)" d="M 5 192.733 C 10.328 192.733 10.328 200.733 5 200.733 C -0.328 200.733 -0.328 192.733 5 192.733 Z" /></g></g><text class="highcharts-title" style="width: 536px; color: rgb(51, 51, 51); font-size: 18px; fill: #333333;" text-anchor="middle" x="300" y="25" ><tspan>Questions Correct Over Time</tspan></text><text class="highcharts-subtitle" style="width: 536px; color: rgb(85, 85, 85); fill: #555555;" text-anchor="middle" x="300" y="53" ><tspan>Click and drag in the plot area to zoom in</tspan></text><g class="highcharts-legend" transform="translate(255 364)" ><g ><g><g class="highcharts-legend-item" transform="translate(8 3)" ><path fill="none" stroke="#9ab2d6" stroke-width="2" d="M 0 11 L 16 11" /><path fill="#9ab2d6" d="M 8 7 C 13.328 7 13.328 15 8 15 C 2.672 15 2.672 7 8 7 Z" /><text style="color: rgb(51, 51, 51); font-size: 12px; font-weight: bold; cursor: pointer; fill: #333333;" text-anchor="start" x="21" y="15" >Questions</text></g></g></g></g><g class="highcharts-axis-labels highcharts-xaxis-labels" ><text style="color: rgb(96, 96, 96); font-size: 11px; cursor: default; fill: #606060;" opacity="1" text-anchor="middle" x="87.3454" y="319"><tspan>02:14 PM</tspan></text><text style="color: rgb(96, 96, 96); font-size: 11px; cursor: default; fill: #606060;" opacity="1" text-anchor="middle" x="154.8883" y="319"><tspan>02:15 PM</tspan></text><text style="color: rgb(96, 96, 96); font-size: 11px; cursor: default; fill: #606060;" opacity="1" text-anchor="middle" x="222.4313" y="319"><tspan>02:16 PM</tspan></text><text style="color: rgb(96, 96, 96); font-size: 11px; cursor: default; fill: #606060;" opacity="1" text-anchor="middle" x="289.9743" y="319"><tspan>02:17 PM</tspan></text><text style="color: rgb(96, 96, 96); font-size: 11px; cursor: default; fill: #606060;" opacity="1" text-anchor="middle" x="357.5172" y="319"><tspan>02:18 PM</tspan></text><text style="color: rgb(96, 96, 96); font-size: 11px; cursor: default; fill: #606060;" opacity="1" text-anchor="middle" x="425.0601" y="319"><tspan>02:19 PM</tspan></text><text style="color: rgb(96, 96, 96); font-size: 11px; cursor: default; fill: #606060;" opacity="1" text-anchor="middle" x="492.6031" y="319"><tspan>02:20 PM</tspan></text><text style="color: rgb(96, 96, 96); font-size: 11px; cursor: default; fill: #606060;" opacity="1" text-anchor="middle" x="560.146" y="319"><tspan>02:21 PM</tspan></text></g><g class="highcharts-axis-labels highcharts-yaxis-labels" ><text style="width: 178px; color: rgb(96, 96, 96); font-size: 11px; cursor: default; fill: #606060;" opacity="1" text-anchor="end" x="56" y="304">0</text><text style="width: 178px; color: rgb(96, 96, 96); font-size: 11px; cursor: default; fill: #606060;" opacity="1" text-anchor="end" x="56" y="152.6667">5</text><text style="width: 178px; color: rgb(96, 96, 96); font-size: 11px; cursor: default; fill: #606060;" opacity="1" text-anchor="end" x="56" y="228.3333">2.5</text><text style="width: 178px; color: rgb(96, 96, 96); font-size: 11px; cursor: default; fill: #606060;" opacity="1" text-anchor="end" x="56" y="77">7.5</text></g><g class="highcharts-tooltip" style="padding: 0px; white-space: nowrap; cursor: default;" transform="translate(0 -9999)" ><path fill="none" stroke="black" stroke-opacity="0.05" stroke-width="5" transform="translate(1 1)" d="M 3 0 L 13 0 C 16 0 16 0 16 3 L 16 13 C 16 16 16 16 13 16 L 3 16 C 0 16 0 16 0 13 L 0 3 C 0 0 0 0 3 0"  /><path fill="none" stroke="black" stroke-opacity="0.1" stroke-width="3" transform="translate(1 1)" d="M 3 0 L 13 0 C 16 0 16 0 16 3 L 16 13 C 16 16 16 16 13 16 L 3 16 C 0 16 0 16 0 13 L 0 3 C 0 0 0 0 3 0"  /><path fill="none" stroke="black" stroke-opacity="0.15" stroke-width="1" transform="translate(1 1)" d="M 3 0 L 13 0 C 16 0 16 0 16 3 L 16 13 C 16 16 16 16 13 16 L 3 16 C 0 16 0 16 0 13 L 0 3 C 0 0 0 0 3 0"  /><path fill="rgb(249, 249, 249)" fill-opacity=" 0.85" d="M 3 0 L 13 0 C 16 0 16 0 16 3 L 16 13 C 16 16 16 16 13 16 L 3 16 C 0 16 0 16 0 13 L 0 3 C 0 0 0 0 3 0" /><text style="color: rgb(51, 51, 51); font-size: 12px; fill: #333333;" x="8" y="21" ></text></g><text style="color: rgb(144, 144, 144); font-size: 9px; cursor: pointer; fill: #909090;" text-anchor="end" x="590" y="395" >Highcharts.com</text></svg>