<svg xmlns:xlink="http://www.w3.org/1999/xlink" xmlns="http://www.w3.org/2000/svg" style="font-family: 'lucida grande', 'lucida sans unicode', arial, helvetica, sans-serif; font-size: 12px;" width="600" height="400" version="1.1"><desc>Created with Highcharts 4.0.4</desc><defs><clipPath id="highcharts-29"><rect x="0" y="0" width="530" height="227" /></clipPath></defs><rect class=" highcharts-background" fill="#ffffff" x="0" y="0" width="600" height="400" strokeWidth="0" /><g class="highcharts-grid"  /><g class="highcharts-grid" ><path opacity="1" fill="none" stroke="#c0c0c0" stroke-width="1" d="M 60 71.5 L 590 71.5"  /><path opacity="1" fill="none" stroke="#c0c0c0" stroke-width="1" d="M 60 129.5 L 590 129.5"  /><path opacity="1" fill="none" stroke="#c0c0c0" stroke-width="1" d="M 60 186.5 L 590 186.5"  /><path opacity="1" fill="none" stroke="#c0c0c0" stroke-width="1" d="M 60 242.5 L 590 242.5"  /><path opacity="1" fill="none" stroke="#c0c0c0" stroke-width="1" d="M 60 299.5 L 590 299.5"  /></g><g class="highcharts-axis" ><path opacity="1" fill="none" stroke="#c0d0e0" stroke-width="1" d="M 242.5 299 L 242.5 309" /><path opacity="1" fill="none" stroke="#c0d0e0" stroke-width="1" d="M 349.5 299 L 349.5 309" /><path opacity="1" fill="none" stroke="#c0d0e0" stroke-width="1" d="M 456.5 299 L 456.5 309" /><path opacity="1" fill="none" stroke="#c0d0e0" stroke-width="1" d="M 562.5 299 L 562.5 309" /><path opacity="1" fill="none" stroke="#c0d0e0" stroke-width="1" d="M 135.5 299 L 135.5 309" /><text class=" highcharts-xaxis-title" visibility="visible" style="color: rgb(112, 112, 112); fill: #707070;" text-anchor="middle" transform="translate(0)" x="325" y="338" >Time</text><path visibility="visible" fill="none" stroke="#c0d0e0" stroke-width="1" d="M 60 299.5 L 590 299.5"  /></g><g class="highcharts-axis" ><text class=" highcharts-yaxis-title" visibility="visible" style="color: rgb(112, 112, 112); fill: #707070;" text-anchor="middle" transform="translate(0) rotate(270 28.04 185.5)" x="28.04" y="185.5" ><tspan>Questions Correct</tspan></text></g><g class="highcharts-series-group" ><g class="highcharts-series" visibility="visible" clip-path="url(#highcharts-29)" transform="translate(60 72) scale(1)" ><path fill="none" stroke="#9ab2d6" stroke-linecap="round" stroke-linejoin="round" stroke-width="2" d="M 5.19608 227 C 5.19608 227 141.86 170.25 232.969 170.25 C 269.983 170.25 288.489 170.25 325.502 170.25 C 368.21 170.25 389.564 137.821 432.271 113.5 C 469.284 92.4214 524.804 56.75 524.804 56.75"  /></g><g class="highcharts-markers" visibility="visible" clip-path="none" transform="translate(60 72) scale(1)" ><path fill="rgb(8, 243, 53)" d="M 524 52.75 C 529.328 52.75 529.328 60.75 524 60.75 C 518.672 60.75 518.672 52.75 524 52.75 Z" /><path fill="rgb(8, 243, 53)" d="M 432 109.5 C 437.328 109.5 437.328 117.5 432 117.5 C 426.672 117.5 426.672 109.5 432 109.5 Z" /><path fill="rgb(245, 64, 50)" d="M 325 166.25 C 330.328 166.25 330.328 174.25 325 174.25 C 319.672 174.25 319.672 166.25 325 166.25 Z" /><path fill="rgb(8, 243, 53)" d="M 232 166.25 C 237.328 166.25 237.328 174.25 232 174.25 C 226.672 174.25 226.672 166.25 232 166.25 Z" /><path fill="rgb(245, 64, 50)" d="M 5 223 C 10.328 223 10.328 231 5 231 C -0.328 231 -0.328 223 5 223 Z" /></g></g><text class="highcharts-title" style="width: 536px; color: rgb(51, 51, 51); font-size: 18px; fill: #333333;" text-anchor="middle" x="300" y="25" ><tspan>Questions Correct Over Time</tspan></text><text class="highcharts-subtitle" style="width: 536px; color: rgb(85, 85, 85); fill: #555555;" text-anchor="middle" x="300" y="53" ><tspan>Click and drag in the plot area to zoom in</tspan></text><g class="highcharts-legend" transform="translate(255 364)" ><g ><g><g class="highcharts-legend-item" transform="translate(8 3)" ><path fill="none" stroke="#9ab2d6" stroke-width="2" d="M 0 11 L 16 11" /><path fill="#9ab2d6" d="M 8 7 C 13.328 7 13.328 15 8 15 C 2.672 15 2.672 7 8 7 Z" /><text style="color: rgb(51, 51, 51); font-size: 12px; font-weight: bold; cursor: pointer; fill: #333333;" text-anchor="start" x="21" y="15" >Questions</text></g></g></g></g><g class="highcharts-axis-labels highcharts-xaxis-labels" ><text style="color: rgb(96, 96, 96); font-size: 11px; cursor: default; fill: #606060;" opacity="1" text-anchor="middle" x="136.3752" y="319"><tspan>11:35 PM</tspan></text><text style="color: rgb(96, 96, 96); font-size: 11px; cursor: default; fill: #606060;" opacity="1" text-anchor="middle" x="243.144" y="319"><tspan>11:35 PM</tspan></text><text style="color: rgb(96, 96, 96); font-size: 11px; cursor: default; fill: #606060;" opacity="1" text-anchor="middle" x="349.9127" y="319"><tspan>11:36 PM</tspan></text><text style="color: rgb(96, 96, 96); font-size: 11px; cursor: default; fill: #606060;" opacity="1" text-anchor="middle" x="456.6815" y="319"><tspan>11:36 PM</tspan></text><text style="color: rgb(96, 96, 96); font-size: 11px; cursor: default; fill: #606060;" opacity="1" text-anchor="middle" x="563.4502" y="319"><tspan>11:36 PM</tspan></text></g><g class="highcharts-axis-labels highcharts-yaxis-labels" ><text style="width: 178px; color: rgb(96, 96, 96); font-size: 11px; cursor: default; fill: #606060;" opacity="1" text-anchor="end" x="45" y="304">0</text><text style="width: 178px; color: rgb(96, 96, 96); font-size: 11px; cursor: default; fill: #606060;" opacity="1" text-anchor="end" x="45" y="247.25">1</text><text style="width: 178px; color: rgb(96, 96, 96); font-size: 11px; cursor: default; fill: #606060;" opacity="1" text-anchor="end" x="45" y="190.5">2</text><text style="width: 178px; color: rgb(96, 96, 96); font-size: 11px; cursor: default; fill: #606060;" opacity="1" text-anchor="end" x="45" y="133.75">3</text><text style="width: 178px; color: rgb(96, 96, 96); font-size: 11px; cursor: default; fill: #606060;" opacity="1" text-anchor="end" x="45" y="77">4</text></g><g class="highcharts-tooltip" style="padding: 0px; white-space: nowrap; cursor: default;" transform="translate(0 -9999)" ><path fill="none" stroke="black" stroke-opacity="0.05" stroke-width="5" transform="translate(1 1)" d="M 3 0 L 13 0 C 16 0 16 0 16 3 L 16 13 C 16 16 16 16 13 16 L 3 16 C 0 16 0 16 0 13 L 0 3 C 0 0 0 0 3 0"  /><path fill="none" stroke="black" stroke-opacity="0.1" stroke-width="3" transform="translate(1 1)" d="M 3 0 L 13 0 C 16 0 16 0 16 3 L 16 13 C 16 16 16 16 13 16 L 3 16 C 0 16 0 16 0 13 L 0 3 C 0 0 0 0 3 0"  /><path fill="none" stroke="black" stroke-opacity="0.15" stroke-width="1" transform="translate(1 1)" d="M 3 0 L 13 0 C 16 0 16 0 16 3 L 16 13 C 16 16 16 16 13 16 L 3 16 C 0 16 0 16 0 13 L 0 3 C 0 0 0 0 3 0"  /><path fill="rgb(249, 249, 249)" fill-opacity=" 0.85" d="M 3 0 L 13 0 C 16 0 16 0 16 3 L 16 13 C 16 16 16 16 13 16 L 3 16 C 0 16 0 16 0 13 L 0 3 C 0 0 0 0 3 0" /><text style="color: rgb(51, 51, 51); font-size: 12px; fill: #333333;" x="8" y="21" ></text></g><text style="color: rgb(144, 144, 144); font-size: 9px; cursor: pointer; fill: #909090;" text-anchor="end" x="590" y="395" >Highcharts.com</text></svg>