<svg xmlns:xlink="http://www.w3.org/1999/xlink" version="1.1" style="font-family:'lucida grande', 'lucida sans unicode', arial, helvetica, sans-serif;font-size:12px;" xmlns="http://www.w3.org/2000/svg" width="600" height="400"><desc>Created with Highcharts 4.0.4</desc><defs><clipPath id="highcharts-5"><rect x="0" y="0" width="530" height="225"></rect></clipPath></defs><rect x="0" y="0" width="600" height="400" strokeWidth="0" fill="#FFFFFF" class=" highcharts-background"></rect><g class="highcharts-grid" ></g><g class="highcharts-grid" ><path fill="none" d="M 60 184.5 L 590 184.5" stroke="#C0C0C0" stroke-width="1"  opacity="1"></path></g><g class="highcharts-axis" ><path fill="none" d="M 167.5 296 L 167.5 306" stroke="#C0D0E0" stroke-width="1" opacity="1"></path><path fill="none" d="M 264.5 296 L 264.5 306" stroke="#C0D0E0" stroke-width="1" opacity="1"></path><path fill="none" d="M 361.5 296 L 361.5 306" stroke="#C0D0E0" stroke-width="1" opacity="1"></path><path fill="none" d="M 458.5 296 L 458.5 306" stroke="#C0D0E0" stroke-width="1" opacity="1"></path><path fill="none" d="M 555.5 296 L 555.5 306" stroke="#C0D0E0" stroke-width="1" opacity="1"></path><path fill="none" d="M 71.5 296 L 71.5 306" stroke="#C0D0E0" stroke-width="1" opacity="1"></path><text x="325"  text-anchor="middle" transform="translate(0,0)" class=" highcharts-xaxis-title" style="color:#707070;fill:#707070;" visibility="visible" y="338">Time</text><path fill="none" d="M 60 296.5 L 590 296.5" stroke="#C0D0E0" stroke-width="1"  visibility="visible"></path></g><g class="highcharts-axis" ><text x="27.984375"  text-anchor="middle" transform="translate(0,0) rotate(270 27.984375 183.5)" class=" highcharts-yaxis-title" style="color:#707070;fill:#707070;" visibility="visible" y="183.5"><tspan>Questions Correct</tspan></text></g><g class="highcharts-series-group" ><g class="highcharts-series" visibility="visible"  transform="translate(60,71) scale(1 1)" clip-path="url(#highcharts-5)"><path fill="none" d="M 5.196078431372549 112.5 C 5.196078431372549 112.5 20.68749238825965 112.5 31.015101692851054 112.5 C 38.760808671294605 112.5 42.63366216051638 112.5 50.37936913895993 112.5 C 59.41602728047741 112.5 63.93435635123615 112.5 72.97101449275362 112.5 C 141.39142613567168 112.5 175.60163195713068 112.5 244.02204360004873 112.5 C 300.8238947753014 112.5 329.2248203629278 112.5 386.0266715381805 112.5 C 413.1366459627329 112.5 426.69163317500914 112.5 453.8016075995616 112.5 C 470.58397271952265 112.5 478.9751552795031 112.5 495.75752039946417 112.5 C 507.37608086712953 112.5 524.8039215686275 112.5 524.8039215686275 112.5" stroke="#9ab2d6" stroke-width="2"  stroke-linejoin="round" stroke-linecap="round"></path></g><g class="highcharts-markers" visibility="visible"  transform="translate(60,71) scale(1 1)" clip-path="none"><path fill="rgb(245, 64, 50)" d="M 524 108.5 C 529.328 108.5 529.328 116.5 524 116.5 C 518.672 116.5 518.672 108.5 524 108.5 Z"></path><path fill="rgb(245, 64, 50)" d="M 495 108.5 C 500.328 108.5 500.328 116.5 495 116.5 C 489.672 116.5 489.672 108.5 495 108.5 Z"></path><path fill="rgb(245, 64, 50)" d="M 453 108.5 C 458.328 108.5 458.328 116.5 453 116.5 C 447.672 116.5 447.672 108.5 453 108.5 Z"></path><path fill="rgb(245, 64, 50)" d="M 386 108.5 C 391.328 108.5 391.328 116.5 386 116.5 C 380.672 116.5 380.672 108.5 386 108.5 Z"></path><path fill="rgb(245, 64, 50)" d="M 244 108.5 C 249.328 108.5 249.328 116.5 244 116.5 C 238.672 116.5 238.672 108.5 244 108.5 Z"></path><path fill="rgb(245, 64, 50)" d="M 72 108.5 C 77.328 108.5 77.328 116.5 72 116.5 C 66.672 116.5 66.672 108.5 72 108.5 Z"></path><path fill="rgb(245, 64, 50)" d="M 50 108.5 C 55.328 108.5 55.328 116.5 50 116.5 C 44.672 116.5 44.672 108.5 50 108.5 Z"></path><path fill="rgb(245, 64, 50)" d="M 31 108.5 C 36.328 108.5 36.328 116.5 31 116.5 C 25.672 116.5 25.672 108.5 31 108.5 Z"></path><path fill="rgb(245, 64, 50)" d="M 5 108.5 C 10.328 108.5 10.328 116.5 5 116.5 C -0.32800000000000007 116.5 -0.32800000000000007 108.5 5 108.5 Z"></path></g></g><text x="300" text-anchor="middle" class="highcharts-title"  style="color:#333333;font-size:18px;fill:#333333;width:536px;" y="25"><tspan>Questions Correct Over Time</tspan></text><text x="300" text-anchor="middle" class="highcharts-subtitle"  style="color:#555555;fill:#555555;width:536px;" y="53"><tspan>Click and drag in the plot area to zoom in</tspan></text><g class="highcharts-legend"  transform="translate(255,364)"><g ><g><g class="highcharts-legend-item"  transform="translate(8,3)"><path fill="none" d="M 0 11 L 16 11" stroke="#9ab2d6" stroke-width="2"></path><path fill="#9ab2d6" d="M 8 7 C 13.328 7 13.328 15 8 15 C 2.6719999999999997 15 2.6719999999999997 7 8 7 Z"></path><text x="21" style="color:#333333;font-size:12px;font-weight:bold;cursor:pointer;fill:#333333;" text-anchor="start"  y="15">Questions</text></g></g></g></g><g class="highcharts-axis-labels highcharts-xaxis-labels" ><text x="71.65083424674218" text-anchor="middle" style="color:#606060;cursor:default;font-size:11px;fill:#606060;" y="316" opacity="1"><tspan>01:59 PM</tspan></text><text x="168.47217147728657" text-anchor="middle" style="color:#606060;cursor:default;font-size:11px;fill:#606060;" y="316" opacity="1"><tspan>01:59 PM</tspan></text><text x="265.29350870783094" text-anchor="middle" style="color:#606060;cursor:default;font-size:11px;fill:#606060;" y="316" opacity="1"><tspan>02:00 PM</tspan></text><text x="362.11484593837537" text-anchor="middle" style="color:#606060;cursor:default;font-size:11px;fill:#606060;" y="316" opacity="1"><tspan>02:00 PM</tspan></text><text x="458.93618316891974" text-anchor="middle" style="color:#606060;cursor:default;font-size:11px;fill:#606060;" y="316" opacity="1"><tspan>02:01 PM</tspan></text><text x="555.7575203994642" text-anchor="middle" style="color:#606060;cursor:default;font-size:11px;fill:#606060;" y="316" opacity="1"><tspan>02:01 PM</tspan></text></g><g class="highcharts-axis-labels highcharts-yaxis-labels" ><text x="45" text-anchor="end" style="width:178px;color:#606060;cursor:default;font-size:11px;fill:#606060;" y="187" opacity="1">0</text></g><g class="highcharts-tooltip"  style="cursor:default;padding:0;white-space:nowrap;" transform="translate(0,-9999)"><path fill="none" d="M 3 0 L 13 0 C 16 0 16 0 16 3 L 16 13 C 16 16 16 16 13 16 L 3 16 C 0 16 0 16 0 13 L 0 3 C 0 0 0 0 3 0"  stroke="black" stroke-opacity="0.049999999999999996" stroke-width="5" transform="translate(1, 1)"></path><path fill="none" d="M 3 0 L 13 0 C 16 0 16 0 16 3 L 16 13 C 16 16 16 16 13 16 L 3 16 C 0 16 0 16 0 13 L 0 3 C 0 0 0 0 3 0"  stroke="black" stroke-opacity="0.09999999999999999" stroke-width="3" transform="translate(1, 1)"></path><path fill="none" d="M 3 0 L 13 0 C 16 0 16 0 16 3 L 16 13 C 16 16 16 16 13 16 L 3 16 C 0 16 0 16 0 13 L 0 3 C 0 0 0 0 3 0"  stroke="black" stroke-opacity="0.15" stroke-width="1" transform="translate(1, 1)"></path><path fill="rgb(249, 249, 249)" fill-opacity=" .85" d="M 3 0 L 13 0 C 16 0 16 0 16 3 L 16 13 C 16 16 16 16 13 16 L 3 16 C 0 16 0 16 0 13 L 0 3 C 0 0 0 0 3 0"></path><text x="8"  style="font-size:12px;color:#333333;fill:#333333;" y="21"></text></g><text x="590" text-anchor="end"  style="cursor:pointer;color:#909090;font-size:9px;fill:#909090;" y="395">Highcharts.com</text></svg>