<svg xmlns:xlink="http://www.w3.org/1999/xlink" xmlns="http://www.w3.org/2000/svg" style="font-family: 'lucida grande', 'lucida sans unicode', arial, helvetica, sans-serif; font-size: 12px;" width="600" height="400" version="1.1"><desc>Created with Highcharts 4.0.4</desc><defs><clipPath id="highcharts-23"><rect x="0" y="0" width="516" height="227" /></clipPath></defs><rect class=" highcharts-background" fill="#ffffff" x="0" y="0" width="600" height="400" strokeWidth="0" /><g class="highcharts-grid"  /><g class="highcharts-grid" ><path opacity="1" fill="none" stroke="#c0c0c0" stroke-width="1" d="M 74 71.5 L 590 71.5"  /><path opacity="1" fill="none" stroke="#c0c0c0" stroke-width="1" d="M 74 129.5 L 590 129.5"  /><path opacity="1" fill="none" stroke="#c0c0c0" stroke-width="1" d="M 74 186.5 L 590 186.5"  /><path opacity="1" fill="none" stroke="#c0c0c0" stroke-width="1" d="M 74 242.5 L 590 242.5"  /><path opacity="1" fill="none" stroke="#c0c0c0" stroke-width="1" d="M 74 299.5 L 590 299.5"  /></g><g class="highcharts-axis" ><path opacity="1" fill="none" stroke="#c0d0e0" stroke-width="1" d="M 203.5 299 L 203.5 309" /><path opacity="1" fill="none" stroke="#c0d0e0" stroke-width="1" d="M 299.5 299 L 299.5 309" /><path opacity="1" fill="none" stroke="#c0d0e0" stroke-width="1" d="M 395.5 299 L 395.5 309" /><path opacity="1" fill="none" stroke="#c0d0e0" stroke-width="1" d="M 491.5 299 L 491.5 309" /><path opacity="1" fill="none" stroke="#c0d0e0" stroke-width="1" d="M 587.5 299 L 587.5 309" /><path opacity="1" fill="none" stroke="#c0d0e0" stroke-width="1" d="M 107.5 299 L 107.5 309" /><text class=" highcharts-xaxis-title" visibility="visible" style="color: rgb(112, 112, 112); fill: #707070;" text-anchor="middle" transform="translate(0)" x="332" y="338" >Time</text><path visibility="visible" fill="none" stroke="#c0d0e0" stroke-width="1" d="M 74 299.5 L 590 299.5"  /></g><g class="highcharts-axis" ><text class=" highcharts-yaxis-title" visibility="visible" style="color: rgb(112, 112, 112); fill: #707070;" text-anchor="middle" transform="translate(0) rotate(270 28.12 185.5)" x="28.12" y="185.5" ><tspan>Questions Correct</tspan></text></g><g class="highcharts-series-group" ><g class="highcharts-series" visibility="visible" clip-path="url(#highcharts-23)" transform="translate(74 72) scale(1)" ><path fill="none" stroke="#9ab2d6" stroke-linecap="round" stroke-linejoin="round" stroke-width="2" d="M 5.05882 224.73 C 5.05882 224.73 5.11088 223.584 5.14558 222.46 C 5.16694 221.768 5.17762 220.499 5.19897 220.19 C 5.30309 218.683 5.35514 219.427 5.45925 217.92 C 5.48061 217.611 5.49129 215.65 5.51264 215.65 C 130.447 213.834 192.914 215.195 317.848 213.38 C 317.888 213.379 317.908 211.455 317.948 211.11 C 318.118 209.639 318.204 209.86 318.375 208.84 C 318.508 208.044 318.575 206.947 318.708 206.57 C 319.218 205.131 319.473 206.034 319.983 204.3 C 320.007 204.218 320.019 203.051 320.043 202.03 C 320.062 201.236 320.071 200.607 320.09 199.76 C 320.111 198.791 320.122 197.627 320.143 197.49 C 320.405 195.811 320.536 196.915 320.797 195.22 C 320.816 195.099 320.825 192.979 320.844 192.95 C 321.976 191.163 322.542 191.854 323.674 190.68 C 324.293 190.038 324.603 190.151 325.222 188.41 C 325.249 188.335 325.262 186.631 325.289 186.14 C 325.361 184.815 325.397 183.961 325.469 183.87 C 326.841 182.145 327.527 183.402 328.899 181.6 C 328.91 181.586 328.915 179.343 328.926 179.33 C 330.397 177.527 331.132 178.863 332.603 177.06 C 332.614 177.047 332.619 174.816 332.63 174.79 C 333.375 173 333.747 174.292 334.492 172.52 C 334.511 172.476 334.52 170.347 334.539 170.25 C 334.87 168.531 335.035 168.366 335.366 167.98 C 336.592 166.55 337.204 167.51 338.43 165.71 C 338.44 165.694 338.446 164.247 338.456 163.44 C 338.47 162.431 338.476 161.172 338.49 161.17 C 353.057 159.356 360.341 159.617 374.909 158.9 C 397.258 157.801 408.433 158.444 430.782 156.63 C 430.809 156.628 430.822 154.946 430.849 154.36 C 430.905 153.13 430.933 153.121 430.989 152.09 C 431.031 151.305 431.053 149.946 431.096 149.82 C 431.67 148.13 431.957 148.27 432.53 147.55 C 433.403 146.454 433.84 147.063 434.713 145.28 C 434.729 145.247 434.737 143.035 434.753 143.01 C 435.879 141.219 436.443 142.197 437.569 140.74 C 437.847 140.381 437.986 139.519 438.263 138.47 C 438.466 137.703 438.568 136.508 438.77 136.2 C 439.764 134.692 440.26 135.332 441.253 133.93 C 441.547 133.516 441.694 132.485 441.987 131.66 C 442.34 130.669 442.516 130.559 442.868 129.39 C 443.063 128.743 443.161 127.574 443.355 127.12 C 443.94 125.758 444.232 125.859 444.817 124.85 C 445.284 124.043 445.518 123.171 445.985 122.58 C 446.954 121.355 447.438 122.101 448.407 120.31 C 448.421 120.285 448.427 118.084 448.441 118.04 C 448.977 116.268 449.246 116.558 449.782 115.77 C 450.482 114.742 450.831 113.5 451.531 113.5 C 451.68 113.5 451.755 113.5 451.905 113.5 C 451.95 113.5 451.973 111.306 452.018 111.23 C 453.054 109.49 453.572 110.302 454.607 108.96 C 454.973 108.486 455.156 107.485 455.522 106.69 C 455.992 105.669 456.227 105.17 456.696 104.42 C 457.364 103.354 457.697 103.917 458.365 102.15 C 458.383 102.101 458.393 99.9439 458.412 99.88 C 458.924 98.1279 459.18 98.4502 459.693 97.61 C 460.288 96.6342 460.586 96.2053 461.181 95.34 C 461.835 94.3893 462.162 94.8568 462.816 93.07 C 462.827 93.0408 462.832 90.8169 462.843 90.8 C 463.978 89.0009 464.545 89.759 465.679 88.53 C 466.221 87.943 466.492 88.0323 467.034 86.26 C 467.047 86.2163 467.054 84.014 467.067 83.99 C 468.066 82.198 468.565 83.5073 469.563 81.72 C 469.579 81.6913 469.587 79.4541 469.604 79.45 C 476.659 77.6381 480.187 78.914 487.242 77.18 C 487.576 77.098 487.743 75.4596 488.077 74.91 C 488.845 73.6436 489.23 74.3951 489.999 72.64 C 490.025 72.5791 490.039 70.4114 490.065 70.37 C 491.211 68.5954 491.783 69.8992 492.929 68.1 C 492.939 68.0832 492.945 65.8492 492.955 65.83 C 493.954 64.0332 494.453 65.3333 495.451 63.56 C 495.475 63.5173 495.487 61.3348 495.511 61.29 C 496.462 59.5188 496.937 60.801 497.887 59.02 C 497.906 58.985 497.915 56.7881 497.934 56.75 C 498.807 54.9721 499.243 56.2687 500.116 54.48 C 500.13 54.4527 500.136 52.242 500.15 52.21 C 500.894 50.426 501.267 51.0367 502.012 49.94 C 502.5 49.2207 502.744 49.4283 503.233 47.67 C 503.249 47.6124 503.257 45.4248 503.273 45.4 C 504.429 43.6088 505.007 44.9253 506.163 43.13 C 506.176 43.1093 506.183 41.6855 506.196 40.86 C 506.212 39.8695 506.22 39.498 506.236 38.59 C 506.252 37.682 506.26 37.4096 506.276 36.32 C 506.287 35.5936 506.292 34.5689 506.303 34.05 C 506.33 32.7529 506.343 31.8557 506.37 31.78 C 506.984 30.0397 507.291 31.265 507.905 29.51 C 507.926 29.449 507.937 27.5558 507.958 27.24 C 508.059 25.7398 508.11 26.5748 508.212 24.97 C 508.225 24.7588 508.232 23.4567 508.245 22.7 C 508.264 21.6407 508.273 20.9008 508.292 20.43 C 508.345 19.0848 508.372 18.5727 508.425 18.16 C 508.607 16.7567 508.697 16.3982 508.879 15.89 C 509.346 14.5822 509.58 14.6485 510.047 13.62 C 510.405 12.8325 510.941 11.35 510.941 11.35"  /></g><g class="highcharts-markers" visibility="visible" clip-path="none" transform="translate(74 72) scale(1)"  /></g><text class="highcharts-title" style="width: 536px; color: rgb(51, 51, 51); font-size: 18px; fill: #333333;" text-anchor="middle" x="300" y="25" ><tspan>Questions Correct Over Time</tspan></text><text class="highcharts-subtitle" style="width: 536px; color: rgb(85, 85, 85); fill: #555555;" text-anchor="middle" x="300" y="53" ><tspan>Click and drag in the plot area to zoom in</tspan></text><g class="highcharts-legend" transform="translate(255 364)" ><g ><g><g class="highcharts-legend-item" transform="translate(8 3)" ><path fill="none" stroke="#9ab2d6" stroke-width="2" d="M 0 11 L 16 11" /><path fill="#9ab2d6" d="M 8 7 C 13.328 7 13.328 15 8 15 C 2.672 15 2.672 7 8 7 Z" /><text style="color: rgb(51, 51, 51); font-size: 12px; font-weight: bold; cursor: pointer; fill: #333333;" text-anchor="start" x="21" y="15" >Questions</text></g></g></g></g><g class="highcharts-axis-labels highcharts-xaxis-labels" ><text style="color: rgb(96, 96, 96); font-size: 11px; cursor: default; fill: #606060;" opacity="1" text-anchor="middle" x="107.5494" y="319"><tspan>04:00 AM</tspan></text><text style="color: rgb(96, 96, 96); font-size: 11px; cursor: default; fill: #606060;" opacity="1" text-anchor="middle" x="203.6524" y="319"><tspan>08:00 AM</tspan></text><text style="color: rgb(96, 96, 96); font-size: 11px; cursor: default; fill: #606060;" opacity="1" text-anchor="middle" x="299.7554" y="319"><tspan>12:00 PM</tspan></text><text style="color: rgb(96, 96, 96); font-size: 11px; cursor: default; fill: #606060;" opacity="1" text-anchor="middle" x="395.8585" y="319"><tspan>04:00 PM</tspan></text><text style="color: rgb(96, 96, 96); font-size: 11px; cursor: default; fill: #606060;" opacity="1" text-anchor="middle" x="491.9615" y="319"><tspan>08:00 PM</tspan></text><text style="color: rgb(96, 96, 96); font-size: 11px; cursor: default; fill: #606060;" opacity="1" text-anchor="middle" x="574.07" y="319"><tspan>12:00 AM</tspan></text></g><g class="highcharts-axis-labels highcharts-yaxis-labels" ><text style="width: 178px; color: rgb(96, 96, 96); font-size: 11px; cursor: default; fill: #606060;" opacity="1" text-anchor="end" x="59" y="304">0</text><text style="width: 178px; color: rgb(96, 96, 96); font-size: 11px; cursor: default; fill: #606060;" opacity="1" text-anchor="end" x="59" y="77">100</text><text style="width: 178px; color: rgb(96, 96, 96); font-size: 11px; cursor: default; fill: #606060;" opacity="1" text-anchor="end" x="59" y="247.25">25</text><text style="width: 178px; color: rgb(96, 96, 96); font-size: 11px; cursor: default; fill: #606060;" opacity="1" text-anchor="end" x="59" y="190.5">50</text><text style="width: 178px; color: rgb(96, 96, 96); font-size: 11px; cursor: default; fill: #606060;" opacity="1" text-anchor="end" x="59" y="133.75">75</text></g><g class="highcharts-tooltip" style="padding: 0px; white-space: nowrap; cursor: default;" transform="translate(0 -9999)" ><path fill="none" stroke="black" stroke-opacity="0.05" stroke-width="5" transform="translate(1 1)" d="M 3 0 L 13 0 C 16 0 16 0 16 3 L 16 13 C 16 16 16 16 13 16 L 3 16 C 0 16 0 16 0 13 L 0 3 C 0 0 0 0 3 0"  /><path fill="none" stroke="black" stroke-opacity="0.1" stroke-width="3" transform="translate(1 1)" d="M 3 0 L 13 0 C 16 0 16 0 16 3 L 16 13 C 16 16 16 16 13 16 L 3 16 C 0 16 0 16 0 13 L 0 3 C 0 0 0 0 3 0"  /><path fill="none" stroke="black" stroke-opacity="0.15" stroke-width="1" transform="translate(1 1)" d="M 3 0 L 13 0 C 16 0 16 0 16 3 L 16 13 C 16 16 16 16 13 16 L 3 16 C 0 16 0 16 0 13 L 0 3 C 0 0 0 0 3 0"  /><path fill="rgb(249, 249, 249)" fill-opacity=" 0.85" d="M 3 0 L 13 0 C 16 0 16 0 16 3 L 16 13 C 16 16 16 16 13 16 L 3 16 C 0 16 0 16 0 13 L 0 3 C 0 0 0 0 3 0" /><text style="color: rgb(51, 51, 51); font-size: 12px; fill: #333333;" x="8" y="21" ></text></g><text style="color: rgb(144, 144, 144); font-size: 9px; cursor: pointer; fill: #909090;" text-anchor="end" x="590" y="395" >Highcharts.com</text></svg>