<svg xmlns:xlink="http://www.w3.org/1999/xlink" version="1.1" style="font-family:'lucida grande', 'lucida sans unicode', arial, helvetica, sans-serif;font-size:12px;" xmlns="http://www.w3.org/2000/svg" width="600" height="400"><desc>Created with Highcharts 4.0.4</desc><defs><clipPath id="highcharts-41"><rect x="0" y="0" width="534" height="247"></rect></clipPath></defs><rect x="0" y="0" width="600" height="400" strokeWidth="0" fill="#FFFFFF" class=" highcharts-background"></rect><g class="highcharts-grid" ></g><g class="highcharts-grid" ><path fill="none" d="M 56 60.5 L 590 60.5" stroke="#C0C0C0" stroke-width="1"  opacity="1"></path><path fill="none" d="M 56 123.5 L 590 123.5" stroke="#C0C0C0" stroke-width="1"  opacity="1"></path><path fill="none" d="M 56 185.5 L 590 185.5" stroke="#C0C0C0" stroke-width="1"  opacity="1"></path><path fill="none" d="M 56 246.5 L 590 246.5" stroke="#C0C0C0" stroke-width="1"  opacity="1"></path><path fill="none" d="M 56 308.5 L 590 308.5" stroke="#C0C0C0" stroke-width="1"  opacity="1"></path></g><g class="highcharts-axis" ><path fill="none" d="M 135.5 308 L 135.5 318" stroke="#C0D0E0" stroke-width="1" opacity="1"></path><path fill="none" d="M 210.5 308 L 210.5 318" stroke="#C0D0E0" stroke-width="1" opacity="1"></path><path fill="none" d="M 285.5 308 L 285.5 318" stroke="#C0D0E0" stroke-width="1" opacity="1"></path><path fill="none" d="M 359.5 308 L 359.5 318" stroke="#C0D0E0" stroke-width="1" opacity="1"></path><path fill="none" d="M 434.5 308 L 434.5 318" stroke="#C0D0E0" stroke-width="1" opacity="1"></path><path fill="none" d="M 509.5 308 L 509.5 318" stroke="#C0D0E0" stroke-width="1" opacity="1"></path><path fill="none" d="M 584.5 308 L 584.5 318" stroke="#C0D0E0" stroke-width="1" opacity="1"></path><path fill="none" d="M 60.5 308 L 60.5 318" stroke="#C0D0E0" stroke-width="1" opacity="1"></path><text x="323"  text-anchor="middle" transform="translate(0,0)" class=" highcharts-xaxis-title" style="color:#707070;fill:#707070;" visibility="visible" y="346">Time</text><path fill="none" d="M 56 308.5 L 590 308.5" stroke="#C0D0E0" stroke-width="1"  visibility="visible"></path></g><g class="highcharts-axis" ><text x="24.046875"  text-anchor="middle" transform="translate(0,0) rotate(270 24.046875 184.5)" class=" highcharts-yaxis-title" style="color:#707070;fill:#707070;" visibility="visible" y="184.5"><tspan>Questions Correct</tspan></text></g><g class="highcharts-series-group" ><g class="highcharts-series" visibility="visible"  transform="translate(56,61) scale(1 1)" clip-path="url(#highcharts-41)"><path fill="none" d="M 5.235294117647059 247 C 5.235294117647059 247 77.03361344537817 247 124.89915966386555 247 C 160.7983193277311 247 178.74789915966386 247 214.6470588235294 247 C 268.4957983193277 247 295.4201680672269 219.44999999999996 349.2689075630252 185.25 C 373.20168067226894 170.04999999999998 385.16806722689074 151.7285714285714 409.1008403361344 123.5 C 427.0504201680672 102.32857142857141 436.02521008403363 61.75 453.97478991596637 61.75 C 483.890756302521 61.75 528.7647058823529 61.75 528.7647058823529 61.75" stroke="#9ab2d6" stroke-width="2"  stroke-linejoin="round" stroke-linecap="round"></path></g><g class="highcharts-markers" visibility="visible"  transform="translate(56,61) scale(1 1)" clip-path="none"><path fill="rgb(245, 64, 50)" d="M 528 57.75 C 533.328 57.75 533.328 65.75 528 65.75 C 522.672 65.75 522.672 57.75 528 57.75 Z"></path><path fill="rgb(8, 243, 53)" d="M 453 57.75 C 458.328 57.75 458.328 65.75 453 65.75 C 447.672 65.75 447.672 57.75 453 57.75 Z"></path><path fill="rgb(8, 243, 53)" d="M 409 119.5 C 414.328 119.5 414.328 127.5 409 127.5 C 403.672 127.5 403.672 119.5 409 119.5 Z"></path><path fill="rgb(8, 243, 53)" d="M 349 181.25 C 354.328 181.25 354.328 189.25 349 189.25 C 343.672 189.25 343.672 181.25 349 181.25 Z"></path><path fill="rgb(245, 64, 50)" d="M 214 243 C 219.328 243 219.328 251 214 251 C 208.672 251 208.672 243 214 243 Z"></path><path fill="rgb(245, 64, 50)" d="M 124 243 C 129.328 243 129.328 251 124 251 C 118.672 251 118.672 243 124 243 Z"></path><path fill="rgb(245, 64, 50)" d="M 5 243 C 10.328 243 10.328 251 5 251 C -0.32800000000000007 251 -0.32800000000000007 243 5 243 Z"></path></g></g><text x="300" text-anchor="middle" class="highcharts-title"  style="color:#333333;font-size:18px;fill:#333333;width:536px;" y="25"><tspan>Questions Correct Over Time</tspan></text><text x="300" text-anchor="middle" class="highcharts-subtitle"  style="color:#555555;fill:#555555;width:536px;" y="47"><tspan>Click and drag in the plot area to zoom in</tspan></text><g class="highcharts-legend"  transform="translate(254,368)"><g ><g><g class="highcharts-legend-item"  transform="translate(8,3)"><path fill="none" d="M 0 11 L 16 11" stroke="#9ab2d6" stroke-width="2"></path><path fill="#9ab2d6" d="M 8 7 C 13.328 7 13.328 15 8 15 C 2.6719999999999997 15 2.6719999999999997 7 8 7 Z"></path><text x="21" style="color:#333333;font-size:12px;font-weight:bold;cursor:pointer;fill:#333333;" text-anchor="start"  y="15">Questions</text></g></g></g></g><g class="highcharts-axis-labels highcharts-xaxis-labels" ><text x="61.23529411764706" text-anchor="middle" style="color:#606060;cursor:default;font-size:11px;fill:#606060;" y="328" opacity="1"><tspan>05:26 PM</tspan></text><text x="136.0252100840336" text-anchor="middle" style="color:#606060;cursor:default;font-size:11px;fill:#606060;" y="328" opacity="1"><tspan>05:26 PM</tspan></text><text x="210.81512605042016" text-anchor="middle" style="color:#606060;cursor:default;font-size:11px;fill:#606060;" y="328" opacity="1"><tspan>05:26 PM</tspan></text><text x="285.6050420168067" text-anchor="middle" style="color:#606060;cursor:default;font-size:11px;fill:#606060;" y="328" opacity="1"><tspan>05:26 PM</tspan></text><text x="360.39495798319325" text-anchor="middle" style="color:#606060;cursor:default;font-size:11px;fill:#606060;" y="328" opacity="1"><tspan>05:27 PM</tspan></text><text x="435.1848739495798" text-anchor="middle" style="color:#606060;cursor:default;font-size:11px;fill:#606060;" y="328" opacity="1"><tspan>05:27 PM</tspan></text><text x="509.97478991596637" text-anchor="middle" style="color:#606060;cursor:default;font-size:11px;fill:#606060;" y="328" opacity="1"><tspan>05:27 PM</tspan></text><text x="574.8359375" text-anchor="middle" style="color:#606060;cursor:default;font-size:11px;fill:#606060;" y="328" opacity="1"><tspan>05:27 PM</tspan></text></g><g class="highcharts-axis-labels highcharts-yaxis-labels" ><text x="41" text-anchor="end" style="width:178px;color:#606060;cursor:default;font-size:11px;fill:#606060;" y="313.5" opacity="1">0</text><text x="41" text-anchor="end" style="width:178px;color:#606060;cursor:default;font-size:11px;fill:#606060;" y="251.75" opacity="1">1</text><text x="41" text-anchor="end" style="width:178px;color:#606060;cursor:default;font-size:11px;fill:#606060;" y="190" opacity="1">2</text><text x="41" text-anchor="end" style="width:178px;color:#606060;cursor:default;font-size:11px;fill:#606060;" y="128.25" opacity="1">3</text><text x="41" text-anchor="end" style="width:178px;color:#606060;cursor:default;font-size:11px;fill:#606060;" y="66.5" opacity="1">4</text></g><g class="highcharts-tooltip"  style="cursor:default;padding:0;white-space:nowrap;" transform="translate(0,-9999)"><path fill="none" d="M 3 0 L 13 0 C 16 0 16 0 16 3 L 16 13 C 16 16 16 16 13 16 L 3 16 C 0 16 0 16 0 13 L 0 3 C 0 0 0 0 3 0"  stroke="black" stroke-opacity="0.049999999999999996" stroke-width="5" transform="translate(1, 1)"></path><path fill="none" d="M 3 0 L 13 0 C 16 0 16 0 16 3 L 16 13 C 16 16 16 16 13 16 L 3 16 C 0 16 0 16 0 13 L 0 3 C 0 0 0 0 3 0"  stroke="black" stroke-opacity="0.09999999999999999" stroke-width="3" transform="translate(1, 1)"></path><path fill="none" d="M 3 0 L 13 0 C 16 0 16 0 16 3 L 16 13 C 16 16 16 16 13 16 L 3 16 C 0 16 0 16 0 13 L 0 3 C 0 0 0 0 3 0"  stroke="black" stroke-opacity="0.15" stroke-width="1" transform="translate(1, 1)"></path><path fill="rgb(249, 249, 249)" fill-opacity=" .85" d="M 3 0 L 13 0 C 16 0 16 0 16 3 L 16 13 C 16 16 16 16 13 16 L 3 16 C 0 16 0 16 0 13 L 0 3 C 0 0 0 0 3 0"></path><text x="8"  style="font-size:12px;color:#333333;fill:#333333;" y="21"></text></g><text x="590" text-anchor="end"  style="cursor:pointer;color:#909090;font-size:9px;fill:#909090;" y="395">Highcharts.com</text></svg>