<svg xmlns:xlink="http://www.w3.org/1999/xlink" version="1.1" style="font-family:'lucida grande', 'lucida sans unicode', arial, helvetica, sans-serif;font-size:12px;" xmlns="http://www.w3.org/2000/svg" width="600" height="400"><desc>Created with Highcharts 4.0.4</desc><defs><clipPath id="highcharts-53"><rect x="0" y="0" width="532" height="244"></rect></clipPath></defs><rect x="0" y="0" width="600" height="400" strokeWidth="0" fill="#FFFFFF" class=" highcharts-background"></rect><g class="highcharts-grid" ></g><g class="highcharts-grid" ><path fill="none" d="M 58 60.5 L 590 60.5" stroke="#C0C0C0" stroke-width="1"  opacity="1"></path><path fill="none" d="M 58 110.5 L 590 110.5" stroke="#C0C0C0" stroke-width="1"  opacity="1"></path><path fill="none" d="M 58 159.5 L 590 159.5" stroke="#C0C0C0" stroke-width="1"  opacity="1"></path><path fill="none" d="M 58 207.5 L 590 207.5" stroke="#C0C0C0" stroke-width="1"  opacity="1"></path><path fill="none" d="M 58 256.5 L 590 256.5" stroke="#C0C0C0" stroke-width="1"  opacity="1"></path><path fill="none" d="M 58 305.5 L 590 305.5" stroke="#C0C0C0" stroke-width="1"  opacity="1"></path></g><g class="highcharts-axis" ><path fill="none" d="M 220.5 305 L 220.5 315" stroke="#C0D0E0" stroke-width="1" opacity="1"></path><path fill="none" d="M 310.5 305 L 310.5 315" stroke="#C0D0E0" stroke-width="1" opacity="1"></path><path fill="none" d="M 399.5 305 L 399.5 315" stroke="#C0D0E0" stroke-width="1" opacity="1"></path><path fill="none" d="M 488.5 305 L 488.5 315" stroke="#C0D0E0" stroke-width="1" opacity="1"></path><path fill="none" d="M 578.5 305 L 578.5 315" stroke="#C0D0E0" stroke-width="1" opacity="1"></path><path fill="none" d="M 131.5 305 L 131.5 315" stroke="#C0D0E0" stroke-width="1" opacity="1"></path><text x="324"  text-anchor="middle" transform="translate(0,0)" class=" highcharts-xaxis-title" style="color:#707070;fill:#707070;" visibility="visible" y="344">Time</text><path fill="none" d="M 58 305.5 L 590 305.5" stroke="#C0D0E0" stroke-width="1"  visibility="visible"></path></g><g class="highcharts-axis" ><text x="25"  text-anchor="middle" transform="translate(0,0) rotate(270 25 183)" class=" highcharts-yaxis-title" style="color:#707070;fill:#707070;" visibility="visible" y="183"><tspan>Questions Correct</tspan></text></g><g class="highcharts-series-group" ><g class="highcharts-series" visibility="visible"  transform="translate(58,61) scale(1 1)" clip-path="url(#highcharts-53)"><path fill="none" d="M 5.215686274509804 244 C 5.215686274509804 244 39.1921568627451 244 61.84313725490196 244 C 70.18823529411765 244 74.36078431372549 211.27529411764704 82.70588235294117 195.2 C 94.62745098039215 172.23529411764704 100.58823529411765 146.4 112.50980392156863 146.4 C 223.38039215686277 146.4 278.8156862745098 146.4 389.6862745098039 146.4 C 401.6078431372549 146.4 407.56862745098044 146.4 419.4901960784314 146.4 C 436.18039215686275 146.4 444.5254901960785 126.36631578947372 461.21568627450984 97.60000000000002 C 467.1764705882353 87.3263157894737 470.15686274509807 48.80000000000001 476.11764705882354 48.80000000000001 C 496.3843137254902 48.80000000000001 526.7843137254902 48.80000000000001 526.7843137254902 48.80000000000001" stroke="#9ab2d6" stroke-width="2"  stroke-linejoin="round" stroke-linecap="round"></path></g><g class="highcharts-markers" visibility="visible"  transform="translate(58,61) scale(1 1)" clip-path="none"><path fill="rgb(245, 64, 50)" d="M 526 44.80000000000001 C 531.328 44.80000000000001 531.328 52.80000000000001 526 52.80000000000001 C 520.672 52.80000000000001 520.672 44.80000000000001 526 44.80000000000001 Z"></path><path fill="rgb(8, 243, 53)" d="M 476 44.80000000000001 C 481.328 44.80000000000001 481.328 52.80000000000001 476 52.80000000000001 C 470.672 52.80000000000001 470.672 44.80000000000001 476 44.80000000000001 Z"></path><path fill="rgb(8, 243, 53)" d="M 461 93.60000000000002 C 466.328 93.60000000000002 466.328 101.60000000000002 461 101.60000000000002 C 455.672 101.60000000000002 455.672 93.60000000000002 461 93.60000000000002 Z"></path><path fill="rgb(245, 64, 50)" d="M 419 142.4 C 424.328 142.4 424.328 150.4 419 150.4 C 413.672 150.4 413.672 142.4 419 142.4 Z"></path><path fill="rgb(245, 64, 50)" d="M 389 142.4 C 394.328 142.4 394.328 150.4 389 150.4 C 383.672 150.4 383.672 142.4 389 142.4 Z"></path><path fill="rgb(8, 243, 53)" d="M 112 142.4 C 117.328 142.4 117.328 150.4 112 150.4 C 106.672 150.4 106.672 142.4 112 142.4 Z"></path><path fill="rgb(8, 243, 53)" d="M 82 191.2 C 87.328 191.2 87.328 199.2 82 199.2 C 76.672 199.2 76.672 191.2 82 191.2 Z"></path><path fill="rgb(245, 64, 50)" d="M 61 240 C 66.328 240 66.328 248 61 248 C 55.672 248 55.672 240 61 240 Z"></path><path fill="rgb(245, 64, 50)" d="M 5 240 C 10.328 240 10.328 248 5 248 C -0.32800000000000007 248 -0.32800000000000007 240 5 240 Z"></path></g></g><text x="300" text-anchor="middle" class="highcharts-title"  style="color:#333333;font-size:18px;fill:#333333;width:536px;" y="25"><tspan>Questions Correct Over Time</tspan></text><text x="300" text-anchor="middle" class="highcharts-subtitle"  style="color:#555555;fill:#555555;width:536px;" y="46"><tspan>Click and drag in the plot area to zoom in</tspan></text><g class="highcharts-legend"  transform="translate(256,367)"><g ><g><g class="highcharts-legend-item"  transform="translate(8,3)"><path fill="none" d="M 0 11 L 16 11" stroke="#9ab2d6" stroke-width="2"></path><path fill="#9ab2d6" d="M 8 7 C 13.328 7 13.328 15 8 15 C 2.6719999999999997 15 2.6719999999999997 7 8 7 Z"></path><text x="21" style="color:#333333;font-size:12px;font-weight:bold;cursor:pointer;fill:#333333;" text-anchor="start"  y="15">Questions</text></g></g></g></g><g class="highcharts-axis-labels highcharts-xaxis-labels" ><text x="131.76470588235293" text-anchor="middle" style="color:#606060;cursor:default;font-size:11px;fill:#606060;" y="325" opacity="1"><tspan>01:47 PM</tspan></text><text x="221.1764705882353" text-anchor="middle" style="color:#606060;cursor:default;font-size:11px;fill:#606060;" y="325" opacity="1"><tspan>01:47 PM</tspan></text><text x="310.5882352941177" text-anchor="middle" style="color:#606060;cursor:default;font-size:11px;fill:#606060;" y="325" opacity="1"><tspan>01:48 PM</tspan></text><text x="400" text-anchor="middle" style="color:#606060;cursor:default;font-size:11px;fill:#606060;" y="325" opacity="1"><tspan>01:48 PM</tspan></text><text x="489.4117647058824" text-anchor="middle" style="color:#606060;cursor:default;font-size:11px;fill:#606060;" y="325" opacity="1"><tspan>01:49 PM</tspan></text><text x="576" text-anchor="middle" style="color:#606060;cursor:default;font-size:11px;fill:#606060;" y="325" opacity="1"><tspan>01:49 PM</tspan></text></g><g class="highcharts-axis-labels highcharts-yaxis-labels" ><text x="43" text-anchor="end" style="width:178px;color:#606060;cursor:default;font-size:11px;fill:#606060;" y="310" opacity="1">0</text><text x="43" text-anchor="end" style="width:178px;color:#606060;cursor:default;font-size:11px;fill:#606060;" y="261.2" opacity="1">1</text><text x="43" text-anchor="end" style="width:178px;color:#606060;cursor:default;font-size:11px;fill:#606060;" y="212.39999999999998" opacity="1">2</text><text x="43" text-anchor="end" style="width:178px;color:#606060;cursor:default;font-size:11px;fill:#606060;" y="163.60000000000002" opacity="1">3</text><text x="43" text-anchor="end" style="width:178px;color:#606060;cursor:default;font-size:11px;fill:#606060;" y="114.80000000000001" opacity="1">4</text><text x="43" text-anchor="end" style="width:178px;color:#606060;cursor:default;font-size:11px;fill:#606060;" y="66" opacity="1">5</text></g><g class="highcharts-tooltip"  style="cursor:default;padding:0;white-space:nowrap;" transform="translate(0,-9999)"><path fill="none" d="M 3 0 L 13 0 C 16 0 16 0 16 3 L 16 13 C 16 16 16 16 13 16 L 3 16 C 0 16 0 16 0 13 L 0 3 C 0 0 0 0 3 0"  stroke="black" stroke-opacity="0.049999999999999996" stroke-width="5" transform="translate(1, 1)"></path><path fill="none" d="M 3 0 L 13 0 C 16 0 16 0 16 3 L 16 13 C 16 16 16 16 13 16 L 3 16 C 0 16 0 16 0 13 L 0 3 C 0 0 0 0 3 0"  stroke="black" stroke-opacity="0.09999999999999999" stroke-width="3" transform="translate(1, 1)"></path><path fill="none" d="M 3 0 L 13 0 C 16 0 16 0 16 3 L 16 13 C 16 16 16 16 13 16 L 3 16 C 0 16 0 16 0 13 L 0 3 C 0 0 0 0 3 0"  stroke="black" stroke-opacity="0.15" stroke-width="1" transform="translate(1, 1)"></path><path fill="rgb(249, 249, 249)" fill-opacity=" .85" d="M 3 0 L 13 0 C 16 0 16 0 16 3 L 16 13 C 16 16 16 16 13 16 L 3 16 C 0 16 0 16 0 13 L 0 3 C 0 0 0 0 3 0"></path><text x="8"  style="font-size:12px;color:#333333;fill:#333333;" y="21"></text></g><text x="590" text-anchor="end"  style="cursor:pointer;color:#909090;font-size:9px;fill:#909090;" y="395">Highcharts.com</text></svg>