<svg xmlns:xlink="http://www.w3.org/1999/xlink" version="1.1" style="font-family:'lucida grande', 'lucida sans unicode', arial, helvetica, sans-serif;font-size:12px;" xmlns="http://www.w3.org/2000/svg" width="600" height="400"><desc>Created with Highcharts 4.0.4</desc><defs><clipPath id="highcharts-59"><rect x="0" y="0" width="519" height="223"></rect></clipPath></defs><rect x="0" y="0" width="600" height="400" strokeWidth="0" fill="#FFFFFF" class=" highcharts-background"></rect><g class="highcharts-grid" ></g><g class="highcharts-grid" ><path fill="none" d="M 71 71.5 L 590 71.5" stroke="#C0C0C0" stroke-width="1"  opacity="1"></path><path fill="none" d="M 71 128.5 L 590 128.5" stroke="#C0C0C0" stroke-width="1"  opacity="1"></path><path fill="none" d="M 71 184.5 L 590 184.5" stroke="#C0C0C0" stroke-width="1"  opacity="1"></path><path fill="none" d="M 71 239.5 L 590 239.5" stroke="#C0C0C0" stroke-width="1"  opacity="1"></path><path fill="none" d="M 71 295.5 L 590 295.5" stroke="#C0C0C0" stroke-width="1"  opacity="1"></path></g><g class="highcharts-axis" ><path fill="none" d="M 166.5 295 L 166.5 305" stroke="#C0D0E0" stroke-width="1" opacity="1"></path><path fill="none" d="M 241.5 295 L 241.5 305" stroke="#C0D0E0" stroke-width="1" opacity="1"></path><path fill="none" d="M 315.5 295 L 315.5 305" stroke="#C0D0E0" stroke-width="1" opacity="1"></path><path fill="none" d="M 389.5 295 L 389.5 305" stroke="#C0D0E0" stroke-width="1" opacity="1"></path><path fill="none" d="M 463.5 295 L 463.5 305" stroke="#C0D0E0" stroke-width="1" opacity="1"></path><path fill="none" d="M 537.5 295 L 537.5 305" stroke="#C0D0E0" stroke-width="1" opacity="1"></path><path fill="none" d="M 92.5 295 L 92.5 305" stroke="#C0D0E0" stroke-width="1" opacity="1"></path><text x="330.5"  text-anchor="middle" transform="translate(0,0)" class=" highcharts-xaxis-title" style="color:#707070;fill:#707070;" visibility="visible" y="336.671875">Time</text><path fill="none" d="M 71 295.5 L 590 295.5" stroke="#C0D0E0" stroke-width="1"  visibility="visible"></path></g><g class="highcharts-axis" ><text x="28.59375"  text-anchor="middle" transform="translate(0,0) rotate(270 28.59375 183.5)" class=" highcharts-yaxis-title" style="color:#707070;fill:#707070;" visibility="visible" y="183.5"><tspan>Questions Correct</tspan></text></g><g class="highcharts-series-group" ><g class="highcharts-series" visibility="visible"  transform="translate(71,72) scale(1 1)" clip-path="url(#highcharts-59)"><path fill="none" d="M 5.088235294117647 200.7 C 5.088235294117647 200.7 21.390348372358652 182.48833333333334 32.258423757852654 178.4 C 68.81467732724158 164.64833333333337 87.09280411193603 167.68035087719295 123.64905768132496 156.1 C 143.4091947458595 149.84035087719298 153.28926327812678 144.2941176470588 173.04940034266133 133.8 C 186.88149628783555 126.45411764705884 193.79754426042263 116.04109090909091 207.62964020559681 111.5 C 248.1379211878926 98.20109090909091 268.3920616790405 89.19999999999999 308.90034266133637 89.19999999999999 C 351.38463735008565 89.19999999999999 372.6267846944603 89.19999999999999 415.1110793832096 89.19999999999999 C 424.00314106225017 89.19999999999999 428.4491719017704 75.82000000000002 437.341233580811 66.9 C 446.23329525985156 57.980000000000004 450.6793260993718 49.779354838709665 459.5713877784123 44.599999999999994 C 481.3075385494003 31.939354838709654 513.9117647058823 22.299999999999983 513.9117647058823 22.299999999999983" stroke="#9ab2d6" stroke-width="2"  stroke-linejoin="round" stroke-linecap="round"></path></g><g class="highcharts-markers" visibility="visible"  transform="translate(71,72) scale(1 1)" clip-path="none"><path fill="rgb(8, 243, 53)" d="M 513 18.299999999999983 C 518.328 18.299999999999983 518.328 26.299999999999983 513 26.299999999999983 C 507.672 26.299999999999983 507.672 18.299999999999983 513 18.299999999999983 Z"></path><path fill="rgb(8, 243, 53)" d="M 459 40.599999999999994 C 464.328 40.599999999999994 464.328 48.599999999999994 459 48.599999999999994 C 453.672 48.599999999999994 453.672 40.599999999999994 459 40.599999999999994 Z"></path><path fill="rgb(8, 243, 53)" d="M 437 62.900000000000006 C 442.328 62.900000000000006 442.328 70.9 437 70.9 C 431.672 70.9 431.672 62.900000000000006 437 62.900000000000006 Z"></path><path fill="rgb(245, 64, 50)" d="M 415 85.19999999999999 C 420.328 85.19999999999999 420.328 93.19999999999999 415 93.19999999999999 C 409.672 93.19999999999999 409.672 85.19999999999999 415 85.19999999999999 Z"></path><path fill="rgb(8, 243, 53)" d="M 308 85.19999999999999 C 313.328 85.19999999999999 313.328 93.19999999999999 308 93.19999999999999 C 302.672 93.19999999999999 302.672 85.19999999999999 308 85.19999999999999 Z"></path><path fill="rgb(8, 243, 53)" d="M 207 107.5 C 212.328 107.5 212.328 115.5 207 115.5 C 201.672 115.5 201.672 107.5 207 107.5 Z"></path><path fill="rgb(8, 243, 53)" d="M 173 129.8 C 178.328 129.8 178.328 137.8 173 137.8 C 167.672 137.8 167.672 129.8 173 129.8 Z"></path><path fill="rgb(8, 243, 53)" d="M 123 152.1 C 128.328 152.1 128.328 160.1 123 160.1 C 117.672 160.1 117.672 152.1 123 152.1 Z"></path><path fill="rgb(8, 243, 53)" d="M 32 174.4 C 37.328 174.4 37.328 182.4 32 182.4 C 26.672 182.4 26.672 174.4 32 174.4 Z"></path><path fill="rgb(8, 243, 53)" d="M 5 196.7 C 10.328 196.7 10.328 204.7 5 204.7 C -0.32800000000000007 204.7 -0.32800000000000007 196.7 5 196.7 Z"></path></g></g><text x="300" text-anchor="middle" class="highcharts-title"  style="color:#333333;font-size:18px;fill:#333333;width:536px;" y="25"><tspan>Questions Correct Over Time</tspan></text><text x="300" text-anchor="middle" class="highcharts-subtitle"  style="color:#555555;fill:#555555;width:536px;" y="53"><tspan>Click and drag in the plot area to zoom in</tspan></text><g class="highcharts-legend"  transform="translate(255,363)"><g ><g><g class="highcharts-legend-item"  transform="translate(8,3)"><path fill="none" d="M 0 11 L 16 11" stroke="#9ab2d6" stroke-width="2"></path><path fill="#9ab2d6" d="M 8 7 C 13.328 7 13.328 15 8 15 C 2.6719999999999997 15 2.6719999999999997 7 8 7 Z"></path><text x="21" style="color:#333333;font-size:12px;font-weight:bold;cursor:pointer;fill:#333333;" text-anchor="start"  y="15">Questions</text></g></g></g></g><g class="highcharts-axis-labels highcharts-xaxis-labels" ><text x="93.37835522558538" text-anchor="middle" style="color:#606060;cursor:default;font-size:11px;fill:#606060;" y="315" opacity="1"><tspan>01:46 AM</tspan></text><text x="167.47886921758993" text-anchor="middle" style="color:#606060;cursor:default;font-size:11px;fill:#606060;" y="315" opacity="1"><tspan>01:47 AM</tspan></text><text x="241.5793832095945" text-anchor="middle" style="color:#606060;cursor:default;font-size:11px;fill:#606060;" y="315" opacity="1"><tspan>01:47 AM</tspan></text><text x="315.6798972015991" text-anchor="middle" style="color:#606060;cursor:default;font-size:11px;fill:#606060;" y="315" opacity="1"><tspan>01:48 AM</tspan></text><text x="389.78041119360364" text-anchor="middle" style="color:#606060;cursor:default;font-size:11px;fill:#606060;" y="315" opacity="1"><tspan>01:48 AM</tspan></text><text x="463.88092518560825" text-anchor="middle" style="color:#606060;cursor:default;font-size:11px;fill:#606060;" y="315" opacity="1"><tspan>01:49 AM</tspan></text><text x="537.9814391776129" text-anchor="middle" style="color:#606060;cursor:default;font-size:11px;fill:#606060;" y="315" opacity="1"><tspan>01:49 AM</tspan></text></g><g class="highcharts-axis-labels highcharts-yaxis-labels" ><text x="56" text-anchor="end" style="width:178px;color:#606060;cursor:default;font-size:11px;fill:#606060;" y="298.6640625" opacity="1">0</text><text x="56" text-anchor="end" style="width:178px;color:#606060;cursor:default;font-size:11px;fill:#606060;" y="75.6640625" opacity="1">10</text><text x="56" text-anchor="end" style="width:178px;color:#606060;cursor:default;font-size:11px;fill:#606060;" y="242.9140625" opacity="1">2.5</text><text x="56" text-anchor="end" style="width:178px;color:#606060;cursor:default;font-size:11px;fill:#606060;" y="187.1640625" opacity="1">5</text><text x="56" text-anchor="end" style="width:178px;color:#606060;cursor:default;font-size:11px;fill:#606060;" y="131.4140625" opacity="1">7.5</text></g><g class="highcharts-tooltip"  style="cursor:default;padding:0;white-space:nowrap;" transform="translate(0,-9999)"><path fill="none" d="M 3 0 L 13 0 C 16 0 16 0 16 3 L 16 13 C 16 16 16 16 13 16 L 3 16 C 0 16 0 16 0 13 L 0 3 C 0 0 0 0 3 0"  stroke="black" stroke-opacity="0.049999999999999996" stroke-width="5" transform="translate(1, 1)"></path><path fill="none" d="M 3 0 L 13 0 C 16 0 16 0 16 3 L 16 13 C 16 16 16 16 13 16 L 3 16 C 0 16 0 16 0 13 L 0 3 C 0 0 0 0 3 0"  stroke="black" stroke-opacity="0.09999999999999999" stroke-width="3" transform="translate(1, 1)"></path><path fill="none" d="M 3 0 L 13 0 C 16 0 16 0 16 3 L 16 13 C 16 16 16 16 13 16 L 3 16 C 0 16 0 16 0 13 L 0 3 C 0 0 0 0 3 0"  stroke="black" stroke-opacity="0.15" stroke-width="1" transform="translate(1, 1)"></path><path fill="rgb(249, 249, 249)" fill-opacity=" .85" d="M 3 0 L 13 0 C 16 0 16 0 16 3 L 16 13 C 16 16 16 16 13 16 L 3 16 C 0 16 0 16 0 13 L 0 3 C 0 0 0 0 3 0"></path><text x="8"  style="font-size:12px;color:#333333;fill:#333333;" y="21"></text></g><text x="590" text-anchor="end"  style="cursor:pointer;color:#909090;font-size:9px;fill:#909090;" y="395">Highcharts.com</text></svg>