<svg xmlns:xlink="http://www.w3.org/1999/xlink" version="1.1" style="font-family:'lucida grande', 'lucida sans unicode', arial, helvetica, sans-serif;font-size:12px;" xmlns="http://www.w3.org/2000/svg" width="600" height="400"><desc>Created with Highcharts 4.0.4</desc><defs><clipPath id="highcharts-23"><rect x="0" y="0" width="535" height="249"></rect></clipPath></defs><rect x="0" y="0" width="600" height="400" strokeWidth="0" fill="#FFFFFF" class=" highcharts-background"></rect><g class="highcharts-grid" ></g><g class="highcharts-grid" ><path fill="none" d="M 55 59.5 L 590 59.5" stroke="#C0C0C0" stroke-width="1"  opacity="1"></path><path fill="none" d="M 55 122.5 L 590 122.5" stroke="#C0C0C0" stroke-width="1"  opacity="1"></path><path fill="none" d="M 55 185.5 L 590 185.5" stroke="#C0C0C0" stroke-width="1"  opacity="1"></path><path fill="none" d="M 55 247.5 L 590 247.5" stroke="#C0C0C0" stroke-width="1"  opacity="1"></path><path fill="none" d="M 55 309.5 L 590 309.5" stroke="#C0C0C0" stroke-width="1"  opacity="1"></path></g><g class="highcharts-axis" ><path fill="none" d="M 160.5 309 L 160.5 319" stroke="#C0D0E0" stroke-width="1" opacity="1"></path><path fill="none" d="M 239.5 309 L 239.5 319" stroke="#C0D0E0" stroke-width="1" opacity="1"></path><path fill="none" d="M 319.5 309 L 319.5 319" stroke="#C0D0E0" stroke-width="1" opacity="1"></path><path fill="none" d="M 398.5 309 L 398.5 319" stroke="#C0D0E0" stroke-width="1" opacity="1"></path><path fill="none" d="M 478.5 309 L 478.5 319" stroke="#C0D0E0" stroke-width="1" opacity="1"></path><path fill="none" d="M 557.5 309 L 557.5 319" stroke="#C0D0E0" stroke-width="1" opacity="1"></path><path fill="none" d="M 80.5 309 L 80.5 319" stroke="#C0D0E0" stroke-width="1" opacity="1"></path><text x="322.5"  text-anchor="middle" transform="translate(0,0)" class=" highcharts-xaxis-title" style="color:#707070;fill:#707070;" visibility="visible" y="346.34375">Time</text><path fill="none" d="M 55 309.5 L 590 309.5" stroke="#C0D0E0" stroke-width="1"  visibility="visible"></path></g><g class="highcharts-axis" ><text x="23.875"  text-anchor="middle" transform="translate(0,0) rotate(270 23.875 184.5)" class=" highcharts-yaxis-title" style="color:#707070;fill:#707070;" visibility="visible" y="184.5"><tspan>Questions Correct</tspan></text></g><g class="highcharts-series-group" ><g class="highcharts-series" visibility="visible"  transform="translate(55,60) scale(1 1)" clip-path="url(#highcharts-23)"><path fill="none" d="M 5.245098039215686 186.75 C 5.245098039215686 186.75 81.53743315508021 186.75 132.3989898989899 186.75 C 181.14131511190334 186.75 205.51247771836006 124.5 254.2548029312735 124.5 C 275.4471182412359 124.5 286.0432758962171 124.5 307.23559120617944 124.5 C 366.5740740740741 124.5 396.24331550802134 124.5 455.581798375916 124.5 C 485.2510398098633 124.5 529.7549019607843 62.25 529.7549019607843 62.25" stroke="#9ab2d6" stroke-width="2"  stroke-linejoin="round" stroke-linecap="round"></path></g><g class="highcharts-markers" visibility="visible"  transform="translate(55,60) scale(1 1)" clip-path="none"><path fill="rgb(8, 243, 53)" d="M 529 58.25 C 534.328 58.25 534.328 66.25 529 66.25 C 523.672 66.25 523.672 58.25 529 58.25 Z"></path><path fill="rgb(245, 64, 50)" d="M 455 120.5 C 460.328 120.5 460.328 128.5 455 128.5 C 449.672 128.5 449.672 120.5 455 120.5 Z"></path><path fill="rgb(245, 64, 50)" d="M 307 120.5 C 312.328 120.5 312.328 128.5 307 128.5 C 301.672 128.5 301.672 120.5 307 120.5 Z"></path><path fill="rgb(8, 243, 53)" d="M 254 120.5 C 259.328 120.5 259.328 128.5 254 128.5 C 248.672 128.5 248.672 120.5 254 120.5 Z"></path><path fill="rgb(245, 64, 50)" d="M 132 182.75 C 137.328 182.75 137.328 190.75 132 190.75 C 126.672 190.75 126.672 182.75 132 182.75 Z"></path><path fill="rgb(8, 243, 53)" d="M 5 182.75 C 10.328 182.75 10.328 190.75 5 190.75 C -0.32800000000000007 190.75 -0.32800000000000007 182.75 5 182.75 Z"></path></g></g><text x="300" text-anchor="middle" class="highcharts-title"  style="color:#333333;font-size:18px;fill:#333333;width:536px;" y="25"><tspan>Questions Correct Over Time</tspan></text><text x="300" text-anchor="middle" class="highcharts-subtitle"  style="color:#555555;fill:#555555;width:536px;" y="45"><tspan>Pinch the chart to zoom in</tspan></text><g class="highcharts-legend"  transform="translate(256,368)"><g ><g><g class="highcharts-legend-item"  transform="translate(8,3)"><path fill="none" d="M 0 11 L 16 11" stroke="#9ab2d6" stroke-width="2"></path><path fill="#9ab2d6" d="M 8 7 C 13.328 7 13.328 15 8 15 C 2.6719999999999997 15 2.6719999999999997 7 8 7 Z"></path><text x="21" style="color:#333333;font-size:12px;font-weight:bold;cursor:pointer;fill:#333333;" text-anchor="start"  y="15">Questions</text></g></g></g></g><g class="highcharts-axis-labels highcharts-xaxis-labels" ><text x="81.43741334917806" text-anchor="middle" style="color:#606060;cursor:default;font-size:11px;fill:#606060;" y="329" opacity="1"><tspan>08:17 AM</tspan></text><text x="160.90859576153693" text-anchor="middle" style="color:#606060;cursor:default;font-size:11px;fill:#606060;" y="329" opacity="1"><tspan>08:17 AM</tspan></text><text x="240.3797781738958" text-anchor="middle" style="color:#606060;cursor:default;font-size:11px;fill:#606060;" y="329" opacity="1"><tspan>08:17 AM</tspan></text><text x="319.8509605862547" text-anchor="middle" style="color:#606060;cursor:default;font-size:11px;fill:#606060;" y="329" opacity="1"><tspan>08:18 AM</tspan></text><text x="399.3221429986136" text-anchor="middle" style="color:#606060;cursor:default;font-size:11px;fill:#606060;" y="329" opacity="1"><tspan>08:18 AM</tspan></text><text x="478.79332541097244" text-anchor="middle" style="color:#606060;cursor:default;font-size:11px;fill:#606060;" y="329" opacity="1"><tspan>08:18 AM</tspan></text><text x="558.2645078233313" text-anchor="middle" style="color:#606060;cursor:default;font-size:11px;fill:#606060;" y="329" opacity="1"><tspan>08:18 AM</tspan></text></g><g class="highcharts-axis-labels highcharts-yaxis-labels" ><text x="40" text-anchor="end" style="width:178px;color:#606060;cursor:default;font-size:11px;fill:#606060;" y="314.828125" opacity="1">0</text><text x="40" text-anchor="end" style="width:178px;color:#606060;cursor:default;font-size:11px;fill:#606060;" y="252.578125" opacity="1">1</text><text x="40" text-anchor="end" style="width:178px;color:#606060;cursor:default;font-size:11px;fill:#606060;" y="190.328125" opacity="1">2</text><text x="40" text-anchor="end" style="width:178px;color:#606060;cursor:default;font-size:11px;fill:#606060;" y="128.078125" opacity="1">3</text><text x="40" text-anchor="end" style="width:178px;color:#606060;cursor:default;font-size:11px;fill:#606060;" y="65.828125" opacity="1">4</text></g><g class="highcharts-tooltip"  style="cursor:default;padding:0;white-space:nowrap;" transform="translate(0,-9999)"><path fill="none" d="M 3 0 L 13 0 C 16 0 16 0 16 3 L 16 13 C 16 16 16 16 13 16 L 3 16 C 0 16 0 16 0 13 L 0 3 C 0 0 0 0 3 0"  stroke="black" stroke-opacity="0.049999999999999996" stroke-width="5" transform="translate(1, 1)"></path><path fill="none" d="M 3 0 L 13 0 C 16 0 16 0 16 3 L 16 13 C 16 16 16 16 13 16 L 3 16 C 0 16 0 16 0 13 L 0 3 C 0 0 0 0 3 0"  stroke="black" stroke-opacity="0.09999999999999999" stroke-width="3" transform="translate(1, 1)"></path><path fill="none" d="M 3 0 L 13 0 C 16 0 16 0 16 3 L 16 13 C 16 16 16 16 13 16 L 3 16 C 0 16 0 16 0 13 L 0 3 C 0 0 0 0 3 0"  stroke="black" stroke-opacity="0.15" stroke-width="1" transform="translate(1, 1)"></path><path fill="rgb(249, 249, 249)" fill-opacity=" .85" d="M 3 0 L 13 0 C 16 0 16 0 16 3 L 16 13 C 16 16 16 16 13 16 L 3 16 C 0 16 0 16 0 13 L 0 3 C 0 0 0 0 3 0"></path><text x="8"  style="font-size:12px;color:#333333;fill:#333333;" y="21"></text></g><text x="590" text-anchor="end"  style="cursor:pointer;color:#909090;font-size:9px;fill:#909090;" y="395">Highcharts.com</text></svg>