<svg xmlns:xlink="http://www.w3.org/1999/xlink" version="1.1" style="font-family:'lucida grande', 'lucida sans unicode', arial, helvetica, sans-serif;font-size:12px;" xmlns="http://www.w3.org/2000/svg" width="600" height="400"><desc>Created with Highcharts 4.0.4</desc><defs><clipPath id="highcharts-155"><rect x="0" y="0" width="520" height="225"></rect></clipPath></defs><rect x="0" y="0" width="600" height="400" strokeWidth="0" fill="#FFFFFF" class=" highcharts-background"></rect><g class="highcharts-grid" ></g><g class="highcharts-grid" ><path fill="none" d="M 70 70.5 L 590 70.5" stroke="#C0C0C0" stroke-width="1"  opacity="1"></path><path fill="none" d="M 70 146.5 L 590 146.5" stroke="#C0C0C0" stroke-width="1"  opacity="1"></path><path fill="none" d="M 70 221.5 L 590 221.5" stroke="#C0C0C0" stroke-width="1"  opacity="1"></path><path fill="none" d="M 70 296.5 L 590 296.5" stroke="#C0C0C0" stroke-width="1"  opacity="1"></path></g><g class="highcharts-axis" ><path fill="none" d="M 159.5 296 L 159.5 306" stroke="#C0D0E0" stroke-width="1" opacity="1"></path><path fill="none" d="M 237.5 296 L 237.5 306" stroke="#C0D0E0" stroke-width="1" opacity="1"></path><path fill="none" d="M 316.5 296 L 316.5 306" stroke="#C0D0E0" stroke-width="1" opacity="1"></path><path fill="none" d="M 394.5 296 L 394.5 306" stroke="#C0D0E0" stroke-width="1" opacity="1"></path><path fill="none" d="M 473.5 296 L 473.5 306" stroke="#C0D0E0" stroke-width="1" opacity="1"></path><path fill="none" d="M 552.5 296 L 552.5 306" stroke="#C0D0E0" stroke-width="1" opacity="1"></path><path fill="none" d="M 80.5 296 L 80.5 306" stroke="#C0D0E0" stroke-width="1" opacity="1"></path><text x="330"  text-anchor="middle" transform="translate(0,0)" class=" highcharts-xaxis-title" style="color:#707070;fill:#707070;" visibility="visible" y="338">Time</text><path fill="none" d="M 70 296.5 L 590 296.5" stroke="#C0D0E0" stroke-width="1"  visibility="visible"></path></g><g class="highcharts-axis" ><text x="27.59375"  text-anchor="middle" transform="translate(0,0) rotate(270 27.59375 183.5)" class=" highcharts-yaxis-title" style="color:#707070;fill:#707070;" visibility="visible" y="183.5"><tspan>Questions Correct</tspan></text></g><g class="highcharts-series-group" ><g class="highcharts-series" visibility="visible"  transform="translate(70,71) scale(1 1)" clip-path="url(#highcharts-155)"><path fill="none" d="M 5.098039215686275 225 C 5.098039215686275 225 5.56959474437257 225 5.883965096830099 225 C 6.163405410125682 225 6.303125566773472 225 6.582565880069055 225 C 6.862006193364637 225 7.001726350012428 225 7.281166663308009 225 C 7.595537015765538 225 7.752722191994304 225 8.067092544451834 225 C 8.416392936071313 225 8.591043131881051 225 8.940343523500529 225 C 11.804606734780243 225 13.2367383404201 217.88372093023253 16.101001551699817 195 C 16.24072170834761 193.88372093023253 16.310581786671502 165 16.450301943319296 165 C 16.52016202164319 165 16.555092060805137 165 16.624952139129032 165 C 16.869462413262667 165 16.991717550329486 165 17.23622782446312 165 C 17.655388294406492 165 17.86496852937818 165 18.284128999321553 165 C 22.056573228811907 165 23.942795343557087 165 27.715239573047445 165 C 58.62832423137121 165 74.08486656053309 165 104.99795121885685 165 C 105.24246149299047 165 105.36471663005732 165 105.60922690419093 165 C 192.34051414330722 165 235.70615776286536 165 322.43744500198164 165 C 322.85660547192504 165 323.0661857068967 165 323.48534617684004 165 C 325.7208686832047 165 326.83862993638706 135 329.0741524427517 135 C 329.1440125210756 135 329.17894256023754 135 329.2488026385614 135 C 350.20682613573007 135 360.6858378843144 135 381.6438613814831 135 C 428.6247640543028 135 452.11521539071265 135 499.0961180635324 135 C 499.41048841598996 135 499.5676735922187 135 499.88204394467624 135 C 505.36606009310196 135 508.1080681673149 128.40372670807474 513.5920843157407 105 C 513.7318044723885 104.40372670807474 513.8016645507124 84.59999999999843 513.9413847073602 75 C 514.1509649423318 60.59999999999844 514.2557550598177 59.40000000000156 514.4653352947894 45 C 514.6050554514371 35.40000000000156 514.674915529761 15 514.8146356864089 15 C 514.8495657255708 15 514.9019607843137 15 514.9019607843137 15" stroke="#9ab2d6" stroke-width="2"  stroke-linejoin="round" stroke-linecap="round"></path></g><g class="highcharts-markers" visibility="visible"  transform="translate(70,71) scale(1 1)" clip-path="none"><path fill="rgb(245, 64, 50)" d="M 514 11 C 519.328 11 519.328 19 514 19 C 508.672 19 508.672 11 514 11 Z"></path><path fill="rgb(8, 243, 53)" d="M 514 11 C 519.328 11 519.328 19 514 19 C 508.672 19 508.672 11 514 11 Z"></path><path fill="rgb(8, 243, 53)" d="M 514 41 C 519.328 41 519.328 49 514 49 C 508.672 49 508.672 41 514 41 Z"></path><path fill="rgb(8, 243, 53)" d="M 513 71 C 518.328 71 518.328 79 513 79 C 507.672 79 507.672 71 513 71 Z"></path><path fill="rgb(8, 243, 53)" d="M 513 101 C 518.328 101 518.328 109 513 109 C 507.672 109 507.672 101 513 101 Z"></path><path fill="rgb(245, 64, 50)" d="M 499 131 C 504.328 131 504.328 139 499 139 C 493.672 139 493.672 131 499 131 Z"></path><path fill="rgb(245, 64, 50)" d="M 499 131 C 504.328 131 504.328 139 499 139 C 493.672 139 493.672 131 499 131 Z"></path><path fill="rgb(245, 64, 50)" d="M 381 131 C 386.328 131 386.328 139 381 139 C 375.672 139 375.672 131 381 131 Z"></path><path fill="rgb(245, 64, 50)" d="M 329 131 C 334.328 131 334.328 139 329 139 C 323.672 139 323.672 131 329 131 Z"></path><path fill="rgb(8, 243, 53)" d="M 329 131 C 334.328 131 334.328 139 329 139 C 323.672 139 323.672 131 329 131 Z"></path><path fill="rgb(245, 64, 50)" d="M 323 161 C 328.328 161 328.328 169 323 169 C 317.672 169 317.672 161 323 161 Z"></path><path fill="rgb(245, 64, 50)" d="M 322 161 C 327.328 161 327.328 169 322 169 C 316.672 169 316.672 161 322 161 Z"></path><path fill="rgb(245, 64, 50)" d="M 105 161 C 110.328 161 110.328 169 105 169 C 99.672 169 99.672 161 105 161 Z"></path><path fill="rgb(245, 64, 50)" d="M 104 161 C 109.328 161 109.328 169 104 169 C 98.672 169 98.672 161 104 161 Z"></path><path fill="rgb(245, 64, 50)" d="M 27 161 C 32.328 161 32.328 169 27 169 C 21.672 169 21.672 161 27 161 Z"></path><path fill="rgb(245, 64, 50)" d="M 18 161 C 23.328 161 23.328 169 18 169 C 12.672 169 12.672 161 18 161 Z"></path><path fill="rgb(245, 64, 50)" d="M 17 161 C 22.328 161 22.328 169 17 169 C 11.672 169 11.672 161 17 161 Z"></path><path fill="rgb(245, 64, 50)" d="M 16 161 C 21.328 161 21.328 169 16 169 C 10.672 169 10.672 161 16 161 Z"></path><path fill="rgb(8, 243, 53)" d="M 16 161 C 21.328 161 21.328 169 16 169 C 10.672 169 10.672 161 16 161 Z"></path><path fill="rgb(8, 243, 53)" d="M 16 191 C 21.328 191 21.328 199 16 199 C 10.672 199 10.672 191 16 191 Z"></path><path fill="rgb(245, 64, 50)" d="M 8 221 C 13.328 221 13.328 229 8 229 C 2.6719999999999997 229 2.6719999999999997 221 8 221 Z"></path><path fill="rgb(245, 64, 50)" d="M 8 221 C 13.328 221 13.328 229 8 229 C 2.6719999999999997 229 2.6719999999999997 221 8 221 Z"></path><path fill="rgb(245, 64, 50)" d="M 7 221 C 12.328 221 12.328 229 7 229 C 1.672 229 1.672 221 7 221 Z"></path><path fill="rgb(245, 64, 50)" d="M 6 221 C 11.328 221 11.328 229 6 229 C 0.6719999999999999 229 0.6719999999999999 221 6 221 Z"></path><path fill="rgb(245, 64, 50)" d="M 5 221 C 10.328 221 10.328 229 5 229 C -0.32800000000000007 229 -0.32800000000000007 221 5 221 Z"></path><path fill="rgb(245, 64, 50)" d="M 5 221 C 10.328 221 10.328 229 5 229 C -0.32800000000000007 229 -0.32800000000000007 221 5 221 Z"></path></g></g><text x="300" text-anchor="middle" class="highcharts-title"  style="color:#333333;font-size:18px;fill:#333333;width:536px;" y="25"><tspan>Questions Correct Over Time</tspan></text><text x="300" text-anchor="middle" class="highcharts-subtitle"  style="color:#555555;fill:#555555;width:536px;" y="53"><tspan>Click and drag in the plot area to zoom in</tspan></text><g class="highcharts-legend"  transform="translate(255,364)"><g ><g><g class="highcharts-legend-item"  transform="translate(8,3)"><path fill="none" d="M 0 11 L 16 11" stroke="#9ab2d6" stroke-width="2"></path><path fill="#9ab2d6" d="M 8 7 C 13.328 7 13.328 15 8 15 C 2.6719999999999997 15 2.6719999999999997 7 8 7 Z"></path><text x="21" style="color:#333333;font-size:12px;font-weight:bold;cursor:pointer;fill:#333333;" text-anchor="start"  y="15">Questions</text></g></g></g></g><g class="highcharts-axis-labels highcharts-xaxis-labels" ><text x="81.12347097112226" text-anchor="middle" style="color:#606060;cursor:default;font-size:11px;fill:#606060;" y="316" opacity="1"><tspan>01:45 PM</tspan></text><text x="159.7160590855047" text-anchor="middle" style="color:#606060;cursor:default;font-size:11px;fill:#606060;" y="316" opacity="1"><tspan>02:00 PM</tspan></text><text x="238.30864719988716" text-anchor="middle" style="color:#606060;cursor:default;font-size:11px;fill:#606060;" y="316" opacity="1"><tspan>02:15 PM</tspan></text><text x="316.90123531426957" text-anchor="middle" style="color:#606060;cursor:default;font-size:11px;fill:#606060;" y="316" opacity="1"><tspan>02:30 PM</tspan></text><text x="395.49382342865204" text-anchor="middle" style="color:#606060;cursor:default;font-size:11px;fill:#606060;" y="316" opacity="1"><tspan>02:45 PM</tspan></text><text x="474.0864115430345" text-anchor="middle" style="color:#606060;cursor:default;font-size:11px;fill:#606060;" y="316" opacity="1"><tspan>03:00 PM</tspan></text><text x="552.678999657417" text-anchor="middle" style="color:#606060;cursor:default;font-size:11px;fill:#606060;" y="316" opacity="1"><tspan>03:15 PM</tspan></text></g><g class="highcharts-axis-labels highcharts-yaxis-labels" ><text x="55" text-anchor="end" style="width:178px;color:#606060;cursor:default;font-size:11px;fill:#606060;" y="299.5" opacity="1">0</text><text x="55" text-anchor="end" style="width:178px;color:#606060;cursor:default;font-size:11px;fill:#606060;" y="149.5" opacity="1">5</text><text x="55" text-anchor="end" style="width:178px;color:#606060;cursor:default;font-size:11px;fill:#606060;" y="224.5" opacity="1">2.5</text><text x="55" text-anchor="end" style="width:178px;color:#606060;cursor:default;font-size:11px;fill:#606060;" y="74.5" opacity="1">7.5</text></g><g class="highcharts-tooltip"  style="cursor:default;padding:0;white-space:nowrap;" transform="translate(0,-9999)"><path fill="none" d="M 3 0 L 13 0 C 16 0 16 0 16 3 L 16 13 C 16 16 16 16 13 16 L 3 16 C 0 16 0 16 0 13 L 0 3 C 0 0 0 0 3 0"  stroke="black" stroke-opacity="0.049999999999999996" stroke-width="5" transform="translate(1, 1)"></path><path fill="none" d="M 3 0 L 13 0 C 16 0 16 0 16 3 L 16 13 C 16 16 16 16 13 16 L 3 16 C 0 16 0 16 0 13 L 0 3 C 0 0 0 0 3 0"  stroke="black" stroke-opacity="0.09999999999999999" stroke-width="3" transform="translate(1, 1)"></path><path fill="none" d="M 3 0 L 13 0 C 16 0 16 0 16 3 L 16 13 C 16 16 16 16 13 16 L 3 16 C 0 16 0 16 0 13 L 0 3 C 0 0 0 0 3 0"  stroke="black" stroke-opacity="0.15" stroke-width="1" transform="translate(1, 1)"></path><path fill="rgb(249, 249, 249)" fill-opacity=" .85" d="M 3 0 L 13 0 C 16 0 16 0 16 3 L 16 13 C 16 16 16 16 13 16 L 3 16 C 0 16 0 16 0 13 L 0 3 C 0 0 0 0 3 0"></path><text x="8"  style="font-size:12px;color:#333333;fill:#333333;" y="21"></text></g><text x="590" text-anchor="end"  style="cursor:pointer;color:#909090;font-size:9px;fill:#909090;" y="395">Highcharts.com</text></svg>