<svg xmlns:xlink="http://www.w3.org/1999/xlink" version="1.1" style="font-family:'lucida grande', 'lucida sans unicode', arial, helvetica, sans-serif;font-size:12px;" xmlns="http://www.w3.org/2000/svg" width="600" height="400"><desc>Created with Highcharts 4.0.4</desc><defs><clipPath id="highcharts-593"><rect x="0" y="0" width="523" height="249"></rect></clipPath></defs><rect x="0" y="0" width="600" height="400" strokeWidth="0" fill="#FFFFFF" class=" highcharts-background"></rect><g class="highcharts-grid" ></g><g class="highcharts-grid" ><path fill="none" d="M 67 60.5 L 590 60.5" stroke="#C0C0C0" stroke-width="1"  opacity="1"></path><path fill="none" d="M 67 122.5 L 590 122.5" stroke="#C0C0C0" stroke-width="1"  opacity="1"></path><path fill="none" d="M 67 185.5 L 590 185.5" stroke="#C0C0C0" stroke-width="1"  opacity="1"></path><path fill="none" d="M 67 247.5 L 590 247.5" stroke="#C0C0C0" stroke-width="1"  opacity="1"></path><path fill="none" d="M 67 309.5 L 590 309.5" stroke="#C0C0C0" stroke-width="1"  opacity="1"></path></g><g class="highcharts-axis" ><path fill="none" d="M 217.5 309 L 217.5 319" stroke="#C0D0E0" stroke-width="1" opacity="1"></path><path fill="none" d="M 331.5 309 L 331.5 319" stroke="#C0D0E0" stroke-width="1" opacity="1"></path><path fill="none" d="M 446.5 309 L 446.5 319" stroke="#C0D0E0" stroke-width="1" opacity="1"></path><path fill="none" d="M 560.5 309 L 560.5 319" stroke="#C0D0E0" stroke-width="1" opacity="1"></path><path fill="none" d="M 103.5 309 L 103.5 319" stroke="#C0D0E0" stroke-width="1" opacity="1"></path><text x="328.5"  text-anchor="middle" transform="translate(0,0)" class=" highcharts-xaxis-title" style="color:#707070;fill:#707070;" visibility="visible" y="346.5">Time</text><path fill="none" d="M 67 309.5 L 590 309.5" stroke="#C0D0E0" stroke-width="1"  visibility="visible"></path></g><g class="highcharts-axis" ><text x="23.640625"  text-anchor="middle" transform="translate(0,0) rotate(270 23.640625 184.5)" class=" highcharts-yaxis-title" style="color:#707070;fill:#707070;" visibility="visible" y="184.5"><tspan>Questions Correct</tspan></text></g><g class="highcharts-series-group" ><g class="highcharts-series" visibility="visible"  transform="translate(67,60) scale(1 1)" clip-path="url(#highcharts-593)"><path fill="none" d="M 5.127450980392157 246.51 C 5.127450980392157 246.51 14.263221101358138 246.51 20.35373451533546 246.51 C 21.724100033480358 246.51 22.40928279255281 244.50454054054055 23.779648310697702 244.02 C 28.043007700481827 242.51254054054058 30.174687395373894 242.9244 34.438046785158015 241.53 C 36.265200809351214 240.9324 37.17877782144781 240.07930434782608 39.005931845641 239.04 C 40.68082303448476 238.0873043478261 41.51826862890665 237.39276923076923 43.19315981775041 236.55 C 45.4771023479919 235.40076923076924 46.61907361311266 235.20923076923077 48.90301614335415 234.06 C 50.57790733219791 233.21723076923075 51.41535292661979 232.48299999999998 53.090244115463555 231.57 C 55.06966097500619 230.49099999999999 56.0593694047775 230.00485714285713 58.03878626432013 229.07999999999998 C 60.32272879456163 228.01285714285711 61.46470005968238 227.88913043478257 63.74864258992387 226.59 C 64.96674527271934 225.8971304347826 65.57579661411707 225.0374117647059 66.79389929691253 224.1 C 68.16426481505744 223.04541176470588 68.84944757412988 222.4249090909091 70.21981309227478 221.61 C 72.19922995181741 220.43290909090913 73.18893838158871 220.15584 75.16835524113135 219.12 C 76.99550926532454 218.16384 77.90908627742115 217.51533333333333 79.73624030161433 216.63 C 82.02018283185582 215.5233333333333 83.16215409697656 215.17034482758618 85.44609662721807 214.14 C 87.57777632211013 213.17834482758622 88.64361616955617 212.6116551724138 90.77529586444822 211.65 C 93.05923839468971 210.6196551724138 94.20120965981047 210.03882352941176 96.48515219005196 209.16 C 99.3781460616912 208.04682352941174 100.82464299751081 208.0217142857143 103.71763686915004 206.67 C 105.08800238729494 206.02971428571428 105.77318514636738 205.12357894736843 107.14355066451228 204.18 C 108.6661790180066 203.13157894736844 109.4274931947538 202.42777777777778 110.9501215482481 201.69 C 113.53858974918846 200.4357777777778 114.83282384965864 200.06830769230768 117.421292050599 199.2 C 120.77107442828654 198.0763076923077 122.44596561713031 198.12367741935478 125.79574799481783 196.70999999999998 C 127.16611351296274 196.13167741935482 127.85129627203517 194.22 129.22166179018006 194.22 C 131.2010786497227 194.22 132.19078707949402 194.22 134.17020393903664 194.22 C 136.30188363392872 194.22 137.36772348137475 192.2663076923077 139.4994031762668 191.73 C 145.28539091954525 190.2743076923077 148.1783847911845 190.6417777777778 153.96437253446294 189.24 C 156.40057790005386 188.64977777777779 157.61868058284932 186.75 160.05488594844024 186.75 C 164.62277100892325 186.75 166.90671353916474 186.75 171.47459859964772 186.75 C 172.6927012824432 186.75 173.30175262384094 184.98436363636364 174.5198553066364 184.26 C 176.65153500152846 182.99236363636362 177.7173748489745 181.76999999999998 179.84905454386654 181.76999999999998 C 181.3716828973609 181.76999999999998 182.13299707410803 181.76999999999998 183.6556254276024 181.76999999999998 C 184.7214652750484 181.76999999999998 185.25438519877142 179.71574999999999 186.32022504621744 179.28 C 190.1267959299533 177.72375 192.03008137182118 177.6636842105263 195.83665225555703 176.79 C 200.70906298673887 175.6716842105263 203.14526835232982 175.628 208.01767908351167 174.3 C 210.4538844491026 173.63600000000002 211.67198713189805 172.62723076923075 214.10819249748897 171.81 C 217.61023771052595 170.63523076923076 219.36126031704444 169.32 222.8633055300814 169.32 C 226.21308790776894 169.32 227.88797909661267 169.32 231.23776147430019 169.32 C 232.1513384863968 169.32 232.60812699244508 167.5330588235294 233.52170400454168 166.82999999999998 C 235.19659519338543 165.5410588235294 236.03404078780733 165.33599999999996 237.7089319766511 164.33999999999997 C 239.38382316549487 163.344 240.22126875991677 163.0032631578947 241.8961599487605 161.85 C 243.114262631556 161.01126315789472 243.72331397295366 160.4224 244.94141665574915 159.35999999999999 C 246.00725650319518 158.4304 246.5401764269182 157.86599999999999 247.60601627436424 156.87 C 248.6718561218103 155.874 249.2047760455333 154.878 250.27061589297932 154.38 C 253.46813543531744 152.88599999999997 255.06689520648646 153.19725 258.26441474882455 151.89 C 259.93930593766834 151.20524999999998 260.7767515320902 150.2427692307692 262.451642720934 149.39999999999998 C 264.7355852511755 148.2507692307692 265.87755651629624 147.62142857142857 268.1614990465377 146.91 C 272.27259560097235 145.62942857142855 274.32814387818974 145.9566857142857 278.43924043262444 144.42 C 279.6573431154199 143.9646857142857 280.2663944568177 142.92599999999993 281.4844971396131 141.93 C 282.7025998224086 140.93399999999997 283.31165116380623 140.5024 284.52975384660175 139.44 C 285.5955936940478 138.5104 286.12851361777075 137.72466666666668 287.1943534652168 136.95 C 288.86924465406054 135.7326666666667 289.70669024848246 135.0522162162162 291.38158143732625 134.45999999999998 C 295.3404151564115 133.06021621621622 297.31983201595415 133.44977142857138 301.2786657350394 131.96999999999997 C 302.6490312531843 131.4577714285714 303.3342140122568 129.48 304.70457953040165 129.48 C 306.9885220606431 129.48 308.13049332576384 129.48 310.41443585600535 129.48 C 312.39385271554795 129.48 313.3835611453193 127.82535483870969 315.36297800486193 126.99 C 318.1037090411517 125.83335483870968 319.4740745592966 125.62049999999999 322.2148055955864 124.49999999999999 C 324.3464852904785 123.6285 325.41232513792454 122.00999999999999 327.5440048328166 122.00999999999999 C 329.2188960216603 122.00999999999999 330.05634161608225 122.00999999999999 331.731232804926 122.00999999999999 C 332.79707265237204 122.00999999999999 333.329992576095 120.12626086956521 334.39583242354104 119.51999999999998 C 336.83203778913196 118.1342608695652 338.0501404719274 117.03 340.4863458375184 117.03 C 342.3134998617116 117.03 343.2270768738082 117.03 345.0542308980014 117.03 C 345.967807910098 117.03 346.4245964161463 115.39371428571428 347.3381734282429 114.53999999999999 C 348.55627611103836 113.40171428571428 349.16532745243614 112.04999999999998 350.38343013523155 112.04999999999998 C 353.12416117152134 112.04999999999998 354.49452668966626 112.04999999999998 357.235257725956 112.04999999999998 C 358.1488347380526 112.04999999999998 358.6056232441009 110.41371428571429 359.5192002561975 109.56 C 360.73730293899297 108.42171428571429 361.34635428039076 107.95533333333329 362.56445696318616 107.07 C 364.08708531668054 105.96333333333328 364.8483994934277 105.48545454545453 366.371027846922 104.57999999999998 C 368.1981818711152 103.49345454545453 369.1117588832118 102.67302439024388 370.938912907405 102.08999999999997 C 375.3545351325385 100.68102439024389 377.5623462451053 101.0442 381.97796847023886 99.6 C 383.6528596590826 99.05220000000001 384.4903052535045 97.92155555555556 386.1651964423483 97.10999999999999 C 388.6014018079392 95.92955555555555 389.81950449073463 95.39736585365853 392.2557098563256 94.61999999999998 C 396.0622807400614 93.40536585365854 397.9655661819294 93.21260869565218 401.77213706566516 92.13 C 404.9696566080032 91.22060869565217 406.56841637917233 91.03439999999999 409.7659359215104 89.63999999999999 C 411.1363014396553 89.04239999999997 411.8214841987277 88.04639999999998 413.19184971687264 87.14999999999998 C 414.8667409057164 86.05439999999997 415.70418650013835 85.41558620689655 417.3790776889821 84.66 C 420.1198087252718 83.42358620689654 421.49017424341673 83.45057142857142 424.2309052797065 82.16999999999999 C 425.75353363320085 81.45857142857142 426.51484780994804 80.58545454545452 428.03747616344236 79.67999999999998 C 429.8646301876355 78.59345454545455 430.77820719973215 78.14616 432.60536122392534 77.19 C 434.584778083468 76.15415999999999 435.5744865132393 75.77899999999998 437.5539033727819 74.69999999999999 C 439.2287945616257 73.78699999999996 440.06624015604757 73.20599999999999 441.74113134489136 72.20999999999998 C 443.41602253373514 71.21399999999997 444.25346812815695 70.87326315789474 445.92835931700074 69.71999999999997 C 447.14646199979614 68.88126315789474 447.75551334119393 68.22599999999997 448.9736160239894 67.22999999999999 C 450.19171870678485 66.234 450.8007700481826 65.8782857142857 452.01887273097805 64.73999999999998 C 452.93244974307464 63.88628571428569 453.3892382491229 62.847599999999986 454.30281526121956 62.24999999999997 C 456.4344949561117 60.85559999999998 457.5003348035577 60.922000000000004 459.63201449844973 59.75999999999999 C 461.154642851944 58.93000000000001 461.91595702869125 58.37666666666661 463.4385853821855 57.26999999999998 C 464.65668806498104 56.384666666666604 465.2657394063787 55.61873684210525 466.48384208917423 54.77999999999997 C 468.158733278018 53.62673684210525 468.9961788724398 53.20300000000001 470.6710700612836 52.28999999999999 C 472.6504869208262 51.211000000000006 473.6401953505976 49.79999999999998 475.6196122101402 49.79999999999998 C 477.44676623433344 49.79999999999998 478.36034324643 49.79999999999998 480.18749727062317 49.79999999999998 C 481.2533371180692 49.79999999999998 481.7862570417922 48.084666666666664 482.8520968892383 47.309999999999974 C 484.526988078082 46.092666666666666 485.36443367250394 45.91559999999999 487.03932486134767 44.81999999999999 C 488.40969037949253 43.92359999999999 489.094873138565 42.329999999999984 490.4652386567099 42.329999999999984 C 493.662758199048 42.329999999999984 495.261517970217 42.329999999999984 498.45903751255514 42.329999999999984 C 499.82940303070006 42.329999999999984 500.5145857897725 41.03519999999996 501.8849513079174 39.839999999999975 C 502.798528320014 39.04319999999996 503.2553168260623 38.05305882352941 504.1688938381589 37.349999999999994 C 505.84378502700264 36.061058823529414 506.68123062142456 35.67155555555552 508.3561218102683 34.859999999999985 C 510.79232717585927 33.67955555555552 512.0104298586546 33.644879999999986 514.4466352242456 32.369999999999976 C 515.8170007423905 31.65287999999999 517.8725490196078 29.879999999999995 517.8725490196078 29.879999999999995" stroke="#9ab2d6" stroke-width="2"  stroke-linejoin="round" stroke-linecap="round"></path></g><g class="highcharts-markers" visibility="visible"  transform="translate(67,60) scale(1 1)" clip-path="none"></g></g><text x="300" text-anchor="middle" class="highcharts-title"  style="color:#333333;font-size:18px;fill:#333333;width:536px;" y="25"><tspan>Questions Correct Over Time</tspan></text><text x="300" text-anchor="middle" class="highcharts-subtitle"  style="color:#555555;fill:#555555;width:536px;" y="46"><tspan>Pinch the chart to zoom in</tspan></text><g class="highcharts-legend"  transform="translate(256,368)"><g ><g><g class="highcharts-legend-item"  transform="translate(8,3)"><path fill="none" d="M 0 11 L 16 11" stroke="#9ab2d6" stroke-width="2"></path><path fill="#9ab2d6" d="M 8 7 C 13.328 7 13.328 15 8 15 C 2.6719999999999997 15 2.6719999999999997 7 8 7 Z"></path><text x="21" style="color:#333333;font-size:12px;font-weight:bold;cursor:pointer;fill:#333333;" text-anchor="start"  y="15">Questions</text></g></g></g></g><g class="highcharts-axis-labels highcharts-xaxis-labels" ><text x="104.1026464037731" text-anchor="middle" style="color:#606060;cursor:default;font-size:11px;fill:#606060;" y="329" opacity="1"><tspan>04:15 PM</tspan></text><text x="218.29977291584785" text-anchor="middle" style="color:#606060;cursor:default;font-size:11px;fill:#606060;" y="329" opacity="1"><tspan>04:20 PM</tspan></text><text x="332.49689942792264" text-anchor="middle" style="color:#606060;cursor:default;font-size:11px;fill:#606060;" y="329" opacity="1"><tspan>04:25 PM</tspan></text><text x="446.6940259399974" text-anchor="middle" style="color:#606060;cursor:default;font-size:11px;fill:#606060;" y="329" opacity="1"><tspan>04:30 PM</tspan></text><text x="560.8911524520722" text-anchor="middle" style="color:#606060;cursor:default;font-size:11px;fill:#606060;" y="329" opacity="1"><tspan>04:35 PM</tspan></text></g><g class="highcharts-axis-labels highcharts-yaxis-labels" ><text x="52" text-anchor="end" style="width:178px;color:#606060;cursor:default;font-size:11px;fill:#606060;" y="314.75" opacity="1">0</text><text x="52" text-anchor="end" style="width:178px;color:#606060;cursor:default;font-size:11px;fill:#606060;" y="65.74999999999997" opacity="1">100</text><text x="52" text-anchor="end" style="width:178px;color:#606060;cursor:default;font-size:11px;fill:#606060;" y="252.5" opacity="1">25</text><text x="52" text-anchor="end" style="width:178px;color:#606060;cursor:default;font-size:11px;fill:#606060;" y="190.25" opacity="1">50</text><text x="52" text-anchor="end" style="width:178px;color:#606060;cursor:default;font-size:11px;fill:#606060;" y="127.99999999999997" opacity="1">75</text></g><g class="highcharts-tooltip"  style="cursor:default;padding:0;white-space:nowrap;" transform="translate(0,-9999)"><path fill="none" d="M 3 0 L 13 0 C 16 0 16 0 16 3 L 16 13 C 16 16 16 16 13 16 L 3 16 C 0 16 0 16 0 13 L 0 3 C 0 0 0 0 3 0"  stroke="black" stroke-opacity="0.049999999999999996" stroke-width="5" transform="translate(1, 1)"></path><path fill="none" d="M 3 0 L 13 0 C 16 0 16 0 16 3 L 16 13 C 16 16 16 16 13 16 L 3 16 C 0 16 0 16 0 13 L 0 3 C 0 0 0 0 3 0"  stroke="black" stroke-opacity="0.09999999999999999" stroke-width="3" transform="translate(1, 1)"></path><path fill="none" d="M 3 0 L 13 0 C 16 0 16 0 16 3 L 16 13 C 16 16 16 16 13 16 L 3 16 C 0 16 0 16 0 13 L 0 3 C 0 0 0 0 3 0"  stroke="black" stroke-opacity="0.15" stroke-width="1" transform="translate(1, 1)"></path><path fill="rgb(249, 249, 249)" fill-opacity=" .85" d="M 3 0 L 13 0 C 16 0 16 0 16 3 L 16 13 C 16 16 16 16 13 16 L 3 16 C 0 16 0 16 0 13 L 0 3 C 0 0 0 0 3 0"></path><text x="8"  style="font-size:12px;color:#333333;fill:#333333;" y="21"></text></g><text x="590" text-anchor="end"  style="cursor:pointer;color:#909090;font-size:9px;fill:#909090;" y="395">Highcharts.com</text></svg>