<svg xmlns:xlink="http://www.w3.org/1999/xlink" version="1.1" style="font-family:'lucida grande', 'lucida sans unicode', arial, helvetica, sans-serif;font-size:12px;" xmlns="http://www.w3.org/2000/svg" width="600" height="400"><desc>Created with Highcharts 4.0.4</desc><defs><clipPath id="highcharts-221"><rect x="0" y="0" width="516" height="225"></rect></clipPath></defs><rect x="0" y="0" width="600" height="400" strokeWidth="0" fill="#FFFFFF" class=" highcharts-background"></rect><g class="highcharts-grid" ></g><g class="highcharts-grid" ><path fill="none" d="M 74 70.5 L 590 70.5" stroke="#C0C0C0" stroke-width="1"  opacity="1"></path><path fill="none" d="M 74 127.5 L 590 127.5" stroke="#C0C0C0" stroke-width="1"  opacity="1"></path><path fill="none" d="M 74 184.5 L 590 184.5" stroke="#C0C0C0" stroke-width="1"  opacity="1"></path><path fill="none" d="M 74 240.5 L 590 240.5" stroke="#C0C0C0" stroke-width="1"  opacity="1"></path><path fill="none" d="M 74 296.5 L 590 296.5" stroke="#C0C0C0" stroke-width="1"  opacity="1"></path></g><g class="highcharts-axis" ><path fill="none" d="M 300.5 296 L 300.5 306" stroke="#C0D0E0" stroke-width="1" opacity="1"></path><path fill="none" d="M 416.5 296 L 416.5 306" stroke="#C0D0E0" stroke-width="1" opacity="1"></path><path fill="none" d="M 533.5 296 L 533.5 306" stroke="#C0D0E0" stroke-width="1" opacity="1"></path><path fill="none" d="M 184.5 296 L 184.5 306" stroke="#C0D0E0" stroke-width="1" opacity="1"></path><text x="332"  text-anchor="middle" transform="translate(0,0)" class=" highcharts-xaxis-title" style="color:#707070;fill:#707070;" visibility="visible" y="338">Time</text><path fill="none" d="M 74 296.5 L 590 296.5" stroke="#C0D0E0" stroke-width="1"  visibility="visible"></path></g><g class="highcharts-axis" ><text x="28.078125"  text-anchor="middle" transform="translate(0,0) rotate(270 28.078125 183.5)" class=" highcharts-yaxis-title" style="color:#707070;fill:#707070;" visibility="visible" y="183.5"><tspan>Questions Correct</tspan></text></g><g class="highcharts-series-group" ><g class="highcharts-series" visibility="visible"  transform="translate(74,71) scale(1 1)" clip-path="url(#highcharts-221)"><path fill="none" d="M 5.0588235294117645 222.75 C 5.0588235294117645 222.75 9.235833783054506 221.58 12.020507285483001 220.5 C 13.876956287101995 219.78 14.805180787911493 219.05 16.66162978953049 218.25 C 18.982191041554238 217.25 20.14247166756611 217.125 22.463032919589857 216 C 23.8553696708041 215.325 24.551538046411228 213.75 25.943874797625472 213.75 C 29.19266055045872 213.75 30.81705342687534 213.75 34.06583917970858 213.75 C 40.09929843497032 213.75 43.11602806260119 213.75 49.14948731786293 213.75 C 51.00593631948192 213.75 51.934160820291424 212.70000000000002 53.790609821910415 211.5 C 54.71883432271992 210.9 55.18294657312466 210.15 56.111171073934166 209.25 C 57.039395574743665 208.35 57.50350782514842 207.98181818181817 58.43173232595791 207 C 59.20525274329916 206.18181818181816 59.592012951969785 205.5 60.36553336931103 204.75 C 61.448461953588776 203.7 61.98992624572766 203.55 63.0728548300054 202.5 C 63.84637524734664 201.75 64.23313545601727 200.25 65.00665587335853 200.25 C 65.78017629069977 200.25 66.1669364993704 200.25 66.94045691671164 200.25 C 70.03453858607664 200.25 71.58157942075914 200.25 74.67566109012412 200.25 C 76.84151825867961 200.25 77.92444684295738 199.008 80.09030401151287 198 C 81.79204892966361 197.208 82.64292138873898 196.9875 84.34466630688974 195.75 C 85.11818672423098 195.1875 85.5049469329016 193.95 86.27846735024285 193.5 C 88.5990286022666 192.14999999999998 89.75930922827847 191.25 92.07987048030222 191.25 C 97.49451340169095 191.25 100.20183486238533 191.25 105.61647778377406 191.25 C 108.09174311926606 191.25 109.32937578701205 190.1076923076923 111.80464112250405 189 C 113.35168195718654 188.3076923076923 114.12520237452779 187.69736842105263 115.6722432092103 186.75 C 117.06457996042454 185.89736842105262 117.76074833603165 185.35263157894738 119.15308508724591 184.5 C 120.7001259219284 183.55263157894737 121.47364633926966 183.10714285714286 123.02068717395215 182.25 C 124.72243209210289 181.30714285714285 125.57330455117827 180.8608695652174 127.27504946932902 180 C 129.131498470948 179.0608695652174 130.0597229717575 178.95000000000002 131.91617197337652 177.75 C 132.844396474186 177.15 133.30850872459078 176.33076923076922 134.23673322540026 175.5 C 135.31966180967802 174.5307692307692 135.86112610181686 174.3 136.94405468609463 173.25 C 137.71757510343588 172.5 138.1043353121065 171.6923076923077 138.87785572944776 171 C 140.11548839719376 169.8923076923077 140.73430473106674 169.77857142857144 141.97193739881274 168.75 C 142.90016189962222 167.97857142857143 143.364274150027 167.0142857142857 144.29249865083648 166.5 C 146.61305990286024 165.2142857142857 147.7733405288721 164.25 150.09390178089586 164.25 C 152.1050548659831 164.25 153.11063140852673 164.25 155.12178449361397 164.25 C 158.6799784133837 164.25 160.45907537326858 163.33548387096775 164.0172692930383 162 C 165.2549019607843 161.53548387096774 165.87371829465732 160.65 167.11135096240332 159.75 C 168.34898363014932 158.85 168.9677999640223 158.8090909090909 170.2054326317683 157.5 C 170.66954488217306 157.0090909090909 170.90160100737543 155.7409090909091 171.3657132577802 155.25 C 172.60334592552618 153.9409090909091 173.2221622593992 153.8470588235294 174.45979492714517 153 C 175.8521316783594 152.0470588235294 176.54830005396653 151.99615384615387 177.9406368051808 150.75 C 178.55945313905377 150.19615384615386 178.86886130599027 149.15454545454546 179.48767763986328 148.5 C 180.57060622414105 147.35454545454544 181.11207051627989 146.85000000000002 182.19499910055765 146.25 C 184.36085626911316 145.05 185.4437848533909 145.14545454545456 187.6096420219464 144 C 188.84727468969237 143.34545454545454 189.4660910235654 142.71 190.70372369131138 141.75 C 191.78665227558912 140.91 192.32811656772802 140.54999999999998 193.41104515200576 139.5 C 194.18456556934703 138.74999999999997 194.57132577801764 137.89285714285714 195.34484619535888 137.25 C 196.73718294657314 136.09285714285713 197.43335132218027 136.35 198.8256880733945 135 C 199.28980032379926 134.54999999999998 199.52185644900163 133.425 199.98596869940638 132.75 C 200.75948911674763 131.625 201.14624932541824 130.51943844492442 201.91976974275948 130.5 C 272.77423997121787 128.7194384449244 308.20147508544704 130.01531049250536 379.0559453139054 128.25 C 380.44828206511966 128.21531049250535 381.1444504407267 126 382.536787191941 126 C 384.8573484439647 126 386.01762906997664 126 388.3381903220004 126 C 390.1946393236194 126 391.1228638244289 124.82999999999998 392.9793128260479 123.75 C 394.2169454937939 123.02999999999997 394.83576182766683 121.95000000000002 396.07339449541286 121.5 C 399.7862924986508 120.15 401.64274150026984 120.45 405.35563950350786 119.25 C 407.21208850512687 118.64999999999999 408.1403130059363 118.20000000000003 409.99676200755533 117 C 410.9249865083648 116.40000000000002 411.3890987587696 115.52142857142857 412.3173232595791 114.75 C 413.5549559273251 113.72142857142856 414.17377226119805 113.46000000000005 415.4114049289441 112.5 C 416.49433351322176 111.66000000000004 417.03579780536074 110.82272727272725 418.1187263896384 110.25 C 420.4392876416622 109.02272727272724 421.59956826767404 109.125 423.9201295196978 108 C 425.31246627091207 107.32499999999999 426.0086346465192 106.70294117647059 427.40097139773343 105.75 C 428.6386040654794 104.90294117647058 429.2574203993524 104.70000000000006 430.4950530670984 103.5 C 431.11386940097134 102.90000000000005 431.4232775679079 101.69999999999999 432.0420939017809 101.25 C 433.8985429033999 99.89999999999998 434.82676740420936 100.13684210526317 436.6832164058284 99 C 437.7661449901061 98.33684210526316 438.307609282245 97.65000000000003 439.3905378665228 96.75 C 440.4734664508005 95.85000000000002 441.0149307429394 94.96666666666667 442.0978593272171 94.5 C 445.19194099658216 93.16666666666666 446.73898183126465 93.12804878048782 449.83306350062963 92.25 C 453.08184925346285 91.3280487804878 454.7062421298795 91.35000000000001 457.9550278827127 90 C 459.03795646699047 89.55 459.57942075912933 88.71923076923082 460.66234934340713 87.75 C 461.5905738442166 86.91923076923081 462.05468609462133 86.58000000000003 462.98291059543084 85.5 C 463.6017269293038 84.78000000000002 463.9111350962404 83.90454545454537 464.52995143011333 83.25 C 465.6128800143912 82.10454545454536 466.15434430653005 81.59999999999998 467.23727289080773 81 C 469.4031300593632 79.79999999999997 470.486058643641 80.07631578947371 472.6519158121965 78.75 C 473.4254362295377 78.2763157894737 473.81219643820833 77.31818181818177 474.58571685554955 76.5 C 475.5139413563591 75.51818181818176 475.97805360676375 74.74090909090911 476.9062781075733 74.25 C 479.3815434430653 72.9409090909091 480.61917611081134 73.25217391304349 483.09444144630334 72 C 484.1773700305811 71.45217391304348 484.7188343227199 70.65000000000003 485.8017629069977 69.75 C 486.8846914912754 68.85000000000002 487.4261557834143 68.46923076923076 488.509084367692 67.5 C 489.43730886850153 66.66923076923075 489.9014211189063 65.81842105263159 490.8296456197158 65.25 C 492.840798704803 64.01842105263158 493.8463752473466 64.23157894736845 495.8575283324339 63 C 496.78575283324335 62.43157894736845 497.24986508364816 61.26428571428572 498.17808958445767 60.75 C 500.4986508364814 59.46428571428572 501.6589314624933 59.84999999999998 503.979492714517 58.5 C 504.75301313185827 58.04999999999998 505.1397733405289 57.37499999999993 505.9132937578701 56.25 C 506.37740600827493 55.57499999999993 506.6094621334772 54.60000000000005 507.07357438388203 54 C 508.00179888469154 52.800000000000054 508.46591113509623 52.83000000000001 509.39413563590574 51.75 C 510.0129519697787 51.030000000000015 510.94117647058823 49.5 510.94117647058823 49.5" stroke="#9ab2d6" stroke-width="2"  stroke-linejoin="round" stroke-linecap="round"></path></g><g class="highcharts-markers" visibility="visible"  transform="translate(74,71) scale(1 1)" clip-path="none"></g></g><text x="300" text-anchor="middle" class="highcharts-title"  style="color:#333333;font-size:18px;fill:#333333;width:536px;" y="25"><tspan>Questions Correct Over Time</tspan></text><text x="300" text-anchor="middle" class="highcharts-subtitle"  style="color:#555555;fill:#555555;width:536px;" y="53"><tspan>Click and drag in the plot area to zoom in</tspan></text><g class="highcharts-legend"  transform="translate(255,364)"><g ><g><g class="highcharts-legend-item"  transform="translate(8,3)"><path fill="none" d="M 0 11 L 16 11" stroke="#9ab2d6" stroke-width="2"></path><path fill="#9ab2d6" d="M 8 7 C 13.328 7 13.328 15 8 15 C 2.6719999999999997 15 2.6719999999999997 7 8 7 Z"></path><text x="21" style="color:#333333;font-size:12px;font-weight:bold;cursor:pointer;fill:#333333;" text-anchor="start"  y="15">Questions</text></g></g></g></g><g class="highcharts-axis-labels highcharts-xaxis-labels" ><text x="185.41788091383341" text-anchor="middle" style="color:#606060;cursor:default;font-size:11px;fill:#606060;" y="316" opacity="1"><tspan>12:40 PM</tspan></text><text x="301.4459435150207" text-anchor="middle" style="color:#606060;cursor:default;font-size:11px;fill:#606060;" y="316" opacity="1"><tspan>12:45 PM</tspan></text><text x="417.474006116208" text-anchor="middle" style="color:#606060;cursor:default;font-size:11px;fill:#606060;" y="316" opacity="1"><tspan>12:50 PM</tspan></text><text x="533.5020687173952" text-anchor="middle" style="color:#606060;cursor:default;font-size:11px;fill:#606060;" y="316" opacity="1"><tspan>12:55 PM</tspan></text></g><g class="highcharts-axis-labels highcharts-yaxis-labels" ><text x="59" text-anchor="end" style="width:178px;color:#606060;cursor:default;font-size:11px;fill:#606060;" y="299.5" opacity="1">0</text><text x="59" text-anchor="end" style="width:178px;color:#606060;cursor:default;font-size:11px;fill:#606060;" y="74.5" opacity="1">100</text><text x="59" text-anchor="end" style="width:178px;color:#606060;cursor:default;font-size:11px;fill:#606060;" y="243.25" opacity="1">25</text><text x="59" text-anchor="end" style="width:178px;color:#606060;cursor:default;font-size:11px;fill:#606060;" y="187" opacity="1">50</text><text x="59" text-anchor="end" style="width:178px;color:#606060;cursor:default;font-size:11px;fill:#606060;" y="130.75" opacity="1">75</text></g><g class="highcharts-tooltip"  style="cursor:default;padding:0;white-space:nowrap;" transform="translate(0,-9999)"><path fill="none" d="M 3 0 L 13 0 C 16 0 16 0 16 3 L 16 13 C 16 16 16 16 13 16 L 3 16 C 0 16 0 16 0 13 L 0 3 C 0 0 0 0 3 0"  stroke="black" stroke-opacity="0.049999999999999996" stroke-width="5" transform="translate(1, 1)"></path><path fill="none" d="M 3 0 L 13 0 C 16 0 16 0 16 3 L 16 13 C 16 16 16 16 13 16 L 3 16 C 0 16 0 16 0 13 L 0 3 C 0 0 0 0 3 0"  stroke="black" stroke-opacity="0.09999999999999999" stroke-width="3" transform="translate(1, 1)"></path><path fill="none" d="M 3 0 L 13 0 C 16 0 16 0 16 3 L 16 13 C 16 16 16 16 13 16 L 3 16 C 0 16 0 16 0 13 L 0 3 C 0 0 0 0 3 0"  stroke="black" stroke-opacity="0.15" stroke-width="1" transform="translate(1, 1)"></path><path fill="rgb(249, 249, 249)" fill-opacity=" .85" d="M 3 0 L 13 0 C 16 0 16 0 16 3 L 16 13 C 16 16 16 16 13 16 L 3 16 C 0 16 0 16 0 13 L 0 3 C 0 0 0 0 3 0"></path><text x="8"  style="font-size:12px;color:#333333;fill:#333333;" y="21"></text></g><text x="590" text-anchor="end"  style="cursor:pointer;color:#909090;font-size:9px;fill:#909090;" y="395">Highcharts.com</text></svg>