<svg xmlns:xlink="http://www.w3.org/1999/xlink" xmlns="http://www.w3.org/2000/svg" style="font-family: 'lucida grande', 'lucida sans unicode', arial, helvetica, sans-serif; font-size: 12px;" width="600" height="400" version="1.1"><desc>Created with Highcharts 4.0.4</desc><defs><clipPath id="highcharts-35"><rect x="0" y="0" width="530" height="227" /></clipPath></defs><rect class=" highcharts-background" fill="#ffffff" x="0" y="0" width="600" height="400" strokeWidth="0" /><g class="highcharts-grid"  /><g class="highcharts-grid" ><path opacity="1" fill="none" stroke="#c0c0c0" stroke-width="1" d="M 60 71.5 L 590 71.5"  /><path opacity="1" fill="none" stroke="#c0c0c0" stroke-width="1" d="M 60 148.5 L 590 148.5"  /><path opacity="1" fill="none" stroke="#c0c0c0" stroke-width="1" d="M 60 223.5 L 590 223.5"  /><path opacity="1" fill="none" stroke="#c0c0c0" stroke-width="1" d="M 60 299.5 L 590 299.5"  /></g><g class="highcharts-axis" ><path opacity="1" fill="none" stroke="#c0d0e0" stroke-width="1" d="M 207.5 299 L 207.5 309" /><path opacity="1" fill="none" stroke="#c0d0e0" stroke-width="1" d="M 325.5 299 L 325.5 309" /><path opacity="1" fill="none" stroke="#c0d0e0" stroke-width="1" d="M 443.5 299 L 443.5 309" /><path opacity="1" fill="none" stroke="#c0d0e0" stroke-width="1" d="M 560.5 299 L 560.5 309" /><path opacity="1" fill="none" stroke="#c0d0e0" stroke-width="1" d="M 90.5 299 L 90.5 309" /><text class=" highcharts-xaxis-title" visibility="visible" style="color: rgb(112, 112, 112); fill: #707070;" text-anchor="middle" transform="translate(0)" x="325" y="338" >Time</text><path visibility="visible" fill="none" stroke="#c0d0e0" stroke-width="1" d="M 60 299.5 L 590 299.5"  /></g><g class="highcharts-axis" ><text class=" highcharts-yaxis-title" visibility="visible" style="color: rgb(112, 112, 112); fill: #707070;" text-anchor="middle" transform="translate(0) rotate(270 28.04 185.5)" x="28.04" y="185.5" ><tspan>Questions Correct</tspan></text></g><g class="highcharts-series-group" ><g class="highcharts-series" visibility="visible" clip-path="url(#highcharts-35)" transform="translate(60 72) scale(1)" ><path fill="none" stroke="#9ab2d6" stroke-linecap="round" stroke-linejoin="round" stroke-width="2" d="M 5.19608 227 C 5.19608 227 15.7843 207.327 22.8431 189.167 C 27.549 177.06 29.902 151.333 34.6078 151.333 C 39.3137 151.333 41.6667 151.333 46.3725 151.333 C 208.725 151.333 289.902 151.333 452.255 151.333 C 456.176 151.333 458.137 151.333 462.059 151.333 C 468.333 151.333 471.471 127.743 477.745 113.5 C 484.804 97.4765 488.333 75.6667 495.392 75.6667 C 501.667 75.6667 504.804 75.6667 511.078 75.6667 C 516.569 75.6667 524.804 37.8333 524.804 37.8333"  /></g><g class="highcharts-markers" visibility="visible" clip-path="none" transform="translate(60 72) scale(1)" ><path fill="rgb(8, 243, 53)" d="M 524 33.8333 C 529.328 33.8333 529.328 41.8333 524 41.8333 C 518.672 41.8333 518.672 33.8333 524 33.8333 Z" /><path fill="rgb(245, 64, 50)" d="M 511 71.6667 C 516.328 71.6667 516.328 79.6667 511 79.6667 C 505.672 79.6667 505.672 71.6667 511 71.6667 Z" /><path fill="rgb(8, 243, 53)" d="M 495 71.6667 C 500.328 71.6667 500.328 79.6667 495 79.6667 C 489.672 79.6667 489.672 71.6667 495 71.6667 Z" /><path fill="rgb(8, 243, 53)" d="M 477 109.5 C 482.328 109.5 482.328 117.5 477 117.5 C 471.672 117.5 471.672 109.5 477 109.5 Z" /><path fill="rgb(245, 64, 50)" d="M 462 147.333 C 467.328 147.333 467.328 155.333 462 155.333 C 456.672 155.333 456.672 147.333 462 147.333 Z" /><path fill="rgb(245, 64, 50)" d="M 452 147.333 C 457.328 147.333 457.328 155.333 452 155.333 C 446.672 155.333 446.672 147.333 452 147.333 Z" /><path fill="rgb(245, 64, 50)" d="M 46 147.333 C 51.328 147.333 51.328 155.333 46 155.333 C 40.672 155.333 40.672 147.333 46 147.333 Z" /><path fill="rgb(8, 243, 53)" d="M 34 147.333 C 39.328 147.333 39.328 155.333 34 155.333 C 28.672 155.333 28.672 147.333 34 147.333 Z" /><path fill="rgb(8, 243, 53)" d="M 22 185.167 C 27.328 185.167 27.328 193.167 22 193.167 C 16.672 193.167 16.672 185.167 22 185.167 Z" /><path fill="rgb(245, 64, 50)" d="M 5 223 C 10.328 223 10.328 231 5 231 C -0.328 231 -0.328 223 5 223 Z" /></g></g><text class="highcharts-title" style="width: 536px; color: rgb(51, 51, 51); font-size: 18px; fill: #333333;" text-anchor="middle" x="300" y="25" ><tspan>Questions Correct Over Time</tspan></text><text class="highcharts-subtitle" style="width: 536px; color: rgb(85, 85, 85); fill: #555555;" text-anchor="middle" x="300" y="53" ><tspan>Click and drag in the plot area to zoom in</tspan></text><g class="highcharts-legend" transform="translate(255 364)" ><g ><g><g class="highcharts-legend-item" transform="translate(8 3)" ><path fill="none" stroke="#9ab2d6" stroke-width="2" d="M 0 11 L 16 11" /><path fill="#9ab2d6" d="M 8 7 C 13.328 7 13.328 15 8 15 C 2.672 15 2.672 7 8 7 Z" /><text style="color: rgb(51, 51, 51); font-size: 12px; font-weight: bold; cursor: pointer; fill: #333333;" text-anchor="start" x="21" y="15" >Questions</text></g></g></g></g><g class="highcharts-axis-labels highcharts-xaxis-labels" ><text style="color: rgb(96, 96, 96); font-size: 11px; cursor: default; fill: #606060;" opacity="1" text-anchor="middle" x="90.6863" y="319"><tspan>11:57 AM</tspan></text><text style="color: rgb(96, 96, 96); font-size: 11px; cursor: default; fill: #606060;" opacity="1" text-anchor="middle" x="208.3333" y="319"><tspan>11:58 AM</tspan></text><text style="color: rgb(96, 96, 96); font-size: 11px; cursor: default; fill: #606060;" opacity="1" text-anchor="middle" x="325.9804" y="319"><tspan>11:59 AM</tspan></text><text style="color: rgb(96, 96, 96); font-size: 11px; cursor: default; fill: #606060;" opacity="1" text-anchor="middle" x="443.6275" y="319"><tspan>12:00 PM</tspan></text><text style="color: rgb(96, 96, 96); font-size: 11px; cursor: default; fill: #606060;" opacity="1" text-anchor="middle" x="561.2746" y="319"><tspan>12:01 PM</tspan></text></g><g class="highcharts-axis-labels highcharts-yaxis-labels" ><text style="width: 178px; color: rgb(96, 96, 96); font-size: 11px; cursor: default; fill: #606060;" opacity="1" text-anchor="end" x="45" y="304">0</text><text style="width: 178px; color: rgb(96, 96, 96); font-size: 11px; cursor: default; fill: #606060;" opacity="1" text-anchor="end" x="45" y="228.3333">2</text><text style="width: 178px; color: rgb(96, 96, 96); font-size: 11px; cursor: default; fill: #606060;" opacity="1" text-anchor="end" x="45" y="152.6667">4</text><text style="width: 178px; color: rgb(96, 96, 96); font-size: 11px; cursor: default; fill: #606060;" opacity="1" text-anchor="end" x="45" y="77">6</text></g><g class="highcharts-tooltip" style="padding: 0px; white-space: nowrap; cursor: default;" transform="translate(0 -9999)" ><path fill="none" stroke="black" stroke-opacity="0.05" stroke-width="5" transform="translate(1 1)" d="M 3 0 L 13 0 C 16 0 16 0 16 3 L 16 13 C 16 16 16 16 13 16 L 3 16 C 0 16 0 16 0 13 L 0 3 C 0 0 0 0 3 0"  /><path fill="none" stroke="black" stroke-opacity="0.1" stroke-width="3" transform="translate(1 1)" d="M 3 0 L 13 0 C 16 0 16 0 16 3 L 16 13 C 16 16 16 16 13 16 L 3 16 C 0 16 0 16 0 13 L 0 3 C 0 0 0 0 3 0"  /><path fill="none" stroke="black" stroke-opacity="0.15" stroke-width="1" transform="translate(1 1)" d="M 3 0 L 13 0 C 16 0 16 0 16 3 L 16 13 C 16 16 16 16 13 16 L 3 16 C 0 16 0 16 0 13 L 0 3 C 0 0 0 0 3 0"  /><path fill="rgb(249, 249, 249)" fill-opacity=" 0.85" d="M 3 0 L 13 0 C 16 0 16 0 16 3 L 16 13 C 16 16 16 16 13 16 L 3 16 C 0 16 0 16 0 13 L 0 3 C 0 0 0 0 3 0" /><text style="color: rgb(51, 51, 51); font-size: 12px; fill: #333333;" x="8" y="21" ></text></g><text style="color: rgb(144, 144, 144); font-size: 9px; cursor: pointer; fill: #909090;" text-anchor="end" x="590" y="395" >Highcharts.com</text></svg>