<svg xmlns:xlink="http://www.w3.org/1999/xlink" xmlns="http://www.w3.org/2000/svg" style="font-family: 'lucida grande', 'lucida sans unicode', arial, helvetica, sans-serif; font-size: 12px;" width="600" height="400" version="1.1"><desc>Created with Highcharts 4.0.4</desc><defs><clipPath id="highcharts-71"><rect x="0" y="0" width="512" height="227" /></clipPath></defs><rect class=" highcharts-background" fill="#ffffff" x="0" y="0" width="600" height="400" strokeWidth="0" /><g class="highcharts-grid"  /><g class="highcharts-grid" ><path opacity="1" fill="none" stroke="#c0c0c0" stroke-width="1" d="M 78 71.5 L 590 71.5"  /><path opacity="1" fill="none" stroke="#c0c0c0" stroke-width="1" d="M 78 117.5 L 590 117.5"  /><path opacity="1" fill="none" stroke="#c0c0c0" stroke-width="1" d="M 78 163.5 L 590 163.5"  /><path opacity="1" fill="none" stroke="#c0c0c0" stroke-width="1" d="M 78 208.5 L 590 208.5"  /><path opacity="1" fill="none" stroke="#c0c0c0" stroke-width="1" d="M 78 254.5 L 590 254.5"  /><path opacity="1" fill="none" stroke="#c0c0c0" stroke-width="1" d="M 78 299.5 L 590 299.5"  /></g><g class="highcharts-axis" ><path opacity="1" fill="none" stroke="#c0d0e0" stroke-width="1" d="M 239.5 299 L 239.5 309" /><path opacity="1" fill="none" stroke="#c0d0e0" stroke-width="1" d="M 323.5 299 L 323.5 309" /><path opacity="1" fill="none" stroke="#c0d0e0" stroke-width="1" d="M 408.5 299 L 408.5 309" /><path opacity="1" fill="none" stroke="#c0d0e0" stroke-width="1" d="M 492.5 299 L 492.5 309" /><path opacity="1" fill="none" stroke="#c0d0e0" stroke-width="1" d="M 576.5 299 L 576.5 309" /><path opacity="1" fill="none" stroke="#c0d0e0" stroke-width="1" d="M 154.5 299 L 154.5 309" /><text class=" highcharts-xaxis-title" visibility="visible" style="color: rgb(112, 112, 112); fill: #707070;" text-anchor="middle" transform="translate(0)" x="334" y="338" >Time</text><path visibility="visible" fill="none" stroke="#c0d0e0" stroke-width="1" d="M 78 299.5 L 590 299.5"  /></g><g class="highcharts-axis" ><text class=" highcharts-yaxis-title" visibility="visible" style="color: rgb(112, 112, 112); fill: #707070;" text-anchor="middle" transform="translate(0) rotate(270 28.64 185.5)" x="28.64" y="185.5" ><tspan>Questions Correct</tspan></text></g><g class="highcharts-series-group" ><g class="highcharts-series" visibility="visible" clip-path="url(#highcharts-71)" transform="translate(78 72) scale(1)" ><path fill="none" stroke="#9ab2d6" stroke-linecap="round" stroke-linejoin="round" stroke-width="2" d="M 5.01961 227 C 5.01961 227 5.49793 227 5.81682 227 C 6.30452 227 6.54837 220.644 7.03608 208.84 C 7.14863 206.116 7.2049 190.68 7.31745 190.68 C 9.58715 190.68 10.722 190.68 12.9917 190.68 C 13.4419 190.68 13.667 190.68 14.1172 190.68 C 15.2051 190.68 15.7491 185.686 16.8371 172.52 C 16.9496 171.158 17.0059 154.36 17.1184 154.36 C 53.2461 154.36 71.3099 154.36 107.438 154.36 C 265.341 154.36 344.293 136.2 502.197 136.2 C 502.272 136.2 502.31 136.2 502.385 136.2 C 502.741 136.2 502.919 118.04 503.276 118.04 C 503.37 118.04 503.416 118.04 503.51 118.04 C 503.829 118.04 503.989 112.229 504.307 99.88 C 504.364 97.7008 504.392 81.72 504.448 81.72 C 504.504 81.72 504.533 81.72 504.589 81.72 C 504.814 81.72 504.926 81.72 505.151 81.72 C 505.508 81.72 505.686 63.56 506.043 63.56 C 506.099 63.56 506.127 63.56 506.183 63.56 C 506.427 63.56 506.549 56.5096 506.793 45.4 C 506.868 41.9816 506.98 27.24 506.98 27.24"  /></g><g class="highcharts-markers" visibility="visible" clip-path="none" transform="translate(78 72) scale(1)" ><path fill="rgb(8, 243, 53)" d="M 506 23.24 C 511.328 23.24 511.328 31.24 506 31.24 C 500.672 31.24 500.672 23.24 506 23.24 Z" /><path fill="rgb(8, 243, 53)" d="M 506 41.4 C 511.328 41.4 511.328 49.4 506 49.4 C 500.672 49.4 500.672 41.4 506 41.4 Z" /><path fill="rgb(245, 64, 50)" d="M 506 59.56 C 511.328 59.56 511.328 67.56 506 67.56 C 500.672 67.56 500.672 59.56 506 59.56 Z" /><path fill="rgb(8, 243, 53)" d="M 506 59.56 C 511.328 59.56 511.328 67.56 506 67.56 C 500.672 67.56 500.672 59.56 506 59.56 Z" /><path fill="rgb(245, 64, 50)" d="M 505 77.72 C 510.328 77.72 510.328 85.72 505 85.72 C 499.672 85.72 499.672 77.72 505 77.72 Z" /><path fill="rgb(245, 64, 50)" d="M 504 77.72 C 509.328 77.72 509.328 85.72 504 85.72 C 498.672 85.72 498.672 77.72 504 77.72 Z" /><path fill="rgb(8, 243, 53)" d="M 504 77.72 C 509.328 77.72 509.328 85.72 504 85.72 C 498.672 85.72 498.672 77.72 504 77.72 Z" /><path fill="rgb(8, 243, 53)" d="M 504 95.88 C 509.328 95.88 509.328 103.88 504 103.88 C 498.672 103.88 498.672 95.88 504 95.88 Z" /><path fill="rgb(245, 64, 50)" d="M 503 114.04 C 508.328 114.04 508.328 122.04 503 122.04 C 497.672 122.04 497.672 114.04 503 114.04 Z" /><path fill="rgb(8, 243, 53)" d="M 503 114.04 C 508.328 114.04 508.328 122.04 503 122.04 C 497.672 122.04 497.672 114.04 503 114.04 Z" /><path fill="rgb(245, 64, 50)" d="M 502 132.2 C 507.328 132.2 507.328 140.2 502 140.2 C 496.672 140.2 496.672 132.2 502 132.2 Z" /><path fill="rgb(8, 243, 53)" d="M 502 132.2 C 507.328 132.2 507.328 140.2 502 140.2 C 496.672 140.2 496.672 132.2 502 132.2 Z" /><path fill="rgb(245, 64, 50)" d="M 107 150.36 C 112.328 150.36 112.328 158.36 107 158.36 C 101.672 158.36 101.672 150.36 107 150.36 Z" /><path fill="rgb(8, 243, 53)" d="M 17 150.36 C 22.328 150.36 22.328 158.36 17 158.36 C 11.672 158.36 11.672 150.36 17 150.36 Z" /><path fill="rgb(8, 243, 53)" d="M 16 168.52 C 21.328 168.52 21.328 176.52 16 176.52 C 10.672 176.52 10.672 168.52 16 168.52 Z" /><path fill="rgb(245, 64, 50)" d="M 14 186.68 C 19.328 186.68 19.328 194.68 14 194.68 C 8.672 194.68 8.672 186.68 14 186.68 Z" /><path fill="rgb(245, 64, 50)" d="M 12 186.68 C 17.328 186.68 17.328 194.68 12 194.68 C 6.672 194.68 6.672 186.68 12 186.68 Z" /><path fill="rgb(8, 243, 53)" d="M 7 186.68 C 12.328 186.68 12.328 194.68 7 194.68 C 1.672 194.68 1.672 186.68 7 186.68 Z" /><path fill="rgb(8, 243, 53)" d="M 7 204.84 C 12.328 204.84 12.328 212.84 7 212.84 C 1.672 212.84 1.672 204.84 7 204.84 Z" /><path fill="rgb(245, 64, 50)" d="M 5 223 C 10.328 223 10.328 231 5 231 C -0.328 231 -0.328 223 5 223 Z" /><path fill="rgb(245, 64, 50)" d="M 5 223 C 10.328 223 10.328 231 5 231 C -0.328 231 -0.328 223 5 223 Z" /></g></g><text class="highcharts-title" style="width: 536px; color: rgb(51, 51, 51); font-size: 18px; fill: #333333;" text-anchor="middle" x="300" y="25" ><tspan>Questions Correct Over Time</tspan></text><text class="highcharts-subtitle" style="width: 536px; color: rgb(85, 85, 85); fill: #555555;" text-anchor="middle" x="300" y="53" ><tspan>Click and drag in the plot area to zoom in</tspan></text><g class="highcharts-legend" transform="translate(255 364)" ><g ><g><g class="highcharts-legend-item" transform="translate(8 3)" ><path fill="none" stroke="#9ab2d6" stroke-width="2" d="M 0 11 L 16 11" /><path fill="#9ab2d6" d="M 8 7 C 13.328 7 13.328 15 8 15 C 2.672 15 2.672 7 8 7 Z" /><text style="color: rgb(51, 51, 51); font-size: 12px; font-weight: bold; cursor: pointer; fill: #333333;" text-anchor="start" x="21" y="15" >Questions</text></g></g></g></g><g class="highcharts-axis-labels highcharts-xaxis-labels" ><text style="color: rgb(96, 96, 96); font-size: 11px; cursor: default; fill: #606060;" opacity="1" text-anchor="middle" x="155.425" y="319"><tspan>07:00 PM</tspan></text><text style="color: rgb(96, 96, 96); font-size: 11px; cursor: default; fill: #606060;" opacity="1" text-anchor="middle" x="239.8355" y="319"><tspan>07:30 PM</tspan></text><text style="color: rgb(96, 96, 96); font-size: 11px; cursor: default; fill: #606060;" opacity="1" text-anchor="middle" x="324.2459" y="319"><tspan>08:00 PM</tspan></text><text style="color: rgb(96, 96, 96); font-size: 11px; cursor: default; fill: #606060;" opacity="1" text-anchor="middle" x="408.6564" y="319"><tspan>08:30 PM</tspan></text><text style="color: rgb(96, 96, 96); font-size: 11px; cursor: default; fill: #606060;" opacity="1" text-anchor="middle" x="493.0668" y="319"><tspan>09:00 PM</tspan></text><text style="color: rgb(96, 96, 96); font-size: 11px; cursor: default; fill: #606060;" opacity="1" text-anchor="middle" x="574.825" y="319"><tspan>09:30 PM</tspan></text></g><g class="highcharts-axis-labels highcharts-yaxis-labels" ><text style="width: 178px; color: rgb(96, 96, 96); font-size: 11px; cursor: default; fill: #606060;" opacity="1" text-anchor="end" x="63" y="304">0</text><text style="width: 178px; color: rgb(96, 96, 96); font-size: 11px; cursor: default; fill: #606060;" opacity="1" text-anchor="end" x="63" y="122.4">10</text><text style="width: 178px; color: rgb(96, 96, 96); font-size: 11px; cursor: default; fill: #606060;" opacity="1" text-anchor="end" x="63" y="258.6">2.5</text><text style="width: 178px; color: rgb(96, 96, 96); font-size: 11px; cursor: default; fill: #606060;" opacity="1" text-anchor="end" x="63" y="213.2">5</text><text style="width: 178px; color: rgb(96, 96, 96); font-size: 11px; cursor: default; fill: #606060;" opacity="1" text-anchor="end" x="63" y="167.8">7.5</text><text style="width: 178px; color: rgb(96, 96, 96); font-size: 11px; cursor: default; fill: #606060;" opacity="1" text-anchor="end" x="63" y="77">12.5</text></g><g class="highcharts-tooltip" style="padding: 0px; white-space: nowrap; cursor: default;" transform="translate(0 -9999)" ><path fill="none" stroke="black" stroke-opacity="0.05" stroke-width="5" transform="translate(1 1)" d="M 3 0 L 13 0 C 16 0 16 0 16 3 L 16 13 C 16 16 16 16 13 16 L 3 16 C 0 16 0 16 0 13 L 0 3 C 0 0 0 0 3 0"  /><path fill="none" stroke="black" stroke-opacity="0.1" stroke-width="3" transform="translate(1 1)" d="M 3 0 L 13 0 C 16 0 16 0 16 3 L 16 13 C 16 16 16 16 13 16 L 3 16 C 0 16 0 16 0 13 L 0 3 C 0 0 0 0 3 0"  /><path fill="none" stroke="black" stroke-opacity="0.15" stroke-width="1" transform="translate(1 1)" d="M 3 0 L 13 0 C 16 0 16 0 16 3 L 16 13 C 16 16 16 16 13 16 L 3 16 C 0 16 0 16 0 13 L 0 3 C 0 0 0 0 3 0"  /><path fill="rgb(249, 249, 249)" fill-opacity=" 0.85" d="M 3 0 L 13 0 C 16 0 16 0 16 3 L 16 13 C 16 16 16 16 13 16 L 3 16 C 0 16 0 16 0 13 L 0 3 C 0 0 0 0 3 0" /><text style="color: rgb(51, 51, 51); font-size: 12px; fill: #333333;" x="8" y="21" ></text></g><text style="color: rgb(144, 144, 144); font-size: 9px; cursor: pointer; fill: #909090;" text-anchor="end" x="590" y="395" >Highcharts.com</text></svg>