<svg xmlns:xlink="http://www.w3.org/1999/xlink" xmlns="http://www.w3.org/2000/svg" style="font-family: 'lucida grande', 'lucida sans unicode', arial, helvetica, sans-serif; font-size: 12px;" width="600" height="400" version="1.1"><desc>Created with Highcharts 4.0.4</desc><defs><clipPath id="highcharts-89"><rect x="0" y="0" width="523" height="227" /></clipPath></defs><rect class=" highcharts-background" fill="#ffffff" x="0" y="0" width="600" height="400" strokeWidth="0" /><g class="highcharts-grid"  /><g class="highcharts-grid" ><path opacity="1" fill="none" stroke="#c0c0c0" stroke-width="1" d="M 67 71.5 L 590 71.5"  /><path opacity="1" fill="none" stroke="#c0c0c0" stroke-width="1" d="M 67 148.5 L 590 148.5"  /><path opacity="1" fill="none" stroke="#c0c0c0" stroke-width="1" d="M 67 223.5 L 590 223.5"  /><path opacity="1" fill="none" stroke="#c0c0c0" stroke-width="1" d="M 67 299.5 L 590 299.5"  /></g><g class="highcharts-axis" ><path opacity="1" fill="none" stroke="#c0d0e0" stroke-width="1" d="M 278.5 299 L 278.5 309" /><path opacity="1" fill="none" stroke="#c0d0e0" stroke-width="1" d="M 404.5 299 L 404.5 309" /><path opacity="1" fill="none" stroke="#c0d0e0" stroke-width="1" d="M 531.5 299 L 531.5 309" /><path opacity="1" fill="none" stroke="#c0d0e0" stroke-width="1" d="M 151.5 299 L 151.5 309" /><text class=" highcharts-xaxis-title" visibility="visible" style="color: rgb(112, 112, 112); fill: #707070;" text-anchor="middle" transform="translate(0)" x="328.5" y="338" >Time</text><path visibility="visible" fill="none" stroke="#c0d0e0" stroke-width="1" d="M 67 299.5 L 590 299.5"  /></g><g class="highcharts-axis" ><text class=" highcharts-yaxis-title" visibility="visible" style="color: rgb(112, 112, 112); fill: #707070;" text-anchor="middle" transform="translate(0) rotate(270 28.08 185.5)" x="28.08" y="185.5" ><tspan>Questions Correct</tspan></text></g><g class="highcharts-series-group" ><g class="highcharts-series" visibility="visible" clip-path="url(#highcharts-89)" transform="translate(67 72) scale(1)" ><path fill="none" stroke="#9ab2d6" stroke-linecap="round" stroke-linejoin="round" stroke-width="2" d="M 5.12745 211.867 C 5.12745 211.867 8.67528 196.733 11.0405 196.733 C 30.638 196.733 40.4368 196.733 60.0343 196.733 C 61.0479 196.733 61.5548 184.758 62.5684 181.6 C 65.4405 172.652 66.8765 168.372 69.7485 166.467 C 85.1224 156.266 92.8094 151.333 108.183 151.333 C 128.794 151.333 139.1 151.333 159.711 151.333 C 160.725 151.333 161.232 151.333 162.245 151.333 C 163.597 151.333 164.273 136.512 165.624 136.2 C 216.645 124.406 242.156 132.861 293.177 121.067 C 294.529 120.754 295.204 106.197 296.556 105.933 C 357.207 94.0906 387.532 102.773 448.183 90.8 C 448.859 90.6666 449.197 79.3918 449.873 75.6667 C 451.393 67.2851 452.153 61.2101 453.674 60.5333 C 479.353 49.1034 517.873 45.4 517.873 45.4"  /></g><g class="highcharts-markers" visibility="visible" clip-path="none" transform="translate(67 72) scale(1)" ><path fill="rgb(8, 243, 53)" d="M 517 41.4 C 522.328 41.4 522.328 49.4 517 49.4 C 511.672 49.4 511.672 41.4 517 41.4 Z" /><path fill="rgb(8, 243, 53)" d="M 453 56.5333 C 458.328 56.5333 458.328 64.5333 453 64.5333 C 447.672 64.5333 447.672 56.5333 453 56.5333 Z" /><path fill="rgb(8, 243, 53)" d="M 449 71.6667 C 454.328 71.6667 454.328 79.6667 449 79.6667 C 443.672 79.6667 443.672 71.6667 449 71.6667 Z" /><path fill="rgb(8, 243, 53)" d="M 448 86.8 C 453.328 86.8 453.328 94.8 448 94.8 C 442.672 94.8 442.672 86.8 448 86.8 Z" /><path fill="rgb(8, 243, 53)" d="M 296 101.933 C 301.328 101.933 301.328 109.933 296 109.933 C 290.672 109.933 290.672 101.933 296 101.933 Z" /><path fill="rgb(8, 243, 53)" d="M 293 117.067 C 298.328 117.067 298.328 125.067 293 125.067 C 287.672 125.067 287.672 117.067 293 117.067 Z" /><path fill="rgb(8, 243, 53)" d="M 165 132.2 C 170.328 132.2 170.328 140.2 165 140.2 C 159.672 140.2 159.672 132.2 165 132.2 Z" /><path fill="rgb(245, 64, 50)" d="M 162 147.333 C 167.328 147.333 167.328 155.333 162 155.333 C 156.672 155.333 156.672 147.333 162 147.333 Z" /><path fill="rgb(245, 64, 50)" d="M 159 147.333 C 164.328 147.333 164.328 155.333 159 155.333 C 153.672 155.333 153.672 147.333 159 147.333 Z" /><path fill="rgb(8, 243, 53)" d="M 108 147.333 C 113.328 147.333 113.328 155.333 108 155.333 C 102.672 155.333 102.672 147.333 108 147.333 Z" /><path fill="rgb(8, 243, 53)" d="M 69 162.467 C 74.328 162.467 74.328 170.467 69 170.467 C 63.672 170.467 63.672 162.467 69 162.467 Z" /><path fill="rgb(8, 243, 53)" d="M 62 177.6 C 67.328 177.6 67.328 185.6 62 185.6 C 56.672 185.6 56.672 177.6 62 177.6 Z" /><path fill="rgb(245, 64, 50)" d="M 60 192.733 C 65.328 192.733 65.328 200.733 60 200.733 C 54.672 200.733 54.672 192.733 60 192.733 Z" /><path fill="rgb(8, 243, 53)" d="M 11 192.733 C 16.328 192.733 16.328 200.733 11 200.733 C 5.672 200.733 5.672 192.733 11 192.733 Z" /><path fill="rgb(8, 243, 53)" d="M 5 207.867 C 10.328 207.867 10.328 215.867 5 215.867 C -0.328 215.867 -0.328 207.867 5 207.867 Z" /></g></g><text class="highcharts-title" style="width: 536px; color: rgb(51, 51, 51); font-size: 18px; fill: #333333;" text-anchor="middle" x="300" y="25" ><tspan>Questions Correct Over Time</tspan></text><text class="highcharts-subtitle" style="width: 536px; color: rgb(85, 85, 85); fill: #555555;" text-anchor="middle" x="300" y="53" ><tspan>Click and drag in the plot area to zoom in</tspan></text><g class="highcharts-legend" transform="translate(255 364)" ><g ><g><g class="highcharts-legend-item" transform="translate(8 3)" ><path fill="none" stroke="#9ab2d6" stroke-width="2" d="M 0 11 L 16 11" /><path fill="#9ab2d6" d="M 8 7 C 13.328 7 13.328 15 8 15 C 2.672 15 2.672 7 8 7 Z" /><text style="color: rgb(51, 51, 51); font-size: 12px; font-weight: bold; cursor: pointer; fill: #333333;" text-anchor="start" x="21" y="15" >Questions</text></g></g></g></g><g class="highcharts-axis-labels highcharts-xaxis-labels" ><text style="color: rgb(96, 96, 96); font-size: 11px; cursor: default; fill: #606060;" opacity="1" text-anchor="middle" x="151.9535" y="319"><tspan>11:40 PM</tspan></text><text style="color: rgb(96, 96, 96); font-size: 11px; cursor: default; fill: #606060;" opacity="1" text-anchor="middle" x="278.6615" y="319"><tspan>11:45 PM</tspan></text><text style="color: rgb(96, 96, 96); font-size: 11px; cursor: default; fill: #606060;" opacity="1" text-anchor="middle" x="405.3695" y="319"><tspan>11:50 PM</tspan></text><text style="color: rgb(96, 96, 96); font-size: 11px; cursor: default; fill: #606060;" opacity="1" text-anchor="middle" x="532.0775" y="319"><tspan>11:55 PM</tspan></text></g><g class="highcharts-axis-labels highcharts-yaxis-labels" ><text style="width: 178px; color: rgb(96, 96, 96); font-size: 11px; cursor: default; fill: #606060;" opacity="1" text-anchor="end" x="52" y="304">0</text><text style="width: 178px; color: rgb(96, 96, 96); font-size: 11px; cursor: default; fill: #606060;" opacity="1" text-anchor="end" x="52" y="228.3333">5</text><text style="width: 178px; color: rgb(96, 96, 96); font-size: 11px; cursor: default; fill: #606060;" opacity="1" text-anchor="end" x="52" y="152.6667">10</text><text style="width: 178px; color: rgb(96, 96, 96); font-size: 11px; cursor: default; fill: #606060;" opacity="1" text-anchor="end" x="52" y="77">15</text></g><g class="highcharts-tooltip" style="padding: 0px; white-space: nowrap; cursor: default;" transform="translate(0 -9999)" ><path fill="none" stroke="black" stroke-opacity="0.05" stroke-width="5" transform="translate(1 1)" d="M 3 0 L 13 0 C 16 0 16 0 16 3 L 16 13 C 16 16 16 16 13 16 L 3 16 C 0 16 0 16 0 13 L 0 3 C 0 0 0 0 3 0"  /><path fill="none" stroke="black" stroke-opacity="0.1" stroke-width="3" transform="translate(1 1)" d="M 3 0 L 13 0 C 16 0 16 0 16 3 L 16 13 C 16 16 16 16 13 16 L 3 16 C 0 16 0 16 0 13 L 0 3 C 0 0 0 0 3 0"  /><path fill="none" stroke="black" stroke-opacity="0.15" stroke-width="1" transform="translate(1 1)" d="M 3 0 L 13 0 C 16 0 16 0 16 3 L 16 13 C 16 16 16 16 13 16 L 3 16 C 0 16 0 16 0 13 L 0 3 C 0 0 0 0 3 0"  /><path fill="rgb(249, 249, 249)" fill-opacity=" 0.85" d="M 3 0 L 13 0 C 16 0 16 0 16 3 L 16 13 C 16 16 16 16 13 16 L 3 16 C 0 16 0 16 0 13 L 0 3 C 0 0 0 0 3 0" /><text style="color: rgb(51, 51, 51); font-size: 12px; fill: #333333;" x="8" y="21" ></text></g><text style="color: rgb(144, 144, 144); font-size: 9px; cursor: pointer; fill: #909090;" text-anchor="end" x="590" y="395" >Highcharts.com</text></svg>