<svg xmlns:xlink="http://www.w3.org/1999/xlink" xmlns="http://www.w3.org/2000/svg" style="font-family: 'lucida grande', 'lucida sans unicode', arial, helvetica, sans-serif; font-size: 12px;" width="600" height="400" version="1.1"><desc>Created with Highcharts 4.0.4</desc><defs><clipPath id="highcharts-53"><rect x="0" y="0" width="523" height="227" /></clipPath></defs><rect class=" highcharts-background" fill="#ffffff" x="0" y="0" width="600" height="400" strokeWidth="0" /><g class="highcharts-grid"  /><g class="highcharts-grid" ><path opacity="1" fill="none" stroke="#c0c0c0" stroke-width="1" d="M 67 71.5 L 590 71.5"  /><path opacity="1" fill="none" stroke="#c0c0c0" stroke-width="1" d="M 67 129.5 L 590 129.5"  /><path opacity="1" fill="none" stroke="#c0c0c0" stroke-width="1" d="M 67 186.5 L 590 186.5"  /><path opacity="1" fill="none" stroke="#c0c0c0" stroke-width="1" d="M 67 242.5 L 590 242.5"  /><path opacity="1" fill="none" stroke="#c0c0c0" stroke-width="1" d="M 67 299.5 L 590 299.5"  /></g><g class="highcharts-axis" ><path opacity="1" fill="none" stroke="#c0d0e0" stroke-width="1" d="M 190.5 299 L 190.5 309" /><path opacity="1" fill="none" stroke="#c0d0e0" stroke-width="1" d="M 265.5 299 L 265.5 309" /><path opacity="1" fill="none" stroke="#c0d0e0" stroke-width="1" d="M 340.5 299 L 340.5 309" /><path opacity="1" fill="none" stroke="#c0d0e0" stroke-width="1" d="M 415.5 299 L 415.5 309" /><path opacity="1" fill="none" stroke="#c0d0e0" stroke-width="1" d="M 490.5 299 L 490.5 309" /><path opacity="1" fill="none" stroke="#c0d0e0" stroke-width="1" d="M 566.5 299 L 566.5 309" /><path opacity="1" fill="none" stroke="#c0d0e0" stroke-width="1" d="M 114.5 299 L 114.5 309" /><text class=" highcharts-xaxis-title" visibility="visible" style="color: rgb(112, 112, 112); fill: #707070;" text-anchor="middle" transform="translate(0)" x="328.5" y="338" >Time</text><path visibility="visible" fill="none" stroke="#c0d0e0" stroke-width="1" d="M 67 299.5 L 590 299.5"  /></g><g class="highcharts-axis" ><text class=" highcharts-yaxis-title" visibility="visible" style="color: rgb(112, 112, 112); fill: #707070;" text-anchor="middle" transform="translate(0) rotate(270 28.08 185.5)" x="28.08" y="185.5" ><tspan>Questions Correct</tspan></text></g><g class="highcharts-series-group" ><g class="highcharts-series" visibility="visible" clip-path="url(#highcharts-53)" transform="translate(67 72) scale(1)" ><path fill="none" stroke="#9ab2d6" stroke-linecap="round" stroke-linejoin="round" stroke-width="2" d="M 5.12745 221.325 C 5.12745 221.325 5.26532 215.847 5.35723 215.65 C 7.3793 211.307 8.39034 212.236 10.4124 209.975 C 12.4512 207.696 13.4706 208.644 15.5094 204.3 C 15.6013 204.104 15.6472 198.625 15.7391 198.625 C 15.8394 198.625 15.8895 198.625 15.9898 198.625 C 16.0232 198.625 16.0399 192.968 16.0734 192.95 C 24.6045 188.428 28.8701 191.775 37.4012 187.275 C 37.4764 187.235 37.514 184.324 37.5892 181.6 C 37.6393 179.784 37.6644 175.937 37.7145 175.925 C 56.356 171.397 65.6767 174.786 84.3182 170.25 C 84.3349 170.246 84.3433 166.391 84.36 164.575 C 84.3851 161.851 84.3976 158.9 84.4227 158.9 C 84.4644 158.9 84.4853 158.9 84.5271 158.9 C 84.5438 158.9 84.5522 155.041 84.5689 153.225 C 84.594 150.501 84.6065 147.556 84.6316 147.55 C 102.705 143.016 111.742 146.388 129.815 141.875 C 129.923 141.848 129.978 136.335 130.086 136.2 C 133.629 131.795 135.401 134.981 138.943 130.525 C 139.01 130.441 139.044 124.85 139.11 124.85 C 139.169 124.85 139.198 124.85 139.257 124.85 C 139.265 124.85 139.269 119.252 139.278 119.175 C 139.762 114.712 140.005 114.483 140.489 113.5 C 142.244 109.943 143.121 110.133 144.876 107.825 C 146.572 105.593 147.42 105.563 149.116 102.15 C 149.676 101.023 149.956 97.6316 150.516 96.475 C 152.154 93.0916 152.973 92.9863 154.61 90.8 C 156.373 88.4463 157.255 85.1844 159.018 85.125 C 291.906 80.6444 358.35 83.8819 491.239 79.45 C 494.481 79.3419 496.102 78.2687 499.344 73.775 C 499.377 73.7287 499.394 70.37 499.427 68.1 C 499.461 65.83 499.478 62.5201 499.511 62.425 C 501.073 57.9801 501.855 58.0745 503.417 56.75 C 507.211 53.5345 509.107 55.5655 512.901 51.075 C 512.943 51.0255 512.964 45.5733 513.005 45.4 C 514.058 41.0333 514.585 39.725 515.637 39.725 C 516.531 39.725 517.873 39.725 517.873 39.725"  /></g><g class="highcharts-markers" visibility="visible" clip-path="none" transform="translate(67 72) scale(1)" ><path fill="rgb(245, 64, 50)" d="M 517 35.725 C 522.328 35.725 522.328 43.725 517 43.725 C 511.672 43.725 511.672 35.725 517 35.725 Z" /><path fill="rgb(8, 243, 53)" d="M 515 35.725 C 520.328 35.725 520.328 43.725 515 43.725 C 509.672 43.725 509.672 35.725 515 35.725 Z" /><path fill="rgb(8, 243, 53)" d="M 513 41.4 C 518.328 41.4 518.328 49.4 513 49.4 C 507.672 49.4 507.672 41.4 513 41.4 Z" /><path fill="rgb(8, 243, 53)" d="M 512 47.075 C 517.328 47.075 517.328 55.075 512 55.075 C 506.672 55.075 506.672 47.075 512 47.075 Z" /><path fill="rgb(8, 243, 53)" d="M 503 52.75 C 508.328 52.75 508.328 60.75 503 60.75 C 497.672 60.75 497.672 52.75 503 52.75 Z" /><path fill="rgb(8, 243, 53)" d="M 499 58.425 C 504.328 58.425 504.328 66.425 499 66.425 C 493.672 66.425 493.672 58.425 499 58.425 Z" /><path fill="rgb(8, 243, 53)" d="M 499 64.1 C 504.328 64.1 504.328 72.1 499 72.1 C 493.672 72.1 493.672 64.1 499 64.1 Z" /><path fill="rgb(8, 243, 53)" d="M 499 69.775 C 504.328 69.775 504.328 77.775 499 77.775 C 493.672 77.775 493.672 69.775 499 69.775 Z" /><path fill="rgb(8, 243, 53)" d="M 491 75.45 C 496.328 75.45 496.328 83.45 491 83.45 C 485.672 83.45 485.672 75.45 491 75.45 Z" /><path fill="rgb(8, 243, 53)" d="M 159 81.125 C 164.328 81.125 164.328 89.125 159 89.125 C 153.672 89.125 153.672 81.125 159 81.125 Z" /><path fill="rgb(8, 243, 53)" d="M 154 86.8 C 159.328 86.8 159.328 94.8 154 94.8 C 148.672 94.8 148.672 86.8 154 86.8 Z" /><path fill="rgb(8, 243, 53)" d="M 150 92.475 C 155.328 92.475 155.328 100.475 150 100.475 C 144.672 100.475 144.672 92.475 150 92.475 Z" /><path fill="rgb(8, 243, 53)" d="M 149 98.15 C 154.328 98.15 154.328 106.15 149 106.15 C 143.672 106.15 143.672 98.15 149 98.15 Z" /><path fill="rgb(8, 243, 53)" d="M 144 103.825 C 149.328 103.825 149.328 111.825 144 111.825 C 138.672 111.825 138.672 103.825 144 103.825 Z" /><path fill="rgb(8, 243, 53)" d="M 140 109.5 C 145.328 109.5 145.328 117.5 140 117.5 C 134.672 117.5 134.672 109.5 140 109.5 Z" /><path fill="rgb(8, 243, 53)" d="M 139 115.175 C 144.328 115.175 144.328 123.175 139 123.175 C 133.672 123.175 133.672 115.175 139 115.175 Z" /><path fill="rgb(245, 64, 50)" d="M 139 120.85 C 144.328 120.85 144.328 128.85 139 128.85 C 133.672 128.85 133.672 120.85 139 120.85 Z" /><path fill="rgb(8, 243, 53)" d="M 139 120.85 C 144.328 120.85 144.328 128.85 139 128.85 C 133.672 128.85 133.672 120.85 139 120.85 Z" /><path fill="rgb(8, 243, 53)" d="M 138 126.525 C 143.328 126.525 143.328 134.525 138 134.525 C 132.672 134.525 132.672 126.525 138 126.525 Z" /><path fill="rgb(8, 243, 53)" d="M 130 132.2 C 135.328 132.2 135.328 140.2 130 140.2 C 124.672 140.2 124.672 132.2 130 132.2 Z" /><path fill="rgb(8, 243, 53)" d="M 129 137.875 C 134.328 137.875 134.328 145.875 129 145.875 C 123.672 145.875 123.672 137.875 129 137.875 Z" /><path fill="rgb(8, 243, 53)" d="M 84 143.55 C 89.328 143.55 89.328 151.55 84 151.55 C 78.672 151.55 78.672 143.55 84 143.55 Z" /><path fill="rgb(8, 243, 53)" d="M 84 149.225 C 89.328 149.225 89.328 157.225 84 157.225 C 78.672 157.225 78.672 149.225 84 149.225 Z" /><path fill="rgb(245, 64, 50)" d="M 84 154.9 C 89.328 154.9 89.328 162.9 84 162.9 C 78.672 162.9 78.672 154.9 84 154.9 Z" /><path fill="rgb(8, 243, 53)" d="M 84 154.9 C 89.328 154.9 89.328 162.9 84 162.9 C 78.672 162.9 78.672 154.9 84 154.9 Z" /><path fill="rgb(8, 243, 53)" d="M 84 160.575 C 89.328 160.575 89.328 168.575 84 168.575 C 78.672 168.575 78.672 160.575 84 160.575 Z" /><path fill="rgb(8, 243, 53)" d="M 84 166.25 C 89.328 166.25 89.328 174.25 84 174.25 C 78.672 174.25 78.672 166.25 84 166.25 Z" /><path fill="rgb(8, 243, 53)" d="M 37 171.925 C 42.328 171.925 42.328 179.925 37 179.925 C 31.672 179.925 31.672 171.925 37 171.925 Z" /><path fill="rgb(8, 243, 53)" d="M 37 177.6 C 42.328 177.6 42.328 185.6 37 185.6 C 31.672 185.6 31.672 177.6 37 177.6 Z" /><path fill="rgb(8, 243, 53)" d="M 37 183.275 C 42.328 183.275 42.328 191.275 37 191.275 C 31.672 191.275 31.672 183.275 37 183.275 Z" /><path fill="rgb(8, 243, 53)" d="M 16 188.95 C 21.328 188.95 21.328 196.95 16 196.95 C 10.672 196.95 10.672 188.95 16 188.95 Z" /><path fill="rgb(245, 64, 50)" d="M 15 194.625 C 20.328 194.625 20.328 202.625 15 202.625 C 9.672 202.625 9.672 194.625 15 194.625 Z" /><path fill="rgb(8, 243, 53)" d="M 15 194.625 C 20.328 194.625 20.328 202.625 15 202.625 C 9.672 202.625 9.672 194.625 15 194.625 Z" /><path fill="rgb(8, 243, 53)" d="M 15 200.3 C 20.328 200.3 20.328 208.3 15 208.3 C 9.672 208.3 9.672 200.3 15 200.3 Z" /><path fill="rgb(8, 243, 53)" d="M 10 205.975 C 15.328 205.975 15.328 213.975 10 213.975 C 4.672 213.975 4.672 205.975 10 205.975 Z" /><path fill="rgb(8, 243, 53)" d="M 5 211.65 C 10.328 211.65 10.328 219.65 5 219.65 C -0.328 219.65 -0.328 211.65 5 211.65 Z" /><path fill="rgb(8, 243, 53)" d="M 5 217.325 C 10.328 217.325 10.328 225.325 5 225.325 C -0.328 225.325 -0.328 217.325 5 217.325 Z" /></g></g><text class="highcharts-title" style="width: 536px; color: rgb(51, 51, 51); font-size: 18px; fill: #333333;" text-anchor="middle" x="300" y="25" ><tspan>Questions Correct Over Time</tspan></text><text class="highcharts-subtitle" style="width: 536px; color: rgb(85, 85, 85); fill: #555555;" text-anchor="middle" x="300" y="53" ><tspan>Click and drag in the plot area to zoom in</tspan></text><g class="highcharts-legend" transform="translate(255 364)" ><g ><g><g class="highcharts-legend-item" transform="translate(8 3)" ><path fill="none" stroke="#9ab2d6" stroke-width="2" d="M 0 11 L 16 11" /><path fill="#9ab2d6" d="M 8 7 C 13.328 7 13.328 15 8 15 C 2.672 15 2.672 7 8 7 Z" /><text style="color: rgb(51, 51, 51); font-size: 12px; font-weight: bold; cursor: pointer; fill: #333333;" text-anchor="start" x="21" y="15" >Questions</text></g></g></g></g><g class="highcharts-axis-labels highcharts-xaxis-labels" ><text style="color: rgb(96, 96, 96); font-size: 11px; cursor: default; fill: #606060;" opacity="1" text-anchor="middle" x="115.4307" y="319"><tspan>05:00 PM</tspan></text><text style="color: rgb(96, 96, 96); font-size: 11px; cursor: default; fill: #606060;" opacity="1" text-anchor="middle" x="190.6316" y="319"><tspan>06:00 PM</tspan></text><text style="color: rgb(96, 96, 96); font-size: 11px; cursor: default; fill: #606060;" opacity="1" text-anchor="middle" x="265.8326" y="319"><tspan>07:00 PM</tspan></text><text style="color: rgb(96, 96, 96); font-size: 11px; cursor: default; fill: #606060;" opacity="1" text-anchor="middle" x="341.0335" y="319"><tspan>08:00 PM</tspan></text><text style="color: rgb(96, 96, 96); font-size: 11px; cursor: default; fill: #606060;" opacity="1" text-anchor="middle" x="416.2344" y="319"><tspan>09:00 PM</tspan></text><text style="color: rgb(96, 96, 96); font-size: 11px; cursor: default; fill: #606060;" opacity="1" text-anchor="middle" x="491.4354" y="319"><tspan>10:00 PM</tspan></text><text style="color: rgb(96, 96, 96); font-size: 11px; cursor: default; fill: #606060;" opacity="1" text-anchor="middle" x="566.6363" y="319"><tspan>11:00 PM</tspan></text></g><g class="highcharts-axis-labels highcharts-yaxis-labels" ><text style="width: 178px; color: rgb(96, 96, 96); font-size: 11px; cursor: default; fill: #606060;" opacity="1" text-anchor="end" x="52" y="304">0</text><text style="width: 178px; color: rgb(96, 96, 96); font-size: 11px; cursor: default; fill: #606060;" opacity="1" text-anchor="end" x="52" y="247.25">10</text><text style="width: 178px; color: rgb(96, 96, 96); font-size: 11px; cursor: default; fill: #606060;" opacity="1" text-anchor="end" x="52" y="190.5">20</text><text style="width: 178px; color: rgb(96, 96, 96); font-size: 11px; cursor: default; fill: #606060;" opacity="1" text-anchor="end" x="52" y="133.75">30</text><text style="width: 178px; color: rgb(96, 96, 96); font-size: 11px; cursor: default; fill: #606060;" opacity="1" text-anchor="end" x="52" y="77">40</text></g><g class="highcharts-tooltip" style="padding: 0px; white-space: nowrap; cursor: default;" transform="translate(0 -9999)" ><path fill="none" stroke="black" stroke-opacity="0.05" stroke-width="5" transform="translate(1 1)" d="M 3 0 L 13 0 C 16 0 16 0 16 3 L 16 13 C 16 16 16 16 13 16 L 3 16 C 0 16 0 16 0 13 L 0 3 C 0 0 0 0 3 0"  /><path fill="none" stroke="black" stroke-opacity="0.1" stroke-width="3" transform="translate(1 1)" d="M 3 0 L 13 0 C 16 0 16 0 16 3 L 16 13 C 16 16 16 16 13 16 L 3 16 C 0 16 0 16 0 13 L 0 3 C 0 0 0 0 3 0"  /><path fill="none" stroke="black" stroke-opacity="0.15" stroke-width="1" transform="translate(1 1)" d="M 3 0 L 13 0 C 16 0 16 0 16 3 L 16 13 C 16 16 16 16 13 16 L 3 16 C 0 16 0 16 0 13 L 0 3 C 0 0 0 0 3 0"  /><path fill="rgb(249, 249, 249)" fill-opacity=" 0.85" d="M 3 0 L 13 0 C 16 0 16 0 16 3 L 16 13 C 16 16 16 16 13 16 L 3 16 C 0 16 0 16 0 13 L 0 3 C 0 0 0 0 3 0" /><text style="color: rgb(51, 51, 51); font-size: 12px; fill: #333333;" x="8" y="21" ></text></g><text style="color: rgb(144, 144, 144); font-size: 9px; cursor: pointer; fill: #909090;" text-anchor="end" x="590" y="395" >Highcharts.com</text></svg>