<svg xmlns:xlink="http://www.w3.org/1999/xlink" version="1.1" style="font-family:'lucida grande', 'lucida sans unicode', arial, helvetica, sans-serif;font-size:12px;" xmlns="http://www.w3.org/2000/svg" width="600" height="400"><desc>Created with Highcharts 4.0.4</desc><defs><clipPath id="highcharts-59"><rect x="0" y="0" width="523" height="249"></rect></clipPath></defs><rect x="0" y="0" width="600" height="400" strokeWidth="0" fill="#FFFFFF" class=" highcharts-background"></rect><g class="highcharts-grid" ></g><g class="highcharts-grid" ><path fill="none" d="M 67 60.5 L 590 60.5" stroke="#C0C0C0" stroke-width="1"  opacity="1"></path><path fill="none" d="M 67 122.5 L 590 122.5" stroke="#C0C0C0" stroke-width="1"  opacity="1"></path><path fill="none" d="M 67 185.5 L 590 185.5" stroke="#C0C0C0" stroke-width="1"  opacity="1"></path><path fill="none" d="M 67 247.5 L 590 247.5" stroke="#C0C0C0" stroke-width="1"  opacity="1"></path><path fill="none" d="M 67 309.5 L 590 309.5" stroke="#C0C0C0" stroke-width="1"  opacity="1"></path></g><g class="highcharts-axis" ><path fill="none" d="M 221.5 309 L 221.5 319" stroke="#C0D0E0" stroke-width="1" opacity="1"></path><path fill="none" d="M 340.5 309 L 340.5 319" stroke="#C0D0E0" stroke-width="1" opacity="1"></path><path fill="none" d="M 459.5 309 L 459.5 319" stroke="#C0D0E0" stroke-width="1" opacity="1"></path><path fill="none" d="M 579.5 309 L 579.5 319" stroke="#C0D0E0" stroke-width="1" opacity="1"></path><path fill="none" d="M 101.5 309 L 101.5 319" stroke="#C0D0E0" stroke-width="1" opacity="1"></path><text x="328.5"  text-anchor="middle" transform="translate(0,0)" class=" highcharts-xaxis-title" style="color:#707070;fill:#707070;" visibility="visible" y="346.34375">Time</text><path fill="none" d="M 67 309.5 L 590 309.5" stroke="#C0D0E0" stroke-width="1"  visibility="visible"></path></g><g class="highcharts-axis" ><text x="23.640625"  text-anchor="middle" transform="translate(0,0) rotate(270 23.640625 184.5)" class=" highcharts-yaxis-title" style="color:#707070;fill:#707070;" visibility="visible" y="184.5"><tspan>Questions Correct</tspan></text></g><g class="highcharts-series-group" ><g class="highcharts-series" visibility="visible"  transform="translate(67,60) scale(1 1)" clip-path="url(#highcharts-59)"><path fill="none" d="M 5.127450980392157 246.51 C 5.127450980392157 246.51 5.187139981295671 244.02385921859866 5.226932648564681 244.02 C 25.726788403316057 242.0318592185987 35.97671628069175 241.53 56.47657203544312 241.53 C 56.52962892513513 241.53 56.55615736998114 241.53 56.60921425967315 241.53 C 56.64237481573066 241.53 56.65895509375942 239.80615384615368 56.69211564981692 239.04 C 56.74517253950894 237.8141538461537 56.771700984354936 237.6882857142857 56.82475787404695 236.55 C 56.864550541315964 235.69628571428572 56.884446874950456 235.05600000000018 56.924239542219475 234.06 C 56.96403220948848 233.06400000000016 56.983928543122985 232.56600000000017 57.023721210392004 231.57 C 57.06351387766101 230.57400000000018 57.083410211295515 230.07600000000008 57.12320287856453 229.07999999999998 C 57.16299554583353 228.08400000000006 57.182891879468045 227.29305882352932 57.22268454673705 226.59 C 57.29563777006357 225.30105882352936 57.33211438172682 225.38894117647058 57.40506760505334 224.1 C 57.44486027232235 223.39694117647056 57.46475660595686 222.52938461538452 57.50454927322586 221.61 C 57.550974051706376 220.53738461538455 57.57418644094663 220.11599999999987 57.62061121942714 219.12 C 57.66703599790766 218.12399999999985 57.69024838714792 217.5015 57.736673165628424 216.63 C 57.796362166531935 215.50949999999997 57.826206666983694 215.26049999999998 57.885895667887205 214.14 C 57.93232044636771 213.26850000000002 57.95553283560797 212.7226153846155 58.00195761408848 211.65 C 58.04175028135749 210.73061538461548 58.06164661499199 209.907 58.101439282261005 209.16 C 58.167760394376025 207.915 58.200920950433535 207.91500000000002 58.26724206254855 206.67 C 58.30703472981755 205.923 58.32693106345206 204.92700000000005 58.36672373072107 204.18 C 58.43304484283608 202.93500000000006 58.4662053988936 202.7384210526315 58.53252651100861 201.69 C 58.59221551191213 200.74642105263152 58.62206001236389 200.09639999999987 58.68174901326739 199.2 C 58.754702236593914 198.10439999999988 58.79117884825716 197.99894117647068 58.86413207158369 196.70999999999998 C 58.903924738852695 196.00694117647072 58.9238210724872 194.81760000000003 58.96361373975621 194.22 C 59.05646329671723 192.82560000000004 59.10288807519775 193.12440000000004 59.19573763215877 191.73 C 59.23553029942777 191.13240000000005 59.25542663306228 190.23600000000002 59.29521930033129 189.24 C 59.3350119676003 188.244 59.35490830123481 187.74599999999984 59.39470096850381 186.75 C 59.43449363577283 185.75399999999982 59.45438996940734 185.17938461538452 59.49418263667634 184.26 C 59.540607415156856 183.1873846153845 59.56381980439711 182.93200000000002 59.61024458287762 181.76999999999998 C 59.64340513893512 180.94 59.65998541696388 180.10999999999999 59.69314597302139 179.28 C 59.7395707515019 178.118 59.76278314074216 177.61023529411762 59.809207919222665 176.79 C 59.87552903133768 175.61823529411762 59.90868958739519 175.4066666666666 59.9750106995102 174.3 C 60.028067589202216 173.41466666666665 60.054596034048224 172.53436363636362 60.10765292374023 171.81 C 60.20050248070125 170.54236363636363 60.24692725918177 170.78778947368417 60.33977681614279 169.32 C 60.3729373722003 168.79578947368418 60.38951765022905 167.59615384615384 60.42267820628656 166.82999999999998 C 60.47573509597858 165.60415384615385 60.502263540824586 164.38687058823527 60.555320430516595 164.33999999999997 C 62.75718135273512 162.3948705882353 63.85811181384438 163.80086725663716 66.0599727360629 161.85 C 66.10639751454342 161.80886725663717 66.12960990378367 160.43261538461522 66.17603468226417 159.35999999999999 C 66.21582734953319 158.4406153846152 66.23572368316769 157.78938461538476 66.2755163504367 156.87 C 66.3219411289172 155.79738461538477 66.34515351815746 155.0772000000001 66.39157829663797 154.38 C 66.47779574238749 153.08520000000007 66.52090446526225 152.969 66.60712191101177 151.89 C 66.6800751343383 150.97699999999998 66.71655174600156 149.646202247191 66.78950496932808 149.39999999999998 C 67.3068096438252 147.65420224719102 67.56546198107375 148.7166976744186 68.08276665557088 146.91 C 68.1358235452629 146.7246976744186 68.1623519901089 145.48240000000013 68.21540887980092 144.42 C 68.26183365828142 143.49040000000014 68.28504604752167 142.80149999999998 68.33147082600219 141.93 C 68.3911598269057 140.8095 68.42100432735747 139.89969230769233 68.48069332826098 139.44 C 68.67965666460603 137.90769230769234 68.77913833277856 138.2779999999999 68.97810166912359 136.95 C 69.07758333729612 136.28599999999992 69.12732417138237 135.81818181818193 69.2268058395549 134.45999999999998 C 69.2732306180354 133.82618181818194 69.29644300727566 132.96600000000026 69.34286778575618 131.96999999999997 C 69.38929256423668 130.97400000000027 69.41250495347694 130.25466666666665 69.45892973195745 129.48 C 69.53188295528398 128.26266666666666 69.56835956694724 128.20733333333334 69.64131279027376 126.99 C 69.68773756875427 126.21533333333332 69.71094995799453 125.42959999999982 69.75737473647503 124.49999999999999 C 69.81043162616704 123.43759999999983 69.83696007101305 122.55951724137931 69.89001696070507 122.00999999999999 C 70.02929129614661 120.56751724137929 70.09892846386735 120.9624827586208 70.2382027993089 119.51999999999998 C 70.2912596890009 118.97048275862078 70.3177881338469 117.82679999999999 70.37084502353892 117.03 C 70.45043035807694 115.83480000000002 70.49022302534595 115.49615999999999 70.56980835988398 114.53999999999999 C 70.6560258056335 113.50415999999998 70.69913452850827 112.71399999999994 70.78535197425778 112.04999999999998 C 70.95778686575682 110.72199999999994 71.04400431150634 111.12945454545462 71.21643920300538 109.56 C 71.26286398148588 109.13745454545462 71.28607637072614 108.06599999999999 71.33250114920665 107.07 C 71.37892592768716 106.07399999999998 71.40213831692742 105.31389473684209 71.44856309540793 104.57999999999998 C 71.52814842994596 103.32189473684208 71.56794109721497 102.86109677419344 71.64752643175298 102.08999999999997 C 71.77353654477152 100.86909677419345 71.83654160128079 100.59599999999999 71.96255171429931 99.6 C 72.08856182731783 98.604 72.1515668838271 98.56569230769225 72.27757699684562 97.10999999999999 C 72.32400177532614 96.57369230769224 72.3472141645664 95.69261538461535 72.39363894304691 94.61999999999998 C 72.43343161031592 93.70061538461536 72.45332794395043 92.72759999999985 72.49312061121942 92.13 C 72.58597016818045 90.73559999999985 72.63239494666095 90.71261538461538 72.72524450362198 89.63999999999999 C 72.80482983816 88.72061538461536 72.84462250542902 87.85305882352944 72.92420783996704 87.14999999999998 C 73.07011428662007 85.86105882352943 73.14306750994658 86.1711724137931 73.28897395659962 84.66 C 73.33539873508013 84.1791724137931 73.35861112432039 83.16599999999998 73.4050359028009 82.16999999999999 C 73.45146068128142 81.17399999999998 73.47467307052167 80.84199999999981 73.52109784900217 79.67999999999998 C 73.55425840505968 78.84999999999984 73.57083868308844 78.09545454545454 73.60399923914595 77.19 C 73.64379190641496 76.10345454545454 73.66368824004947 75.61938461538443 73.70348090731846 74.69999999999999 C 73.74990568579898 73.62738461538441 73.77311807503924 73.3720000000002 73.81954285351975 72.20999999999998 C 73.85270340957724 71.38000000000018 73.869283687606 70.07571428571428 73.90244424366351 69.71999999999997 C 74.05498280152804 68.08371428571428 74.13125208046031 68.75719999999997 74.28379063832486 67.22999999999999 C 74.33021541680537 66.7652 74.35342780604563 65.47389473684194 74.39985258452613 64.73999999999998 C 74.47943791906415 63.481894736841944 74.51923058633315 62.24999999999997 74.59881592087117 62.24999999999997 C 250.9798135907556 62.24999999999997 339.17031242569783 62.24999999999997 515.5513100955823 62.24999999999997 C 515.7038486534468 62.24999999999997 515.7801179323791 60.82548837209301 515.9326564902436 59.75999999999999 C 516.0652987144737 58.833488372093015 516.1316198265888 58.3766666666657 516.2642620508187 57.26999999999998 C 516.3703758302029 56.384666666665694 516.4234327198949 55.918285714284465 516.5295464992788 54.77999999999997 C 516.609131833817 53.92628571428447 516.6489245010858 53.17533333333333 516.7285098356239 52.28999999999999 C 516.8279915037964 51.18333333333332 516.8777323378827 50.99519999999998 516.9772140060552 49.79999999999998 C 517.0435351181702 49.00319999999998 517.0766956742277 47.99689655172411 517.1430167863427 47.309999999999974 C 517.2690268993613 46.004896551724116 517.3320319558704 45.93317647058823 517.458042068889 44.81999999999999 C 517.5575237370615 43.94117647058823 517.6072645711478 43.52519999999917 517.7067462393203 42.329999999999984 C 517.7730673514354 41.53319999999916 517.8725490196078 39.839999999999975 517.8725490196078 39.839999999999975" stroke="#9ab2d6" stroke-width="2"  stroke-linejoin="round" stroke-linecap="round"></path></g><g class="highcharts-markers" visibility="visible"  transform="translate(67,60) scale(1 1)" clip-path="none"></g></g><text x="300" text-anchor="middle" class="highcharts-title"  style="color:#333333;font-size:18px;fill:#333333;width:536px;" y="25"><tspan>Questions Correct Over Time</tspan></text><text x="300" text-anchor="middle" class="highcharts-subtitle"  style="color:#555555;fill:#555555;width:536px;" y="45"><tspan>Pinch the chart to zoom in</tspan></text><g class="highcharts-legend"  transform="translate(256,368)"><g ><g><g class="highcharts-legend-item"  transform="translate(8,3)"><path fill="none" d="M 0 11 L 16 11" stroke="#9ab2d6" stroke-width="2"></path><path fill="#9ab2d6" d="M 8 7 C 13.328 7 13.328 15 8 15 C 2.6719999999999997 15 2.6719999999999997 7 8 7 Z"></path><text x="21" style="color:#333333;font-size:12px;font-weight:bold;cursor:pointer;fill:#333333;" text-anchor="start"  y="15">Questions</text></g></g></g></g><g class="highcharts-axis-labels highcharts-xaxis-labels" ><text x="102.13775421243679" text-anchor="middle" style="color:#606060;cursor:default;font-size:11px;fill:#606060;" y="329" opacity="1"><tspan>12:00 PM</tspan></text><text x="221.5157560194652" text-anchor="middle" style="color:#606060;cursor:default;font-size:11px;fill:#606060;" y="329" opacity="1"><tspan>02:00 PM</tspan></text><text x="340.8937578264936" text-anchor="middle" style="color:#606060;cursor:default;font-size:11px;fill:#606060;" y="329" opacity="1"><tspan>04:00 PM</tspan></text><text x="460.271759633522" text-anchor="middle" style="color:#606060;cursor:default;font-size:11px;fill:#606060;" y="329" opacity="1"><tspan>06:00 PM</tspan></text><text x="576.453125" text-anchor="middle" style="color:#606060;cursor:default;font-size:11px;fill:#606060;" y="329" opacity="1"><tspan>08:00 PM</tspan></text></g><g class="highcharts-axis-labels highcharts-yaxis-labels" ><text x="52" text-anchor="end" style="width:178px;color:#606060;cursor:default;font-size:11px;fill:#606060;" y="314.828125" opacity="1">0</text><text x="52" text-anchor="end" style="width:178px;color:#606060;cursor:default;font-size:11px;fill:#606060;" y="65.82812499999997" opacity="1">100</text><text x="52" text-anchor="end" style="width:178px;color:#606060;cursor:default;font-size:11px;fill:#606060;" y="252.578125" opacity="1">25</text><text x="52" text-anchor="end" style="width:178px;color:#606060;cursor:default;font-size:11px;fill:#606060;" y="190.328125" opacity="1">50</text><text x="52" text-anchor="end" style="width:178px;color:#606060;cursor:default;font-size:11px;fill:#606060;" y="128.07812499999997" opacity="1">75</text></g><g class="highcharts-tooltip"  style="cursor:default;padding:0;white-space:nowrap;" transform="translate(0,-9999)"><path fill="none" d="M 3 0 L 13 0 C 16 0 16 0 16 3 L 16 13 C 16 16 16 16 13 16 L 3 16 C 0 16 0 16 0 13 L 0 3 C 0 0 0 0 3 0"  stroke="black" stroke-opacity="0.049999999999999996" stroke-width="5" transform="translate(1, 1)"></path><path fill="none" d="M 3 0 L 13 0 C 16 0 16 0 16 3 L 16 13 C 16 16 16 16 13 16 L 3 16 C 0 16 0 16 0 13 L 0 3 C 0 0 0 0 3 0"  stroke="black" stroke-opacity="0.09999999999999999" stroke-width="3" transform="translate(1, 1)"></path><path fill="none" d="M 3 0 L 13 0 C 16 0 16 0 16 3 L 16 13 C 16 16 16 16 13 16 L 3 16 C 0 16 0 16 0 13 L 0 3 C 0 0 0 0 3 0"  stroke="black" stroke-opacity="0.15" stroke-width="1" transform="translate(1, 1)"></path><path fill="rgb(249, 249, 249)" fill-opacity=" .85" d="M 3 0 L 13 0 C 16 0 16 0 16 3 L 16 13 C 16 16 16 16 13 16 L 3 16 C 0 16 0 16 0 13 L 0 3 C 0 0 0 0 3 0"></path><text x="8"  style="font-size:12px;color:#333333;fill:#333333;" y="21"></text></g><text x="590" text-anchor="end"  style="cursor:pointer;color:#909090;font-size:9px;fill:#909090;" y="395">Highcharts.com</text></svg>