<svg xmlns:xlink="http://www.w3.org/1999/xlink" version="1.1" style="font-family:'lucida grande', 'lucida sans unicode', arial, helvetica, sans-serif;font-size:12px;" xmlns="http://www.w3.org/2000/svg" width="600" height="400"><desc>Created with Highcharts 4.0.4</desc><defs><clipPath id="highcharts-17"><rect x="0" y="0" width="529" height="224"></rect></clipPath></defs><rect x="0" y="0" width="600" height="400" strokeWidth="0" fill="#FFFFFF" class=" highcharts-background"></rect><g class="highcharts-grid" ></g><g class="highcharts-grid" ><path fill="none" d="M 61 184.5 L 590 184.5" stroke="#C0C0C0" stroke-width="1"  opacity="1"></path></g><g class="highcharts-axis" ><path fill="none" d="M 159.5 296 L 159.5 306" stroke="#C0D0E0" stroke-width="1" opacity="1"></path><path fill="none" d="M 254.5 296 L 254.5 306" stroke="#C0D0E0" stroke-width="1" opacity="1"></path><path fill="none" d="M 348.5 296 L 348.5 306" stroke="#C0D0E0" stroke-width="1" opacity="1"></path><path fill="none" d="M 442.5 296 L 442.5 306" stroke="#C0D0E0" stroke-width="1" opacity="1"></path><path fill="none" d="M 537.5 296 L 537.5 306" stroke="#C0D0E0" stroke-width="1" opacity="1"></path><path fill="none" d="M 65.5 296 L 65.5 306" stroke="#C0D0E0" stroke-width="1" opacity="1"></path><text x="325.5"  text-anchor="middle" transform="translate(0,0)" class=" highcharts-xaxis-title" style="color:#707070;fill:#707070;" visibility="visible" y="337.8125">Time</text><path fill="none" d="M 61 296.5 L 590 296.5" stroke="#C0D0E0" stroke-width="1"  visibility="visible"></path></g><g class="highcharts-axis" ><text x="28.78125"  text-anchor="middle" transform="translate(0,0) rotate(270 28.78125 184)" class=" highcharts-yaxis-title" style="color:#707070;fill:#707070;" visibility="visible" y="184"><tspan>Questions Correct</tspan></text></g><g class="highcharts-series-group" ><g class="highcharts-series" visibility="visible"  transform="translate(61,72) scale(1 1)" clip-path="url(#highcharts-17)"><path fill="none" d="M 5.186274509803922 112 C 5.186274509803922 112 174.91889483065955 112 288.07397504456327 112 C 382.3698752228164 112 523.8137254901961 112 523.8137254901961 112" stroke="#9ab2d6" stroke-width="2"  stroke-linejoin="round" stroke-linecap="round"></path></g><g class="highcharts-markers" visibility="visible"  transform="translate(61,72) scale(1 1)" clip-path="none"><path fill="rgb(245, 64, 50)" d="M 523 108 C 528.328 108 528.328 116 523 116 C 517.672 116 517.672 108 523 108 Z"></path><path fill="rgb(245, 64, 50)" d="M 288 108 C 293.328 108 293.328 116 288 116 C 282.672 116 282.672 108 288 108 Z"></path><path fill="rgb(245, 64, 50)" d="M 5 108 C 10.328 108 10.328 116 5 116 C -0.32800000000000007 116 -0.32800000000000007 108 5 108 Z"></path></g></g><text x="300" text-anchor="middle" class="highcharts-title"  style="color:#333333;font-size:18px;fill:#333333;width:536px;" y="25"><tspan>Questions Correct Over Time</tspan></text><text x="300" text-anchor="middle" class="highcharts-subtitle"  style="color:#555555;fill:#555555;width:536px;" y="53"><tspan>Click and drag in the plot area to zoom in</tspan></text><g class="highcharts-legend"  transform="translate(255,364)"><g ><g><g class="highcharts-legend-item"  transform="translate(8,3)"><path fill="none" d="M 0 11 L 16 11" stroke="#9ab2d6" stroke-width="2"></path><path fill="#9ab2d6" d="M 8 7 C 13.328 7 13.328 15 8 15 C 2.6719999999999997 15 2.6719999999999997 7 8 7 Z"></path><text x="21" style="color:#333333;font-size:12px;font-weight:bold;cursor:pointer;fill:#333333;" text-anchor="start"  y="15">Questions</text></g></g></g></g><g class="highcharts-axis-labels highcharts-xaxis-labels" ><text x="66.18627450980392" text-anchor="middle" style="color:#606060;cursor:default;font-size:11px;fill:#606060;" y="316" opacity="1"><tspan>09:13 PM</tspan></text><text x="160.48217468805706" text-anchor="middle" style="color:#606060;cursor:default;font-size:11px;fill:#606060;" y="316" opacity="1"><tspan>09:13 PM</tspan></text><text x="254.77807486631016" text-anchor="middle" style="color:#606060;cursor:default;font-size:11px;fill:#606060;" y="316" opacity="1"><tspan>09:13 PM</tspan></text><text x="349.07397504456327" text-anchor="middle" style="color:#606060;cursor:default;font-size:11px;fill:#606060;" y="316" opacity="1"><tspan>09:13 PM</tspan></text><text x="443.3698752228164" text-anchor="middle" style="color:#606060;cursor:default;font-size:11px;fill:#606060;" y="316" opacity="1"><tspan>09:13 PM</tspan></text><text x="537.6657754010696" text-anchor="middle" style="color:#606060;cursor:default;font-size:11px;fill:#606060;" y="316" opacity="1"><tspan>09:13 PM</tspan></text></g><g class="highcharts-axis-labels highcharts-yaxis-labels" ><text x="46" text-anchor="end" style="width:178px;color:#606060;cursor:default;font-size:11px;fill:#606060;" y="187.59375" opacity="1">0</text></g><g class="highcharts-tooltip"  style="cursor:default;padding:0;white-space:nowrap;" transform="translate(0,-9999)"><path fill="none" d="M 3 0 L 13 0 C 16 0 16 0 16 3 L 16 13 C 16 16 16 16 13 16 L 3 16 C 0 16 0 16 0 13 L 0 3 C 0 0 0 0 3 0"  stroke="black" stroke-opacity="0.049999999999999996" stroke-width="5" transform="translate(1, 1)"></path><path fill="none" d="M 3 0 L 13 0 C 16 0 16 0 16 3 L 16 13 C 16 16 16 16 13 16 L 3 16 C 0 16 0 16 0 13 L 0 3 C 0 0 0 0 3 0"  stroke="black" stroke-opacity="0.09999999999999999" stroke-width="3" transform="translate(1, 1)"></path><path fill="none" d="M 3 0 L 13 0 C 16 0 16 0 16 3 L 16 13 C 16 16 16 16 13 16 L 3 16 C 0 16 0 16 0 13 L 0 3 C 0 0 0 0 3 0"  stroke="black" stroke-opacity="0.15" stroke-width="1" transform="translate(1, 1)"></path><path fill="rgb(249, 249, 249)" fill-opacity=" .85" d="M 3 0 L 13 0 C 16 0 16 0 16 3 L 16 13 C 16 16 16 16 13 16 L 3 16 C 0 16 0 16 0 13 L 0 3 C 0 0 0 0 3 0"></path><text x="8"  style="font-size:12px;color:#333333;fill:#333333;" y="21"></text></g><text x="590" text-anchor="end"  style="cursor:pointer;color:#909090;font-size:9px;fill:#909090;" y="395">Highcharts.com</text></svg>