<svg xmlns:xlink="http://www.w3.org/1999/xlink" version="1.1" style="font-family:'lucida grande', 'lucida sans unicode', arial, helvetica, sans-serif;font-size:12px;" xmlns="http://www.w3.org/2000/svg" width="600" height="400"><desc>Created with Highcharts 4.0.4</desc><defs><clipPath id="highcharts-35"><rect x="0" y="0" width="535" height="249"></rect></clipPath></defs><rect x="0" y="0" width="600" height="400" strokeWidth="0" fill="#FFFFFF" class=" highcharts-background"></rect><g class="highcharts-grid" ></g><g class="highcharts-grid" ><path fill="none" d="M 55 59.5 L 590 59.5" stroke="#C0C0C0" stroke-width="1"  opacity="1"></path><path fill="none" d="M 55 122.5 L 590 122.5" stroke="#C0C0C0" stroke-width="1"  opacity="1"></path><path fill="none" d="M 55 185.5 L 590 185.5" stroke="#C0C0C0" stroke-width="1"  opacity="1"></path><path fill="none" d="M 55 247.5 L 590 247.5" stroke="#C0C0C0" stroke-width="1"  opacity="1"></path><path fill="none" d="M 55 309.5 L 590 309.5" stroke="#C0C0C0" stroke-width="1"  opacity="1"></path></g><g class="highcharts-axis" ><path fill="none" d="M 188.5 309 L 188.5 319" stroke="#C0D0E0" stroke-width="1" opacity="1"></path><path fill="none" d="M 279.5 309 L 279.5 319" stroke="#C0D0E0" stroke-width="1" opacity="1"></path><path fill="none" d="M 370.5 309 L 370.5 319" stroke="#C0D0E0" stroke-width="1" opacity="1"></path><path fill="none" d="M 461.5 309 L 461.5 319" stroke="#C0D0E0" stroke-width="1" opacity="1"></path><path fill="none" d="M 551.5 309 L 551.5 319" stroke="#C0D0E0" stroke-width="1" opacity="1"></path><path fill="none" d="M 97.5 309 L 97.5 319" stroke="#C0D0E0" stroke-width="1" opacity="1"></path><text x="322.5"  text-anchor="middle" transform="translate(0,0)" class=" highcharts-xaxis-title" style="color:#707070;fill:#707070;" visibility="visible" y="346.34375">Time</text><path fill="none" d="M 55 309.5 L 590 309.5" stroke="#C0D0E0" stroke-width="1"  visibility="visible"></path></g><g class="highcharts-axis" ><text x="23.875"  text-anchor="middle" transform="translate(0,0) rotate(270 23.875 184.5)" class=" highcharts-yaxis-title" style="color:#707070;fill:#707070;" visibility="visible" y="184.5"><tspan>Questions Correct</tspan></text></g><g class="highcharts-series-group" ><g class="highcharts-series" visibility="visible"  transform="translate(55,60) scale(1 1)" clip-path="url(#highcharts-35)"><path fill="none" d="M 5.245098039215686 217.875 C 5.245098039215686 217.875 319.5346026310452 211.64580222532632 529.0609390255981 186.75 C 529.096268047753 186.74580222532634 529.1139325588305 169.03269230769894 529.1492615809855 155.625 C 529.1795435999754 144.13269230769896 529.1946846094704 135.99230769232096 529.2249666284604 124.5 C 529.2602956506153 111.09230769232097 529.2779601616928 98.82187499999343 529.3132891838477 93.375 C 529.4394642629725 73.92187499999342 529.5025518025348 80.03571428571887 529.6287268816595 62.25 C 529.6791969133094 55.13571428571886 529.7549019607843 31.125 529.7549019607843 31.125" stroke="#9ab2d6" stroke-width="2"  stroke-linejoin="round" stroke-linecap="round"></path></g><g class="highcharts-markers" visibility="visible"  transform="translate(55,60) scale(1 1)" clip-path="none"><path fill="rgb(8, 243, 53)" d="M 529 27.125 C 534.328 27.125 534.328 35.125 529 35.125 C 523.672 35.125 523.672 27.125 529 27.125 Z"></path><path fill="rgb(8, 243, 53)" d="M 529 58.25 C 534.328 58.25 534.328 66.25 529 66.25 C 523.672 66.25 523.672 58.25 529 58.25 Z"></path><path fill="rgb(8, 243, 53)" d="M 529 89.375 C 534.328 89.375 534.328 97.375 529 97.375 C 523.672 97.375 523.672 89.375 529 89.375 Z"></path><path fill="rgb(8, 243, 53)" d="M 529 120.5 C 534.328 120.5 534.328 128.5 529 128.5 C 523.672 128.5 523.672 120.5 529 120.5 Z"></path><path fill="rgb(8, 243, 53)" d="M 529 151.625 C 534.328 151.625 534.328 159.625 529 159.625 C 523.672 159.625 523.672 151.625 529 151.625 Z"></path><path fill="rgb(8, 243, 53)" d="M 529 182.75 C 534.328 182.75 534.328 190.75 529 190.75 C 523.672 190.75 523.672 182.75 529 182.75 Z"></path><path fill="rgb(8, 243, 53)" d="M 5 213.875 C 10.328 213.875 10.328 221.875 5 221.875 C -0.32800000000000007 221.875 -0.32800000000000007 213.875 5 213.875 Z"></path></g></g><text x="300" text-anchor="middle" class="highcharts-title"  style="color:#333333;font-size:18px;fill:#333333;width:536px;" y="25"><tspan>Questions Correct Over Time</tspan></text><text x="300" text-anchor="middle" class="highcharts-subtitle"  style="color:#555555;fill:#555555;width:536px;" y="45"><tspan>Pinch the chart to zoom in</tspan></text><g class="highcharts-legend"  transform="translate(256,368)"><g ><g><g class="highcharts-legend-item"  transform="translate(8,3)"><path fill="none" d="M 0 11 L 16 11" stroke="#9ab2d6" stroke-width="2"></path><path fill="#9ab2d6" d="M 8 7 C 13.328 7 13.328 15 8 15 C 2.6719999999999997 15 2.6719999999999997 7 8 7 Z"></path><text x="21" style="color:#333333;font-size:12px;font-weight:bold;cursor:pointer;fill:#333333;" text-anchor="start"  y="15">Questions</text></g></g></g></g><g class="highcharts-axis-labels highcharts-xaxis-labels" ><text x="98.1228567924644" text-anchor="middle" style="color:#606060;cursor:default;font-size:11px;fill:#606060;" y="329" opacity="1"><tspan>08:00 AM</tspan></text><text x="188.96891376228143" text-anchor="middle" style="color:#606060;cursor:default;font-size:11px;fill:#606060;" y="329" opacity="1"><tspan>10:00 AM</tspan></text><text x="279.81497073209846" text-anchor="middle" style="color:#606060;cursor:default;font-size:11px;fill:#606060;" y="329" opacity="1"><tspan>12:00 PM</tspan></text><text x="370.6610277019155" text-anchor="middle" style="color:#606060;cursor:default;font-size:11px;fill:#606060;" y="329" opacity="1"><tspan>02:00 PM</tspan></text><text x="461.5070846717325" text-anchor="middle" style="color:#606060;cursor:default;font-size:11px;fill:#606060;" y="329" opacity="1"><tspan>04:00 PM</tspan></text><text x="552.3531416415495" text-anchor="middle" style="color:#606060;cursor:default;font-size:11px;fill:#606060;" y="329" opacity="1"><tspan>06:00 PM</tspan></text></g><g class="highcharts-axis-labels highcharts-yaxis-labels" ><text x="40" text-anchor="end" style="width:178px;color:#606060;cursor:default;font-size:11px;fill:#606060;" y="314.828125" opacity="1">0</text><text x="40" text-anchor="end" style="width:178px;color:#606060;cursor:default;font-size:11px;fill:#606060;" y="252.578125" opacity="1">2</text><text x="40" text-anchor="end" style="width:178px;color:#606060;cursor:default;font-size:11px;fill:#606060;" y="190.328125" opacity="1">4</text><text x="40" text-anchor="end" style="width:178px;color:#606060;cursor:default;font-size:11px;fill:#606060;" y="128.078125" opacity="1">6</text><text x="40" text-anchor="end" style="width:178px;color:#606060;cursor:default;font-size:11px;fill:#606060;" y="65.828125" opacity="1">8</text></g><g class="highcharts-tooltip"  style="cursor:default;padding:0;white-space:nowrap;" transform="translate(0,-9999)"><path fill="none" d="M 3 0 L 13 0 C 16 0 16 0 16 3 L 16 13 C 16 16 16 16 13 16 L 3 16 C 0 16 0 16 0 13 L 0 3 C 0 0 0 0 3 0"  stroke="black" stroke-opacity="0.049999999999999996" stroke-width="5" transform="translate(1, 1)"></path><path fill="none" d="M 3 0 L 13 0 C 16 0 16 0 16 3 L 16 13 C 16 16 16 16 13 16 L 3 16 C 0 16 0 16 0 13 L 0 3 C 0 0 0 0 3 0"  stroke="black" stroke-opacity="0.09999999999999999" stroke-width="3" transform="translate(1, 1)"></path><path fill="none" d="M 3 0 L 13 0 C 16 0 16 0 16 3 L 16 13 C 16 16 16 16 13 16 L 3 16 C 0 16 0 16 0 13 L 0 3 C 0 0 0 0 3 0"  stroke="black" stroke-opacity="0.15" stroke-width="1" transform="translate(1, 1)"></path><path fill="rgb(249, 249, 249)" fill-opacity=" .85" d="M 3 0 L 13 0 C 16 0 16 0 16 3 L 16 13 C 16 16 16 16 13 16 L 3 16 C 0 16 0 16 0 13 L 0 3 C 0 0 0 0 3 0"></path><text x="8"  style="font-size:12px;color:#333333;fill:#333333;" y="21"></text></g><text x="590" text-anchor="end"  style="cursor:pointer;color:#909090;font-size:9px;fill:#909090;" y="395">Highcharts.com</text></svg>