<svg xmlns:xlink="http://www.w3.org/1999/xlink" version="1.1" style="font-family:'lucida grande', 'lucida sans unicode', arial, helvetica, sans-serif;font-size:12px;" xmlns="http://www.w3.org/2000/svg" width="600" height="400"><desc>Created with Highcharts 4.0.4</desc><defs><clipPath id="highcharts-11"><rect x="0" y="0" width="526" height="249"></rect></clipPath></defs><rect x="0" y="0" width="600" height="400" strokeWidth="0" fill="#FFFFFF" class=" highcharts-background"></rect><g class="highcharts-grid" ></g><g class="highcharts-grid" ><path fill="none" d="M 64 59.5 L 590 59.5" stroke="#C0C0C0" stroke-width="1"  opacity="1"></path><path fill="none" d="M 64 110.5 L 590 110.5" stroke="#C0C0C0" stroke-width="1"  opacity="1"></path><path fill="none" d="M 64 160.5 L 590 160.5" stroke="#C0C0C0" stroke-width="1"  opacity="1"></path><path fill="none" d="M 64 209.5 L 590 209.5" stroke="#C0C0C0" stroke-width="1"  opacity="1"></path><path fill="none" d="M 64 259.5 L 590 259.5" stroke="#C0C0C0" stroke-width="1"  opacity="1"></path><path fill="none" d="M 64 309.5 L 590 309.5" stroke="#C0C0C0" stroke-width="1"  opacity="1"></path></g><g class="highcharts-axis" ><path fill="none" d="M 142.5 309 L 142.5 319" stroke="#C0D0E0" stroke-width="1" opacity="1"></path><path fill="none" d="M 215.5 309 L 215.5 319" stroke="#C0D0E0" stroke-width="1" opacity="1"></path><path fill="none" d="M 289.5 309 L 289.5 319" stroke="#C0D0E0" stroke-width="1" opacity="1"></path><path fill="none" d="M 363.5 309 L 363.5 319" stroke="#C0D0E0" stroke-width="1" opacity="1"></path><path fill="none" d="M 437.5 309 L 437.5 319" stroke="#C0D0E0" stroke-width="1" opacity="1"></path><path fill="none" d="M 510.5 309 L 510.5 319" stroke="#C0D0E0" stroke-width="1" opacity="1"></path><path fill="none" d="M 584.5 309 L 584.5 319" stroke="#C0D0E0" stroke-width="1" opacity="1"></path><path fill="none" d="M 68.5 309 L 68.5 319" stroke="#C0D0E0" stroke-width="1" opacity="1"></path><text x="327"  text-anchor="middle" transform="translate(0,0)" class=" highcharts-xaxis-title" style="color:#707070;fill:#707070;" visibility="visible" y="346.34375">Time</text><path fill="none" d="M 64 309.5 L 590 309.5" stroke="#C0D0E0" stroke-width="1"  visibility="visible"></path></g><g class="highcharts-axis" ><text x="23.703125"  text-anchor="middle" transform="translate(0,0) rotate(270 23.703125 184.5)" class=" highcharts-yaxis-title" style="color:#707070;fill:#707070;" visibility="visible" y="184.5"><tspan>Questions Correct</tspan></text></g><g class="highcharts-series-group" ><g class="highcharts-series" visibility="visible"  transform="translate(64,60) scale(1 1)" clip-path="url(#highcharts-11)"><path fill="none" d="M 5.1568627450980395 149.4 C 5.1568627450980395 149.4 520.843137254902 49.80000000000001 520.843137254902 49.80000000000001" stroke="#9ab2d6" stroke-width="2"  stroke-linejoin="round" stroke-linecap="round"></path></g><g class="highcharts-markers" visibility="visible"  transform="translate(64,60) scale(1 1)" clip-path="none"><path fill="rgb(8, 243, 53)" d="M 520 45.80000000000001 C 525.328 45.80000000000001 525.328 53.80000000000001 520 53.80000000000001 C 514.672 53.80000000000001 514.672 45.80000000000001 520 45.80000000000001 Z"></path><path fill="rgb(8, 243, 53)" d="M 5 145.4 C 10.328 145.4 10.328 153.4 5 153.4 C -0.32800000000000007 153.4 -0.32800000000000007 145.4 5 145.4 Z"></path></g></g><text x="300" text-anchor="middle" class="highcharts-title"  style="color:#333333;font-size:18px;fill:#333333;width:536px;" y="25"><tspan>Questions Correct Over Time</tspan></text><text x="300" text-anchor="middle" class="highcharts-subtitle"  style="color:#555555;fill:#555555;width:536px;" y="45"><tspan>Pinch the chart to zoom in</tspan></text><g class="highcharts-legend"  transform="translate(256,368)"><g ><g><g class="highcharts-legend-item"  transform="translate(8,3)"><path fill="none" d="M 0 11 L 16 11" stroke="#9ab2d6" stroke-width="2"></path><path fill="#9ab2d6" d="M 8 7 C 13.328 7 13.328 15 8 15 C 2.6719999999999997 15 2.6719999999999997 7 8 7 Z"></path><text x="21" style="color:#333333;font-size:12px;font-weight:bold;cursor:pointer;fill:#333333;" text-anchor="start"  y="15">Questions</text></g></g></g></g><g class="highcharts-axis-labels highcharts-xaxis-labels" ><text x="69.15686274509804" text-anchor="middle" style="color:#606060;cursor:default;font-size:11px;fill:#606060;" y="329" opacity="1"><tspan>02:56 PM</tspan></text><text x="142.8263305322129" text-anchor="middle" style="color:#606060;cursor:default;font-size:11px;fill:#606060;" y="329" opacity="1"><tspan>02:56 PM</tspan></text><text x="216.49579831932775" text-anchor="middle" style="color:#606060;cursor:default;font-size:11px;fill:#606060;" y="329" opacity="1"><tspan>02:56 PM</tspan></text><text x="290.1652661064426" text-anchor="middle" style="color:#606060;cursor:default;font-size:11px;fill:#606060;" y="329" opacity="1"><tspan>02:56 PM</tspan></text><text x="363.8347338935574" text-anchor="middle" style="color:#606060;cursor:default;font-size:11px;fill:#606060;" y="329" opacity="1"><tspan>02:56 PM</tspan></text><text x="437.5042016806723" text-anchor="middle" style="color:#606060;cursor:default;font-size:11px;fill:#606060;" y="329" opacity="1"><tspan>02:56 PM</tspan></text><text x="511.17366946778714" text-anchor="middle" style="color:#606060;cursor:default;font-size:11px;fill:#606060;" y="329" opacity="1"><tspan>02:56 PM</tspan></text><text x="576.453125" text-anchor="middle" style="color:#606060;cursor:default;font-size:11px;fill:#606060;" y="329" opacity="1"><tspan>02:56 PM</tspan></text></g><g class="highcharts-axis-labels highcharts-yaxis-labels" ><text x="49" text-anchor="end" style="width:178px;color:#606060;cursor:default;font-size:11px;fill:#606060;" y="314.828125" opacity="1">0</text><text x="49" text-anchor="end" style="width:178px;color:#606060;cursor:default;font-size:11px;fill:#606060;" y="265.028125" opacity="1">0.5</text><text x="49" text-anchor="end" style="width:178px;color:#606060;cursor:default;font-size:11px;fill:#606060;" y="215.22812499999998" opacity="1">1</text><text x="49" text-anchor="end" style="width:178px;color:#606060;cursor:default;font-size:11px;fill:#606060;" y="165.42812500000002" opacity="1">1.5</text><text x="49" text-anchor="end" style="width:178px;color:#606060;cursor:default;font-size:11px;fill:#606060;" y="115.62812500000001" opacity="1">2</text><text x="49" text-anchor="end" style="width:178px;color:#606060;cursor:default;font-size:11px;fill:#606060;" y="65.828125" opacity="1">2.5</text></g><g class="highcharts-tooltip"  style="cursor:default;padding:0;white-space:nowrap;" transform="translate(0,-9999)"><path fill="none" d="M 3 0 L 13 0 C 16 0 16 0 16 3 L 16 13 C 16 16 16 16 13 16 L 3 16 C 0 16 0 16 0 13 L 0 3 C 0 0 0 0 3 0"  stroke="black" stroke-opacity="0.049999999999999996" stroke-width="5" transform="translate(1, 1)"></path><path fill="none" d="M 3 0 L 13 0 C 16 0 16 0 16 3 L 16 13 C 16 16 16 16 13 16 L 3 16 C 0 16 0 16 0 13 L 0 3 C 0 0 0 0 3 0"  stroke="black" stroke-opacity="0.09999999999999999" stroke-width="3" transform="translate(1, 1)"></path><path fill="none" d="M 3 0 L 13 0 C 16 0 16 0 16 3 L 16 13 C 16 16 16 16 13 16 L 3 16 C 0 16 0 16 0 13 L 0 3 C 0 0 0 0 3 0"  stroke="black" stroke-opacity="0.15" stroke-width="1" transform="translate(1, 1)"></path><path fill="rgb(249, 249, 249)" fill-opacity=" .85" d="M 3 0 L 13 0 C 16 0 16 0 16 3 L 16 13 C 16 16 16 16 13 16 L 3 16 C 0 16 0 16 0 13 L 0 3 C 0 0 0 0 3 0"></path><text x="8"  style="font-size:12px;color:#333333;fill:#333333;" y="21"></text></g><text x="590" text-anchor="end"  style="cursor:pointer;color:#909090;font-size:9px;fill:#909090;" y="395">Highcharts.com</text></svg>