<svg xmlns:xlink="http://www.w3.org/1999/xlink" xmlns="http://www.w3.org/2000/svg" style="font-family: 'lucida grande', 'lucida sans unicode', arial, helvetica, sans-serif; font-size: 12px;" width="600" height="400" version="1.1"><desc>Created with Highcharts 4.0.4</desc><defs><clipPath id="highcharts-23"><rect x="0" y="0" width="519" height="227" /></clipPath></defs><rect class=" highcharts-background" fill="#ffffff" x="0" y="0" width="600" height="400" strokeWidth="0" /><g class="highcharts-grid"  /><g class="highcharts-grid" ><path opacity="1" fill="none" stroke="#c0c0c0" stroke-width="1" d="M 71 71.5 L 590 71.5"  /><path opacity="1" fill="none" stroke="#c0c0c0" stroke-width="1" d="M 71 129.5 L 590 129.5"  /><path opacity="1" fill="none" stroke="#c0c0c0" stroke-width="1" d="M 71 186.5 L 590 186.5"  /><path opacity="1" fill="none" stroke="#c0c0c0" stroke-width="1" d="M 71 242.5 L 590 242.5"  /><path opacity="1" fill="none" stroke="#c0c0c0" stroke-width="1" d="M 71 299.5 L 590 299.5"  /></g><g class="highcharts-axis" ><path opacity="1" fill="none" stroke="#c0d0e0" stroke-width="1" d="M 269.5 299 L 269.5 309" /><path opacity="1" fill="none" stroke="#c0d0e0" stroke-width="1" d="M 380.5 299 L 380.5 309" /><path opacity="1" fill="none" stroke="#c0d0e0" stroke-width="1" d="M 492.5 299 L 492.5 309" /><path opacity="1" fill="none" stroke="#c0d0e0" stroke-width="1" d="M 158.5 299 L 158.5 309" /><text class=" highcharts-xaxis-title" visibility="visible" style="color: rgb(112, 112, 112); fill: #707070;" text-anchor="middle" transform="translate(0)" x="330.5" y="338" >Time</text><path visibility="visible" fill="none" stroke="#c0d0e0" stroke-width="1" d="M 71 299.5 L 590 299.5"  /></g><g class="highcharts-axis" ><text class=" highcharts-yaxis-title" visibility="visible" style="color: rgb(112, 112, 112); fill: #707070;" text-anchor="middle" transform="translate(0) rotate(270 28.6 185.5)" x="28.6" y="185.5" ><tspan>Questions Correct</tspan></text></g><g class="highcharts-series-group" ><g class="highcharts-series" visibility="visible" clip-path="url(#highcharts-23)" transform="translate(71 72) scale(1)" ><path fill="none" stroke="#9ab2d6" stroke-linecap="round" stroke-linejoin="round" stroke-width="2" d="M 5.08824 227 C 5.08824 227 7.97886 215.542 9.90594 204.3 C 11.0918 197.382 11.6848 184.758 12.8707 181.6 C 18.5037 166.598 21.3202 158.9 26.9532 158.9 C 30.2144 158.9 31.845 158.9 35.1062 158.9 C 38.071 158.9 39.5533 158.9 42.5181 158.9 C 44.0005 158.9 44.7416 147.55 46.224 136.2 C 47.1134 129.39 47.5581 113.81 48.4476 113.5 C 99.5893 95.6504 125.16 108.498 176.302 90.8 C 177.636 90.3383 178.303 77.18 179.637 68.1 C 180.971 59.02 181.639 45.5812 182.973 45.4 C 315.348 27.4212 513.912 22.7 513.912 22.7"  /></g><g class="highcharts-markers" visibility="visible" clip-path="none" transform="translate(71 72) scale(1)" ><path fill="rgb(8, 243, 53)" d="M 513 18.7 C 518.328 18.7 518.328 26.7 513 26.7 C 507.672 26.7 507.672 18.7 513 18.7 Z" /><path fill="rgb(8, 243, 53)" d="M 182 41.4 C 187.328 41.4 187.328 49.4 182 49.4 C 176.672 49.4 176.672 41.4 182 41.4 Z" /><path fill="rgb(8, 243, 53)" d="M 179 64.1 C 184.328 64.1 184.328 72.1 179 72.1 C 173.672 72.1 173.672 64.1 179 64.1 Z" /><path fill="rgb(8, 243, 53)" d="M 176 86.8 C 181.328 86.8 181.328 94.8 176 94.8 C 170.672 94.8 170.672 86.8 176 86.8 Z" /><path fill="rgb(8, 243, 53)" d="M 48 109.5 C 53.328 109.5 53.328 117.5 48 117.5 C 42.672 117.5 42.672 109.5 48 109.5 Z" /><path fill="rgb(8, 243, 53)" d="M 46 132.2 C 51.328 132.2 51.328 140.2 46 140.2 C 40.672 140.2 40.672 132.2 46 132.2 Z" /><path fill="rgb(245, 64, 50)" d="M 42 154.9 C 47.328 154.9 47.328 162.9 42 162.9 C 36.672 162.9 36.672 154.9 42 154.9 Z" /><path fill="rgb(245, 64, 50)" d="M 35 154.9 C 40.328 154.9 40.328 162.9 35 162.9 C 29.672 162.9 29.672 154.9 35 154.9 Z" /><path fill="rgb(8, 243, 53)" d="M 26 154.9 C 31.328 154.9 31.328 162.9 26 162.9 C 20.672 162.9 20.672 154.9 26 154.9 Z" /><path fill="rgb(8, 243, 53)" d="M 12 177.6 C 17.328 177.6 17.328 185.6 12 185.6 C 6.672 185.6 6.672 177.6 12 177.6 Z" /><path fill="rgb(8, 243, 53)" d="M 9 200.3 C 14.328 200.3 14.328 208.3 9 208.3 C 3.672 208.3 3.672 200.3 9 200.3 Z" /><path fill="rgb(245, 64, 50)" d="M 5 223 C 10.328 223 10.328 231 5 231 C -0.328 231 -0.328 223 5 223 Z" /></g></g><text class="highcharts-title" style="width: 536px; color: rgb(51, 51, 51); font-size: 18px; fill: #333333;" text-anchor="middle" x="300" y="25" ><tspan>Questions Correct Over Time</tspan></text><text class="highcharts-subtitle" style="width: 536px; color: rgb(85, 85, 85); fill: #555555;" text-anchor="middle" x="300" y="53" ><tspan>Click and drag in the plot area to zoom in</tspan></text><g class="highcharts-legend" transform="translate(255 364)" ><g ><g><g class="highcharts-legend-item" transform="translate(8 3)" ><path fill="none" stroke="#9ab2d6" stroke-width="2" d="M 0 11 L 16 11" /><path fill="#9ab2d6" d="M 8 7 C 13.328 7 13.328 15 8 15 C 2.672 15 2.672 7 8 7 Z" /><text style="color: rgb(51, 51, 51); font-size: 12px; font-weight: bold; cursor: pointer; fill: #333333;" text-anchor="start" x="21" y="15" >Questions</text></g></g></g></g><g class="highcharts-axis-labels highcharts-xaxis-labels" ><text style="color: rgb(96, 96, 96); font-size: 11px; cursor: default; fill: #606060;" opacity="1" text-anchor="middle" x="159.101" y="319"><tspan>03:15 PM</tspan></text><text style="color: rgb(96, 96, 96); font-size: 11px; cursor: default; fill: #606060;" opacity="1" text-anchor="middle" x="270.2787" y="319"><tspan>03:20 PM</tspan></text><text style="color: rgb(96, 96, 96); font-size: 11px; cursor: default; fill: #606060;" opacity="1" text-anchor="middle" x="381.4565" y="319"><tspan>03:25 PM</tspan></text><text style="color: rgb(96, 96, 96); font-size: 11px; cursor: default; fill: #606060;" opacity="1" text-anchor="middle" x="492.6342" y="319"><tspan>03:30 PM</tspan></text></g><g class="highcharts-axis-labels highcharts-yaxis-labels" ><text style="width: 178px; color: rgb(96, 96, 96); font-size: 11px; cursor: default; fill: #606060;" opacity="1" text-anchor="end" x="56" y="304">0</text><text style="width: 178px; color: rgb(96, 96, 96); font-size: 11px; cursor: default; fill: #606060;" opacity="1" text-anchor="end" x="56" y="77">10</text><text style="width: 178px; color: rgb(96, 96, 96); font-size: 11px; cursor: default; fill: #606060;" opacity="1" text-anchor="end" x="56" y="247.25">2.5</text><text style="width: 178px; color: rgb(96, 96, 96); font-size: 11px; cursor: default; fill: #606060;" opacity="1" text-anchor="end" x="56" y="190.5">5</text><text style="width: 178px; color: rgb(96, 96, 96); font-size: 11px; cursor: default; fill: #606060;" opacity="1" text-anchor="end" x="56" y="133.75">7.5</text></g><g class="highcharts-tooltip" style="padding: 0px; white-space: nowrap; cursor: default;" transform="translate(0 -9999)" ><path fill="none" stroke="black" stroke-opacity="0.05" stroke-width="5" transform="translate(1 1)" d="M 3 0 L 13 0 C 16 0 16 0 16 3 L 16 13 C 16 16 16 16 13 16 L 3 16 C 0 16 0 16 0 13 L 0 3 C 0 0 0 0 3 0"  /><path fill="none" stroke="black" stroke-opacity="0.1" stroke-width="3" transform="translate(1 1)" d="M 3 0 L 13 0 C 16 0 16 0 16 3 L 16 13 C 16 16 16 16 13 16 L 3 16 C 0 16 0 16 0 13 L 0 3 C 0 0 0 0 3 0"  /><path fill="none" stroke="black" stroke-opacity="0.15" stroke-width="1" transform="translate(1 1)" d="M 3 0 L 13 0 C 16 0 16 0 16 3 L 16 13 C 16 16 16 16 13 16 L 3 16 C 0 16 0 16 0 13 L 0 3 C 0 0 0 0 3 0"  /><path fill="rgb(249, 249, 249)" fill-opacity=" 0.85" d="M 3 0 L 13 0 C 16 0 16 0 16 3 L 16 13 C 16 16 16 16 13 16 L 3 16 C 0 16 0 16 0 13 L 0 3 C 0 0 0 0 3 0" /><text style="color: rgb(51, 51, 51); font-size: 12px; fill: #333333;" x="8" y="21" ></text></g><text style="color: rgb(144, 144, 144); font-size: 9px; cursor: pointer; fill: #909090;" text-anchor="end" x="590" y="395" >Highcharts.com</text></svg>