<svg xmlns:xlink="http://www.w3.org/1999/xlink" version="1.1" style="font-family:'lucida grande', 'lucida sans unicode', arial, helvetica, sans-serif;font-size:12px;" xmlns="http://www.w3.org/2000/svg" width="600" height="400"><desc>Created with Highcharts 4.0.4</desc><defs><clipPath id="highcharts-77"><rect x="0" y="0" width="523" height="225"></rect></clipPath></defs><rect x="0" y="0" width="600" height="400" strokeWidth="0" fill="#FFFFFF" class=" highcharts-background"></rect><g class="highcharts-grid" ></g><g class="highcharts-grid" ><path fill="none" d="M 67 70.5 L 590 70.5" stroke="#C0C0C0" stroke-width="1"  opacity="1"></path><path fill="none" d="M 67 146.5 L 590 146.5" stroke="#C0C0C0" stroke-width="1"  opacity="1"></path><path fill="none" d="M 67 221.5 L 590 221.5" stroke="#C0C0C0" stroke-width="1"  opacity="1"></path><path fill="none" d="M 67 296.5 L 590 296.5" stroke="#C0C0C0" stroke-width="1"  opacity="1"></path></g><g class="highcharts-axis" ><path fill="none" d="M 198.5 296 L 198.5 306" stroke="#C0D0E0" stroke-width="1" opacity="1"></path><path fill="none" d="M 288.5 296 L 288.5 306" stroke="#C0D0E0" stroke-width="1" opacity="1"></path><path fill="none" d="M 378.5 296 L 378.5 306" stroke="#C0D0E0" stroke-width="1" opacity="1"></path><path fill="none" d="M 468.5 296 L 468.5 306" stroke="#C0D0E0" stroke-width="1" opacity="1"></path><path fill="none" d="M 558.5 296 L 558.5 306" stroke="#C0D0E0" stroke-width="1" opacity="1"></path><path fill="none" d="M 108.5 296 L 108.5 306" stroke="#C0D0E0" stroke-width="1" opacity="1"></path><text x="328.5"  text-anchor="middle" transform="translate(0,0)" class=" highcharts-xaxis-title" style="color:#707070;fill:#707070;" visibility="visible" y="338">Time</text><path fill="none" d="M 67 296.5 L 590 296.5" stroke="#C0D0E0" stroke-width="1"  visibility="visible"></path></g><g class="highcharts-axis" ><text x="28.03125"  text-anchor="middle" transform="translate(0,0) rotate(270 28.03125 183.5)" class=" highcharts-yaxis-title" style="color:#707070;fill:#707070;" visibility="visible" y="183.5"><tspan>Questions Correct</tspan></text></g><g class="highcharts-series-group" ><g class="highcharts-series" visibility="visible"  transform="translate(67,71) scale(1 1)" clip-path="url(#highcharts-77)"><path fill="none" d="M 5.127450980392157 217.5 C 5.127450980392157 217.5 5.8466726258007595 213.42857142857142 6.326153722739827 210 C 6.685764545444128 207.42857142857142 6.8655699567962785 205.5 7.22518077950058 202.5 C 7.584791602204881 199.5 7.764597013557031 197.25 8.124207836261332 195 C 8.723559207435168 191.25 9.023234893022083 187.55042016806723 9.622586264195919 187.5 C 80.34604806270843 181.55042016806723 115.7077789619647 185.96964586846542 186.4312407604772 180 C 186.79085158318154 179.96964586846542 186.97065699453364 173.78571428571436 187.33026781723797 172.5 C 188.6488408338204 167.78571428571436 189.30812734211162 169.39999999999995 190.62670035869405 165 C 191.10618145563313 163.39999999999995 191.34592200410265 160.5 191.82540310104173 157.5 C 192.3048841979808 154.5 192.54462474645032 153.4285714285714 193.02410584338938 150 C 193.38371666609368 147.4285714285714 193.56352207744584 145.4999999999999 193.92313290015014 142.5 C 194.28274372285446 139.4999999999999 194.46254913420657 138.0000000000001 194.8221599569109 135 C 195.1817707796152 132.0000000000001 195.36157619096736 127.51890756302521 195.72118701367165 127.5 C 309.4780772624655 121.51890756302521 366.3565223868624 125.98109243697479 480.1134126356563 120 C 480.4730234583606 119.98109243697479 480.6528288697127 115.5 481.01243969241705 112.5 C 481.3720505151214 109.5 481.5518559264735 105.18750000000001 481.9114667491778 105 C 493.0594022530111 99.18750000000001 498.6333700049278 103.31249999999999 509.78130550876114 97.5 C 510.14091633146546 97.31249999999999 510.32072174281757 93.59999999999965 510.68033256552184 90 C 510.9200731139914 87.59999999999965 511.0399433882261 84.89999999999989 511.2796839366957 82.5 C 511.63929475940006 78.89999999999989 511.81910017075217 77.24999999999987 512.1787109934564 75 C 512.7780623646303 71.24999999999987 513.0777380502172 70.83333333333347 513.6770894213911 67.5 C 514.1565705183301 64.83333333333347 514.3963110667996 64 514.8757921637387 60 C 515.1155327122082 58 515.235402986443 52.5 515.4751435349125 52.5 C 515.714884083382 52.5 515.8347543576168 52.5 516.0744949060863 52.5 C 516.5539760030254 52.5 516.793716551495 49 517.273197648434 45 C 517.5129381969035 43 517.8725490196078 37.5 517.8725490196078 37.5" stroke="#9ab2d6" stroke-width="2"  stroke-linejoin="round" stroke-linecap="round"></path></g><g class="highcharts-markers" visibility="visible"  transform="translate(67,71) scale(1 1)" clip-path="none"><path fill="rgb(8, 243, 53)" d="M 517 33.5 C 522.328 33.5 522.328 41.5 517 41.5 C 511.672 41.5 511.672 33.5 517 33.5 Z"></path><path fill="rgb(8, 243, 53)" d="M 517 41 C 522.328 41 522.328 49 517 49 C 511.672 49 511.672 41 517 41 Z"></path><path fill="rgb(245, 64, 50)" d="M 516 48.5 C 521.328 48.5 521.328 56.5 516 56.5 C 510.672 56.5 510.672 48.5 516 48.5 Z"></path><path fill="rgb(8, 243, 53)" d="M 515 48.5 C 520.328 48.5 520.328 56.5 515 56.5 C 509.672 56.5 509.672 48.5 515 48.5 Z"></path><path fill="rgb(8, 243, 53)" d="M 514 56 C 519.328 56 519.328 64 514 64 C 508.672 64 508.672 56 514 56 Z"></path><path fill="rgb(8, 243, 53)" d="M 513 63.5 C 518.328 63.5 518.328 71.5 513 71.5 C 507.672 71.5 507.672 63.5 513 63.5 Z"></path><path fill="rgb(8, 243, 53)" d="M 512 71 C 517.328 71 517.328 79 512 79 C 506.672 79 506.672 71 512 71 Z"></path><path fill="rgb(8, 243, 53)" d="M 511 78.5 C 516.328 78.5 516.328 86.5 511 86.5 C 505.672 86.5 505.672 78.5 511 78.5 Z"></path><path fill="rgb(8, 243, 53)" d="M 510 86 C 515.328 86 515.328 94 510 94 C 504.672 94 504.672 86 510 86 Z"></path><path fill="rgb(8, 243, 53)" d="M 509 93.5 C 514.328 93.5 514.328 101.5 509 101.5 C 503.672 101.5 503.672 93.5 509 93.5 Z"></path><path fill="rgb(8, 243, 53)" d="M 481 101 C 486.328 101 486.328 109 481 109 C 475.672 109 475.672 101 481 101 Z"></path><path fill="rgb(8, 243, 53)" d="M 481 108.5 C 486.328 108.5 486.328 116.5 481 116.5 C 475.672 116.5 475.672 108.5 481 108.5 Z"></path><path fill="rgb(8, 243, 53)" d="M 480 116 C 485.328 116 485.328 124 480 124 C 474.672 124 474.672 116 480 116 Z"></path><path fill="rgb(8, 243, 53)" d="M 195 123.5 C 200.328 123.5 200.328 131.5 195 131.5 C 189.672 131.5 189.672 123.5 195 123.5 Z"></path><path fill="rgb(8, 243, 53)" d="M 194 131 C 199.328 131 199.328 139 194 139 C 188.672 139 188.672 131 194 131 Z"></path><path fill="rgb(8, 243, 53)" d="M 193 138.5 C 198.328 138.5 198.328 146.5 193 146.5 C 187.672 146.5 187.672 138.5 193 138.5 Z"></path><path fill="rgb(8, 243, 53)" d="M 193 146 C 198.328 146 198.328 154 193 154 C 187.672 154 187.672 146 193 146 Z"></path><path fill="rgb(8, 243, 53)" d="M 191 153.5 C 196.328 153.5 196.328 161.5 191 161.5 C 185.672 161.5 185.672 153.5 191 153.5 Z"></path><path fill="rgb(8, 243, 53)" d="M 190 161 C 195.328 161 195.328 169 190 169 C 184.672 169 184.672 161 190 161 Z"></path><path fill="rgb(8, 243, 53)" d="M 187 168.5 C 192.328 168.5 192.328 176.5 187 176.5 C 181.672 176.5 181.672 168.5 187 168.5 Z"></path><path fill="rgb(8, 243, 53)" d="M 186 176 C 191.328 176 191.328 184 186 184 C 180.672 184 180.672 176 186 176 Z"></path><path fill="rgb(8, 243, 53)" d="M 9 183.5 C 14.328 183.5 14.328 191.5 9 191.5 C 3.6719999999999997 191.5 3.6719999999999997 183.5 9 183.5 Z"></path><path fill="rgb(8, 243, 53)" d="M 8 191 C 13.328 191 13.328 199 8 199 C 2.6719999999999997 199 2.6719999999999997 191 8 191 Z"></path><path fill="rgb(8, 243, 53)" d="M 7 198.5 C 12.328 198.5 12.328 206.5 7 206.5 C 1.672 206.5 1.672 198.5 7 198.5 Z"></path><path fill="rgb(8, 243, 53)" d="M 6 206 C 11.328 206 11.328 214 6 214 C 0.6719999999999999 214 0.6719999999999999 206 6 206 Z"></path><path fill="rgb(8, 243, 53)" d="M 5 213.5 C 10.328 213.5 10.328 221.5 5 221.5 C -0.32800000000000007 221.5 -0.32800000000000007 213.5 5 213.5 Z"></path></g></g><text x="300" text-anchor="middle" class="highcharts-title"  style="color:#333333;font-size:18px;fill:#333333;width:536px;" y="25"><tspan>Questions Correct Over Time</tspan></text><text x="300" text-anchor="middle" class="highcharts-subtitle"  style="color:#555555;fill:#555555;width:536px;" y="53"><tspan>Click and drag in the plot area to zoom in</tspan></text><g class="highcharts-legend"  transform="translate(255,364)"><g ><g><g class="highcharts-legend-item"  transform="translate(8,3)"><path fill="none" d="M 0 11 L 16 11" stroke="#9ab2d6" stroke-width="2"></path><path fill="#9ab2d6" d="M 8 7 C 13.328 7 13.328 15 8 15 C 2.6719999999999997 15 2.6719999999999997 7 8 7 Z"></path><text x="21" style="color:#333333;font-size:12px;font-weight:bold;cursor:pointer;fill:#333333;" text-anchor="start"  y="15">Questions</text></g></g></g></g><g class="highcharts-axis-labels highcharts-xaxis-labels" ><text x="109.28723599316992" text-anchor="middle" style="color:#606060;cursor:default;font-size:11px;fill:#606060;" y="316" opacity="1"><tspan>04:10 PM</tspan></text><text x="199.18994166924514" text-anchor="middle" style="color:#606060;cursor:default;font-size:11px;fill:#606060;" y="316" opacity="1"><tspan>04:15 PM</tspan></text><text x="289.0926473453204" text-anchor="middle" style="color:#606060;cursor:default;font-size:11px;fill:#606060;" y="316" opacity="1"><tspan>04:20 PM</tspan></text><text x="378.9953530213956" text-anchor="middle" style="color:#606060;cursor:default;font-size:11px;fill:#606060;" y="316" opacity="1"><tspan>04:25 PM</tspan></text><text x="468.89805869747084" text-anchor="middle" style="color:#606060;cursor:default;font-size:11px;fill:#606060;" y="316" opacity="1"><tspan>04:30 PM</tspan></text><text x="558.8007643735461" text-anchor="middle" style="color:#606060;cursor:default;font-size:11px;fill:#606060;" y="316" opacity="1"><tspan>04:35 PM</tspan></text></g><g class="highcharts-axis-labels highcharts-yaxis-labels" ><text x="52" text-anchor="end" style="width:178px;color:#606060;cursor:default;font-size:11px;fill:#606060;" y="299.5" opacity="1">0</text><text x="52" text-anchor="end" style="width:178px;color:#606060;cursor:default;font-size:11px;fill:#606060;" y="224.5" opacity="1">10</text><text x="52" text-anchor="end" style="width:178px;color:#606060;cursor:default;font-size:11px;fill:#606060;" y="149.5" opacity="1">20</text><text x="52" text-anchor="end" style="width:178px;color:#606060;cursor:default;font-size:11px;fill:#606060;" y="74.5" opacity="1">30</text></g><g class="highcharts-tooltip"  style="cursor:default;padding:0;white-space:nowrap;" transform="translate(0,-9999)"><path fill="none" d="M 3 0 L 13 0 C 16 0 16 0 16 3 L 16 13 C 16 16 16 16 13 16 L 3 16 C 0 16 0 16 0 13 L 0 3 C 0 0 0 0 3 0"  stroke="black" stroke-opacity="0.049999999999999996" stroke-width="5" transform="translate(1, 1)"></path><path fill="none" d="M 3 0 L 13 0 C 16 0 16 0 16 3 L 16 13 C 16 16 16 16 13 16 L 3 16 C 0 16 0 16 0 13 L 0 3 C 0 0 0 0 3 0"  stroke="black" stroke-opacity="0.09999999999999999" stroke-width="3" transform="translate(1, 1)"></path><path fill="none" d="M 3 0 L 13 0 C 16 0 16 0 16 3 L 16 13 C 16 16 16 16 13 16 L 3 16 C 0 16 0 16 0 13 L 0 3 C 0 0 0 0 3 0"  stroke="black" stroke-opacity="0.15" stroke-width="1" transform="translate(1, 1)"></path><path fill="rgb(249, 249, 249)" fill-opacity=" .85" d="M 3 0 L 13 0 C 16 0 16 0 16 3 L 16 13 C 16 16 16 16 13 16 L 3 16 C 0 16 0 16 0 13 L 0 3 C 0 0 0 0 3 0"></path><text x="8"  style="font-size:12px;color:#333333;fill:#333333;" y="21"></text></g><text x="590" text-anchor="end"  style="cursor:pointer;color:#909090;font-size:9px;fill:#909090;" y="395">Highcharts.com</text></svg>