<svg xmlns:xlink="http://www.w3.org/1999/xlink" xmlns="http://www.w3.org/2000/svg" style="font-family: 'lucida grande', 'lucida sans unicode', arial, helvetica, sans-serif; font-size: 12px;" width="600" height="400" version="1.1"><desc>Created with Highcharts 4.0.4</desc><defs><clipPath id="highcharts-131"><rect x="0" y="0" width="523" height="224" /></clipPath></defs><rect class=" highcharts-background" fill="#ffffff" x="0" y="0" width="600" height="400" strokeWidth="0" /><g class="highcharts-grid"  /><g class="highcharts-grid" ><path opacity="1" fill="none" stroke="#c0c0c0" stroke-width="1" d="M 67 71.5 L 590 71.5"  /><path opacity="1" fill="none" stroke="#c0c0c0" stroke-width="1" d="M 67 147.5 L 590 147.5"  /><path opacity="1" fill="none" stroke="#c0c0c0" stroke-width="1" d="M 67 221.5 L 590 221.5"  /><path opacity="1" fill="none" stroke="#c0c0c0" stroke-width="1" d="M 67 296.5 L 590 296.5"  /></g><g class="highcharts-axis" ><path opacity="1" fill="none" stroke="#c0d0e0" stroke-width="1" d="M 272.5 296 L 272.5 306" /><path opacity="1" fill="none" stroke="#c0d0e0" stroke-width="1" d="M 396.5 296 L 396.5 306" /><path opacity="1" fill="none" stroke="#c0d0e0" stroke-width="1" d="M 519.5 296 L 519.5 306" /><path opacity="1" fill="none" stroke="#c0d0e0" stroke-width="1" d="M 149.5 296 L 149.5 306" /><text class=" highcharts-xaxis-title" visibility="visible" style="color: rgb(112, 112, 112); fill: #707070;" text-anchor="middle" transform="translate(0)" x="328.5" y="337.9" >Time</text><path visibility="visible" fill="none" stroke="#c0d0e0" stroke-width="1" d="M 67 296.5 L 590 296.5"  /></g><g class="highcharts-axis" ><text class=" highcharts-yaxis-title" visibility="visible" style="color: rgb(112, 112, 112); fill: #707070;" text-anchor="middle" transform="translate(0) rotate(270 28.08 184)" x="28.08" y="184" ><tspan>Questions Correct</tspan></text></g><g class="highcharts-series-group" ><g class="highcharts-series" visibility="visible" clip-path="url(#highcharts-131)" transform="translate(67 72) scale(1)" ><path fill="none" stroke="#9ab2d6" stroke-linecap="round" stroke-linejoin="round" stroke-width="2" d="M 5.12745 216.533 C 5.12745 216.533 9.57358 216.533 12.5377 216.533 C 21.0182 216.533 25.2585 214.609 33.7391 209.067 C 34.3978 208.636 34.7271 202.176 35.3858 201.6 C 41.561 196.202 44.6486 196.407 50.8237 194.133 C 60.8687 190.434 65.8911 186.667 75.9361 186.667 C 86.5574 186.667 91.868 186.667 102.489 186.667 C 106.03 186.667 107.8 179.2 111.34 179.2 C 146.745 179.2 164.447 179.2 199.851 179.2 C 209.073 179.2 213.684 174.114 222.905 171.733 C 236.82 168.141 243.777 168.164 257.692 164.267 C 265.102 162.191 268.807 160.935 276.217 156.8 C 279.511 154.962 281.158 151.676 284.451 149.333 C 289.556 145.702 292.108 145.807 297.213 141.867 C 299.848 139.833 301.165 135.573 303.8 134.4 C 314.586 129.599 319.979 131.14 330.765 126.933 C 335.293 125.167 337.558 123.2 342.086 119.467 C 344.803 117.227 346.162 113.195 348.879 112 C 359.747 107.221 365.181 108.914 376.049 104.533 C 380.002 102.94 381.978 101.691 385.93 97.0667 C 387.082 95.7178 387.659 90.1931 388.811 89.6 C 399.268 84.2198 404.496 86.1901 414.953 82.1333 C 419.893 80.2168 422.363 77.9547 427.303 74.6667 C 431.338 71.9814 433.355 69.4007 437.389 67.2 C 444.306 63.4274 447.764 64.0589 454.68 59.7333 C 457.315 58.0855 458.632 54.322 461.267 52.2667 C 466.289 48.3487 468.801 48.6355 473.823 44.8 C 476.622 42.6622 478.022 40.1154 480.822 37.3333 C 484.033 34.1421 485.638 31.1609 488.849 29.8667 C 500.459 25.1876 517.873 22.4 517.873 22.4"  /></g><g class="highcharts-markers" visibility="visible" clip-path="none" transform="translate(67 72) scale(1)" ><path fill="rgb(8, 243, 53)" d="M 517 18.4 C 522.328 18.4 522.328 26.4 517 26.4 C 511.672 26.4 511.672 18.4 517 18.4 Z" /><path fill="rgb(8, 243, 53)" d="M 488 25.8667 C 493.328 25.8667 493.328 33.8667 488 33.8667 C 482.672 33.8667 482.672 25.8667 488 25.8667 Z" /><path fill="rgb(8, 243, 53)" d="M 480 33.3333 C 485.328 33.3333 485.328 41.3333 480 41.3333 C 474.672 41.3333 474.672 33.3333 480 33.3333 Z" /><path fill="rgb(8, 243, 53)" d="M 473 40.8 C 478.328 40.8 478.328 48.8 473 48.8 C 467.672 48.8 467.672 40.8 473 40.8 Z" /><path fill="rgb(8, 243, 53)" d="M 461 48.2667 C 466.328 48.2667 466.328 56.2667 461 56.2667 C 455.672 56.2667 455.672 48.2667 461 48.2667 Z" /><path fill="rgb(8, 243, 53)" d="M 454 55.7333 C 459.328 55.7333 459.328 63.7333 454 63.7333 C 448.672 63.7333 448.672 55.7333 454 55.7333 Z" /><path fill="rgb(8, 243, 53)" d="M 437 63.2 C 442.328 63.2 442.328 71.2 437 71.2 C 431.672 71.2 431.672 63.2 437 63.2 Z" /><path fill="rgb(8, 243, 53)" d="M 427 70.6667 C 432.328 70.6667 432.328 78.6667 427 78.6667 C 421.672 78.6667 421.672 70.6667 427 70.6667 Z" /><path fill="rgb(8, 243, 53)" d="M 414 78.1333 C 419.328 78.1333 419.328 86.1333 414 86.1333 C 408.672 86.1333 408.672 78.1333 414 78.1333 Z" /><path fill="rgb(8, 243, 53)" d="M 388 85.6 C 393.328 85.6 393.328 93.6 388 93.6 C 382.672 93.6 382.672 85.6 388 85.6 Z" /><path fill="rgb(8, 243, 53)" d="M 385 93.0667 C 390.328 93.0667 390.328 101.067 385 101.067 C 379.672 101.067 379.672 93.0667 385 93.0667 Z" /><path fill="rgb(8, 243, 53)" d="M 376 100.533 C 381.328 100.533 381.328 108.533 376 108.533 C 370.672 108.533 370.672 100.533 376 100.533 Z" /><path fill="rgb(8, 243, 53)" d="M 348 108 C 353.328 108 353.328 116 348 116 C 342.672 116 342.672 108 348 108 Z" /><path fill="rgb(8, 243, 53)" d="M 342 115.467 C 347.328 115.467 347.328 123.467 342 123.467 C 336.672 123.467 336.672 115.467 342 115.467 Z" /><path fill="rgb(8, 243, 53)" d="M 330 122.933 C 335.328 122.933 335.328 130.933 330 130.933 C 324.672 130.933 324.672 122.933 330 122.933 Z" /><path fill="rgb(8, 243, 53)" d="M 303 130.4 C 308.328 130.4 308.328 138.4 303 138.4 C 297.672 138.4 297.672 130.4 303 130.4 Z" /><path fill="rgb(8, 243, 53)" d="M 297 137.867 C 302.328 137.867 302.328 145.867 297 145.867 C 291.672 145.867 291.672 137.867 297 137.867 Z" /><path fill="rgb(8, 243, 53)" d="M 284 145.333 C 289.328 145.333 289.328 153.333 284 153.333 C 278.672 153.333 278.672 145.333 284 145.333 Z" /><path fill="rgb(8, 243, 53)" d="M 276 152.8 C 281.328 152.8 281.328 160.8 276 160.8 C 270.672 160.8 270.672 152.8 276 152.8 Z" /><path fill="rgb(8, 243, 53)" d="M 257 160.267 C 262.328 160.267 262.328 168.267 257 168.267 C 251.672 168.267 251.672 160.267 257 160.267 Z" /><path fill="rgb(8, 243, 53)" d="M 222 167.733 C 227.328 167.733 227.328 175.733 222 175.733 C 216.672 175.733 216.672 167.733 222 167.733 Z" /><path fill="rgb(245, 64, 50)" d="M 199 175.2 C 204.328 175.2 204.328 183.2 199 183.2 C 193.672 183.2 193.672 175.2 199 175.2 Z" /><path fill="rgb(8, 243, 53)" d="M 111 175.2 C 116.328 175.2 116.328 183.2 111 183.2 C 105.672 183.2 105.672 175.2 111 175.2 Z" /><path fill="rgb(245, 64, 50)" d="M 102 182.667 C 107.328 182.667 107.328 190.667 102 190.667 C 96.672 190.667 96.672 182.667 102 182.667 Z" /><path fill="rgb(8, 243, 53)" d="M 75 182.667 C 80.328 182.667 80.328 190.667 75 190.667 C 69.672 190.667 69.672 182.667 75 182.667 Z" /><path fill="rgb(8, 243, 53)" d="M 50 190.133 C 55.328 190.133 55.328 198.133 50 198.133 C 44.672 198.133 44.672 190.133 50 190.133 Z" /><path fill="rgb(8, 243, 53)" d="M 35 197.6 C 40.328 197.6 40.328 205.6 35 205.6 C 29.672 205.6 29.672 197.6 35 197.6 Z" /><path fill="rgb(8, 243, 53)" d="M 33 205.067 C 38.328 205.067 38.328 213.067 33 213.067 C 27.672 213.067 27.672 205.067 33 205.067 Z" /><path fill="rgb(245, 64, 50)" d="M 12 212.533 C 17.328 212.533 17.328 220.533 12 220.533 C 6.672 220.533 6.672 212.533 12 212.533 Z" /><path fill="rgb(8, 243, 53)" d="M 5 212.533 C 10.328 212.533 10.328 220.533 5 220.533 C -0.328 220.533 -0.328 212.533 5 212.533 Z" /></g></g><text class="highcharts-title" style="width: 536px; color: rgb(51, 51, 51); font-size: 18px; fill: #333333;" text-anchor="middle" x="300" y="25" ><tspan>Questions Correct Over Time</tspan></text><text class="highcharts-subtitle" style="width: 536px; color: rgb(85, 85, 85); fill: #555555;" text-anchor="middle" x="300" y="53" ><tspan>Click and drag in the plot area to zoom in</tspan></text><g class="highcharts-legend" transform="translate(255 364)" ><g ><g><g class="highcharts-legend-item" transform="translate(8 3)" ><path fill="none" stroke="#9ab2d6" stroke-width="2" d="M 0 11 L 16 11" /><path fill="#9ab2d6" d="M 8 7 C 13.328 7 13.328 15 8 15 C 2.672 15 2.672 7 8 7 Z" /><text style="color: rgb(51, 51, 51); font-size: 12px; font-weight: bold; cursor: pointer; fill: #333333;" text-anchor="start" x="21" y="15" >Questions</text></g></g></g></g><g class="highcharts-axis-labels highcharts-xaxis-labels" ><text style="color: rgb(96, 96, 96); font-size: 11px; cursor: default; fill: #606060;" opacity="1" text-anchor="middle" x="149.7288" y="316"><tspan>04:40 PM</tspan></text><text style="color: rgb(96, 96, 96); font-size: 11px; cursor: default; fill: #606060;" opacity="1" text-anchor="middle" x="273.2322" y="316"><tspan>04:50 PM</tspan></text><text style="color: rgb(96, 96, 96); font-size: 11px; cursor: default; fill: #606060;" opacity="1" text-anchor="middle" x="396.7357" y="316"><tspan>05:00 PM</tspan></text><text style="color: rgb(96, 96, 96); font-size: 11px; cursor: default; fill: #606060;" opacity="1" text-anchor="middle" x="520.2391" y="316"><tspan>05:10 PM</tspan></text></g><g class="highcharts-axis-labels highcharts-yaxis-labels" ><text style="width: 178px; color: rgb(96, 96, 96); font-size: 11px; cursor: default; fill: #606060;" opacity="1" text-anchor="end" x="52" y="299.55">0</text><text style="width: 178px; color: rgb(96, 96, 96); font-size: 11px; cursor: default; fill: #606060;" opacity="1" text-anchor="end" x="52" y="224.8833">10</text><text style="width: 178px; color: rgb(96, 96, 96); font-size: 11px; cursor: default; fill: #606060;" opacity="1" text-anchor="end" x="52" y="150.2167">20</text><text style="width: 178px; color: rgb(96, 96, 96); font-size: 11px; cursor: default; fill: #606060;" opacity="1" text-anchor="end" x="52" y="75.55">30</text></g><g class="highcharts-tooltip" style="padding: 0px; white-space: nowrap; cursor: default;" transform="translate(0 -9999)" ><path fill="none" stroke="black" stroke-opacity="0.05" stroke-width="5" transform="translate(1 1)" d="M 3 0 L 13 0 C 16 0 16 0 16 3 L 16 13 C 16 16 16 16 13 16 L 3 16 C 0 16 0 16 0 13 L 0 3 C 0 0 0 0 3 0"  /><path fill="none" stroke="black" stroke-opacity="0.1" stroke-width="3" transform="translate(1 1)" d="M 3 0 L 13 0 C 16 0 16 0 16 3 L 16 13 C 16 16 16 16 13 16 L 3 16 C 0 16 0 16 0 13 L 0 3 C 0 0 0 0 3 0"  /><path fill="none" stroke="black" stroke-opacity="0.15" stroke-width="1" transform="translate(1 1)" d="M 3 0 L 13 0 C 16 0 16 0 16 3 L 16 13 C 16 16 16 16 13 16 L 3 16 C 0 16 0 16 0 13 L 0 3 C 0 0 0 0 3 0"  /><path fill="rgb(249, 249, 249)" fill-opacity=" 0.85" d="M 3 0 L 13 0 C 16 0 16 0 16 3 L 16 13 C 16 16 16 16 13 16 L 3 16 C 0 16 0 16 0 13 L 0 3 C 0 0 0 0 3 0" /><text style="color: rgb(51, 51, 51); font-size: 12px; fill: #333333;" x="8" y="21" ></text></g><text style="color: rgb(144, 144, 144); font-size: 9px; cursor: pointer; fill: #909090;" text-anchor="end" x="590" y="395" >Highcharts.com</text></svg>