<svg xmlns:xlink="http://www.w3.org/1999/xlink" version="1.1" style="font-family:'lucida grande', 'lucida sans unicode', arial, helvetica, sans-serif;font-size:12px;" xmlns="http://www.w3.org/2000/svg" width="600" height="400"><desc>Created with Highcharts 4.0.4</desc><defs><clipPath id="highcharts-917"><rect x="0" y="0" width="516" height="225"></rect></clipPath></defs><rect x="0" y="0" width="600" height="400" strokeWidth="0" fill="#FFFFFF" class=" highcharts-background"></rect><g class="highcharts-grid" ></g><g class="highcharts-grid" ><path fill="none" d="M 74 70.5 L 590 70.5" stroke="#C0C0C0" stroke-width="1"  opacity="1"></path><path fill="none" d="M 74 146.5 L 590 146.5" stroke="#C0C0C0" stroke-width="1"  opacity="1"></path><path fill="none" d="M 74 221.5 L 590 221.5" stroke="#C0C0C0" stroke-width="1"  opacity="1"></path><path fill="none" d="M 74 296.5 L 590 296.5" stroke="#C0C0C0" stroke-width="1"  opacity="1"></path></g><g class="highcharts-axis" ><path fill="none" d="M 176.5 296 L 176.5 306" stroke="#C0D0E0" stroke-width="1" opacity="1"></path><path fill="none" d="M 260.5 296 L 260.5 306" stroke="#C0D0E0" stroke-width="1" opacity="1"></path><path fill="none" d="M 343.5 296 L 343.5 306" stroke="#C0D0E0" stroke-width="1" opacity="1"></path><path fill="none" d="M 427.5 296 L 427.5 306" stroke="#C0D0E0" stroke-width="1" opacity="1"></path><path fill="none" d="M 511.5 296 L 511.5 306" stroke="#C0D0E0" stroke-width="1" opacity="1"></path><path fill="none" d="M 93.5 296 L 93.5 306" stroke="#C0D0E0" stroke-width="1" opacity="1"></path><text x="332"  text-anchor="middle" transform="translate(0,0)" class=" highcharts-xaxis-title" style="color:#707070;fill:#707070;" visibility="visible" y="338">Time</text><path fill="none" d="M 74 296.5 L 590 296.5" stroke="#C0D0E0" stroke-width="1"  visibility="visible"></path></g><g class="highcharts-axis" ><text x="28.078125"  text-anchor="middle" transform="translate(0,0) rotate(270 28.078125 183.5)" class=" highcharts-yaxis-title" style="color:#707070;fill:#707070;" visibility="visible" y="183.5"><tspan>Questions Correct</tspan></text></g><g class="highcharts-series-group" ><g class="highcharts-series" visibility="visible"  transform="translate(74,71) scale(1 1)" clip-path="url(#highcharts-917)"><path fill="none" d="M 5.0588235294117645 225 C 5.0588235294117645 225 5.616064968304193 225 5.987559260899146 225 C 6.544800699791574 225 6.823421419237789 224.5 7.380662858130218 223.5 C 7.492111145908703 223.3 7.547835289797947 222.04615384615386 7.659283577576431 222 C 10.445490772038575 220.84615384615387 11.838594369269646 221.57142857142856 14.62480156373179 220.5 C 14.959146427067248 220.37142857142857 15.126318858734976 219.72 15.460663722070432 219 C 15.683560297627404 218.52 15.79500858540589 217.60434782608695 16.01790516096286 217.5 C 18.358319204311062 216.40434782608696 19.52852622598516 217.09565217391304 21.86894026933336 216 C 22.09183684489033 215.89565217391305 22.20328513266882 214.5346153846154 22.42618170822579 214.5 C 29.930366418643832 213.3346153846154 33.68245877385285 214.18243902439022 41.18664348427089 213 C 41.298091772049375 212.98243902439023 41.35381591593862 212.10000000000002 41.465264203717105 211.5 C 41.576712491495584 210.90000000000003 41.63243663538483 210.5142857142857 41.743884923163314 210 C 41.892482640201294 209.31428571428572 41.96678149872029 208.5 42.11537921575827 208.5 C 42.15252864501777 208.5 42.17110335964752 208.5 42.20825278890701 208.5 C 42.65404594002096 208.5 42.87694251557792 208.5 43.32273566669186 208.5 C 43.694229959286815 208.5 43.879977105584295 207.85714285714286 44.25147139817925 207 C 44.40006911521723 206.65714285714287 44.47436797373622 206.1 44.6229656907742 205.5 C 44.77156340781218 204.9 44.845862266331174 204.07868852459015 44.994459983369154 204 C 47.111977451160385 202.87868852459016 48.17073618505599 202.5 50.288253652847224 202.5 C 50.51115022840419 202.5 50.62259851618268 202.5 50.84549509173965 202.5 C 51.2541388135941 202.5 51.458460674521326 202.5 51.86710439637577 202.5 C 52.35004697674922 202.5 52.59151826693593 201.86666666666667 53.07446084730937 201 C 53.26020799360684 200.66666666666669 53.35308156675558 200.1 53.53882871305306 199.5 C 53.72457585935054 198.9 53.81744943249927 198.75 54.00319657879675 198 C 54.11464486657523 197.55 54.17036901046447 196.5 54.28181729824296 196.5 C 54.39326558602145 196.5 54.44898972991069 196.5 54.56043801768918 196.5 C 55.00623116880312 196.5 55.229127744360085 196.5 55.67492089547403 196.5 C 56.08356461732848 196.5 56.2878864782557 195.94285714285715 56.69653020011015 195 C 56.80797848788863 194.74285714285716 56.86370263177788 194.0142857142857 56.97515091955637 193.5 C 57.12374863659435 192.81428571428572 57.198047495113336 192.6857142857143 57.34664521215132 192 C 57.4580934999298 191.48571428571432 57.51381764381905 190.5 57.62526593159753 190.5 C 57.73671421937602 190.5 57.79243836326526 190.5 57.90388665104375 190.5 C 58.34967980215769 190.5 58.57257637771467 190.5 59.01836952882861 190.5 C 59.38986382142356 190.5 59.57561096772103 189.9230769230769 59.947105260315986 189 C 60.05855354809447 188.72307692307692 60.114277691983716 188.0142857142857 60.2257259797622 187.5 C 60.37432369680018 186.81428571428572 60.448622555319176 186.53333333333333 60.597220272357156 186 C 60.78296741865463 185.33333333333334 60.87584099180337 185.24999999999997 61.061588138100845 184.5 C 61.17303642587933 184.04999999999998 61.228760569768575 183.45 61.34020885754706 183 C 61.52595600384454 182.25 61.61882957699328 181.5 61.80457672329075 181.5 C 61.91602501106924 181.5 61.97174915495848 181.5 62.08319744273696 181.5 C 62.49184116459141 181.5 62.69616302551863 181.5 63.10480674737308 181.5 C 63.58774932774652 181.5 63.829220617933245 180.91764705882352 64.31216319830668 180 C 64.46076091534466 179.71764705882353 64.53505977386365 179.03333333333333 64.68365749090164 178.5 C 64.86940463719911 177.83333333333334 64.96227821034785 177.66666666666666 65.14802535664532 177 C 65.2966230736833 176.46666666666667 65.3709219322023 176.18571428571428 65.51951964924028 175.5 C 65.63096793701877 174.9857142857143 65.686692080908 174.5142857142857 65.79814036868649 174 C 65.94673808572448 173.31428571428572 66.02103694424345 172.5 66.16963466128144 172.5 C 66.24393351980044 172.5 66.28108294905994 172.5 66.35538180757892 172.5 C 66.80117495869287 172.5 67.02407153424983 171.95999999999998 67.46986468536377 171 C 67.58131297314226 170.76 67.6370371170315 170.1 67.74848540480998 169.5 C 67.85993369258847 168.9 67.91565783647772 168.5142857142857 68.0271061242562 168 C 68.1757038412942 167.31428571428572 68.25000269981317 167.1 68.39860041685115 166.5 C 68.54719813388914 165.9 68.62149699240813 165 68.77009470944611 165 C 68.84439356796511 165 68.8815429972246 165 68.95584185574359 165 C 69.32733614833853 165 69.513083294636 164.25 69.88457758723096 163.5 C 70.10747416278794 163.05 70.21892245056642 162.79999999999998 70.4418190261234 162 C 70.55326731390188 161.6 70.60899145779112 161.1 70.7204397455696 160.5 C 70.8318880333481 159.9 70.88761217723734 159.51428571428565 70.99906046501582 159 C 71.1476581820538 158.31428571428566 71.22195704057279 158.03333333333333 71.37055475761078 157.5 C 71.55630190390825 156.83333333333334 71.64917547705699 156 71.83492262335446 156 C 71.90922148187346 156 71.94637091113296 156 72.02066976965195 156 C 72.46646292076589 156 72.68935949632285 155.39999999999998 73.1351526474368 154.5 C 73.28375036447478 154.2 73.35804922299377 153.43636363636364 73.50664694003176 153 C 73.76669294484822 152.23636363636365 73.89671594725645 152.33999999999997 74.15676195207291 151.5 C 74.2682102398514 151.14 74.32393438374065 150.5142857142857 74.43538267151914 150 C 74.58398038855712 149.31428571428572 74.6582792470761 149.18571428571428 74.80687696411408 148.5 C 74.91832525189257 147.9857142857143 74.97404939578182 147.6 75.0854976835603 147 C 75.19694597133879 146.4 75.25267011522803 145.8 75.36411840300651 145.5 C 75.69846326634197 144.60000000000002 75.8656356980097 144.89999999999998 76.19998056134516 144 C 76.31142884912364 143.7 76.36715299301288 143.0142857142857 76.47860128079137 142.5 C 76.62719899782935 141.81428571428572 76.70149785634834 141.68571428571428 76.85009557338633 141 C 76.96154386116481 140.4857142857143 77.01726800505405 139.8272727272727 77.12871629283254 139.5 C 77.4259117269085 138.62727272727273 77.57450944394648 138.68571428571428 77.87170487802244 138 C 78.09460145357941 137.4857142857143 78.2060497413579 136.5 78.42894631691487 136.5 C 78.50324517543386 136.5 78.54039460469336 136.5 78.61469346321235 136.5 C 79.28338318988327 136.5 79.61772805321871 135.79999999999998 80.28641777988963 135 C 80.62076264322509 134.6 80.78793507489281 134.06842105263158 81.12227993822827 133.5 C 81.49377423082322 132.8684210526316 81.67952137712071 132.92307692307688 82.05101566971565 132 C 82.16246395749415 131.7230769230769 82.21818810138339 130.5 82.32963638916188 130.5 C 82.51538353545935 130.5 82.60825710860809 130.5 82.79400425490556 130.5 C 83.276946835279 130.5 83.51841812546573 129.82105263157897 84.00136070583916 129 C 84.22425728139612 128.62105263157898 84.33570556917462 128.09999999999997 84.55860214473158 127.5 C 84.78149872028855 126.89999999999999 84.89294700806704 126.65454545454546 85.11584358362401 126 C 85.30159072992149 125.45454545454547 85.39446430307024 125.16666666666667 85.58021144936771 124.5 C 85.72880916640568 123.96666666666668 85.80310802492468 123.34285714285713 85.95170574196266 123 C 86.32320003455762 122.14285714285714 86.50894718085507 121.5 86.88044147345003 121.5 C 86.99188976122852 121.5 87.04761390511776 121.5 87.15906219289626 121.5 C 87.60485534401019 121.5 87.82775191956716 121.5 88.27354507068111 121.5 C 88.68218879253556 121.5 88.88651065346278 120.825 89.29515437531722 120 C 89.4809015216147 119.62500000000001 89.57377509476343 119.1666666666667 89.75952224106092 118.5 C 89.9081199580989 117.96666666666671 89.9824188166179 117.39999999999998 90.13101653365587 117 C 90.42821196773184 116.19999999999999 90.57680968476981 116.37272727272726 90.87400511884577 115.5 C 90.98545340662426 115.17272727272727 91.0411775505135 114.45000000000005 91.152625838292 114 C 91.33837298458947 113.25000000000006 91.4312465577382 112.5909090909091 91.61699370403568 112.5 C 93.88310888886488 111.3909090909091 95.0161664812795 111 97.2822816661087 111 C 97.3565805246277 111 97.39372995388719 111 97.46802881240619 111 C 100.17993714834934 111 101.53589131632091 110.47333333333333 104.24779965226406 109.5 C 104.87933994967548 109.27333333333334 105.1951100983812 108.78461538461536 105.82665039579261 108 C 106.16099525912807 107.58461538461538 106.3281676907958 107.33076923076922 106.66251255413125 106.5 C 106.81111027116924 106.13076923076923 106.88540912968821 105.53333333333337 107.03400684672621 105 C 107.21975399302369 104.33333333333339 107.31262756617244 103.99999999999996 107.4983747124699 103.5 C 107.75842071728637 102.79999999999997 107.8884437196946 102 108.14848972451107 102 C 108.22278858303005 102 108.25993801228955 102 108.33423687080854 102 C 108.89147830970096 102 109.17009902914717 101.28260869565217 109.72734046803961 100.5 C 110.02453590211557 100.08260869565218 110.17313361915356 99 110.47032905322952 99 C 110.581777341008 99 110.63750148489726 99 110.74894977267573 99 C 111.19474292378968 99 111.41763949934666 98.45999999999998 111.8634326504606 97.5 C 111.97488093823908 97.25999999999999 112.03060508212832 96 112.1420533699068 96 C 112.25350165768528 96 112.30922580157453 96 112.42067408935301 96 C 112.75501895268846 96 112.92219138435621 96 113.25653624769166 96 C 113.6651799695461 96 113.86950183047334 95.00769230769231 114.27814555232779 94.5 C 114.8353869912202 93.80769230769232 115.11400771066641 93.99999999999999 115.67124914955885 93 C 115.78269743733733 92.8 115.83842158122658 91.95 115.94986986900507 91.5 C 116.13561701530254 90.75000000000001 116.22849058845127 90.33333333333334 116.41423773474875 90 C 116.89718031512218 89.13333333333335 117.13865160530891 89.28 117.62159418568235 88.5 C 117.88164019049881 88.08000000000001 118.01166319290705 87.84 118.27170919772352 87 C 118.38315748550201 86.64000000000001 118.43888162939125 85.5 118.55032991716973 85.5 C 118.8475253512457 85.5 118.99612306828367 85.5 119.29331850235964 85.5 C 119.96200822903056 85.5 120.296353092366 85.5 120.96504281903692 85.5 C 121.41083597015086 85.5 121.63373254570783 84.8 122.07952569682178 84 C 122.30242227237875 83.60000000000001 122.41387056015724 83.15454545454546 122.63676713571421 82.5 C 122.82251428201168 81.95454545454547 122.91538785516043 81.35294117647058 123.1011350014579 81 C 123.54692815257185 80.15294117647059 123.76982472812881 79.5 124.21561787924276 79.5 C 124.43851445479973 79.5 124.54996274257822 79.5 124.77285931813519 79.5 C 125.18150303998964 79.5 125.38582490091684 78.88000000000001 125.7944686227713 78 C 125.94306633980928 77.68000000000002 126.01736519832828 76.7 126.16596291536626 76.5 C 126.90895150055617 75.50000000000001 127.28044579315113 75 128.02343437834102 75 C 128.09773323686002 75 128.1348826661195 75 128.2091815246385 75 C 136.53065367876542 75 140.69138975582888 73.5 149.01286190995583 73.5 C 149.1243101977343 73.5 149.18003434162355 73.5 149.29148262940205 73.5 C 150.07162064385145 73.5 150.46168965107614 72.78749999999997 151.24182766552553 72 C 151.65047138738 71.58749999999998 151.8547932483072 71.38000000000002 152.26343697016168 70.5 C 152.41203468719965 70.18000000000004 152.48633354571865 69.68571428571423 152.63493126275662 69 C 152.74637955053512 68.48571428571424 152.80210369442435 67.86000000000006 152.91355198220285 67.5 C 153.1735979870193 66.66000000000007 153.30362098942754 66.6 153.563666994244 66 C 153.82371299906043 65.4 153.95373600146868 65.33999999999997 154.21378200628516 64.5 C 154.32523029406366 64.13999999999997 154.38095443795288 63 154.49240272573138 63 C 154.60385101350988 63 154.6595751573991 63 154.7710234451776 63 C 155.17966716703205 63 155.38398902795927 62.442857142857115 155.79263274981372 61.5 C 155.90408103759222 61.24285714285711 155.95980518148144 60.51428571428577 156.07125346925994 60 C 156.21985118629792 59.31428571428577 156.29415004481692 58.97999999999998 156.4427477618549 58.5 C 156.66564433741186 57.77999999999998 156.77709262519033 57 156.9999892007473 57 C 157.11143748852578 57 157.16716163241503 57 157.27860992019353 57 C 293.1340727221676 57 361.0618041231547 57 496.9172669251288 57 C 497.28876121772373 57 497.47450836402123 57 497.8460026566162 57 C 498.36609466624907 57 498.6261406710655 56.30000000000012 499.1462326806985 55.5 C 499.4062786855149 55.100000000000115 499.5363016879231 54.76363636363643 499.7963476927397 54 C 499.9449454097777 53.56363636363643 500.01924426829663 53.033333333333424 500.16784198533463 52.5 C 500.3535891316321 51.83333333333342 500.44646270478086 51.6 500.6322098510783 51 C 500.81795699737575 50.4 500.9108305705246 49.5 501.096577716822 49.5 C 501.3566237216384 49.5 501.48664672404664 49.5 501.7466927288632 49.5 C 502.2667847384961 49.5 502.52683074331253 48.93333333333323 503.0469227529455 48 C 503.19552046998353 47.73333333333323 503.2698193285025 47.18571428571429 503.4184170455405 46.5 C 503.529865333319 45.98571428571429 503.5855894772082 45.35999999999993 503.69703776498665 45 C 503.9570837698031 44.159999999999926 504.0871067722113 44.34 504.3471527770278 43.5 C 504.4586010648063 43.14 504.5143252086956 42.6 504.62577349647404 42 C 504.7372217842525 41.4 504.79294592814176 41.014285714285826 504.90439421592026 40.5 C 505.0529919329582 39.81428571428582 505.1272907914772 39.36923076923077 505.2758885085152 39 C 505.6102333718507 38.169230769230765 505.7774058035184 38.330769230769235 506.1117506668539 37.5 C 506.2603483838919 37.13076923076923 506.3346472424108 36.68571428571429 506.4832449594488 36 C 506.5946932472273 35.48571428571429 506.65041739111655 35.10000000000016 506.76186567889505 34.5 C 506.8733139666735 33.900000000000155 506.9290381105628 33.599999999999845 507.0404863983412 33 C 507.1519346861197 32.39999999999984 507.20765883000894 31.827272727272774 507.31910711778744 31.5 C 507.6163025518634 30.62727272727277 507.76490026890144 30.639999999999944 508.0620957029774 30 C 508.3221417077939 29.43999999999994 508.4521647102021 29.340000000000074 508.71221071501856 28.5 C 508.823659002797 28.14000000000007 508.8793831466863 27.514285714285567 508.9908314344647 27 C 509.1394291515027 26.314285714285564 509.2137280100217 26.185714285714177 509.36232572705967 25.5 C 509.47377401483817 24.985714285714174 509.52949815872745 24.59999999999985 509.6409464465059 24 C 509.7523947342844 23.399999999999846 509.8081188781736 23.014285714285716 509.9195671659521 22.5 C 510.0681648829901 21.814285714285713 510.14246374150906 21.436363636363698 510.29106145854706 21 C 510.5511074633635 20.236363636363695 510.94117647058823 19.5 510.94117647058823 19.5" stroke="#9ab2d6" stroke-width="2"  stroke-linejoin="round" stroke-linecap="round"></path></g><g class="highcharts-markers" visibility="visible"  transform="translate(74,71) scale(1 1)" clip-path="none"></g></g><text x="300" text-anchor="middle" class="highcharts-title"  style="color:#333333;font-size:18px;fill:#333333;width:536px;" y="25"><tspan>Questions Correct Over Time</tspan></text><text x="300" text-anchor="middle" class="highcharts-subtitle"  style="color:#555555;fill:#555555;width:536px;" y="53"><tspan>Click and drag in the plot area to zoom in</tspan></text><g class="highcharts-legend"  transform="translate(255,364)"><g ><g><g class="highcharts-legend-item"  transform="translate(8,3)"><path fill="none" d="M 0 11 L 16 11" stroke="#9ab2d6" stroke-width="2"></path><path fill="#9ab2d6" d="M 8 7 C 13.328 7 13.328 15 8 15 C 2.6719999999999997 15 2.6719999999999997 7 8 7 Z"></path><text x="21" style="color:#333333;font-size:12px;font-weight:bold;cursor:pointer;fill:#333333;" text-anchor="start"  y="15">Questions</text></g></g></g></g><g class="highcharts-axis-labels highcharts-xaxis-labels" ><text x="93.63997451376365" text-anchor="middle" style="color:#606060;cursor:default;font-size:11px;fill:#606060;" y="316" opacity="1"><tspan>12:00 PM</tspan></text><text x="177.22619034762795" text-anchor="middle" style="color:#606060;cursor:default;font-size:11px;fill:#606060;" y="316" opacity="1"><tspan>12:15 PM</tspan></text><text x="260.81240618149224" text-anchor="middle" style="color:#606060;cursor:default;font-size:11px;fill:#606060;" y="316" opacity="1"><tspan>12:30 PM</tspan></text><text x="344.3986220153565" text-anchor="middle" style="color:#606060;cursor:default;font-size:11px;fill:#606060;" y="316" opacity="1"><tspan>12:45 PM</tspan></text><text x="427.98483784922087" text-anchor="middle" style="color:#606060;cursor:default;font-size:11px;fill:#606060;" y="316" opacity="1"><tspan>01:00 PM</tspan></text><text x="511.57105368308515" text-anchor="middle" style="color:#606060;cursor:default;font-size:11px;fill:#606060;" y="316" opacity="1"><tspan>01:15 PM</tspan></text></g><g class="highcharts-axis-labels highcharts-yaxis-labels" ><text x="59" text-anchor="end" style="width:178px;color:#606060;cursor:default;font-size:11px;fill:#606060;" y="299.5" opacity="1">0</text><text x="59" text-anchor="end" style="width:178px;color:#606060;cursor:default;font-size:11px;fill:#606060;" y="224.5" opacity="1">50</text><text x="59" text-anchor="end" style="width:178px;color:#606060;cursor:default;font-size:11px;fill:#606060;" y="149.5" opacity="1">100</text><text x="59" text-anchor="end" style="width:178px;color:#606060;cursor:default;font-size:11px;fill:#606060;" y="74.5" opacity="1">150</text></g><g class="highcharts-tooltip"  style="cursor:default;padding:0;white-space:nowrap;" transform="translate(0,-9999)"><path fill="none" d="M 3 0 L 13 0 C 16 0 16 0 16 3 L 16 13 C 16 16 16 16 13 16 L 3 16 C 0 16 0 16 0 13 L 0 3 C 0 0 0 0 3 0"  stroke="black" stroke-opacity="0.049999999999999996" stroke-width="5" transform="translate(1, 1)"></path><path fill="none" d="M 3 0 L 13 0 C 16 0 16 0 16 3 L 16 13 C 16 16 16 16 13 16 L 3 16 C 0 16 0 16 0 13 L 0 3 C 0 0 0 0 3 0"  stroke="black" stroke-opacity="0.09999999999999999" stroke-width="3" transform="translate(1, 1)"></path><path fill="none" d="M 3 0 L 13 0 C 16 0 16 0 16 3 L 16 13 C 16 16 16 16 13 16 L 3 16 C 0 16 0 16 0 13 L 0 3 C 0 0 0 0 3 0"  stroke="black" stroke-opacity="0.15" stroke-width="1" transform="translate(1, 1)"></path><path fill="rgb(249, 249, 249)" fill-opacity=" .85" d="M 3 0 L 13 0 C 16 0 16 0 16 3 L 16 13 C 16 16 16 16 13 16 L 3 16 C 0 16 0 16 0 13 L 0 3 C 0 0 0 0 3 0"></path><text x="8"  style="font-size:12px;color:#333333;fill:#333333;" y="21"></text></g><text x="590" text-anchor="end"  style="cursor:pointer;color:#909090;font-size:9px;fill:#909090;" y="395">Highcharts.com</text></svg>