<svg xmlns:xlink="http://www.w3.org/1999/xlink" version="1.1" style="font-family:'lucida grande', 'lucida sans unicode', arial, helvetica, sans-serif;font-size:12px;" xmlns="http://www.w3.org/2000/svg" width="600" height="400"><desc>Created with Highcharts 4.0.4</desc><defs><clipPath id="highcharts-23"><rect x="0" y="0" width="520" height="225"></rect></clipPath></defs><rect x="0" y="0" width="600" height="400" strokeWidth="0" fill="#FFFFFF" class=" highcharts-background"></rect><g class="highcharts-grid" ></g><g class="highcharts-grid" ><path fill="none" d="M 70 70.5 L 590 70.5" stroke="#C0C0C0" stroke-width="1"  opacity="1"></path><path fill="none" d="M 70 116.5 L 590 116.5" stroke="#C0C0C0" stroke-width="1"  opacity="1"></path><path fill="none" d="M 70 161.5 L 590 161.5" stroke="#C0C0C0" stroke-width="1"  opacity="1"></path><path fill="none" d="M 70 206.5 L 590 206.5" stroke="#C0C0C0" stroke-width="1"  opacity="1"></path><path fill="none" d="M 70 251.5 L 590 251.5" stroke="#C0C0C0" stroke-width="1"  opacity="1"></path><path fill="none" d="M 70 296.5 L 590 296.5" stroke="#C0C0C0" stroke-width="1"  opacity="1"></path></g><g class="highcharts-axis" ><path fill="none" d="M 197.5 296 L 197.5 306" stroke="#C0D0E0" stroke-width="1" opacity="1"></path><path fill="none" d="M 294.5 296 L 294.5 306" stroke="#C0D0E0" stroke-width="1" opacity="1"></path><path fill="none" d="M 390.5 296 L 390.5 306" stroke="#C0D0E0" stroke-width="1" opacity="1"></path><path fill="none" d="M 487.5 296 L 487.5 306" stroke="#C0D0E0" stroke-width="1" opacity="1"></path><path fill="none" d="M 584.5 296 L 584.5 306" stroke="#C0D0E0" stroke-width="1" opacity="1"></path><path fill="none" d="M 100.5 296 L 100.5 306" stroke="#C0D0E0" stroke-width="1" opacity="1"></path><text x="330"  text-anchor="middle" transform="translate(0,0)" class=" highcharts-xaxis-title" style="color:#707070;fill:#707070;" visibility="visible" y="338">Time</text><path fill="none" d="M 70 296.5 L 590 296.5" stroke="#C0D0E0" stroke-width="1"  visibility="visible"></path></g><g class="highcharts-axis" ><text x="27.59375"  text-anchor="middle" transform="translate(0,0) rotate(270 27.59375 183.5)" class=" highcharts-yaxis-title" style="color:#707070;fill:#707070;" visibility="visible" y="183.5"><tspan>Questions Correct</tspan></text></g><g class="highcharts-series-group" ><g class="highcharts-series" visibility="visible"  transform="translate(70,71) scale(1 1)" clip-path="url(#highcharts-23)"><path fill="none" d="M 5.098039215686275 135 C 5.098039215686275 135 43.81732439811368 45 69.63018118639862 45 C 193.5318937701663 45 255.48275006205017 45 379.38446264581785 45 C 433.5914619012163 45 514.9019607843138 45 514.9019607843138 45" stroke="#9ab2d6" stroke-width="2"  stroke-linejoin="round" stroke-linecap="round"></path></g><g class="highcharts-markers" visibility="visible"  transform="translate(70,71) scale(1 1)" clip-path="none"><path fill="rgb(245, 64, 50)" d="M 514 41 C 519.328 41 519.328 49 514 49 C 508.672 49 508.672 41 514 41 Z"></path><path fill="rgb(245, 64, 50)" d="M 379 41 C 384.328 41 384.328 49 379 49 C 373.672 49 373.672 41 379 41 Z"></path><path fill="rgb(8, 243, 53)" d="M 69 41 C 74.328 41 74.328 49 69 49 C 63.672 49 63.672 41 69 41 Z"></path><path fill="rgb(8, 243, 53)" d="M 5 131 C 10.328 131 10.328 139 5 139 C -0.32800000000000007 139 -0.32800000000000007 131 5 131 Z"></path></g></g><text x="300" text-anchor="middle" class="highcharts-title"  style="color:#333333;font-size:18px;fill:#333333;width:536px;" y="25"><tspan>Questions Correct Over Time</tspan></text><text x="300" text-anchor="middle" class="highcharts-subtitle"  style="color:#555555;fill:#555555;width:536px;" y="53"><tspan>Click and drag in the plot area to zoom in</tspan></text><g class="highcharts-legend"  transform="translate(255,364)"><g ><g><g class="highcharts-legend-item"  transform="translate(8,3)"><path fill="none" d="M 0 11 L 16 11" stroke="#9ab2d6" stroke-width="2"></path><path fill="#9ab2d6" d="M 8 7 C 13.328 7 13.328 15 8 15 C 2.6719999999999997 15 2.6719999999999997 7 8 7 Z"></path><text x="21" style="color:#333333;font-size:12px;font-weight:bold;cursor:pointer;fill:#333333;" text-anchor="start"  y="15">Questions</text></g></g></g></g><g class="highcharts-axis-labels highcharts-xaxis-labels" ><text x="100.9108960039712" text-anchor="middle" style="color:#606060;cursor:default;font-size:11px;fill:#606060;" y="316" opacity="1"><tspan>10:14 PM</tspan></text><text x="197.7091089600397" text-anchor="middle" style="color:#606060;cursor:default;font-size:11px;fill:#606060;" y="316" opacity="1"><tspan>10:15 PM</tspan></text><text x="294.50732191610825" text-anchor="middle" style="color:#606060;cursor:default;font-size:11px;fill:#606060;" y="316" opacity="1"><tspan>10:15 PM</tspan></text><text x="391.30553487217674" text-anchor="middle" style="color:#606060;cursor:default;font-size:11px;fill:#606060;" y="316" opacity="1"><tspan>10:15 PM</tspan></text><text x="488.1037478282453" text-anchor="middle" style="color:#606060;cursor:default;font-size:11px;fill:#606060;" y="316" opacity="1"><tspan>10:15 PM</tspan></text><text x="574.828125" text-anchor="middle" style="color:#606060;cursor:default;font-size:11px;fill:#606060;" y="316" opacity="1"><tspan>10:16 PM</tspan></text></g><g class="highcharts-axis-labels highcharts-yaxis-labels" ><text x="55" text-anchor="end" style="width:178px;color:#606060;cursor:default;font-size:11px;fill:#606060;" y="299.5" opacity="1">0</text><text x="55" text-anchor="end" style="width:178px;color:#606060;cursor:default;font-size:11px;fill:#606060;" y="254.5" opacity="1">0.5</text><text x="55" text-anchor="end" style="width:178px;color:#606060;cursor:default;font-size:11px;fill:#606060;" y="209.5" opacity="1">1</text><text x="55" text-anchor="end" style="width:178px;color:#606060;cursor:default;font-size:11px;fill:#606060;" y="164.5" opacity="1">1.5</text><text x="55" text-anchor="end" style="width:178px;color:#606060;cursor:default;font-size:11px;fill:#606060;" y="119.5" opacity="1">2</text><text x="55" text-anchor="end" style="width:178px;color:#606060;cursor:default;font-size:11px;fill:#606060;" y="74.5" opacity="1">2.5</text></g><g class="highcharts-tooltip"  style="cursor:default;padding:0;white-space:nowrap;" transform="translate(0,-9999)"><path fill="none" d="M 3 0 L 13 0 C 16 0 16 0 16 3 L 16 13 C 16 16 16 16 13 16 L 3 16 C 0 16 0 16 0 13 L 0 3 C 0 0 0 0 3 0"  stroke="black" stroke-opacity="0.049999999999999996" stroke-width="5" transform="translate(1, 1)"></path><path fill="none" d="M 3 0 L 13 0 C 16 0 16 0 16 3 L 16 13 C 16 16 16 16 13 16 L 3 16 C 0 16 0 16 0 13 L 0 3 C 0 0 0 0 3 0"  stroke="black" stroke-opacity="0.09999999999999999" stroke-width="3" transform="translate(1, 1)"></path><path fill="none" d="M 3 0 L 13 0 C 16 0 16 0 16 3 L 16 13 C 16 16 16 16 13 16 L 3 16 C 0 16 0 16 0 13 L 0 3 C 0 0 0 0 3 0"  stroke="black" stroke-opacity="0.15" stroke-width="1" transform="translate(1, 1)"></path><path fill="rgb(249, 249, 249)" fill-opacity=" .85" d="M 3 0 L 13 0 C 16 0 16 0 16 3 L 16 13 C 16 16 16 16 13 16 L 3 16 C 0 16 0 16 0 13 L 0 3 C 0 0 0 0 3 0"></path><text x="8"  style="font-size:12px;color:#333333;fill:#333333;" y="21"></text></g><text x="590" text-anchor="end"  style="cursor:pointer;color:#909090;font-size:9px;fill:#909090;" y="395">Highcharts.com</text></svg>