<svg xmlns:xlink="http://www.w3.org/1999/xlink" xmlns="http://www.w3.org/2000/svg" style="font-family: 'lucida grande', 'lucida sans unicode', arial, helvetica, sans-serif; font-size: 12px;" width="600" height="400" version="1.1"><desc>Created with Highcharts 4.0.4</desc><defs><clipPath id="highcharts-137"><rect x="0" y="0" width="516" height="227" /></clipPath></defs><rect class=" highcharts-background" fill="#ffffff" x="0" y="0" width="600" height="400" strokeWidth="0" /><g class="highcharts-grid"  /><g class="highcharts-grid" ><path opacity="1" fill="none" stroke="#c0c0c0" stroke-width="1" d="M 74 71.5 L 590 71.5"  /><path opacity="1" fill="none" stroke="#c0c0c0" stroke-width="1" d="M 74 148.5 L 590 148.5"  /><path opacity="1" fill="none" stroke="#c0c0c0" stroke-width="1" d="M 74 223.5 L 590 223.5"  /><path opacity="1" fill="none" stroke="#c0c0c0" stroke-width="1" d="M 74 299.5 L 590 299.5"  /></g><g class="highcharts-axis" ><path opacity="1" fill="none" stroke="#c0d0e0" stroke-width="1" d="M 218.5 299 L 218.5 309" /><path opacity="1" fill="none" stroke="#c0d0e0" stroke-width="1" d="M 292.5 299 L 292.5 309" /><path opacity="1" fill="none" stroke="#c0d0e0" stroke-width="1" d="M 366.5 299 L 366.5 309" /><path opacity="1" fill="none" stroke="#c0d0e0" stroke-width="1" d="M 440.5 299 L 440.5 309" /><path opacity="1" fill="none" stroke="#c0d0e0" stroke-width="1" d="M 514.5 299 L 514.5 309" /><path opacity="1" fill="none" stroke="#c0d0e0" stroke-width="1" d="M 587.5 299 L 587.5 309" /><path opacity="1" fill="none" stroke="#c0d0e0" stroke-width="1" d="M 145.5 299 L 145.5 309" /><text class=" highcharts-xaxis-title" visibility="visible" style="color: rgb(112, 112, 112); fill: #707070;" text-anchor="middle" transform="translate(0)" x="332" y="338" >Time</text><path visibility="visible" fill="none" stroke="#c0d0e0" stroke-width="1" d="M 74 299.5 L 590 299.5"  /></g><g class="highcharts-axis" ><text class=" highcharts-yaxis-title" visibility="visible" style="color: rgb(112, 112, 112); fill: #707070;" text-anchor="middle" transform="translate(0) rotate(270 28.12 185.5)" x="28.12" y="185.5" ><tspan>Questions Correct</tspan></text></g><g class="highcharts-series-group" ><g class="highcharts-series" visibility="visible" clip-path="url(#highcharts-137)" transform="translate(74 72) scale(1)" ><path fill="none" stroke="#9ab2d6" stroke-linecap="round" stroke-linejoin="round" stroke-width="2" d="M 5.05882 226.622 C 5.05882 226.622 5.10802 226.416 5.14082 226.243 C 5.16542 226.114 5.17772 226.016 5.20232 225.865 C 5.22692 225.714 5.23922 225.638 5.26382 225.487 C 5.28842 225.335 5.30072 225.173 5.32531 225.108 C 5.41551 224.871 5.46061 224.952 5.55081 224.73 C 5.58361 224.649 5.60001 224.525 5.6328 224.352 C 5.6574 224.222 5.6697 224.125 5.6943 223.973 C 5.7189 223.822 5.7312 223.725 5.7558 223.595 C 5.7886 223.422 5.805 223.39 5.8378 223.217 C 5.8624 223.087 5.8747 222.99 5.8993 222.838 C 5.92389 222.687 5.93619 222.642 5.96079 222.46 C 5.97719 222.339 5.98539 222.203 6.00179 222.082 C 6.02639 221.9 6.03869 221.855 6.06329 221.703 C 6.08789 221.552 6.10019 221.476 6.12479 221.325 C 6.14939 221.174 6.16169 221.076 6.18629 220.947 C 6.21909 220.774 6.23548 220.568 6.26828 220.568 C 6.28468 220.568 6.29288 220.568 6.30928 220.568 C 6.35028 220.568 6.37078 220.568 6.41178 220.568 C 6.42818 220.568 6.43638 220.311 6.45278 220.19 C 6.47738 220.008 6.48968 219.812 6.51428 219.812 C 52.8182 219.509 75.9701 219.735 122.274 219.433 C 122.405 219.432 122.471 219.146 122.602 219.055 C 122.905 218.844 123.057 218.822 123.36 218.677 C 123.688 218.519 123.852 218.364 124.18 218.298 C 125.361 218.061 125.952 218.213 127.132 217.92 C 127.173 217.91 127.194 217.71 127.235 217.542 C 127.268 217.407 127.284 217.284 127.317 217.163 C 127.366 216.982 127.391 216.892 127.44 216.785 C 127.53 216.589 127.575 216.573 127.665 216.407 C 127.739 216.27 127.776 216.238 127.85 216.028 C 127.883 215.935 127.899 215.785 127.932 215.65 C 127.973 215.482 127.993 215.44 128.034 215.272 C 128.067 215.137 128.083 215.003 128.116 214.893 C 128.174 214.701 128.202 214.678 128.26 214.515 C 128.309 214.375 128.334 214.162 128.383 214.137 C 128.924 213.859 129.195 214.025 129.736 213.758 C 129.81 213.722 129.846 213.562 129.92 213.38 C 129.969 213.259 129.994 213.153 130.043 213.002 C 130.092 212.85 130.117 212.775 130.166 212.623 C 130.215 212.472 130.24 212.396 130.289 212.245 C 130.338 212.094 130.363 212.006 130.412 211.867 C 130.47 211.704 130.498 211.665 130.556 211.488 C 130.597 211.362 130.617 211.199 130.658 211.11 C 130.757 210.896 130.806 210.913 130.904 210.732 C 130.97 210.611 131.003 210.573 131.068 210.353 C 131.093 210.271 131.105 210.076 131.13 209.975 C 131.179 209.773 131.203 209.612 131.253 209.597 C 132.146 209.31 132.593 209.395 133.487 209.218 C 134.127 209.092 134.446 209.128 135.086 208.84 C 135.119 208.825 135.135 208.583 135.168 208.462 C 135.217 208.28 135.242 208.265 135.291 208.083 C 135.324 207.962 135.34 207.878 135.373 207.705 C 135.398 207.575 135.41 207.456 135.435 207.327 C 135.467 207.154 135.484 207.02 135.517 206.948 C 135.623 206.717 135.676 206.816 135.783 206.57 C 135.808 206.513 135.82 206.321 135.845 206.192 C 135.877 206.019 135.894 205.986 135.927 205.813 C 135.951 205.684 135.963 205.586 135.988 205.435 C 136.013 205.284 136.025 205.208 136.05 205.057 C 136.074 204.905 136.086 204.808 136.111 204.678 C 136.144 204.505 136.16 204.435 136.193 204.3 C 136.234 204.132 136.255 204.111 136.296 203.922 C 136.32 203.808 136.332 203.673 136.357 203.543 C 136.39 203.37 136.406 203.286 136.439 203.165 C 136.488 202.983 136.513 202.968 136.562 202.787 C 136.595 202.666 136.611 202.56 136.644 202.408 C 136.677 202.257 136.693 202.151 136.726 202.03 C 136.775 201.848 136.8 201.879 136.849 201.652 C 136.865 201.576 136.874 201.349 136.89 201.273 C 136.939 201.046 136.964 201.077 137.013 200.895 C 137.046 200.774 137.062 200.618 137.095 200.517 C 137.161 200.315 137.193 200.34 137.259 200.138 C 137.292 200.037 137.308 199.933 137.341 199.76 C 137.366 199.63 137.378 199.563 137.402 199.382 C 137.419 199.261 137.427 199.058 137.443 199.003 C 137.517 198.756 137.554 198.82 137.628 198.625 C 137.669 198.517 137.689 198.355 137.73 198.247 C 137.804 198.052 137.841 198.078 137.915 197.868 C 137.948 197.775 137.964 197.625 137.997 197.49 C 138.038 197.322 138.058 197.263 138.099 197.112 C 138.14 196.96 138.161 196.885 138.202 196.733 C 138.243 196.582 138.263 196.523 138.304 196.355 C 138.337 196.22 138.354 196.078 138.386 195.977 C 138.452 195.775 138.485 195.719 138.55 195.598 C 138.649 195.417 138.698 195.447 138.796 195.22 C 138.829 195.144 138.846 194.993 138.878 194.842 C 138.911 194.69 138.928 194.615 138.96 194.463 C 138.993 194.312 139.01 194.14 139.042 194.085 C 139.19 193.837 139.264 193.954 139.411 193.707 C 139.444 193.652 139.461 193.48 139.493 193.328 C 139.526 193.177 139.543 193.085 139.575 192.95 C 139.616 192.782 139.637 192.68 139.678 192.572 C 139.752 192.377 139.789 192.375 139.862 192.193 C 139.912 192.072 139.936 191.98 139.985 191.815 C 140.026 191.677 140.047 191.46 140.088 191.437 C 140.572 191.158 140.814 191.342 141.297 191.058 C 141.33 191.039 141.347 190.831 141.379 190.68 C 141.412 190.529 141.429 190.412 141.461 190.302 C 141.519 190.109 141.547 190.086 141.605 189.923 C 141.654 189.784 141.679 189.696 141.728 189.545 C 141.777 189.394 141.802 189.332 141.851 189.167 C 141.892 189.029 141.912 188.79 141.953 188.788 C 149.177 188.487 152.789 188.709 160.013 188.41 C 160.103 188.406 160.149 188.254 160.239 188.032 C 160.272 187.951 160.288 187.774 160.321 187.653 C 160.37 187.472 160.395 187.44 160.444 187.275 C 160.485 187.137 160.505 186.917 160.546 186.897 C 161.112 186.614 161.395 186.804 161.961 186.518 C 161.993 186.502 162.01 186.25 162.043 186.14 C 162.1 185.947 162.129 185.938 162.186 185.762 C 162.227 185.636 162.248 185.491 162.289 185.383 C 162.362 185.189 162.399 185.017 162.473 185.005 C 164.203 184.715 165.068 184.914 166.799 184.627 C 166.889 184.612 166.934 184.315 167.024 184.248 C 167.344 184.012 167.504 184.138 167.823 183.87 C 167.864 183.836 167.885 183.643 167.926 183.492 C 167.967 183.34 167.987 183.265 168.028 183.113 C 168.069 182.962 168.09 182.738 168.131 182.735 C 172.624 182.435 174.871 182.649 179.365 182.357 C 179.529 182.346 179.611 182.22 179.775 181.978 C 179.816 181.918 179.836 181.716 179.877 181.6 C 179.943 181.414 179.975 181.373 180.041 181.222 C 180.107 181.07 180.139 181.016 180.205 180.843 C 180.254 180.714 180.279 180.63 180.328 180.465 C 180.369 180.327 180.39 180.213 180.431 180.087 C 180.488 179.91 180.517 179.787 180.574 179.708 C 180.738 179.484 180.82 179.513 180.984 179.33 C 181.091 179.211 181.144 179.214 181.251 178.952 C 181.267 178.911 181.275 178.674 181.292 178.573 C 181.324 178.372 181.341 178.296 181.374 178.195 C 181.439 177.993 181.472 177.99 181.538 177.817 C 181.587 177.687 181.611 177.64 181.661 177.438 C 181.685 177.337 181.697 177.19 181.722 177.06 C 181.755 176.887 181.771 176.723 181.804 176.682 C 182.009 176.421 182.111 176.533 182.316 176.303 C 182.382 176.23 182.415 176.111 182.48 175.925 C 182.521 175.809 182.542 175.547 182.583 175.547 C 182.632 175.547 182.657 175.547 182.706 175.547 C 182.731 175.547 182.743 175.214 182.767 175.168 C 182.907 174.911 182.977 175.047 183.116 174.79 C 183.141 174.745 183.153 174.513 183.177 174.412 C 183.227 174.21 183.251 174.198 183.3 174.033 C 183.341 173.896 183.362 173.823 183.403 173.655 C 183.436 173.52 183.452 173.411 183.485 173.277 C 183.526 173.109 183.546 173.006 183.587 172.898 C 183.661 172.704 183.698 172.715 183.772 172.52 C 183.813 172.412 183.833 172.31 183.874 172.142 C 183.907 172.007 183.924 171.898 183.956 171.763 C 183.997 171.595 184.018 171.511 184.059 171.385 C 184.116 171.208 184.145 171.073 184.202 171.007 C 184.407 170.77 184.51 170.889 184.715 170.628 C 184.748 170.587 184.764 170.385 184.797 170.25 C 184.838 170.082 184.858 170.04 184.899 169.872 C 184.932 169.737 184.949 169.628 184.981 169.493 C 185.022 169.325 185.043 169.223 185.084 169.115 C 185.158 168.92 185.195 168.805 185.268 168.737 C 185.523 168.502 185.65 168.634 185.904 168.358 C 185.928 168.332 185.941 168.131 185.965 167.98 C 185.99 167.829 186.002 167.703 186.027 167.602 C 186.076 167.4 186.101 167.405 186.15 167.223 C 186.183 167.102 186.199 166.98 186.232 166.845 C 186.273 166.677 186.293 166.575 186.334 166.467 C 186.408 166.272 186.445 166.283 186.519 166.088 C 186.56 165.98 186.58 165.752 186.621 165.71 C 186.876 165.449 187.003 165.585 187.257 165.332 C 187.306 165.283 187.331 165.135 187.38 164.953 C 187.413 164.832 187.429 164.726 187.462 164.575 C 187.495 164.424 187.511 164.37 187.544 164.197 C 187.568 164.067 187.581 163.97 187.605 163.818 C 187.63 163.667 187.642 163.553 187.667 163.44 C 187.708 163.251 187.728 163.213 187.769 163.062 C 187.81 162.91 187.831 162.872 187.872 162.683 C 187.896 162.57 187.909 162.406 187.933 162.305 C 187.982 162.103 188.007 162.128 188.056 161.927 C 188.081 161.826 188.093 161.678 188.118 161.548 C 188.151 161.375 188.167 161.321 188.2 161.17 C 188.233 161.019 188.249 160.926 188.282 160.792 C 188.323 160.624 188.343 160.421 188.384 160.413 C 190.073 160.118 190.918 160.293 192.607 160.035 C 192.902 159.99 193.05 159.875 193.345 159.657 C 193.46 159.572 193.517 159.514 193.632 159.278 C 193.665 159.211 193.681 159.035 193.714 158.9 C 193.755 158.732 193.776 158.673 193.817 158.522 C 193.858 158.37 193.878 158.295 193.919 158.143 C 193.96 157.992 193.981 157.903 194.022 157.765 C 194.071 157.6 194.095 157.526 194.145 157.387 C 194.202 157.224 194.231 157.023 194.288 157.008 C 195.387 156.721 195.936 156.924 197.035 156.63 C 197.068 156.621 197.084 156.386 197.117 156.252 C 197.158 156.084 197.178 155.99 197.219 155.873 C 197.285 155.687 197.318 155.697 197.383 155.495 C 197.416 155.394 197.433 155.29 197.465 155.117 C 197.49 154.987 197.502 154.868 197.527 154.738 C 197.56 154.565 197.576 154.533 197.609 154.36 C 197.634 154.23 197.646 154.083 197.67 153.982 C 197.72 153.78 197.744 153.785 197.793 153.603 C 197.826 153.482 197.843 153.36 197.875 153.225 C 197.916 153.057 197.937 152.91 197.978 152.847 C 198.134 152.607 198.212 152.62 198.367 152.468 C 198.523 152.317 198.601 152.311 198.757 152.09 C 198.814 152.009 198.843 151.904 198.9 151.712 C 198.933 151.602 198.95 151.506 198.982 151.333 C 199.007 151.204 199.019 151.056 199.044 150.955 C 199.093 150.753 199.118 150.742 199.167 150.577 C 199.208 150.439 199.228 150.35 199.269 150.198 C 199.31 150.047 199.331 149.958 199.372 149.82 C 199.421 149.655 199.446 149.581 199.495 149.442 C 199.552 149.279 199.581 149.275 199.638 149.063 C 199.663 148.973 199.675 148.815 199.7 148.685 C 199.733 148.512 199.749 148.48 199.782 148.307 C 199.807 148.177 199.819 148.08 199.843 147.928 C 199.868 147.777 199.88 147.701 199.905 147.55 C 199.93 147.399 199.942 147.301 199.966 147.172 C 199.999 146.999 200.016 146.894 200.048 146.793 C 200.114 146.592 200.147 146.617 200.212 146.415 C 200.245 146.314 200.262 146.147 200.294 146.037 C 200.352 145.844 200.38 145.705 200.438 145.658 C 200.749 145.403 200.905 145.422 201.217 145.28 C 201.569 145.119 201.746 145.173 202.098 144.902 C 202.139 144.87 202.16 144.675 202.201 144.523 C 202.242 144.372 202.262 144.313 202.303 144.145 C 202.336 144.01 202.353 143.901 202.385 143.767 C 202.426 143.599 202.447 143.556 202.488 143.388 C 202.521 143.254 202.537 143.161 202.57 143.01 C 202.603 142.859 202.619 142.766 202.652 142.632 C 202.693 142.464 202.713 142.421 202.754 142.253 C 202.787 142.119 202.804 142.026 202.836 141.875 C 202.869 141.724 202.886 141.648 202.918 141.497 C 202.951 141.345 202.968 141.179 203 141.118 C 203.132 140.876 203.197 140.907 203.328 140.74 C 203.435 140.604 203.488 140.502 203.595 140.362 C 203.718 140.2 203.779 140.21 203.902 139.983 C 203.943 139.908 203.964 139.773 204.005 139.605 C 204.038 139.47 204.054 139.348 204.087 139.227 C 204.136 139.045 204.161 139.05 204.21 138.848 C 204.234 138.747 204.247 138.571 204.271 138.47 C 204.32 138.268 204.345 138.257 204.394 138.092 C 204.435 137.954 204.456 137.881 204.497 137.713 C 204.53 137.579 204.546 137.47 204.579 137.335 C 204.62 137.167 204.64 137.146 204.681 136.957 C 204.706 136.843 204.718 136.708 204.743 136.578 C 204.776 136.405 204.792 136.233 204.825 136.2 C 205.095 135.93 205.231 136.078 205.501 135.822 C 205.55 135.775 205.575 135.625 205.624 135.443 C 205.657 135.322 205.673 135.07 205.706 135.065 C 207.592 134.768 208.535 134.919 210.421 134.687 C 210.987 134.617 211.27 134.587 211.836 134.308 C 211.885 134.284 211.909 134.095 211.959 133.93 C 212 133.792 212.02 133.689 212.061 133.552 C 212.11 133.387 212.135 133.355 212.184 133.173 C 212.217 133.052 212.233 132.823 212.266 132.795 C 212.586 132.52 212.746 132.685 213.065 132.417 C 213.106 132.382 213.127 132.227 213.168 132.038 C 213.193 131.925 213.205 131.761 213.229 131.66 C 213.279 131.458 213.303 131.433 213.352 131.282 C 213.402 131.13 213.426 131.068 213.475 130.903 C 213.516 130.766 213.537 130.633 213.578 130.525 C 213.652 130.33 213.689 130.328 213.762 130.147 C 213.812 130.026 213.836 129.95 213.885 129.768 C 213.918 129.647 213.935 129.5 213.967 129.39 C 214.025 129.197 214.054 129.136 214.111 129.012 C 214.193 128.834 214.234 128.738 214.316 128.633 C 214.472 128.435 214.55 128.485 214.705 128.255 C 214.755 128.182 214.779 127.886 214.828 127.877 C 216.436 127.583 217.239 127.785 218.846 127.498 C 218.936 127.482 218.982 127.279 219.072 127.12 C 219.154 126.976 219.195 126.91 219.277 126.742 C 219.342 126.607 219.375 126.55 219.441 126.363 C 219.482 126.247 219.502 126.093 219.543 125.985 C 219.617 125.79 219.654 125.788 219.728 125.607 C 219.777 125.486 219.802 125.272 219.851 125.228 C 220.146 124.969 220.294 125.103 220.589 124.85 C 220.646 124.801 220.675 124.488 220.732 124.472 C 221.741 124.185 222.245 124.386 223.254 124.093 C 223.286 124.084 223.303 123.825 223.336 123.715 C 223.393 123.522 223.422 123.478 223.479 123.337 C 223.545 123.175 223.578 123.032 223.643 122.958 C 223.848 122.729 223.951 122.824 224.156 122.58 C 224.205 122.521 224.229 122.341 224.279 122.202 C 224.336 122.039 224.365 121.965 224.422 121.823 C 224.488 121.662 224.521 121.606 224.586 121.445 C 224.643 121.304 224.672 121.199 224.73 121.067 C 224.803 120.896 224.84 120.766 224.914 120.688 C 225.127 120.463 225.234 120.451 225.447 120.31 C 225.693 120.148 225.816 120.207 226.062 119.932 C 226.087 119.904 226.099 119.644 226.124 119.553 C 226.181 119.341 226.21 119.214 226.267 119.175 C 226.652 118.912 226.845 119.051 227.231 118.797 C 227.304 118.748 227.341 118.562 227.415 118.418 C 227.497 118.259 227.538 118.229 227.62 118.04 C 227.669 117.926 227.694 117.741 227.743 117.662 C 227.882 117.438 227.952 117.377 228.091 117.283 C 228.403 117.074 228.559 117.166 228.87 116.905 C 228.92 116.864 228.944 116.678 228.993 116.527 C 229.043 116.375 229.067 116.269 229.116 116.148 C 229.19 115.967 229.227 115.9 229.301 115.77 C 229.399 115.597 229.449 115.583 229.547 115.392 C 229.604 115.28 229.633 115.146 229.69 115.013 C 229.764 114.843 229.801 114.805 229.875 114.635 C 229.932 114.503 229.961 114.433 230.018 114.257 C 230.059 114.131 230.08 114.016 230.121 113.878 C 230.17 113.713 230.195 113.607 230.244 113.5 C 230.334 113.304 230.379 113.318 230.469 113.122 C 230.519 113.015 230.543 112.883 230.592 112.743 C 230.65 112.58 230.678 112.402 230.736 112.365 C 231.154 112.099 231.363 112.273 231.781 111.987 C 231.806 111.97 231.818 111.709 231.843 111.608 C 231.892 111.407 231.917 111.395 231.966 111.23 C 232.007 111.092 232.027 110.989 232.068 110.852 C 232.118 110.687 232.142 110.564 232.191 110.473 C 232.306 110.261 232.364 110.297 232.478 110.095 C 232.536 109.994 232.564 109.893 232.622 109.717 C 232.663 109.591 232.683 109.476 232.724 109.338 C 232.774 109.173 232.798 109.111 232.847 108.96 C 232.897 108.809 232.921 108.763 232.97 108.582 C 233.003 108.461 233.02 108.338 233.052 108.203 C 233.093 108.035 233.114 108.041 233.155 107.825 C 233.171 107.739 233.179 107.533 233.196 107.447 C 233.237 107.23 233.257 107.22 233.298 107.068 C 233.339 106.917 233.36 106.858 233.401 106.69 C 233.434 106.555 233.45 106.463 233.483 106.312 C 233.516 106.16 233.532 106.026 233.565 105.933 C 233.639 105.724 233.676 105.75 233.749 105.555 C 233.79 105.447 233.811 105.278 233.852 105.177 C 233.934 104.975 233.975 104.857 234.057 104.798 C 234.401 104.554 234.573 104.69 234.918 104.42 C 234.959 104.388 234.979 104.21 235.02 104.042 C 235.053 103.907 235.069 103.674 235.102 103.663 C 236.037 103.371 236.504 103.533 237.439 103.285 C 237.644 103.231 237.747 103.151 237.952 102.907 C 238.001 102.848 238.025 102.68 238.075 102.528 C 238.124 102.377 238.148 102.301 238.198 102.15 C 238.247 101.999 238.271 101.858 238.321 101.772 C 238.444 101.555 238.505 101.575 238.628 101.393 C 238.71 101.272 238.751 101.217 238.833 101.015 C 238.874 100.914 238.895 100.805 238.936 100.637 C 238.968 100.502 238.985 100.393 239.018 100.258 C 239.059 100.09 239.079 99.8834 239.12 99.88 C 242.736 99.5807 244.544 99.7649 248.16 99.5017 C 248.702 99.4623 248.972 99.397 249.513 99.1233 C 249.571 99.0943 249.599 98.908 249.657 98.745 C 249.706 98.6053 249.731 98.4423 249.78 98.3667 C 249.927 98.1397 250.001 98.015 250.149 97.9883 C 251.674 97.7124 252.436 97.8591 253.962 97.61 C 254.29 97.5564 254.454 97.5007 254.782 97.2317 C 254.823 97.198 254.843 96.9038 254.884 96.8533 C 255.089 96.6011 255.192 96.7043 255.397 96.475 C 255.462 96.4016 255.495 96.2829 255.561 96.0967 C 255.602 95.9803 255.622 95.8264 255.663 95.7183 C 255.737 95.5238 255.774 95.5346 255.848 95.34 C 255.889 95.2319 255.909 95.0121 255.95 94.9617 C 256.155 94.7094 256.258 94.7378 256.463 94.5833 C 256.659 94.4351 256.758 94.4393 256.955 94.205 C 257.012 94.1367 257.041 94.0193 257.098 93.8267 C 257.131 93.7166 257.147 93.5829 257.18 93.4483 C 257.221 93.2802 257.242 93.1646 257.283 93.07 C 257.373 92.8619 257.418 92.8997 257.508 92.6917 C 257.549 92.5971 257.57 92.3715 257.611 92.3133 C 257.783 92.0689 257.869 92.1704 258.041 91.935 C 258.09 91.8677 258.115 91.6576 258.164 91.5567 C 258.262 91.3549 258.312 91.2648 258.41 91.1783 C 258.656 90.9621 258.779 90.879 259.025 90.8 C 259.722 90.5763 260.07 90.6983 260.767 90.4217 C 260.833 90.3956 260.866 90.1947 260.931 90.0433 C 260.997 89.892 261.03 89.8074 261.095 89.665 C 261.169 89.5048 261.206 89.4962 261.28 89.2867 C 261.313 89.1935 261.329 88.9222 261.362 88.9083 C 262.042 88.6196 262.383 88.8091 263.063 88.53 C 263.121 88.5065 263.149 88.1932 263.207 88.1517 C 263.568 87.8905 263.748 88.0029 264.109 87.7733 C 264.224 87.7003 264.281 87.618 264.396 87.395 C 264.437 87.3154 264.457 87.168 264.498 87.0167 C 264.539 86.8653 264.56 86.6792 264.601 86.6383 C 264.863 86.3766 264.994 86.5218 265.257 86.26 C 265.298 86.2191 265.318 86.0708 265.359 85.8817 C 265.384 85.7682 265.396 85.633 265.421 85.5033 C 265.454 85.3304 265.47 85.2763 265.503 85.125 C 265.536 84.9737 265.552 84.8812 265.585 84.7467 C 265.626 84.5785 265.646 84.5197 265.687 84.3683 C 265.728 84.217 265.749 84.1792 265.79 83.99 C 265.814 83.8765 265.827 83.6873 265.851 83.6117 C 265.925 83.3847 265.962 83.4149 266.036 83.2333 C 266.085 83.1123 266.11 83.0568 266.159 82.855 C 266.183 82.7541 266.196 82.5902 266.22 82.4767 C 266.261 82.2875 266.282 82.2665 266.323 82.0983 C 266.356 81.9638 266.372 81.8411 266.405 81.72 C 266.454 81.5384 266.479 81.5233 266.528 81.3417 C 266.561 81.2206 266.577 81.0844 266.61 80.9633 C 266.659 80.7817 266.684 80.7147 266.733 80.585 C 266.798 80.412 266.831 80.2902 266.897 80.2067 C 267.069 79.9875 267.155 80.0637 267.327 79.8283 C 267.376 79.7611 267.401 79.6151 267.45 79.45 C 267.491 79.3124 267.512 79.1375 267.553 79.0717 C 267.7 78.8348 267.774 78.9029 267.922 78.6933 C 267.987 78.6002 268.02 78.4303 268.086 78.315 C 268.192 78.1276 268.246 78.1553 268.352 77.9367 C 268.393 77.8526 268.414 77.6747 268.455 77.5583 C 268.52 77.3721 268.553 77.3414 268.619 77.18 C 268.676 77.0388 268.705 77.0135 268.762 76.8017 C 268.787 76.7109 268.799 76.553 268.824 76.4233 C 268.856 76.2504 268.873 76.1963 268.906 76.045 C 268.938 75.8937 268.955 75.8012 268.988 75.6667 C 269.029 75.4985 269.049 75.4397 269.09 75.2883 C 269.131 75.137 269.152 75.0613 269.193 74.91 C 269.234 74.7587 269.254 74.683 269.295 74.5317 C 269.336 74.3803 269.357 74.3215 269.398 74.1533 C 269.43 74.0188 269.447 73.9095 269.48 73.775 C 269.521 73.6068 269.541 73.548 269.582 73.3967 C 269.623 73.2453 269.644 73.1697 269.685 73.0183 C 269.726 72.867 269.746 72.7913 269.787 72.64 C 269.828 72.4887 269.849 72.4298 269.89 72.2617 C 269.922 72.1272 269.939 72.0044 269.972 71.8833 C 270.021 71.7017 270.045 71.5541 270.095 71.505 C 270.349 71.2514 270.476 71.2607 270.73 71.1267 C 271.05 70.958 271.21 71.0228 271.53 70.7483 C 271.562 70.7202 271.579 70.543 271.612 70.37 C 271.636 70.2403 271.648 70.1052 271.673 69.9917 C 271.714 69.8025 271.735 69.7647 271.776 69.6133 C 271.817 69.462 271.837 69.3863 271.878 69.235 C 271.919 69.0837 271.94 68.9828 271.981 68.8567 C 272.038 68.6801 272.067 68.4888 272.124 68.4783 C 273.723 68.1862 274.522 68.3936 276.121 68.1 C 276.171 68.091 276.195 67.873 276.244 67.7217 C 276.294 67.5703 276.318 67.5084 276.367 67.3433 C 276.408 67.2058 276.429 67.1163 276.47 66.965 C 276.511 66.8137 276.531 66.738 276.572 66.5867 C 276.613 66.4353 276.634 66.2771 276.675 66.2083 C 276.814 65.9745 276.884 66.0537 277.023 65.83 C 277.073 65.751 277.097 65.5727 277.146 65.4517 C 277.22 65.2701 277.257 65.2549 277.331 65.0733 C 277.38 64.9523 277.405 64.8968 277.454 64.695 C 277.478 64.5941 277.491 64.4302 277.515 64.3167 C 277.556 64.1275 277.577 64.0897 277.618 63.9383 C 277.659 63.787 277.679 63.7113 277.72 63.56 C 277.761 63.4087 277.782 63.3498 277.823 63.1817 C 277.856 63.0471 277.872 62.9244 277.905 62.8033 C 277.954 62.6217 277.979 62.5763 278.028 62.425 C 278.077 62.2737 278.102 62.1602 278.151 62.0467 C 278.233 61.8575 278.274 61.8276 278.356 61.6683 C 278.43 61.525 278.467 61.4995 278.54 61.29 C 278.573 61.1969 278.59 61.0048 278.622 60.9117 C 278.696 60.7021 278.733 60.7036 278.807 60.5333 C 278.864 60.4009 278.893 60.1564 278.95 60.155 C 291.439 59.8537 297.683 60.0783 310.171 59.7767 C 310.212 59.7757 310.232 59.4168 310.273 59.3983 C 310.905 59.1141 311.22 59.2974 311.852 59.02 C 311.909 58.9948 311.938 58.7741 311.995 58.6417 C 312.069 58.4714 312.106 58.2766 312.18 58.2633 C 313.787 57.974 314.59 58.1801 316.198 57.885 C 316.239 57.8775 316.259 57.5098 316.3 57.5067 C 320.203 57.2071 322.155 57.3359 326.058 57.1283 C 327.845 57.0333 328.739 56.8485 330.527 56.75 C 334.233 56.5458 336.086 56.671 339.792 56.3717 C 339.833 56.3684 339.854 56.0236 339.895 55.9933 C 340.264 55.7209 340.448 55.6747 340.817 55.615 C 342.318 55.3721 343.068 55.5267 344.569 55.2367 C 344.634 55.224 344.667 55.0313 344.733 54.8583 C 344.782 54.7286 344.806 54.6451 344.856 54.48 C 344.897 54.3424 344.917 54.253 344.958 54.1017 C 344.999 53.9503 345.02 53.7474 345.061 53.7233 C 345.536 53.4447 345.774 53.6193 346.25 53.345 C 346.299 53.3166 346.323 53.0877 346.373 52.9667 C 346.446 52.7851 346.483 52.6316 346.557 52.5883 C 347 52.3289 347.221 52.4824 347.664 52.21 C 347.713 52.1797 347.738 51.9225 347.787 51.8317 C 347.902 51.6198 347.959 51.6887 348.074 51.4533 C 348.107 51.3861 348.123 51.2263 348.156 51.075 C 348.189 50.9237 348.205 50.8312 348.238 50.6967 C 348.279 50.5285 348.3 50.4865 348.341 50.3183 C 348.373 50.1838 348.39 49.9633 348.423 49.94 C 348.816 49.6606 349.013 49.8307 349.406 49.5617 C 349.456 49.528 349.48 49.3484 349.529 49.1833 C 349.57 49.0458 349.591 48.9563 349.632 48.805 C 349.673 48.6537 349.693 48.5948 349.734 48.4267 C 349.767 48.2921 349.784 48.106 349.816 48.0483 C 349.956 47.8033 350.026 47.8844 350.165 47.67 C 350.222 47.5817 350.251 47.4032 350.308 47.2917 C 350.407 47.1005 350.456 46.9582 350.554 46.9133 C 351.12 46.6555 351.403 46.8135 351.969 46.535 C 352.018 46.5108 352.043 46.2964 352.092 46.1567 C 352.149 45.9937 352.178 45.9413 352.235 45.7783 C 352.285 45.6386 352.309 45.5513 352.358 45.4 C 352.408 45.2487 352.432 45.2033 352.481 45.0217 C 352.514 44.9006 352.531 44.7365 352.563 44.6433 C 352.637 44.4338 352.674 44.4745 352.748 44.265 C 352.781 44.1719 352.797 44.0212 352.83 43.8867 C 352.871 43.7185 352.891 43.6975 352.932 43.5083 C 352.957 43.3948 352.969 43.357 352.994 43.13 C 353.002 43.0543 353.006 42.7633 353.014 42.7517 C 353.219 42.4606 353.322 42.4176 353.527 42.3733 C 354.724 42.1149 355.323 42.0034 356.52 41.995 C 398.576 41.7007 419.604 41.9176 461.661 41.6167 C 461.899 41.615 462.017 41.4965 462.255 41.2383 C 462.296 41.1938 462.317 40.9681 462.358 40.86 C 462.432 40.6654 462.468 40.5864 462.542 40.4817 C 462.682 40.2838 462.751 40.3372 462.891 40.1033 C 462.932 40.0345 462.952 39.8414 462.993 39.725 C 463.059 39.5387 463.092 39.5196 463.157 39.3467 C 463.206 39.217 463.231 38.9822 463.28 38.9683 C 464.305 38.6795 464.818 38.8833 465.843 38.59 C 465.875 38.5806 465.892 38.3327 465.925 38.2117 C 465.974 38.0301 465.998 37.9847 466.048 37.8333 C 466.097 37.682 466.121 37.6201 466.171 37.455 C 466.212 37.3174 466.232 37.0808 466.273 37.0767 C 469.266 36.7781 470.763 36.8712 473.755 36.6983 C 476.002 36.5686 477.125 36.495 479.372 36.32 C 481.012 36.1923 481.832 36.161 483.472 35.9417 C 484.095 35.8583 484.407 35.8405 485.03 35.5633 C 485.087 35.5378 485.116 35.203 485.174 35.185 C 486.084 34.9003 486.539 34.8524 487.449 34.8067 C 492.566 34.5497 495.124 34.7281 500.241 34.4283 C 500.29 34.4254 500.314 34.0581 500.364 34.05 C 502.143 33.7555 503.033 33.799 504.812 33.6717 C 507.264 33.4963 510.941 33.2933 510.941 33.2933"  /></g><g class="highcharts-markers" visibility="visible" clip-path="none" transform="translate(74 72) scale(1)"  /></g><text class="highcharts-title" style="width: 536px; color: rgb(51, 51, 51); font-size: 18px; fill: #333333;" text-anchor="middle" x="300" y="25" ><tspan>Questions Correct Over Time</tspan></text><text class="highcharts-subtitle" style="width: 536px; color: rgb(85, 85, 85); fill: #555555;" text-anchor="middle" x="300" y="53" ><tspan>Click and drag in the plot area to zoom in</tspan></text><g class="highcharts-legend" transform="translate(255 364)" ><g ><g><g class="highcharts-legend-item" transform="translate(8 3)" ><path fill="none" stroke="#9ab2d6" stroke-width="2" d="M 0 11 L 16 11" /><path fill="#9ab2d6" d="M 8 7 C 13.328 7 13.328 15 8 15 C 2.672 15 2.672 7 8 7 Z" /><text style="color: rgb(51, 51, 51); font-size: 12px; font-weight: bold; cursor: pointer; fill: #333333;" text-anchor="start" x="21" y="15" >Questions</text></g></g></g></g><g class="highcharts-axis-labels highcharts-xaxis-labels" ><text style="color: rgb(96, 96, 96); font-size: 11px; cursor: default; fill: #606060;" opacity="1" text-anchor="middle" x="145.5586" y="319"><tspan>06:00 PM</tspan></text><text style="color: rgb(96, 96, 96); font-size: 11px; cursor: default; fill: #606060;" opacity="1" text-anchor="middle" x="219.3562" y="319"><tspan>07:00 PM</tspan></text><text style="color: rgb(96, 96, 96); font-size: 11px; cursor: default; fill: #606060;" opacity="1" text-anchor="middle" x="293.1538" y="319"><tspan>08:00 PM</tspan></text><text style="color: rgb(96, 96, 96); font-size: 11px; cursor: default; fill: #606060;" opacity="1" text-anchor="middle" x="366.9514" y="319"><tspan>09:00 PM</tspan></text><text style="color: rgb(96, 96, 96); font-size: 11px; cursor: default; fill: #606060;" opacity="1" text-anchor="middle" x="440.749" y="319"><tspan>10:00 PM</tspan></text><text style="color: rgb(96, 96, 96); font-size: 11px; cursor: default; fill: #606060;" opacity="1" text-anchor="middle" x="514.5465" y="319"><tspan>11:00 PM</tspan></text><text style="color: rgb(96, 96, 96); font-size: 11px; cursor: default; fill: #606060;" opacity="1" text-anchor="middle" x="574.07" y="319"><tspan>12:00 AM</tspan></text></g><g class="highcharts-axis-labels highcharts-yaxis-labels" ><text style="width: 178px; color: rgb(96, 96, 96); font-size: 11px; cursor: default; fill: #606060;" opacity="1" text-anchor="end" x="59" y="304">0</text><text style="width: 178px; color: rgb(96, 96, 96); font-size: 11px; cursor: default; fill: #606060;" opacity="1" text-anchor="end" x="59" y="228.3333">200</text><text style="width: 178px; color: rgb(96, 96, 96); font-size: 11px; cursor: default; fill: #606060;" opacity="1" text-anchor="end" x="59" y="152.6667">400</text><text style="width: 178px; color: rgb(96, 96, 96); font-size: 11px; cursor: default; fill: #606060;" opacity="1" text-anchor="end" x="59" y="77">600</text></g><g class="highcharts-tooltip" style="padding: 0px; white-space: nowrap; cursor: default;" transform="translate(0 -9999)" ><path fill="none" stroke="black" stroke-opacity="0.05" stroke-width="5" transform="translate(1 1)" d="M 3 0 L 13 0 C 16 0 16 0 16 3 L 16 13 C 16 16 16 16 13 16 L 3 16 C 0 16 0 16 0 13 L 0 3 C 0 0 0 0 3 0"  /><path fill="none" stroke="black" stroke-opacity="0.1" stroke-width="3" transform="translate(1 1)" d="M 3 0 L 13 0 C 16 0 16 0 16 3 L 16 13 C 16 16 16 16 13 16 L 3 16 C 0 16 0 16 0 13 L 0 3 C 0 0 0 0 3 0"  /><path fill="none" stroke="black" stroke-opacity="0.15" stroke-width="1" transform="translate(1 1)" d="M 3 0 L 13 0 C 16 0 16 0 16 3 L 16 13 C 16 16 16 16 13 16 L 3 16 C 0 16 0 16 0 13 L 0 3 C 0 0 0 0 3 0"  /><path fill="rgb(249, 249, 249)" fill-opacity=" 0.85" d="M 3 0 L 13 0 C 16 0 16 0 16 3 L 16 13 C 16 16 16 16 13 16 L 3 16 C 0 16 0 16 0 13 L 0 3 C 0 0 0 0 3 0" /><text style="color: rgb(51, 51, 51); font-size: 12px; fill: #333333;" x="8" y="21" ></text></g><text style="color: rgb(144, 144, 144); font-size: 9px; cursor: pointer; fill: #909090;" text-anchor="end" x="590" y="395" >Highcharts.com</text></svg>