<svg xmlns:xlink="http://www.w3.org/1999/xlink" xmlns="http://www.w3.org/2000/svg" style="font-family: 'lucida grande', 'lucida sans unicode', arial, helvetica, sans-serif; font-size: 12px;" width="600" height="400" version="1.1"><desc>Created with Highcharts 4.0.4</desc><defs><clipPath id="highcharts-41"><rect x="0" y="0" width="523" height="227" /></clipPath></defs><rect class=" highcharts-background" fill="#ffffff" x="0" y="0" width="600" height="400" strokeWidth="0" /><g class="highcharts-grid"  /><g class="highcharts-grid" ><path opacity="1" fill="none" stroke="#c0c0c0" stroke-width="1" d="M 67 71.5 L 590 71.5"  /><path opacity="1" fill="none" stroke="#c0c0c0" stroke-width="1" d="M 67 129.5 L 590 129.5"  /><path opacity="1" fill="none" stroke="#c0c0c0" stroke-width="1" d="M 67 186.5 L 590 186.5"  /><path opacity="1" fill="none" stroke="#c0c0c0" stroke-width="1" d="M 67 242.5 L 590 242.5"  /><path opacity="1" fill="none" stroke="#c0c0c0" stroke-width="1" d="M 67 299.5 L 590 299.5"  /></g><g class="highcharts-axis" ><path opacity="1" fill="none" stroke="#c0d0e0" stroke-width="1" d="M 227.5 299 L 227.5 309" /><path opacity="1" fill="none" stroke="#c0d0e0" stroke-width="1" d="M 309.5 299 L 309.5 309" /><path opacity="1" fill="none" stroke="#c0d0e0" stroke-width="1" d="M 391.5 299 L 391.5 309" /><path opacity="1" fill="none" stroke="#c0d0e0" stroke-width="1" d="M 473.5 299 L 473.5 309" /><path opacity="1" fill="none" stroke="#c0d0e0" stroke-width="1" d="M 555.5 299 L 555.5 309" /><path opacity="1" fill="none" stroke="#c0d0e0" stroke-width="1" d="M 145.5 299 L 145.5 309" /><text class=" highcharts-xaxis-title" visibility="visible" style="color: rgb(112, 112, 112); fill: #707070;" text-anchor="middle" transform="translate(0)" x="328.5" y="338" >Time</text><path visibility="visible" fill="none" stroke="#c0d0e0" stroke-width="1" d="M 67 299.5 L 590 299.5"  /></g><g class="highcharts-axis" ><text class=" highcharts-yaxis-title" visibility="visible" style="color: rgb(112, 112, 112); fill: #707070;" text-anchor="middle" transform="translate(0) rotate(270 28.08 185.5)" x="28.08" y="185.5" ><tspan>Questions Correct</tspan></text></g><g class="highcharts-series-group" ><g class="highcharts-series" visibility="visible" clip-path="url(#highcharts-41)" transform="translate(67 72) scale(1)" ><path fill="none" stroke="#9ab2d6" stroke-linecap="round" stroke-linejoin="round" stroke-width="2" d="M 5.12745 215.65 C 5.12745 215.65 6.084 215.65 6.7217 215.65 C 6.76725 215.65 6.79003 208.624 6.83558 204.3 C 6.88568 199.544 6.91073 193.718 6.96084 192.95 C 7.50288 184.638 7.77391 186.82 8.31595 181.6 C 8.71679 177.74 8.91721 173.094 9.31805 170.25 C 10.1972 164.014 10.6367 163.393 11.5158 158.9 C 12.4132 154.313 12.8618 150.694 13.7592 147.55 C 15.4536 141.614 16.3009 141.536 17.9953 136.2 C 19.1842 132.456 19.7786 124.907 20.9675 124.85 C 210.36 115.827 305.056 122.465 494.448 113.5 C 496.876 113.385 498.09 102.15 500.518 102.15 C 500.568 102.15 500.593 102.15 500.643 102.15 C 500.798 102.15 500.876 91.202 501.03 90.8 C 504.374 82.122 506.046 88.3245 509.389 79.45 C 509.466 79.2445 509.505 73.0794 509.582 68.1 C 509.646 63.9994 509.678 57.0053 509.742 56.75 C 511.947 47.9253 513.049 51.8157 515.253 45.4 C 516.169 42.7356 516.627 42.6589 517.542 34.05 C 517.592 33.5789 517.617 26.1441 517.668 22.7 C 517.75 17.0641 517.873 11.35 517.873 11.35"  /></g><g class="highcharts-markers" visibility="visible" clip-path="none" transform="translate(67 72) scale(1)" ><path fill="rgb(8, 243, 53)" d="M 517 7.35 C 522.328 7.35 522.328 15.35 517 15.35 C 511.672 15.35 511.672 7.35 517 7.35 Z" /><path fill="rgb(8, 243, 53)" d="M 517 18.7 C 522.328 18.7 522.328 26.7 517 26.7 C 511.672 26.7 511.672 18.7 517 18.7 Z" /><path fill="rgb(8, 243, 53)" d="M 517 30.05 C 522.328 30.05 522.328 38.05 517 38.05 C 511.672 38.05 511.672 30.05 517 30.05 Z" /><path fill="rgb(8, 243, 53)" d="M 515 41.4 C 520.328 41.4 520.328 49.4 515 49.4 C 509.672 49.4 509.672 41.4 515 41.4 Z" /><path fill="rgb(8, 243, 53)" d="M 509 52.75 C 514.328 52.75 514.328 60.75 509 60.75 C 503.672 60.75 503.672 52.75 509 52.75 Z" /><path fill="rgb(8, 243, 53)" d="M 509 64.1 C 514.328 64.1 514.328 72.1 509 72.1 C 503.672 72.1 503.672 64.1 509 64.1 Z" /><path fill="rgb(8, 243, 53)" d="M 509 75.45 C 514.328 75.45 514.328 83.45 509 83.45 C 503.672 83.45 503.672 75.45 509 75.45 Z" /><path fill="rgb(8, 243, 53)" d="M 501 86.8 C 506.328 86.8 506.328 94.8 501 94.8 C 495.672 94.8 495.672 86.8 501 86.8 Z" /><path fill="rgb(245, 64, 50)" d="M 500 98.15 C 505.328 98.15 505.328 106.15 500 106.15 C 494.672 106.15 494.672 98.15 500 98.15 Z" /><path fill="rgb(8, 243, 53)" d="M 500 98.15 C 505.328 98.15 505.328 106.15 500 106.15 C 494.672 106.15 494.672 98.15 500 98.15 Z" /><path fill="rgb(8, 243, 53)" d="M 494 109.5 C 499.328 109.5 499.328 117.5 494 117.5 C 488.672 117.5 488.672 109.5 494 109.5 Z" /><path fill="rgb(8, 243, 53)" d="M 20 120.85 C 25.328 120.85 25.328 128.85 20 128.85 C 14.672 128.85 14.672 120.85 20 120.85 Z" /><path fill="rgb(8, 243, 53)" d="M 17 132.2 C 22.328 132.2 22.328 140.2 17 140.2 C 11.672 140.2 11.672 132.2 17 132.2 Z" /><path fill="rgb(8, 243, 53)" d="M 13 143.55 C 18.328 143.55 18.328 151.55 13 151.55 C 7.672 151.55 7.672 143.55 13 143.55 Z" /><path fill="rgb(8, 243, 53)" d="M 11 154.9 C 16.328 154.9 16.328 162.9 11 162.9 C 5.672 162.9 5.672 154.9 11 154.9 Z" /><path fill="rgb(8, 243, 53)" d="M 9 166.25 C 14.328 166.25 14.328 174.25 9 174.25 C 3.672 174.25 3.672 166.25 9 166.25 Z" /><path fill="rgb(8, 243, 53)" d="M 8 177.6 C 13.328 177.6 13.328 185.6 8 185.6 C 2.672 185.6 2.672 177.6 8 177.6 Z" /><path fill="rgb(8, 243, 53)" d="M 6 188.95 C 11.328 188.95 11.328 196.95 6 196.95 C 0.672 196.95 0.672 188.95 6 188.95 Z" /><path fill="rgb(8, 243, 53)" d="M 6 200.3 C 11.328 200.3 11.328 208.3 6 208.3 C 0.672 208.3 0.672 200.3 6 200.3 Z" /><path fill="rgb(245, 64, 50)" d="M 6 211.65 C 11.328 211.65 11.328 219.65 6 219.65 C 0.672 219.65 0.672 211.65 6 211.65 Z" /><path fill="rgb(8, 243, 53)" d="M 5 211.65 C 10.328 211.65 10.328 219.65 5 219.65 C -0.328 219.65 -0.328 211.65 5 211.65 Z" /></g></g><text class="highcharts-title" style="width: 536px; color: rgb(51, 51, 51); font-size: 18px; fill: #333333;" text-anchor="middle" x="300" y="25" ><tspan>Questions Correct Over Time</tspan></text><text class="highcharts-subtitle" style="width: 536px; color: rgb(85, 85, 85); fill: #555555;" text-anchor="middle" x="300" y="53" ><tspan>Click and drag in the plot area to zoom in</tspan></text><g class="highcharts-legend" transform="translate(255 364)" ><g ><g><g class="highcharts-legend-item" transform="translate(8 3)" ><path fill="none" stroke="#9ab2d6" stroke-width="2" d="M 0 11 L 16 11" /><path fill="#9ab2d6" d="M 8 7 C 13.328 7 13.328 15 8 15 C 2.672 15 2.672 7 8 7 Z" /><text style="color: rgb(51, 51, 51); font-size: 12px; font-weight: bold; cursor: pointer; fill: #333333;" text-anchor="start" x="21" y="15" >Questions</text></g></g></g></g><g class="highcharts-axis-labels highcharts-xaxis-labels" ><text style="color: rgb(96, 96, 96); font-size: 11px; cursor: default; fill: #606060;" opacity="1" text-anchor="middle" x="146.3512" y="319"><tspan>02:00 AM</tspan></text><text style="color: rgb(96, 96, 96); font-size: 11px; cursor: default; fill: #606060;" opacity="1" text-anchor="middle" x="228.3412" y="319"><tspan>04:00 AM</tspan></text><text style="color: rgb(96, 96, 96); font-size: 11px; cursor: default; fill: #606060;" opacity="1" text-anchor="middle" x="310.3313" y="319"><tspan>06:00 AM</tspan></text><text style="color: rgb(96, 96, 96); font-size: 11px; cursor: default; fill: #606060;" opacity="1" text-anchor="middle" x="392.3213" y="319"><tspan>08:00 AM</tspan></text><text style="color: rgb(96, 96, 96); font-size: 11px; cursor: default; fill: #606060;" opacity="1" text-anchor="middle" x="474.3113" y="319"><tspan>10:00 AM</tspan></text><text style="color: rgb(96, 96, 96); font-size: 11px; cursor: default; fill: #606060;" opacity="1" text-anchor="middle" x="556.3014" y="319"><tspan>12:00 PM</tspan></text></g><g class="highcharts-axis-labels highcharts-yaxis-labels" ><text style="width: 178px; color: rgb(96, 96, 96); font-size: 11px; cursor: default; fill: #606060;" opacity="1" text-anchor="end" x="52" y="304">0</text><text style="width: 178px; color: rgb(96, 96, 96); font-size: 11px; cursor: default; fill: #606060;" opacity="1" text-anchor="end" x="52" y="247.25">5</text><text style="width: 178px; color: rgb(96, 96, 96); font-size: 11px; cursor: default; fill: #606060;" opacity="1" text-anchor="end" x="52" y="190.5">10</text><text style="width: 178px; color: rgb(96, 96, 96); font-size: 11px; cursor: default; fill: #606060;" opacity="1" text-anchor="end" x="52" y="133.75">15</text><text style="width: 178px; color: rgb(96, 96, 96); font-size: 11px; cursor: default; fill: #606060;" opacity="1" text-anchor="end" x="52" y="77">20</text></g><g class="highcharts-tooltip" style="padding: 0px; white-space: nowrap; cursor: default;" transform="translate(0 -9999)" ><path fill="none" stroke="black" stroke-opacity="0.05" stroke-width="5" transform="translate(1 1)" d="M 3 0 L 13 0 C 16 0 16 0 16 3 L 16 13 C 16 16 16 16 13 16 L 3 16 C 0 16 0 16 0 13 L 0 3 C 0 0 0 0 3 0"  /><path fill="none" stroke="black" stroke-opacity="0.1" stroke-width="3" transform="translate(1 1)" d="M 3 0 L 13 0 C 16 0 16 0 16 3 L 16 13 C 16 16 16 16 13 16 L 3 16 C 0 16 0 16 0 13 L 0 3 C 0 0 0 0 3 0"  /><path fill="none" stroke="black" stroke-opacity="0.15" stroke-width="1" transform="translate(1 1)" d="M 3 0 L 13 0 C 16 0 16 0 16 3 L 16 13 C 16 16 16 16 13 16 L 3 16 C 0 16 0 16 0 13 L 0 3 C 0 0 0 0 3 0"  /><path fill="rgb(249, 249, 249)" fill-opacity=" 0.85" d="M 3 0 L 13 0 C 16 0 16 0 16 3 L 16 13 C 16 16 16 16 13 16 L 3 16 C 0 16 0 16 0 13 L 0 3 C 0 0 0 0 3 0" /><text style="color: rgb(51, 51, 51); font-size: 12px; fill: #333333;" x="8" y="21" ></text></g><text style="color: rgb(144, 144, 144); font-size: 9px; cursor: pointer; fill: #909090;" text-anchor="end" x="590" y="395" >Highcharts.com</text></svg>