<svg xmlns:xlink="http://www.w3.org/1999/xlink" xmlns="http://www.w3.org/2000/svg" style="font-family: 'lucida grande', 'lucida sans unicode', arial, helvetica, sans-serif; font-size: 12px;" width="600" height="400" version="1.1"><desc>Created with Highcharts 4.0.4</desc><defs><clipPath id="highcharts-215"><rect x="0" y="0" width="516" height="227" /></clipPath></defs><rect class=" highcharts-background" fill="#ffffff" x="0" y="0" width="600" height="400" strokeWidth="0" /><g class="highcharts-grid"  /><g class="highcharts-grid" ><path opacity="1" fill="none" stroke="#c0c0c0" stroke-width="1" d="M 74 71.5 L 590 71.5"  /><path opacity="1" fill="none" stroke="#c0c0c0" stroke-width="1" d="M 74 148.5 L 590 148.5"  /><path opacity="1" fill="none" stroke="#c0c0c0" stroke-width="1" d="M 74 223.5 L 590 223.5"  /><path opacity="1" fill="none" stroke="#c0c0c0" stroke-width="1" d="M 74 299.5 L 590 299.5"  /></g><g class="highcharts-axis" ><path opacity="1" fill="none" stroke="#c0d0e0" stroke-width="1" d="M 158.5 299 L 158.5 309" /><path opacity="1" fill="none" stroke="#c0d0e0" stroke-width="1" d="M 241.5 299 L 241.5 309" /><path opacity="1" fill="none" stroke="#c0d0e0" stroke-width="1" d="M 324.5 299 L 324.5 309" /><path opacity="1" fill="none" stroke="#c0d0e0" stroke-width="1" d="M 407.5 299 L 407.5 309" /><path opacity="1" fill="none" stroke="#c0d0e0" stroke-width="1" d="M 490.5 299 L 490.5 309" /><path opacity="1" fill="none" stroke="#c0d0e0" stroke-width="1" d="M 573.5 299 L 573.5 309" /><path opacity="1" fill="none" stroke="#c0d0e0" stroke-width="1" d="M 75.5 299 L 75.5 309" /><text class=" highcharts-xaxis-title" visibility="visible" style="color: rgb(112, 112, 112); fill: #707070;" text-anchor="middle" transform="translate(0)" x="332" y="338" >Time</text><path visibility="visible" fill="none" stroke="#c0d0e0" stroke-width="1" d="M 74 299.5 L 590 299.5"  /></g><g class="highcharts-axis" ><text class=" highcharts-yaxis-title" visibility="visible" style="color: rgb(112, 112, 112); fill: #707070;" text-anchor="middle" transform="translate(0) rotate(270 28.12 185.5)" x="28.12" y="185.5" ><tspan>Questions Correct</tspan></text></g><g class="highcharts-series-group" ><g class="highcharts-series" visibility="visible" clip-path="url(#highcharts-215)" transform="translate(74 72) scale(1)" ><path fill="none" stroke="#9ab2d6" stroke-linecap="round" stroke-linejoin="round" stroke-width="2" d="M 5.05882 225.487 C 5.05882 225.487 5.09693 224.09 5.12234 223.973 C 5.36024 222.879 5.47919 222.798 5.7171 222.46 C 6.33148 221.587 6.63868 222.081 7.25307 220.947 C 7.29464 220.87 7.31543 219.549 7.357 219.433 C 7.75197 218.338 7.94945 218.403 8.34441 217.92 C 8.94032 217.192 9.23828 217.411 9.83419 216.407 C 9.9566 216.2 10.0178 215.037 10.1402 214.893 C 11.0503 213.826 11.5053 214.227 12.4153 213.38 C 12.8057 213.017 13.0008 213.043 13.3912 211.867 C 13.4027 211.832 13.4085 210.38 13.42 210.353 C 13.9374 209.169 14.1961 210.024 14.7135 208.84 C 14.725 208.814 14.7308 207.355 14.7424 207.327 C 15.2274 206.144 15.4699 206.959 15.955 205.813 C 15.9827 205.748 15.9965 204.372 16.0243 204.3 C 16.4631 203.161 16.6825 203.187 17.1214 202.787 C 18.0106 201.976 18.4552 202.472 19.3445 201.273 C 19.3537 201.261 19.3583 199.813 19.3676 199.76 C 19.5685 198.603 19.669 198.523 19.87 198.247 C 20.549 197.312 20.8885 197.92 21.5676 196.733 C 21.5815 196.709 21.5884 195.243 21.6022 195.22 C 22.3044 194.033 22.6555 194.898 23.3576 193.707 C 23.3692 193.687 23.375 192.219 23.3865 192.193 C 23.9108 191.009 24.173 191.835 24.6973 190.68 C 24.7227 190.624 24.7354 189.206 24.7608 189.167 C 25.5115 187.996 25.8868 188.842 26.6375 187.653 C 26.6513 187.631 26.6582 186.165 26.6721 186.14 C 27.3281 184.954 27.656 185.366 28.312 184.627 C 28.7301 184.155 28.9391 184.188 29.3572 183.113 C 29.4103 182.977 29.4368 181.685 29.49 181.6 C 30.1944 180.474 30.5467 181.278 31.2511 180.087 C 31.2627 180.067 31.2685 178.598 31.28 178.573 C 31.8367 177.387 32.115 178.036 32.6716 177.06 C 32.8056 176.825 32.8726 176.679 33.0065 175.547 C 33.0158 175.469 33.0204 174.071 33.0296 174.033 C 33.3137 172.861 33.4558 172.876 33.7399 172.52 C 34.4212 171.666 34.7619 171.975 35.4433 171.007 C 35.6142 170.764 35.6997 169.787 35.8706 169.493 C 36.4041 168.576 36.6709 168.822 37.2045 167.98 C 37.4377 167.612 37.5544 166.864 37.7877 166.467 C 38.2658 165.653 38.5048 166.13 38.983 164.953 C 38.9968 164.919 39.0037 163.474 39.0176 163.44 C 39.498 162.263 39.7382 162.507 40.2187 161.927 C 40.7407 161.296 41.0017 161.096 41.5237 160.413 C 41.9279 159.885 42.13 158.9 42.5342 158.9 C 42.8483 158.9 43.0053 158.9 43.3195 158.9 C 43.3287 158.9 43.3333 157.408 43.3426 157.387 C 43.8669 156.197 44.129 156.554 44.6533 155.873 C 45.0622 155.343 45.2666 155.139 45.6754 154.36 C 45.9017 153.929 46.0149 153.312 46.2413 152.847 C 46.6039 152.101 46.7852 152.015 47.1478 151.333 C 47.4296 150.804 47.5705 150.992 47.8523 149.82 C 47.8615 149.782 47.8662 148.322 47.8754 148.307 C 48.6191 147.111 48.991 147.429 49.7347 146.793 C 50.4069 146.219 50.7429 146.466 51.4151 145.28 C 51.4289 145.256 51.4358 143.811 51.4497 143.767 C 51.817 142.6 52.0006 143.427 52.3678 142.253 C 52.3794 142.216 52.3851 140.74 52.3967 140.74 C 200.256 139.529 274.186 140.436 422.046 139.227 C 422.207 139.225 422.288 138.298 422.45 137.713 C 422.623 137.087 422.71 136.529 422.883 136.2 C 423.347 135.318 423.579 134.975 424.043 134.687 C 425.529 133.764 426.271 134.36 427.756 133.173 C 427.786 133.149 427.801 131.713 427.831 131.66 C 428.483 130.503 428.808 131.34 429.46 130.147 C 429.469 130.13 429.474 129.239 429.483 128.633 C 429.492 128.028 429.497 127.131 429.506 127.12 C 430.483 125.921 430.971 126.803 431.948 125.607 C 431.96 125.593 431.966 124.126 431.977 124.093 C 432.4 122.915 432.611 123.007 433.034 122.58 C 433.81 121.796 434.198 121.888 434.974 121.067 C 435.341 120.678 435.525 120.164 435.892 119.553 C 436.253 118.954 436.433 119.228 436.793 118.04 C 436.8 118.017 436.804 117.132 436.81 116.527 C 436.817 115.921 436.821 115.019 436.828 115.013 C 438.216 113.809 438.91 114.703 440.298 113.5 C 440.307 113.492 440.312 111.987 440.321 111.987 C 440.335 111.987 440.342 111.987 440.356 111.987 C 440.367 111.987 440.373 110.488 440.385 110.473 C 441.318 109.277 441.784 110.156 442.718 108.96 C 442.729 108.945 442.735 107.461 442.746 107.447 C 443.68 106.251 444.146 106.743 445.079 105.933 C 445.541 105.532 445.772 104.738 446.234 104.42 C 447.53 103.528 448.178 103.843 449.474 102.907 C 449.852 102.633 450.042 102.575 450.421 101.393 C 450.43 101.365 450.434 100.485 450.444 99.88 C 450.453 99.2747 450.457 98.3687 450.467 98.3667 C 455.911 97.1581 458.633 98.0035 464.077 96.8533 C 464.363 96.7928 464.506 95.34 464.793 95.34 C 464.811 95.34 464.821 95.34 464.839 95.34 C 464.848 95.34 464.853 93.8633 464.862 93.8267 C 465.158 92.6527 465.306 92.8959 465.601 92.3133 C 465.92 91.6852 466.079 91.9766 466.398 90.8 C 466.407 90.7659 466.412 89.3053 466.421 89.2867 C 467.012 88.0946 467.308 88.4698 467.899 87.7733 C 468.336 87.2591 468.554 87.4334 468.991 86.26 C 469.005 86.2227 469.012 84.7637 469.025 84.7467 C 469.998 83.553 470.484 84.4298 471.456 83.2333 C 471.468 83.2191 471.474 82.2703 471.485 81.72 C 471.499 81.0596 471.506 80.2268 471.52 80.2067 C 472.34 79.0161 472.75 79.8905 473.57 78.6933 C 473.579 78.6798 473.584 77.2266 473.593 77.18 C 473.824 76.0159 473.939 76.0522 474.17 75.6667 C 474.665 74.8416 474.912 74.793 475.406 74.1533 C 475.847 73.5824 476.068 73.2718 476.509 72.64 C 476.913 72.0611 477.115 71.8598 477.519 71.1267 C 477.783 70.6491 477.914 70.1525 478.178 69.6133 C 478.506 68.9418 478.67 68.8254 478.998 68.1 C 479.217 67.6147 479.327 66.928 479.546 66.5867 C 480.105 65.7173 480.385 66.2406 480.944 65.0733 C 480.964 65.0299 480.975 63.6091 480.996 63.56 C 481.488 62.3984 481.734 63.2135 482.225 62.0467 C 482.244 62.0028 482.253 61.1387 482.272 60.5333 C 482.29 59.928 482.299 59.6253 482.318 59.02 C 482.336 58.4147 482.346 57.8406 482.364 57.5067 C 482.413 56.63 482.437 56.7197 482.485 55.9933 C 482.518 55.5091 482.534 55.3275 482.566 54.48 C 482.58 54.1168 482.587 53.6931 482.601 52.9667 C 482.61 52.4824 482.615 52.0587 482.624 51.4533 C 482.633 50.848 482.638 50.6318 482.647 49.94 C 482.654 49.4211 482.657 49.032 482.664 48.4267 C 482.671 47.8213 482.675 47.4322 482.682 46.9133 C 482.691 46.2215 482.696 45.9381 482.705 45.4 C 482.716 44.7274 482.722 43.9571 482.734 43.8867 C 482.921 42.7464 483.014 43.5408 483.201 42.3733 C 483.208 42.3301 483.212 41.2232 483.219 40.86 C 483.235 40.0125 483.243 39.9116 483.259 39.3467 C 483.278 38.701 483.287 37.9544 483.305 37.8333 C 483.472 36.7437 483.555 37.1347 483.721 36.32 C 483.802 35.924 483.842 35.8402 483.923 34.8067 C 483.937 34.6295 483.944 33.3344 483.958 33.2933 C 484.353 32.1237 484.55 32.3041 484.945 31.78 C 485.463 31.0934 485.721 31.2422 486.239 30.2667 C 486.363 30.0315 486.426 29.0452 486.55 28.7533 C 486.943 27.8345 487.139 27.6864 487.532 27.24 C 488.204 26.4758 488.54 26.3447 489.212 25.7267 C 489.857 25.1341 490.179 24.9898 490.823 24.2133 C 491.184 23.7792 491.364 23.2203 491.724 22.7 C 492.202 22.0096 492.441 21.7537 492.92 21.1867 C 493.462 20.543 493.734 20.3954 494.276 19.6733 C 494.644 19.1848 494.827 18.2313 495.195 18.16 C 501.064 17.0206 503.998 17.7748 509.867 16.6467 C 510.297 16.5641 510.941 15.1333 510.941 15.1333"  /></g><g class="highcharts-markers" visibility="visible" clip-path="none" transform="translate(74 72) scale(1)"  /></g><text class="highcharts-title" style="width: 536px; color: rgb(51, 51, 51); font-size: 18px; fill: #333333;" text-anchor="middle" x="300" y="25" ><tspan>Questions Correct Over Time</tspan></text><text class="highcharts-subtitle" style="width: 536px; color: rgb(85, 85, 85); fill: #555555;" text-anchor="middle" x="300" y="53" ><tspan>Click and drag in the plot area to zoom in</tspan></text><g class="highcharts-legend" transform="translate(255 364)" ><g ><g><g class="highcharts-legend-item" transform="translate(8 3)" ><path fill="none" stroke="#9ab2d6" stroke-width="2" d="M 0 11 L 16 11" /><path fill="#9ab2d6" d="M 8 7 C 13.328 7 13.328 15 8 15 C 2.672 15 2.672 7 8 7 Z" /><text style="color: rgb(51, 51, 51); font-size: 12px; font-weight: bold; cursor: pointer; fill: #333333;" text-anchor="start" x="21" y="15" >Questions</text></g></g></g></g><g class="highcharts-axis-labels highcharts-xaxis-labels" ><text style="color: rgb(96, 96, 96); font-size: 11px; cursor: default; fill: #606060;" opacity="1" text-anchor="middle" x="75.5654" y="319"><tspan>12:00 AM</tspan></text><text style="color: rgb(96, 96, 96); font-size: 11px; cursor: default; fill: #606060;" opacity="1" text-anchor="middle" x="158.7156" y="319"><tspan>04:00 AM</tspan></text><text style="color: rgb(96, 96, 96); font-size: 11px; cursor: default; fill: #606060;" opacity="1" text-anchor="middle" x="241.8658" y="319"><tspan>08:00 AM</tspan></text><text style="color: rgb(96, 96, 96); font-size: 11px; cursor: default; fill: #606060;" opacity="1" text-anchor="middle" x="325.016" y="319"><tspan>12:00 PM</tspan></text><text style="color: rgb(96, 96, 96); font-size: 11px; cursor: default; fill: #606060;" opacity="1" text-anchor="middle" x="408.1662" y="319"><tspan>04:00 PM</tspan></text><text style="color: rgb(96, 96, 96); font-size: 11px; cursor: default; fill: #606060;" opacity="1" text-anchor="middle" x="491.3164" y="319"><tspan>08:00 PM</tspan></text><text style="color: rgb(96, 96, 96); font-size: 11px; cursor: default; fill: #606060;" opacity="1" text-anchor="middle" x="574.07" y="319"><tspan>12:00 AM</tspan></text></g><g class="highcharts-axis-labels highcharts-yaxis-labels" ><text style="width: 178px; color: rgb(96, 96, 96); font-size: 11px; cursor: default; fill: #606060;" opacity="1" text-anchor="end" x="59" y="304">0</text><text style="width: 178px; color: rgb(96, 96, 96); font-size: 11px; cursor: default; fill: #606060;" opacity="1" text-anchor="end" x="59" y="228.3333">50</text><text style="width: 178px; color: rgb(96, 96, 96); font-size: 11px; cursor: default; fill: #606060;" opacity="1" text-anchor="end" x="59" y="152.6667">100</text><text style="width: 178px; color: rgb(96, 96, 96); font-size: 11px; cursor: default; fill: #606060;" opacity="1" text-anchor="end" x="59" y="77">150</text></g><g class="highcharts-tooltip" style="padding: 0px; white-space: nowrap; cursor: default;" transform="translate(0 -9999)" ><path fill="none" stroke="black" stroke-opacity="0.05" stroke-width="5" transform="translate(1 1)" d="M 3 0 L 13 0 C 16 0 16 0 16 3 L 16 13 C 16 16 16 16 13 16 L 3 16 C 0 16 0 16 0 13 L 0 3 C 0 0 0 0 3 0"  /><path fill="none" stroke="black" stroke-opacity="0.1" stroke-width="3" transform="translate(1 1)" d="M 3 0 L 13 0 C 16 0 16 0 16 3 L 16 13 C 16 16 16 16 13 16 L 3 16 C 0 16 0 16 0 13 L 0 3 C 0 0 0 0 3 0"  /><path fill="none" stroke="black" stroke-opacity="0.15" stroke-width="1" transform="translate(1 1)" d="M 3 0 L 13 0 C 16 0 16 0 16 3 L 16 13 C 16 16 16 16 13 16 L 3 16 C 0 16 0 16 0 13 L 0 3 C 0 0 0 0 3 0"  /><path fill="rgb(249, 249, 249)" fill-opacity=" 0.85" d="M 3 0 L 13 0 C 16 0 16 0 16 3 L 16 13 C 16 16 16 16 13 16 L 3 16 C 0 16 0 16 0 13 L 0 3 C 0 0 0 0 3 0" /><text style="color: rgb(51, 51, 51); font-size: 12px; fill: #333333;" x="8" y="21" ></text></g><text style="color: rgb(144, 144, 144); font-size: 9px; cursor: pointer; fill: #909090;" text-anchor="end" x="590" y="395" >Highcharts.com</text></svg>