<svg xmlns:xlink="http://www.w3.org/1999/xlink" xmlns="http://www.w3.org/2000/svg" style="font-family: 'lucida grande', 'lucida sans unicode', arial, helvetica, sans-serif; font-size: 12px;" width="600" height="400" version="1.1"><desc>Created with Highcharts 4.0.4</desc><defs><clipPath id="highcharts-155"><rect x="0" y="0" width="516" height="227" /></clipPath></defs><rect class=" highcharts-background" fill="#ffffff" x="0" y="0" width="600" height="400" strokeWidth="0" /><g class="highcharts-grid"  /><g class="highcharts-grid" ><path opacity="1" fill="none" stroke="#c0c0c0" stroke-width="1" d="M 74 71.5 L 590 71.5"  /><path opacity="1" fill="none" stroke="#c0c0c0" stroke-width="1" d="M 74 129.5 L 590 129.5"  /><path opacity="1" fill="none" stroke="#c0c0c0" stroke-width="1" d="M 74 186.5 L 590 186.5"  /><path opacity="1" fill="none" stroke="#c0c0c0" stroke-width="1" d="M 74 242.5 L 590 242.5"  /><path opacity="1" fill="none" stroke="#c0c0c0" stroke-width="1" d="M 74 299.5 L 590 299.5"  /></g><g class="highcharts-axis" ><path opacity="1" fill="none" stroke="#c0d0e0" stroke-width="1" d="M 196.5 299 L 196.5 309" /><path opacity="1" fill="none" stroke="#c0d0e0" stroke-width="1" d="M 295.5 299 L 295.5 309" /><path opacity="1" fill="none" stroke="#c0d0e0" stroke-width="1" d="M 394.5 299 L 394.5 309" /><path opacity="1" fill="none" stroke="#c0d0e0" stroke-width="1" d="M 493.5 299 L 493.5 309" /><path opacity="1" fill="none" stroke="#c0d0e0" stroke-width="1" d="M 97.5 299 L 97.5 309" /><text class=" highcharts-xaxis-title" visibility="visible" style="color: rgb(112, 112, 112); fill: #707070;" text-anchor="middle" transform="translate(0)" x="332" y="338" >Time</text><path visibility="visible" fill="none" stroke="#c0d0e0" stroke-width="1" d="M 74 299.5 L 590 299.5"  /></g><g class="highcharts-axis" ><text class=" highcharts-yaxis-title" visibility="visible" style="color: rgb(112, 112, 112); fill: #707070;" text-anchor="middle" transform="translate(0) rotate(270 28.12 185.5)" x="28.12" y="185.5" ><tspan>Questions Correct</tspan></text></g><g class="highcharts-series-group" ><g class="highcharts-series" visibility="visible" clip-path="url(#highcharts-155)" transform="translate(74 72) scale(1)" ><path fill="none" stroke="#9ab2d6" stroke-linecap="round" stroke-linejoin="round" stroke-width="2" d="M 5.05882 226.432 C 5.05882 226.432 5.38839 226.092 5.6081 225.865 C 5.82781 225.638 5.93766 225.525 6.15737 225.298 C 6.37708 225.07 6.48694 224.982 6.70665 224.73 C 6.88242 224.528 6.9703 224.389 7.14607 224.163 C 7.32184 223.936 7.40972 223.797 7.58549 223.595 C 7.8052 223.343 7.91505 223.28 8.13476 223.027 C 8.31053 222.826 8.39842 222.662 8.57418 222.46 C 8.79389 222.208 8.90375 222.12 9.12346 221.893 C 9.34317 221.665 9.45302 221.609 9.67273 221.325 C 9.80456 221.155 9.87047 220.928 10.0023 220.758 C 10.222 220.474 10.3319 220.379 10.5516 220.19 C 10.8592 219.925 11.013 219.867 11.3206 219.622 C 11.5842 219.413 11.716 219.327 11.9797 219.055 C 12.1555 218.873 12.2433 218.689 12.4191 218.488 C 12.6388 218.235 12.7487 218.039 12.9684 217.92 C 13.5836 217.585 13.8912 217.67 14.5064 217.352 C 14.77 217.216 14.9018 216.967 15.1655 216.785 C 15.561 216.513 15.7587 216.532 16.1542 216.217 C 16.3299 216.078 16.4178 215.877 16.5936 215.65 C 16.7694 215.423 16.8573 215.309 17.033 215.083 C 17.2088 214.855 17.2967 214.742 17.4724 214.515 C 17.6482 214.288 17.7361 214.207 17.9119 213.947 C 18.0437 213.753 18.1096 213.504 18.2414 213.38 C 18.593 213.05 18.7687 213.092 19.1203 212.813 C 19.34 212.638 19.4498 212.497 19.6695 212.245 C 19.8453 212.043 19.9332 211.843 20.109 211.678 C 20.4166 211.389 20.5704 211.399 20.8779 211.11 C 21.0537 210.945 21.1416 210.724 21.3174 210.542 C 21.581 210.27 21.7128 210.223 21.9765 209.975 C 22.1962 209.769 22.3061 209.635 22.5258 209.408 C 22.7455 209.18 22.8553 209.124 23.075 208.84 C 23.2069 208.67 23.2728 208.304 23.4046 208.273 C 25.1623 207.85 26.0411 207.961 27.7988 207.705 C 29.161 207.507 29.8421 207.54 31.2043 207.137 C 31.3801 207.086 31.468 206.829 31.6437 206.57 C 31.7756 206.375 31.8415 206.197 31.9733 206.003 C 32.1491 205.743 32.237 205.694 32.4127 205.435 C 32.5445 205.24 32.6105 205.062 32.7423 204.867 C 32.9181 204.608 33.0059 204.502 33.1817 204.3 C 33.4014 204.048 33.5113 204.016 33.731 203.732 C 33.8628 203.562 33.9287 203.335 34.0605 203.165 C 34.2803 202.881 34.3901 202.824 34.6098 202.598 C 34.8295 202.37 34.9394 202.156 35.1591 202.03 C 35.7303 201.702 36.016 201.773 36.5872 201.462 C 36.8509 201.319 36.9827 201.143 37.2463 200.895 C 37.4661 200.689 37.5759 200.611 37.7956 200.327 C 37.9274 200.157 37.9934 199.955 38.1252 199.76 C 38.301 199.501 38.3888 199.419 38.5646 199.193 C 38.7404 198.965 38.8283 198.884 39.004 198.625 C 39.1358 198.43 39.2018 198.228 39.3336 198.057 C 39.5533 197.774 39.6632 197.814 39.8829 197.49 C 39.9707 197.36 40.0147 197.052 40.1026 196.923 C 40.3223 196.598 40.4321 196.639 40.6518 196.355 C 40.7837 196.185 40.8496 195.819 40.9814 195.788 C 42.7391 195.365 43.6179 195.624 45.3756 195.22 C 45.5953 195.17 45.7052 194.88 45.9249 194.652 C 46.1446 194.426 46.2545 194.337 46.4742 194.085 C 46.6499 193.883 46.7378 193.719 46.9136 193.518 C 47.1333 193.265 47.2431 193.139 47.4629 192.95 C 47.7705 192.685 47.9243 192.7 48.2318 192.383 C 48.3637 192.246 48.4296 191.985 48.5614 191.815 C 48.7811 191.531 48.891 191.5 49.1107 191.247 C 49.2865 191.046 49.3743 190.907 49.5501 190.68 C 49.7259 190.453 49.8138 190.339 49.9895 190.113 C 50.1653 189.885 50.2532 189.772 50.4289 189.545 C 50.6047 189.318 50.6926 189.204 50.8684 188.977 C 51.0441 188.751 51.132 188.713 51.3078 188.41 C 51.3957 188.259 51.4396 188.024 51.5275 187.842 C 51.6593 187.57 51.7252 187.445 51.8571 187.275 C 52.0768 186.991 52.1866 187.032 52.4063 186.708 C 52.4942 186.578 52.5382 186.168 52.626 186.14 C 53.9443 185.714 54.6034 185.962 55.9217 185.572 C 56.1414 185.508 56.2513 185.257 56.471 185.005 C 56.6467 184.803 56.7346 184.697 56.9104 184.438 C 57.0422 184.243 57.1081 184.04 57.24 183.87 C 57.4597 183.586 57.5695 183.509 57.7892 183.303 C 58.0529 183.055 58.1847 183.007 58.4484 182.735 C 58.6241 182.553 58.712 182.369 58.8878 182.167 C 59.1075 181.915 59.2173 181.66 59.4371 181.6 C 60.8871 181.206 61.6122 181.437 63.0623 181.033 C 63.238 180.983 63.3259 180.692 63.5017 180.465 C 63.6775 180.238 63.7653 180.2 63.9411 179.898 C 64.029 179.746 64.0729 179.481 64.1608 179.33 C 64.3366 179.027 64.4245 178.944 64.6002 178.762 C 64.8639 178.49 64.9957 178.498 65.2594 178.195 C 65.3912 178.044 65.4571 177.628 65.5889 177.628 C 65.8526 177.628 65.9844 177.628 66.2481 177.628 C 66.4238 177.628 66.5117 177.262 66.6875 177.06 C 66.9072 176.808 67.0171 176.644 67.2368 176.492 C 67.6762 176.19 67.8959 176.192 68.3353 175.925 C 68.6429 175.738 68.7967 175.646 69.1043 175.357 C 69.2801 175.192 69.368 174.972 69.5437 174.79 C 69.8074 174.518 69.9392 174.495 70.2029 174.223 C 70.3786 174.041 70.4665 173.882 70.6423 173.655 C 70.818 173.428 70.9059 173.101 71.0817 173.087 C 76.926 172.647 79.8481 172.939 85.6924 172.52 C 86.1758 172.485 86.4174 172.202 86.9008 171.952 C 87.2963 171.748 87.494 171.402 87.8895 171.385 C 97.9083 170.948 102.918 171.266 112.936 170.818 C 113.068 170.812 113.134 170.445 113.266 170.25 C 113.442 169.991 113.53 169.942 113.705 169.682 C 113.837 169.488 113.903 169.31 114.035 169.115 C 114.211 168.856 114.299 168.775 114.474 168.548 C 114.65 168.32 114.738 168.239 114.914 167.98 C 115.046 167.785 115.112 167.583 115.243 167.413 C 115.463 167.129 115.573 166.899 115.793 166.845 C 117.419 166.445 118.231 166.697 119.857 166.277 C 119.989 166.243 120.055 165.905 120.187 165.71 C 120.363 165.451 120.451 165.344 120.626 165.143 C 120.846 164.89 120.956 164.625 121.176 164.575 C 122.933 164.171 123.812 164.42 125.57 164.008 C 125.746 163.966 125.833 163.591 126.009 163.44 C 126.361 163.137 126.536 163.064 126.888 162.872 C 127.371 162.61 127.613 162.555 128.096 162.305 C 128.492 162.101 128.69 162.01 129.085 161.738 C 129.349 161.556 129.481 161.397 129.744 161.17 C 130.008 160.943 130.14 160.829 130.403 160.602 C 130.667 160.376 130.799 160.307 131.063 160.035 C 131.238 159.853 131.326 159.649 131.502 159.467 C 131.766 159.195 131.897 159.148 132.161 158.9 C 132.381 158.694 132.491 158.333 132.71 158.333 C 133.018 158.333 133.172 158.333 133.479 158.333 C 133.655 158.333 133.743 157.872 133.919 157.765 C 134.49 157.418 134.776 157.401 135.347 157.197 C 136.05 156.947 136.401 156.821 137.105 156.63 C 138.071 156.367 138.555 156.447 139.521 156.063 C 139.697 155.993 139.785 155.722 139.961 155.495 C 140.137 155.268 140.224 155.187 140.4 154.928 C 140.532 154.733 140.598 154.555 140.73 154.36 C 140.906 154.101 140.993 153.816 141.169 153.792 C 144.333 153.362 145.915 153.655 149.079 153.225 C 149.255 153.201 149.342 152.725 149.518 152.658 C 150.529 152.271 151.034 152.463 152.045 152.09 C 152.265 152.009 152.374 151.806 152.594 151.523 C 152.726 151.352 152.792 151.182 152.924 150.955 C 153.055 150.728 153.121 150.444 153.253 150.387 C 154.176 149.99 154.637 150.187 155.56 149.82 C 155.78 149.733 155.89 149.459 156.109 149.253 C 156.373 149.005 156.505 148.933 156.769 148.685 C 156.988 148.479 157.098 148.221 157.318 148.117 C 158.065 147.767 158.438 147.901 159.185 147.55 C 159.405 147.447 159.515 147.21 159.735 146.982 C 159.954 146.755 160.064 146.642 160.284 146.415 C 160.504 146.188 160.614 146.074 160.833 145.848 C 161.053 145.62 161.163 145.507 161.383 145.28 C 161.602 145.053 161.712 144.965 161.932 144.712 C 162.108 144.511 162.195 144.185 162.371 144.145 C 164.173 143.731 165.074 143.95 166.875 143.577 C 167.271 143.496 167.468 143.302 167.864 143.01 C 168.084 142.848 168.194 142.695 168.413 142.443 C 168.589 142.241 168.677 141.996 168.853 141.875 C 169.336 141.542 169.578 141.57 170.061 141.307 C 170.413 141.116 170.588 140.752 170.94 140.74 C 183.947 140.298 190.45 140.62 203.457 140.173 C 203.633 140.166 203.721 139.609 203.896 139.605 C 225.955 139.155 236.985 139.486 259.044 139.038 C 259.307 139.032 259.439 138.68 259.703 138.47 C 260.01 138.226 260.164 138.191 260.472 137.902 C 260.647 137.737 260.735 137.456 260.911 137.335 C 261.395 137.002 261.636 137.1 262.12 136.768 C 262.295 136.646 262.383 136.276 262.559 136.2 C 263.438 135.822 263.877 135.982 264.756 135.633 C 265.02 135.528 265.152 135.292 265.415 135.065 C 265.679 134.838 265.811 134.745 266.074 134.497 C 266.294 134.291 266.404 134.157 266.624 133.93 C 266.843 133.703 266.953 133.615 267.173 133.363 C 267.349 133.161 267.437 133.054 267.612 132.795 C 267.744 132.6 267.81 132.379 267.942 132.227 C 268.206 131.925 268.337 131.963 268.601 131.66 C 268.733 131.509 268.799 131.244 268.931 131.092 C 269.194 130.79 269.326 130.797 269.59 130.525 C 269.765 130.343 269.853 130.217 270.029 129.958 C 270.161 129.763 270.227 129.541 270.359 129.39 C 270.622 129.087 270.754 129.049 271.018 128.822 C 271.281 128.596 271.413 128.558 271.677 128.255 C 271.809 128.104 271.875 127.858 272.007 127.688 C 272.226 127.404 272.336 127.207 272.556 127.12 C 273.479 126.753 273.94 126.803 274.863 126.552 C 275.61 126.349 275.983 126.371 276.73 125.985 C 276.862 125.917 276.928 125.645 277.06 125.418 C 277.192 125.19 277.258 124.915 277.389 124.85 C 278.18 124.461 278.576 124.638 279.367 124.283 C 279.587 124.184 279.696 123.967 279.916 123.715 C 280.092 123.513 280.18 123.329 280.355 123.147 C 280.619 122.875 280.751 122.883 281.015 122.58 C 281.146 122.429 281.212 122.207 281.344 122.012 C 281.52 121.753 281.608 121.672 281.784 121.445 C 281.959 121.218 282.047 121.043 282.223 120.878 C 282.531 120.589 282.684 120.537 282.992 120.31 C 283.3 120.083 283.453 120.007 283.761 119.743 C 283.981 119.553 284.091 119.381 284.31 119.175 C 284.574 118.927 284.706 118.855 284.969 118.607 C 285.189 118.401 285.299 118.267 285.519 118.04 C 285.738 117.813 285.848 117.756 286.068 117.473 C 286.2 117.302 286.266 117.1 286.398 116.905 C 286.573 116.646 286.661 116.564 286.837 116.338 C 287.013 116.11 287.101 115.997 287.276 115.77 C 287.452 115.543 287.54 115.462 287.716 115.202 C 287.848 115.008 287.914 114.862 288.045 114.635 C 288.177 114.408 288.243 114.262 288.375 114.067 C 288.551 113.808 288.639 113.759 288.814 113.5 C 288.946 113.305 289.012 113.103 289.144 112.933 C 289.364 112.649 289.473 112.571 289.693 112.365 C 289.957 112.117 290.089 112.024 290.352 111.798 C 290.616 111.571 290.748 111.533 291.011 111.23 C 291.143 111.079 291.209 110.89 291.341 110.662 C 291.473 110.436 291.539 110.139 291.671 110.095 C 292.901 109.685 293.516 109.925 294.746 109.527 C 294.922 109.471 295.01 109.187 295.186 108.96 C 295.362 108.733 295.45 108.619 295.625 108.393 C 295.801 108.165 295.889 108.128 296.065 107.825 C 296.153 107.674 296.197 107.266 296.284 107.257 C 300.898 106.812 303.205 107.112 307.819 106.69 C 308.171 106.658 308.347 106.425 308.698 106.122 C 308.874 105.971 308.962 105.72 309.138 105.555 C 309.445 105.266 309.599 105.252 309.906 104.988 C 310.126 104.798 310.236 104.704 310.456 104.42 C 310.588 104.25 310.654 104.047 310.785 103.853 C 310.961 103.593 311.049 103.544 311.225 103.285 C 311.357 103.09 311.422 102.808 311.554 102.717 C 312.082 102.354 312.345 102.332 312.873 102.15 C 313.664 101.878 314.059 101.753 314.85 101.582 C 316.168 101.299 316.827 101.416 318.146 101.015 C 318.321 100.962 318.409 100.629 318.585 100.448 C 318.849 100.175 318.981 100.05 319.244 99.88 C 319.684 99.5963 319.903 99.6617 320.343 99.3125 C 320.475 99.2077 320.54 98.9396 320.672 98.745 C 320.848 98.4856 320.936 98.2448 321.112 98.1775 C 322.122 97.7908 322.628 97.9967 323.638 97.61 C 323.814 97.5427 323.902 97.3019 324.078 97.0425 C 324.21 96.8479 324.276 96.5236 324.407 96.475 C 325.506 96.0696 326.055 96.2858 327.154 95.9075 C 327.373 95.8318 327.483 95.3883 327.703 95.34 C 329.549 94.9343 330.471 95.0337 332.317 94.7725 C 333.679 94.5797 334.36 94.5568 335.722 94.205 C 336.118 94.1029 336.316 93.9518 336.711 93.6375 C 336.887 93.4978 336.975 93.2718 337.151 93.07 C 337.37 92.8178 337.48 92.7547 337.7 92.5025 C 337.876 92.3007 337.963 92.162 338.139 91.935 C 338.315 91.708 338.403 91.4373 338.579 91.3675 C 339.545 90.9833 340.029 91.1444 340.995 90.8 C 341.303 90.6904 341.457 90.477 341.764 90.2325 C 342.028 90.023 342.16 89.8596 342.424 89.665 C 342.775 89.4056 342.951 89.3396 343.302 89.0975 C 343.61 88.8856 343.764 88.6208 344.071 88.53 C 345.302 88.1668 345.917 88.1522 347.147 87.9625 C 348.861 87.6982 349.718 87.7003 351.432 87.395 C 352.267 87.2463 352.684 87.115 353.519 86.8275 C 354.002 86.661 354.244 86.6167 354.727 86.26 C 354.859 86.1627 354.925 85.8871 355.057 85.6925 C 355.233 85.4331 355.321 85.3268 355.496 85.125 C 355.716 84.8728 355.826 84.7467 356.046 84.5575 C 356.353 84.2927 356.507 84.2548 356.815 83.99 C 357.034 83.8008 357.144 83.6289 357.364 83.4225 C 357.628 83.1749 357.759 83.0496 358.023 82.855 C 358.375 82.5956 358.55 82.5669 358.902 82.2875 C 359.122 82.1129 359.231 81.947 359.451 81.72 C 359.671 81.493 359.781 81.3795 360 81.1525 C 360.22 80.9255 360.33 80.6432 360.55 80.585 C 362.044 80.1892 362.791 80.2479 364.285 80.0175 C 365.735 79.7939 366.46 79.8067 367.91 79.45 C 368.305 79.3527 368.503 79.1549 368.899 78.8825 C 369.162 78.7009 369.294 78.3951 369.558 78.315 C 370.788 77.9411 371.403 77.9007 372.634 77.7475 C 375.051 77.4467 376.259 77.4456 378.676 77.18 C 380.389 76.9916 381.246 76.9814 382.96 76.6125 C 383.356 76.5274 383.553 76.1812 383.949 76.045 C 384.872 75.7272 385.333 75.8306 386.256 75.4775 C 386.519 75.3766 386.651 74.9668 386.915 74.91 C 388.76 74.5127 389.683 74.757 391.529 74.3425 C 391.705 74.303 391.792 73.9566 391.968 73.775 C 392.232 73.5026 392.364 73.3891 392.627 73.2075 C 393.023 72.9351 393.221 72.9124 393.616 72.64 C 393.88 72.4584 394.012 72.3449 394.275 72.0725 C 394.451 71.8909 394.539 71.7644 394.715 71.505 C 394.846 71.3104 394.912 71.0613 395.044 70.9375 C 395.396 70.6073 395.571 70.4911 395.923 70.37 C 396.89 70.0371 397.373 70.2187 398.34 69.8025 C 398.428 69.7647 398.472 69.3863 398.56 69.235 C 398.735 68.9323 398.823 68.7209 398.999 68.6675 C 400.317 68.2669 400.976 68.4681 402.295 68.1 C 402.602 68.0141 402.756 67.8214 403.064 67.5325 C 403.239 67.3674 403.327 67.0054 403.503 66.965 C 405.305 66.5514 406.205 66.6977 408.007 66.3975 C 408.93 66.2437 409.391 66.1967 410.314 65.83 C 410.534 65.7427 410.644 65.4138 410.863 65.2625 C 411.303 64.9598 411.522 64.9977 411.962 64.695 C 412.182 64.5437 412.291 64.3797 412.511 64.1275 C 412.687 63.9257 412.775 63.787 412.951 63.56 C 413.126 63.333 413.214 63.2519 413.39 62.9925 C 413.522 62.7979 413.588 62.5763 413.719 62.425 C 413.983 62.1223 414.115 62.1602 414.379 61.8575 C 414.51 61.7062 414.576 61.5624 414.708 61.29 C 414.796 61.1084 414.84 60.9041 414.928 60.7225 C 415.06 60.4501 415.126 60.2118 415.257 60.155 C 416.18 59.7578 416.642 59.7782 417.564 59.5875 C 418.839 59.3242 419.476 59.3758 420.75 59.02 C 421.102 58.9218 421.278 58.7552 421.629 58.4525 C 421.805 58.3012 421.893 58.0147 422.068 57.885 C 422.508 57.5607 422.728 57.6667 423.167 57.3175 C 423.299 57.2127 423.365 56.977 423.497 56.75 C 423.628 56.523 423.694 56.4095 423.826 56.1825 C 423.958 55.9555 424.024 55.8096 424.156 55.615 C 424.331 55.3556 424.419 55.3069 424.595 55.0475 C 424.727 54.8529 424.793 54.6746 424.925 54.48 C 425.1 54.2206 425.188 54.1143 425.364 53.9125 C 425.584 53.6603 425.694 53.4531 425.913 53.345 C 426.616 52.9991 426.968 53.1407 427.671 52.7775 C 427.847 52.6867 427.935 52.3397 428.111 52.21 C 428.55 51.8857 428.77 51.9452 429.209 51.6425 C 429.429 51.4912 429.539 51.2642 429.758 51.075 C 430.066 50.8102 430.22 50.5983 430.527 50.5075 C 431.758 50.1443 432.373 50.2931 433.603 49.94 C 433.955 49.8391 434.131 49.4025 434.482 49.3725 C 439.448 48.9485 441.93 49.1613 446.896 48.805 C 448.258 48.7073 448.939 48.4574 450.301 48.2375 C 451.751 48.0034 452.476 47.9005 453.926 47.67 C 455.333 47.4465 456.036 47.4404 457.442 47.1025 C 457.925 46.9864 458.167 46.8471 458.65 46.535 C 458.87 46.3931 458.98 45.9811 459.199 45.9675 C 466.318 45.5271 469.877 45.8431 476.996 45.4 C 477.172 45.3891 477.26 45.0141 477.435 44.8325 C 477.699 44.5601 477.831 44.4163 478.095 44.265 C 478.622 43.9623 478.885 44.0002 479.413 43.6975 C 479.676 43.5462 479.808 43.3776 480.072 43.13 C 480.292 42.9236 480.401 42.7895 480.621 42.5625 C 480.841 42.3355 480.951 42.1211 481.17 41.995 C 481.742 41.6671 482.027 41.7747 482.599 41.4275 C 482.774 41.3207 482.862 41.0618 483.038 40.86 C 483.258 40.6078 483.368 40.3957 483.587 40.2925 C 484.334 39.9417 484.708 40.0337 485.455 39.725 C 485.806 39.5797 485.982 39.3996 486.334 39.1575 C 486.641 38.9456 486.795 38.8789 487.103 38.59 C 487.278 38.4249 487.366 38.2041 487.542 38.0225 C 487.806 37.7501 487.938 37.6366 488.201 37.455 C 488.597 37.1826 488.794 37.0578 489.19 36.8875 C 489.849 36.6037 490.179 36.6605 490.838 36.32 C 491.057 36.2065 491.167 35.9271 491.387 35.7525 C 491.739 35.4731 491.914 35.3986 492.266 35.185 C 492.661 34.9446 492.859 34.9318 493.255 34.6175 C 493.43 34.4778 493.518 34.1034 493.694 34.05 C 495.012 33.6494 495.671 33.692 496.99 33.4825 C 498.528 33.238 499.297 33.3122 500.835 32.915 C 501.054 32.8582 501.164 32.5745 501.384 32.3475 C 501.603 32.1205 501.713 32.0638 501.933 31.78 C 502.065 31.6098 502.131 31.2503 502.263 31.2125 C 503.713 30.7963 504.438 30.9934 505.888 30.645 C 506.327 30.5394 506.547 30.4018 506.986 30.0775 C 507.162 29.9478 507.25 29.737 507.426 29.51 C 507.602 29.283 507.689 29.0938 507.865 28.9425 C 508.217 28.6398 508.393 28.6544 508.744 28.375 C 508.964 28.2004 509.074 28.0597 509.293 27.8075 C 509.469 27.6057 509.557 27.4418 509.733 27.24 C 509.952 26.9878 510.062 26.9968 510.282 26.6725 C 510.37 26.5428 510.414 26.2563 510.502 26.105 C 510.678 25.8023 510.941 25.5375 510.941 25.5375"  /></g><g class="highcharts-markers" visibility="visible" clip-path="none" transform="translate(74 72) scale(1)"  /></g><text class="highcharts-title" style="width: 536px; color: rgb(51, 51, 51); font-size: 18px; fill: #333333;" text-anchor="middle" x="300" y="25" ><tspan>Questions Correct Over Time</tspan></text><text class="highcharts-subtitle" style="width: 536px; color: rgb(85, 85, 85); fill: #555555;" text-anchor="middle" x="300" y="53" ><tspan>Click and drag in the plot area to zoom in</tspan></text><g class="highcharts-legend" transform="translate(255 364)" ><g ><g><g class="highcharts-legend-item" transform="translate(8 3)" ><path fill="none" stroke="#9ab2d6" stroke-width="2" d="M 0 11 L 16 11" /><path fill="#9ab2d6" d="M 8 7 C 13.328 7 13.328 15 8 15 C 2.672 15 2.672 7 8 7 Z" /><text style="color: rgb(51, 51, 51); font-size: 12px; font-weight: bold; cursor: pointer; fill: #333333;" text-anchor="start" x="21" y="15" >Questions</text></g></g></g></g><g class="highcharts-axis-labels highcharts-xaxis-labels" ><text style="color: rgb(96, 96, 96); font-size: 11px; cursor: default; fill: #606060;" opacity="1" text-anchor="middle" x="98.3933" y="319"><tspan>01:30 PM</tspan></text><text style="color: rgb(96, 96, 96); font-size: 11px; cursor: default; fill: #606060;" opacity="1" text-anchor="middle" x="197.2628" y="319"><tspan>01:45 PM</tspan></text><text style="color: rgb(96, 96, 96); font-size: 11px; cursor: default; fill: #606060;" opacity="1" text-anchor="middle" x="296.1323" y="319"><tspan>02:00 PM</tspan></text><text style="color: rgb(96, 96, 96); font-size: 11px; cursor: default; fill: #606060;" opacity="1" text-anchor="middle" x="395.0019" y="319"><tspan>02:15 PM</tspan></text><text style="color: rgb(96, 96, 96); font-size: 11px; cursor: default; fill: #606060;" opacity="1" text-anchor="middle" x="493.8714" y="319"><tspan>02:30 PM</tspan></text></g><g class="highcharts-axis-labels highcharts-yaxis-labels" ><text style="width: 178px; color: rgb(96, 96, 96); font-size: 11px; cursor: default; fill: #606060;" opacity="1" text-anchor="end" x="59" y="304">0</text><text style="width: 178px; color: rgb(96, 96, 96); font-size: 11px; cursor: default; fill: #606060;" opacity="1" text-anchor="end" x="59" y="247.25">100</text><text style="width: 178px; color: rgb(96, 96, 96); font-size: 11px; cursor: default; fill: #606060;" opacity="1" text-anchor="end" x="59" y="190.5">200</text><text style="width: 178px; color: rgb(96, 96, 96); font-size: 11px; cursor: default; fill: #606060;" opacity="1" text-anchor="end" x="59" y="133.75">300</text><text style="width: 178px; color: rgb(96, 96, 96); font-size: 11px; cursor: default; fill: #606060;" opacity="1" text-anchor="end" x="59" y="77">400</text></g><g class="highcharts-tooltip" style="padding: 0px; white-space: nowrap; cursor: default;" transform="translate(0 -9999)" ><path fill="none" stroke="black" stroke-opacity="0.05" stroke-width="5" transform="translate(1 1)" d="M 3 0 L 13 0 C 16 0 16 0 16 3 L 16 13 C 16 16 16 16 13 16 L 3 16 C 0 16 0 16 0 13 L 0 3 C 0 0 0 0 3 0"  /><path fill="none" stroke="black" stroke-opacity="0.1" stroke-width="3" transform="translate(1 1)" d="M 3 0 L 13 0 C 16 0 16 0 16 3 L 16 13 C 16 16 16 16 13 16 L 3 16 C 0 16 0 16 0 13 L 0 3 C 0 0 0 0 3 0"  /><path fill="none" stroke="black" stroke-opacity="0.15" stroke-width="1" transform="translate(1 1)" d="M 3 0 L 13 0 C 16 0 16 0 16 3 L 16 13 C 16 16 16 16 13 16 L 3 16 C 0 16 0 16 0 13 L 0 3 C 0 0 0 0 3 0"  /><path fill="rgb(249, 249, 249)" fill-opacity=" 0.85" d="M 3 0 L 13 0 C 16 0 16 0 16 3 L 16 13 C 16 16 16 16 13 16 L 3 16 C 0 16 0 16 0 13 L 0 3 C 0 0 0 0 3 0" /><text style="color: rgb(51, 51, 51); font-size: 12px; fill: #333333;" x="8" y="21" ></text></g><text style="color: rgb(144, 144, 144); font-size: 9px; cursor: pointer; fill: #909090;" text-anchor="end" x="590" y="395" >Highcharts.com</text></svg>