<svg xmlns:xlink="http://www.w3.org/1999/xlink" xmlns="http://www.w3.org/2000/svg" style="font-family: 'lucida grande', 'lucida sans unicode', arial, helvetica, sans-serif; font-size: 12px;" width="600" height="400" version="1.1"><desc>Created with Highcharts 4.0.4</desc><defs><clipPath id="highcharts-95"><rect x="0" y="0" width="516" height="227" /></clipPath></defs><rect class=" highcharts-background" fill="#ffffff" x="0" y="0" width="600" height="400" strokeWidth="0" /><g class="highcharts-grid"  /><g class="highcharts-grid" ><path opacity="1" fill="none" stroke="#c0c0c0" stroke-width="1" d="M 74 71.5 L 590 71.5"  /><path opacity="1" fill="none" stroke="#c0c0c0" stroke-width="1" d="M 74 148.5 L 590 148.5"  /><path opacity="1" fill="none" stroke="#c0c0c0" stroke-width="1" d="M 74 223.5 L 590 223.5"  /><path opacity="1" fill="none" stroke="#c0c0c0" stroke-width="1" d="M 74 299.5 L 590 299.5"  /></g><g class="highcharts-axis" ><path opacity="1" fill="none" stroke="#c0d0e0" stroke-width="1" d="M 215.5 299 L 215.5 309" /><path opacity="1" fill="none" stroke="#c0d0e0" stroke-width="1" d="M 312.5 299 L 312.5 309" /><path opacity="1" fill="none" stroke="#c0d0e0" stroke-width="1" d="M 409.5 299 L 409.5 309" /><path opacity="1" fill="none" stroke="#c0d0e0" stroke-width="1" d="M 506.5 299 L 506.5 309" /><path opacity="1" fill="none" stroke="#c0d0e0" stroke-width="1" d="M 118.5 299 L 118.5 309" /><text class=" highcharts-xaxis-title" visibility="visible" style="color: rgb(112, 112, 112); fill: #707070;" text-anchor="middle" transform="translate(0)" x="332" y="338" >Time</text><path visibility="visible" fill="none" stroke="#c0d0e0" stroke-width="1" d="M 74 299.5 L 590 299.5"  /></g><g class="highcharts-axis" ><text class=" highcharts-yaxis-title" visibility="visible" style="color: rgb(112, 112, 112); fill: #707070;" text-anchor="middle" transform="translate(0) rotate(270 28.12 185.5)" x="28.12" y="185.5" ><tspan>Questions Correct</tspan></text></g><g class="highcharts-series-group" ><g class="highcharts-series" visibility="visible" clip-path="url(#highcharts-95)" transform="translate(74 72) scale(1)" ><path fill="none" stroke="#9ab2d6" stroke-linecap="round" stroke-linejoin="round" stroke-width="2" d="M 5.05882 226.622 C 5.05882 226.622 7.71369 226.522 9.48361 226.243 C 9.6347 226.22 9.71024 226.042 9.86133 225.865 C 9.96925 225.739 10.0232 225.655 10.1311 225.487 C 10.2175 225.352 10.2606 225.209 10.347 225.108 C 10.5197 224.907 10.606 224.881 10.7787 224.73 C 10.9513 224.579 11.0377 224.486 11.2104 224.352 C 11.4262 224.184 11.5341 224.19 11.75 223.973 C 11.8363 223.887 11.8795 223.73 11.9658 223.595 C 12.0737 223.427 12.1277 223.406 12.2356 223.217 C 12.3004 223.103 12.3327 222.968 12.3975 222.838 C 12.4838 222.665 12.527 222.611 12.6133 222.46 C 12.6997 222.309 12.7428 222.203 12.8292 222.082 C 12.9587 221.9 13.0234 221.747 13.1529 221.703 C 13.93 221.444 14.3185 221.612 15.0955 221.325 C 15.1387 221.309 15.1603 220.977 15.2035 220.947 C 15.592 220.674 15.7862 220.828 16.1747 220.568 C 16.2395 220.525 16.2719 220.32 16.3366 220.19 C 16.423 220.017 16.4661 219.828 16.5525 219.812 C 18.1065 219.525 18.8836 219.728 20.4376 219.433 C 20.4808 219.425 20.5024 219.156 20.5456 219.055 C 20.6319 218.853 20.6751 218.828 20.7614 218.677 C 20.8477 218.525 20.8909 218.319 20.9773 218.298 C 22.186 218.016 22.7903 217.92 23.9991 217.92 C 25.2509 217.92 25.8769 217.92 27.1288 217.92 C 27.2367 217.92 27.2907 217.679 27.3986 217.542 C 27.5281 217.377 27.5928 217.254 27.7224 217.163 C 28.0245 216.951 28.1756 216.785 28.4778 216.785 C 28.5426 216.785 28.5749 216.785 28.6397 216.785 C 28.8555 216.785 28.9635 216.608 29.1793 216.407 C 29.2872 216.306 29.3412 216.18 29.4491 216.028 C 29.557 215.877 29.611 215.818 29.7189 215.65 C 29.8052 215.515 29.8484 215.3 29.9347 215.272 C 30.7765 214.997 31.1974 215.168 32.0392 214.893 C 32.1256 214.865 32.1687 214.555 32.2551 214.515 C 32.8162 214.253 33.0968 214.408 33.658 214.137 C 33.7228 214.105 33.7552 213.888 33.8199 213.758 C 33.9063 213.585 33.9494 213.531 34.0358 213.38 C 34.1221 213.229 34.1653 213.153 34.2516 213.002 C 34.3379 212.85 34.3811 212.796 34.4674 212.623 C 34.5322 212.494 34.5646 212.306 34.6293 212.245 C 34.8883 212.003 35.0179 212.08 35.2769 211.867 C 35.3848 211.778 35.4387 211.614 35.5467 211.488 C 35.6978 211.312 35.7733 211.273 35.9244 211.11 C 36.0539 210.97 36.1187 210.871 36.2482 210.732 C 36.3992 210.569 36.4748 210.546 36.6259 210.353 C 36.7122 210.243 36.7554 210.018 36.8417 209.975 C 37.3597 209.716 37.6188 209.856 38.1368 209.597 C 38.2231 209.553 38.2663 209.37 38.3526 209.218 C 38.439 209.067 38.4821 208.975 38.5685 208.84 C 38.6764 208.672 38.7304 208.509 38.8383 208.462 C 39.4211 208.206 39.7124 208.283 40.2952 208.083 C 40.5974 207.98 40.7485 207.744 41.0507 207.705 C 43.1228 207.441 44.1588 207.609 46.2309 207.327 C 46.382 207.306 46.4575 207.054 46.6086 206.948 C 46.8892 206.752 47.0295 206.636 47.3101 206.57 C 48.3246 206.333 48.8318 206.306 49.8463 206.192 C 51.5083 206.004 52.3393 206.035 54.0013 205.813 C 54.6056 205.733 54.9078 205.692 55.5122 205.435 C 55.6201 205.389 55.674 205.173 55.782 205.057 C 55.9546 204.87 56.041 204.88 56.2136 204.678 C 56.3 204.577 56.3432 204.451 56.4295 204.3 C 56.5158 204.149 56.559 204.073 56.6453 203.922 C 56.7317 203.77 56.7748 203.644 56.8612 203.543 C 57.0339 203.342 57.1202 203.338 57.2929 203.165 C 57.4224 203.035 57.4871 202.859 57.6166 202.787 C 58.0267 202.557 58.2318 202.658 58.6419 202.408 C 58.7282 202.356 58.7714 202.181 58.8577 202.03 C 58.9441 201.879 58.9872 201.762 59.0736 201.652 C 59.2247 201.459 59.3002 201.466 59.4513 201.273 C 59.5376 201.163 59.5808 201.046 59.6671 200.895 C 59.7535 200.744 59.7966 200.638 59.883 200.517 C 60.0125 200.335 60.0772 200.32 60.2067 200.138 C 60.2931 200.017 60.3363 199.783 60.4226 199.76 C 61.4802 199.48 62.009 199.667 63.0667 199.382 C 63.1314 199.364 63.1638 199.133 63.2285 199.003 C 63.3149 198.83 63.3581 198.76 63.4444 198.625 C 63.5523 198.457 63.6063 198.27 63.7142 198.247 C 64.9877 197.968 65.6244 198.152 66.8979 197.868 C 66.9842 197.849 67.0274 197.611 67.1137 197.49 C 67.2432 197.308 67.308 197.313 67.4375 197.112 C 67.5022 197.011 67.5346 196.885 67.5994 196.733 C 67.6641 196.582 67.6965 196.485 67.7613 196.355 C 67.8476 196.182 67.8908 196.098 67.9771 195.977 C 68.1066 195.795 68.1714 195.719 68.3009 195.598 C 68.4951 195.417 68.5923 195.296 68.7865 195.22 C 69.3693 194.993 69.6607 195.114 70.2435 194.842 C 70.3082 194.811 70.3406 194.593 70.4053 194.463 C 70.4917 194.29 70.5348 194.287 70.6212 194.085 C 70.6643 193.984 70.6859 193.908 70.7291 193.707 C 70.7507 193.606 70.7615 193.338 70.7831 193.328 C 71.4522 193.035 71.7867 193.104 72.4558 192.95 C 73.1034 192.801 73.4271 192.824 74.0747 192.572 C 74.2042 192.521 74.2689 192.375 74.3984 192.193 C 74.4848 192.072 74.5279 191.966 74.6143 191.815 C 74.7006 191.664 74.7438 191.462 74.8301 191.437 C 75.7798 191.159 76.2547 191.246 77.2044 191.058 C 77.7872 190.943 78.0786 190.913 78.6613 190.68 C 78.834 190.611 78.9203 190.488 79.093 190.302 C 79.2009 190.185 79.2549 189.969 79.3628 189.923 C 79.9672 189.667 80.2694 189.742 80.8737 189.545 C 81.1975 189.439 81.3594 189.406 81.6831 189.167 C 81.7695 189.103 81.8126 188.94 81.899 188.788 C 81.9853 188.637 82.0285 188.583 82.1148 188.41 C 82.1796 188.28 82.212 188.161 82.2767 188.032 C 82.363 187.859 82.4062 187.763 82.4925 187.653 C 82.6436 187.461 82.7192 187.438 82.8703 187.275 C 82.9998 187.135 83.0645 187.036 83.194 186.897 C 83.3451 186.734 83.4207 186.73 83.5718 186.518 C 83.6365 186.428 83.6689 186.165 83.7337 186.14 C 84.4675 185.862 84.8344 186.019 85.5683 185.762 C 85.6978 185.716 85.7626 185.548 85.8921 185.383 C 86 185.246 86.054 185.194 86.1619 185.005 C 86.2266 184.891 86.259 184.649 86.3238 184.627 C 87.144 184.346 87.5541 184.376 88.3743 184.248 C 89.4967 184.073 90.0579 184.051 91.1802 183.87 C 91.9357 183.748 92.3134 183.757 93.0689 183.492 C 93.1768 183.454 93.2307 183.189 93.3387 183.113 C 93.6624 182.886 93.8243 182.941 94.1481 182.735 C 94.2992 182.639 94.3747 182.397 94.5258 182.357 C 95.4971 182.095 95.9827 182.195 96.954 181.978 C 97.3426 181.892 97.5368 181.662 97.9253 181.6 C 99.4362 181.359 100.192 181.504 101.703 181.222 C 101.811 181.201 101.864 180.995 101.972 180.843 C 102.08 180.692 102.134 180.633 102.242 180.465 C 102.329 180.33 102.372 180.18 102.458 180.087 C 102.652 179.877 102.749 179.903 102.944 179.708 C 103.052 179.6 103.106 179.481 103.213 179.33 C 103.321 179.179 103.375 179.089 103.483 178.952 C 103.613 178.787 103.678 178.725 103.807 178.573 C 103.937 178.422 104.001 178.214 104.131 178.195 C 106.095 177.911 107.077 177.99 109.041 177.817 C 110.509 177.687 111.243 177.709 112.711 177.438 C 112.883 177.406 112.97 177.28 113.142 177.06 C 113.207 176.977 113.239 176.795 113.304 176.682 C 113.412 176.492 113.466 176.379 113.574 176.303 C 113.898 176.076 114.06 176.122 114.383 175.925 C 114.556 175.82 114.642 175.674 114.815 175.547 C 115.052 175.371 115.171 175.224 115.409 175.168 C 116.466 174.921 116.995 175.065 118.053 174.79 C 118.161 174.762 118.215 174.58 118.323 174.412 C 118.409 174.277 118.452 174.134 118.538 174.033 C 118.711 173.832 118.797 173.816 118.97 173.655 C 119.121 173.514 119.197 173.365 119.348 173.277 C 119.715 173.062 119.898 173.122 120.265 172.898 C 120.395 172.819 120.459 172.685 120.589 172.52 C 120.697 172.382 120.751 172.188 120.859 172.142 C 121.463 171.885 121.765 172.02 122.37 171.763 C 122.477 171.717 122.531 171.536 122.639 171.385 C 122.747 171.234 122.801 171.196 122.909 171.007 C 122.974 170.893 123.006 170.742 123.071 170.628 C 123.179 170.439 123.233 170.418 123.341 170.25 C 123.427 170.115 123.47 169.927 123.557 169.872 C 123.945 169.624 124.139 169.549 124.528 169.493 C 126.233 169.247 127.086 169.318 128.791 169.115 C 129.633 169.015 130.054 168.999 130.895 168.737 C 131.025 168.696 131.09 168.51 131.219 168.358 C 131.349 168.207 131.413 168.131 131.543 167.98 C 131.672 167.829 131.737 167.767 131.867 167.602 C 131.975 167.464 132.029 167.375 132.136 167.223 C 132.244 167.072 132.298 166.845 132.406 166.845 C 132.493 166.845 132.536 166.845 132.622 166.845 C 132.773 166.845 132.849 166.643 133 166.467 C 133.108 166.341 133.162 166.277 133.27 166.088 C 133.334 165.975 133.367 165.738 133.432 165.71 C 134.079 165.435 134.403 165.577 135.05 165.332 C 135.201 165.274 135.277 165.13 135.428 164.953 C 135.536 164.827 135.59 164.647 135.698 164.575 C 136.043 164.344 136.216 164.277 136.561 164.197 C 137.511 163.975 137.986 164.096 138.936 163.818 C 139.022 163.793 139.065 163.561 139.151 163.44 C 139.281 163.258 139.346 163.106 139.475 163.062 C 140.231 162.803 140.608 162.948 141.364 162.683 C 141.472 162.645 141.526 162.456 141.634 162.305 C 141.741 162.154 141.795 161.955 141.903 161.927 C 142.961 161.652 143.49 161.813 144.547 161.548 C 144.699 161.51 144.774 161.333 144.925 161.17 C 145.055 161.03 145.119 160.973 145.249 160.792 C 145.335 160.671 145.378 160.565 145.465 160.413 C 145.551 160.262 145.594 160.186 145.681 160.035 C 145.767 159.884 145.81 159.689 145.896 159.657 C 146.609 159.387 146.965 159.548 147.677 159.278 C 147.764 159.246 147.807 159.051 147.893 158.9 C 147.979 158.749 148.023 158.643 148.109 158.522 C 148.238 158.34 148.303 158.244 148.433 158.143 C 148.692 157.942 148.821 157.83 149.08 157.765 C 150.03 157.527 150.505 157.511 151.454 157.387 C 152.814 157.208 153.494 157.028 154.854 157.008 C 174.366 156.725 184.122 156.929 203.635 156.63 C 203.85 156.627 203.958 156.252 204.174 156.252 C 204.304 156.252 204.368 156.252 204.498 156.252 C 204.822 156.252 204.984 156.252 205.307 156.252 C 206.43 156.252 206.991 156.149 208.113 155.873 C 208.221 155.847 208.275 155.621 208.383 155.495 C 208.534 155.318 208.61 155.293 208.761 155.117 C 208.869 154.991 208.923 154.876 209.031 154.738 C 209.16 154.573 209.225 154.562 209.354 154.36 C 209.419 154.259 209.451 154.111 209.516 153.982 C 209.603 153.809 209.646 153.738 209.732 153.603 C 209.84 153.435 209.894 153.281 210.002 153.225 C 210.477 152.978 210.714 153.093 211.189 152.847 C 211.297 152.791 211.351 152.636 211.459 152.468 C 211.545 152.334 211.588 152.241 211.675 152.09 C 211.761 151.939 211.804 151.863 211.891 151.712 C 211.977 151.56 212.02 151.443 212.106 151.333 C 212.257 151.141 212.333 151.148 212.484 150.955 C 212.57 150.845 212.614 150.625 212.7 150.577 C 213.153 150.322 213.38 150.434 213.833 150.198 C 213.963 150.131 214.027 149.911 214.157 149.82 C 214.459 149.608 214.61 149.665 214.912 149.442 C 215.02 149.362 215.074 149.171 215.182 149.063 C 215.376 148.869 215.474 148.88 215.668 148.685 C 215.776 148.577 215.83 148.415 215.938 148.307 C 216.132 148.112 216.229 148.099 216.423 147.928 C 216.574 147.796 216.65 147.563 216.801 147.55 C 220.039 147.261 221.657 147.455 224.895 147.172 C 225.111 147.153 225.219 146.982 225.435 146.793 C 225.564 146.68 225.629 146.555 225.758 146.415 C 225.91 146.252 225.985 146.213 226.136 146.037 C 226.244 145.911 226.298 145.753 226.406 145.658 C 226.643 145.45 226.762 145.465 227 145.28 C 227.151 145.162 227.226 144.968 227.377 144.902 C 227.917 144.665 228.187 144.767 228.726 144.523 C 228.856 144.465 228.921 144.285 229.05 144.145 C 229.201 143.982 229.277 143.783 229.428 143.767 C 232.018 143.481 233.313 143.655 235.903 143.388 C 236.248 143.353 236.421 143.23 236.766 143.01 C 236.896 142.927 236.961 142.833 237.09 142.632 C 237.155 142.531 237.187 142.255 237.252 142.253 C 248.152 141.952 253.602 142.174 264.502 141.875 C 264.632 141.871 264.697 141.648 264.826 141.497 C 264.956 141.345 265.02 141.144 265.15 141.118 C 266.574 140.841 267.287 141.025 268.711 140.74 C 268.798 140.723 268.841 140.364 268.927 140.362 C 278.575 140.062 283.399 140.28 293.048 139.983 C 293.242 139.977 293.339 139.815 293.533 139.605 C 293.62 139.512 293.663 139.361 293.749 139.227 C 293.857 139.059 293.911 138.876 294.019 138.848 C 295.098 138.573 295.638 138.745 296.717 138.47 C 296.825 138.442 296.879 138.243 296.987 138.092 C 297.095 137.94 297.149 137.736 297.256 137.713 C 298.573 137.434 299.231 137.557 300.548 137.335 C 301.023 137.255 301.26 137.203 301.735 136.957 C 301.843 136.901 301.897 136.716 302.005 136.578 C 302.135 136.413 302.199 136.33 302.329 136.2 C 302.501 136.027 302.588 135.908 302.76 135.822 C 303.192 135.605 303.408 135.696 303.84 135.443 C 303.926 135.393 303.969 135.2 304.056 135.065 C 304.163 134.897 304.217 134.795 304.325 134.687 C 304.52 134.492 304.617 134.503 304.811 134.308 C 304.919 134.2 304.973 134.119 305.081 133.93 C 305.146 133.816 305.178 133.665 305.243 133.552 C 305.351 133.363 305.405 133.311 305.512 133.173 C 305.642 133.008 305.707 132.96 305.836 132.795 C 305.944 132.657 305.998 132.606 306.106 132.417 C 306.171 132.303 306.203 132.073 306.268 132.038 C 306.764 131.771 307.013 131.669 307.509 131.66 C 324.474 131.366 332.957 131.582 349.922 131.282 C 350.03 131.28 350.084 130.922 350.192 130.903 C 351.854 130.619 352.685 130.809 354.347 130.525 C 354.455 130.507 354.509 130.158 354.617 130.147 C 357.293 129.856 358.631 130.059 361.308 129.768 C 361.416 129.757 361.47 129.541 361.578 129.39 C 361.686 129.239 361.74 129.18 361.848 129.012 C 361.934 128.877 361.977 128.754 362.063 128.633 C 362.193 128.452 362.258 128.376 362.387 128.255 C 362.581 128.073 362.679 128.086 362.873 127.877 C 362.959 127.784 363.002 127.633 363.089 127.498 C 363.197 127.33 363.251 127.196 363.358 127.12 C 363.682 126.893 363.844 126.958 364.168 126.742 C 364.297 126.655 364.362 126.363 364.492 126.363 C 364.729 126.363 364.848 126.363 365.085 126.363 C 365.172 126.363 365.215 126.095 365.301 125.985 C 365.452 125.792 365.528 125.799 365.679 125.607 C 365.765 125.497 365.808 125.289 365.895 125.228 C 366.24 124.986 366.413 124.958 366.758 124.85 C 367.384 124.655 367.697 124.605 368.323 124.472 C 369.121 124.302 369.521 124.36 370.319 124.093 C 370.427 124.057 370.481 123.883 370.589 123.715 C 370.676 123.58 370.719 123.337 370.805 123.337 C 371.129 123.337 371.291 123.337 371.614 123.337 C 371.744 123.337 371.809 123.123 371.938 122.958 C 372.046 122.821 372.1 122.706 372.208 122.58 C 372.359 122.403 372.435 122.24 372.586 122.202 C 373.622 121.938 374.14 122.108 375.176 121.823 C 375.241 121.806 375.273 121.546 375.338 121.445 C 375.467 121.243 375.532 121.188 375.661 121.067 C 375.856 120.885 375.953 120.793 376.147 120.688 C 376.514 120.49 376.698 120.494 377.064 120.31 C 377.302 120.191 377.421 120.024 377.658 119.932 C 378.198 119.721 378.467 119.806 379.007 119.553 C 379.115 119.503 379.169 119.313 379.277 119.175 C 379.406 119.01 379.471 118.835 379.601 118.797 C 380.486 118.533 380.928 118.7 381.813 118.418 C 381.878 118.398 381.91 118.11 381.975 118.04 C 382.191 117.807 382.299 117.799 382.514 117.662 C 382.774 117.497 382.903 117.366 383.162 117.283 C 383.853 117.063 384.198 117.174 384.889 116.905 C 384.975 116.871 385.018 116.7 385.105 116.527 C 385.169 116.397 385.202 116.278 385.267 116.148 C 385.353 115.975 385.396 115.921 385.482 115.77 C 385.569 115.619 385.612 115.526 385.698 115.392 C 385.806 115.224 385.86 115.181 385.968 115.013 C 386.054 114.879 386.098 114.77 386.184 114.635 C 386.292 114.467 386.346 114.408 386.454 114.257 C 386.562 114.105 386.616 113.899 386.723 113.878 C 388.234 113.596 388.99 113.782 390.501 113.5 C 390.609 113.48 390.663 113.155 390.771 113.122 C 391.634 112.853 392.066 113.018 392.929 112.743 C 393.015 112.716 393.058 112.538 393.145 112.365 C 393.21 112.235 393.242 112.1 393.307 111.987 C 393.415 111.798 393.469 111.776 393.576 111.608 C 393.663 111.474 393.706 111.403 393.792 111.23 C 393.857 111.1 393.889 110.953 393.954 110.852 C 394.084 110.65 394.148 110.655 394.278 110.473 C 394.364 110.352 394.407 110.135 394.494 110.095 C 395.055 109.833 395.336 109.971 395.897 109.717 C 396.005 109.668 396.059 109.464 396.167 109.338 C 396.318 109.162 396.393 109.153 396.544 108.96 C 396.631 108.85 396.674 108.703 396.76 108.582 C 396.89 108.4 396.954 108.355 397.084 108.203 C 397.213 108.052 397.278 107.99 397.408 107.825 C 397.516 107.687 397.57 107.615 397.677 107.447 C 397.764 107.312 397.807 107.112 397.893 107.068 C 398.411 106.809 398.67 106.932 399.188 106.69 C 399.318 106.629 399.383 106.355 399.512 106.312 C 400.289 106.052 400.678 106.22 401.455 105.933 C 401.498 105.917 401.52 105.616 401.563 105.555 C 401.735 105.313 401.822 105.287 401.994 105.177 C 402.297 104.984 402.448 105 402.75 104.798 C 402.901 104.697 402.976 104.571 403.128 104.42 C 403.279 104.269 403.354 104.234 403.505 104.042 C 403.592 103.932 403.635 103.784 403.721 103.663 C 403.851 103.482 403.915 103.45 404.045 103.285 C 404.153 103.147 404.207 103.123 404.315 102.907 C 404.358 102.82 404.379 102.549 404.423 102.528 C 405.027 102.246 405.329 102.415 405.934 102.15 C 406.02 102.112 406.063 101.906 406.149 101.772 C 406.257 101.604 406.311 101.441 406.419 101.393 C 407.002 101.138 407.293 101.154 407.876 101.015 C 408.567 100.851 408.912 100.898 409.603 100.637 C 409.711 100.596 409.765 100.448 409.873 100.258 C 409.937 100.145 409.97 99.9935 410.035 99.88 C 410.142 99.6908 410.196 99.5557 410.304 99.5017 C 410.801 99.253 411.049 99.372 411.545 99.1233 C 411.653 99.0693 411.707 98.8963 411.815 98.745 C 411.923 98.5937 411.977 98.5558 412.085 98.3667 C 412.15 98.2532 412.182 98.1018 412.247 97.9883 C 412.355 97.7992 412.409 97.6509 412.517 97.61 C 413.207 97.3482 413.553 97.5084 414.243 97.2317 C 414.308 97.2057 414.341 96.9542 414.405 96.8533 C 414.535 96.6516 414.6 96.6566 414.729 96.475 C 414.815 96.3539 414.859 96.1898 414.945 96.0967 C 415.139 95.8871 415.236 95.7985 415.431 95.7183 C 415.97 95.4958 416.24 95.5765 416.78 95.34 C 416.931 95.2738 417.006 95.1246 417.157 94.9617 C 417.287 94.822 417.352 94.7649 417.481 94.5833 C 417.567 94.4623 417.611 94.3261 417.697 94.205 C 417.826 94.0234 417.891 94.0083 418.021 93.8267 C 418.107 93.7056 418.15 93.5997 418.237 93.4483 C 418.323 93.297 418.366 93.1911 418.452 93.07 C 418.582 92.8884 418.647 92.9187 418.776 92.6917 C 418.819 92.616 418.841 92.4142 418.884 92.3133 C 418.97 92.1116 419.014 91.9876 419.1 91.935 C 419.51 91.685 419.715 91.8067 420.125 91.5567 C 420.212 91.504 420.255 91.3129 420.341 91.1783 C 420.449 91.0102 420.503 90.9513 420.611 90.8 C 420.719 90.6487 420.773 90.573 420.881 90.4217 C 420.989 90.2703 421.043 90.1809 421.15 90.0433 C 421.28 89.8782 421.345 89.8163 421.474 89.665 C 421.604 89.5137 421.668 89.4683 421.798 89.2867 C 421.884 89.1656 421.927 89.0597 422.014 88.9083 C 422.1 88.757 422.143 88.6813 422.23 88.53 C 422.316 88.3787 422.359 88.303 422.445 88.1517 C 422.532 88.0003 422.575 87.8061 422.661 87.7733 C 423.374 87.5034 423.73 87.6649 424.442 87.395 C 424.528 87.3623 424.572 87.2184 424.658 87.0167 C 424.701 86.9158 424.723 86.7594 424.766 86.6383 C 424.831 86.4567 424.863 86.3609 424.928 86.26 C 425.057 86.0582 425.122 86.0468 425.251 85.8817 C 425.359 85.7441 425.413 85.6715 425.521 85.5033 C 425.608 85.3688 425.651 85.2115 425.737 85.125 C 425.953 84.9088 426.061 84.9484 426.277 84.7467 C 426.385 84.6458 426.439 84.5365 426.547 84.3683 C 426.633 84.2338 426.676 84.1245 426.762 83.99 C 426.87 83.8219 426.924 83.7492 427.032 83.6117 C 427.162 83.4466 427.226 83.4149 427.356 83.2333 C 427.442 83.1123 427.485 82.9761 427.572 82.855 C 427.701 82.6734 427.766 82.5415 427.896 82.4767 C 428.37 82.2389 428.608 82.2886 429.083 82.0983 C 429.363 81.9859 429.504 81.9271 429.784 81.72 C 429.914 81.6244 429.978 81.5434 430.108 81.3417 C 430.173 81.2408 430.205 81.1449 430.27 80.9633 C 430.313 80.8423 430.335 80.6169 430.378 80.585 C 430.745 80.3142 430.928 80.4517 431.295 80.2067 C 431.381 80.149 431.425 79.8283 431.511 79.8283 C 431.64 79.8283 431.705 79.8283 431.835 79.8283 C 431.878 79.8283 431.899 79.4803 431.943 79.45 C 432.331 79.1776 432.525 79.2114 432.914 79.0717 C 433.367 78.9087 433.594 78.6933 434.047 78.6933 C 434.759 78.6933 435.115 78.6933 435.828 78.6933 C 435.957 78.6933 436.022 78.4801 436.152 78.315 C 436.259 78.1774 436.313 78.088 436.421 77.9367 C 436.529 77.7853 436.583 77.6844 436.691 77.5583 C 436.842 77.3818 436.918 77.2915 437.069 77.18 C 437.328 76.9888 437.457 77.0611 437.716 76.8017 C 437.76 76.7584 437.781 76.5242 437.824 76.4233 C 437.911 76.2216 437.954 76.1963 438.04 76.045 C 438.126 75.8937 438.17 75.818 438.256 75.6667 C 438.342 75.5153 438.385 75.4229 438.472 75.2883 C 438.58 75.1202 438.634 75.1262 438.742 74.91 C 438.785 74.8235 438.806 74.6181 438.85 74.5317 C 438.957 74.3155 439.011 74.3215 439.119 74.1533 C 439.206 74.0188 439.249 73.948 439.335 73.775 C 439.4 73.6453 439.432 73.5264 439.497 73.3967 C 439.583 73.2237 439.627 73.1529 439.713 73.0183 C 439.821 72.8502 439.875 72.8082 439.983 72.64 C 440.069 72.5055 440.112 72.3827 440.199 72.2617 C 440.328 72.0801 440.393 72.0484 440.522 71.8833 C 440.63 71.7458 440.684 71.6563 440.792 71.505 C 440.9 71.3537 440.954 71.278 441.062 71.1267 C 441.17 70.9753 441.224 70.8859 441.332 70.7483 C 441.461 70.5832 441.526 70.4398 441.656 70.37 C 442.087 70.1372 442.303 70.2549 442.735 69.9917 C 442.799 69.9522 442.832 69.6386 442.897 69.6133 C 443.609 69.3359 443.965 69.5049 444.677 69.235 C 444.764 69.2023 444.807 69.0296 444.893 68.8567 C 444.958 68.727 444.99 68.608 445.055 68.4783 C 445.141 68.3054 445.185 68.2345 445.271 68.1 C 445.379 67.9319 445.433 67.9108 445.541 67.7217 C 445.605 67.6082 445.638 67.5249 445.703 67.3433 C 445.746 67.2223 445.767 67.0323 445.811 66.965 C 445.962 66.7296 446.037 66.7985 446.188 66.5867 C 446.253 66.4959 446.285 66.3381 446.35 66.2083 C 446.436 66.0354 446.48 65.9813 446.566 65.83 C 446.652 65.6787 446.695 65.6534 446.782 65.4517 C 446.825 65.3508 446.847 65.1022 446.89 65.0733 C 447.3 64.7995 447.505 64.945 447.915 64.695 C 448.001 64.6424 448.044 64.4896 448.131 64.3167 C 448.196 64.187 448.228 64.068 448.293 63.9383 C 448.379 63.7654 448.422 63.6945 448.509 63.56 C 448.616 63.3919 448.67 63.3498 448.778 63.1817 C 448.865 63.0471 448.908 62.9547 448.994 62.8033 C 449.081 62.652 449.124 62.5595 449.21 62.425 C 449.318 62.2569 449.372 62.1631 449.48 62.0467 C 449.653 61.8604 449.739 61.8413 449.912 61.6683 C 450.041 61.5386 450.106 61.4297 450.235 61.29 C 450.386 61.127 450.462 61.0882 450.613 60.9117 C 450.721 60.7856 450.775 60.7225 450.883 60.5333 C 450.948 60.4198 450.98 60.2458 451.045 60.155 C 451.196 59.9431 451.271 59.9885 451.422 59.7767 C 451.487 59.6859 451.52 59.528 451.584 59.3983 C 451.671 59.2254 451.714 59.193 451.8 59.02 C 451.865 58.8903 451.897 58.793 451.962 58.6417 C 452.027 58.4903 452.059 58.4147 452.124 58.2633 C 452.189 58.112 452.221 58.0363 452.286 57.885 C 452.351 57.7337 452.383 57.5975 452.448 57.5067 C 452.599 57.2948 452.674 57.1925 452.825 57.1283 C 453.387 56.8899 453.667 57.0038 454.228 56.75 C 454.336 56.7012 454.39 56.5608 454.498 56.3717 C 454.563 56.2582 454.595 56.123 454.66 55.9933 C 454.746 55.8204 454.79 55.788 454.876 55.615 C 454.941 55.4853 454.973 55.2716 455.038 55.2367 C 455.534 54.9689 455.782 55.1261 456.279 54.8583 C 456.344 54.8234 456.376 54.5103 456.441 54.48 C 457.024 54.2076 457.315 54.3493 457.898 54.1017 C 458.027 54.0466 458.092 53.7738 458.221 53.7233 C 458.869 53.4711 459.193 53.6121 459.84 53.345 C 459.927 53.3094 459.97 53.0877 460.056 52.9667 C 460.186 52.7851 460.25 52.7534 460.38 52.5883 C 460.488 52.4508 460.542 52.2165 460.65 52.21 C 465.571 51.9138 468.032 52.1304 472.953 51.8317 C 473.018 51.8277 473.05 51.5359 473.115 51.4533 C 473.287 51.2332 473.374 51.2263 473.546 51.075 C 473.719 50.9237 473.805 50.7391 473.978 50.6967 C 475.036 50.4365 475.564 50.4831 476.622 50.3183 C 477.507 50.1805 477.95 50.222 478.835 49.94 C 478.899 49.9194 478.932 49.713 478.996 49.5617 C 479.061 49.4103 479.094 49.2842 479.158 49.1833 C 479.288 48.9816 479.353 48.9866 479.482 48.805 C 479.568 48.6839 479.612 48.5996 479.698 48.4267 C 479.763 48.297 479.795 48.178 479.86 48.0483 C 479.946 47.8754 479.989 47.8213 480.076 47.67 C 480.162 47.5187 480.205 47.4646 480.291 47.2917 C 480.356 47.162 480.389 47.0647 480.453 46.9133 C 480.518 46.762 480.55 46.6647 480.615 46.535 C 480.702 46.362 480.745 46.3296 480.831 46.1567 C 480.896 46.027 480.928 45.9297 480.993 45.7783 C 481.058 45.627 481.09 45.5135 481.155 45.4 C 481.263 45.2108 481.317 45.2379 481.425 45.0217 C 481.468 44.9352 481.489 44.7644 481.533 44.6433 C 481.597 44.4617 481.63 44.4466 481.694 44.265 C 481.738 44.1439 481.759 44.0077 481.802 43.8867 C 481.867 43.7051 481.899 43.6597 481.964 43.5083 C 482.029 43.357 482.061 43.2813 482.126 43.13 C 482.191 42.9787 482.223 42.9333 482.288 42.7517 C 482.331 42.6306 482.353 42.4742 482.396 42.3733 C 482.482 42.1716 482.525 42.168 482.612 41.995 C 482.677 41.8653 482.709 41.768 482.774 41.6167 C 482.838 41.4653 482.871 41.3897 482.936 41.2383 C 483 41.087 483.033 41.0416 483.097 40.86 C 483.141 40.7389 483.162 40.5681 483.205 40.4817 C 483.313 40.2655 483.367 40.2925 483.475 40.1033 C 483.54 39.9898 483.572 39.7495 483.637 39.725 C 484.371 39.4469 484.738 39.6175 485.472 39.3467 C 485.558 39.3148 485.601 39.0784 485.688 38.9683 C 485.839 38.7757 485.914 38.753 486.065 38.59 C 486.195 38.4503 486.26 38.3933 486.389 38.2117 C 486.475 38.0906 486.519 37.9847 486.605 37.8333 C 486.691 37.682 486.734 37.4928 486.821 37.455 C 487.425 37.1902 487.727 37.3592 488.332 37.0767 C 488.375 37.0565 488.396 36.8194 488.44 36.6983 C 488.504 36.5167 488.537 36.3524 488.601 36.32 C 489.141 36.0498 489.411 36.2119 489.95 35.9417 C 490.015 35.9092 490.048 35.693 490.112 35.5633 C 490.199 35.3904 490.242 35.358 490.328 35.185 C 490.393 35.0553 490.425 34.9364 490.49 34.8067 C 490.576 34.6337 490.62 34.5797 490.706 34.4283 C 490.792 34.277 490.835 34.1845 490.922 34.05 C 491.03 33.8819 491.084 33.8879 491.192 33.6717 C 491.235 33.5852 491.256 33.3798 491.299 33.2933 C 491.407 33.0771 491.461 33.0526 491.569 32.915 C 491.699 32.7499 491.764 32.7183 491.893 32.5367 C 491.979 32.4156 492.023 32.3313 492.109 32.1583 C 492.174 32.0286 492.206 31.8178 492.271 31.78 C 492.724 31.5152 492.951 31.6559 493.404 31.4017 C 493.49 31.3532 493.533 31.1963 493.62 31.0233 C 493.685 30.8936 493.717 30.7017 493.782 30.645 C 494.062 30.3991 494.203 30.4981 494.483 30.2667 C 494.569 30.1955 494.613 30.0397 494.699 29.8883 C 494.785 29.737 494.828 29.6031 494.915 29.51 C 495.109 29.3005 495.206 29.3412 495.4 29.1317 C 495.487 29.0385 495.53 28.8634 495.616 28.7533 C 495.767 28.5607 495.843 28.5869 495.994 28.375 C 496.059 28.2842 496.091 28.0723 496.156 27.9967 C 496.35 27.7697 496.447 27.644 496.642 27.6183 C 498.735 27.3414 499.782 27.5069 501.876 27.24 C 502.156 27.2042 502.297 26.8867 502.577 26.8617 C 505.685 26.5841 507.239 26.7778 510.348 26.4833 C 510.434 26.4752 510.477 26.2151 510.563 26.105 C 510.715 25.9124 510.941 25.7267 510.941 25.7267"  /></g><g class="highcharts-markers" visibility="visible" clip-path="none" transform="translate(74 72) scale(1)"  /></g><text class="highcharts-title" style="width: 536px; color: rgb(51, 51, 51); font-size: 18px; fill: #333333;" text-anchor="middle" x="300" y="25" ><tspan>Questions Correct Over Time</tspan></text><text class="highcharts-subtitle" style="width: 536px; color: rgb(85, 85, 85); fill: #555555;" text-anchor="middle" x="300" y="53" ><tspan>Click and drag in the plot area to zoom in</tspan></text><g class="highcharts-legend" transform="translate(255 364)" ><g ><g><g class="highcharts-legend-item" transform="translate(8 3)" ><path fill="none" stroke="#9ab2d6" stroke-width="2" d="M 0 11 L 16 11" /><path fill="#9ab2d6" d="M 8 7 C 13.328 7 13.328 15 8 15 C 2.672 15 2.672 7 8 7 Z" /><text style="color: rgb(51, 51, 51); font-size: 12px; font-weight: bold; cursor: pointer; fill: #333333;" text-anchor="start" x="21" y="15" >Questions</text></g></g></g></g><g class="highcharts-axis-labels highcharts-xaxis-labels" ><text style="color: rgb(96, 96, 96); font-size: 11px; cursor: default; fill: #606060;" opacity="1" text-anchor="middle" x="118.774" y="319"><tspan>11:00 AM</tspan></text><text style="color: rgb(96, 96, 96); font-size: 11px; cursor: default; fill: #606060;" opacity="1" text-anchor="middle" x="215.9034" y="319"><tspan>11:30 AM</tspan></text><text style="color: rgb(96, 96, 96); font-size: 11px; cursor: default; fill: #606060;" opacity="1" text-anchor="middle" x="313.0328" y="319"><tspan>12:00 PM</tspan></text><text style="color: rgb(96, 96, 96); font-size: 11px; cursor: default; fill: #606060;" opacity="1" text-anchor="middle" x="410.1622" y="319"><tspan>12:30 PM</tspan></text><text style="color: rgb(96, 96, 96); font-size: 11px; cursor: default; fill: #606060;" opacity="1" text-anchor="middle" x="507.2916" y="319"><tspan>01:00 PM</tspan></text></g><g class="highcharts-axis-labels highcharts-yaxis-labels" ><text style="width: 178px; color: rgb(96, 96, 96); font-size: 11px; cursor: default; fill: #606060;" opacity="1" text-anchor="end" x="59" y="304">0</text><text style="width: 178px; color: rgb(96, 96, 96); font-size: 11px; cursor: default; fill: #606060;" opacity="1" text-anchor="end" x="59" y="228.3333">200</text><text style="width: 178px; color: rgb(96, 96, 96); font-size: 11px; cursor: default; fill: #606060;" opacity="1" text-anchor="end" x="59" y="152.6667">400</text><text style="width: 178px; color: rgb(96, 96, 96); font-size: 11px; cursor: default; fill: #606060;" opacity="1" text-anchor="end" x="59" y="77">600</text></g><g class="highcharts-tooltip" style="padding: 0px; white-space: nowrap; cursor: default;" transform="translate(0 -9999)" ><path fill="none" stroke="black" stroke-opacity="0.05" stroke-width="5" transform="translate(1 1)" d="M 3 0 L 13 0 C 16 0 16 0 16 3 L 16 13 C 16 16 16 16 13 16 L 3 16 C 0 16 0 16 0 13 L 0 3 C 0 0 0 0 3 0"  /><path fill="none" stroke="black" stroke-opacity="0.1" stroke-width="3" transform="translate(1 1)" d="M 3 0 L 13 0 C 16 0 16 0 16 3 L 16 13 C 16 16 16 16 13 16 L 3 16 C 0 16 0 16 0 13 L 0 3 C 0 0 0 0 3 0"  /><path fill="none" stroke="black" stroke-opacity="0.15" stroke-width="1" transform="translate(1 1)" d="M 3 0 L 13 0 C 16 0 16 0 16 3 L 16 13 C 16 16 16 16 13 16 L 3 16 C 0 16 0 16 0 13 L 0 3 C 0 0 0 0 3 0"  /><path fill="rgb(249, 249, 249)" fill-opacity=" 0.85" d="M 3 0 L 13 0 C 16 0 16 0 16 3 L 16 13 C 16 16 16 16 13 16 L 3 16 C 0 16 0 16 0 13 L 0 3 C 0 0 0 0 3 0" /><text style="color: rgb(51, 51, 51); font-size: 12px; fill: #333333;" x="8" y="21" ></text></g><text style="color: rgb(144, 144, 144); font-size: 9px; cursor: pointer; fill: #909090;" text-anchor="end" x="590" y="395" >Highcharts.com</text></svg>