<svg xmlns:xlink="http://www.w3.org/1999/xlink" xmlns="http://www.w3.org/2000/svg" style="font-family: 'lucida grande', 'lucida sans unicode', arial, helvetica, sans-serif; font-size: 12px;" width="600" height="400" version="1.1"><desc>Created with Highcharts 4.0.4</desc><defs><clipPath id="highcharts-83"><rect x="0" y="0" width="516" height="227" /></clipPath></defs><rect class=" highcharts-background" fill="#ffffff" x="0" y="0" width="600" height="400" strokeWidth="0" /><g class="highcharts-grid"  /><g class="highcharts-grid" ><path opacity="1" fill="none" stroke="#c0c0c0" stroke-width="1" d="M 74 71.5 L 590 71.5"  /><path opacity="1" fill="none" stroke="#c0c0c0" stroke-width="1" d="M 74 148.5 L 590 148.5"  /><path opacity="1" fill="none" stroke="#c0c0c0" stroke-width="1" d="M 74 223.5 L 590 223.5"  /><path opacity="1" fill="none" stroke="#c0c0c0" stroke-width="1" d="M 74 299.5 L 590 299.5"  /></g><g class="highcharts-axis" ><path opacity="1" fill="none" stroke="#c0d0e0" stroke-width="1" d="M 217.5 299 L 217.5 309" /><path opacity="1" fill="none" stroke="#c0d0e0" stroke-width="1" d="M 317.5 299 L 317.5 309" /><path opacity="1" fill="none" stroke="#c0d0e0" stroke-width="1" d="M 417.5 299 L 417.5 309" /><path opacity="1" fill="none" stroke="#c0d0e0" stroke-width="1" d="M 517.5 299 L 517.5 309" /><path opacity="1" fill="none" stroke="#c0d0e0" stroke-width="1" d="M 117.5 299 L 117.5 309" /><text class=" highcharts-xaxis-title" visibility="visible" style="color: rgb(112, 112, 112); fill: #707070;" text-anchor="middle" transform="translate(0)" x="332" y="338" >Time</text><path visibility="visible" fill="none" stroke="#c0d0e0" stroke-width="1" d="M 74 299.5 L 590 299.5"  /></g><g class="highcharts-axis" ><text class=" highcharts-yaxis-title" visibility="visible" style="color: rgb(112, 112, 112); fill: #707070;" text-anchor="middle" transform="translate(0) rotate(270 28.12 185.5)" x="28.12" y="185.5" ><tspan>Questions Correct</tspan></text></g><g class="highcharts-series-group" ><g class="highcharts-series" visibility="visible" clip-path="url(#highcharts-83)" transform="translate(74 72) scale(1)" ><path fill="none" stroke="#9ab2d6" stroke-linecap="round" stroke-linejoin="round" stroke-width="2" d="M 5.05882 226.622 C 5.05882 226.622 5.10886 226.243 5.14221 226.243 C 119.183 225.941 176.203 226.167 290.243 225.865 C 290.627 225.864 290.818 225.769 291.202 225.487 C 291.23 225.466 291.244 225.234 291.271 225.108 C 291.31 224.932 291.33 224.787 291.369 224.73 C 291.536 224.485 291.619 224.611 291.786 224.352 C 291.814 224.308 291.827 224.141 291.855 223.973 C 291.877 223.839 291.889 223.746 291.911 223.595 C 291.933 223.444 291.944 223.246 291.966 223.217 C 292.172 222.944 292.275 223.118 292.481 222.838 C 292.497 222.816 292.506 222.611 292.522 222.46 C 292.539 222.309 292.547 222.106 292.564 222.082 C 292.759 221.803 292.856 221.866 293.05 221.703 C 293.217 221.564 293.301 221.592 293.467 221.325 C 293.49 221.289 293.501 221.098 293.523 220.947 C 293.545 220.795 293.556 220.741 293.579 220.568 C 293.595 220.439 293.604 220.341 293.62 220.19 C 293.637 220.039 293.645 219.882 293.662 219.812 C 293.718 219.579 293.745 219.65 293.801 219.433 C 293.823 219.347 293.834 219.19 293.857 219.055 C 293.884 218.887 293.898 218.709 293.926 218.677 C 294.159 218.406 294.276 218.581 294.51 218.298 C 294.526 218.278 294.535 218.102 294.551 217.92 C 294.563 217.799 294.568 217.663 294.579 217.542 C 294.596 217.36 294.604 217.315 294.621 217.163 C 294.638 217.012 294.646 216.936 294.663 216.785 C 294.679 216.634 294.688 216.558 294.704 216.407 C 294.721 216.255 294.729 216.18 294.746 216.028 C 294.763 215.877 294.771 215.832 294.788 215.65 C 294.799 215.529 294.804 215.393 294.815 215.272 C 294.832 215.09 294.84 215.045 294.857 214.893 C 294.874 214.742 294.882 214.666 294.899 214.515 C 294.916 214.364 294.924 214.266 294.941 214.137 C 294.963 213.964 294.974 213.758 294.996 213.758 C 295.018 213.758 295.029 213.758 295.052 213.758 C 295.068 213.758 295.077 213.531 295.093 213.38 C 295.11 213.229 295.118 213.131 295.135 213.002 C 295.157 212.829 295.168 212.775 295.191 212.623 C 295.213 212.472 295.224 212.418 295.246 212.245 C 295.263 212.115 295.271 212.018 295.288 211.867 C 295.305 211.715 295.313 211.602 295.33 211.488 C 295.357 211.299 295.371 211.176 295.399 211.11 C 295.499 210.873 295.549 210.969 295.649 210.732 C 295.677 210.666 295.691 210.521 295.719 210.353 C 295.741 210.219 295.752 210.148 295.774 209.975 C 295.791 209.845 295.799 209.748 295.816 209.597 C 295.833 209.445 295.841 209.37 295.858 209.218 C 295.874 209.067 295.883 208.991 295.899 208.84 C 295.916 208.689 295.924 208.575 295.941 208.462 C 295.969 208.273 295.983 208.273 296.011 208.083 C 296.027 207.97 296.036 207.724 296.052 207.705 C 296.297 207.422 296.419 207.604 296.664 207.327 C 296.686 207.301 296.697 207.1 296.719 206.948 C 296.742 206.797 296.753 206.605 296.775 206.57 C 296.947 206.302 297.034 206.46 297.206 206.192 C 297.228 206.157 297.239 205.841 297.261 205.813 C 297.478 205.539 297.587 205.703 297.803 205.435 C 297.831 205.401 297.845 205.246 297.873 205.057 C 297.89 204.943 297.898 204.792 297.915 204.678 C 297.942 204.489 297.956 204.468 297.984 204.3 C 298.006 204.165 298.018 204.095 298.04 203.922 C 298.056 203.792 298.065 203.695 298.081 203.543 C 298.098 203.392 298.106 203.295 298.123 203.165 C 298.145 202.992 298.156 202.833 298.179 202.787 C 298.301 202.531 298.362 202.664 298.484 202.408 C 298.507 202.362 298.518 202.181 298.54 202.03 C 298.562 201.879 298.573 201.825 298.596 201.652 C 298.612 201.522 298.621 201.425 298.637 201.273 C 298.654 201.122 298.662 201.046 298.679 200.895 C 298.696 200.744 298.704 200.646 298.721 200.517 C 298.743 200.344 298.754 200.139 298.776 200.138 C 317.277 199.836 326.528 200.062 345.028 199.76 C 345.051 199.76 345.062 199.411 345.084 199.382 C 345.29 199.109 345.393 199.276 345.598 199.003 C 345.62 198.974 345.632 198.798 345.654 198.625 C 345.671 198.495 345.679 198.36 345.696 198.247 C 345.723 198.057 345.737 197.868 345.765 197.868 C 346.032 197.868 346.165 197.868 346.432 197.868 C 346.449 197.868 346.457 197.511 346.474 197.49 C 346.702 197.208 346.816 197.187 347.044 197.112 C 347.727 196.885 348.069 197.026 348.753 196.733 C 348.775 196.724 348.786 196.557 348.809 196.355 C 348.82 196.254 348.825 196.098 348.836 195.977 C 348.853 195.795 348.861 195.728 348.878 195.598 C 348.9 195.425 348.911 195.371 348.934 195.22 C 348.956 195.069 348.967 194.872 348.989 194.842 C 349.189 194.569 349.29 194.75 349.49 194.463 C 349.501 194.447 349.506 194.206 349.517 194.085 C 349.534 193.903 349.542 193.888 349.559 193.707 C 349.57 193.586 349.576 193.449 349.587 193.328 C 349.604 193.147 349.612 193.132 349.629 192.95 C 349.64 192.829 349.645 192.658 349.656 192.572 C 349.684 192.355 349.698 192.269 349.726 192.193 C 349.809 191.966 349.851 192.067 349.934 191.815 C 349.951 191.765 349.959 191.466 349.976 191.437 C 350.132 191.163 350.21 191.107 350.365 191.058 C 351.171 190.805 351.574 190.975 352.38 190.68 C 352.403 190.672 352.414 190.423 352.436 190.302 C 352.469 190.12 352.486 189.964 352.519 189.923 C 352.736 189.661 352.845 189.802 353.061 189.545 C 353.1 189.499 353.12 189.379 353.159 189.167 C 353.175 189.076 353.184 188.918 353.2 188.788 C 353.223 188.615 353.234 188.583 353.256 188.41 C 353.273 188.28 353.281 188.032 353.298 188.032 C 353.32 188.032 353.331 188.032 353.353 188.032 C 353.364 188.032 353.37 187.774 353.381 187.653 C 353.398 187.472 353.406 187.426 353.423 187.275 C 353.439 187.124 353.448 187.048 353.464 186.897 C 353.481 186.745 353.489 186.67 353.506 186.518 C 353.523 186.367 353.531 186.291 353.548 186.14 C 353.565 185.989 353.573 185.913 353.59 185.762 C 353.606 185.61 353.615 185.393 353.631 185.383 C 354.137 185.09 354.39 185.292 354.896 185.005 C 354.924 184.989 354.938 184.706 354.965 184.627 C 355.043 184.404 355.082 184.46 355.16 184.248 C 355.193 184.158 355.21 184.052 355.243 183.87 C 355.266 183.749 355.277 183.602 355.299 183.492 C 355.338 183.299 355.357 183.169 355.396 183.113 C 355.569 182.866 355.655 182.996 355.827 182.735 C 355.855 182.693 355.869 182.376 355.897 182.357 C 356.297 182.074 356.497 182.201 356.897 181.978 C 357.042 181.898 357.114 181.764 357.259 181.6 C 357.381 181.461 357.442 181.499 357.564 181.222 C 357.575 181.196 357.581 180.995 357.592 180.843 C 357.603 180.692 357.609 180.586 357.62 180.465 C 357.637 180.283 357.645 180.238 357.662 180.087 C 357.678 179.935 357.687 179.708 357.703 179.708 C 357.726 179.708 357.737 179.708 357.759 179.708 C 357.781 179.708 357.792 179.423 357.814 179.33 C 357.865 179.12 357.89 179.146 357.94 178.952 C 357.967 178.844 357.981 178.762 358.009 178.573 C 358.026 178.46 358.034 178.346 358.051 178.195 C 358.067 178.044 358.076 177.968 358.092 177.817 C 358.109 177.665 358.117 177.438 358.134 177.438 C 358.151 177.438 358.159 177.438 358.176 177.438 C 358.193 177.438 358.201 177.211 358.218 177.06 C 358.234 176.909 358.243 176.833 358.259 176.682 C 358.276 176.53 358.284 176.433 358.301 176.303 C 358.323 176.13 358.334 176.127 358.357 175.925 C 358.368 175.824 358.373 175.668 358.384 175.547 C 358.401 175.365 358.409 175.298 358.426 175.168 C 358.448 174.995 358.459 174.848 358.482 174.79 C 358.576 174.545 358.623 174.568 358.718 174.412 C 358.807 174.265 358.851 174.253 358.94 174.033 C 358.974 173.951 358.99 173.716 359.024 173.655 C 359.157 173.413 359.224 173.556 359.357 173.277 C 359.368 173.253 359.374 172.966 359.385 172.898 C 359.424 172.663 359.443 172.732 359.482 172.52 C 359.499 172.429 359.507 172.255 359.524 172.142 C 359.552 171.952 359.566 171.769 359.593 171.763 C 360.95 171.467 361.628 171.658 362.984 171.385 C 363.135 171.355 363.21 171.27 363.36 171.007 C 363.382 170.968 363.393 170.801 363.415 170.628 C 363.432 170.499 363.44 170.38 363.457 170.25 C 363.479 170.077 363.49 169.88 363.513 169.872 C 364.291 169.577 364.68 169.788 365.458 169.493 C 365.481 169.485 365.492 169.139 365.514 169.115 C 365.77 168.837 365.897 168.902 366.153 168.737 C 366.364 168.6 366.47 168.626 366.681 168.358 C 366.709 168.323 366.723 168.196 366.751 167.98 C 366.762 167.894 366.767 167.703 366.779 167.602 C 366.801 167.4 366.812 167.425 366.834 167.223 C 366.845 167.122 366.851 166.946 366.862 166.845 C 366.884 166.643 366.895 166.64 366.918 166.467 C 366.934 166.337 366.943 166.088 366.959 166.088 C 367.015 166.088 367.043 166.088 367.098 166.088 C 367.109 166.088 367.115 165.831 367.126 165.71 C 367.143 165.528 367.151 165.461 367.168 165.332 C 367.19 165.159 367.201 165.006 367.223 164.953 C 367.329 164.703 367.382 164.825 367.487 164.575 C 367.51 164.522 367.521 164.37 367.543 164.197 C 367.56 164.067 367.568 163.97 367.585 163.818 C 367.601 163.667 367.61 163.444 367.626 163.44 C 368.883 163.141 369.511 163.357 370.767 163.062 C 370.801 163.054 370.817 162.865 370.851 162.683 C 370.873 162.562 370.884 162.478 370.906 162.305 C 370.923 162.175 370.931 162.108 370.948 161.927 C 370.959 161.806 370.965 161.567 370.976 161.548 C 371.143 161.265 371.226 161.332 371.393 161.17 C 371.537 161.029 371.609 161.054 371.754 160.792 C 371.776 160.751 371.787 160.548 371.81 160.413 C 371.837 160.245 371.851 160.224 371.879 160.035 C 371.896 159.921 371.904 159.808 371.921 159.657 C 371.938 159.505 371.946 159.408 371.962 159.278 C 371.985 159.105 371.996 159.073 372.018 158.9 C 372.035 158.77 372.043 158.703 372.06 158.522 C 372.071 158.401 372.076 158.264 372.088 158.143 C 372.104 157.962 372.113 157.947 372.129 157.765 C 372.14 157.644 372.146 157.508 372.157 157.387 C 372.174 157.205 372.182 157.045 372.199 157.008 C 372.321 156.742 372.382 156.896 372.505 156.63 C 372.521 156.594 372.53 156.403 372.546 156.252 C 372.563 156.1 372.571 155.956 372.588 155.873 C 372.632 155.653 372.655 155.495 372.699 155.495 C 372.732 155.495 372.749 155.495 372.782 155.495 C 372.799 155.495 372.807 155.125 372.824 155.117 C 373.386 154.823 373.666 154.816 374.228 154.738 C 375.862 154.513 376.679 154.659 378.314 154.36 C 378.336 154.356 378.347 153.988 378.369 153.982 C 379.481 153.685 380.037 153.9 381.149 153.603 C 381.171 153.597 381.182 153.376 381.205 153.225 C 381.227 153.074 381.238 153.048 381.26 152.847 C 381.271 152.746 381.277 152.569 381.288 152.468 C 381.31 152.267 381.321 152.263 381.344 152.09 C 381.36 151.96 381.369 151.802 381.385 151.712 C 381.424 151.5 381.444 151.51 381.483 151.333 C 381.51 151.207 381.524 151.171 381.552 150.955 C 381.563 150.869 381.569 150.652 381.58 150.577 C 381.613 150.35 381.63 150.363 381.663 150.198 C 381.691 150.061 381.705 149.833 381.733 149.82 C 382.366 149.53 382.683 149.664 383.317 149.442 C 383.545 149.362 383.659 149.327 383.887 149.063 C 383.92 149.025 383.937 148.712 383.97 148.685 C 384.309 148.409 384.479 148.591 384.818 148.307 C 384.84 148.288 384.851 148.101 384.874 147.928 C 384.89 147.799 384.899 147.732 384.915 147.55 C 384.926 147.429 384.932 147.239 384.943 147.172 C 384.982 146.936 385.001 146.805 385.04 146.793 C 386.035 146.502 386.533 146.713 387.528 146.415 C 387.545 146.41 387.553 146.15 387.57 146.037 C 387.598 145.848 387.612 145.848 387.639 145.658 C 387.656 145.545 387.664 145.288 387.681 145.28 C 388.309 144.985 388.623 145.199 389.251 144.902 C 389.263 144.896 389.268 144.542 389.279 144.523 C 389.452 144.239 389.538 144.413 389.71 144.145 C 389.732 144.11 389.743 143.94 389.766 143.767 C 389.782 143.637 389.791 143.518 389.807 143.388 C 389.83 143.215 389.841 143.145 389.863 143.01 C 389.891 142.842 389.905 142.821 389.932 142.632 C 389.949 142.518 389.957 142.405 389.974 142.253 C 389.991 142.102 389.999 141.892 390.016 141.875 C 390.305 141.589 390.449 141.715 390.739 141.497 C 390.85 141.413 390.905 141.371 391.016 141.118 C 391.039 141.068 391.05 140.763 391.072 140.74 C 391.339 140.461 391.472 140.647 391.739 140.362 C 391.756 140.344 391.764 140.113 391.781 139.983 C 391.803 139.81 391.814 139.756 391.836 139.605 C 391.859 139.454 391.87 139.4 391.892 139.227 C 391.909 139.097 391.917 138.978 391.934 138.848 C 391.956 138.675 391.967 138.672 391.989 138.47 C 392 138.369 392.006 138.193 392.017 138.092 C 392.039 137.89 392.05 137.739 392.073 137.713 C 392.312 137.436 392.431 137.618 392.67 137.335 C 392.687 137.315 392.695 136.979 392.712 136.957 C 392.918 136.677 393.021 136.851 393.226 136.578 C 393.248 136.549 393.26 136.335 393.282 136.2 C 393.31 136.032 393.324 135.85 393.351 135.822 C 393.624 135.547 393.76 135.537 394.032 135.443 C 394.644 135.234 394.95 135.357 395.561 135.065 C 395.583 135.054 395.594 134.797 395.617 134.687 C 395.656 134.494 395.675 134.471 395.714 134.308 C 395.747 134.169 395.764 134.132 395.797 133.93 C 395.814 133.829 395.822 133.642 395.839 133.552 C 395.878 133.34 395.897 133.336 395.936 133.173 C 395.97 133.034 395.986 132.96 396.02 132.795 C 396.048 132.657 396.061 132.455 396.089 132.417 C 396.278 132.153 396.373 132.316 396.562 132.038 C 396.578 132.014 396.587 131.761 396.603 131.66 C 396.637 131.458 396.653 131.463 396.687 131.282 C 396.709 131.161 396.72 131.055 396.742 130.903 C 396.765 130.752 396.776 130.525 396.798 130.525 C 396.826 130.525 396.84 130.525 396.867 130.525 C 396.89 130.525 396.901 130.32 396.923 130.147 C 396.94 130.017 396.948 129.882 396.965 129.768 C 396.993 129.579 397.006 129.437 397.034 129.39 C 397.184 129.135 397.259 129.169 397.41 129.012 C 397.548 128.866 397.618 128.904 397.757 128.633 C 397.774 128.601 397.782 128.406 397.799 128.255 C 397.815 128.104 397.824 128.006 397.84 127.877 C 397.863 127.704 397.874 127.543 397.896 127.498 C 398.024 127.241 398.088 127.257 398.216 127.12 C 398.371 126.954 398.449 126.991 398.605 126.742 C 398.638 126.688 398.655 126.415 398.688 126.363 C 398.849 126.113 398.93 126.243 399.091 125.985 C 399.119 125.94 399.133 125.823 399.161 125.607 C 399.172 125.52 399.177 125.349 399.188 125.228 C 399.205 125.047 399.213 124.85 399.23 124.85 C 399.263 124.85 399.28 124.85 399.314 124.85 C 399.325 124.85 399.33 124.472 399.341 124.472 C 399.38 124.472 399.4 124.472 399.439 124.472 C 399.494 124.472 399.522 124.225 399.578 124.093 C 399.65 123.922 399.686 123.946 399.758 123.715 C 399.78 123.644 399.792 123.471 399.814 123.337 C 399.842 123.169 399.856 123.11 399.883 122.958 C 399.911 122.807 399.925 122.731 399.953 122.58 C 399.981 122.429 399.995 122.202 400.022 122.202 C 400.061 122.202 400.081 122.202 400.12 122.202 C 400.147 122.202 400.161 121.94 400.189 121.823 C 400.234 121.637 400.256 121.631 400.3 121.445 C 400.328 121.329 400.342 121.256 400.37 121.067 C 400.386 120.953 400.395 120.736 400.411 120.688 C 400.5 120.433 400.545 120.541 400.634 120.31 C 400.662 120.238 400.676 120.121 400.703 119.932 C 400.72 119.818 400.728 119.667 400.745 119.553 C 400.773 119.364 400.787 119.343 400.814 119.175 C 400.837 119.04 400.848 118.948 400.87 118.797 C 400.892 118.645 400.903 118.591 400.926 118.418 C 400.942 118.289 400.951 118.17 400.967 118.04 C 400.99 117.867 401.001 117.813 401.023 117.662 C 401.045 117.51 401.056 117.435 401.079 117.283 C 401.101 117.132 401.112 117.078 401.134 116.905 C 401.151 116.775 401.159 116.656 401.176 116.527 C 401.198 116.354 401.209 116.35 401.231 116.148 C 401.243 116.047 401.248 115.856 401.259 115.77 C 401.287 115.554 401.301 115.56 401.329 115.392 C 401.351 115.257 401.362 115.186 401.384 115.013 C 401.401 114.884 401.409 114.817 401.426 114.635 C 401.437 114.514 401.443 114.378 401.454 114.257 C 401.47 114.075 401.479 114.03 401.495 113.878 C 401.512 113.727 401.52 113.532 401.537 113.5 C 401.676 113.23 401.746 113.383 401.885 113.122 C 401.907 113.08 401.918 112.945 401.94 112.743 C 401.951 112.642 401.957 112.486 401.968 112.365 C 401.985 112.183 401.993 112.088 402.01 111.987 C 402.043 111.785 402.06 111.835 402.093 111.608 C 402.104 111.533 402.11 111.234 402.121 111.23 C 402.871 110.932 403.247 110.852 403.997 110.852 C 404.025 110.852 404.039 110.852 404.067 110.852 C 404.089 110.852 404.1 110.594 404.122 110.473 C 404.156 110.292 404.172 110.26 404.206 110.095 C 404.233 109.957 404.247 109.796 404.275 109.717 C 404.353 109.494 404.392 109.421 404.47 109.338 C 404.675 109.119 404.778 109.102 404.984 108.96 C 405.217 108.799 405.334 108.858 405.568 108.582 C 405.59 108.555 405.601 108.355 405.623 108.203 C 405.645 108.052 405.656 107.862 405.679 107.825 C 405.84 107.559 405.921 107.595 406.082 107.447 C 406.249 107.293 406.332 107.082 406.499 107.068 C 410.073 106.779 411.861 106.988 415.435 106.69 C 415.496 106.685 415.527 106.361 415.588 106.312 C 415.899 106.059 416.055 106.124 416.366 105.933 C 416.55 105.821 416.641 105.724 416.825 105.555 C 416.969 105.422 417.042 105.431 417.186 105.177 C 417.214 105.128 417.228 104.988 417.256 104.798 C 417.272 104.685 417.281 104.534 417.297 104.42 C 417.325 104.231 417.339 104.21 417.367 104.042 C 417.389 103.907 417.4 103.836 417.422 103.663 C 417.439 103.534 417.447 103.415 417.464 103.285 C 417.486 103.112 417.497 103.08 417.52 102.907 C 417.536 102.777 417.545 102.68 417.561 102.528 C 417.578 102.377 417.586 102.28 417.603 102.15 C 417.625 101.977 417.636 101.945 417.659 101.772 C 417.675 101.642 417.684 101.545 417.7 101.393 C 417.717 101.242 417.725 101.166 417.742 101.015 C 417.759 100.864 417.767 100.788 417.784 100.637 C 417.8 100.485 417.809 100.258 417.825 100.258 C 417.842 100.258 417.85 100.258 417.867 100.258 C 417.889 100.258 417.901 100.053 417.923 99.88 C 417.939 99.7503 417.948 99.653 417.964 99.5017 C 417.981 99.3503 417.989 99.1233 418.006 99.1233 C 418.023 99.1233 418.031 99.1233 418.048 99.1233 C 418.065 99.1233 418.073 98.9266 418.09 98.745 C 418.101 98.6239 418.106 98.4877 418.117 98.3667 C 418.134 98.1851 418.142 98.118 418.159 97.9883 C 418.181 97.8154 418.192 97.6427 418.215 97.61 C 418.398 97.3401 418.49 97.517 418.673 97.2317 C 418.684 97.2144 418.69 96.9542 418.701 96.8533 C 418.723 96.6516 418.734 96.6263 418.757 96.475 C 418.779 96.3237 418.79 96.2984 418.812 96.0967 C 418.823 95.9958 418.829 95.8394 418.84 95.7183 C 418.857 95.5367 418.865 95.3549 418.882 95.34 C 419.204 95.0522 419.365 95.2495 419.688 94.9617 C 419.704 94.9468 419.713 94.7649 419.729 94.5833 C 419.741 94.4623 419.746 94.2915 419.757 94.205 C 419.785 93.9888 419.799 93.8665 419.827 93.8267 C 420.01 93.5638 420.102 93.7258 420.285 93.4483 C 420.302 93.4231 420.31 93.1997 420.327 93.07 C 420.349 92.897 420.36 92.8646 420.383 92.6917 C 420.399 92.562 420.408 92.4647 420.424 92.3133 C 420.441 92.162 420.449 92.0863 420.466 91.935 C 420.483 91.7837 420.491 91.708 420.508 91.5567 C 420.524 91.4053 420.533 91.308 420.549 91.1783 C 420.572 91.0054 420.583 90.8319 420.605 90.8 C 420.794 90.5292 420.889 90.6022 421.078 90.4217 C 421.205 90.2995 421.269 90.3218 421.397 90.0433 C 421.408 90.0191 421.414 89.7407 421.425 89.665 C 421.458 89.438 421.475 89.4884 421.508 89.2867 C 421.525 89.1858 421.533 89.0218 421.55 88.9083 C 421.578 88.7192 421.592 88.7192 421.62 88.53 C 421.636 88.4165 421.645 88.303 421.661 88.1517 C 421.678 88.0003 421.686 87.8742 421.703 87.7733 C 421.736 87.5716 421.753 87.395 421.786 87.395 C 422.009 87.395 422.12 87.395 422.342 87.395 C 422.359 87.395 422.367 87.168 422.384 87.0167 C 422.401 86.8653 422.409 86.7897 422.426 86.6383 C 422.442 86.487 422.451 86.26 422.467 86.26 C 422.495 86.26 422.509 86.26 422.537 86.26 C 422.559 86.26 422.57 85.8872 422.592 85.8817 C 423.777 85.5846 424.369 85.8018 425.553 85.5033 C 425.569 85.4991 425.578 85.3066 425.594 85.125 C 425.605 85.0039 425.611 84.8331 425.622 84.7467 C 425.65 84.5305 425.664 84.5575 425.692 84.3683 C 425.708 84.2548 425.717 84.1035 425.733 83.99 C 425.761 83.8008 425.775 83.7798 425.803 83.6117 C 425.825 83.4771 425.836 83.4063 425.858 83.2333 C 425.875 83.1036 425.883 82.9847 425.9 82.855 C 425.922 82.682 425.933 82.6496 425.956 82.4767 C 425.972 82.347 425.981 82.2497 425.997 82.0983 C 426.014 81.947 426.022 81.8713 426.039 81.72 C 426.056 81.5687 426.064 81.4714 426.081 81.3417 C 426.103 81.1687 426.114 81.1363 426.136 80.9633 C 426.153 80.8336 426.161 80.7147 426.178 80.585 C 426.2 80.412 426.211 80.4084 426.234 80.2067 C 426.245 80.1058 426.25 79.9494 426.261 79.8283 C 426.278 79.6467 426.286 79.6013 426.303 79.45 C 426.32 79.2987 426.328 79.1149 426.345 79.0717 C 426.445 78.8122 426.495 78.9528 426.595 78.6933 C 426.612 78.6501 426.62 78.4663 426.637 78.315 C 426.653 78.1637 426.662 78.0664 426.678 77.9367 C 426.701 77.7637 426.712 77.7313 426.734 77.5583 C 426.751 77.4286 426.759 77.3097 426.776 77.18 C 426.798 77.007 426.809 76.9362 426.831 76.8017 C 426.859 76.6335 426.873 76.4414 426.901 76.4233 C 427.34 76.1387 427.56 76.3331 427.999 76.045 C 428.021 76.0304 428.032 75.8012 428.054 75.6667 C 428.082 75.4985 428.096 75.302 428.124 75.2883 C 428.713 74.9993 429.008 75.1494 429.597 74.91 C 429.753 74.8468 429.83 74.7738 429.986 74.5317 C 430.025 74.4711 430.044 74.3299 430.083 74.1533 C 430.111 74.0272 430.125 73.9642 430.153 73.775 C 430.17 73.6615 430.178 73.4086 430.195 73.3967 C 430.6 73.1059 430.803 73.3091 431.209 73.0183 C 431.226 73.0064 431.234 72.7409 431.251 72.64 C 431.284 72.4382 431.301 72.2673 431.334 72.2617 C 433.096 71.9646 433.978 72.1795 435.74 71.8833 C 435.779 71.8768 435.798 71.6563 435.837 71.505 C 435.876 71.3537 435.895 71.278 435.934 71.1267 C 435.973 70.9753 435.993 70.9602 436.032 70.7483 C 436.048 70.6575 436.057 70.3832 436.073 70.37 C 436.44 70.0805 436.624 70.1914 436.991 69.9917 C 437.18 69.8888 437.274 69.8841 437.463 69.6133 C 437.485 69.5815 437.497 69.3359 437.519 69.235 C 437.563 69.0332 437.585 69.0296 437.63 68.8567 C 437.663 68.727 437.68 68.6801 437.713 68.4783 C 437.73 68.3774 437.738 68.2135 437.755 68.1 C 437.783 67.9108 437.797 67.7705 437.824 67.7217 C 437.969 67.4678 438.041 67.5451 438.186 67.3433 C 438.258 67.2424 438.294 67.1836 438.367 66.965 C 438.394 66.8809 438.408 66.5867 438.436 66.5867 C 438.592 66.5867 438.669 66.5867 438.825 66.5867 C 438.847 66.5867 438.858 66.2532 438.881 66.2083 C 439.009 65.9505 439.073 66.07 439.2 65.83 C 439.234 65.7674 439.25 65.6534 439.284 65.4517 C 439.3 65.3508 439.309 65.2247 439.325 65.0733 C 439.342 64.922 439.35 64.8247 439.367 64.695 C 439.389 64.522 439.401 64.468 439.423 64.3167 C 439.445 64.1653 439.456 63.9387 439.478 63.9383 C 458.869 63.636 468.564 63.8591 487.954 63.56 C 488.182 63.5565 488.296 63.4514 488.524 63.1817 C 488.552 63.1488 488.566 62.8277 488.593 62.8033 C 488.91 62.5251 489.069 62.7078 489.386 62.425 C 489.408 62.4052 489.419 62.1812 489.441 62.0467 C 489.469 61.8785 489.483 61.8575 489.511 61.6683 C 489.527 61.5548 489.536 61.4035 489.552 61.29 C 489.58 61.1008 489.594 61.1008 489.622 60.9117 C 489.639 60.7982 489.647 60.5579 489.664 60.5333 C 489.853 60.2552 489.947 60.4123 490.136 60.155 C 490.169 60.1096 490.186 59.8179 490.219 59.7767 C 490.431 59.5153 490.536 59.6597 490.748 59.3983 C 490.781 59.3571 490.798 59.2016 490.831 59.02 C 490.853 58.8989 490.864 58.793 490.887 58.6417 C 490.909 58.4903 490.92 58.3979 490.942 58.2633 C 490.97 58.0952 490.984 58.0742 491.012 57.885 C 491.028 57.7715 491.037 57.658 491.053 57.5067 C 491.07 57.3553 491.078 57.258 491.095 57.1283 C 491.117 56.9554 491.128 56.923 491.151 56.75 C 491.167 56.6203 491.176 56.523 491.192 56.3717 C 491.209 56.2203 491.217 56.0387 491.234 55.9933 C 491.329 55.7361 491.376 55.86 491.47 55.615 C 491.492 55.5574 491.504 55.3467 491.526 55.2367 C 491.565 55.0441 491.584 54.9996 491.623 54.8583 C 491.668 54.6969 491.69 54.5204 491.734 54.48 C 492.023 54.2177 492.168 54.373 492.457 54.1017 C 492.49 54.0704 492.507 53.8884 492.54 53.7233 C 492.568 53.5858 492.582 53.3838 492.61 53.345 C 492.799 53.0811 492.893 53.2305 493.082 52.9667 C 493.11 52.9279 493.124 52.7397 493.152 52.5883 C 493.18 52.437 493.194 52.3613 493.221 52.21 C 493.249 52.0587 493.263 51.983 493.291 51.8317 C 493.319 51.6803 493.333 51.6215 493.36 51.4533 C 493.383 51.3188 493.394 51.248 493.416 51.075 C 493.433 50.9453 493.441 50.8102 493.458 50.6967 C 493.485 50.5075 493.499 50.4865 493.527 50.3183 C 493.549 50.1838 493.561 50.0913 493.583 49.94 C 493.605 49.7887 493.616 49.5766 493.638 49.5617 C 494.066 49.2739 494.28 49.1833 494.708 49.1833 C 494.948 49.1833 495.067 49.1833 495.306 49.1833 C 495.373 49.1833 495.406 49.0186 495.473 48.805 C 495.501 48.716 495.515 48.5528 495.542 48.4267 C 495.581 48.2501 495.601 48.2249 495.64 48.0483 C 495.667 47.9222 495.681 47.7305 495.709 47.67 C 495.82 47.4279 495.876 47.5338 495.987 47.2917 C 496.015 47.2311 496.029 46.9197 496.057 46.9133 C 497.346 46.6171 497.991 46.8072 499.281 46.535 C 499.425 46.5045 499.498 46.4026 499.642 46.1567 C 499.676 46.0999 499.692 45.9801 499.726 45.7783 C 499.742 45.6774 499.751 45.5297 499.767 45.4 C 499.79 45.227 499.801 45.1562 499.823 45.0217 C 499.851 44.8535 499.865 44.6663 499.892 44.6433 C 500.231 44.3636 500.401 44.5447 500.74 44.265 C 500.768 44.2421 500.782 43.902 500.81 43.8867 C 501.332 43.5993 501.593 43.7986 502.116 43.5083 C 502.138 43.496 502.149 43.303 502.172 43.13 C 502.188 43.0003 502.197 42.903 502.213 42.7517 C 502.23 42.6003 502.238 42.503 502.255 42.3733 C 502.277 42.2004 502.288 42.1463 502.311 41.995 C 502.333 41.8437 502.344 41.7267 502.366 41.6167 C 502.405 41.4241 502.425 41.4502 502.463 41.2383 C 502.48 41.1475 502.488 40.9609 502.505 40.86 C 502.539 40.6582 502.555 40.6468 502.589 40.4817 C 502.616 40.3441 502.63 40.3195 502.658 40.1033 C 502.669 40.0169 502.675 39.8461 502.686 39.725 C 502.703 39.5434 502.711 39.4602 502.728 39.3467 C 502.755 39.1575 502.769 39.0944 502.797 38.9683 C 502.836 38.7918 502.855 38.7146 502.894 38.59 C 502.95 38.412 502.978 38.2805 503.033 38.2117 C 503.222 37.9778 503.317 37.8333 503.506 37.8333 C 503.528 37.8333 503.539 37.8333 503.561 37.8333 C 503.589 37.8333 503.603 37.6231 503.631 37.455 C 503.653 37.3205 503.664 37.228 503.686 37.0767 C 503.709 36.9253 503.72 36.8084 503.742 36.6983 C 503.781 36.5057 503.8 36.4966 503.839 36.32 C 503.867 36.1939 503.881 35.9769 503.909 35.9417 C 504.12 35.6742 504.226 35.8247 504.437 35.5633 C 504.47 35.5221 504.487 35.3147 504.52 35.185 C 504.565 35.012 504.587 35.0268 504.632 34.8067 C 504.648 34.7241 504.657 34.4435 504.673 34.4283 C 504.99 34.1408 505.149 34.2279 505.465 34.05 C 505.688 33.9252 505.799 33.9468 506.021 33.6717 C 506.044 33.6441 506.055 33.3261 506.077 33.2933 C 506.26 33.0234 506.352 33.1778 506.536 32.915 C 506.563 32.8752 506.577 32.6207 506.605 32.5367 C 506.677 32.3181 506.713 32.2403 506.786 32.1583 C 506.98 31.9376 507.078 32.0322 507.272 31.78 C 507.311 31.7296 507.331 31.5943 507.369 31.4017 C 507.392 31.2916 507.403 31.1963 507.425 31.0233 C 507.442 30.8936 507.45 30.6734 507.467 30.645 C 507.628 30.3707 507.709 30.541 507.87 30.2667 C 507.886 30.2383 507.895 29.9081 507.911 29.8883 C 508.15 29.6054 508.27 29.7756 508.509 29.51 C 508.542 29.4729 508.559 29.283 508.592 29.1317 C 508.626 28.9803 508.642 28.893 508.676 28.7533 C 508.715 28.5904 508.734 28.4174 508.773 28.375 C 509.012 28.1147 509.132 28.2859 509.371 27.9967 C 509.382 27.9832 509.387 27.7192 509.398 27.6183 C 509.421 27.4166 509.432 27.2884 509.454 27.24 C 509.571 26.9858 509.629 27.1159 509.746 26.8617 C 509.768 26.8132 509.779 26.6563 509.802 26.4833 C 509.818 26.3536 509.827 26.2347 509.843 26.105 C 509.865 25.932 509.877 25.7613 509.899 25.7267 C 510.071 25.4586 510.157 25.6164 510.33 25.3483 C 510.352 25.3137 510.363 25.1213 510.385 24.97 C 510.408 24.8187 510.419 24.6848 510.441 24.5917 C 510.491 24.3821 510.516 24.4079 510.566 24.2133 C 510.594 24.1052 510.608 23.835 510.635 23.835 C 510.68 23.835 510.702 23.835 510.747 23.835 C 510.763 23.835 510.772 23.5576 510.788 23.4567 C 510.822 23.2549 510.838 23.2801 510.872 23.0783 C 510.888 22.9774 510.897 22.8816 510.913 22.7 C 510.924 22.5789 510.941 22.3217 510.941 22.3217"  /></g><g class="highcharts-markers" visibility="visible" clip-path="none" transform="translate(74 72) scale(1)"  /></g><text class="highcharts-title" style="width: 536px; color: rgb(51, 51, 51); font-size: 18px; fill: #333333;" text-anchor="middle" x="300" y="25" ><tspan>Questions Correct Over Time</tspan></text><text class="highcharts-subtitle" style="width: 536px; color: rgb(85, 85, 85); fill: #555555;" text-anchor="middle" x="300" y="53" ><tspan>Click and drag in the plot area to zoom in</tspan></text><g class="highcharts-legend" transform="translate(255 364)" ><g ><g><g class="highcharts-legend-item" transform="translate(8 3)" ><path fill="none" stroke="#9ab2d6" stroke-width="2" d="M 0 11 L 16 11" /><path fill="#9ab2d6" d="M 8 7 C 13.328 7 13.328 15 8 15 C 2.672 15 2.672 7 8 7 Z" /><text style="color: rgb(51, 51, 51); font-size: 12px; font-weight: bold; cursor: pointer; fill: #333333;" text-anchor="start" x="21" y="15" >Questions</text></g></g></g></g><g class="highcharts-axis-labels highcharts-xaxis-labels" ><text style="color: rgb(96, 96, 96); font-size: 11px; cursor: default; fill: #606060;" opacity="1" text-anchor="middle" x="118.0007" y="319"><tspan>02:00 PM</tspan></text><text style="color: rgb(96, 96, 96); font-size: 11px; cursor: default; fill: #606060;" opacity="1" text-anchor="middle" x="218.0653" y="319"><tspan>04:00 PM</tspan></text><text style="color: rgb(96, 96, 96); font-size: 11px; cursor: default; fill: #606060;" opacity="1" text-anchor="middle" x="318.13" y="319"><tspan>06:00 PM</tspan></text><text style="color: rgb(96, 96, 96); font-size: 11px; cursor: default; fill: #606060;" opacity="1" text-anchor="middle" x="418.1946" y="319"><tspan>08:00 PM</tspan></text><text style="color: rgb(96, 96, 96); font-size: 11px; cursor: default; fill: #606060;" opacity="1" text-anchor="middle" x="518.2592" y="319"><tspan>10:00 PM</tspan></text></g><g class="highcharts-axis-labels highcharts-yaxis-labels" ><text style="width: 178px; color: rgb(96, 96, 96); font-size: 11px; cursor: default; fill: #606060;" opacity="1" text-anchor="end" x="59" y="304">0</text><text style="width: 178px; color: rgb(96, 96, 96); font-size: 11px; cursor: default; fill: #606060;" opacity="1" text-anchor="end" x="59" y="228.3333">200</text><text style="width: 178px; color: rgb(96, 96, 96); font-size: 11px; cursor: default; fill: #606060;" opacity="1" text-anchor="end" x="59" y="152.6667">400</text><text style="width: 178px; color: rgb(96, 96, 96); font-size: 11px; cursor: default; fill: #606060;" opacity="1" text-anchor="end" x="59" y="77">600</text></g><g class="highcharts-tooltip" style="padding: 0px; white-space: nowrap; cursor: default;" transform="translate(0 -9999)" ><path fill="none" stroke="black" stroke-opacity="0.05" stroke-width="5" transform="translate(1 1)" d="M 3 0 L 13 0 C 16 0 16 0 16 3 L 16 13 C 16 16 16 16 13 16 L 3 16 C 0 16 0 16 0 13 L 0 3 C 0 0 0 0 3 0"  /><path fill="none" stroke="black" stroke-opacity="0.1" stroke-width="3" transform="translate(1 1)" d="M 3 0 L 13 0 C 16 0 16 0 16 3 L 16 13 C 16 16 16 16 13 16 L 3 16 C 0 16 0 16 0 13 L 0 3 C 0 0 0 0 3 0"  /><path fill="none" stroke="black" stroke-opacity="0.15" stroke-width="1" transform="translate(1 1)" d="M 3 0 L 13 0 C 16 0 16 0 16 3 L 16 13 C 16 16 16 16 13 16 L 3 16 C 0 16 0 16 0 13 L 0 3 C 0 0 0 0 3 0"  /><path fill="rgb(249, 249, 249)" fill-opacity=" 0.85" d="M 3 0 L 13 0 C 16 0 16 0 16 3 L 16 13 C 16 16 16 16 13 16 L 3 16 C 0 16 0 16 0 13 L 0 3 C 0 0 0 0 3 0" /><text style="color: rgb(51, 51, 51); font-size: 12px; fill: #333333;" x="8" y="21" ></text></g><text style="color: rgb(144, 144, 144); font-size: 9px; cursor: pointer; fill: #909090;" text-anchor="end" x="590" y="395" >Highcharts.com</text></svg>