<svg xmlns:xlink="http://www.w3.org/1999/xlink" version="1.1" style="font-family:'lucida grande', 'lucida sans unicode', arial, helvetica, sans-serif;font-size:12px;" xmlns="http://www.w3.org/2000/svg" width="600" height="400"><desc>Created with Highcharts 4.0.4</desc><defs><clipPath id="highcharts-29"><rect x="0" y="0" width="523" height="225"></rect></clipPath></defs><rect x="0" y="0" width="600" height="400" strokeWidth="0" fill="#FFFFFF" class=" highcharts-background"></rect><g class="highcharts-grid" ></g><g class="highcharts-grid" ><path fill="none" d="M 67 70.5 L 590 70.5" stroke="#C0C0C0" stroke-width="1"  opacity="1"></path><path fill="none" d="M 67 146.5 L 590 146.5" stroke="#C0C0C0" stroke-width="1"  opacity="1"></path><path fill="none" d="M 67 221.5 L 590 221.5" stroke="#C0C0C0" stroke-width="1"  opacity="1"></path><path fill="none" d="M 67 296.5 L 590 296.5" stroke="#C0C0C0" stroke-width="1"  opacity="1"></path></g><g class="highcharts-axis" ><path fill="none" d="M 272.5 296 L 272.5 306" stroke="#C0D0E0" stroke-width="1" opacity="1"></path><path fill="none" d="M 392.5 296 L 392.5 306" stroke="#C0D0E0" stroke-width="1" opacity="1"></path><path fill="none" d="M 512.5 296 L 512.5 306" stroke="#C0D0E0" stroke-width="1" opacity="1"></path><path fill="none" d="M 152.5 296 L 152.5 306" stroke="#C0D0E0" stroke-width="1" opacity="1"></path><text x="328.5"  text-anchor="middle" transform="translate(0,0)" class=" highcharts-xaxis-title" style="color:#707070;fill:#707070;" visibility="visible" y="338">Time</text><path fill="none" d="M 67 296.5 L 590 296.5" stroke="#C0D0E0" stroke-width="1"  visibility="visible"></path></g><g class="highcharts-axis" ><text x="28.046875"  text-anchor="middle" transform="translate(0,0) rotate(270 28.046875 183.5)" class=" highcharts-yaxis-title" style="color:#707070;fill:#707070;" visibility="visible" y="183.5"><tspan>Questions Correct</tspan></text></g><g class="highcharts-series-group" ><g class="highcharts-series" visibility="visible"  transform="translate(67,71) scale(1 1)" clip-path="url(#highcharts-29)"><path fill="none" d="M 5.127450980392157 217.5 C 5.127450980392157 217.5 5.287413054393733 213 5.394054437061449 210 C 5.500695819729165 207 5.554016511063024 205.02631578947367 5.660657893730741 202.5 C 5.8072897948988516 199.02631578947367 5.880605745482906 197.75 6.027237646651017 195 C 6.200529893486056 191.75 6.287176016903577 190.62 6.460468263738616 187.5 C 6.620430337740191 184.62 6.700411374740979 182.88 6.860373448742554 180 C 7.033665695577594 176.88 7.1203118189951145 175.8913043478261 7.293604065830154 172.5 C 7.4269057941648 169.8913043478261 7.493556658332122 165.92307692307693 7.626858386666768 165 C 8.36001789250732 159.92307692307693 8.726597645427598 159.364406779661 9.45975715126815 157.5 C 11.08603823695083 153.364406779661 11.899178779792171 155.50375939849624 13.525459865474852 150 C 13.672091766642964 149.50375939849624 13.74540771722702 145.49999999999997 13.89203961839513 142.5 C 14.038671519563241 139.49999999999997 14.111987470147294 135.00481716663018 14.258619371315405 135 C 196.74868546144575 129.00481716663018 287.99371850651085 133.47251508761724 470.4837845966412 127.5 C 471.32358548514947 127.47251508761725 471.7434859294036 125.3239436619719 472.58328681791187 120 C 472.6899282005796 119.3239436619719 472.7432488919135 115.69999999999955 472.8498902745812 112.5 C 472.94320148441545 109.69999999999955 472.98985708933253 105 473.0831682991668 105 C 473.3231114101692 105 473.4430829656703 105 473.6830260766727 105 C 473.7763372865069 105 473.8229928914241 99.71052631578955 473.91630410125833 97.5 C 474.07626617525983 93.71052631578955 474.15624721226067 90.69230769230782 474.3162092862623 90 C 475.54258518694104 84.69230769230782 476.15577313728045 87.56422018348621 477.38214903795915 82.5 C 477.60876197612805 81.56422018348621 477.7220684452124 76.00000000000021 477.94868138338137 75 C 479.08174607422586 70.00000000000021 479.64827841964814 72.75773195876297 480.7813431104926 67.5 C 480.9413051844942 66.75773195876297 481.021286221495 60.87804878048772 481.1812482954966 60 C 482.1143603938391 54.87804878048772 482.5809164430103 52.89772727272727 483.51402854135284 52.5 C 496.6575789551489 46.89772727272727 503.229354162047 50.93380140421263 516.3729045758431 45 C 516.5195364770112 44.93380140421263 516.5928524275953 40.5 516.7394843287634 37.5 C 516.8861162299315 34.5 516.9594321805155 33.1428571428568 517.1060640816836 30 C 517.2393658100183 27.142857142856794 517.3060166741856 25.108695652173814 517.4393184025203 22.5 C 517.6126106493554 19.108695652173814 517.8725490196078 15 517.8725490196078 15" stroke="#9ab2d6" stroke-width="2"  stroke-linejoin="round" stroke-linecap="round"></path></g><g class="highcharts-markers" visibility="visible"  transform="translate(67,71) scale(1 1)" clip-path="none"><path fill="rgb(8, 243, 53)" d="M 517 11 C 522.328 11 522.328 19 517 19 C 511.672 19 511.672 11 517 11 Z"></path><path fill="rgb(8, 243, 53)" d="M 517 18.5 C 522.328 18.5 522.328 26.5 517 26.5 C 511.672 26.5 511.672 18.5 517 18.5 Z"></path><path fill="rgb(8, 243, 53)" d="M 517 26 C 522.328 26 522.328 34 517 34 C 511.672 34 511.672 26 517 26 Z"></path><path fill="rgb(8, 243, 53)" d="M 516 33.5 C 521.328 33.5 521.328 41.5 516 41.5 C 510.672 41.5 510.672 33.5 516 33.5 Z"></path><path fill="rgb(8, 243, 53)" d="M 516 41 C 521.328 41 521.328 49 516 49 C 510.672 49 510.672 41 516 41 Z"></path><path fill="rgb(8, 243, 53)" d="M 483 48.5 C 488.328 48.5 488.328 56.5 483 56.5 C 477.672 56.5 477.672 48.5 483 48.5 Z"></path><path fill="rgb(8, 243, 53)" d="M 481 56 C 486.328 56 486.328 64 481 64 C 475.672 64 475.672 56 481 56 Z"></path><path fill="rgb(8, 243, 53)" d="M 480 63.5 C 485.328 63.5 485.328 71.5 480 71.5 C 474.672 71.5 474.672 63.5 480 63.5 Z"></path><path fill="rgb(8, 243, 53)" d="M 477 71 C 482.328 71 482.328 79 477 79 C 471.672 79 471.672 71 477 71 Z"></path><path fill="rgb(8, 243, 53)" d="M 477 78.5 C 482.328 78.5 482.328 86.5 477 86.5 C 471.672 86.5 471.672 78.5 477 78.5 Z"></path><path fill="rgb(8, 243, 53)" d="M 474 86 C 479.328 86 479.328 94 474 94 C 468.672 94 468.672 86 474 86 Z"></path><path fill="rgb(8, 243, 53)" d="M 473 93.5 C 478.328 93.5 478.328 101.5 473 101.5 C 467.672 101.5 467.672 93.5 473 93.5 Z"></path><path fill="rgb(245, 64, 50)" d="M 473 101 C 478.328 101 478.328 109 473 109 C 467.672 109 467.672 101 473 101 Z"></path><path fill="rgb(8, 243, 53)" d="M 473 101 C 478.328 101 478.328 109 473 109 C 467.672 109 467.672 101 473 101 Z"></path><path fill="rgb(8, 243, 53)" d="M 472 108.5 C 477.328 108.5 477.328 116.5 472 116.5 C 466.672 116.5 466.672 108.5 472 108.5 Z"></path><path fill="rgb(8, 243, 53)" d="M 472 116 C 477.328 116 477.328 124 472 124 C 466.672 124 466.672 116 472 116 Z"></path><path fill="rgb(8, 243, 53)" d="M 470 123.5 C 475.328 123.5 475.328 131.5 470 131.5 C 464.672 131.5 464.672 123.5 470 123.5 Z"></path><path fill="rgb(8, 243, 53)" d="M 14 131 C 19.328 131 19.328 139 14 139 C 8.672 139 8.672 131 14 131 Z"></path><path fill="rgb(8, 243, 53)" d="M 13 138.5 C 18.328 138.5 18.328 146.5 13 146.5 C 7.672 146.5 7.672 138.5 13 138.5 Z"></path><path fill="rgb(8, 243, 53)" d="M 13 146 C 18.328 146 18.328 154 13 154 C 7.672 154 7.672 146 13 146 Z"></path><path fill="rgb(8, 243, 53)" d="M 9 153.5 C 14.328 153.5 14.328 161.5 9 161.5 C 3.6719999999999997 161.5 3.6719999999999997 153.5 9 153.5 Z"></path><path fill="rgb(8, 243, 53)" d="M 7 161 C 12.328 161 12.328 169 7 169 C 1.672 169 1.672 161 7 161 Z"></path><path fill="rgb(8, 243, 53)" d="M 7 168.5 C 12.328 168.5 12.328 176.5 7 176.5 C 1.672 176.5 1.672 168.5 7 168.5 Z"></path><path fill="rgb(8, 243, 53)" d="M 6 176 C 11.328 176 11.328 184 6 184 C 0.6719999999999999 184 0.6719999999999999 176 6 176 Z"></path><path fill="rgb(8, 243, 53)" d="M 6 183.5 C 11.328 183.5 11.328 191.5 6 191.5 C 0.6719999999999999 191.5 0.6719999999999999 183.5 6 183.5 Z"></path><path fill="rgb(8, 243, 53)" d="M 6 191 C 11.328 191 11.328 199 6 199 C 0.6719999999999999 199 0.6719999999999999 191 6 191 Z"></path><path fill="rgb(8, 243, 53)" d="M 5 198.5 C 10.328 198.5 10.328 206.5 5 206.5 C -0.32800000000000007 206.5 -0.32800000000000007 198.5 5 198.5 Z"></path><path fill="rgb(8, 243, 53)" d="M 5 206 C 10.328 206 10.328 214 5 214 C -0.32800000000000007 214 -0.32800000000000007 206 5 206 Z"></path><path fill="rgb(8, 243, 53)" d="M 5 213.5 C 10.328 213.5 10.328 221.5 5 221.5 C -0.32800000000000007 221.5 -0.32800000000000007 213.5 5 213.5 Z"></path></g></g><text x="300" text-anchor="middle" class="highcharts-title"  style="color:#333333;font-size:18px;fill:#333333;width:536px;" y="25"><tspan>Questions Correct Over Time</tspan></text><text x="300" text-anchor="middle" class="highcharts-subtitle"  style="color:#555555;fill:#555555;width:536px;" y="53"><tspan>Click and drag in the plot area to zoom in</tspan></text><g class="highcharts-legend"  transform="translate(255,364)"><g ><g><g class="highcharts-legend-item"  transform="translate(8,3)"><path fill="none" d="M 0 11 L 16 11" stroke="#9ab2d6" stroke-width="2"></path><path fill="#9ab2d6" d="M 8 7 C 13.328 7 13.328 15 8 15 C 2.6719999999999997 15 2.6719999999999997 7 8 7 Z"></path><text x="21" style="color:#333333;font-size:12px;font-weight:bold;cursor:pointer;fill:#333333;" text-anchor="start"  y="15">Questions</text></g></g></g></g><g class="highcharts-axis-labels highcharts-xaxis-labels" ><text x="152.80832205493664" text-anchor="middle" style="color:#606060;cursor:default;font-size:11px;fill:#606060;" y="316" opacity="1"><tspan>12:00 PM</tspan></text><text x="272.779877556118" text-anchor="middle" style="color:#606060;cursor:default;font-size:11px;fill:#606060;" y="316" opacity="1"><tspan>01:00 PM</tspan></text><text x="392.7514330572994" text-anchor="middle" style="color:#606060;cursor:default;font-size:11px;fill:#606060;" y="316" opacity="1"><tspan>02:00 PM</tspan></text><text x="512.7229885584807" text-anchor="middle" style="color:#606060;cursor:default;font-size:11px;fill:#606060;" y="316" opacity="1"><tspan>03:00 PM</tspan></text></g><g class="highcharts-axis-labels highcharts-yaxis-labels" ><text x="52" text-anchor="end" style="width:178px;color:#606060;cursor:default;font-size:11px;fill:#606060;" y="299.5" opacity="1">0</text><text x="52" text-anchor="end" style="width:178px;color:#606060;cursor:default;font-size:11px;fill:#606060;" y="224.5" opacity="1">10</text><text x="52" text-anchor="end" style="width:178px;color:#606060;cursor:default;font-size:11px;fill:#606060;" y="149.5" opacity="1">20</text><text x="52" text-anchor="end" style="width:178px;color:#606060;cursor:default;font-size:11px;fill:#606060;" y="74.5" opacity="1">30</text></g><g class="highcharts-tooltip"  style="cursor:default;padding:0;white-space:nowrap;" transform="translate(0,-9999)"><path fill="none" d="M 3 0 L 13 0 C 16 0 16 0 16 3 L 16 13 C 16 16 16 16 13 16 L 3 16 C 0 16 0 16 0 13 L 0 3 C 0 0 0 0 3 0"  stroke="black" stroke-opacity="0.049999999999999996" stroke-width="5" transform="translate(1, 1)"></path><path fill="none" d="M 3 0 L 13 0 C 16 0 16 0 16 3 L 16 13 C 16 16 16 16 13 16 L 3 16 C 0 16 0 16 0 13 L 0 3 C 0 0 0 0 3 0"  stroke="black" stroke-opacity="0.09999999999999999" stroke-width="3" transform="translate(1, 1)"></path><path fill="none" d="M 3 0 L 13 0 C 16 0 16 0 16 3 L 16 13 C 16 16 16 16 13 16 L 3 16 C 0 16 0 16 0 13 L 0 3 C 0 0 0 0 3 0"  stroke="black" stroke-opacity="0.15" stroke-width="1" transform="translate(1, 1)"></path><path fill="rgb(249, 249, 249)" fill-opacity=" .85" d="M 3 0 L 13 0 C 16 0 16 0 16 3 L 16 13 C 16 16 16 16 13 16 L 3 16 C 0 16 0 16 0 13 L 0 3 C 0 0 0 0 3 0"></path><text x="8"  style="font-size:12px;color:#333333;fill:#333333;" y="21"></text></g><text x="590" text-anchor="end"  style="cursor:pointer;color:#909090;font-size:9px;fill:#909090;" y="395">Highcharts.com</text></svg>