<svg xmlns:xlink="http://www.w3.org/1999/xlink" version="1.1" style="font-family:'lucida grande', 'lucida sans unicode', arial, helvetica, sans-serif;font-size:12px;" xmlns="http://www.w3.org/2000/svg" width="600" height="400"><desc>Created with Highcharts 4.0.4</desc><defs><clipPath id="highcharts-5"><rect x="0" y="0" width="513" height="225"></rect></clipPath></defs><rect x="0" y="0" width="600" height="400" strokeWidth="0" fill="#FFFFFF" class=" highcharts-background"></rect><g class="highcharts-grid" ></g><g class="highcharts-grid" ><path fill="none" d="M 77 70.5 L 590 70.5" stroke="#C0C0C0" stroke-width="1"  opacity="1"></path><path fill="none" d="M 77 116.5 L 590 116.5" stroke="#C0C0C0" stroke-width="1"  opacity="1"></path><path fill="none" d="M 77 161.5 L 590 161.5" stroke="#C0C0C0" stroke-width="1"  opacity="1"></path><path fill="none" d="M 77 206.5 L 590 206.5" stroke="#C0C0C0" stroke-width="1"  opacity="1"></path><path fill="none" d="M 77 251.5 L 590 251.5" stroke="#C0C0C0" stroke-width="1"  opacity="1"></path><path fill="none" d="M 77 296.5 L 590 296.5" stroke="#C0C0C0" stroke-width="1"  opacity="1"></path></g><g class="highcharts-axis" ><path fill="none" d="M 195.5 296 L 195.5 306" stroke="#C0D0E0" stroke-width="1" opacity="1"></path><path fill="none" d="M 310.5 296 L 310.5 306" stroke="#C0D0E0" stroke-width="1" opacity="1"></path><path fill="none" d="M 424.5 296 L 424.5 306" stroke="#C0D0E0" stroke-width="1" opacity="1"></path><path fill="none" d="M 538.5 296 L 538.5 306" stroke="#C0D0E0" stroke-width="1" opacity="1"></path><path fill="none" d="M 81.5 296 L 81.5 306" stroke="#C0D0E0" stroke-width="1" opacity="1"></path><text x="333.5"  text-anchor="middle" transform="translate(0,0)" class=" highcharts-xaxis-title" style="color:#707070;fill:#707070;" visibility="visible" y="338">Time</text><path fill="none" d="M 77 296.5 L 590 296.5" stroke="#C0D0E0" stroke-width="1"  visibility="visible"></path></g><g class="highcharts-axis" ><text x="27.65625"  text-anchor="middle" transform="translate(0,0) rotate(270 27.65625 183.5)" class=" highcharts-yaxis-title" style="color:#707070;fill:#707070;" visibility="visible" y="183.5"><tspan>Questions Correct</tspan></text></g><g class="highcharts-series-group" ><g class="highcharts-series" visibility="visible"  transform="translate(77,71) scale(1 1)" clip-path="url(#highcharts-5)"><path fill="none" d="M 5.029411764705882 207 C 5.029411764705882 207 32.462566844919785 189 50.75133689839572 189 C 69.04010695187165 189 78.18449197860961 189 96.47326203208556 189 C 105.61764705882351 189 110.18983957219253 175.79999999999998 119.33422459893049 171 C 137.62299465240642 161.4 146.7673796791444 160.2 165.05614973262033 153 C 183.34491978609626 145.8 192.48930481283423 142.2 210.77807486631016 135 C 229.06684491978612 127.8 238.21122994652404 124.2 256.5 117 C 274.78877005347596 109.8 283.9331550802139 107.22857142857144 302.22192513368987 99 C 315.9385026737968 92.82857142857144 322.7967914438503 87.17142857142856 336.5133689839572 81 C 354.80213903743316 72.77142857142856 363.9465240641711 69.4 382.2352941176471 63 C 405.096256684492 55 416.5267379679144 51.54545454545455 439.38770053475935 45 C 466.82085561497325 37.14545454545454 507.97058823529414 27 507.97058823529414 27" stroke="#9ab2d6" stroke-width="2"  stroke-linejoin="round" stroke-linecap="round"></path></g><g class="highcharts-markers" visibility="visible"  transform="translate(77,71) scale(1 1)" clip-path="none"><path fill="rgb(8, 243, 53)" d="M 507 23 C 512.328 23 512.328 31 507 31 C 501.672 31 501.672 23 507 23 Z"></path><path fill="rgb(8, 243, 53)" d="M 439 41 C 444.328 41 444.328 49 439 49 C 433.672 49 433.672 41 439 41 Z"></path><path fill="rgb(8, 243, 53)" d="M 382 59 C 387.328 59 387.328 67 382 67 C 376.672 67 376.672 59 382 59 Z"></path><path fill="rgb(8, 243, 53)" d="M 336 77 C 341.328 77 341.328 85 336 85 C 330.672 85 330.672 77 336 77 Z"></path><path fill="rgb(8, 243, 53)" d="M 302 95 C 307.328 95 307.328 103 302 103 C 296.672 103 296.672 95 302 95 Z"></path><path fill="rgb(8, 243, 53)" d="M 256 113 C 261.328 113 261.328 121 256 121 C 250.672 121 250.672 113 256 113 Z"></path><path fill="rgb(8, 243, 53)" d="M 210 131 C 215.328 131 215.328 139 210 139 C 204.672 139 204.672 131 210 131 Z"></path><path fill="rgb(8, 243, 53)" d="M 165 149 C 170.328 149 170.328 157 165 157 C 159.672 157 159.672 149 165 149 Z"></path><path fill="rgb(8, 243, 53)" d="M 119 167 C 124.328 167 124.328 175 119 175 C 113.672 175 113.672 167 119 167 Z"></path><path fill="rgb(245, 64, 50)" d="M 96 185 C 101.328 185 101.328 193 96 193 C 90.672 193 90.672 185 96 185 Z"></path><path fill="rgb(8, 243, 53)" d="M 50 185 C 55.328 185 55.328 193 50 193 C 44.672 193 44.672 185 50 185 Z"></path><path fill="rgb(8, 243, 53)" d="M 5 203 C 10.328 203 10.328 211 5 211 C -0.32800000000000007 211 -0.32800000000000007 203 5 203 Z"></path></g></g><text x="300" text-anchor="middle" class="highcharts-title"  style="color:#333333;font-size:18px;fill:#333333;width:536px;" y="25"><tspan>Questions Correct Over Time</tspan></text><text x="300" text-anchor="middle" class="highcharts-subtitle"  style="color:#555555;fill:#555555;width:536px;" y="53"><tspan>Click and drag in the plot area to zoom in</tspan></text><g class="highcharts-legend"  transform="translate(255,364)"><g ><g><g class="highcharts-legend-item"  transform="translate(8,3)"><path fill="none" d="M 0 11 L 16 11" stroke="#9ab2d6" stroke-width="2"></path><path fill="#9ab2d6" d="M 8 7 C 13.328 7 13.328 15 8 15 C 2.6719999999999997 15 2.6719999999999997 7 8 7 Z"></path><text x="21" style="color:#333333;font-size:12px;font-weight:bold;cursor:pointer;fill:#333333;" text-anchor="start"  y="15">Questions</text></g></g></g></g><g class="highcharts-axis-labels highcharts-xaxis-labels" ><text x="82.02941176470588" text-anchor="middle" style="color:#606060;cursor:default;font-size:11px;fill:#606060;" y="316" opacity="1"><tspan>04:26 PM</tspan></text><text x="196.3342245989305" text-anchor="middle" style="color:#606060;cursor:default;font-size:11px;fill:#606060;" y="316" opacity="1"><tspan>04:26 PM</tspan></text><text x="310.63903743315507" text-anchor="middle" style="color:#606060;cursor:default;font-size:11px;fill:#606060;" y="316" opacity="1"><tspan>04:26 PM</tspan></text><text x="424.9438502673797" text-anchor="middle" style="color:#606060;cursor:default;font-size:11px;fill:#606060;" y="316" opacity="1"><tspan>04:26 PM</tspan></text><text x="539.2486631016043" text-anchor="middle" style="color:#606060;cursor:default;font-size:11px;fill:#606060;" y="316" opacity="1"><tspan>04:26 PM</tspan></text></g><g class="highcharts-axis-labels highcharts-yaxis-labels" ><text x="62" text-anchor="end" style="width:178px;color:#606060;cursor:default;font-size:11px;fill:#606060;" y="299.5" opacity="1">0</text><text x="62" text-anchor="end" style="width:178px;color:#606060;cursor:default;font-size:11px;fill:#606060;" y="119.5" opacity="1">10</text><text x="62" text-anchor="end" style="width:178px;color:#606060;cursor:default;font-size:11px;fill:#606060;" y="254.5" opacity="1">2.5</text><text x="62" text-anchor="end" style="width:178px;color:#606060;cursor:default;font-size:11px;fill:#606060;" y="209.5" opacity="1">5</text><text x="62" text-anchor="end" style="width:178px;color:#606060;cursor:default;font-size:11px;fill:#606060;" y="164.5" opacity="1">7.5</text><text x="62" text-anchor="end" style="width:178px;color:#606060;cursor:default;font-size:11px;fill:#606060;" y="74.5" opacity="1">12.5</text></g><g class="highcharts-tooltip"  style="cursor:default;padding:0;white-space:nowrap;" transform="translate(0,-9999)"><path fill="none" d="M 3 0 L 13 0 C 16 0 16 0 16 3 L 16 13 C 16 16 16 16 13 16 L 3 16 C 0 16 0 16 0 13 L 0 3 C 0 0 0 0 3 0"  stroke="black" stroke-opacity="0.049999999999999996" stroke-width="5" transform="translate(1, 1)"></path><path fill="none" d="M 3 0 L 13 0 C 16 0 16 0 16 3 L 16 13 C 16 16 16 16 13 16 L 3 16 C 0 16 0 16 0 13 L 0 3 C 0 0 0 0 3 0"  stroke="black" stroke-opacity="0.09999999999999999" stroke-width="3" transform="translate(1, 1)"></path><path fill="none" d="M 3 0 L 13 0 C 16 0 16 0 16 3 L 16 13 C 16 16 16 16 13 16 L 3 16 C 0 16 0 16 0 13 L 0 3 C 0 0 0 0 3 0"  stroke="black" stroke-opacity="0.15" stroke-width="1" transform="translate(1, 1)"></path><path fill="rgb(249, 249, 249)" fill-opacity=" .85" d="M 3 0 L 13 0 C 16 0 16 0 16 3 L 16 13 C 16 16 16 16 13 16 L 3 16 C 0 16 0 16 0 13 L 0 3 C 0 0 0 0 3 0"></path><text x="8"  style="font-size:12px;color:#333333;fill:#333333;" y="21"></text></g><text x="590" text-anchor="end"  style="cursor:pointer;color:#909090;font-size:9px;fill:#909090;" y="395">Highcharts.com</text></svg>