<svg xmlns:xlink="http://www.w3.org/1999/xlink" version="1.1" style="font-family:'lucida grande', 'lucida sans unicode', arial, helvetica, sans-serif;font-size:12px;" xmlns="http://www.w3.org/2000/svg" width="600" height="400"><desc>Created with Highcharts 4.0.4</desc><defs><clipPath id="highcharts-23"><rect x="0" y="0" width="535" height="249"></rect></clipPath></defs><rect x="0" y="0" width="600" height="400" strokeWidth="0" fill="#FFFFFF" class=" highcharts-background"></rect><g class="highcharts-grid" ></g><g class="highcharts-grid" ><path fill="none" d="M 55 59.5 L 590 59.5" stroke="#C0C0C0" stroke-width="1"  opacity="1"></path><path fill="none" d="M 55 110.5 L 590 110.5" stroke="#C0C0C0" stroke-width="1"  opacity="1"></path><path fill="none" d="M 55 160.5 L 590 160.5" stroke="#C0C0C0" stroke-width="1"  opacity="1"></path><path fill="none" d="M 55 209.5 L 590 209.5" stroke="#C0C0C0" stroke-width="1"  opacity="1"></path><path fill="none" d="M 55 259.5 L 590 259.5" stroke="#C0C0C0" stroke-width="1"  opacity="1"></path><path fill="none" d="M 55 309.5 L 590 309.5" stroke="#C0C0C0" stroke-width="1"  opacity="1"></path></g><g class="highcharts-axis" ><path fill="none" d="M 161.5 309 L 161.5 319" stroke="#C0D0E0" stroke-width="1" opacity="1"></path><path fill="none" d="M 234.5 309 L 234.5 319" stroke="#C0D0E0" stroke-width="1" opacity="1"></path><path fill="none" d="M 307.5 309 L 307.5 319" stroke="#C0D0E0" stroke-width="1" opacity="1"></path><path fill="none" d="M 380.5 309 L 380.5 319" stroke="#C0D0E0" stroke-width="1" opacity="1"></path><path fill="none" d="M 453.5 309 L 453.5 319" stroke="#C0D0E0" stroke-width="1" opacity="1"></path><path fill="none" d="M 525.5 309 L 525.5 319" stroke="#C0D0E0" stroke-width="1" opacity="1"></path><path fill="none" d="M 88.5 309 L 88.5 319" stroke="#C0D0E0" stroke-width="1" opacity="1"></path><text x="322.5"  text-anchor="middle" transform="translate(0,0)" class=" highcharts-xaxis-title" style="color:#707070;fill:#707070;" visibility="visible" y="346.34375">Time</text><path fill="none" d="M 55 309.5 L 590 309.5" stroke="#C0D0E0" stroke-width="1"  visibility="visible"></path></g><g class="highcharts-axis" ><text x="23.875"  text-anchor="middle" transform="translate(0,0) rotate(270 23.875 184.5)" class=" highcharts-yaxis-title" style="color:#707070;fill:#707070;" visibility="visible" y="184.5"><tspan>Questions Correct</tspan></text></g><g class="highcharts-series-group" ><g class="highcharts-series" visibility="visible"  transform="translate(55,60) scale(1 1)" clip-path="url(#highcharts-23)"><path fill="none" d="M 5.245098039215686 199.2 C 5.245098039215686 199.2 35.84150326797386 180.38666666666666 56.239106753812635 149.4 C 62.06699346405229 140.54666666666668 64.98093681917211 100.82584615384619 70.80882352941177 99.60000000000002 C 254.3872549019608 60.985846153846175 529.7549019607843 49.80000000000001 529.7549019607843 49.80000000000001" stroke="#9ab2d6" stroke-width="2"  stroke-linejoin="round" stroke-linecap="round"></path></g><g class="highcharts-markers" visibility="visible"  transform="translate(55,60) scale(1 1)" clip-path="none"><path fill="rgb(8, 243, 53)" d="M 529 45.80000000000001 C 534.328 45.80000000000001 534.328 53.80000000000001 529 53.80000000000001 C 523.672 53.80000000000001 523.672 45.80000000000001 529 45.80000000000001 Z"></path><path fill="rgb(8, 243, 53)" d="M 70 95.60000000000002 C 75.328 95.60000000000002 75.328 103.60000000000002 70 103.60000000000002 C 64.672 103.60000000000002 64.672 95.60000000000002 70 95.60000000000002 Z"></path><path fill="rgb(8, 243, 53)" d="M 56 145.4 C 61.328 145.4 61.328 153.4 56 153.4 C 50.672 153.4 50.672 145.4 56 145.4 Z"></path><path fill="rgb(8, 243, 53)" d="M 5 195.2 C 10.328 195.2 10.328 203.2 5 203.2 C -0.32800000000000007 203.2 -0.32800000000000007 195.2 5 195.2 Z"></path></g></g><text x="300" text-anchor="middle" class="highcharts-title"  style="color:#333333;font-size:18px;fill:#333333;width:536px;" y="25"><tspan>Questions Correct Over Time</tspan></text><text x="300" text-anchor="middle" class="highcharts-subtitle"  style="color:#555555;fill:#555555;width:536px;" y="45"><tspan>Pinch the chart to zoom in</tspan></text><g class="highcharts-legend"  transform="translate(256,368)"><g ><g><g class="highcharts-legend-item"  transform="translate(8,3)"><path fill="none" d="M 0 11 L 16 11" stroke="#9ab2d6" stroke-width="2"></path><path fill="#9ab2d6" d="M 8 7 C 13.328 7 13.328 15 8 15 C 2.6719999999999997 15 2.6719999999999997 7 8 7 Z"></path><text x="21" style="color:#333333;font-size:12px;font-weight:bold;cursor:pointer;fill:#333333;" text-anchor="start"  y="15">Questions</text></g></g></g></g><g class="highcharts-axis-labels highcharts-xaxis-labels" ><text x="89.38453159041394" text-anchor="middle" style="color:#606060;cursor:default;font-size:11px;fill:#606060;" y="329" opacity="1"><tspan>10:13 AM</tspan></text><text x="162.2331154684096" text-anchor="middle" style="color:#606060;cursor:default;font-size:11px;fill:#606060;" y="329" opacity="1"><tspan>10:14 AM</tspan></text><text x="235.08169934640523" text-anchor="middle" style="color:#606060;cursor:default;font-size:11px;fill:#606060;" y="329" opacity="1"><tspan>10:14 AM</tspan></text><text x="307.9302832244009" text-anchor="middle" style="color:#606060;cursor:default;font-size:11px;fill:#606060;" y="329" opacity="1"><tspan>10:15 AM</tspan></text><text x="380.77886710239653" text-anchor="middle" style="color:#606060;cursor:default;font-size:11px;fill:#606060;" y="329" opacity="1"><tspan>10:15 AM</tspan></text><text x="453.62745098039215" text-anchor="middle" style="color:#606060;cursor:default;font-size:11px;fill:#606060;" y="329" opacity="1"><tspan>10:16 AM</tspan></text><text x="526.4760348583878" text-anchor="middle" style="color:#606060;cursor:default;font-size:11px;fill:#606060;" y="329" opacity="1"><tspan>10:16 AM</tspan></text></g><g class="highcharts-axis-labels highcharts-yaxis-labels" ><text x="40" text-anchor="end" style="width:178px;color:#606060;cursor:default;font-size:11px;fill:#606060;" y="314.828125" opacity="1">0</text><text x="40" text-anchor="end" style="width:178px;color:#606060;cursor:default;font-size:11px;fill:#606060;" y="265.028125" opacity="1">1</text><text x="40" text-anchor="end" style="width:178px;color:#606060;cursor:default;font-size:11px;fill:#606060;" y="215.22812499999998" opacity="1">2</text><text x="40" text-anchor="end" style="width:178px;color:#606060;cursor:default;font-size:11px;fill:#606060;" y="165.42812500000002" opacity="1">3</text><text x="40" text-anchor="end" style="width:178px;color:#606060;cursor:default;font-size:11px;fill:#606060;" y="115.62812500000001" opacity="1">4</text><text x="40" text-anchor="end" style="width:178px;color:#606060;cursor:default;font-size:11px;fill:#606060;" y="65.828125" opacity="1">5</text></g><g class="highcharts-tooltip"  style="cursor:default;padding:0;white-space:nowrap;" transform="translate(0,-9999)"><path fill="none" d="M 3 0 L 13 0 C 16 0 16 0 16 3 L 16 13 C 16 16 16 16 13 16 L 3 16 C 0 16 0 16 0 13 L 0 3 C 0 0 0 0 3 0"  stroke="black" stroke-opacity="0.049999999999999996" stroke-width="5" transform="translate(1, 1)"></path><path fill="none" d="M 3 0 L 13 0 C 16 0 16 0 16 3 L 16 13 C 16 16 16 16 13 16 L 3 16 C 0 16 0 16 0 13 L 0 3 C 0 0 0 0 3 0"  stroke="black" stroke-opacity="0.09999999999999999" stroke-width="3" transform="translate(1, 1)"></path><path fill="none" d="M 3 0 L 13 0 C 16 0 16 0 16 3 L 16 13 C 16 16 16 16 13 16 L 3 16 C 0 16 0 16 0 13 L 0 3 C 0 0 0 0 3 0"  stroke="black" stroke-opacity="0.15" stroke-width="1" transform="translate(1, 1)"></path><path fill="rgb(249, 249, 249)" fill-opacity=" .85" d="M 3 0 L 13 0 C 16 0 16 0 16 3 L 16 13 C 16 16 16 16 13 16 L 3 16 C 0 16 0 16 0 13 L 0 3 C 0 0 0 0 3 0"></path><text x="8"  style="font-size:12px;color:#333333;fill:#333333;" y="21"></text></g><text x="590" text-anchor="end"  style="cursor:pointer;color:#909090;font-size:9px;fill:#909090;" y="395">Highcharts.com</text></svg>