<svg xmlns:xlink="http://www.w3.org/1999/xlink" version="1.1" style="font-family:'lucida grande', 'lucida sans unicode', arial, helvetica, sans-serif;font-size:12px;" xmlns="http://www.w3.org/2000/svg" width="600" height="400"><desc>Created with Highcharts 4.0.4</desc><defs><clipPath id="highcharts-251"><rect x="0" y="0" width="523" height="249"></rect></clipPath></defs><rect x="0" y="0" width="600" height="400" strokeWidth="0" fill="#FFFFFF" class=" highcharts-background"></rect><g class="highcharts-grid" ></g><g class="highcharts-grid" ><path fill="none" d="M 67 59.5 L 590 59.5" stroke="#C0C0C0" stroke-width="1"  opacity="1"></path><path fill="none" d="M 67 110.5 L 590 110.5" stroke="#C0C0C0" stroke-width="1"  opacity="1"></path><path fill="none" d="M 67 160.5 L 590 160.5" stroke="#C0C0C0" stroke-width="1"  opacity="1"></path><path fill="none" d="M 67 209.5 L 590 209.5" stroke="#C0C0C0" stroke-width="1"  opacity="1"></path><path fill="none" d="M 67 259.5 L 590 259.5" stroke="#C0C0C0" stroke-width="1"  opacity="1"></path><path fill="none" d="M 67 309.5 L 590 309.5" stroke="#C0C0C0" stroke-width="1"  opacity="1"></path></g><g class="highcharts-axis" ><path fill="none" d="M 177.5 309 L 177.5 319" stroke="#C0D0E0" stroke-width="1" opacity="1"></path><path fill="none" d="M 260.5 309 L 260.5 319" stroke="#C0D0E0" stroke-width="1" opacity="1"></path><path fill="none" d="M 344.5 309 L 344.5 319" stroke="#C0D0E0" stroke-width="1" opacity="1"></path><path fill="none" d="M 427.5 309 L 427.5 319" stroke="#C0D0E0" stroke-width="1" opacity="1"></path><path fill="none" d="M 510.5 309 L 510.5 319" stroke="#C0D0E0" stroke-width="1" opacity="1"></path><path fill="none" d="M 94.5 309 L 94.5 319" stroke="#C0D0E0" stroke-width="1" opacity="1"></path><text x="328.5"  text-anchor="middle" transform="translate(0,0)" class=" highcharts-xaxis-title" style="color:#707070;fill:#707070;" visibility="visible" y="346.5">Time</text><path fill="none" d="M 67 309.5 L 590 309.5" stroke="#C0D0E0" stroke-width="1"  visibility="visible"></path></g><g class="highcharts-axis" ><text x="23.640625"  text-anchor="middle" transform="translate(0,0) rotate(270 23.640625 184.5)" class=" highcharts-yaxis-title" style="color:#707070;fill:#707070;" visibility="visible" y="184.5"><tspan>Questions Correct</tspan></text></g><g class="highcharts-series-group" ><g class="highcharts-series" visibility="visible"  transform="translate(67,60) scale(1 1)" clip-path="url(#highcharts-251)"><path fill="none" d="M 5.127450980392156 247.008 C 5.127450980392156 247.008 9.622294372294371 247.008 12.618856633562515 247.008 C 14.172629657923775 247.008 14.949516170104406 246.0784 16.503289194465665 245.016 C 17.280175706646297 244.48479999999998 17.66861896273661 243.3726 18.44550547491724 243.024 C 21.220100161276633 241.77899999999997 22.607397504456326 241.62662686567165 25.38199219081572 241.032 C 30.0433112638995 240.03302686567164 32.37397080044139 239.04 37.035289873525166 239.04 C 37.92316017316017 239.04 38.367095322977676 239.04 39.25496562261268 239.04 C 40.58677107206519 239.04 41.25267379679144 239.04 42.58447924624395 239.04 C 43.69431712078771 239.04 44.249236058059594 237.048 45.359073932603344 237.048 C 46.135960444783976 237.048 46.52440370087429 237.048 47.30129021305492 237.048 C 48.189160512689924 237.048 48.63309566250742 235.056 49.520965962142434 235.056 C 51.40769034886682 235.056 52.35105254222901 235.056 54.2377769289534 235.056 C 54.90367965367966 235.056 55.23663101604278 233.51931428571427 55.90253374076904 233.064 C 57.56729055258468 231.92571428571426 58.399668958492484 231.072 60.06442577030812 231.072 C 61.063279857397504 231.072 61.56270690094219 231.072 62.56156098803157 231.072 C 63.11647992530345 231.072 63.39393939393939 229.57799999999997 63.94885833121127 229.07999999999998 C 65.1696799932094 227.98439999999997 65.78009082420847 227.88479999999996 67.0009124862066 227.088 C 68.22173414820473 226.2912 68.8321449792038 225.096 70.05296664120193 225.096 C 72.27264239028946 225.096 73.3824802648332 225.096 75.60215601392072 225.096 C 76.6010101010101 225.096 77.10043714455479 223.6352 78.09929123164417 223.10399999999998 C 80.09699940582293 222.0416 81.09585349291231 221.67444705882352 83.09356166709108 221.112 C 86.75602665308547 220.08084705882354 88.58725914608269 220.26323478260872 92.24972413207708 219.12 C 93.69251336898397 218.66963478260868 94.4139079874374 217.128 95.85669722434429 217.128 C 100.73998387233681 217.128 103.18162719633308 217.128 108.0649138443256 217.128 C 109.06376793141499 217.128 109.56319497495967 215.81897142857144 110.56204906204906 215.136 C 111.89385451150156 214.22537142857144 112.55975723622782 213.63433846153848 113.89156268568033 213.144 C 116.88812494694847 212.04073846153847 118.38640607758255 212.20144390243902 121.38296833885069 211.152 C 122.93674136321195 210.60784390243901 123.71362787539258 209.16 125.26740089975384 209.16 C 129.15183346065697 209.16 131.09404974110856 209.16 134.9784823020117 209.16 C 135.75536881419234 209.16 136.14381207028265 207.67505454545457 136.92069858246327 207.168 C 138.5854553942789 206.08145454545453 139.41783380018674 205.78892307692308 141.08259061200238 205.176 C 143.74620151090738 204.19532307692307 145.07800696035991 203.184 147.74161785926492 203.184 C 149.85030982089808 203.184 150.90465580171463 203.184 153.01334776334775 203.184 C 153.90121806298276 203.184 154.34515321280028 201.4080813559322 155.23302351243527 201.192 C 160.89319667260844 199.8144813559322 163.723283252695 199.2 169.38345641286818 199.2 C 171.4921483745013 199.2 172.54649435531786 199.2 174.65518631695102 199.2 C 175.43207282913164 199.2 175.82051608522198 197.95167999999998 176.5974025974026 197.208 C 177.48527289703762 196.35808 177.9292080468551 195.216 178.81707834649012 195.216 C 180.48183515830573 195.216 181.31421356421356 195.216 182.9789703760292 195.216 C 183.97782446311857 195.216 184.47725150666324 193.224 185.47610559375264 193.224 C 187.02987861811388 193.224 187.80676513029454 193.224 189.36053815465579 193.224 C 190.1374246668364 193.224 190.52586792292675 191.40906666666666 191.30275443510737 191.232 C 197.51784653255243 189.81546666666668 200.62539258127492 189.24 206.84048467871997 189.24 C 213.38852813852813 189.24 216.66254986843222 189.24 223.21059332824038 189.24 C 224.0984636278754 189.24 224.54239877769288 187.6464 225.4302690773279 187.248 C 228.0938799762329 186.0528 229.42568542568543 186.12523636363636 232.08929632459044 185.256 C 234.30897207367792 184.53163636363638 235.41880994822174 184.48984615384617 237.63848569730922 183.264 C 238.3043884220355 182.89624615384614 238.6373397843986 182.0688 239.30324250912486 181.272 C 239.96914523385112 180.4752 240.30209659621423 180.0155076923077 240.9679993209405 179.28 C 241.74488583312115 178.4219076923077 242.13332908921143 177.90773333333334 242.91021560139205 177.288 C 244.13103726339017 176.31413333333333 244.74144809438926 175.81157647058825 245.9622697563874 175.296 C 248.51489686783802 174.21797647058824 249.79121042356337 174.48634838709677 252.343837535014 173.304 C 253.23170783464897 172.8927483870968 253.6756429844665 172.10880000000003 254.5635132841015 171.312 C 255.45138358373651 170.5152 255.89531873355403 170.1168 256.78318903318905 169.32 C 257.67105933282403 168.5232 258.1149944826416 168.07792941176467 259.00286478227656 167.328 C 260.00171886936596 166.4843294117647 260.5011459129106 165.9879272727273 261.5 165.336 C 262.9427892369069 164.39432727272728 263.6641838553603 164.33051428571426 265.1069730922672 163.344 C 265.99484339190224 162.73691428571428 266.43877854171967 161.98944 267.3266488413547 161.352 C 268.65845429080724 160.39584000000002 269.3243570155335 159.36 270.656162464986 159.36 C 274.98453017570665 159.36 277.148714031067 159.36 281.47708174178763 159.36 C 282.36495204142267 159.36 282.80888719124016 157.75432727272727 283.69675749087514 157.368 C 286.4713521772345 156.16072727272726 287.8586495204142 156.5142857142857 290.6332442067736 155.376 C 291.74308208131737 154.92068571428572 292.2980010185893 153.38400000000001 293.40783889313303 153.38400000000001 C 295.8494822171293 153.38400000000001 297.07030387912744 153.38400000000001 299.51194720312367 153.38400000000001 C 300.2888337153043 153.38400000000001 300.67727697139463 152.01173333333332 301.45416348357526 151.392 C 302.6749851455734 150.41813333333334 303.28539597657243 150.07421538461537 304.50621763857055 149.4 C 306.17097445038615 148.4806153846154 307.003352856294 147.40800000000002 308.66810966810965 147.40800000000002 C 310.33286647992526 147.40800000000002 311.1652448858331 147.40800000000002 312.83000169764875 147.40800000000002 C 313.60688820982944 147.40800000000002 313.9953314659197 146.00311578947367 314.77221797810034 145.416 C 316.1040234275529 144.40951578947366 316.7699261522791 143.424 318.1017316017316 143.424 C 319.7664884135472 143.424 320.59886681945505 143.424 322.26362363127066 143.424 C 323.1514939309057 143.424 323.5954290807232 141.9632 324.4832993803582 141.43200000000002 C 326.2590399796282 140.3696 327.1469102792632 139.44 328.9226508785332 139.44 C 330.032488753077 139.44 330.58740769034887 139.44 331.6972455648926 139.44 C 332.5851158645276 139.44 333.02905101434516 137.448 333.91692131398014 137.448 C 335.58167812579575 137.448 336.4140565317036 137.448 338.07881334351924 137.448 C 338.63373228079115 137.448 338.9111917494271 135.45600000000002 339.4661106866989 135.45600000000002 C 340.5759485612427 135.45600000000002 341.13086749851453 135.45600000000002 342.2407053730583 135.45600000000002 C 342.7956243103302 135.45600000000002 343.0730837789662 133.464 343.62800271623803 133.464 C 346.1806298276887 133.464 347.45694338341394 133.464 350.0095704948646 133.464 C 351.11940836940835 133.464 351.67432730668025 132.31073684210526 352.784165181224 131.47199999999998 C 353.78301926831335 130.71713684210525 354.28244631185805 129.48000000000002 355.28130039894745 129.48000000000002 C 356.50212206094557 129.48000000000002 357.1125328919446 129.48000000000002 358.3333545539428 129.48000000000002 C 359.2212248535778 129.48000000000002 359.66516000339533 127.88639999999998 360.5530303030303 127.488 C 363.2166412019354 126.2928 364.5484466513878 126.72975483870968 367.21205755029285 125.496 C 367.9889440624735 125.13615483870969 368.3773873185638 124.20119999999996 369.1542738307444 123.504 C 370.1531279178338 122.60759999999996 370.6525549613785 122.19497142857144 371.6514090484679 121.512 C 372.98321449792036 120.60137142857145 373.6491172226467 120.47616 374.98092267209915 119.52000000000001 C 375.8687929717342 118.88255999999997 376.3127281215517 118.27792941176469 377.20059842118667 117.52799999999999 C 378.19945250827607 116.68432941176466 378.69887955182077 116.37967058823526 379.6977336389101 115.536 C 380.58560393854515 114.78607058823528 381.02953908836264 114.39392 381.9174093879976 113.54400000000001 C 382.69429590017825 112.80032 383.0827391562686 112.17173333333332 383.8596256684492 111.55199999999999 C 385.0804473304473 110.57813333333333 385.6908581614464 110.53386666666665 386.9116798234445 109.56 C 387.6885663356251 108.94026666666667 388.0770095917154 107.56800000000001 388.8538961038961 107.56800000000001 C 392.51636108989044 107.56800000000001 394.3475935828877 107.56800000000001 398.0100585688821 107.56800000000001 C 398.67596129360834 107.56800000000001 399.00891265597147 106.05408000000001 399.67481538069774 105.576 C 401.228588405059 104.46047999999999 402.0054749172396 103.584 403.55924794160086 103.584 C 404.6690858161446 103.584 405.2240047534166 103.584 406.3338426279603 103.584 C 407.11072914014096 103.584 407.49917239623124 102.05680000000001 408.27605890841187 101.59200000000001 C 410.16278329513625 100.4632 411.10614548849844 100.53417931034483 412.9928698752228 99.6 C 414.32467532467535 98.94057931034482 414.99057804940156 98.31626666666666 416.3223834988541 97.608 C 417.98714031066976 96.72266666666668 418.8195187165776 96.53538461538461 420.48427552839314 95.61600000000001 C 421.70509719039126 94.9417846153846 422.3155080213904 94.59786666666666 423.5363296833885 93.624 C 424.3132161955691 93.00426666666665 424.70165945165945 91.9806 425.4785459638401 91.632 C 428.2531406501995 90.387 429.6404379933791 90.88499999999999 432.41503267973854 89.63999999999999 C 433.19191919191917 89.2914 433.5803624480095 88.34519999999999 434.35724896019013 87.648 C 435.35610304727953 86.7516 435.85553009082423 86.55239999999996 436.8543841779136 85.656 C 437.63127069009425 84.95879999999997 438.0197139461845 84.14900869565218 438.79660045836516 83.66399999999999 C 440.5723410576352 82.55540869565219 441.46021135727017 82.73439999999998 443.2359519565402 81.672 C 444.12382225617523 81.14079999999998 444.56775740599267 80.35098947368422 445.4556277056277 79.68 C 446.6764493676259 78.75738947368423 447.2868601986249 77.68799999999999 448.50768186062305 77.68799999999999 C 449.95047109752994 77.68799999999999 450.6718657159834 77.68799999999999 452.11465495289025 77.68799999999999 C 452.7805576776165 77.68799999999999 453.11350903997965 75.696 453.77941176470586 75.696 C 454.88924963924967 75.696 455.4441685765215 75.696 456.5540064510653 75.696 C 457.2199091757915 75.696 457.5528605381546 74.43950769230771 458.2187632628809 73.70400000000001 C 458.9956497750615 72.84590769230772 459.38409303115185 72.40919999999998 460.1609795433325 71.71199999999999 C 461.1598336304219 70.81559999999999 461.6592606739665 70.5168 462.6581147610559 69.72 C 463.6569688481453 68.92320000000001 464.15639589169007 67.72800000000001 465.1552499787794 67.72800000000001 C 466.26508785332317 67.72800000000001 466.820006790595 67.72800000000001 467.9298446651388 67.72800000000001 C 468.59574738986504 67.72800000000001 468.9286987522281 66.60523636363641 469.59460147695444 65.73599999999999 C 470.1495204142263 65.01163636363641 470.42697988286227 63.744 470.9818988201341 63.744 C 472.424688057041 63.744 473.1460826754945 63.744 474.5888719124013 63.744 C 475.6987097869451 63.744 476.2536287242169 62.63733333333335 477.3634665987607 61.75200000000001 C 478.25133689839566 61.04373333333335 478.69527204821316 60.50992941176473 479.5831423478482 59.75999999999999 C 480.58199643493754 58.91632941176473 481.08142347848235 57.768 482.0802775655717 57.768 C 482.8571640777524 57.768 483.2456073338426 57.768 484.0224938460232 57.768 C 484.79938035820385 57.768 485.1878236142942 56.63409230769228 485.9647101264748 55.77600000000001 C 486.63061285120114 55.040492307692276 486.9635642135642 53.78399999999999 487.6294669382905 53.78399999999999 C 488.6283210253799 53.78399999999999 489.1277480689246 53.78399999999999 490.1266021560139 53.78399999999999 C 490.9034886681946 53.78399999999999 491.2919319242848 52.58880000000003 492.0688184364655 51.792 C 492.84570494864613 50.99520000000004 493.23414820473647 50.38711578947366 494.01103471691704 49.80000000000001 C 495.34284016636957 48.79351578947366 496.0087428910958 48.286080000000005 497.3405483405483 47.80799999999999 C 500.44809438927075 46.69248 502.0018674136321 47.12837647058823 505.1094134623546 45.816 C 505.7753161870809 45.534776470588234 506.108267549444 44.25861818181821 506.7741702741703 43.82400000000001 C 508.54991087344024 42.665018181818205 509.4377811730753 42.46943999999999 511.2135217723453 41.831999999999994 C 513.8771326712504 40.87583999999999 517.8725490196078 39.84 517.8725490196078 39.84" stroke="#9ab2d6" stroke-width="2"  stroke-linejoin="round" stroke-linecap="round"></path></g><g class="highcharts-markers" visibility="visible"  transform="translate(67,60) scale(1 1)" clip-path="none"></g></g><text x="300" text-anchor="middle" class="highcharts-title"  style="color:#333333;font-size:18px;fill:#333333;width:536px;" y="25"><tspan>Questions Correct Over Time</tspan></text><text x="300" text-anchor="middle" class="highcharts-subtitle"  style="color:#555555;fill:#555555;width:536px;" y="46"><tspan>Pinch the chart to zoom in</tspan></text><g class="highcharts-legend"  transform="translate(256,368)"><g ><g><g class="highcharts-legend-item"  transform="translate(8,3)"><path fill="none" d="M 0 11 L 16 11" stroke="#9ab2d6" stroke-width="2"></path><path fill="#9ab2d6" d="M 8 7 C 13.328 7 13.328 15 8 15 C 2.6719999999999997 15 2.6719999999999997 7 8 7 Z"></path><text x="21" style="color:#333333;font-size:12px;font-weight:bold;cursor:pointer;fill:#333333;" text-anchor="start"  y="15">Questions</text></g></g></g></g><g class="highcharts-axis-labels highcharts-xaxis-labels" ><text x="94.87912740853918" text-anchor="middle" style="color:#606060;cursor:default;font-size:11px;fill:#606060;" y="329" opacity="1"><tspan>04:15 PM</tspan></text><text x="178.11696799932093" text-anchor="middle" style="color:#606060;cursor:default;font-size:11px;fill:#606060;" y="329" opacity="1"><tspan>04:20 PM</tspan></text><text x="261.3548085901027" text-anchor="middle" style="color:#606060;cursor:default;font-size:11px;fill:#606060;" y="329" opacity="1"><tspan>04:25 PM</tspan></text><text x="344.59264918088445" text-anchor="middle" style="color:#606060;cursor:default;font-size:11px;fill:#606060;" y="329" opacity="1"><tspan>04:30 PM</tspan></text><text x="427.83048977166624" text-anchor="middle" style="color:#606060;cursor:default;font-size:11px;fill:#606060;" y="329" opacity="1"><tspan>04:35 PM</tspan></text><text x="511.068330362448" text-anchor="middle" style="color:#606060;cursor:default;font-size:11px;fill:#606060;" y="329" opacity="1"><tspan>04:40 PM</tspan></text></g><g class="highcharts-axis-labels highcharts-yaxis-labels" ><text x="52" text-anchor="end" style="width:178px;color:#606060;cursor:default;font-size:11px;fill:#606060;" y="314.75" opacity="1">0</text><text x="52" text-anchor="end" style="width:178px;color:#606060;cursor:default;font-size:11px;fill:#606060;" y="115.55000000000001" opacity="1">100</text><text x="52" text-anchor="end" style="width:178px;color:#606060;cursor:default;font-size:11px;fill:#606060;" y="264.95" opacity="1">25</text><text x="52" text-anchor="end" style="width:178px;color:#606060;cursor:default;font-size:11px;fill:#606060;" y="215.14999999999998" opacity="1">50</text><text x="52" text-anchor="end" style="width:178px;color:#606060;cursor:default;font-size:11px;fill:#606060;" y="165.35" opacity="1">75</text><text x="52" text-anchor="end" style="width:178px;color:#606060;cursor:default;font-size:11px;fill:#606060;" y="65.75" opacity="1">125</text></g><g class="highcharts-tooltip"  style="cursor:default;padding:0;white-space:nowrap;" transform="translate(0,-9999)"><path fill="none" d="M 3 0 L 13 0 C 16 0 16 0 16 3 L 16 13 C 16 16 16 16 13 16 L 3 16 C 0 16 0 16 0 13 L 0 3 C 0 0 0 0 3 0"  stroke="black" stroke-opacity="0.049999999999999996" stroke-width="5" transform="translate(1, 1)"></path><path fill="none" d="M 3 0 L 13 0 C 16 0 16 0 16 3 L 16 13 C 16 16 16 16 13 16 L 3 16 C 0 16 0 16 0 13 L 0 3 C 0 0 0 0 3 0"  stroke="black" stroke-opacity="0.09999999999999999" stroke-width="3" transform="translate(1, 1)"></path><path fill="none" d="M 3 0 L 13 0 C 16 0 16 0 16 3 L 16 13 C 16 16 16 16 13 16 L 3 16 C 0 16 0 16 0 13 L 0 3 C 0 0 0 0 3 0"  stroke="black" stroke-opacity="0.15" stroke-width="1" transform="translate(1, 1)"></path><path fill="rgb(249, 249, 249)" fill-opacity=" .85" d="M 3 0 L 13 0 C 16 0 16 0 16 3 L 16 13 C 16 16 16 16 13 16 L 3 16 C 0 16 0 16 0 13 L 0 3 C 0 0 0 0 3 0"></path><text x="8"  style="font-size:12px;color:#333333;fill:#333333;" y="21"></text></g><text x="590" text-anchor="end"  style="cursor:pointer;color:#909090;font-size:9px;fill:#909090;" y="395">Highcharts.com</text></svg>