<svg xmlns:xlink="http://www.w3.org/1999/xlink" version="1.1" style="font-family:'lucida grande', 'lucida sans unicode', arial, helvetica, sans-serif;font-size:12px;" xmlns="http://www.w3.org/2000/svg" width="600" height="400"><desc>Created with Highcharts 4.0.4</desc><defs><clipPath id="highcharts-17"><rect x="0" y="0" width="530" height="225"></rect></clipPath></defs><rect x="0" y="0" width="600" height="400" strokeWidth="0" fill="#FFFFFF" class=" highcharts-background"></rect><g class="highcharts-grid" ></g><g class="highcharts-grid" ><path fill="none" d="M 60 70.5 L 590 70.5" stroke="#C0C0C0" stroke-width="1"  opacity="1"></path><path fill="none" d="M 60 146.5 L 590 146.5" stroke="#C0C0C0" stroke-width="1"  opacity="1"></path><path fill="none" d="M 60 221.5 L 590 221.5" stroke="#C0C0C0" stroke-width="1"  opacity="1"></path><path fill="none" d="M 60 296.5 L 590 296.5" stroke="#C0C0C0" stroke-width="1"  opacity="1"></path></g><g class="highcharts-axis" ><path fill="none" d="M 227.5 296 L 227.5 306" stroke="#C0D0E0" stroke-width="1" opacity="1"></path><path fill="none" d="M 355.5 296 L 355.5 306" stroke="#C0D0E0" stroke-width="1" opacity="1"></path><path fill="none" d="M 484.5 296 L 484.5 306" stroke="#C0D0E0" stroke-width="1" opacity="1"></path><path fill="none" d="M 98.5 296 L 98.5 306" stroke="#C0D0E0" stroke-width="1" opacity="1"></path><text x="325"  text-anchor="middle" transform="translate(0,0)" class=" highcharts-xaxis-title" style="color:#707070;fill:#707070;" visibility="visible" y="338">Time</text><path fill="none" d="M 60 296.5 L 590 296.5" stroke="#C0D0E0" stroke-width="1"  visibility="visible"></path></g><g class="highcharts-axis" ><text x="28"  text-anchor="middle" transform="translate(0,0) rotate(270 28 183.5)" class=" highcharts-yaxis-title" style="color:#707070;fill:#707070;" visibility="visible" y="183.5"><tspan>Questions Correct</tspan></text></g><g class="highcharts-series-group" ><g class="highcharts-series" visibility="visible"  transform="translate(60,71) scale(1 1)" clip-path="url(#highcharts-17)"><path fill="none" d="M 5.196078431372549 187.5 C 5.196078431372549 187.5 19.612943443273263 151.3913043478261 29.224186784540407 150 C 226.85537798934607 121.3913043478261 325.67097359174886 142.46097137901126 523.3021647965545 112.5 C 523.5596088146242 112.46097137901127 523.688330823659 87.8571428571388 523.9457748417286 75 C 524.2890335324882 57.8571428571388 524.8039215686275 37.5 524.8039215686275 37.5" stroke="#9ab2d6" stroke-width="2"  stroke-linejoin="round" stroke-linecap="round"></path></g><g class="highcharts-markers" visibility="visible"  transform="translate(60,71) scale(1 1)" clip-path="none"><path fill="rgb(8, 243, 53)" d="M 524 33.5 C 529.328 33.5 529.328 41.5 524 41.5 C 518.672 41.5 518.672 33.5 524 33.5 Z"></path><path fill="rgb(8, 243, 53)" d="M 523 71 C 528.328 71 528.328 79 523 79 C 517.672 79 517.672 71 523 71 Z"></path><path fill="rgb(8, 243, 53)" d="M 523 108.5 C 528.328 108.5 528.328 116.5 523 116.5 C 517.672 116.5 517.672 108.5 523 108.5 Z"></path><path fill="rgb(8, 243, 53)" d="M 29 146 C 34.328 146 34.328 154 29 154 C 23.672 154 23.672 146 29 146 Z"></path><path fill="rgb(8, 243, 53)" d="M 5 183.5 C 10.328 183.5 10.328 191.5 5 191.5 C -0.32800000000000007 191.5 -0.32800000000000007 183.5 5 183.5 Z"></path></g></g><text x="300" text-anchor="middle" class="highcharts-title"  style="color:#333333;font-size:18px;fill:#333333;width:536px;" y="25"><tspan>Questions Correct Over Time</tspan></text><text x="300" text-anchor="middle" class="highcharts-subtitle"  style="color:#555555;fill:#555555;width:536px;" y="53"><tspan>Click and drag in the plot area to zoom in</tspan></text><g class="highcharts-legend"  transform="translate(255,364)"><g ><g><g class="highcharts-legend-item"  transform="translate(8,3)"><path fill="none" d="M 0 11 L 16 11" stroke="#9ab2d6" stroke-width="2"></path><path fill="#9ab2d6" d="M 8 7 C 13.328 7 13.328 15 8 15 C 2.6719999999999997 15 2.6719999999999997 7 8 7 Z"></path><text x="21" style="color:#333333;font-size:12px;font-weight:bold;cursor:pointer;fill:#333333;" text-anchor="start"  y="15">Questions</text></g></g></g></g><g class="highcharts-axis-labels highcharts-xaxis-labels" ><text x="98.8783374621525" text-anchor="middle" style="color:#606060;cursor:default;font-size:11px;fill:#606060;" y="316" opacity="1"><tspan>12:10 PM</tspan></text><text x="227.6003464969803" text-anchor="middle" style="color:#606060;cursor:default;font-size:11px;fill:#606060;" y="316" opacity="1"><tspan>12:20 PM</tspan></text><text x="356.3223555318081" text-anchor="middle" style="color:#606060;cursor:default;font-size:11px;fill:#606060;" y="316" opacity="1"><tspan>12:30 PM</tspan></text><text x="485.0443645666359" text-anchor="middle" style="color:#606060;cursor:default;font-size:11px;fill:#606060;" y="316" opacity="1"><tspan>12:40 PM</tspan></text></g><g class="highcharts-axis-labels highcharts-yaxis-labels" ><text x="45" text-anchor="end" style="width:178px;color:#606060;cursor:default;font-size:11px;fill:#606060;" y="299.5" opacity="1">0</text><text x="45" text-anchor="end" style="width:178px;color:#606060;cursor:default;font-size:11px;fill:#606060;" y="224.5" opacity="1">2</text><text x="45" text-anchor="end" style="width:178px;color:#606060;cursor:default;font-size:11px;fill:#606060;" y="149.5" opacity="1">4</text><text x="45" text-anchor="end" style="width:178px;color:#606060;cursor:default;font-size:11px;fill:#606060;" y="74.5" opacity="1">6</text></g><g class="highcharts-tooltip"  style="cursor:default;padding:0;white-space:nowrap;" transform="translate(0,-9999)"><path fill="none" d="M 3 0 L 13 0 C 16 0 16 0 16 3 L 16 13 C 16 16 16 16 13 16 L 3 16 C 0 16 0 16 0 13 L 0 3 C 0 0 0 0 3 0"  stroke="black" stroke-opacity="0.049999999999999996" stroke-width="5" transform="translate(1, 1)"></path><path fill="none" d="M 3 0 L 13 0 C 16 0 16 0 16 3 L 16 13 C 16 16 16 16 13 16 L 3 16 C 0 16 0 16 0 13 L 0 3 C 0 0 0 0 3 0"  stroke="black" stroke-opacity="0.09999999999999999" stroke-width="3" transform="translate(1, 1)"></path><path fill="none" d="M 3 0 L 13 0 C 16 0 16 0 16 3 L 16 13 C 16 16 16 16 13 16 L 3 16 C 0 16 0 16 0 13 L 0 3 C 0 0 0 0 3 0"  stroke="black" stroke-opacity="0.15" stroke-width="1" transform="translate(1, 1)"></path><path fill="rgb(249, 249, 249)" fill-opacity=" .85" d="M 3 0 L 13 0 C 16 0 16 0 16 3 L 16 13 C 16 16 16 16 13 16 L 3 16 C 0 16 0 16 0 13 L 0 3 C 0 0 0 0 3 0"></path><text x="8"  style="font-size:12px;color:#333333;fill:#333333;" y="21"></text></g><text x="590" text-anchor="end"  style="cursor:pointer;color:#909090;font-size:9px;fill:#909090;" y="395">Highcharts.com</text></svg>