<svg xmlns:xlink="http://www.w3.org/1999/xlink" version="1.1" style="font-family:'lucida grande', 'lucida sans unicode', arial, helvetica, sans-serif;font-size:12px;" xmlns="http://www.w3.org/2000/svg" width="600" height="400"><desc>Created with Highcharts 4.0.4</desc><defs><clipPath id="highcharts-17"><rect x="0" y="0" width="529" height="224"></rect></clipPath></defs><rect x="0" y="0" width="600" height="400" strokeWidth="0" fill="#FFFFFF" class=" highcharts-background"></rect><g class="highcharts-grid" ></g><g class="highcharts-grid" ><path fill="none" d="M 61 71.5 L 590 71.5" stroke="#C0C0C0" stroke-width="1"  opacity="1"></path><path fill="none" d="M 61 117.5 L 590 117.5" stroke="#C0C0C0" stroke-width="1"  opacity="1"></path><path fill="none" d="M 61 162.5 L 590 162.5" stroke="#C0C0C0" stroke-width="1"  opacity="1"></path><path fill="none" d="M 61 206.5 L 590 206.5" stroke="#C0C0C0" stroke-width="1"  opacity="1"></path><path fill="none" d="M 61 251.5 L 590 251.5" stroke="#C0C0C0" stroke-width="1"  opacity="1"></path><path fill="none" d="M 61 296.5 L 590 296.5" stroke="#C0C0C0" stroke-width="1"  opacity="1"></path></g><g class="highcharts-axis" ><path fill="none" d="M 222.5 296 L 222.5 306" stroke="#C0D0E0" stroke-width="1" opacity="1"></path><path fill="none" d="M 349.5 296 L 349.5 306" stroke="#C0D0E0" stroke-width="1" opacity="1"></path><path fill="none" d="M 476.5 296 L 476.5 306" stroke="#C0D0E0" stroke-width="1" opacity="1"></path><path fill="none" d="M 95.5 296 L 95.5 306" stroke="#C0D0E0" stroke-width="1" opacity="1"></path><text x="325.5"  text-anchor="middle" transform="translate(0,0)" class=" highcharts-xaxis-title" style="color:#707070;fill:#707070;" visibility="visible" y="337.796875">Time</text><path fill="none" d="M 61 296.5 L 590 296.5" stroke="#C0D0E0" stroke-width="1"  visibility="visible"></path></g><g class="highcharts-axis" ><text x="28.8125"  text-anchor="middle" transform="translate(0,0) rotate(270 28.8125 184)" class=" highcharts-yaxis-title" style="color:#707070;fill:#707070;" visibility="visible" y="184"><tspan>Questions Correct</tspan></text></g><g class="highcharts-series-group" ><g class="highcharts-series" visibility="visible"  transform="translate(61,72) scale(1 1)" clip-path="url(#highcharts-17)"><path fill="none" d="M 5.186274509803922 179.2 C 5.186274509803922 179.2 29.31832733093238 137.38666666666666 45.40636254501801 134.4 C 222.37474989996 101.5466666666667 310.858943577431 122.74407079646022 487.827330932373 89.60000000000002 C 502.22188875550216 86.90407079646022 523.8137254901961 44.80000000000001 523.8137254901961 44.80000000000001" stroke="#9ab2d6" stroke-width="2"  stroke-linejoin="round" stroke-linecap="round"></path></g><g class="highcharts-markers" visibility="visible"  transform="translate(61,72) scale(1 1)" clip-path="none"><path fill="rgb(8, 243, 53)" d="M 523 40.80000000000001 C 528.328 40.80000000000001 528.328 48.80000000000001 523 48.80000000000001 C 517.672 48.80000000000001 517.672 40.80000000000001 523 40.80000000000001 Z"></path><path fill="rgb(8, 243, 53)" d="M 487 85.60000000000002 C 492.328 85.60000000000002 492.328 93.60000000000002 487 93.60000000000002 C 481.672 93.60000000000002 481.672 85.60000000000002 487 85.60000000000002 Z"></path><path fill="rgb(8, 243, 53)" d="M 45 130.4 C 50.328 130.4 50.328 138.4 45 138.4 C 39.672 138.4 39.672 130.4 45 130.4 Z"></path><path fill="rgb(8, 243, 53)" d="M 5 175.2 C 10.328 175.2 10.328 183.2 5 183.2 C -0.32800000000000007 183.2 -0.32800000000000007 175.2 5 175.2 Z"></path></g></g><text x="300" text-anchor="middle" class="highcharts-title"  style="color:#333333;font-size:18px;fill:#333333;width:536px;" y="25"><tspan>Questions Correct Over Time</tspan></text><text x="300" text-anchor="middle" class="highcharts-subtitle"  style="color:#555555;fill:#555555;width:536px;" y="53"><tspan>Click and drag in the plot area to zoom in</tspan></text><g class="highcharts-legend"  transform="translate(255,364)"><g ><g><g class="highcharts-legend-item"  transform="translate(8,3)"><path fill="none" d="M 0 11 L 16 11" stroke="#9ab2d6" stroke-width="2"></path><path fill="#9ab2d6" d="M 8 7 C 13.328 7 13.328 15 8 15 C 2.6719999999999997 15 2.6719999999999997 7 8 7 Z"></path><text x="21" style="color:#333333;font-size:12px;font-weight:bold;cursor:pointer;fill:#333333;" text-anchor="start"  y="15">Questions</text></g></g></g></g><g class="highcharts-axis-labels highcharts-xaxis-labels" ><text x="95.82212885154061" text-anchor="middle" style="color:#606060;cursor:default;font-size:11px;fill:#606060;" y="316" opacity="1"><tspan>02:55 PM</tspan></text><text x="222.8329331732693" text-anchor="middle" style="color:#606060;cursor:default;font-size:11px;fill:#606060;" y="316" opacity="1"><tspan>02:56 PM</tspan></text><text x="349.84373749499804" text-anchor="middle" style="color:#606060;cursor:default;font-size:11px;fill:#606060;" y="316" opacity="1"><tspan>02:57 PM</tspan></text><text x="476.85454181672674" text-anchor="middle" style="color:#606060;cursor:default;font-size:11px;fill:#606060;" y="316" opacity="1"><tspan>02:58 PM</tspan></text></g><g class="highcharts-axis-labels highcharts-yaxis-labels" ><text x="46" text-anchor="end" style="width:178px;color:#606060;cursor:default;font-size:11px;fill:#606060;" y="299.6015625" opacity="1">0</text><text x="46" text-anchor="end" style="width:178px;color:#606060;cursor:default;font-size:11px;fill:#606060;" y="254.8015625" opacity="1">1</text><text x="46" text-anchor="end" style="width:178px;color:#606060;cursor:default;font-size:11px;fill:#606060;" y="210.00156249999998" opacity="1">2</text><text x="46" text-anchor="end" style="width:178px;color:#606060;cursor:default;font-size:11px;fill:#606060;" y="165.20156250000002" opacity="1">3</text><text x="46" text-anchor="end" style="width:178px;color:#606060;cursor:default;font-size:11px;fill:#606060;" y="120.40156250000001" opacity="1">4</text><text x="46" text-anchor="end" style="width:178px;color:#606060;cursor:default;font-size:11px;fill:#606060;" y="75.6015625" opacity="1">5</text></g><g class="highcharts-tooltip"  style="cursor:default;padding:0;white-space:nowrap;" transform="translate(0,-9999)"><path fill="none" d="M 3 0 L 13 0 C 16 0 16 0 16 3 L 16 13 C 16 16 16 16 13 16 L 3 16 C 0 16 0 16 0 13 L 0 3 C 0 0 0 0 3 0"  stroke="black" stroke-opacity="0.049999999999999996" stroke-width="5" transform="translate(1, 1)"></path><path fill="none" d="M 3 0 L 13 0 C 16 0 16 0 16 3 L 16 13 C 16 16 16 16 13 16 L 3 16 C 0 16 0 16 0 13 L 0 3 C 0 0 0 0 3 0"  stroke="black" stroke-opacity="0.09999999999999999" stroke-width="3" transform="translate(1, 1)"></path><path fill="none" d="M 3 0 L 13 0 C 16 0 16 0 16 3 L 16 13 C 16 16 16 16 13 16 L 3 16 C 0 16 0 16 0 13 L 0 3 C 0 0 0 0 3 0"  stroke="black" stroke-opacity="0.15" stroke-width="1" transform="translate(1, 1)"></path><path fill="rgb(249, 249, 249)" fill-opacity=" .85" d="M 3 0 L 13 0 C 16 0 16 0 16 3 L 16 13 C 16 16 16 16 13 16 L 3 16 C 0 16 0 16 0 13 L 0 3 C 0 0 0 0 3 0"></path><text x="8"  style="font-size:12px;color:#333333;fill:#333333;" y="21"></text></g><text x="590" text-anchor="end"  style="cursor:pointer;color:#909090;font-size:9px;fill:#909090;" y="395">Highcharts.com</text></svg>