<svg xmlns:xlink="http://www.w3.org/1999/xlink" version="1.1" style="font-family:'lucida grande', 'lucida sans unicode', arial, helvetica, sans-serif;font-size:12px;" xmlns="http://www.w3.org/2000/svg" width="600" height="400"><desc>Created with Highcharts 4.0.4</desc><defs><clipPath id="highcharts-35"><rect x="0" y="0" width="520" height="225"></rect></clipPath></defs><rect x="0" y="0" width="600" height="400" strokeWidth="0" fill="#FFFFFF" class=" highcharts-background"></rect><g class="highcharts-grid" ></g><g class="highcharts-grid" ><path fill="none" d="M 70 70.5 L 590 70.5" stroke="#C0C0C0" stroke-width="1"  opacity="1"></path><path fill="none" d="M 70 127.5 L 590 127.5" stroke="#C0C0C0" stroke-width="1"  opacity="1"></path><path fill="none" d="M 70 184.5 L 590 184.5" stroke="#C0C0C0" stroke-width="1"  opacity="1"></path><path fill="none" d="M 70 240.5 L 590 240.5" stroke="#C0C0C0" stroke-width="1"  opacity="1"></path><path fill="none" d="M 70 296.5 L 590 296.5" stroke="#C0C0C0" stroke-width="1"  opacity="1"></path></g><g class="highcharts-axis" ><path fill="none" d="M 205.5 296 L 205.5 306" stroke="#C0D0E0" stroke-width="1" opacity="1"></path><path fill="none" d="M 278.5 296 L 278.5 306" stroke="#C0D0E0" stroke-width="1" opacity="1"></path><path fill="none" d="M 351.5 296 L 351.5 306" stroke="#C0D0E0" stroke-width="1" opacity="1"></path><path fill="none" d="M 424.5 296 L 424.5 306" stroke="#C0D0E0" stroke-width="1" opacity="1"></path><path fill="none" d="M 497.5 296 L 497.5 306" stroke="#C0D0E0" stroke-width="1" opacity="1"></path><path fill="none" d="M 569.5 296 L 569.5 306" stroke="#C0D0E0" stroke-width="1" opacity="1"></path><path fill="none" d="M 132.5 296 L 132.5 306" stroke="#C0D0E0" stroke-width="1" opacity="1"></path><text x="330"  text-anchor="middle" transform="translate(0,0)" class=" highcharts-xaxis-title" style="color:#707070;fill:#707070;" visibility="visible" y="338">Time</text><path fill="none" d="M 70 296.5 L 590 296.5" stroke="#C0D0E0" stroke-width="1"  visibility="visible"></path></g><g class="highcharts-axis" ><text x="27.609375"  text-anchor="middle" transform="translate(0,0) rotate(270 27.609375 183.5)" class=" highcharts-yaxis-title" style="color:#707070;fill:#707070;" visibility="visible" y="183.5"><tspan>Questions Correct</tspan></text></g><g class="highcharts-series-group" ><g class="highcharts-series" visibility="visible"  transform="translate(70,71) scale(1 1)" clip-path="url(#highcharts-35)"><path fill="none" d="M 5.098039215686275 202.5 C 5.098039215686275 202.5 57.535014005602235 186 92.49299719887955 180 C 162.40896358543418 168 197.36694677871148 171.9 267.2829131652661 157.5 C 284.76190476190476 153.9 293.5014005602241 144 310.98039215686276 135 C 328.4593837535014 126 337.19887955182077 121.5 354.6778711484594 112.5 C 372.15686274509807 103.5 380.89635854341736 96.75 398.375350140056 90 C 427.5070028011204 78.75 442.0728291316526 78.75000000000001 471.2044817927171 67.5 C 488.68347338935575 60.750000000000014 514.9019607843137 45 514.9019607843137 45" stroke="#9ab2d6" stroke-width="2"  stroke-linejoin="round" stroke-linecap="round"></path></g><g class="highcharts-markers" visibility="visible"  transform="translate(70,71) scale(1 1)" clip-path="none"><path fill="rgb(8, 243, 53)" d="M 514 41 C 519.328 41 519.328 49 514 49 C 508.672 49 508.672 41 514 41 Z"></path><path fill="rgb(8, 243, 53)" d="M 471 63.5 C 476.328 63.5 476.328 71.5 471 71.5 C 465.672 71.5 465.672 63.5 471 63.5 Z"></path><path fill="rgb(8, 243, 53)" d="M 398 86 C 403.328 86 403.328 94 398 94 C 392.672 94 392.672 86 398 86 Z"></path><path fill="rgb(8, 243, 53)" d="M 354 108.5 C 359.328 108.5 359.328 116.5 354 116.5 C 348.672 116.5 348.672 108.5 354 108.5 Z"></path><path fill="rgb(8, 243, 53)" d="M 310 131 C 315.328 131 315.328 139 310 139 C 304.672 139 304.672 131 310 131 Z"></path><path fill="rgb(8, 243, 53)" d="M 267 153.5 C 272.328 153.5 272.328 161.5 267 161.5 C 261.672 161.5 261.672 153.5 267 153.5 Z"></path><path fill="rgb(8, 243, 53)" d="M 92 176 C 97.328 176 97.328 184 92 184 C 86.672 184 86.672 176 92 176 Z"></path><path fill="rgb(8, 243, 53)" d="M 5 198.5 C 10.328 198.5 10.328 206.5 5 206.5 C -0.32800000000000007 206.5 -0.32800000000000007 198.5 5 198.5 Z"></path></g></g><text x="300" text-anchor="middle" class="highcharts-title"  style="color:#333333;font-size:18px;fill:#333333;width:536px;" y="25"><tspan>Questions Correct Over Time</tspan></text><text x="300" text-anchor="middle" class="highcharts-subtitle"  style="color:#555555;fill:#555555;width:536px;" y="53"><tspan>Click and drag in the plot area to zoom in</tspan></text><g class="highcharts-legend"  transform="translate(255,364)"><g ><g><g class="highcharts-legend-item"  transform="translate(8,3)"><path fill="none" d="M 0 11 L 16 11" stroke="#9ab2d6" stroke-width="2"></path><path fill="#9ab2d6" d="M 8 7 C 13.328 7 13.328 15 8 15 C 2.6719999999999997 15 2.6719999999999997 7 8 7 Z"></path><text x="21" style="color:#333333;font-size:12px;font-weight:bold;cursor:pointer;fill:#333333;" text-anchor="start"  y="15">Questions</text></g></g></g></g><g class="highcharts-axis-labels highcharts-xaxis-labels" ><text x="133.3613445378151" text-anchor="middle" style="color:#606060;cursor:default;font-size:11px;fill:#606060;" y="316" opacity="1"><tspan>11:43 AM</tspan></text><text x="206.1904761904762" text-anchor="middle" style="color:#606060;cursor:default;font-size:11px;fill:#606060;" y="316" opacity="1"><tspan>11:43 AM</tspan></text><text x="279.01960784313724" text-anchor="middle" style="color:#606060;cursor:default;font-size:11px;fill:#606060;" y="316" opacity="1"><tspan>11:43 AM</tspan></text><text x="351.8487394957983" text-anchor="middle" style="color:#606060;cursor:default;font-size:11px;fill:#606060;" y="316" opacity="1"><tspan>11:43 AM</tspan></text><text x="424.6778711484594" text-anchor="middle" style="color:#606060;cursor:default;font-size:11px;fill:#606060;" y="316" opacity="1"><tspan>11:44 AM</tspan></text><text x="497.50700280112045" text-anchor="middle" style="color:#606060;cursor:default;font-size:11px;fill:#606060;" y="316" opacity="1"><tspan>11:44 AM</tspan></text><text x="570.3361344537816" text-anchor="middle" style="color:#606060;cursor:default;font-size:11px;fill:#606060;" y="316" opacity="1"><tspan>11:44 AM</tspan></text></g><g class="highcharts-axis-labels highcharts-yaxis-labels" ><text x="55" text-anchor="end" style="width:178px;color:#606060;cursor:default;font-size:11px;fill:#606060;" y="299.5" opacity="1">0</text><text x="55" text-anchor="end" style="width:178px;color:#606060;cursor:default;font-size:11px;fill:#606060;" y="74.5" opacity="1">10</text><text x="55" text-anchor="end" style="width:178px;color:#606060;cursor:default;font-size:11px;fill:#606060;" y="243.25" opacity="1">2.5</text><text x="55" text-anchor="end" style="width:178px;color:#606060;cursor:default;font-size:11px;fill:#606060;" y="187" opacity="1">5</text><text x="55" text-anchor="end" style="width:178px;color:#606060;cursor:default;font-size:11px;fill:#606060;" y="130.75" opacity="1">7.5</text></g><g class="highcharts-tooltip"  style="cursor:default;padding:0;white-space:nowrap;" transform="translate(0,-9999)"><path fill="none" d="M 3 0 L 13 0 C 16 0 16 0 16 3 L 16 13 C 16 16 16 16 13 16 L 3 16 C 0 16 0 16 0 13 L 0 3 C 0 0 0 0 3 0"  stroke="black" stroke-opacity="0.049999999999999996" stroke-width="5" transform="translate(1, 1)"></path><path fill="none" d="M 3 0 L 13 0 C 16 0 16 0 16 3 L 16 13 C 16 16 16 16 13 16 L 3 16 C 0 16 0 16 0 13 L 0 3 C 0 0 0 0 3 0"  stroke="black" stroke-opacity="0.09999999999999999" stroke-width="3" transform="translate(1, 1)"></path><path fill="none" d="M 3 0 L 13 0 C 16 0 16 0 16 3 L 16 13 C 16 16 16 16 13 16 L 3 16 C 0 16 0 16 0 13 L 0 3 C 0 0 0 0 3 0"  stroke="black" stroke-opacity="0.15" stroke-width="1" transform="translate(1, 1)"></path><path fill="rgb(249, 249, 249)" fill-opacity=" .85" d="M 3 0 L 13 0 C 16 0 16 0 16 3 L 16 13 C 16 16 16 16 13 16 L 3 16 C 0 16 0 16 0 13 L 0 3 C 0 0 0 0 3 0"></path><text x="8"  style="font-size:12px;color:#333333;fill:#333333;" y="21"></text></g><text x="590" text-anchor="end"  style="cursor:pointer;color:#909090;font-size:9px;fill:#909090;" y="395">Highcharts.com</text></svg>