<svg xmlns:xlink="http://www.w3.org/1999/xlink" version="1.1" style="font-family:'lucida grande', 'lucida sans unicode', arial, helvetica, sans-serif;font-size:12px;" xmlns="http://www.w3.org/2000/svg" width="600" height="400"><desc>Created with Highcharts 4.0.4</desc><defs><clipPath id="highcharts-59"><rect x="0" y="0" width="519" height="224"></rect></clipPath></defs><rect x="0" y="0" width="600" height="400" strokeWidth="0" fill="#FFFFFF" class=" highcharts-background"></rect><g class="highcharts-grid" ></g><g class="highcharts-grid" ><path fill="none" d="M 71 71.5 L 590 71.5" stroke="#C0C0C0" stroke-width="1"  opacity="1"></path><path fill="none" d="M 71 128.5 L 590 128.5" stroke="#C0C0C0" stroke-width="1"  opacity="1"></path><path fill="none" d="M 71 184.5 L 590 184.5" stroke="#C0C0C0" stroke-width="1"  opacity="1"></path><path fill="none" d="M 71 240.5 L 590 240.5" stroke="#C0C0C0" stroke-width="1"  opacity="1"></path><path fill="none" d="M 71 296.5 L 590 296.5" stroke="#C0C0C0" stroke-width="1"  opacity="1"></path></g><g class="highcharts-axis" ><path fill="none" d="M 224.5 296 L 224.5 306" stroke="#C0D0E0" stroke-width="1" opacity="1"></path><path fill="none" d="M 303.5 296 L 303.5 306" stroke="#C0D0E0" stroke-width="1" opacity="1"></path><path fill="none" d="M 382.5 296 L 382.5 306" stroke="#C0D0E0" stroke-width="1" opacity="1"></path><path fill="none" d="M 461.5 296 L 461.5 306" stroke="#C0D0E0" stroke-width="1" opacity="1"></path><path fill="none" d="M 540.5 296 L 540.5 306" stroke="#C0D0E0" stroke-width="1" opacity="1"></path><path fill="none" d="M 145.5 296 L 145.5 306" stroke="#C0D0E0" stroke-width="1" opacity="1"></path><text x="330.5"  text-anchor="middle" transform="translate(0,0)" class=" highcharts-xaxis-title" style="color:#707070;fill:#707070;" visibility="visible" y="337.375">Time</text><path fill="none" d="M 71 296.5 L 590 296.5" stroke="#C0D0E0" stroke-width="1"  visibility="visible"></path></g><g class="highcharts-axis" ><text x="28.59375"  text-anchor="middle" transform="translate(0,0) rotate(270 28.59375 184)" class=" highcharts-yaxis-title" style="color:#707070;fill:#707070;" visibility="visible" y="184"><tspan>Questions Correct</tspan></text></g><g class="highcharts-series-group" ><g class="highcharts-series" visibility="visible"  transform="translate(71,72) scale(1 1)" clip-path="url(#highcharts-59)"><path fill="none" d="M 5.088235294117648 201.6 C 5.088235294117648 201.6 305.74950549283346 197.10119293335666 506.1903522919773 179.2 C 506.40093626690197 179.18119293335664 506.5062282543644 164.4800000000006 506.7168122292891 156.8 C 506.997590862522 146.5600000000006 507.1379801791384 134.4 507.4187588123713 134.4 C 507.66444011645007 134.4 507.7872807684895 134.4 508.0329620725683 134.4 C 508.5945193390341 134.4 508.87529797226705 112 509.43685523873285 112 C 509.78782853027406 112 509.9633151760445 112 510.3142884675857 112 C 511.0864297089762 112 511.4725003296715 101.54666666666522 512.244641571062 89.60000000000002 C 512.6307121917573 83.62666666666522 512.8237475021049 79.52000000000046 513.2098181228001 67.20000000000002 C 513.3853047685707 61.60000000000047 513.473048091456 55.999999999999105 513.6485347372266 44.80000000000001 C 513.7538267246889 38.0799999999991 513.9117647058823 22.400000000000006 513.9117647058823 22.400000000000006" stroke="#9ab2d6" stroke-width="2"  stroke-linejoin="round" stroke-linecap="round"></path></g><g class="highcharts-markers" visibility="visible"  transform="translate(71,72) scale(1 1)" clip-path="none"><path fill="rgb(8, 243, 53)" d="M 513 18.400000000000006 C 518.328 18.400000000000006 518.328 26.400000000000006 513 26.400000000000006 C 507.672 26.400000000000006 507.672 18.400000000000006 513 18.400000000000006 Z"></path><path fill="rgb(8, 243, 53)" d="M 513 40.80000000000001 C 518.328 40.80000000000001 518.328 48.80000000000001 513 48.80000000000001 C 507.672 48.80000000000001 507.672 40.80000000000001 513 40.80000000000001 Z"></path><path fill="rgb(8, 243, 53)" d="M 513 63.20000000000002 C 518.328 63.20000000000002 518.328 71.20000000000002 513 71.20000000000002 C 507.672 71.20000000000002 507.672 63.20000000000002 513 63.20000000000002 Z"></path><path fill="rgb(8, 243, 53)" d="M 512 85.60000000000002 C 517.328 85.60000000000002 517.328 93.60000000000002 512 93.60000000000002 C 506.672 93.60000000000002 506.672 85.60000000000002 512 85.60000000000002 Z"></path><path fill="rgb(245, 64, 50)" d="M 510 108 C 515.328 108 515.328 116 510 116 C 504.672 116 504.672 108 510 108 Z"></path><path fill="rgb(8, 243, 53)" d="M 509 108 C 514.328 108 514.328 116 509 116 C 503.672 116 503.672 108 509 108 Z"></path><path fill="rgb(245, 64, 50)" d="M 508 130.4 C 513.328 130.4 513.328 138.4 508 138.4 C 502.672 138.4 502.672 130.4 508 130.4 Z"></path><path fill="rgb(8, 243, 53)" d="M 507 130.4 C 512.328 130.4 512.328 138.4 507 138.4 C 501.672 138.4 501.672 130.4 507 130.4 Z"></path><path fill="rgb(8, 243, 53)" d="M 506 152.8 C 511.328 152.8 511.328 160.8 506 160.8 C 500.672 160.8 500.672 152.8 506 152.8 Z"></path><path fill="rgb(8, 243, 53)" d="M 506 175.2 C 511.328 175.2 511.328 183.2 506 183.2 C 500.672 183.2 500.672 175.2 506 175.2 Z"></path><path fill="rgb(8, 243, 53)" d="M 5 197.6 C 10.328 197.6 10.328 205.6 5 205.6 C -0.32800000000000007 205.6 -0.32800000000000007 197.6 5 197.6 Z"></path></g></g><text x="300" text-anchor="middle" class="highcharts-title"  style="color:#333333;font-size:18px;fill:#333333;width:536px;" y="25"><tspan>Questions Correct Over Time</tspan></text><text x="300" text-anchor="middle" class="highcharts-subtitle"  style="color:#555555;fill:#555555;width:536px;" y="53"><tspan>Click and drag in the plot area to zoom in</tspan></text><g class="highcharts-legend"  transform="translate(255,364)"><g ><g><g class="highcharts-legend-item"  transform="translate(8,3)"><path fill="none" d="M 0 11 L 16 11" stroke="#9ab2d6" stroke-width="2"></path><path fill="#9ab2d6" d="M 8 7 C 13.328 7 13.328 15 8 15 C 2.6719999999999997 15 2.6719999999999997 7 8 7 Z"></path><text x="21" style="color:#333333;font-size:12px;font-weight:bold;cursor:pointer;fill:#333333;" text-anchor="start"  y="15">Questions</text></g></g></g></g><g class="highcharts-axis-labels highcharts-xaxis-labels" ><text x="145.7564336650335" text-anchor="middle" style="color:#606060;cursor:default;font-size:11px;fill:#606060;" y="316" opacity="1"><tspan>01:15 PM</tspan></text><text x="224.72542426178956" text-anchor="middle" style="color:#606060;cursor:default;font-size:11px;fill:#606060;" y="316" opacity="1"><tspan>01:30 PM</tspan></text><text x="303.6944148585456" text-anchor="middle" style="color:#606060;cursor:default;font-size:11px;fill:#606060;" y="316" opacity="1"><tspan>01:45 PM</tspan></text><text x="382.66340545530164" text-anchor="middle" style="color:#606060;cursor:default;font-size:11px;fill:#606060;" y="316" opacity="1"><tspan>02:00 PM</tspan></text><text x="461.6323960520577" text-anchor="middle" style="color:#606060;cursor:default;font-size:11px;fill:#606060;" y="316" opacity="1"><tspan>02:15 PM</tspan></text><text x="540.6013866488138" text-anchor="middle" style="color:#606060;cursor:default;font-size:11px;fill:#606060;" y="316" opacity="1"><tspan>02:30 PM</tspan></text></g><g class="highcharts-axis-labels highcharts-yaxis-labels" ><text x="56" text-anchor="end" style="width:178px;color:#606060;cursor:default;font-size:11px;fill:#606060;" y="299.8125" opacity="1">0</text><text x="56" text-anchor="end" style="width:178px;color:#606060;cursor:default;font-size:11px;fill:#606060;" y="75.8125" opacity="1">10</text><text x="56" text-anchor="end" style="width:178px;color:#606060;cursor:default;font-size:11px;fill:#606060;" y="243.8125" opacity="1">2.5</text><text x="56" text-anchor="end" style="width:178px;color:#606060;cursor:default;font-size:11px;fill:#606060;" y="187.8125" opacity="1">5</text><text x="56" text-anchor="end" style="width:178px;color:#606060;cursor:default;font-size:11px;fill:#606060;" y="131.8125" opacity="1">7.5</text></g><g class="highcharts-tooltip"  style="cursor:default;padding:0;white-space:nowrap;" transform="translate(0,-9999)"><path fill="none" d="M 3 0 L 13 0 C 16 0 16 0 16 3 L 16 13 C 16 16 16 16 13 16 L 3 16 C 0 16 0 16 0 13 L 0 3 C 0 0 0 0 3 0"  stroke="black" stroke-opacity="0.049999999999999996" stroke-width="5" transform="translate(1, 1)"></path><path fill="none" d="M 3 0 L 13 0 C 16 0 16 0 16 3 L 16 13 C 16 16 16 16 13 16 L 3 16 C 0 16 0 16 0 13 L 0 3 C 0 0 0 0 3 0"  stroke="black" stroke-opacity="0.09999999999999999" stroke-width="3" transform="translate(1, 1)"></path><path fill="none" d="M 3 0 L 13 0 C 16 0 16 0 16 3 L 16 13 C 16 16 16 16 13 16 L 3 16 C 0 16 0 16 0 13 L 0 3 C 0 0 0 0 3 0"  stroke="black" stroke-opacity="0.15" stroke-width="1" transform="translate(1, 1)"></path><path fill="rgb(249, 249, 249)" fill-opacity=" .85" d="M 3 0 L 13 0 C 16 0 16 0 16 3 L 16 13 C 16 16 16 16 13 16 L 3 16 C 0 16 0 16 0 13 L 0 3 C 0 0 0 0 3 0"></path><text x="8"  style="font-size:12px;color:#333333;fill:#333333;" y="21"></text></g><text x="590" text-anchor="end"  style="cursor:pointer;color:#909090;font-size:9px;fill:#909090;" y="395">Highcharts.com</text></svg>