<svg xmlns:xlink="http://www.w3.org/1999/xlink" version="1.1" style="font-family:'lucida grande', 'lucida sans unicode', arial, helvetica, sans-serif;font-size:12px;" xmlns="http://www.w3.org/2000/svg" width="600" height="400"><desc>Created with Highcharts 4.0.4</desc><defs><clipPath id="highcharts-65"><rect x="0" y="0" width="520" height="225"></rect></clipPath></defs><rect x="0" y="0" width="600" height="400" strokeWidth="0" fill="#FFFFFF" class=" highcharts-background"></rect><g class="highcharts-grid" ></g><g class="highcharts-grid" ><path fill="none" d="M 70 70.5 L 590 70.5" stroke="#C0C0C0" stroke-width="1"  opacity="1"></path><path fill="none" d="M 70 127.5 L 590 127.5" stroke="#C0C0C0" stroke-width="1"  opacity="1"></path><path fill="none" d="M 70 184.5 L 590 184.5" stroke="#C0C0C0" stroke-width="1"  opacity="1"></path><path fill="none" d="M 70 240.5 L 590 240.5" stroke="#C0C0C0" stroke-width="1"  opacity="1"></path><path fill="none" d="M 70 296.5 L 590 296.5" stroke="#C0C0C0" stroke-width="1"  opacity="1"></path></g><g class="highcharts-axis" ><path fill="none" d="M 242.5 296 L 242.5 306" stroke="#C0D0E0" stroke-width="1" opacity="1"></path><path fill="none" d="M 337.5 296 L 337.5 306" stroke="#C0D0E0" stroke-width="1" opacity="1"></path><path fill="none" d="M 432.5 296 L 432.5 306" stroke="#C0D0E0" stroke-width="1" opacity="1"></path><path fill="none" d="M 527.5 296 L 527.5 306" stroke="#C0D0E0" stroke-width="1" opacity="1"></path><path fill="none" d="M 147.5 296 L 147.5 306" stroke="#C0D0E0" stroke-width="1" opacity="1"></path><text x="330"  text-anchor="middle" transform="translate(0,0)" class=" highcharts-xaxis-title" style="color:#707070;fill:#707070;" visibility="visible" y="338">Time</text><path fill="none" d="M 70 296.5 L 590 296.5" stroke="#C0D0E0" stroke-width="1"  visibility="visible"></path></g><g class="highcharts-axis" ><text x="27.59375"  text-anchor="middle" transform="translate(0,0) rotate(270 27.59375 183.5)" class=" highcharts-yaxis-title" style="color:#707070;fill:#707070;" visibility="visible" y="183.5"><tspan>Questions Correct</tspan></text></g><g class="highcharts-series-group" ><g class="highcharts-series" visibility="visible"  transform="translate(70,71) scale(1 1)" clip-path="url(#highcharts-65)"><path fill="none" d="M 5.098039215686275 225 C 5.098039215686275 225 5.287792536369386 225 5.414294750158128 225 C 5.730550284629981 225 5.888678051865908 202.5 6.204933586337761 202.5 C 6.4579380139152445 202.5 6.584440227703984 202.5 6.837444655281468 202.5 C 9.367488931056295 202.5 10.632511068943705 202.5 13.162555344718532 202.5 C 14.174573055028464 202.5 14.68058191018343 202.5 15.69259962049336 202.5 C 16.388361796331434 202.5 16.736242884250476 184.71428571428572 17.432005060088553 180 C 19.392789373814043 166.71428571428572 20.37318153067679 157.5 22.33396584440228 157.5 C 98.10879190385832 157.5 135.99620493358634 157.5 211.7710309930424 157.5 C 211.83428209993676 157.5 211.8659076533839 157.5 211.9291587602783 157.5 C 217.43200506008853 157.5 220.18342820999368 157.5 225.68627450980392 157.5 C 238.02024035420618 157.5 244.18722327640734 135 256.5211891208096 135 C 256.584440227704 135 256.6160657811512 135 256.67931688804555 135 C 257.31182795698925 135 257.6280834914611 135 258.2605945604048 135 C 258.95635673624287 135 259.30423782416193 125.7 260 112.5 C 260.2530044275775 107.7 260.3795066413662 100.28571428571429 260.6325110689437 90 C 260.8222643896268 82.28571428571429 260.91714104996834 74.25000000000202 261.1068943706515 67.5 C 261.4231499051233 56.25000000000202 261.5812776723593 54.999999999999204 261.8975332068311 45 C 262.1505376344086 36.999999999999204 262.2770398481974 22.5 262.53004427577486 22.5 C 262.5932953826692 22.5 262.6249209361164 22.5 262.68817204301075 22.5 C 363.57368753953193 22.5 514.9019607843137 22.5 514.9019607843137 22.5" stroke="#9ab2d6" stroke-width="2"  stroke-linejoin="round" stroke-linecap="round"></path></g><g class="highcharts-markers" visibility="visible"  transform="translate(70,71) scale(1 1)" clip-path="none"><path fill="rgb(245, 64, 50)" d="M 514 18.5 C 519.328 18.5 519.328 26.5 514 26.5 C 508.672 26.5 508.672 18.5 514 18.5 Z"></path><path fill="rgb(245, 64, 50)" d="M 262 18.5 C 267.328 18.5 267.328 26.5 262 26.5 C 256.672 26.5 256.672 18.5 262 18.5 Z"></path><path fill="rgb(8, 243, 53)" d="M 262 18.5 C 267.328 18.5 267.328 26.5 262 26.5 C 256.672 26.5 256.672 18.5 262 18.5 Z"></path><path fill="rgb(8, 243, 53)" d="M 261 41 C 266.328 41 266.328 49 261 49 C 255.672 49 255.672 41 261 41 Z"></path><path fill="rgb(8, 243, 53)" d="M 261 63.5 C 266.328 63.5 266.328 71.5 261 71.5 C 255.672 71.5 255.672 63.5 261 63.5 Z"></path><path fill="rgb(8, 243, 53)" d="M 260 86 C 265.328 86 265.328 94 260 94 C 254.672 94 254.672 86 260 86 Z"></path><path fill="rgb(8, 243, 53)" d="M 260 108.5 C 265.328 108.5 265.328 116.5 260 116.5 C 254.672 116.5 254.672 108.5 260 108.5 Z"></path><path fill="rgb(245, 64, 50)" d="M 258 131 C 263.328 131 263.328 139 258 139 C 252.672 139 252.672 131 258 131 Z"></path><path fill="rgb(245, 64, 50)" d="M 256 131 C 261.328 131 261.328 139 256 139 C 250.672 139 250.672 131 256 131 Z"></path><path fill="rgb(8, 243, 53)" d="M 256 131 C 261.328 131 261.328 139 256 139 C 250.672 139 250.672 131 256 131 Z"></path><path fill="rgb(245, 64, 50)" d="M 225 153.5 C 230.328 153.5 230.328 161.5 225 161.5 C 219.672 161.5 219.672 153.5 225 153.5 Z"></path><path fill="rgb(245, 64, 50)" d="M 211 153.5 C 216.328 153.5 216.328 161.5 211 161.5 C 205.672 161.5 205.672 153.5 211 153.5 Z"></path><path fill="rgb(245, 64, 50)" d="M 211 153.5 C 216.328 153.5 216.328 161.5 211 161.5 C 205.672 161.5 205.672 153.5 211 153.5 Z"></path><path fill="rgb(8, 243, 53)" d="M 22 153.5 C 27.328 153.5 27.328 161.5 22 161.5 C 16.672 161.5 16.672 153.5 22 153.5 Z"></path><path fill="rgb(8, 243, 53)" d="M 17 176 C 22.328 176 22.328 184 17 184 C 11.672 184 11.672 176 17 176 Z"></path><path fill="rgb(245, 64, 50)" d="M 15 198.5 C 20.328 198.5 20.328 206.5 15 206.5 C 9.672 206.5 9.672 198.5 15 198.5 Z"></path><path fill="rgb(245, 64, 50)" d="M 13 198.5 C 18.328 198.5 18.328 206.5 13 206.5 C 7.672 206.5 7.672 198.5 13 198.5 Z"></path><path fill="rgb(245, 64, 50)" d="M 6 198.5 C 11.328 198.5 11.328 206.5 6 206.5 C 0.6719999999999999 206.5 0.6719999999999999 198.5 6 198.5 Z"></path><path fill="rgb(8, 243, 53)" d="M 6 198.5 C 11.328 198.5 11.328 206.5 6 206.5 C 0.6719999999999999 206.5 0.6719999999999999 198.5 6 198.5 Z"></path><path fill="rgb(245, 64, 50)" d="M 5 221 C 10.328 221 10.328 229 5 229 C -0.32800000000000007 229 -0.32800000000000007 221 5 221 Z"></path><path fill="rgb(245, 64, 50)" d="M 5 221 C 10.328 221 10.328 229 5 229 C -0.32800000000000007 229 -0.32800000000000007 221 5 221 Z"></path></g></g><text x="300" text-anchor="middle" class="highcharts-title"  style="color:#333333;font-size:18px;fill:#333333;width:536px;" y="25"><tspan>Questions Correct Over Time</tspan></text><text x="300" text-anchor="middle" class="highcharts-subtitle"  style="color:#555555;fill:#555555;width:536px;" y="53"><tspan>Click and drag in the plot area to zoom in</tspan></text><g class="highcharts-legend"  transform="translate(255,364)"><g ><g><g class="highcharts-legend-item"  transform="translate(8,3)"><path fill="none" d="M 0 11 L 16 11" stroke="#9ab2d6" stroke-width="2"></path><path fill="#9ab2d6" d="M 8 7 C 13.328 7 13.328 15 8 15 C 2.6719999999999997 15 2.6719999999999997 7 8 7 Z"></path><text x="21" style="color:#333333;font-size:12px;font-weight:bold;cursor:pointer;fill:#333333;" text-anchor="start"  y="15">Questions</text></g></g></g></g><g class="highcharts-axis-labels highcharts-xaxis-labels" ><text x="148.46932321315623" text-anchor="middle" style="color:#606060;cursor:default;font-size:11px;fill:#606060;" y="316" opacity="1"><tspan>07:10 PM</tspan></text><text x="243.3459835547122" text-anchor="middle" style="color:#606060;cursor:default;font-size:11px;fill:#606060;" y="316" opacity="1"><tspan>07:20 PM</tspan></text><text x="338.2226438962682" text-anchor="middle" style="color:#606060;cursor:default;font-size:11px;fill:#606060;" y="316" opacity="1"><tspan>07:30 PM</tspan></text><text x="433.0993042378242" text-anchor="middle" style="color:#606060;cursor:default;font-size:11px;fill:#606060;" y="316" opacity="1"><tspan>07:40 PM</tspan></text><text x="527.9759645793802" text-anchor="middle" style="color:#606060;cursor:default;font-size:11px;fill:#606060;" y="316" opacity="1"><tspan>07:50 PM</tspan></text></g><g class="highcharts-axis-labels highcharts-yaxis-labels" ><text x="55" text-anchor="end" style="width:178px;color:#606060;cursor:default;font-size:11px;fill:#606060;" y="299.5" opacity="1">0</text><text x="55" text-anchor="end" style="width:178px;color:#606060;cursor:default;font-size:11px;fill:#606060;" y="74.5" opacity="1">10</text><text x="55" text-anchor="end" style="width:178px;color:#606060;cursor:default;font-size:11px;fill:#606060;" y="243.25" opacity="1">2.5</text><text x="55" text-anchor="end" style="width:178px;color:#606060;cursor:default;font-size:11px;fill:#606060;" y="187" opacity="1">5</text><text x="55" text-anchor="end" style="width:178px;color:#606060;cursor:default;font-size:11px;fill:#606060;" y="130.75" opacity="1">7.5</text></g><g class="highcharts-tooltip"  style="cursor:default;padding:0;white-space:nowrap;" transform="translate(0,-9999)"><path fill="none" d="M 3 0 L 13 0 C 16 0 16 0 16 3 L 16 13 C 16 16 16 16 13 16 L 3 16 C 0 16 0 16 0 13 L 0 3 C 0 0 0 0 3 0"  stroke="black" stroke-opacity="0.049999999999999996" stroke-width="5" transform="translate(1, 1)"></path><path fill="none" d="M 3 0 L 13 0 C 16 0 16 0 16 3 L 16 13 C 16 16 16 16 13 16 L 3 16 C 0 16 0 16 0 13 L 0 3 C 0 0 0 0 3 0"  stroke="black" stroke-opacity="0.09999999999999999" stroke-width="3" transform="translate(1, 1)"></path><path fill="none" d="M 3 0 L 13 0 C 16 0 16 0 16 3 L 16 13 C 16 16 16 16 13 16 L 3 16 C 0 16 0 16 0 13 L 0 3 C 0 0 0 0 3 0"  stroke="black" stroke-opacity="0.15" stroke-width="1" transform="translate(1, 1)"></path><path fill="rgb(249, 249, 249)" fill-opacity=" .85" d="M 3 0 L 13 0 C 16 0 16 0 16 3 L 16 13 C 16 16 16 16 13 16 L 3 16 C 0 16 0 16 0 13 L 0 3 C 0 0 0 0 3 0"></path><text x="8"  style="font-size:12px;color:#333333;fill:#333333;" y="21"></text></g><text x="590" text-anchor="end"  style="cursor:pointer;color:#909090;font-size:9px;fill:#909090;" y="395">Highcharts.com</text></svg>