<svg xmlns:xlink="http://www.w3.org/1999/xlink" xmlns="http://www.w3.org/2000/svg" style="font-family: 'lucida grande', 'lucida sans unicode', arial, helvetica, sans-serif; font-size: 12px;" width="600" height="400" version="1.1"><desc>Created with Highcharts 4.0.4</desc><defs><clipPath id="highcharts-5"><rect x="0" y="0" width="519" height="227" /></clipPath></defs><rect class=" highcharts-background" fill="#ffffff" x="0" y="0" width="600" height="400" strokeWidth="0" /><g class="highcharts-grid"  /><g class="highcharts-grid" ><path opacity="1" fill="none" stroke="#c0c0c0" stroke-width="1" d="M 71 71.5 L 590 71.5"  /><path opacity="1" fill="none" stroke="#c0c0c0" stroke-width="1" d="M 71 129.5 L 590 129.5"  /><path opacity="1" fill="none" stroke="#c0c0c0" stroke-width="1" d="M 71 186.5 L 590 186.5"  /><path opacity="1" fill="none" stroke="#c0c0c0" stroke-width="1" d="M 71 242.5 L 590 242.5"  /><path opacity="1" fill="none" stroke="#c0c0c0" stroke-width="1" d="M 71 299.5 L 590 299.5"  /></g><g class="highcharts-axis" ><path opacity="1" fill="none" stroke="#c0d0e0" stroke-width="1" d="M 156.5 299 L 156.5 309" /><path opacity="1" fill="none" stroke="#c0d0e0" stroke-width="1" d="M 232.5 299 L 232.5 309" /><path opacity="1" fill="none" stroke="#c0d0e0" stroke-width="1" d="M 307.5 299 L 307.5 309" /><path opacity="1" fill="none" stroke="#c0d0e0" stroke-width="1" d="M 383.5 299 L 383.5 309" /><path opacity="1" fill="none" stroke="#c0d0e0" stroke-width="1" d="M 458.5 299 L 458.5 309" /><path opacity="1" fill="none" stroke="#c0d0e0" stroke-width="1" d="M 534.5 299 L 534.5 309" /><path opacity="1" fill="none" stroke="#c0d0e0" stroke-width="1" d="M 81.5 299 L 81.5 309" /><text class=" highcharts-xaxis-title" visibility="visible" style="color: rgb(112, 112, 112); fill: #707070;" text-anchor="middle" transform="translate(0)" x="330.5" y="338" >Time</text><path visibility="visible" fill="none" stroke="#c0d0e0" stroke-width="1" d="M 71 299.5 L 590 299.5"  /></g><g class="highcharts-axis" ><text class=" highcharts-yaxis-title" visibility="visible" style="color: rgb(112, 112, 112); fill: #707070;" text-anchor="middle" transform="translate(0) rotate(270 28.6 185.5)" x="28.6" y="185.5" ><tspan>Questions Correct</tspan></text></g><g class="highcharts-series-group" ><g class="highcharts-series" visibility="visible" clip-path="url(#highcharts-5)" transform="translate(71 72) scale(1)" ><path fill="none" stroke="#9ab2d6" stroke-linecap="round" stroke-linejoin="round" stroke-width="2" d="M 5.08824 204.3 C 5.08824 204.3 118.677 198.114 194.403 181.6 C 201.951 179.954 205.724 167.155 213.272 158.9 C 222.329 148.995 226.857 146.105 235.914 136.2 C 243.462 127.945 247.235 116.158 254.783 113.5 C 298.81 97.9976 320.823 102.11 364.85 90.8 C 391.517 83.9496 404.851 76.2222 431.519 68.1 C 464.476 58.0622 513.912 45.4 513.912 45.4"  /></g><g class="highcharts-markers" visibility="visible" clip-path="none" transform="translate(71 72) scale(1)" ><path fill="rgb(8, 243, 53)" d="M 513 41.4 C 518.328 41.4 518.328 49.4 513 49.4 C 507.672 49.4 507.672 41.4 513 41.4 Z" /><path fill="rgb(8, 243, 53)" d="M 431 64.1 C 436.328 64.1 436.328 72.1 431 72.1 C 425.672 72.1 425.672 64.1 431 64.1 Z" /><path fill="rgb(8, 243, 53)" d="M 364 86.8 C 369.328 86.8 369.328 94.8 364 94.8 C 358.672 94.8 358.672 86.8 364 86.8 Z" /><path fill="rgb(8, 243, 53)" d="M 254 109.5 C 259.328 109.5 259.328 117.5 254 117.5 C 248.672 117.5 248.672 109.5 254 109.5 Z" /><path fill="rgb(8, 243, 53)" d="M 235 132.2 C 240.328 132.2 240.328 140.2 235 140.2 C 229.672 140.2 229.672 132.2 235 132.2 Z" /><path fill="rgb(8, 243, 53)" d="M 213 154.9 C 218.328 154.9 218.328 162.9 213 162.9 C 207.672 162.9 207.672 154.9 213 154.9 Z" /><path fill="rgb(8, 243, 53)" d="M 194 177.6 C 199.328 177.6 199.328 185.6 194 185.6 C 188.672 185.6 188.672 177.6 194 177.6 Z" /><path fill="rgb(8, 243, 53)" d="M 5 200.3 C 10.328 200.3 10.328 208.3 5 208.3 C -0.328 208.3 -0.328 200.3 5 200.3 Z" /></g></g><text class="highcharts-title" style="width: 536px; color: rgb(51, 51, 51); font-size: 18px; fill: #333333;" text-anchor="middle" x="300" y="25" ><tspan>Questions Correct Over Time</tspan></text><text class="highcharts-subtitle" style="width: 536px; color: rgb(85, 85, 85); fill: #555555;" text-anchor="middle" x="300" y="53" ><tspan>Click and drag in the plot area to zoom in</tspan></text><g class="highcharts-legend" transform="translate(255 364)" ><g ><g><g class="highcharts-legend-item" transform="translate(8 3)" ><path fill="none" stroke="#9ab2d6" stroke-width="2" d="M 0 11 L 16 11" /><path fill="#9ab2d6" d="M 8 7 C 13.328 7 13.328 15 8 15 C 2.672 15 2.672 7 8 7 Z" /><text style="color: rgb(51, 51, 51); font-size: 12px; font-weight: bold; cursor: pointer; fill: #333333;" text-anchor="start" x="21" y="15" >Questions</text></g></g></g></g><g class="highcharts-axis-labels highcharts-xaxis-labels" ><text style="color: rgb(96, 96, 96); font-size: 11px; cursor: default; fill: #606060;" opacity="1" text-anchor="middle" x="81.7488" y="319"><tspan>11:38 AM</tspan></text><text style="color: rgb(96, 96, 96); font-size: 11px; cursor: default; fill: #606060;" opacity="1" text-anchor="middle" x="157.2233" y="319"><tspan>11:40 AM</tspan></text><text style="color: rgb(96, 96, 96); font-size: 11px; cursor: default; fill: #606060;" opacity="1" text-anchor="middle" x="232.6977" y="319"><tspan>11:42 AM</tspan></text><text style="color: rgb(96, 96, 96); font-size: 11px; cursor: default; fill: #606060;" opacity="1" text-anchor="middle" x="308.1722" y="319"><tspan>11:44 AM</tspan></text><text style="color: rgb(96, 96, 96); font-size: 11px; cursor: default; fill: #606060;" opacity="1" text-anchor="middle" x="383.6466" y="319"><tspan>11:46 AM</tspan></text><text style="color: rgb(96, 96, 96); font-size: 11px; cursor: default; fill: #606060;" opacity="1" text-anchor="middle" x="459.1211" y="319"><tspan>11:48 AM</tspan></text><text style="color: rgb(96, 96, 96); font-size: 11px; cursor: default; fill: #606060;" opacity="1" text-anchor="middle" x="534.5955" y="319"><tspan>11:50 AM</tspan></text></g><g class="highcharts-axis-labels highcharts-yaxis-labels" ><text style="width: 178px; color: rgb(96, 96, 96); font-size: 11px; cursor: default; fill: #606060;" opacity="1" text-anchor="end" x="56" y="304">0</text><text style="width: 178px; color: rgb(96, 96, 96); font-size: 11px; cursor: default; fill: #606060;" opacity="1" text-anchor="end" x="56" y="77">10</text><text style="width: 178px; color: rgb(96, 96, 96); font-size: 11px; cursor: default; fill: #606060;" opacity="1" text-anchor="end" x="56" y="247.25">2.5</text><text style="width: 178px; color: rgb(96, 96, 96); font-size: 11px; cursor: default; fill: #606060;" opacity="1" text-anchor="end" x="56" y="190.5">5</text><text style="width: 178px; color: rgb(96, 96, 96); font-size: 11px; cursor: default; fill: #606060;" opacity="1" text-anchor="end" x="56" y="133.75">7.5</text></g><g class="highcharts-tooltip" style="padding: 0px; white-space: nowrap; cursor: default;" transform="translate(0 -9999)" ><path fill="none" stroke="black" stroke-opacity="0.05" stroke-width="5" transform="translate(1 1)" d="M 3 0 L 13 0 C 16 0 16 0 16 3 L 16 13 C 16 16 16 16 13 16 L 3 16 C 0 16 0 16 0 13 L 0 3 C 0 0 0 0 3 0"  /><path fill="none" stroke="black" stroke-opacity="0.1" stroke-width="3" transform="translate(1 1)" d="M 3 0 L 13 0 C 16 0 16 0 16 3 L 16 13 C 16 16 16 16 13 16 L 3 16 C 0 16 0 16 0 13 L 0 3 C 0 0 0 0 3 0"  /><path fill="none" stroke="black" stroke-opacity="0.15" stroke-width="1" transform="translate(1 1)" d="M 3 0 L 13 0 C 16 0 16 0 16 3 L 16 13 C 16 16 16 16 13 16 L 3 16 C 0 16 0 16 0 13 L 0 3 C 0 0 0 0 3 0"  /><path fill="rgb(249, 249, 249)" fill-opacity=" 0.85" d="M 3 0 L 13 0 C 16 0 16 0 16 3 L 16 13 C 16 16 16 16 13 16 L 3 16 C 0 16 0 16 0 13 L 0 3 C 0 0 0 0 3 0" /><text style="color: rgb(51, 51, 51); font-size: 12px; fill: #333333;" x="8" y="21" ></text></g><text style="color: rgb(144, 144, 144); font-size: 9px; cursor: pointer; fill: #909090;" text-anchor="end" x="590" y="395" >Highcharts.com</text></svg>