<svg xmlns:xlink="http://www.w3.org/1999/xlink" xmlns="http://www.w3.org/2000/svg" style="font-family: 'lucida grande', 'lucida sans unicode', arial, helvetica, sans-serif; font-size: 12px;" width="600" height="400" version="1.1"><desc>Created with Highcharts 4.0.4</desc><defs><clipPath id="highcharts-35"><rect x="0" y="0" width="516" height="227" /></clipPath></defs><rect class=" highcharts-background" fill="#ffffff" x="0" y="0" width="600" height="400" strokeWidth="0" /><g class="highcharts-grid"  /><g class="highcharts-grid" ><path opacity="1" fill="none" stroke="#c0c0c0" stroke-width="1" d="M 74 71.5 L 590 71.5"  /><path opacity="1" fill="none" stroke="#c0c0c0" stroke-width="1" d="M 74 129.5 L 590 129.5"  /><path opacity="1" fill="none" stroke="#c0c0c0" stroke-width="1" d="M 74 186.5 L 590 186.5"  /><path opacity="1" fill="none" stroke="#c0c0c0" stroke-width="1" d="M 74 242.5 L 590 242.5"  /><path opacity="1" fill="none" stroke="#c0c0c0" stroke-width="1" d="M 74 299.5 L 590 299.5"  /></g><g class="highcharts-axis" ><path opacity="1" fill="none" stroke="#c0d0e0" stroke-width="1" d="M 270.5 299 L 270.5 309" /><path opacity="1" fill="none" stroke="#c0d0e0" stroke-width="1" d="M 386.5 299 L 386.5 309" /><path opacity="1" fill="none" stroke="#c0d0e0" stroke-width="1" d="M 501.5 299 L 501.5 309" /><path opacity="1" fill="none" stroke="#c0d0e0" stroke-width="1" d="M 155.5 299 L 155.5 309" /><text class=" highcharts-xaxis-title" visibility="visible" style="color: rgb(112, 112, 112); fill: #707070;" text-anchor="middle" transform="translate(0)" x="332" y="338" >Time</text><path visibility="visible" fill="none" stroke="#c0d0e0" stroke-width="1" d="M 74 299.5 L 590 299.5"  /></g><g class="highcharts-axis" ><text class=" highcharts-yaxis-title" visibility="visible" style="color: rgb(112, 112, 112); fill: #707070;" text-anchor="middle" transform="translate(0) rotate(270 28.12 185.5)" x="28.12" y="185.5" ><tspan>Questions Correct</tspan></text></g><g class="highcharts-series-group" ><g class="highcharts-series" visibility="visible" clip-path="url(#highcharts-35)" transform="translate(74 72) scale(1)" ><path fill="none" stroke="#9ab2d6" stroke-linecap="round" stroke-linejoin="round" stroke-width="2" d="M 5.05882 227 C 5.05882 227 6.32689 226.124 7.17227 224.73 C 7.42845 224.308 7.55653 222.46 7.81271 222.46 C 8.42753 222.46 8.73494 222.46 9.34976 222.46 C 9.75964 222.46 9.96458 222.46 10.3745 222.46 C 10.8356 222.46 11.0661 222.46 11.5273 222.46 C 11.9628 222.46 12.1805 221.377 12.616 220.19 C 12.8466 219.561 12.9618 217.92 13.1924 217.92 C 13.2949 217.92 13.3461 217.92 13.4486 217.92 C 13.9353 217.92 14.1787 217.92 14.6654 217.92 C 15.4852 217.92 15.895 216.768 16.7148 215.65 C 17.2272 214.952 17.4833 214.418 17.9957 213.38 C 18.3799 212.602 18.5721 211.11 18.9563 211.11 C 19.7761 211.11 20.186 211.11 21.0057 211.11 C 21.4669 211.11 21.6974 209.774 22.1585 208.84 C 22.594 207.958 22.8118 207.506 23.2473 206.57 C 23.6572 205.69 23.8621 204.3 24.272 204.3 C 25.7066 204.3 26.4239 204.3 27.8584 204.3 C 28.4733 204.3 28.7807 202.03 29.3955 202.03 C 30.8813 202.03 31.6242 202.03 33.11 202.03 C 34.1091 202.03 34.6087 202.03 35.6077 202.03 C 37.7596 202.03 38.8355 202.03 40.9874 202.03 C 41.4229 202.03 41.6407 200.863 42.0762 199.76 C 42.358 199.047 42.4989 197.49 42.7807 197.49 C 43.2161 197.49 43.4339 197.49 43.8694 197.49 C 44.2793 197.49 44.4842 197.49 44.8941 197.49 C 45.4833 197.49 45.7779 195.22 46.3671 195.22 C 47.11 195.22 47.4815 195.22 48.2244 195.22 C 48.583 195.22 48.7623 195.22 49.121 195.22 C 49.8639 195.22 50.2354 195.22 50.9783 195.22 C 51.5162 195.22 51.7852 195.22 52.3232 195.22 C 53.1173 195.22 53.5144 195.22 54.3085 195.22 C 54.9234 195.22 55.2308 192.95 55.8456 192.95 C 56.7934 192.95 57.2674 192.95 58.2152 192.95 C 59.1887 192.95 59.6754 190.68 60.6489 190.68 C 61.1612 190.68 61.4174 190.68 61.9298 190.68 C 62.6471 190.68 63.0057 188.41 63.723 188.41 C 64.2353 188.41 64.4915 188.41 65.0039 188.41 C 65.9005 188.41 66.3488 187.217 67.2454 186.14 C 67.8602 185.401 68.1676 184.908 68.7825 183.87 C 69.2436 183.092 69.4741 182.164 69.9352 181.6 C 70.9599 180.348 71.4723 179.33 72.497 179.33 C 72.7788 179.33 72.9197 179.33 73.2015 179.33 C 73.6626 179.33 73.8932 177.06 74.3543 177.06 C 74.5336 177.06 74.6233 177.06 74.8026 177.06 C 75.9041 177.06 76.4549 176.292 77.5565 174.79 C 77.787 174.476 77.9023 173.481 78.1329 172.52 C 78.3378 171.665 78.4403 170.25 78.6452 170.25 C 79.0039 170.25 79.1832 170.25 79.5418 170.25 C 79.9517 170.25 80.1566 168.835 80.5665 167.98 C 81.0276 167.019 81.2582 166.436 81.7193 165.71 C 82.411 164.62 82.7568 163.44 83.4485 163.44 C 83.7559 163.44 83.9096 163.44 84.217 163.44 C 85.1905 163.44 85.6772 163.44 86.6507 163.44 C 87.3936 163.44 87.765 163.44 88.508 163.44 C 88.9435 163.44 89.1612 161.17 89.5967 161.17 C 89.8529 161.17 89.981 161.17 90.2371 161.17 C 93.5418 161.17 95.1941 159.804 98.4988 158.9 C 101.829 157.988 103.494 157.45 106.825 156.63 C 110.872 155.634 112.896 155.919 116.943 154.36 C 117.609 154.103 117.943 152.09 118.609 152.09 C 119.787 152.09 120.376 152.09 121.555 152.09 C 122.016 152.09 122.246 152.09 122.707 152.09 C 123.937 152.09 124.552 152.09 125.781 152.09 C 127.856 152.09 128.894 152.09 130.969 152.09 C 131.43 152.09 131.661 150.25 132.122 149.82 C 133.608 148.434 134.351 148.393 135.836 147.55 C 137.553 146.577 138.411 146.84 140.127 145.28 C 140.409 145.024 140.55 143.454 140.832 143.01 C 141.703 141.638 142.138 141.927 143.009 140.74 C 143.47 140.111 143.701 138.47 144.162 138.47 C 145.007 138.47 145.43 138.47 146.276 138.47 C 146.813 138.47 147.082 137.562 147.62 136.2 C 147.8 135.746 147.889 133.93 148.069 133.93 C 148.863 133.93 149.26 133.93 150.054 133.93 C 150.592 133.93 150.861 132.664 151.399 131.66 C 151.835 130.848 152.052 130.732 152.488 129.39 C 152.641 128.916 152.718 127.12 152.872 127.12 C 153.359 127.12 153.602 127.12 154.089 127.12 C 155.344 127.12 155.972 126.036 157.227 124.85 C 157.893 124.22 158.226 123.856 158.892 122.58 C 159.174 122.04 159.315 120.31 159.597 120.31 C 159.827 120.31 159.942 120.31 160.173 120.31 C 160.429 120.31 160.557 120.31 160.813 120.31 C 161.172 120.31 161.351 118.04 161.71 118.04 C 162.12 118.04 162.325 118.04 162.735 118.04 C 163.017 118.04 163.157 115.77 163.439 115.77 C 165.309 115.77 166.244 115.77 168.114 115.77 C 170.369 115.77 171.496 115.77 173.75 115.77 C 174.109 115.77 174.288 114.078 174.647 113.5 C 175.415 112.262 175.8 111.947 176.568 111.23 C 177.747 110.131 178.336 109.858 179.514 108.96 C 180.718 108.042 181.32 108.162 182.524 106.69 C 182.806 106.346 182.947 105.471 183.229 104.42 C 183.434 103.655 183.536 102.15 183.741 102.15 C 183.869 102.15 183.933 102.15 184.061 102.15 C 184.343 102.15 184.484 100.831 184.766 99.88 C 185.022 99.0152 185.15 98.2153 185.406 97.61 C 185.919 96.3993 186.175 95.34 186.687 95.34 C 186.943 95.34 187.071 95.34 187.328 95.34 C 187.814 95.34 188.058 93.9326 188.544 93.07 C 189.082 92.1166 189.351 92.0302 189.889 90.8 C 190.146 90.2142 190.274 88.53 190.53 88.53 C 191.196 88.53 191.529 88.53 192.195 88.53 C 192.528 88.53 192.694 88.53 193.028 88.53 C 193.361 88.53 193.527 87.168 193.86 86.26 C 194.193 85.352 194.36 85.0631 194.693 83.99 C 194.923 83.2471 195.038 81.9123 195.269 81.72 C 197.216 80.0963 198.189 79.45 200.136 79.45 C 200.29 79.45 200.367 79.45 200.521 79.45 C 201.315 79.45 201.712 77.18 202.506 77.18 C 202.839 77.18 203.006 77.18 203.339 77.18 C 203.672 77.18 203.838 75.5153 204.171 74.91 C 204.837 73.6993 205.17 73.9161 205.836 72.64 C 206.118 72.1001 206.259 70.37 206.541 70.37 C 206.797 70.37 206.925 70.37 207.181 70.37 C 207.489 70.37 207.642 69.0475 207.95 68.1 C 208.232 67.2315 208.372 66.6985 208.654 65.83 C 208.962 64.8825 209.115 64.2864 209.423 63.56 C 209.884 62.4704 210.114 61.29 210.576 61.29 C 210.96 61.29 211.152 61.29 211.536 61.29 C 212.202 61.29 212.535 61.29 213.201 61.29 C 213.662 61.29 213.893 61.29 214.354 61.29 C 214.918 61.29 215.199 59.02 215.763 59.02 C 216.224 59.02 216.455 59.02 216.916 59.02 C 217.275 59.02 217.454 57.9056 217.812 56.75 C 218.017 56.0896 218.12 55.4485 218.325 54.48 C 218.504 53.6325 218.594 52.21 218.773 52.21 C 218.927 52.21 219.004 52.21 219.157 52.21 C 219.465 52.21 219.619 50.5809 219.926 49.94 C 220.49 48.7649 220.771 48.7798 221.335 47.67 C 221.694 46.9638 221.873 45.4 222.232 45.4 C 222.436 45.4 222.539 45.4 222.744 45.4 C 223.359 45.4 223.666 44.4507 224.281 43.13 C 224.511 42.6347 224.627 41.8815 224.857 40.86 C 225.037 40.0655 225.126 39.498 225.306 38.59 C 225.485 37.682 225.575 37.0678 225.754 36.32 C 226.01 35.2518 226.138 35.1182 226.394 34.05 C 226.574 33.3022 226.663 32.6275 226.843 31.78 C 227.048 30.8115 227.15 30.2746 227.355 29.51 C 227.637 28.4586 227.778 28.3498 228.059 27.24 C 228.239 26.5338 228.328 25.8175 228.508 24.97 C 228.713 24.0015 228.815 23.7377 229.02 22.7 C 229.174 21.9217 229.251 20.4328 229.404 20.43 C 327.955 18.6168 377.23 18.16 475.781 18.16 C 476.345 18.16 476.626 18.16 477.19 18.16 C 477.728 18.16 477.997 15.89 478.535 15.89 C 479.637 15.89 480.187 15.89 481.289 15.89 C 482.185 15.89 482.634 15.89 483.53 15.89 C 494.495 15.89 510.941 15.89 510.941 15.89"  /></g><g class="highcharts-markers" visibility="visible" clip-path="none" transform="translate(74 72) scale(1)"  /></g><text class="highcharts-title" style="width: 536px; color: rgb(51, 51, 51); font-size: 18px; fill: #333333;" text-anchor="middle" x="300" y="25" ><tspan>Questions Correct Over Time</tspan></text><text class="highcharts-subtitle" style="width: 536px; color: rgb(85, 85, 85); fill: #555555;" text-anchor="middle" x="300" y="53" ><tspan>Click and drag in the plot area to zoom in</tspan></text><g class="highcharts-legend" transform="translate(255 364)" ><g ><g><g class="highcharts-legend-item" transform="translate(8 3)" ><path fill="none" stroke="#9ab2d6" stroke-width="2" d="M 0 11 L 16 11" /><path fill="#9ab2d6" d="M 8 7 C 13.328 7 13.328 15 8 15 C 2.672 15 2.672 7 8 7 Z" /><text style="color: rgb(51, 51, 51); font-size: 12px; font-weight: bold; cursor: pointer; fill: #333333;" text-anchor="start" x="21" y="15" >Questions</text></g></g></g></g><g class="highcharts-axis-labels highcharts-xaxis-labels" ><text style="color: rgb(96, 96, 96); font-size: 11px; cursor: default; fill: #606060;" opacity="1" text-anchor="middle" x="156.0395" y="319"><tspan>09:30 AM</tspan></text><text style="color: rgb(96, 96, 96); font-size: 11px; cursor: default; fill: #606060;" opacity="1" text-anchor="middle" x="271.3185" y="319"><tspan>10:00 AM</tspan></text><text style="color: rgb(96, 96, 96); font-size: 11px; cursor: default; fill: #606060;" opacity="1" text-anchor="middle" x="386.5974" y="319"><tspan>10:30 AM</tspan></text><text style="color: rgb(96, 96, 96); font-size: 11px; cursor: default; fill: #606060;" opacity="1" text-anchor="middle" x="501.8763" y="319"><tspan>11:00 AM</tspan></text></g><g class="highcharts-axis-labels highcharts-yaxis-labels" ><text style="width: 178px; color: rgb(96, 96, 96); font-size: 11px; cursor: default; fill: #606060;" opacity="1" text-anchor="end" x="59" y="304">0</text><text style="width: 178px; color: rgb(96, 96, 96); font-size: 11px; cursor: default; fill: #606060;" opacity="1" text-anchor="end" x="59" y="77">100</text><text style="width: 178px; color: rgb(96, 96, 96); font-size: 11px; cursor: default; fill: #606060;" opacity="1" text-anchor="end" x="59" y="247.25">25</text><text style="width: 178px; color: rgb(96, 96, 96); font-size: 11px; cursor: default; fill: #606060;" opacity="1" text-anchor="end" x="59" y="190.5">50</text><text style="width: 178px; color: rgb(96, 96, 96); font-size: 11px; cursor: default; fill: #606060;" opacity="1" text-anchor="end" x="59" y="133.75">75</text></g><g class="highcharts-tooltip" style="padding: 0px; white-space: nowrap; cursor: default;" transform="translate(0 -9999)" ><path fill="none" stroke="black" stroke-opacity="0.05" stroke-width="5" transform="translate(1 1)" d="M 3 0 L 13 0 C 16 0 16 0 16 3 L 16 13 C 16 16 16 16 13 16 L 3 16 C 0 16 0 16 0 13 L 0 3 C 0 0 0 0 3 0"  /><path fill="none" stroke="black" stroke-opacity="0.1" stroke-width="3" transform="translate(1 1)" d="M 3 0 L 13 0 C 16 0 16 0 16 3 L 16 13 C 16 16 16 16 13 16 L 3 16 C 0 16 0 16 0 13 L 0 3 C 0 0 0 0 3 0"  /><path fill="none" stroke="black" stroke-opacity="0.15" stroke-width="1" transform="translate(1 1)" d="M 3 0 L 13 0 C 16 0 16 0 16 3 L 16 13 C 16 16 16 16 13 16 L 3 16 C 0 16 0 16 0 13 L 0 3 C 0 0 0 0 3 0"  /><path fill="rgb(249, 249, 249)" fill-opacity=" 0.85" d="M 3 0 L 13 0 C 16 0 16 0 16 3 L 16 13 C 16 16 16 16 13 16 L 3 16 C 0 16 0 16 0 13 L 0 3 C 0 0 0 0 3 0" /><text style="color: rgb(51, 51, 51); font-size: 12px; fill: #333333;" x="8" y="21" ></text></g><text style="color: rgb(144, 144, 144); font-size: 9px; cursor: pointer; fill: #909090;" text-anchor="end" x="590" y="395" >Highcharts.com</text></svg>