<svg xmlns:xlink="http://www.w3.org/1999/xlink" version="1.1" style="font-family:'lucida grande', 'lucida sans unicode', arial, helvetica, sans-serif;font-size:12px;" xmlns="http://www.w3.org/2000/svg" width="600" height="400"><desc>Created with Highcharts 4.0.4</desc><defs><clipPath id="highcharts-119"><rect x="0" y="0" width="526" height="245"></rect></clipPath></defs><rect x="0" y="0" width="600" height="400" strokeWidth="0" fill="#FFFFFF" class=" highcharts-background"></rect><g class="highcharts-grid" ></g><g class="highcharts-grid" ><path fill="none" d="M 64 61.5 L 590 61.5" stroke="#C0C0C0" stroke-width="1"  opacity="1"></path><path fill="none" d="M 64 143.5 L 590 143.5" stroke="#C0C0C0" stroke-width="1"  opacity="1"></path><path fill="none" d="M 64 224.5 L 590 224.5" stroke="#C0C0C0" stroke-width="1"  opacity="1"></path><path fill="none" d="M 64 306.5 L 590 306.5" stroke="#C0C0C0" stroke-width="1"  opacity="1"></path></g><g class="highcharts-axis" ><path fill="none" d="M 219.5 306 L 219.5 316" stroke="#C0D0E0" stroke-width="1" opacity="1"></path><path fill="none" d="M 323.5 306 L 323.5 316" stroke="#C0D0E0" stroke-width="1" opacity="1"></path><path fill="none" d="M 426.5 306 L 426.5 316" stroke="#C0D0E0" stroke-width="1" opacity="1"></path><path fill="none" d="M 529.5 306 L 529.5 316" stroke="#C0D0E0" stroke-width="1" opacity="1"></path><path fill="none" d="M 116.5 306 L 116.5 316" stroke="#C0D0E0" stroke-width="1" opacity="1"></path><text x="327"  text-anchor="middle" transform="translate(0,0)" class=" highcharts-xaxis-title" style="color:#707070;fill:#707070;" visibility="visible" y="344">Time</text><path fill="none" d="M 64 306.5 L 590 306.5" stroke="#C0D0E0" stroke-width="1"  visibility="visible"></path></g><g class="highcharts-axis" ><text x="25.078125"  text-anchor="middle" transform="translate(0,0) rotate(270 25.078125 183.5)" class=" highcharts-yaxis-title" style="color:#707070;fill:#707070;" visibility="visible" y="183.5"><tspan>Questions Correct</tspan></text></g><g class="highcharts-series-group" ><g class="highcharts-series" visibility="visible"  transform="translate(64,61) scale(1 1)" clip-path="url(#highcharts-119)"><path fill="none" d="M 5.1568627450980395 245 C 5.1568627450980395 245 21.658823529411766 245 32.66013071895425 245 C 49.16209150326797 245 57.413071895424835 238.46666666666664 73.91503267973856 228.66666666666666 C 79.41568627450981 225.4 82.16601307189542 215.6 87.66666666666667 212.33333333333334 C 104.16862745098038 202.53333333333336 112.41960784313726 205.22352941176473 128.92156862745097 196 C 135.797385620915 192.15686274509804 139.23529411764707 183.75 146.11111111111111 179.66666666666669 C 161.23790849673202 170.68333333333337 168.80130718954246 163.33333333333334 183.9281045751634 163.33333333333334 C 203.18039215686275 163.33333333333334 212.80653594771243 163.33333333333334 232.05882352941177 163.33333333333334 C 245.81045751633988 163.33333333333334 252.68627450980392 154.25925925925927 266.437908496732 147 C 277.43921568627445 141.19259259259258 282.93986928104573 130.66666666666669 293.94117647058823 130.66666666666669 C 307.6928104575163 130.66666666666669 314.5686274509804 130.66666666666669 328.32026143790847 130.66666666666669 C 333.82091503267975 130.66666666666669 336.57124183006533 121.80000000000004 342.0718954248366 114.33333333333334 C 346.19738562091504 108.73333333333336 348.26013071895426 102.35555555555555 352.3856209150327 98 C 360.63660130718955 89.28888888888888 364.7620915032679 88.20000000000006 373.01307189542484 81.66666666666669 C 381.26405228758165 75.1333333333334 385.3895424836602 65.33333333333334 393.640522875817 65.33333333333334 C 406.0169934640523 65.33333333333334 412.20522875816994 65.33333333333334 424.58169934640523 65.33333333333334 C 434.2078431372549 65.33333333333334 439.02091503267974 57.315151515151484 448.6470588235294 49 C 454.14771241830067 44.24848484848482 456.89803921568625 39.20000000000002 462.39869281045753 32.666666666666686 C 467.8993464052288 26.133333333333354 470.6496732026144 16.333333333333343 476.1503267973856 16.333333333333343 C 494.02745098039213 16.333333333333343 520.843137254902 16.333333333333343 520.843137254902 16.333333333333343" stroke="#9ab2d6" stroke-width="2"  stroke-linejoin="round" stroke-linecap="round"></path></g><g class="highcharts-markers" visibility="visible"  transform="translate(64,61) scale(1 1)" clip-path="none"><path fill="rgb(245, 64, 50)" d="M 520 12.333333333333343 C 525.328 12.333333333333343 525.328 20.333333333333343 520 20.333333333333343 C 514.672 20.333333333333343 514.672 12.333333333333343 520 12.333333333333343 Z"></path><path fill="rgb(8, 243, 53)" d="M 476 12.333333333333343 C 481.328 12.333333333333343 481.328 20.333333333333343 476 20.333333333333343 C 470.672 20.333333333333343 470.672 12.333333333333343 476 12.333333333333343 Z"></path><path fill="rgb(8, 243, 53)" d="M 462 28.666666666666686 C 467.328 28.666666666666686 467.328 36.666666666666686 462 36.666666666666686 C 456.672 36.666666666666686 456.672 28.666666666666686 462 28.666666666666686 Z"></path><path fill="rgb(8, 243, 53)" d="M 448 45 C 453.328 45 453.328 53 448 53 C 442.672 53 442.672 45 448 45 Z"></path><path fill="rgb(245, 64, 50)" d="M 424 61.33333333333334 C 429.328 61.33333333333334 429.328 69.33333333333334 424 69.33333333333334 C 418.672 69.33333333333334 418.672 61.33333333333334 424 61.33333333333334 Z"></path><path fill="rgb(8, 243, 53)" d="M 393 61.33333333333334 C 398.328 61.33333333333334 398.328 69.33333333333334 393 69.33333333333334 C 387.672 69.33333333333334 387.672 61.33333333333334 393 61.33333333333334 Z"></path><path fill="rgb(8, 243, 53)" d="M 373 77.66666666666669 C 378.328 77.66666666666669 378.328 85.66666666666669 373 85.66666666666669 C 367.672 85.66666666666669 367.672 77.66666666666669 373 77.66666666666669 Z"></path><path fill="rgb(8, 243, 53)" d="M 352 94 C 357.328 94 357.328 102 352 102 C 346.672 102 346.672 94 352 94 Z"></path><path fill="rgb(8, 243, 53)" d="M 342 110.33333333333334 C 347.328 110.33333333333334 347.328 118.33333333333334 342 118.33333333333334 C 336.672 118.33333333333334 336.672 110.33333333333334 342 110.33333333333334 Z"></path><path fill="rgb(245, 64, 50)" d="M 328 126.66666666666669 C 333.328 126.66666666666669 333.328 134.66666666666669 328 134.66666666666669 C 322.672 134.66666666666669 322.672 126.66666666666669 328 126.66666666666669 Z"></path><path fill="rgb(8, 243, 53)" d="M 293 126.66666666666669 C 298.328 126.66666666666669 298.328 134.66666666666669 293 134.66666666666669 C 287.672 134.66666666666669 287.672 126.66666666666669 293 126.66666666666669 Z"></path><path fill="rgb(8, 243, 53)" d="M 266 143 C 271.328 143 271.328 151 266 151 C 260.672 151 260.672 143 266 143 Z"></path><path fill="rgb(245, 64, 50)" d="M 232 159.33333333333334 C 237.328 159.33333333333334 237.328 167.33333333333334 232 167.33333333333334 C 226.672 167.33333333333334 226.672 159.33333333333334 232 159.33333333333334 Z"></path><path fill="rgb(8, 243, 53)" d="M 183 159.33333333333334 C 188.328 159.33333333333334 188.328 167.33333333333334 183 167.33333333333334 C 177.672 167.33333333333334 177.672 159.33333333333334 183 159.33333333333334 Z"></path><path fill="rgb(8, 243, 53)" d="M 146 175.66666666666669 C 151.328 175.66666666666669 151.328 183.66666666666669 146 183.66666666666669 C 140.672 183.66666666666669 140.672 175.66666666666669 146 175.66666666666669 Z"></path><path fill="rgb(8, 243, 53)" d="M 128 192 C 133.328 192 133.328 200 128 200 C 122.672 200 122.672 192 128 192 Z"></path><path fill="rgb(8, 243, 53)" d="M 87 208.33333333333334 C 92.328 208.33333333333334 92.328 216.33333333333334 87 216.33333333333334 C 81.672 216.33333333333334 81.672 208.33333333333334 87 208.33333333333334 Z"></path><path fill="rgb(8, 243, 53)" d="M 73 224.66666666666666 C 78.328 224.66666666666666 78.328 232.66666666666666 73 232.66666666666666 C 67.672 232.66666666666666 67.672 224.66666666666666 73 224.66666666666666 Z"></path><path fill="rgb(245, 64, 50)" d="M 32 241 C 37.328 241 37.328 249 32 249 C 26.672 249 26.672 241 32 241 Z"></path><path fill="rgb(245, 64, 50)" d="M 5 241 C 10.328 241 10.328 249 5 249 C -0.32800000000000007 249 -0.32800000000000007 241 5 241 Z"></path></g></g><text x="300" text-anchor="middle" class="highcharts-title"  style="color:#333333;font-size:18px;fill:#333333;width:536px;" y="25"><tspan>Questions Correct Over Time</tspan></text><text x="300" text-anchor="middle" class="highcharts-subtitle"  style="color:#555555;fill:#555555;width:536px;" y="46"><tspan>Click and drag in the plot area to zoom in</tspan></text><g class="highcharts-legend"  transform="translate(254,367)"><g ><g><g class="highcharts-legend-item"  transform="translate(8,3)"><path fill="none" d="M 0 11 L 16 11" stroke="#9ab2d6" stroke-width="2"></path><path fill="#9ab2d6" d="M 8 7 C 13.328 7 13.328 15 8 15 C 2.6719999999999997 15 2.6719999999999997 7 8 7 Z"></path><text x="21" style="color:#333333;font-size:12px;font-weight:bold;cursor:pointer;fill:#333333;" text-anchor="start"  y="15">Questions</text></g></g></g></g><g class="highcharts-axis-labels highcharts-xaxis-labels" ><text x="117.2875816993464" text-anchor="middle" style="color:#606060;cursor:default;font-size:11px;fill:#606060;" y="326" opacity="1"><tspan>02:45 PM</tspan></text><text x="220.4248366013072" text-anchor="middle" style="color:#606060;cursor:default;font-size:11px;fill:#606060;" y="326" opacity="1"><tspan>02:46 PM</tspan></text><text x="323.562091503268" text-anchor="middle" style="color:#606060;cursor:default;font-size:11px;fill:#606060;" y="326" opacity="1"><tspan>02:46 PM</tspan></text><text x="426.69934640522877" text-anchor="middle" style="color:#606060;cursor:default;font-size:11px;fill:#606060;" y="326" opacity="1"><tspan>02:47 PM</tspan></text><text x="529.8366013071895" text-anchor="middle" style="color:#606060;cursor:default;font-size:11px;fill:#606060;" y="326" opacity="1"><tspan>02:47 PM</tspan></text></g><g class="highcharts-axis-labels highcharts-yaxis-labels" ><text x="49" text-anchor="end" style="width:178px;color:#606060;cursor:default;font-size:11px;fill:#606060;" y="311.5" opacity="1">0</text><text x="49" text-anchor="end" style="width:178px;color:#606060;cursor:default;font-size:11px;fill:#606060;" y="229.83333333333337" opacity="1">5</text><text x="49" text-anchor="end" style="width:178px;color:#606060;cursor:default;font-size:11px;fill:#606060;" y="148.16666666666669" opacity="1">10</text><text x="49" text-anchor="end" style="width:178px;color:#606060;cursor:default;font-size:11px;fill:#606060;" y="66.50000000000003" opacity="1">15</text></g><g class="highcharts-tooltip"  style="cursor:default;padding:0;white-space:nowrap;" transform="translate(0,-9999)"><path fill="none" d="M 3 0 L 13 0 C 16 0 16 0 16 3 L 16 13 C 16 16 16 16 13 16 L 3 16 C 0 16 0 16 0 13 L 0 3 C 0 0 0 0 3 0"  stroke="black" stroke-opacity="0.049999999999999996" stroke-width="5" transform="translate(1, 1)"></path><path fill="none" d="M 3 0 L 13 0 C 16 0 16 0 16 3 L 16 13 C 16 16 16 16 13 16 L 3 16 C 0 16 0 16 0 13 L 0 3 C 0 0 0 0 3 0"  stroke="black" stroke-opacity="0.09999999999999999" stroke-width="3" transform="translate(1, 1)"></path><path fill="none" d="M 3 0 L 13 0 C 16 0 16 0 16 3 L 16 13 C 16 16 16 16 13 16 L 3 16 C 0 16 0 16 0 13 L 0 3 C 0 0 0 0 3 0"  stroke="black" stroke-opacity="0.15" stroke-width="1" transform="translate(1, 1)"></path><path fill="rgb(249, 249, 249)" fill-opacity=" .85" d="M 3 0 L 13 0 C 16 0 16 0 16 3 L 16 13 C 16 16 16 16 13 16 L 3 16 C 0 16 0 16 0 13 L 0 3 C 0 0 0 0 3 0"></path><text x="8"  style="font-size:12px;color:#333333;fill:#333333;" y="21"></text></g><text x="590" text-anchor="end"  style="cursor:pointer;color:#909090;font-size:9px;fill:#909090;" y="395">Highcharts.com</text></svg>