<svg xmlns:xlink="http://www.w3.org/1999/xlink" version="1.1" style="font-family:'lucida grande', 'lucida sans unicode', arial, helvetica, sans-serif;font-size:12px;" xmlns="http://www.w3.org/2000/svg" width="600" height="400"><desc>Created with Highcharts 4.0.4</desc><defs><clipPath id="highcharts-113"><rect x="0" y="0" width="523" height="225"></rect></clipPath></defs><rect x="0" y="0" width="600" height="400" strokeWidth="0" fill="#FFFFFF" class=" highcharts-background"></rect><g class="highcharts-grid" ></g><g class="highcharts-grid" ><path fill="none" d="M 67 70.5 L 590 70.5" stroke="#C0C0C0" stroke-width="1"  opacity="1"></path><path fill="none" d="M 67 127.5 L 590 127.5" stroke="#C0C0C0" stroke-width="1"  opacity="1"></path><path fill="none" d="M 67 184.5 L 590 184.5" stroke="#C0C0C0" stroke-width="1"  opacity="1"></path><path fill="none" d="M 67 240.5 L 590 240.5" stroke="#C0C0C0" stroke-width="1"  opacity="1"></path><path fill="none" d="M 67 296.5 L 590 296.5" stroke="#C0C0C0" stroke-width="1"  opacity="1"></path></g><g class="highcharts-axis" ><path fill="none" d="M 186.5 296 L 186.5 306" stroke="#C0D0E0" stroke-width="1" opacity="1"></path><path fill="none" d="M 277.5 296 L 277.5 306" stroke="#C0D0E0" stroke-width="1" opacity="1"></path><path fill="none" d="M 368.5 296 L 368.5 306" stroke="#C0D0E0" stroke-width="1" opacity="1"></path><path fill="none" d="M 458.5 296 L 458.5 306" stroke="#C0D0E0" stroke-width="1" opacity="1"></path><path fill="none" d="M 549.5 296 L 549.5 306" stroke="#C0D0E0" stroke-width="1" opacity="1"></path><path fill="none" d="M 95.5 296 L 95.5 306" stroke="#C0D0E0" stroke-width="1" opacity="1"></path><text x="328.5"  text-anchor="middle" transform="translate(0,0)" class=" highcharts-xaxis-title" style="color:#707070;fill:#707070;" visibility="visible" y="338">Time</text><path fill="none" d="M 67 296.5 L 590 296.5" stroke="#C0D0E0" stroke-width="1"  visibility="visible"></path></g><g class="highcharts-axis" ><text x="28.03125"  text-anchor="middle" transform="translate(0,0) rotate(270 28.03125 183.5)" class=" highcharts-yaxis-title" style="color:#707070;fill:#707070;" visibility="visible" y="183.5"><tspan>Questions Correct</tspan></text></g><g class="highcharts-series-group" ><g class="highcharts-series" visibility="visible"  transform="translate(67,71) scale(1 1)" clip-path="url(#highcharts-113)"><path fill="none" d="M 5.127450980392157 225 C 5.127450980392157 225 12.841315287176817 225 17.983891491699925 225 C 21.916449765747007 225 23.88272890277055 223.72697368421052 27.81528717681763 222.1875 C 29.630314072531668 221.47697368421052 30.537827520388685 219.375 32.35285441610272 219.375 C 38.70544855110186 219.375 41.88174561860143 219.375 48.23433975360056 219.375 C 51.86439354502863 219.375 53.679420440742675 219.375 57.30947423217074 219.375 C 60.63702354097982 219.375 62.300798195384345 219.375 65.62834750419341 219.375 C 68.65339233038348 219.375 70.16591474347851 217.96875 73.19095956966858 216.5625 C 75.00598646538262 215.71875 75.91349991323963 213.75 77.72852680895367 213.75 C 81.35858060038174 213.75 83.1736074960958 213.75 86.80366128752387 213.75 C 90.43371507895195 213.75 92.24874197466598 212.7375 95.87879576609406 210.9375 C 96.78630921395107 210.4875 97.24006593787958 208.96875 98.1475793857366 208.125 C 99.66010179883163 206.71875 100.41636300537915 205.3125 101.92888541847418 205.3125 C 106.46645265775928 205.3125 108.73523627740182 205.3125 113.27280351668692 205.3125 C 118.11287523859103 205.3125 120.53291109954307 204.06521739130434 125.37298282144717 202.5 C 127.49051419978021 201.81521739130434 128.54927988894673 201.1193181818182 130.66681126727977 199.6875 C 131.8768291977558 198.8693181818182 132.48183816299382 196.875 133.69185609346985 196.875 C 136.71690091965993 196.875 138.22942333275495 196.875 141.254468158945 196.875 C 148.81708022442018 196.875 152.59838625715776 196.875 160.1609983226329 196.875 C 162.58103418358496 196.875 163.79105211406096 195.5625 166.21108797501302 194.0625 C 167.42110590548904 193.3125 168.02611487072704 192.375 169.23613280120307 191.25 C 170.4461507316791 190.125 171.0511596969171 189.43750000000003 172.26117762739315 188.4375 C 173.77370004048817 187.18750000000003 174.5299612470357 186.42857142857144 176.04248366013073 185.625 C 178.76502400370177 184.17857142857144 180.12629417548732 183.77678571428572 182.84883451905836 182.8125 C 186.47888831048644 181.52678571428572 188.29391520620047 180 191.92396899762855 180 C 194.64650934119962 180 196.00777951298514 180 198.7303198565562 180 C 202.9653826132223 180 205.08291399155533 180 209.3179767482214 180 C 212.04051709179248 180 213.401787263578 178.63392857142858 216.12432760714907 177.1875 C 217.63685002024408 176.38392857142858 218.3931112267916 174.375 219.90563363988664 174.375 C 225.35071432702875 174.375 228.07325467059982 174.375 233.51833535774193 174.375 C 240.77844294059804 174.375 244.4084967320262 174.375 251.66860431488232 174.375 C 254.9961536236914 174.375 256.6599282780959 172.9375 259.98747758690496 171.5625 C 262.10500896523797 170.6875 263.16377465440456 170.0625 265.2813060327376 168.75 C 266.7938284458326 167.8125 267.5500896523801 167.1875 269.06261206547515 165.9375 C 270.2726299959512 164.9375 270.87763896118923 164.02499999999998 272.08765689166523 163.125 C 273.90268378737926 161.77499999999998 274.8101972352363 160.9875 276.6252241309503 160.3125 C 280.8602868876164 158.7375 282.97781826594945 159.075 287.21288102261553 157.5 C 289.02790791832956 156.825 289.93542136618663 154.6875 291.75044826190066 154.6875 C 294.77549308809074 154.6875 296.2880155011858 154.6875 299.3130603273758 154.6875 C 302.3381051535659 154.6875 303.85062756666093 153.48214285714286 306.87567239285096 151.875 C 308.08569032332696 151.23214285714286 308.690699288565 149.7548076923077 309.90071721904104 149.0625 C 312.6232575626121 147.5048076923077 313.9845277343976 147.69642857142856 316.70706807796864 146.25 C 318.2195904910637 145.44642857142856 318.9758516976112 144.375 320.4883741107062 143.4375 C 322.6059054890393 142.125 323.6646711782058 141.74999999999997 325.78220255653883 140.625 C 327.8997339348719 139.49999999999997 328.9584996240384 137.8125 331.07603100237145 137.8125 C 333.1935623807045 137.8125 334.252328069871 137.8125 336.36985944820407 137.8125 C 340.60492220487015 137.8125 342.7224535832032 136.6578947368421 346.9575163398693 135 C 348.47003875296434 134.4078947368421 349.22629995951183 133.4375 350.7388223726069 132.1875 C 351.94884030308293 131.1875 352.55384926832096 130.375 353.76386719879696 129.375 C 355.27638961189194 128.125 356.0326508184395 127.81250000000001 357.54517323153453 126.5625 C 358.75519116201053 125.56250000000001 359.36020012724856 124.87499999999997 360.57021805772456 123.75 C 361.7802359882006 122.62499999999997 362.38524495343864 121.93749999999999 363.59526288391464 120.9375 C 365.1077852970097 119.68749999999999 365.86404650355723 118.82812499999999 367.3765689166522 118.125 C 370.7041182254613 116.57812499999999 372.36789287986585 116.61513157894737 375.6954421886749 115.3125 C 378.115478049627 114.36513157894737 379.325495980103 113.88461538461537 381.745531841055 112.5 C 383.25805425415007 111.63461538461537 384.01431546069756 110.93749999999999 385.5268378737926 109.6875 C 386.73685580426866 108.68749999999999 387.3418647695066 108.16071428571433 388.5518826999827 106.875 C 389.45939614783964 105.91071428571433 389.9131528717682 104.90625 390.8206663196252 104.0625 C 392.33318873272026 102.65625 393.0894499392678 101.95312499999999 394.6019723523628 101.25 C 397.92952166117186 99.70312499999999 399.59329631557637 99.81250000000001 402.92084562438544 98.4375 C 405.03837700271845 97.56250000000001 406.097142691885 97.05681818181817 408.21467407021805 95.625 C 409.4246920006941 94.80681818181817 410.0297009659321 93.81250000000001 411.23971889640814 92.8125 C 412.7522413095032 91.56250000000001 413.5085025160506 90 415.0210249291457 90 C 418.65107872057376 90 420.46610561628785 90 424.0961594077159 90 C 429.54124009485804 90 432.2637804384291 90 437.70886112557116 90 C 441.64141939961826 90 443.60769853664186 89.015625 447.5402568106889 87.1875 C 448.4477702585459 86.765625 448.90152698247437 85.50000000000003 449.80904043033144 84.375 C 450.71655387818845 83.25000000000003 451.17031060211696 82.52678571428572 452.07782404997397 81.5625 C 453.28784198044997 80.27678571428572 453.89285094568805 80.24999999999993 455.10286887616405 78.75 C 455.70787784140214 77.99999999999993 456.01038232402107 76.68750000000004 456.6153912892591 75.9375 C 457.82540921973504 74.43750000000004 458.4304181849731 73.125 459.6404361154491 73.125 C 463.87549887211514 73.125 465.99303025044827 73.125 470.22809300711435 73.125 C 478.3957140378276 73.125 482.4795245531841 73.125 490.64714558389727 73.125 C 493.97469489270634 73.125 495.6384695471109 71.61513157894738 498.96601885591997 70.3125 C 501.38605471687197 69.36513157894738 502.596072647348 68.88461538461539 505.0161085083001 67.5 C 506.5286309213951 66.63461538461539 507.28489212794267 66.09374999999994 508.79741454103765 64.6875 C 509.7049279888947 63.84374999999995 510.1586847128232 61.875 511.06619816068024 61.875 C 513.7887385042513 61.875 517.8725490196078 61.875 517.8725490196078 61.875" stroke="#9ab2d6" stroke-width="2"  stroke-linejoin="round" stroke-linecap="round"></path></g><g class="highcharts-markers" visibility="visible"  transform="translate(67,71) scale(1 1)" clip-path="none"></g></g><text x="300" text-anchor="middle" class="highcharts-title"  style="color:#333333;font-size:18px;fill:#333333;width:536px;" y="25"><tspan>Questions Correct Over Time</tspan></text><text x="300" text-anchor="middle" class="highcharts-subtitle"  style="color:#555555;fill:#555555;width:536px;" y="53"><tspan>Click and drag in the plot area to zoom in</tspan></text><g class="highcharts-legend"  transform="translate(255,364)"><g ><g><g class="highcharts-legend-item"  transform="translate(8,3)"><path fill="none" d="M 0 11 L 16 11" stroke="#9ab2d6" stroke-width="2"></path><path fill="#9ab2d6" d="M 8 7 C 13.328 7 13.328 15 8 15 C 2.6719999999999997 15 2.6719999999999997 7 8 7 Z"></path><text x="21" style="color:#333333;font-size:12px;font-weight:bold;cursor:pointer;fill:#333333;" text-anchor="start"  y="15">Questions</text></g></g></g></g><g class="highcharts-axis-labels highcharts-xaxis-labels" ><text x="96.32780958991266" text-anchor="middle" style="color:#606060;cursor:default;font-size:11px;fill:#606060;" y="316" opacity="1"><tspan>02:02 PM</tspan></text><text x="187.07915437561456" text-anchor="middle" style="color:#606060;cursor:default;font-size:11px;fill:#606060;" y="316" opacity="1"><tspan>02:04 PM</tspan></text><text x="277.8304991613164" text-anchor="middle" style="color:#606060;cursor:default;font-size:11px;fill:#606060;" y="316" opacity="1"><tspan>02:06 PM</tspan></text><text x="368.58184394701834" text-anchor="middle" style="color:#606060;cursor:default;font-size:11px;fill:#606060;" y="316" opacity="1"><tspan>02:08 PM</tspan></text><text x="459.33318873272026" text-anchor="middle" style="color:#606060;cursor:default;font-size:11px;fill:#606060;" y="316" opacity="1"><tspan>02:10 PM</tspan></text><text x="550.0845335184222" text-anchor="middle" style="color:#606060;cursor:default;font-size:11px;fill:#606060;" y="316" opacity="1"><tspan>02:12 PM</tspan></text></g><g class="highcharts-axis-labels highcharts-yaxis-labels" ><text x="52" text-anchor="end" style="width:178px;color:#606060;cursor:default;font-size:11px;fill:#606060;" y="299.5" opacity="1">0</text><text x="52" text-anchor="end" style="width:178px;color:#606060;cursor:default;font-size:11px;fill:#606060;" y="243.25" opacity="1">20</text><text x="52" text-anchor="end" style="width:178px;color:#606060;cursor:default;font-size:11px;fill:#606060;" y="187" opacity="1">40</text><text x="52" text-anchor="end" style="width:178px;color:#606060;cursor:default;font-size:11px;fill:#606060;" y="130.75" opacity="1">60</text><text x="52" text-anchor="end" style="width:178px;color:#606060;cursor:default;font-size:11px;fill:#606060;" y="74.5" opacity="1">80</text></g><g class="highcharts-tooltip"  style="cursor:default;padding:0;white-space:nowrap;" transform="translate(0,-9999)"><path fill="none" d="M 3 0 L 13 0 C 16 0 16 0 16 3 L 16 13 C 16 16 16 16 13 16 L 3 16 C 0 16 0 16 0 13 L 0 3 C 0 0 0 0 3 0"  stroke="black" stroke-opacity="0.049999999999999996" stroke-width="5" transform="translate(1, 1)"></path><path fill="none" d="M 3 0 L 13 0 C 16 0 16 0 16 3 L 16 13 C 16 16 16 16 13 16 L 3 16 C 0 16 0 16 0 13 L 0 3 C 0 0 0 0 3 0"  stroke="black" stroke-opacity="0.09999999999999999" stroke-width="3" transform="translate(1, 1)"></path><path fill="none" d="M 3 0 L 13 0 C 16 0 16 0 16 3 L 16 13 C 16 16 16 16 13 16 L 3 16 C 0 16 0 16 0 13 L 0 3 C 0 0 0 0 3 0"  stroke="black" stroke-opacity="0.15" stroke-width="1" transform="translate(1, 1)"></path><path fill="rgb(249, 249, 249)" fill-opacity=" .85" d="M 3 0 L 13 0 C 16 0 16 0 16 3 L 16 13 C 16 16 16 16 13 16 L 3 16 C 0 16 0 16 0 13 L 0 3 C 0 0 0 0 3 0"></path><text x="8"  style="font-size:12px;color:#333333;fill:#333333;" y="21"></text></g><text x="590" text-anchor="end"  style="cursor:pointer;color:#909090;font-size:9px;fill:#909090;" y="395">Highcharts.com</text></svg>