<svg xmlns:xlink="http://www.w3.org/1999/xlink" version="1.1" style="font-family:'lucida grande', 'lucida sans unicode', arial, helvetica, sans-serif;font-size:12px;" xmlns="http://www.w3.org/2000/svg" width="600" height="400"><desc>Created with Highcharts 4.0.4</desc><defs><clipPath id="highcharts-509"><rect x="0" y="0" width="522" height="247"></rect></clipPath></defs><rect x="0" y="0" width="600" height="400" strokeWidth="0" fill="#FFFFFF" class=" highcharts-background"></rect><g class="highcharts-grid" ></g><g class="highcharts-grid" ><path fill="none" d="M 68 61.5 L 590 61.5" stroke="#C0C0C0" stroke-width="1"  opacity="1"></path><path fill="none" d="M 68 123.5 L 590 123.5" stroke="#C0C0C0" stroke-width="1"  opacity="1"></path><path fill="none" d="M 68 185.5 L 590 185.5" stroke="#C0C0C0" stroke-width="1"  opacity="1"></path><path fill="none" d="M 68 246.5 L 590 246.5" stroke="#C0C0C0" stroke-width="1"  opacity="1"></path><path fill="none" d="M 68 308.5 L 590 308.5" stroke="#C0C0C0" stroke-width="1"  opacity="1"></path></g><g class="highcharts-axis" ><path fill="none" d="M 210.5 308 L 210.5 318" stroke="#C0D0E0" stroke-width="1" opacity="1"></path><path fill="none" d="M 313.5 308 L 313.5 318" stroke="#C0D0E0" stroke-width="1" opacity="1"></path><path fill="none" d="M 417.5 308 L 417.5 318" stroke="#C0D0E0" stroke-width="1" opacity="1"></path><path fill="none" d="M 520.5 308 L 520.5 318" stroke="#C0D0E0" stroke-width="1" opacity="1"></path><path fill="none" d="M 107.5 308 L 107.5 318" stroke="#C0D0E0" stroke-width="1" opacity="1"></path><text x="329"  text-anchor="middle" transform="translate(0,0)" class=" highcharts-xaxis-title" style="color:#707070;fill:#707070;" visibility="visible" y="346">Time</text><path fill="none" d="M 68 308.5 L 590 308.5" stroke="#C0D0E0" stroke-width="1"  visibility="visible"></path></g><g class="highcharts-axis" ><text x="24.46875"  text-anchor="middle" transform="translate(0,0) rotate(270 24.46875 184.5)" class=" highcharts-yaxis-title" style="color:#707070;fill:#707070;" visibility="visible" y="184.5"><tspan>Questions Correct</tspan></text></g><g class="highcharts-series-group" ><g class="highcharts-series" visibility="visible"  transform="translate(68,61) scale(1 1)" clip-path="url(#highcharts-509)"><path fill="none" d="M 5.117647058823529 244.53 C 5.117647058823529 244.53 10.685537075810847 244.53 14.397463753802393 244.53 C 15.497293880614706 244.53 16.04720894402086 242.06 17.14703907083317 242.06 C 19.346699324457788 242.06 20.446529451270102 242.06 22.646189704894716 242.06 C 24.020977363410104 242.06 24.708371192667798 240.68777777777777 26.083158851183185 239.59 C 27.182988977995496 238.7117777777778 27.73290404140165 237.9104 28.83273416821396 237.12 C 30.482479358432425 235.9344 31.307351953541662 235.39100000000002 32.95709714376012 234.65 C 35.7066724607909 233.415 37.081460119306286 233.1209523809524 39.83103543633706 232.18 C 42.85556828507091 231.14495238095242 44.367834709437844 230.67604444444444 47.39236755817169 229.71 C 50.55437917275708 228.70004444444447 52.13538498004978 228.61721212121213 55.29739659463517 227.24 C 56.672184253150554 226.64121212121213 57.35957808240825 225.5604 58.734365740923636 224.77 C 60.79654722869672 223.58440000000002 61.82763797258326 223.288 63.889819460356335 222.3 C 65.95200094812942 221.31199999999998 66.98309169201596 220.59 69.04527317978904 219.82999999999998 C 72.34476356022597 218.61399999999998 73.99450875044442 218.71497142857143 77.29399913088136 217.36 C 78.80626555524829 216.73897142857143 79.56239876743174 215.878 81.07466519179867 214.89 C 82.58693161616561 213.902 83.34306482834907 213.14453333333333 84.855331252716 212.42 C 87.46742780389523 211.1685333333333 88.77347607948484 210.88859999999997 91.38557263066409 209.95 C 94.2726267135464 208.9126 95.71615375498756 208.1833220338983 98.60320783786987 207.48 C 103.82740094022833 206.20732203389832 106.4394974914076 206.2826779661017 111.66369059376605 205.01 C 114.55074467664835 204.3066779661017 115.99427171808952 203.92319999999998 118.88132580097184 202.54 C 120.11863469363568 201.94719999999998 120.7372891399676 201.11611764705881 121.97459803263145 200.07 C 123.07442815944376 199.14011764705884 123.62434322284992 197.904 124.72417334966222 197.6 C 130.77323904712995 195.928 133.79777189586378 196.60362711864406 139.8468375933315 195.13 C 141.90901908110456 194.62762711864406 142.9401098249911 192.66 145.00229131276419 192.66 C 146.65203650298264 192.66 147.47690909809188 192.66 149.12665428831036 192.66 C 150.77639947852882 192.66 151.60127207363806 191.17799999999997 153.2510172638565 190.19 C 154.900762454075 189.202 155.7256350491842 188.2589090909091 157.3753802394027 187.72 C 161.77470074665194 186.2829090909091 163.97436100027653 186.72051162790697 168.3736815075258 185.25 C 169.8859479318927 184.74451162790697 170.64208114407614 183.23283333333333 172.1543475684431 182.78 C 177.24106190495002 181.25683333333333 179.78441907320348 181.35445714285714 184.8711334097104 180.31 C 189.40793268281118 179.37845714285714 191.6763323193616 178.9268 196.21313159246236 177.83999999999997 C 199.92505827045392 176.9508 201.78102160944968 176.6107441860465 205.49294828744124 175.37 C 207.69260854106588 174.6347441860465 208.79243866787814 173.91987096774193 210.9920989215028 172.89999999999998 C 213.05428040927586 171.94387096774193 214.08537115316238 170.91590163934427 216.1475526409355 170.43 C 222.47157587010625 168.9399016393443 225.63358748469165 167.95999999999998 231.95761071386244 167.95999999999998 C 233.6073559040809 167.95999999999998 234.4322284991901 167.95999999999998 236.0819736894086 167.95999999999998 C 237.1818038162209 167.95999999999998 237.73171887962707 165.89533333333335 238.8315490064394 165.49 C 243.09339074783708 163.91933333333336 245.22431161853592 164.15437037037034 249.48615335993364 163.01999999999998 C 252.64816497451903 162.17837037037035 254.22917078181172 161.36157142857144 257.3911823963971 160.55 C 261.92798166949785 159.3855714285714 264.19638130604824 159.52906666666664 268.73318057914906 158.07999999999998 C 270.3829257693675 157.55306666666667 271.20779836447673 156.48822222222225 272.8575435546952 155.61 C 274.9197250424683 154.51222222222225 275.95081578635484 153.61806451612904 278.01299727412794 153.14 C 284.4744992691502 151.64206451612904 287.7052502666614 152.121125 294.1667522616837 150.67 C 296.50389128115984 150.145125 297.6724607908979 148.93026086956522 300.0095998103741 148.2 C 303.9964840200687 146.95426086956522 305.989926124916 147.12765853658536 309.97681033461066 145.73 C 311.6265555248291 145.15165853658536 312.4514281199384 143.69911111111108 314.1011733101568 143.26 C 319.8752814759215 141.72311111111108 322.7623355588038 141.8020975609756 328.5364437245684 140.79 C 334.03559435862996 139.8260975609756 336.78516967566077 139.78370370370368 342.28432030972226 138.32 C 344.2090230316438 137.80770370370368 345.1713743926046 137.0026666666666 347.0960771145261 135.85 C 348.47086477304157 135.0266666666666 349.1582586022992 133.8619512195122 350.5330462608146 133.38 C 354.7948880022123 131.8859512195122 356.92580887291115 132.13512 361.18765061430884 130.91 C 363.79974716548804 130.15912 365.1057954410777 129.8305185185185 367.7178919922569 128.44 C 368.81772211906923 127.8545185185185 369.3676371824754 127.02386666666668 370.4674673092877 125.96999999999998 C 371.42981867024844 125.04786666666668 371.91099435072886 124.36449999999999 372.87334571168964 123.49999999999999 C 374.1106546043535 122.3885 374.7293090506854 121.60367741935482 375.96661794334926 121.02999999999999 C 378.99115079208315 119.62767741935484 380.5034172164501 118.56 383.5279500651839 118.56 C 385.31517402125394 118.56 386.2087859992889 118.56 387.9960099553589 118.56 C 388.6834037846166 118.56 389.0271006992454 116.85000000000001 389.7144945285031 116.09 C 390.81432465531543 114.87400000000001 391.3642397187216 114.74914285714284 392.4640698455339 113.61999999999998 C 393.28894244064315 112.77314285714283 393.7013787381978 112.06199999999997 394.526251333307 111.14999999999998 C 395.4886026942678 110.086 395.96977837474816 109.74399999999997 396.93212973570894 108.67999999999998 C 397.7570023308182 107.76799999999997 398.1694386283728 106.90741176470583 398.994311223482 106.20999999999998 C 400.5065776478489 104.93141176470583 401.26271086003237 104.72799999999998 402.7749772843993 103.73999999999998 C 404.28724370876625 102.75199999999998 405.0433769209497 102.25799999999998 406.55564334531664 101.26999999999998 C 408.0679097696836 100.28199999999998 408.824042981867 99.54951724137929 410.33630940623397 98.79999999999998 C 412.8109271915617 97.57351724137929 414.0482360842255 97.64733333333332 416.52285386955316 96.32999999999998 C 417.76016276221696 95.67133333333332 418.3788172085489 94.54399999999998 419.6161261012128 93.85999999999999 C 421.95326512068897 92.56799999999998 423.12183463042703 92.682 425.4589736499032 91.38999999999999 C 426.696282542567 90.706 427.314936988899 89.72836363636364 428.55224588156284 88.91999999999999 C 430.3394698376328 87.75236363636364 431.2330818156678 87.22842424242424 433.0203057717378 86.44999999999999 C 435.76988108876856 85.25242424242424 437.14466874728396 85.21499999999999 439.89424406431476 83.97999999999999 C 441.54398925453324 83.23899999999999 442.3688618496424 82.08834146341462 444.0186070398609 81.50999999999999 C 448.0054912495556 80.11234146341462 449.9989333544028 80.58875675675675 453.9858175640975 79.03999999999999 C 455.0856476909098 78.61275675675675 455.635562754316 77.13457142857142 456.7353928811283 76.57 C 459.484968198159 75.15857142857142 460.8597558566744 75.51142857142854 463.6093311737052 74.1 C 464.70916130051756 73.53542857142854 465.25907636392367 72.68386666666669 466.358906490736 71.63 C 467.3212578516967 70.70786666666669 467.8024335321772 69.9736470588235 468.7647848931379 69.16 C 470.1395725516533 67.9976470588235 470.826966380911 67.72999999999998 472.20175403942636 66.69 C 473.4390629320902 65.75399999999998 474.0577173784221 65.33150000000003 475.295026271086 64.22 C 476.2573776320467 63.35550000000003 476.7385533125272 62.73799999999998 477.7009046734879 61.74999999999997 C 478.66325603444864 60.76199999999996 479.1444317149291 59.675199999999954 480.10678307588984 59.27999999999997 C 483.95618851973296 57.699199999999955 485.88089124165447 57.7170163934426 489.73029668549754 56.809999999999974 C 494.2670959585983 55.7410163934426 496.5354955951487 55.78906666666664 501.0722948682495 54.339999999999975 C 502.722040058468 53.81306666666664 503.54691265357724 52.385478260869526 505.19665784379566 51.869999999999976 C 509.87093588274803 50.409478260869534 516.8823529411765 49.39999999999998 516.8823529411765 49.39999999999998" stroke="#9ab2d6" stroke-width="2"  stroke-linejoin="round" stroke-linecap="round"></path></g><g class="highcharts-markers" visibility="visible"  transform="translate(68,61) scale(1 1)" clip-path="none"></g></g><text x="300" text-anchor="middle" class="highcharts-title"  style="color:#333333;font-size:18px;fill:#333333;width:536px;" y="25"><tspan>Questions Correct Over Time</tspan></text><text x="300" text-anchor="middle" class="highcharts-subtitle"  style="color:#555555;fill:#555555;width:536px;" y="46"><tspan>Pinch the chart to zoom in</tspan></text><g class="highcharts-legend"  transform="translate(258,368)"><g ><g><g class="highcharts-legend-item"  transform="translate(8,3)"><path fill="none" d="M 0 11 L 16 11" stroke="#9ab2d6" stroke-width="2"></path><path fill="#9ab2d6" d="M 8 7 C 13.328 7 13.328 15 8 15 C 2.6719999999999997 15 2.6719999999999997 7 8 7 Z"></path><text x="21" style="color:#333333;font-size:12px;font-weight:bold;cursor:pointer;fill:#333333;" text-anchor="start"  y="15">Questions</text></g></g></g></g><g class="highcharts-axis-labels highcharts-xaxis-labels" ><text x="108.17473235096591" text-anchor="middle" style="color:#606060;cursor:default;font-size:11px;fill:#606060;" y="328" opacity="1"><tspan>04:15 PM</tspan></text><text x="211.28380673961996" text-anchor="middle" style="color:#606060;cursor:default;font-size:11px;fill:#606060;" y="328" opacity="1"><tspan>04:20 PM</tspan></text><text x="314.392881128274" text-anchor="middle" style="color:#606060;cursor:default;font-size:11px;fill:#606060;" y="328" opacity="1"><tspan>04:25 PM</tspan></text><text x="417.50195551692804" text-anchor="middle" style="color:#606060;cursor:default;font-size:11px;fill:#606060;" y="328" opacity="1"><tspan>04:30 PM</tspan></text><text x="520.6110299055821" text-anchor="middle" style="color:#606060;cursor:default;font-size:11px;fill:#606060;" y="328" opacity="1"><tspan>04:35 PM</tspan></text></g><g class="highcharts-axis-labels highcharts-yaxis-labels" ><text x="53" text-anchor="end" style="width:178px;color:#606060;cursor:default;font-size:11px;fill:#606060;" y="313.5" opacity="1">0</text><text x="53" text-anchor="end" style="width:178px;color:#606060;cursor:default;font-size:11px;fill:#606060;" y="66.49999999999997" opacity="1">100</text><text x="53" text-anchor="end" style="width:178px;color:#606060;cursor:default;font-size:11px;fill:#606060;" y="251.75" opacity="1">25</text><text x="53" text-anchor="end" style="width:178px;color:#606060;cursor:default;font-size:11px;fill:#606060;" y="190" opacity="1">50</text><text x="53" text-anchor="end" style="width:178px;color:#606060;cursor:default;font-size:11px;fill:#606060;" y="128.24999999999997" opacity="1">75</text></g><g class="highcharts-tooltip"  style="cursor:default;padding:0;white-space:nowrap;" transform="translate(0,-9999)"><path fill="none" d="M 3 0 L 13 0 C 16 0 16 0 16 3 L 16 13 C 16 16 16 16 13 16 L 3 16 C 0 16 0 16 0 13 L 0 3 C 0 0 0 0 3 0"  stroke="black" stroke-opacity="0.049999999999999996" stroke-width="5" transform="translate(1, 1)"></path><path fill="none" d="M 3 0 L 13 0 C 16 0 16 0 16 3 L 16 13 C 16 16 16 16 13 16 L 3 16 C 0 16 0 16 0 13 L 0 3 C 0 0 0 0 3 0"  stroke="black" stroke-opacity="0.09999999999999999" stroke-width="3" transform="translate(1, 1)"></path><path fill="none" d="M 3 0 L 13 0 C 16 0 16 0 16 3 L 16 13 C 16 16 16 16 13 16 L 3 16 C 0 16 0 16 0 13 L 0 3 C 0 0 0 0 3 0"  stroke="black" stroke-opacity="0.15" stroke-width="1" transform="translate(1, 1)"></path><path fill="rgb(249, 249, 249)" fill-opacity=" .85" d="M 3 0 L 13 0 C 16 0 16 0 16 3 L 16 13 C 16 16 16 16 13 16 L 3 16 C 0 16 0 16 0 13 L 0 3 C 0 0 0 0 3 0"></path><text x="8"  style="font-size:12px;color:#333333;fill:#333333;" y="21"></text></g><text x="590" text-anchor="end"  style="cursor:pointer;color:#909090;font-size:9px;fill:#909090;" y="395">Highcharts.com</text></svg>