<svg xmlns:xlink="http://www.w3.org/1999/xlink" version="1.1" style="font-family:'lucida grande', 'lucida sans unicode', arial, helvetica, sans-serif;font-size:12px;" xmlns="http://www.w3.org/2000/svg" width="600" height="400"><desc>Created with Highcharts 4.0.4</desc><defs><clipPath id="highcharts-17"><rect x="0" y="0" width="519" height="223"></rect></clipPath></defs><rect x="0" y="0" width="600" height="400" strokeWidth="0" fill="#FFFFFF" class=" highcharts-background"></rect><g class="highcharts-grid" ></g><g class="highcharts-grid" ><path fill="none" d="M 71 71.5 L 590 71.5" stroke="#C0C0C0" stroke-width="1"  opacity="1"></path><path fill="none" d="M 71 117.5 L 590 117.5" stroke="#C0C0C0" stroke-width="1"  opacity="1"></path><path fill="none" d="M 71 161.5 L 590 161.5" stroke="#C0C0C0" stroke-width="1"  opacity="1"></path><path fill="none" d="M 71 206.5 L 590 206.5" stroke="#C0C0C0" stroke-width="1"  opacity="1"></path><path fill="none" d="M 71 250.5 L 590 250.5" stroke="#C0C0C0" stroke-width="1"  opacity="1"></path><path fill="none" d="M 71 295.5 L 590 295.5" stroke="#C0C0C0" stroke-width="1"  opacity="1"></path></g><g class="highcharts-axis" ><path fill="none" d="M 266.5 295 L 266.5 305" stroke="#C0D0E0" stroke-width="1" opacity="1"></path><path fill="none" d="M 372.5 295 L 372.5 305" stroke="#C0D0E0" stroke-width="1" opacity="1"></path><path fill="none" d="M 478.5 295 L 478.5 305" stroke="#C0D0E0" stroke-width="1" opacity="1"></path><path fill="none" d="M 584.5 295 L 584.5 305" stroke="#C0D0E0" stroke-width="1" opacity="1"></path><path fill="none" d="M 160.5 295 L 160.5 305" stroke="#C0D0E0" stroke-width="1" opacity="1"></path><text x="330.5"  text-anchor="middle" transform="translate(0,0)" class=" highcharts-xaxis-title" style="color:#707070;fill:#707070;" visibility="visible" y="336.65625">Time</text><path fill="none" d="M 71 295.5 L 590 295.5" stroke="#C0D0E0" stroke-width="1"  visibility="visible"></path></g><g class="highcharts-axis" ><text x="28.609375"  text-anchor="middle" transform="translate(0,0) rotate(270 28.609375 183.5)" class=" highcharts-yaxis-title" style="color:#707070;fill:#707070;" visibility="visible" y="183.5"><tspan>Questions Correct</tspan></text></g><g class="highcharts-series-group" ><g class="highcharts-series" visibility="visible"  transform="translate(71,72) scale(1 1)" clip-path="url(#highcharts-17)"><path fill="none" d="M 5.088235294117648 223 C 5.088235294117648 223 81.41176470588236 151.64000000000001 132.29411764705884 133.8 C 284.9411764705883 80.28 513.9117647058824 44.599999999999994 513.9117647058824 44.599999999999994" stroke="#9ab2d6" stroke-width="2"  stroke-linejoin="round" stroke-linecap="round"></path></g><g class="highcharts-markers" visibility="visible"  transform="translate(71,72) scale(1 1)" clip-path="none"><path fill="rgb(8, 243, 53)" d="M 513 40.599999999999994 C 518.328 40.599999999999994 518.328 48.599999999999994 513 48.599999999999994 C 507.672 48.599999999999994 507.672 40.599999999999994 513 40.599999999999994 Z"></path><path fill="rgb(8, 243, 53)" d="M 132 129.8 C 137.328 129.8 137.328 137.8 132 137.8 C 126.672 137.8 126.672 129.8 132 129.8 Z"></path><path fill="rgb(245, 64, 50)" d="M 5 219 C 10.328 219 10.328 227 5 227 C -0.32800000000000007 227 -0.32800000000000007 219 5 219 Z"></path></g></g><text x="300" text-anchor="middle" class="highcharts-title"  style="color:#333333;font-size:18px;fill:#333333;width:536px;" y="25"><tspan>Questions Correct Over Time</tspan></text><text x="300" text-anchor="middle" class="highcharts-subtitle"  style="color:#555555;fill:#555555;width:536px;" y="53"><tspan>Click and drag in the plot area to zoom in</tspan></text><g class="highcharts-legend"  transform="translate(255,363)"><g ><g><g class="highcharts-legend-item"  transform="translate(8,3)"><path fill="none" d="M 0 11 L 16 11" stroke="#9ab2d6" stroke-width="2"></path><path fill="#9ab2d6" d="M 8 7 C 13.328 7 13.328 15 8 15 C 2.6719999999999997 15 2.6719999999999997 7 8 7 Z"></path><text x="21" style="color:#333333;font-size:12px;font-weight:bold;cursor:pointer;fill:#333333;" text-anchor="start"  y="15">Questions</text></g></g></g></g><g class="highcharts-axis-labels highcharts-xaxis-labels" ><text x="160.89215686274508" text-anchor="middle" style="color:#606060;cursor:default;font-size:11px;fill:#606060;" y="315" opacity="1"><tspan>11:02 PM</tspan></text><text x="266.8970588235294" text-anchor="middle" style="color:#606060;cursor:default;font-size:11px;fill:#606060;" y="315" opacity="1"><tspan>11:02 PM</tspan></text><text x="372.90196078431376" text-anchor="middle" style="color:#606060;cursor:default;font-size:11px;fill:#606060;" y="315" opacity="1"><tspan>11:02 PM</tspan></text><text x="478.90686274509807" text-anchor="middle" style="color:#606060;cursor:default;font-size:11px;fill:#606060;" y="315" opacity="1"><tspan>11:02 PM</tspan></text><text x="574.8359375" text-anchor="middle" style="color:#606060;cursor:default;font-size:11px;fill:#606060;" y="315" opacity="1"><tspan>11:02 PM</tspan></text></g><g class="highcharts-axis-labels highcharts-yaxis-labels" ><text x="56" text-anchor="end" style="width:178px;color:#606060;cursor:default;font-size:11px;fill:#606060;" y="298.671875" opacity="1">0</text><text x="56" text-anchor="end" style="width:178px;color:#606060;cursor:default;font-size:11px;fill:#606060;" y="254.07187499999998" opacity="1">0.5</text><text x="56" text-anchor="end" style="width:178px;color:#606060;cursor:default;font-size:11px;fill:#606060;" y="209.471875" opacity="1">1</text><text x="56" text-anchor="end" style="width:178px;color:#606060;cursor:default;font-size:11px;fill:#606060;" y="164.871875" opacity="1">1.5</text><text x="56" text-anchor="end" style="width:178px;color:#606060;cursor:default;font-size:11px;fill:#606060;" y="120.271875" opacity="1">2</text><text x="56" text-anchor="end" style="width:178px;color:#606060;cursor:default;font-size:11px;fill:#606060;" y="75.671875" opacity="1">2.5</text></g><g class="highcharts-tooltip"  style="cursor:default;padding:0;white-space:nowrap;" transform="translate(0,-9999)"><path fill="none" d="M 3 0 L 13 0 C 16 0 16 0 16 3 L 16 13 C 16 16 16 16 13 16 L 3 16 C 0 16 0 16 0 13 L 0 3 C 0 0 0 0 3 0"  stroke="black" stroke-opacity="0.049999999999999996" stroke-width="5" transform="translate(1, 1)"></path><path fill="none" d="M 3 0 L 13 0 C 16 0 16 0 16 3 L 16 13 C 16 16 16 16 13 16 L 3 16 C 0 16 0 16 0 13 L 0 3 C 0 0 0 0 3 0"  stroke="black" stroke-opacity="0.09999999999999999" stroke-width="3" transform="translate(1, 1)"></path><path fill="none" d="M 3 0 L 13 0 C 16 0 16 0 16 3 L 16 13 C 16 16 16 16 13 16 L 3 16 C 0 16 0 16 0 13 L 0 3 C 0 0 0 0 3 0"  stroke="black" stroke-opacity="0.15" stroke-width="1" transform="translate(1, 1)"></path><path fill="rgb(249, 249, 249)" fill-opacity=" .85" d="M 3 0 L 13 0 C 16 0 16 0 16 3 L 16 13 C 16 16 16 16 13 16 L 3 16 C 0 16 0 16 0 13 L 0 3 C 0 0 0 0 3 0"></path><text x="8"  style="font-size:12px;color:#333333;fill:#333333;" y="21"></text></g><text x="590" text-anchor="end"  style="cursor:pointer;color:#909090;font-size:9px;fill:#909090;" y="395">Highcharts.com</text></svg>