<svg xmlns:xlink="http://www.w3.org/1999/xlink" version="1.1" style="font-family:'lucida grande', 'lucida sans unicode', arial, helvetica, sans-serif;font-size:12px;" xmlns="http://www.w3.org/2000/svg" width="600" height="400"><desc>Created with Highcharts 4.0.4</desc><defs><clipPath id="highcharts-491"><rect x="0" y="0" width="523" height="249"></rect></clipPath></defs><rect x="0" y="0" width="600" height="400" strokeWidth="0" fill="#FFFFFF" class=" highcharts-background"></rect><g class="highcharts-grid" ></g><g class="highcharts-grid" ><path fill="none" d="M 67 60.5 L 590 60.5" stroke="#C0C0C0" stroke-width="1"  opacity="1"></path><path fill="none" d="M 67 122.5 L 590 122.5" stroke="#C0C0C0" stroke-width="1"  opacity="1"></path><path fill="none" d="M 67 185.5 L 590 185.5" stroke="#C0C0C0" stroke-width="1"  opacity="1"></path><path fill="none" d="M 67 247.5 L 590 247.5" stroke="#C0C0C0" stroke-width="1"  opacity="1"></path><path fill="none" d="M 67 309.5 L 590 309.5" stroke="#C0C0C0" stroke-width="1"  opacity="1"></path></g><g class="highcharts-axis" ><path fill="none" d="M 143.5 309 L 143.5 319" stroke="#C0D0E0" stroke-width="1" opacity="1"></path><path fill="none" d="M 209.5 309 L 209.5 319" stroke="#C0D0E0" stroke-width="1" opacity="1"></path><path fill="none" d="M 275.5 309 L 275.5 319" stroke="#C0D0E0" stroke-width="1" opacity="1"></path><path fill="none" d="M 340.5 309 L 340.5 319" stroke="#C0D0E0" stroke-width="1" opacity="1"></path><path fill="none" d="M 406.5 309 L 406.5 319" stroke="#C0D0E0" stroke-width="1" opacity="1"></path><path fill="none" d="M 472.5 309 L 472.5 319" stroke="#C0D0E0" stroke-width="1" opacity="1"></path><path fill="none" d="M 537.5 309 L 537.5 319" stroke="#C0D0E0" stroke-width="1" opacity="1"></path><path fill="none" d="M 78.5 309 L 78.5 319" stroke="#C0D0E0" stroke-width="1" opacity="1"></path><text x="328.5"  text-anchor="middle" transform="translate(0,0)" class=" highcharts-xaxis-title" style="color:#707070;fill:#707070;" visibility="visible" y="346.34375">Time</text><path fill="none" d="M 67 309.5 L 590 309.5" stroke="#C0D0E0" stroke-width="1"  visibility="visible"></path></g><g class="highcharts-axis" ><text x="23.640625"  text-anchor="middle" transform="translate(0,0) rotate(270 23.640625 184.5)" class=" highcharts-yaxis-title" style="color:#707070;fill:#707070;" visibility="visible" y="184.5"><tspan>Questions Correct</tspan></text></g><g class="highcharts-series-group" ><g class="highcharts-series" visibility="visible"  transform="translate(67,60) scale(1 1)" clip-path="url(#highcharts-491)"><path fill="none" d="M 5.127450980392157 246.51 C 5.127450980392157 246.51 9.724098604222906 245.182 12.788530353443406 244.02 C 14.97741017431519 243.19000000000003 16.071850084751084 242.194 18.26072990562287 241.53 C 22.63848954736644 240.202 24.827369368238227 240.368 29.205129009981796 239.04 C 31.39400883085358 238.376 32.488448741289474 237.2877777777778 34.67732856216126 236.55 C 38.3984242576433 235.2957777777778 40.258972105384316 235.36246153846156 43.98006780086635 234.06 C 45.95005963965095 233.37046153846154 46.935055559043256 232.08222857142857 48.905047397827865 231.57 C 54.5961349320945 230.09022857142858 57.44167869922783 230.47978378378377 63.13276623349447 229.07999999999998 C 65.54053403645344 228.48778378378375 66.74441793793292 227.6856 69.15218574089188 226.59 C 71.12217757967649 225.69360000000003 72.1071734990688 224.9964 74.0771653378534 224.1 C 76.48493314081236 223.00439999999998 77.68881704229184 222.65342857142858 80.0965848452508 221.61 C 82.28546466612258 220.66142857142862 83.37990457655849 219.88615384615386 85.56878439743026 219.12 C 89.07099211082513 217.89415384615384 90.82209596752254 217.81044444444444 94.32430368091741 216.63 C 96.73207148387637 215.81844444444442 97.93595538535587 215.13599999999997 100.34372318831483 214.14 C 102.7514909912738 213.144 103.95537489275327 212.46155555555558 106.36314269571223 211.65 C 109.86535040910708 210.46955555555556 111.6164542658045 210.488 115.11866197919937 209.16 C 116.8697658358968 208.49599999999998 117.74531776424551 207.334 119.49642162094294 206.67 C 122.99862933433778 205.34199999999998 124.74973319103523 205.27903448275862 128.25194090443009 204.18 C 131.09748467156342 203.28703448275863 132.52025655513006 202.769 135.3658003222634 201.69 C 137.77356812522234 200.77700000000002 138.97745202670185 200.19599999999997 141.3852198296608 199.2 C 143.79298763261977 198.20399999999998 144.99687153409923 197.80559999999997 147.4046393370582 196.70999999999998 C 149.3746311758428 195.8136 150.3596270952351 194.22 152.32961893401972 194.22 C 154.95627471906587 194.22 156.26960261158894 194.22 158.8962583966351 194.22 C 161.7418021637684 194.22 163.16457404733507 192.85591304347824 166.01011781446837 191.73 C 168.19899763534016 190.86391304347825 169.29343754577604 190.14545454545456 171.48231736664783 189.24 C 174.108973151694 188.15345454545454 175.42230104421705 186.75 178.0489568292632 186.75 C 184.17782032770418 186.75 187.2422520769247 186.75 193.3711155753657 186.75 C 194.90333144997595 186.75 195.66943938728107 185.13150000000002 197.20165526189132 184.26 C 199.1716471006759 183.1395 200.1566430200682 181.76999999999998 202.12663485885284 181.76999999999998 C 206.94217046477078 181.76999999999998 209.34993826772975 181.76999999999998 214.16547387364767 181.76999999999998 C 215.91657773034507 181.76999999999998 216.79212965869382 180.1653333333333 218.54323351539122 179.28 C 220.732113336263 178.17333333333332 221.8265532466989 177.83842105263156 224.01543306757068 176.79 C 225.98542490635526 175.84642105263157 226.97042082574757 175.35458823529413 228.9404126645322 174.3 C 230.69151652122963 173.36258823529417 231.56706844957836 172.40022222222223 233.31817230627578 171.81 C 237.47704396593218 170.40822222222224 239.55647979576037 170.50275 243.71535145541677 169.32 C 246.56089522255007 168.51075 247.98366710611677 168.12479999999996 250.82921087325008 166.82999999999998 C 252.36142674786032 166.13279999999997 253.12753468516544 164.97381818181813 254.6597505597757 164.33999999999997 C 257.94307029108336 162.98181818181817 259.58473015673724 163.09499999999997 262.8680498880449 161.85 C 264.8380417268295 161.10299999999998 265.8230376462218 160.3035789473684 267.7930294850064 159.35999999999999 C 269.98190930587816 158.3115789473684 271.07634921631404 157.7 273.26522903718586 156.87 C 276.3296607864064 155.708 277.8618766610166 155.6476363636364 280.92630841023714 154.38 C 282.67741226693454 153.65563636363638 283.5529641952832 152.61436363636363 285.30406805198066 151.89 C 288.36849980120115 150.62236363636362 289.90071567581145 150.396 292.96514742503194 149.39999999999998 C 296.02957917425243 148.404 297.5617950488627 148.12252173913043 300.62622679808317 146.91 C 302.5962186368678 146.13052173913042 303.5812145562601 145.41599999999997 305.5512063950447 144.42 C 307.5211982338293 143.42399999999998 308.5061941532216 142.70947826086956 310.4761859920062 141.93 C 313.54061774122675 140.7174782608696 315.07283361583694 140.65252173913044 318.1372653650575 139.44 C 320.1072572038421 138.66052173913044 321.0922531232344 138.0045882352941 323.062244962019 136.95 C 324.81334881871646 136.01258823529412 325.68890074706513 135.29873684210523 327.44000460376253 134.45999999999998 C 329.8477724067215 133.30673684210524 331.051656308201 133.01342857142853 333.45942411116 131.96999999999997 C 335.6483039320318 131.02142857142854 336.74274384246763 130.58666666666667 338.93162366333945 129.48 C 340.68272752003685 128.59466666666668 341.5582794483856 128.05239999999998 343.309383305083 126.99 C 344.8415991796932 126.06039999999999 345.6077071169983 125.13381818181819 347.1399229916086 124.49999999999999 C 350.42324272291626 123.1418181818182 352.06490258857013 123.11666666666667 355.34822231987783 122.00999999999999 C 357.97487810492396 121.12466666666666 359.28820599744705 120.71519999999998 361.9148617824932 119.51999999999998 C 363.66596563919063 118.72319999999996 364.5415175675393 117.91533333333334 366.29262142423676 117.03 C 368.4815012451085 115.92333333333336 369.57594115554446 115.78499999999998 371.7648209764162 114.53999999999999 C 373.0781488689393 113.79299999999998 373.7348128152008 112.75305882352939 375.04814070772386 112.04999999999998 C 377.45590851068283 110.76105882352938 378.65979241216235 110.71326315789476 381.0675602151213 109.56 C 382.8186640718187 108.72126315789475 383.6942160001674 107.82885714285715 385.44531985686484 107.07 C 388.2908636239982 105.83685714285714 389.71363550756485 105.81314285714285 392.5591792746982 104.57999999999998 C 394.3102831313956 103.82114285714285 395.18583505974436 103.15239999999996 396.93693891644176 102.08999999999997 C 398.469154791052 101.16039999999997 399.23526272835704 100.5296 400.76747860296734 99.6 C 402.5185824596648 98.53760000000001 403.39413438801347 98.10600000000001 405.1452382447109 97.10999999999999 C 406.8963421014083 96.114 407.7718940297571 95.61599999999997 409.5229978864545 94.61999999999998 C 411.2741017431519 93.62399999999998 412.1496536715007 93.12599999999998 413.9007575281981 92.13 C 415.65186138489554 91.13399999999997 416.5274133132442 90.27744 418.27851716994167 89.63999999999999 C 421.99961286542367 88.28543999999998 423.86016071316465 88.4042222222222 427.5812564086467 87.14999999999998 C 429.7701362295185 86.4122222222222 430.86457613995447 85.60857142857144 433.0534559608262 84.66 C 435.46122376378514 83.61657142857143 436.6651076652646 82.87683870967743 439.07287546822363 82.16999999999999 C 443.45063510996715 80.88483870967742 445.63951493083897 81.05379310344826 450.01727457258255 79.67999999999998 C 451.9872664113671 79.06179310344828 452.97226233075946 77.854 454.94225416954407 77.19 C 458.88223784711334 75.862 460.8522296858979 76.13423999999999 464.7922133634671 74.69999999999999 C 466.3244292380774 74.14223999999997 467.09053717538245 72.98466666666666 468.6227530499927 72.20999999999998 C 471.03052085295167 70.99266666666664 472.2344047544311 70.32866666666663 474.6421725573901 69.71999999999997 C 480.11437210956956 68.33666666666663 482.8504718856593 68.6133333333333 488.3226714378388 67.22999999999999 C 490.73043924079775 66.62133333333333 491.9343231422772 65.73599999999999 494.3420909452362 64.73999999999998 C 496.74985874819515 63.74399999999998 497.9537426496746 63.53894117647058 500.3615104526336 62.24999999999997 C 501.6748383451566 61.546941176470575 502.3315022914182 60.55680000000001 503.6448301839413 59.75999999999999 C 505.61482202272583 58.56480000000001 506.5998179421182 58.265999999999984 508.5698097809028 57.26999999999998 C 510.5398016196874 56.27399999999998 511.5247975390797 55.83458823529411 513.4947893778643 54.77999999999997 C 515.2458932345617 53.842588235294116 517.8725490196078 52.28999999999999 517.8725490196078 52.28999999999999" stroke="#9ab2d6" stroke-width="2"  stroke-linejoin="round" stroke-linecap="round"></path></g><g class="highcharts-markers" visibility="visible"  transform="translate(67,60) scale(1 1)" clip-path="none"></g></g><text x="300" text-anchor="middle" class="highcharts-title"  style="color:#333333;font-size:18px;fill:#333333;width:536px;" y="25"><tspan>Questions Correct Over Time</tspan></text><text x="300" text-anchor="middle" class="highcharts-subtitle"  style="color:#555555;fill:#555555;width:536px;" y="45"><tspan>Pinch the chart to zoom in</tspan></text><g class="highcharts-legend"  transform="translate(256,368)"><g ><g><g class="highcharts-legend-item"  transform="translate(8,3)"><path fill="none" d="M 0 11 L 16 11" stroke="#9ab2d6" stroke-width="2"></path><path fill="#9ab2d6" d="M 8 7 C 13.328 7 13.328 15 8 15 C 2.6719999999999997 15 2.6719999999999997 7 8 7 Z"></path><text x="21" style="color:#333333;font-size:12px;font-weight:bold;cursor:pointer;fill:#333333;" text-anchor="start"  y="15">Questions</text></g></g></g></g><g class="highcharts-axis-labels highcharts-xaxis-labels" ><text x="78.69409044300751" text-anchor="middle" style="color:#606060;cursor:default;font-size:11px;fill:#606060;" y="329" opacity="1"><tspan>04:14 PM</tspan></text><text x="144.3604850691611" text-anchor="middle" style="color:#606060;cursor:default;font-size:11px;fill:#606060;" y="329" opacity="1"><tspan>04:16 PM</tspan></text><text x="210.02687969531465" text-anchor="middle" style="color:#606060;cursor:default;font-size:11px;fill:#606060;" y="329" opacity="1"><tspan>04:18 PM</tspan></text><text x="275.6932743214682" text-anchor="middle" style="color:#606060;cursor:default;font-size:11px;fill:#606060;" y="329" opacity="1"><tspan>04:20 PM</tspan></text><text x="341.35966894762174" text-anchor="middle" style="color:#606060;cursor:default;font-size:11px;fill:#606060;" y="329" opacity="1"><tspan>04:22 PM</tspan></text><text x="407.02606357377533" text-anchor="middle" style="color:#606060;cursor:default;font-size:11px;fill:#606060;" y="329" opacity="1"><tspan>04:24 PM</tspan></text><text x="472.69245819992886" text-anchor="middle" style="color:#606060;cursor:default;font-size:11px;fill:#606060;" y="329" opacity="1"><tspan>04:26 PM</tspan></text><text x="538.3588528260825" text-anchor="middle" style="color:#606060;cursor:default;font-size:11px;fill:#606060;" y="329" opacity="1"><tspan>04:28 PM</tspan></text></g><g class="highcharts-axis-labels highcharts-yaxis-labels" ><text x="52" text-anchor="end" style="width:178px;color:#606060;cursor:default;font-size:11px;fill:#606060;" y="314.828125" opacity="1">0</text><text x="52" text-anchor="end" style="width:178px;color:#606060;cursor:default;font-size:11px;fill:#606060;" y="65.82812499999997" opacity="1">100</text><text x="52" text-anchor="end" style="width:178px;color:#606060;cursor:default;font-size:11px;fill:#606060;" y="252.578125" opacity="1">25</text><text x="52" text-anchor="end" style="width:178px;color:#606060;cursor:default;font-size:11px;fill:#606060;" y="190.328125" opacity="1">50</text><text x="52" text-anchor="end" style="width:178px;color:#606060;cursor:default;font-size:11px;fill:#606060;" y="128.07812499999997" opacity="1">75</text></g><g class="highcharts-tooltip"  style="cursor:default;padding:0;white-space:nowrap;" transform="translate(0,-9999)"><path fill="none" d="M 3 0 L 13 0 C 16 0 16 0 16 3 L 16 13 C 16 16 16 16 13 16 L 3 16 C 0 16 0 16 0 13 L 0 3 C 0 0 0 0 3 0"  stroke="black" stroke-opacity="0.049999999999999996" stroke-width="5" transform="translate(1, 1)"></path><path fill="none" d="M 3 0 L 13 0 C 16 0 16 0 16 3 L 16 13 C 16 16 16 16 13 16 L 3 16 C 0 16 0 16 0 13 L 0 3 C 0 0 0 0 3 0"  stroke="black" stroke-opacity="0.09999999999999999" stroke-width="3" transform="translate(1, 1)"></path><path fill="none" d="M 3 0 L 13 0 C 16 0 16 0 16 3 L 16 13 C 16 16 16 16 13 16 L 3 16 C 0 16 0 16 0 13 L 0 3 C 0 0 0 0 3 0"  stroke="black" stroke-opacity="0.15" stroke-width="1" transform="translate(1, 1)"></path><path fill="rgb(249, 249, 249)" fill-opacity=" .85" d="M 3 0 L 13 0 C 16 0 16 0 16 3 L 16 13 C 16 16 16 16 13 16 L 3 16 C 0 16 0 16 0 13 L 0 3 C 0 0 0 0 3 0"></path><text x="8"  style="font-size:12px;color:#333333;fill:#333333;" y="21"></text></g><text x="590" text-anchor="end"  style="cursor:pointer;color:#909090;font-size:9px;fill:#909090;" y="395">Highcharts.com</text></svg>