<svg xmlns:xlink="http://www.w3.org/1999/xlink" version="1.1" style="font-family:'lucida grande', 'lucida sans unicode', arial, helvetica, sans-serif;font-size:12px;" xmlns="http://www.w3.org/2000/svg" width="600" height="400"><desc>Created with Highcharts 4.0.4</desc><defs><clipPath id="highcharts-5"><rect x="0" y="0" width="525" height="245"></rect></clipPath></defs><rect x="0" y="0" width="600" height="400" strokeWidth="0" fill="#FFFFFF" class=" highcharts-background"></rect><g class="highcharts-grid" ></g><g class="highcharts-grid" ><path fill="none" d="M 65 60.5 L 590 60.5" stroke="#C0C0C0" stroke-width="1"  opacity="1"></path><path fill="none" d="M 65 110.5 L 590 110.5" stroke="#C0C0C0" stroke-width="1"  opacity="1"></path><path fill="none" d="M 65 159.5 L 590 159.5" stroke="#C0C0C0" stroke-width="1"  opacity="1"></path><path fill="none" d="M 65 208.5 L 590 208.5" stroke="#C0C0C0" stroke-width="1"  opacity="1"></path><path fill="none" d="M 65 257.5 L 590 257.5" stroke="#C0C0C0" stroke-width="1"  opacity="1"></path><path fill="none" d="M 65 306.5 L 590 306.5" stroke="#C0C0C0" stroke-width="1"  opacity="1"></path></g><g class="highcharts-axis" ><path fill="none" d="M 256.5 306 L 256.5 316" stroke="#C0D0E0" stroke-width="1" opacity="1"></path><path fill="none" d="M 373.5 306 L 373.5 316" stroke="#C0D0E0" stroke-width="1" opacity="1"></path><path fill="none" d="M 490.5 306 L 490.5 316" stroke="#C0D0E0" stroke-width="1" opacity="1"></path><path fill="none" d="M 139.5 306 L 139.5 316" stroke="#C0D0E0" stroke-width="1" opacity="1"></path><text x="327.5"  text-anchor="middle" transform="translate(0,0)" class=" highcharts-xaxis-title" style="color:#707070;fill:#707070;" visibility="visible" y="344.5">Time</text><path fill="none" d="M 65 306.5 L 590 306.5" stroke="#C0D0E0" stroke-width="1"  visibility="visible"></path></g><g class="highcharts-axis" ><text x="24.733333587646484"  text-anchor="middle" transform="translate(0,0) rotate(270 24.733333587646484 183.5)" class=" highcharts-yaxis-title" style="color:#707070;fill:#707070;" visibility="visible" y="183.5"><tspan>Questions Correct</tspan></text></g><g class="highcharts-series-group" ><g class="highcharts-series" visibility="visible"  transform="translate(65,61) scale(1 1)" clip-path="url(#highcharts-5)"><path fill="none" d="M 5.147058823529412 147 C 5.147058823529412 147 519.8529411764706 49 519.8529411764706 49" stroke="#9ab2d6" stroke-width="2"  stroke-linejoin="round" stroke-linecap="round"></path></g><g class="highcharts-markers" visibility="visible"  transform="translate(65,61) scale(1 1)" clip-path="none"><path fill="rgb(8, 243, 53)" d="M 519 45 C 524.328 45 524.328 53 519 53 C 513.672 53 513.672 45 519 45 Z"></path><path fill="rgb(8, 243, 53)" d="M 5 143 C 10.328 143 10.328 151 5 151 C -0.32800000000000007 151 -0.32800000000000007 143 5 143 Z"></path></g></g><text x="300" text-anchor="middle" class="highcharts-title"  style="color:#333333;font-size:18px;fill:#333333;width:536px;" y="25"><tspan>Questions Correct Over Time</tspan></text><text x="300" text-anchor="middle" class="highcharts-subtitle"  style="color:#555555;fill:#555555;width:536px;" y="47"><tspan>Pinch the chart to zoom in</tspan></text><g class="highcharts-legend"  transform="translate(258,367)"><g ><g><g class="highcharts-legend-item"  transform="translate(8,3)"><path fill="none" d="M 0 11 L 16 11" stroke="#9ab2d6" stroke-width="2"></path><path fill="#9ab2d6" d="M 8 7 C 13.328 7 13.328 15 8 15 C 2.6719999999999997 15 2.6719999999999997 7 8 7 Z"></path><text x="21" style="color:#333333;font-size:12px;font-weight:bold;cursor:pointer;fill:#333333;" text-anchor="start"  y="15">Questions</text></g></g></g></g><g class="highcharts-axis-labels highcharts-xaxis-labels" ><text x="140.33422459893046" text-anchor="middle" style="color:#606060;cursor:default;font-size:11px;fill:#606060;" y="326" opacity="1"><tspan>10:02 PM</tspan></text><text x="257.31283422459893" text-anchor="middle" style="color:#606060;cursor:default;font-size:11px;fill:#606060;" y="326" opacity="1"><tspan>10:02 PM</tspan></text><text x="374.2914438502674" text-anchor="middle" style="color:#606060;cursor:default;font-size:11px;fill:#606060;" y="326" opacity="1"><tspan>10:02 PM</tspan></text><text x="491.2700534759358" text-anchor="middle" style="color:#606060;cursor:default;font-size:11px;fill:#606060;" y="326" opacity="1"><tspan>10:03 PM</tspan></text></g><g class="highcharts-axis-labels highcharts-yaxis-labels" ><text x="50" text-anchor="end" style="width:178px;color:#606060;cursor:default;font-size:11px;fill:#606060;" y="311.25" opacity="1">0</text><text x="50" text-anchor="end" style="width:178px;color:#606060;cursor:default;font-size:11px;fill:#606060;" y="262.25" opacity="1">0.5</text><text x="50" text-anchor="end" style="width:178px;color:#606060;cursor:default;font-size:11px;fill:#606060;" y="213.25" opacity="1">1</text><text x="50" text-anchor="end" style="width:178px;color:#606060;cursor:default;font-size:11px;fill:#606060;" y="164.25" opacity="1">1.5</text><text x="50" text-anchor="end" style="width:178px;color:#606060;cursor:default;font-size:11px;fill:#606060;" y="115.25" opacity="1">2</text><text x="50" text-anchor="end" style="width:178px;color:#606060;cursor:default;font-size:11px;fill:#606060;" y="66.25" opacity="1">2.5</text></g><g class="highcharts-tooltip"  style="cursor:default;padding:0;white-space:nowrap;" transform="translate(0,-9999)"><path fill="none" d="M 3 0 L 13 0 C 16 0 16 0 16 3 L 16 13 C 16 16 16 16 13 16 L 3 16 C 0 16 0 16 0 13 L 0 3 C 0 0 0 0 3 0"  stroke="black" stroke-opacity="0.049999999999999996" stroke-width="5" transform="translate(1, 1)"></path><path fill="none" d="M 3 0 L 13 0 C 16 0 16 0 16 3 L 16 13 C 16 16 16 16 13 16 L 3 16 C 0 16 0 16 0 13 L 0 3 C 0 0 0 0 3 0"  stroke="black" stroke-opacity="0.09999999999999999" stroke-width="3" transform="translate(1, 1)"></path><path fill="none" d="M 3 0 L 13 0 C 16 0 16 0 16 3 L 16 13 C 16 16 16 16 13 16 L 3 16 C 0 16 0 16 0 13 L 0 3 C 0 0 0 0 3 0"  stroke="black" stroke-opacity="0.15" stroke-width="1" transform="translate(1, 1)"></path><path fill="rgb(249, 249, 249)" fill-opacity=" .85" d="M 3 0 L 13 0 C 16 0 16 0 16 3 L 16 13 C 16 16 16 16 13 16 L 3 16 C 0 16 0 16 0 13 L 0 3 C 0 0 0 0 3 0"></path><text x="8"  style="font-size:12px;color:#333333;fill:#333333;" y="21"></text></g><text x="590" text-anchor="end"  style="cursor:pointer;color:#909090;font-size:9px;fill:#909090;" y="395">Highcharts.com</text></svg>