<svg xmlns:xlink="http://www.w3.org/1999/xlink" version="1.1" style="font-family:'lucida grande', 'lucida sans unicode', arial, helvetica, sans-serif;font-size:12px;" xmlns="http://www.w3.org/2000/svg" width="600" height="400"><desc>Created with Highcharts 4.0.4</desc><defs><clipPath id="highcharts-5"><rect x="0" y="0" width="530" height="225"></rect></clipPath></defs><rect x="0" y="0" width="600" height="400" strokeWidth="0" fill="#FFFFFF" class=" highcharts-background"></rect><g class="highcharts-grid" ></g><g class="highcharts-grid" ><path fill="none" d="M 60 184.5 L 590 184.5" stroke="#C0C0C0" stroke-width="1"  opacity="1"></path></g><g class="highcharts-axis" ><path fill="none" d="M 154.5 296 L 154.5 306" stroke="#C0D0E0" stroke-width="1" opacity="1"></path><path fill="none" d="M 231.5 296 L 231.5 306" stroke="#C0D0E0" stroke-width="1" opacity="1"></path><path fill="none" d="M 308.5 296 L 308.5 306" stroke="#C0D0E0" stroke-width="1" opacity="1"></path><path fill="none" d="M 385.5 296 L 385.5 306" stroke="#C0D0E0" stroke-width="1" opacity="1"></path><path fill="none" d="M 462.5 296 L 462.5 306" stroke="#C0D0E0" stroke-width="1" opacity="1"></path><path fill="none" d="M 539.5 296 L 539.5 306" stroke="#C0D0E0" stroke-width="1" opacity="1"></path><path fill="none" d="M 78.5 296 L 78.5 306" stroke="#C0D0E0" stroke-width="1" opacity="1"></path><text x="325"  text-anchor="middle" transform="translate(0,0)" class=" highcharts-xaxis-title" style="color:#707070;fill:#707070;" visibility="visible" y="338">Time</text><path fill="none" d="M 60 296.5 L 590 296.5" stroke="#C0D0E0" stroke-width="1"  visibility="visible"></path></g><g class="highcharts-axis" ><text x="27.984375"  text-anchor="middle" transform="translate(0,0) rotate(270 27.984375 183.5)" class=" highcharts-yaxis-title" style="color:#707070;fill:#707070;" visibility="visible" y="183.5"><tspan>Questions Correct</tspan></text></g><g class="highcharts-series-group" ><g class="highcharts-series" visibility="visible"  transform="translate(60,71) scale(1 1)" clip-path="url(#highcharts-5)"><path fill="none" d="M 5.196078431372549 112.5 C 5.196078431372549 112.5 5.657724096548788 112.5 5.965487873332947 112.5 C 6.581015426901264 112.5 6.888779203685424 112.5 7.504306757253741 112.5 C 11.710411706637247 112.5 13.813464181329 112.5 18.019569130712505 112.5 C 18.840272535470262 112.5 19.250624237849138 112.5 20.071327642606896 112.5 C 20.584267270580494 112.5 20.840737084567294 112.5 21.353676712540892 112.5 C 25.970133364303273 112.5 28.278361690184465 112.5 32.89481834194685 112.5 C 34.125873449083485 112.5 34.741401002651806 112.5 35.97245610978844 112.5 C 36.998335365735635 112.5 37.511274993709236 112.5 38.53715424965643 112.5 C 233.04386117724488 112.5 524.8039215686275 112.5 524.8039215686275 112.5" stroke="#9ab2d6" stroke-width="2"  stroke-linejoin="round" stroke-linecap="round"></path></g><g class="highcharts-markers" visibility="visible"  transform="translate(60,71) scale(1 1)" clip-path="none"><path fill="rgb(245, 64, 50)" d="M 524 108.5 C 529.328 108.5 529.328 116.5 524 116.5 C 518.672 116.5 518.672 108.5 524 108.5 Z"></path><path fill="rgb(245, 64, 50)" d="M 38 108.5 C 43.328 108.5 43.328 116.5 38 116.5 C 32.672 116.5 32.672 108.5 38 108.5 Z"></path><path fill="rgb(245, 64, 50)" d="M 35 108.5 C 40.328 108.5 40.328 116.5 35 116.5 C 29.672 116.5 29.672 108.5 35 108.5 Z"></path><path fill="rgb(245, 64, 50)" d="M 32 108.5 C 37.328 108.5 37.328 116.5 32 116.5 C 26.672 116.5 26.672 108.5 32 108.5 Z"></path><path fill="rgb(245, 64, 50)" d="M 21 108.5 C 26.328 108.5 26.328 116.5 21 116.5 C 15.672 116.5 15.672 108.5 21 108.5 Z"></path><path fill="rgb(245, 64, 50)" d="M 20 108.5 C 25.328 108.5 25.328 116.5 20 116.5 C 14.672 116.5 14.672 108.5 20 108.5 Z"></path><path fill="rgb(245, 64, 50)" d="M 18 108.5 C 23.328 108.5 23.328 116.5 18 116.5 C 12.672 116.5 12.672 108.5 18 108.5 Z"></path><path fill="rgb(245, 64, 50)" d="M 7 108.5 C 12.328 108.5 12.328 116.5 7 116.5 C 1.672 116.5 1.672 108.5 7 108.5 Z"></path><path fill="rgb(245, 64, 50)" d="M 5 108.5 C 10.328 108.5 10.328 116.5 5 116.5 C -0.32800000000000007 116.5 -0.32800000000000007 108.5 5 108.5 Z"></path><path fill="rgb(245, 64, 50)" d="M 5 108.5 C 10.328 108.5 10.328 116.5 5 116.5 C -0.32800000000000007 116.5 -0.32800000000000007 108.5 5 108.5 Z"></path></g></g><text x="300" text-anchor="middle" class="highcharts-title"  style="color:#333333;font-size:18px;fill:#333333;width:536px;" y="25"><tspan>Questions Correct Over Time</tspan></text><text x="300" text-anchor="middle" class="highcharts-subtitle"  style="color:#555555;fill:#555555;width:536px;" y="53"><tspan>Click and drag in the plot area to zoom in</tspan></text><g class="highcharts-legend"  transform="translate(255,364)"><g ><g><g class="highcharts-legend-item"  transform="translate(8,3)"><path fill="none" d="M 0 11 L 16 11" stroke="#9ab2d6" stroke-width="2"></path><path fill="#9ab2d6" d="M 8 7 C 13.328 7 13.328 15 8 15 C 2.6719999999999997 15 2.6719999999999997 7 8 7 Z"></path><text x="21" style="color:#333333;font-size:12px;font-weight:bold;cursor:pointer;fill:#333333;" text-anchor="start"  y="15">Questions</text></g></g></g></g><g class="highcharts-axis-labels highcharts-xaxis-labels" ><text x="78.5325087586861" text-anchor="middle" style="color:#606060;cursor:default;font-size:11px;fill:#606060;" y="316" opacity="1"><tspan>01:35 PM</tspan></text><text x="155.47345295472581" text-anchor="middle" style="color:#606060;cursor:default;font-size:11px;fill:#606060;" y="316" opacity="1"><tspan>01:40 PM</tspan></text><text x="232.41439715076555" text-anchor="middle" style="color:#606060;cursor:default;font-size:11px;fill:#606060;" y="316" opacity="1"><tspan>01:45 PM</tspan></text><text x="309.3553413468053" text-anchor="middle" style="color:#606060;cursor:default;font-size:11px;fill:#606060;" y="316" opacity="1"><tspan>01:50 PM</tspan></text><text x="386.296285542845" text-anchor="middle" style="color:#606060;cursor:default;font-size:11px;fill:#606060;" y="316" opacity="1"><tspan>01:55 PM</tspan></text><text x="463.2372297388847" text-anchor="middle" style="color:#606060;cursor:default;font-size:11px;fill:#606060;" y="316" opacity="1"><tspan>02:00 PM</tspan></text><text x="540.1781739349244" text-anchor="middle" style="color:#606060;cursor:default;font-size:11px;fill:#606060;" y="316" opacity="1"><tspan>02:05 PM</tspan></text></g><g class="highcharts-axis-labels highcharts-yaxis-labels" ><text x="45" text-anchor="end" style="width:178px;color:#606060;cursor:default;font-size:11px;fill:#606060;" y="187" opacity="1">0</text></g><g class="highcharts-tooltip"  style="cursor:default;padding:0;white-space:nowrap;" transform="translate(0,-9999)"><path fill="none" d="M 3 0 L 13 0 C 16 0 16 0 16 3 L 16 13 C 16 16 16 16 13 16 L 3 16 C 0 16 0 16 0 13 L 0 3 C 0 0 0 0 3 0"  stroke="black" stroke-opacity="0.049999999999999996" stroke-width="5" transform="translate(1, 1)"></path><path fill="none" d="M 3 0 L 13 0 C 16 0 16 0 16 3 L 16 13 C 16 16 16 16 13 16 L 3 16 C 0 16 0 16 0 13 L 0 3 C 0 0 0 0 3 0"  stroke="black" stroke-opacity="0.09999999999999999" stroke-width="3" transform="translate(1, 1)"></path><path fill="none" d="M 3 0 L 13 0 C 16 0 16 0 16 3 L 16 13 C 16 16 16 16 13 16 L 3 16 C 0 16 0 16 0 13 L 0 3 C 0 0 0 0 3 0"  stroke="black" stroke-opacity="0.15" stroke-width="1" transform="translate(1, 1)"></path><path fill="rgb(249, 249, 249)" fill-opacity=" .85" d="M 3 0 L 13 0 C 16 0 16 0 16 3 L 16 13 C 16 16 16 16 13 16 L 3 16 C 0 16 0 16 0 13 L 0 3 C 0 0 0 0 3 0"></path><text x="8"  style="font-size:12px;color:#333333;fill:#333333;" y="21"></text></g><text x="590" text-anchor="end"  style="cursor:pointer;color:#909090;font-size:9px;fill:#909090;" y="395">Highcharts.com</text></svg>